M48
; DRILL file {KiCad 8.0.3} date 2025-01-10T12:31:24+0800
; FORMAT={-:-/ absolute / inch / decimal}
; #@! TF.CreationDate,2025-01-10T12:31:24+08:00
; #@! TF.GenerationSoftware,Kicad,Pcbnew,8.0.3
; #@! TF.FileFunction,Plated,1,2,PTH
FMAT,2
INCH
; #@! TA.AperFunction,Plated,PTH,ViaDrill
T1C0.0118
; #@! TA.AperFunction,Plated,PTH,ComponentDrill
T2C0.0394
%
G90
G05
T1
X5.0315Y-3.2244
X5.0709Y-3.2244
X5.1102Y-3.2244
X5.1496Y-3.2244
X5.161Y-2.8098
X5.189Y-3.2244
X5.2217Y-3.0937
X5.2472Y-3.1689
X5.3484Y-3.4752
X5.3673Y-3.4386
X5.3934Y-3.5094
X5.4138Y-3.3886
X5.4276Y-3.5094
X5.4457Y-3.1913
X5.4728Y-3.4756
X5.5251Y-3.0332
X5.5252Y-3.3291
X5.874Y-2.9165
X5.874Y-3.1768
X5.9622Y-3.1244
T2
X5.0138Y-2.8465
X5.1138Y-2.8465
X5.2138Y-2.8465
X5.3138Y-2.8465
X5.4138Y-2.8465
X5.5138Y-2.8465
X5.6138Y-2.8465
X5.7138Y-2.8465
X5.8138Y-2.8465
X5.9043Y-3.4528
X6.0043Y-3.4528
M30
