%TF.GenerationSoftware,KiCad,Pcbnew,8.0.3*%
%TF.CreationDate,2025-01-10T12:31:23+08:00*%
%TF.ProjectId,ICM-42688,49434d2d-3432-4363-9838-2e6b69636164,rev?*%
%TF.SameCoordinates,Original*%
%TF.FileFunction,Soldermask,Top*%
%TF.FilePolarity,Negative*%
%FSLAX46Y46*%
G04 Gerber Fmt 4.6, Leading zero omitted, Abs format (unit mm)*
G04 Created by KiCad (PCBNEW 8.0.3) date 2025-01-10 12:31:23*
%MOMM*%
%LPD*%
G01*
G04 APERTURE LIST*
G04 Aperture macros list*
%AMRoundRect*
0 Rectangle with rounded corners*
0 $1 Rounding radius*
0 $2 $3 $4 $5 $6 $7 $8 $9 X,Y pos of 4 corners*
0 Add a 4 corners polygon primitive as box body*
4,1,4,$2,$3,$4,$5,$6,$7,$8,$9,$2,$3,0*
0 Add four circle primitives for the rounded corners*
1,1,$1+$1,$2,$3*
1,1,$1+$1,$4,$5*
1,1,$1+$1,$6,$7*
1,1,$1+$1,$8,$9*
0 Add four rect primitives between the rounded corners*
20,1,$1+$1,$2,$3,$4,$5,0*
20,1,$1+$1,$4,$5,$6,$7,0*
20,1,$1+$1,$6,$7,$8,$9,0*
20,1,$1+$1,$8,$9,$2,$3,0*%
G04 Aperture macros list end*
%ADD10C,2.000000*%
%ADD11RoundRect,0.225000X-0.250000X0.225000X-0.250000X-0.225000X0.250000X-0.225000X0.250000X0.225000X0*%
%ADD12RoundRect,0.225000X0.375000X-0.225000X0.375000X0.225000X-0.375000X0.225000X-0.375000X-0.225000X0*%
%ADD13RoundRect,0.250000X0.925000X-0.412500X0.925000X0.412500X-0.925000X0.412500X-0.925000X-0.412500X0*%
%ADD14RoundRect,0.375000X0.625000X0.375000X-0.625000X0.375000X-0.625000X-0.375000X0.625000X-0.375000X0*%
%ADD15RoundRect,0.500000X0.500000X1.400000X-0.500000X1.400000X-0.500000X-1.400000X0.500000X-1.400000X0*%
%ADD16RoundRect,0.200000X0.200000X0.275000X-0.200000X0.275000X-0.200000X-0.275000X0.200000X-0.275000X0*%
%ADD17RoundRect,0.225000X-0.225000X-0.375000X0.225000X-0.375000X0.225000X0.375000X-0.225000X0.375000X0*%
%ADD18RoundRect,0.218750X0.218750X0.256250X-0.218750X0.256250X-0.218750X-0.256250X0.218750X-0.256250X0*%
%ADD19RoundRect,0.200000X-0.275000X0.200000X-0.275000X-0.200000X0.275000X-0.200000X0.275000X0.200000X0*%
%ADD20R,1.700000X1.700000*%
%ADD21O,1.700000X1.700000*%
%ADD22RoundRect,0.100000X-0.637500X-0.100000X0.637500X-0.100000X0.637500X0.100000X-0.637500X0.100000X0*%
%ADD23RoundRect,0.250000X0.412500X0.925000X-0.412500X0.925000X-0.412500X-0.925000X0.412500X-0.925000X0*%
%ADD24RoundRect,0.200000X-0.200000X-0.275000X0.200000X-0.275000X0.200000X0.275000X-0.200000X0.275000X0*%
%ADD25RoundRect,0.087500X-0.225000X-0.087500X0.225000X-0.087500X0.225000X0.087500X-0.225000X0.087500X0*%
%ADD26RoundRect,0.087500X-0.087500X-0.225000X0.087500X-0.225000X0.087500X0.225000X-0.087500X0.225000X0*%
%ADD27RoundRect,0.225000X0.250000X-0.225000X0.250000X0.225000X-0.250000X0.225000X-0.250000X-0.225000X0*%
G04 APERTURE END LIST*
D10*
%TO.C,H2*%
X152700000Y-72300000D03*
%TD*%
D11*
%TO.C,C5*%
X140360000Y-90205000D03*
X140360000Y-91755000D03*
%TD*%
%TO.C,C6*%
X131560000Y-87330000D03*
X131560000Y-88880000D03*
%TD*%
D12*
%TO.C,D4*%
X147470000Y-81450000D03*
X147470000Y-78150000D03*
%TD*%
D13*
%TO.C,C4*%
X123060000Y-80495000D03*
X123060000Y-77420000D03*
%TD*%
D11*
%TO.C,C7*%
X142460000Y-90205000D03*
X142460000Y-91755000D03*
%TD*%
D14*
%TO.C,U1*%
X128960000Y-88210000D03*
X128960000Y-85910000D03*
D15*
X122660000Y-85910000D03*
D14*
X128960000Y-83610000D03*
%TD*%
D16*
%TO.C,R2*%
X152585000Y-76100000D03*
X150935000Y-76100000D03*
%TD*%
D17*
%TO.C,D2*%
X128037500Y-91480000D03*
X131337500Y-91480000D03*
%TD*%
D12*
%TO.C,D1*%
X126660000Y-80607500D03*
X126660000Y-77307500D03*
%TD*%
D10*
%TO.C,H3*%
X152700000Y-92700000D03*
%TD*%
%TO.C,H4*%
X122300000Y-92700000D03*
%TD*%
D18*
%TO.C,D3*%
X152527500Y-78300000D03*
X150952500Y-78300000D03*
%TD*%
D19*
%TO.C,R1*%
X151760000Y-80535000D03*
X151760000Y-82185000D03*
%TD*%
D20*
%TO.C,JP1*%
X152510000Y-87700000D03*
D21*
X149970000Y-87700000D03*
%TD*%
D22*
%TO.C,U3*%
X134612500Y-77920000D03*
X134612500Y-78570000D03*
X134612500Y-79220000D03*
X134612500Y-79870000D03*
X134612500Y-80520000D03*
X134612500Y-81170000D03*
X134612500Y-81820000D03*
X140337500Y-81820000D03*
X140337500Y-81170000D03*
X140337500Y-80520000D03*
X140337500Y-79870000D03*
X140337500Y-79220000D03*
X140337500Y-78570000D03*
X140337500Y-77920000D03*
%TD*%
D23*
%TO.C,C3*%
X138000000Y-90980000D03*
X134925000Y-90980000D03*
%TD*%
D11*
%TO.C,C2*%
X131560000Y-83360000D03*
X131560000Y-84910000D03*
%TD*%
D24*
%TO.C,R3*%
X142725000Y-81890000D03*
X144375000Y-81890000D03*
%TD*%
D20*
%TO.C,J1*%
X127350000Y-72300000D03*
D21*
X129890000Y-72300000D03*
X132430000Y-72300000D03*
X134970000Y-72300000D03*
X137510000Y-72300000D03*
X140050000Y-72300000D03*
X142590000Y-72300000D03*
X145130000Y-72300000D03*
X147670000Y-72300000D03*
%TD*%
D11*
%TO.C,C9*%
X142800000Y-78155000D03*
X142800000Y-79705000D03*
%TD*%
D25*
%TO.C,U2*%
X136330000Y-85240000D03*
X136330000Y-85740000D03*
X136330000Y-86240000D03*
X136330000Y-86740000D03*
D26*
X136992500Y-86902500D03*
X137492500Y-86902500D03*
X137992500Y-86902500D03*
D25*
X138655000Y-86740000D03*
X138655000Y-86240000D03*
X138655000Y-85740000D03*
X138655000Y-85240000D03*
D26*
X137992500Y-85077500D03*
X137492500Y-85077500D03*
X136992500Y-85077500D03*
%TD*%
D27*
%TO.C,C8*%
X144590000Y-79705000D03*
X144590000Y-78155000D03*
%TD*%
D10*
%TO.C,H1*%
X122300000Y-72300000D03*
%TD*%
D13*
%TO.C,C1*%
X130220000Y-80495000D03*
X130220000Y-77420000D03*
%TD*%
M02*
