%TF.GenerationSoftware,KiCad,Pcbnew,8.0.3*%
%TF.CreationDate,2025-01-10T12:31:23+08:00*%
%TF.ProjectId,ICM-42688,49434d2d-3432-4363-9838-2e6b69636164,rev?*%
%TF.SameCoordinates,Original*%
%TF.FileFunction,Copper,L2,Bot*%
%TF.FilePolarity,Positive*%
%FSLAX46Y46*%
G04 Gerber Fmt 4.6, Leading zero omitted, Abs format (unit mm)*
G04 Created by KiCad (PCBNEW 8.0.3) date 2025-01-10 12:31:23*
%MOMM*%
%LPD*%
G01*
G04 APERTURE LIST*
%TA.AperFunction,ComponentPad*%
%ADD10R,1.700000X1.700000*%
%TD*%
%TA.AperFunction,ComponentPad*%
%ADD11O,1.700000X1.700000*%
%TD*%
%TA.AperFunction,ViaPad*%
%ADD12C,0.500000*%
%TD*%
%TA.AperFunction,Conductor*%
%ADD13C,0.400000*%
%TD*%
%TA.AperFunction,Conductor*%
%ADD14C,0.300000*%
%TD*%
G04 APERTURE END LIST*
D10*
%TO.P,JP1,1,A*%
%TO.N,Net-(JP1-A)*%
X152510000Y-87700000D03*
D11*
%TO.P,JP1,2,B*%
%TO.N,/AP_CS_3V3*%
X149970000Y-87700000D03*
%TD*%
D10*
%TO.P,J1,1,Pin_1*%
%TO.N,+5V*%
X127350000Y-72300000D03*
D11*
%TO.P,J1,2,Pin_2*%
%TO.N,+3V3*%
X129890000Y-72300000D03*
%TO.P,J1,3,Pin_3*%
%TO.N,/DOUT_AD0*%
X132430000Y-72300000D03*
%TO.P,J1,4,Pin_4*%
%TO.N,/SDA_DIN*%
X134970000Y-72300000D03*
%TO.P,J1,5,Pin_5*%
%TO.N,/SCL_SCLK*%
X137510000Y-72300000D03*
%TO.P,J1,6,Pin_6*%
%TO.N,/AP_CS*%
X140050000Y-72300000D03*
%TO.P,J1,7,Pin_7*%
%TO.N,/INT1*%
X142590000Y-72300000D03*
%TO.P,J1,8,Pin_8*%
%TO.N,/INT2*%
X145130000Y-72300000D03*
%TO.P,J1,9,Pin_9*%
%TO.N,GND*%
X147670000Y-72300000D03*
%TD*%
D12*
%TO.N,VDD*%
X133280000Y-80490000D03*
X140337500Y-77042500D03*
%TO.N,GND*%
X129800000Y-81900000D03*
X128800000Y-81900000D03*
X137860000Y-89140000D03*
X130800000Y-81900000D03*
X151440000Y-79360000D03*
X127800000Y-81900000D03*
X139010000Y-88280000D03*
X138320000Y-81060000D03*
X131090000Y-71370000D03*
X131800000Y-81900000D03*
X135850000Y-88270000D03*
%TO.N,+3V3*%
X136992500Y-89140000D03*
X132630000Y-78580000D03*
%TO.N,/AP_CS_3V3*%
X137510000Y-86070000D03*
%TO.N,/INT1*%
X136330000Y-87340000D03*
%TO.N,/INT2*%
X140340000Y-84560000D03*
%TO.N,/AP_CS*%
X149200000Y-80690000D03*
X149200000Y-74080000D03*
%TD*%
D13*
%TO.N,VDD*%
X136890000Y-80490000D02*
X140337500Y-77042500D01*
X133280000Y-80490000D02*
X136890000Y-80490000D01*
%TO.N,+3V3*%
X132630000Y-87800000D02*
X132630000Y-78580000D01*
X133970000Y-89140000D02*
X132630000Y-87800000D01*
X136992500Y-89140000D02*
X133970000Y-89140000D01*
D14*
%TO.N,/AP_CS_3V3*%
X137510000Y-86070000D02*
X137510000Y-87840000D01*
X148000000Y-89670000D02*
X149970000Y-87700000D01*
X137510000Y-87840000D02*
X139340000Y-89670000D01*
X139340000Y-89670000D02*
X148000000Y-89670000D01*
%TO.N,/INT1*%
X136330000Y-84640000D02*
X142590000Y-78380000D01*
X142590000Y-78380000D02*
X142590000Y-72300000D01*
X136330000Y-87340000D02*
X136330000Y-84640000D01*
%TO.N,/INT2*%
X140340000Y-84560000D02*
X145130000Y-79770000D01*
X145130000Y-79770000D02*
X145130000Y-72300000D01*
%TO.N,/AP_CS*%
X149200000Y-74080000D02*
X149200000Y-80690000D01*
%TD*%
%TA.AperFunction,Conductor*%
%TO.N,GND*%
G36*
X154002733Y-70500808D02*
G01*
X154105665Y-70512406D01*
X154116361Y-70514847D01*
X154211519Y-70548144D01*
X154221393Y-70552899D01*
X154306759Y-70606538D01*
X154315337Y-70613379D01*
X154386620Y-70684662D01*
X154393461Y-70693240D01*
X154447097Y-70778600D01*
X154451858Y-70788487D01*
X154485151Y-70883637D01*
X154487593Y-70894333D01*
X154499192Y-70997265D01*
X154499500Y-71002752D01*
X154499500Y-93997247D01*
X154499192Y-94002734D01*
X154487593Y-94105666D01*
X154485151Y-94116362D01*
X154451858Y-94211512D01*
X154447097Y-94221399D01*
X154393461Y-94306759D01*
X154386620Y-94315337D01*
X154315337Y-94386620D01*
X154306759Y-94393461D01*
X154221399Y-94447097D01*
X154211512Y-94451858D01*
X154116362Y-94485151D01*
X154105666Y-94487593D01*
X154009877Y-94498386D01*
X154002732Y-94499192D01*
X153997247Y-94499500D01*
X121002753Y-94499500D01*
X120997267Y-94499192D01*
X120989061Y-94498267D01*
X120894333Y-94487593D01*
X120883637Y-94485151D01*
X120819221Y-94462612D01*
X120788484Y-94451856D01*
X120778603Y-94447098D01*
X120693240Y-94393461D01*
X120684662Y-94386620D01*
X120613379Y-94315337D01*
X120606538Y-94306759D01*
X120552899Y-94221393D01*
X120548144Y-94211519D01*
X120514847Y-94116361D01*
X120512406Y-94105665D01*
X120500808Y-94002733D01*
X120500500Y-93997247D01*
X120500500Y-92601583D01*
X121049500Y-92601583D01*
X121049500Y-92798416D01*
X121080290Y-92992823D01*
X121080291Y-92992826D01*
X121141116Y-93180026D01*
X121230472Y-93355399D01*
X121230475Y-93355403D01*
X121230476Y-93355405D01*
X121346172Y-93514646D01*
X121346174Y-93514648D01*
X121346177Y-93514652D01*
X121485347Y-93653822D01*
X121485350Y-93653824D01*
X121485354Y-93653828D01*
X121644595Y-93769524D01*
X121644597Y-93769525D01*
X121644600Y-93769527D01*
X121819973Y-93858883D01*
X121819975Y-93858884D01*
X122007174Y-93919709D01*
X122201583Y-93950500D01*
X122201584Y-93950500D01*
X122398416Y-93950500D01*
X122398417Y-93950500D01*
X122592826Y-93919709D01*
X122780025Y-93858884D01*
X122955405Y-93769524D01*
X123114646Y-93653828D01*
X123253828Y-93514646D01*
X123369524Y-93355405D01*
X123458884Y-93180025D01*
X123519709Y-92992826D01*
X123550500Y-92798417D01*
X123550500Y-92601583D01*
X151449500Y-92601583D01*
X151449500Y-92798416D01*
X151480290Y-92992823D01*
X151480291Y-92992826D01*
X151541116Y-93180026D01*
X151630472Y-93355399D01*
X151630475Y-93355403D01*
X151630476Y-93355405D01*
X151746172Y-93514646D01*
X151746174Y-93514648D01*
X151746177Y-93514652D01*
X151885347Y-93653822D01*
X151885350Y-93653824D01*
X151885354Y-93653828D01*
X152044595Y-93769524D01*
X152044597Y-93769525D01*
X152044600Y-93769527D01*
X152219973Y-93858883D01*
X152219975Y-93858884D01*
X152407174Y-93919709D01*
X152601583Y-93950500D01*
X152601584Y-93950500D01*
X152798416Y-93950500D01*
X152798417Y-93950500D01*
X152992826Y-93919709D01*
X153180025Y-93858884D01*
X153355405Y-93769524D01*
X153514646Y-93653828D01*
X153653828Y-93514646D01*
X153769524Y-93355405D01*
X153858884Y-93180025D01*
X153919709Y-92992826D01*
X153950500Y-92798417D01*
X153950500Y-92601583D01*
X153919709Y-92407174D01*
X153858884Y-92219975D01*
X153769524Y-92044595D01*
X153653828Y-91885354D01*
X153653824Y-91885350D01*
X153653822Y-91885347D01*
X153514652Y-91746177D01*
X153514653Y-91746177D01*
X153355399Y-91630472D01*
X153180026Y-91541116D01*
X152992826Y-91480291D01*
X152992823Y-91480290D01*
X152843482Y-91456637D01*
X152798417Y-91449500D01*
X152601583Y-91449500D01*
X152564998Y-91455294D01*
X152407176Y-91480290D01*
X152407173Y-91480291D01*
X152219973Y-91541116D01*
X152044600Y-91630472D01*
X151885347Y-91746177D01*
X151746177Y-91885347D01*
X151630472Y-92044600D01*
X151541116Y-92219973D01*
X151480291Y-92407173D01*
X151480290Y-92407176D01*
X151449500Y-92601583D01*
X123550500Y-92601583D01*
X123519709Y-92407174D01*
X123458884Y-92219975D01*
X123369524Y-92044595D01*
X123253828Y-91885354D01*
X123253824Y-91885350D01*
X123253822Y-91885347D01*
X123114652Y-91746177D01*
X123114653Y-91746177D01*
X122955399Y-91630472D01*
X122780026Y-91541116D01*
X122592826Y-91480291D01*
X122592823Y-91480290D01*
X122443482Y-91456637D01*
X122398417Y-91449500D01*
X122201583Y-91449500D01*
X122164998Y-91455294D01*
X122007176Y-91480290D01*
X122007173Y-91480291D01*
X121819973Y-91541116D01*
X121644600Y-91630472D01*
X121485347Y-91746177D01*
X121346177Y-91885347D01*
X121230472Y-92044600D01*
X121141116Y-92219973D01*
X121080291Y-92407173D01*
X121080290Y-92407176D01*
X121049500Y-92601583D01*
X120500500Y-92601583D01*
X120500500Y-78579997D01*
X132174867Y-78579997D01*
X132174867Y-78580000D01*
X132176032Y-78588105D01*
X132177109Y-78595596D01*
X132177379Y-78607292D01*
X132176801Y-78613256D01*
X132224465Y-79089910D01*
X132227710Y-79101581D01*
X132229500Y-79114705D01*
X132229500Y-87852730D01*
X132256792Y-87954587D01*
X132256793Y-87954589D01*
X132268743Y-87975286D01*
X132309520Y-88045913D01*
X133724087Y-89460480D01*
X133790938Y-89499077D01*
X133815410Y-89513206D01*
X133815412Y-89513207D01*
X133917269Y-89540499D01*
X133917270Y-89540500D01*
X133917273Y-89540500D01*
X136458779Y-89540500D01*
X136473072Y-89542631D01*
X136482588Y-89545533D01*
X136920843Y-89589357D01*
X136924252Y-89590023D01*
X136924256Y-89590000D01*
X136927725Y-89590499D01*
X136927728Y-89590500D01*
X136929813Y-89590500D01*
X136934688Y-89590743D01*
X136937144Y-89590988D01*
X136959239Y-89593198D01*
X136965470Y-89593671D01*
X136969039Y-89593943D01*
X136969705Y-89593977D01*
X136970148Y-89594000D01*
X136981771Y-89592023D01*
X136986658Y-89591193D01*
X136994870Y-89590500D01*
X137057272Y-89590500D01*
X137057276Y-89590499D01*
X137077824Y-89584465D01*
X137181569Y-89554004D01*
X137290549Y-89483967D01*
X137375382Y-89386063D01*
X137429197Y-89268226D01*
X137429197Y-89268224D01*
X137429198Y-89268223D01*
X137447633Y-89140002D01*
X137447633Y-89139997D01*
X137429198Y-89011776D01*
X137421797Y-88995572D01*
X137375382Y-88893937D01*
X137290549Y-88796033D01*
X137181569Y-88725996D01*
X137178681Y-88725148D01*
X137057276Y-88689500D01*
X137057272Y-88689500D01*
X136989435Y-88689500D01*
X136984703Y-88689271D01*
X136959243Y-88686801D01*
X136959241Y-88686801D01*
X136959239Y-88686801D01*
X136939591Y-88688765D01*
X136934678Y-88689257D01*
X136929803Y-88689500D01*
X136927728Y-88689500D01*
X136927725Y-88689500D01*
X136924265Y-88689998D01*
X136924261Y-88689975D01*
X136920855Y-88690638D01*
X136482587Y-88734465D01*
X136474434Y-88736732D01*
X136470915Y-88737710D01*
X136457793Y-88739500D01*
X134156189Y-88739500D01*
X134121541Y-88725148D01*
X133044852Y-87648459D01*
X133030500Y-87613811D01*
X133030500Y-87339997D01*
X135874867Y-87339997D01*
X135874867Y-87340002D01*
X135893301Y-87468223D01*
X135947118Y-87586063D01*
X136031951Y-87683967D01*
X136140931Y-87754004D01*
X136210093Y-87774311D01*
X136265223Y-87790499D01*
X136265228Y-87790500D01*
X136394772Y-87790500D01*
X136394776Y-87790499D01*
X136415324Y-87784465D01*
X136519069Y-87754004D01*
X136628049Y-87683967D01*
X136712882Y-87586063D01*
X136766697Y-87468226D01*
X136766697Y-87468224D01*
X136766698Y-87468223D01*
X136785133Y-87340002D01*
X136785133Y-87339997D01*
X136766697Y-87211774D01*
X136764307Y-87206539D01*
X136760833Y-87195807D01*
X136687628Y-86830255D01*
X136683382Y-86809051D01*
X136683377Y-86809037D01*
X136682902Y-86807327D01*
X136683030Y-86807291D01*
X136683029Y-86807286D01*
X136683071Y-86807277D01*
X136680500Y-86792495D01*
X136680500Y-86069997D01*
X137054867Y-86069997D01*
X137054867Y-86070002D01*
X137073301Y-86198221D01*
X137073303Y-86198228D01*
X137075694Y-86203464D01*
X137079166Y-86214192D01*
X137079411Y-86215414D01*
X137153827Y-86587014D01*
X137153828Y-86587019D01*
X137156619Y-86600954D01*
X137156620Y-86600957D01*
X137156621Y-86600961D01*
X137157103Y-86602696D01*
X137156929Y-86602744D01*
X137159500Y-86617508D01*
X137159500Y-87886146D01*
X137183385Y-87975286D01*
X137183386Y-87975290D01*
X137224161Y-88045913D01*
X137229530Y-88055212D01*
X139124788Y-89950470D01*
X139154040Y-89967359D01*
X139204709Y-89996613D01*
X139204711Y-89996613D01*
X139204712Y-89996614D01*
X139226998Y-90002585D01*
X139293853Y-90020500D01*
X139293856Y-90020500D01*
X148046146Y-90020500D01*
X148090716Y-90008557D01*
X148135288Y-89996614D01*
X148215212Y-89950470D01*
X148968539Y-89197141D01*
X148986266Y-89185805D01*
X150354810Y-88682362D01*
X150358711Y-88680882D01*
X150359138Y-88680715D01*
X150359145Y-88680710D01*
X150359832Y-88680357D01*
X150368070Y-88677016D01*
X150373954Y-88675232D01*
X150556450Y-88577685D01*
X150716410Y-88446410D01*
X150847685Y-88286450D01*
X150945232Y-88103954D01*
X151005300Y-87905934D01*
X151025583Y-87700000D01*
X151005300Y-87494066D01*
X150945232Y-87296046D01*
X150847685Y-87113550D01*
X150716410Y-86953590D01*
X150566121Y-86830252D01*
X151459500Y-86830252D01*
X151459500Y-88569748D01*
X151471133Y-88628231D01*
X151488882Y-88654795D01*
X151515447Y-88694552D01*
X151542012Y-88712301D01*
X151581769Y-88738867D01*
X151640252Y-88750500D01*
X151640255Y-88750500D01*
X153379745Y-88750500D01*
X153379748Y-88750500D01*
X153438231Y-88738867D01*
X153504552Y-88694552D01*
X153548867Y-88628231D01*
X153560500Y-88569748D01*
X153560500Y-86830252D01*
X153548867Y-86771769D01*
X153517462Y-86724769D01*
X153504552Y-86705447D01*
X153443569Y-86664700D01*
X153438231Y-86661133D01*
X153379748Y-86649500D01*
X151640252Y-86649500D01*
X151581769Y-86661133D01*
X151515447Y-86705447D01*
X151471133Y-86771769D01*
X151459500Y-86830252D01*
X150566121Y-86830252D01*
X150556450Y-86822315D01*
X150373954Y-86724768D01*
X150175934Y-86664700D01*
X149970000Y-86644417D01*
X149764065Y-86664700D01*
X149764064Y-86664700D01*
X149566043Y-86724769D01*
X149383548Y-86822316D01*
X149223590Y-86953590D01*
X149092316Y-87113548D01*
X148994767Y-87296047D01*
X148992081Y-87304900D01*
X148988485Y-87312922D01*
X148988686Y-87313019D01*
X148987639Y-87315183D01*
X148987637Y-87315187D01*
X148987637Y-87315188D01*
X148978509Y-87340002D01*
X148484192Y-88683732D01*
X148472853Y-88701463D01*
X147869170Y-89305148D01*
X147834522Y-89319500D01*
X139505478Y-89319500D01*
X139470830Y-89305148D01*
X137874852Y-87709170D01*
X137860500Y-87674522D01*
X137860500Y-86617660D01*
X137863337Y-86603451D01*
X137862680Y-86603251D01*
X137863377Y-86600960D01*
X137863382Y-86600949D01*
X137940588Y-86215414D01*
X137940588Y-86215409D01*
X137940832Y-86214192D01*
X137944305Y-86203463D01*
X137946697Y-86198226D01*
X137965133Y-86070000D01*
X137965133Y-86069997D01*
X137946698Y-85941776D01*
X137939297Y-85925572D01*
X137892882Y-85823937D01*
X137808049Y-85726033D01*
X137699069Y-85655996D01*
X137699066Y-85655995D01*
X137574776Y-85619500D01*
X137574772Y-85619500D01*
X137445228Y-85619500D01*
X137445223Y-85619500D01*
X137320933Y-85655995D01*
X137211950Y-85726033D01*
X137127119Y-85823936D01*
X137127118Y-85823936D01*
X137073301Y-85941776D01*
X137054867Y-86069997D01*
X136680500Y-86069997D01*
X136680500Y-84805478D01*
X136694852Y-84770830D01*
X136905685Y-84559997D01*
X139884867Y-84559997D01*
X139884867Y-84560002D01*
X139903301Y-84688223D01*
X139940321Y-84769284D01*
X139957118Y-84806063D01*
X140041951Y-84903967D01*
X140150931Y-84974004D01*
X140220093Y-84994311D01*
X140275223Y-85010499D01*
X140275228Y-85010500D01*
X140404772Y-85010500D01*
X140404776Y-85010499D01*
X140425324Y-85004465D01*
X140529069Y-84974004D01*
X140638049Y-84903967D01*
X140722882Y-84806063D01*
X140736018Y-84777297D01*
X140745903Y-84763044D01*
X140747296Y-84761648D01*
X140965316Y-84434440D01*
X140965319Y-84434433D01*
X140966201Y-84432873D01*
X140966358Y-84432962D01*
X140974982Y-84420698D01*
X145410470Y-79985212D01*
X145456614Y-79905288D01*
X145468557Y-79860716D01*
X145480500Y-79816146D01*
X145480500Y-74079997D01*
X148744867Y-74079997D01*
X148744867Y-74080002D01*
X148763301Y-74208221D01*
X148763303Y-74208228D01*
X148765694Y-74213464D01*
X148769166Y-74224192D01*
X148769411Y-74225414D01*
X148843827Y-74597014D01*
X148843828Y-74597019D01*
X148846619Y-74610954D01*
X148846620Y-74610957D01*
X148846621Y-74610961D01*
X148847103Y-74612696D01*
X148846929Y-74612744D01*
X148849500Y-74627508D01*
X148849500Y-80142339D01*
X148846673Y-80156556D01*
X148847318Y-80156753D01*
X148846617Y-80159050D01*
X148769167Y-80545805D01*
X148765695Y-80556534D01*
X148763302Y-80561775D01*
X148744867Y-80689997D01*
X148744867Y-80690002D01*
X148763301Y-80818223D01*
X148783845Y-80863206D01*
X148817118Y-80936063D01*
X148901951Y-81033967D01*
X149010931Y-81104004D01*
X149080093Y-81124311D01*
X149135223Y-81140499D01*
X149135228Y-81140500D01*
X149264772Y-81140500D01*
X149264776Y-81140499D01*
X149285324Y-81134465D01*
X149389069Y-81104004D01*
X149498049Y-81033967D01*
X149582882Y-80936063D01*
X149636697Y-80818226D01*
X149636697Y-80818224D01*
X149636698Y-80818223D01*
X149655133Y-80690002D01*
X149655133Y-80689997D01*
X149636697Y-80561774D01*
X149634307Y-80556539D01*
X149630833Y-80545807D01*
X149553384Y-80159062D01*
X149553382Y-80159051D01*
X149553377Y-80159037D01*
X149552902Y-80157327D01*
X149553030Y-80157291D01*
X149553029Y-80157286D01*
X149553071Y-80157277D01*
X149550500Y-80142495D01*
X149550500Y-74627660D01*
X149553337Y-74613451D01*
X149552680Y-74613251D01*
X149553377Y-74610960D01*
X149553382Y-74610949D01*
X149630588Y-74225414D01*
X149630588Y-74225409D01*
X149630832Y-74224192D01*
X149634305Y-74213463D01*
X149636697Y-74208226D01*
X149655133Y-74080000D01*
X149653233Y-74066782D01*
X149636698Y-73951776D01*
X149629297Y-73935572D01*
X149582882Y-73833937D01*
X149498049Y-73736033D01*
X149389069Y-73665996D01*
X149389066Y-73665995D01*
X149264776Y-73629500D01*
X149264772Y-73629500D01*
X149135228Y-73629500D01*
X149135223Y-73629500D01*
X149010933Y-73665995D01*
X148901950Y-73736033D01*
X148817119Y-73833936D01*
X148817118Y-73833936D01*
X148763301Y-73951776D01*
X148744867Y-74079997D01*
X145480500Y-74079997D01*
X145480500Y-74066782D01*
X145485020Y-74046227D01*
X146096737Y-72722532D01*
X146098350Y-72718952D01*
X146098534Y-72718533D01*
X146098537Y-72718514D01*
X146098819Y-72717641D01*
X146102264Y-72709504D01*
X146105232Y-72703954D01*
X146165300Y-72505934D01*
X146185583Y-72300000D01*
X146175734Y-72200000D01*
X146725251Y-72200000D01*
X147179157Y-72200000D01*
X147170000Y-72234174D01*
X147170000Y-72365826D01*
X147179157Y-72400000D01*
X146725252Y-72400000D01*
X146733745Y-72486233D01*
X146733745Y-72486234D01*
X146788066Y-72665305D01*
X146788069Y-72665312D01*
X146876285Y-72830351D01*
X146994996Y-72975000D01*
X146994999Y-72975003D01*
X147139649Y-73093714D01*
X147139648Y-73093714D01*
X147304687Y-73181930D01*
X147304694Y-73181933D01*
X147483766Y-73236254D01*
X147570000Y-73244748D01*
X147570000Y-72790842D01*
X147604174Y-72800000D01*
X147735826Y-72800000D01*
X147770000Y-72790842D01*
X147770000Y-73244747D01*
X147856233Y-73236254D01*
X147856234Y-73236254D01*
X148035305Y-73181933D01*
X148035312Y-73181930D01*
X148200351Y-73093714D01*
X148345000Y-72975003D01*
X148345003Y-72975000D01*
X148463714Y-72830351D01*
X148551930Y-72665312D01*
X148551933Y-72665305D01*
X148606254Y-72486234D01*
X148606254Y-72486233D01*
X148614748Y-72400000D01*
X148160843Y-72400000D01*
X148170000Y-72365826D01*
X148170000Y-72234174D01*
X148161267Y-72201583D01*
X151449500Y-72201583D01*
X151449500Y-72398416D01*
X151480290Y-72592823D01*
X151480291Y-72592826D01*
X151541116Y-72780026D01*
X151630472Y-72955399D01*
X151630475Y-72955403D01*
X151630476Y-72955405D01*
X151746172Y-73114646D01*
X151746174Y-73114648D01*
X151746177Y-73114652D01*
X151885347Y-73253822D01*
X151885350Y-73253824D01*
X151885354Y-73253828D01*
X152044595Y-73369524D01*
X152044597Y-73369525D01*
X152044600Y-73369527D01*
X152219973Y-73458883D01*
X152219975Y-73458884D01*
X152407174Y-73519709D01*
X152601583Y-73550500D01*
X152601584Y-73550500D01*
X152798416Y-73550500D01*
X152798417Y-73550500D01*
X152992826Y-73519709D01*
X153180025Y-73458884D01*
X153355405Y-73369524D01*
X153514646Y-73253828D01*
X153653828Y-73114646D01*
X153769524Y-72955405D01*
X153858884Y-72780025D01*
X153919709Y-72592826D01*
X153950500Y-72398417D01*
X153950500Y-72201583D01*
X153919709Y-72007174D01*
X153858884Y-71819975D01*
X153769524Y-71644595D01*
X153653828Y-71485354D01*
X153653824Y-71485350D01*
X153653822Y-71485347D01*
X153514652Y-71346177D01*
X153514653Y-71346177D01*
X153483945Y-71323866D01*
X153355405Y-71230476D01*
X153355403Y-71230475D01*
X153355399Y-71230472D01*
X153180026Y-71141116D01*
X152992826Y-71080291D01*
X152992823Y-71080290D01*
X152843482Y-71056637D01*
X152798417Y-71049500D01*
X152601583Y-71049500D01*
X152564998Y-71055294D01*
X152407176Y-71080290D01*
X152407173Y-71080291D01*
X152219973Y-71141116D01*
X152044600Y-71230472D01*
X151885347Y-71346177D01*
X151746177Y-71485347D01*
X151630472Y-71644600D01*
X151541116Y-71819973D01*
X151480291Y-72007173D01*
X151480290Y-72007176D01*
X151449500Y-72201583D01*
X148161267Y-72201583D01*
X148160843Y-72200000D01*
X148614748Y-72200000D01*
X148606254Y-72113766D01*
X148606254Y-72113765D01*
X148551933Y-71934694D01*
X148551930Y-71934687D01*
X148463714Y-71769648D01*
X148345003Y-71624999D01*
X148345000Y-71624996D01*
X148200350Y-71506285D01*
X148200351Y-71506285D01*
X148035312Y-71418069D01*
X148035305Y-71418066D01*
X147856234Y-71363745D01*
X147770000Y-71355251D01*
X147770000Y-71809157D01*
X147735826Y-71800000D01*
X147604174Y-71800000D01*
X147570000Y-71809157D01*
X147570000Y-71355251D01*
X147569999Y-71355251D01*
X147483766Y-71363745D01*
X147483764Y-71363745D01*
X147304694Y-71418066D01*
X147304687Y-71418069D01*
X147139648Y-71506285D01*
X146994999Y-71624996D01*
X146994996Y-71624999D01*
X146876285Y-71769648D01*
X146788069Y-71934687D01*
X146788066Y-71934694D01*
X146733745Y-72113765D01*
X146733745Y-72113766D01*
X146725251Y-72200000D01*
X146175734Y-72200000D01*
X146165300Y-72094066D01*
X146105232Y-71896046D01*
X146007685Y-71713550D01*
X145876410Y-71553590D01*
X145716450Y-71422315D01*
X145533954Y-71324768D01*
X145335934Y-71264700D01*
X145130000Y-71244417D01*
X144924065Y-71264700D01*
X144924064Y-71264700D01*
X144726043Y-71324769D01*
X144543548Y-71422316D01*
X144383590Y-71553590D01*
X144252316Y-71713548D01*
X144154769Y-71896043D01*
X144094700Y-72094064D01*
X144094700Y-72094065D01*
X144074417Y-72299999D01*
X144074417Y-72300000D01*
X144094700Y-72505934D01*
X144094700Y-72505935D01*
X144154767Y-72703951D01*
X144154770Y-72703960D01*
X144159130Y-72712116D01*
X144162261Y-72720336D01*
X144162473Y-72720263D01*
X144163261Y-72722529D01*
X144163262Y-72722532D01*
X144731331Y-73951776D01*
X144774980Y-74046227D01*
X144779500Y-74066783D01*
X144779500Y-79604521D01*
X144765148Y-79639169D01*
X140479414Y-83924902D01*
X140467382Y-83932989D01*
X140467682Y-83933551D01*
X140465557Y-83934683D01*
X140138353Y-84152702D01*
X140138346Y-84152707D01*
X140136027Y-84154801D01*
X140129692Y-84159643D01*
X140041951Y-84216033D01*
X139957118Y-84313936D01*
X139903301Y-84431776D01*
X139884867Y-84559997D01*
X136905685Y-84559997D01*
X142870469Y-78595213D01*
X142870470Y-78595212D01*
X142916614Y-78515288D01*
X142917010Y-78513810D01*
X142940500Y-78426144D01*
X142940500Y-74066782D01*
X142945020Y-74046227D01*
X143556737Y-72722532D01*
X143558350Y-72718952D01*
X143558534Y-72718533D01*
X143558537Y-72718514D01*
X143558819Y-72717641D01*
X143562264Y-72709504D01*
X143565232Y-72703954D01*
X143625300Y-72505934D01*
X143645583Y-72300000D01*
X143625300Y-72094066D01*
X143565232Y-71896046D01*
X143467685Y-71713550D01*
X143336410Y-71553590D01*
X143176450Y-71422315D01*
X142993954Y-71324768D01*
X142795934Y-71264700D01*
X142590000Y-71244417D01*
X142384065Y-71264700D01*
X142384064Y-71264700D01*
X142186043Y-71324769D01*
X142003548Y-71422316D01*
X141843590Y-71553590D01*
X141712316Y-71713548D01*
X141614769Y-71896043D01*
X141554700Y-72094064D01*
X141554700Y-72094065D01*
X141534417Y-72299999D01*
X141534417Y-72300000D01*
X141554700Y-72505934D01*
X141554700Y-72505935D01*
X141614767Y-72703951D01*
X141614770Y-72703960D01*
X141619130Y-72712116D01*
X141622261Y-72720336D01*
X141622473Y-72720263D01*
X141623261Y-72722529D01*
X141623262Y-72722532D01*
X142191331Y-73951776D01*
X142234980Y-74046227D01*
X142239500Y-74066783D01*
X142239500Y-78214522D01*
X142225148Y-78249170D01*
X136049531Y-84424787D01*
X136049530Y-84424787D01*
X136003386Y-84504709D01*
X136003385Y-84504713D01*
X135979500Y-84593853D01*
X135979500Y-86792339D01*
X135976673Y-86806556D01*
X135977318Y-86806753D01*
X135976617Y-86809050D01*
X135899167Y-87195805D01*
X135895695Y-87206534D01*
X135893302Y-87211775D01*
X135874867Y-87339997D01*
X133030500Y-87339997D01*
X133030500Y-80951716D01*
X133044852Y-80917068D01*
X133079500Y-80902716D01*
X133093305Y-80904701D01*
X133215223Y-80940499D01*
X133215228Y-80940500D01*
X133283074Y-80940500D01*
X133287805Y-80940728D01*
X133313260Y-80943198D01*
X133336276Y-80940896D01*
X133337811Y-80940743D01*
X133342686Y-80940500D01*
X133344772Y-80940500D01*
X133348245Y-80940000D01*
X133348248Y-80940024D01*
X133351657Y-80939357D01*
X133789912Y-80895533D01*
X133801579Y-80892289D01*
X133814702Y-80890500D01*
X136942730Y-80890500D01*
X136942730Y-80890499D01*
X137044588Y-80863207D01*
X137135913Y-80810480D01*
X140243298Y-77703093D01*
X140254907Y-77694497D01*
X140263694Y-77689818D01*
X140628279Y-77391519D01*
X140632817Y-77388221D01*
X140635549Y-77386467D01*
X140636372Y-77385516D01*
X140641497Y-77380417D01*
X140641895Y-77380076D01*
X140642726Y-77379327D01*
X140645819Y-77374965D01*
X140648742Y-77371239D01*
X140720382Y-77288563D01*
X140774197Y-77170726D01*
X140774197Y-77170724D01*
X140774198Y-77170723D01*
X140792633Y-77042502D01*
X140792633Y-77042497D01*
X140774198Y-76914276D01*
X140766797Y-76898072D01*
X140720382Y-76796437D01*
X140635549Y-76698533D01*
X140526569Y-76628496D01*
X140526566Y-76628495D01*
X140402276Y-76592000D01*
X140402272Y-76592000D01*
X140272728Y-76592000D01*
X140272723Y-76592000D01*
X140148433Y-76628495D01*
X140039449Y-76698533D01*
X140014298Y-76727559D01*
X140008411Y-76733299D01*
X139993521Y-76745557D01*
X139855479Y-76914276D01*
X139690179Y-77116309D01*
X139690178Y-77116311D01*
X139684219Y-77126857D01*
X139676207Y-77137398D01*
X136738459Y-80075148D01*
X136703811Y-80089500D01*
X133813725Y-80089500D01*
X133799432Y-80087369D01*
X133789915Y-80084466D01*
X133351650Y-80040639D01*
X133348247Y-80039975D01*
X133348244Y-80039999D01*
X133344772Y-80039500D01*
X133342701Y-80039500D01*
X133337825Y-80039257D01*
X133313265Y-80036801D01*
X133313255Y-80036800D01*
X133304983Y-80036174D01*
X133303288Y-80036046D01*
X133302216Y-80035991D01*
X133285710Y-80038804D01*
X133277480Y-80039500D01*
X133215221Y-80039500D01*
X133093304Y-80075298D01*
X133056016Y-80071289D01*
X133032485Y-80042087D01*
X133030500Y-80028283D01*
X133030500Y-79113724D01*
X133032631Y-79099431D01*
X133035532Y-79089917D01*
X133035534Y-79089912D01*
X133083198Y-78613260D01*
X133083323Y-78611604D01*
X133083943Y-78603459D01*
X133084000Y-78602360D01*
X133083999Y-78602355D01*
X133084000Y-78602351D01*
X133083999Y-78602346D01*
X133083842Y-78599653D01*
X133084116Y-78599636D01*
X133083967Y-78588105D01*
X133085133Y-78580001D01*
X133085133Y-78579998D01*
X133066698Y-78451776D01*
X133054992Y-78426144D01*
X133012882Y-78333937D01*
X132928049Y-78236033D01*
X132819069Y-78165996D01*
X132819066Y-78165995D01*
X132694776Y-78129500D01*
X132694772Y-78129500D01*
X132565228Y-78129500D01*
X132565223Y-78129500D01*
X132440933Y-78165995D01*
X132331950Y-78236033D01*
X132247119Y-78333936D01*
X132247118Y-78333936D01*
X132193301Y-78451776D01*
X132174867Y-78579997D01*
X120500500Y-78579997D01*
X120500500Y-72201583D01*
X121049500Y-72201583D01*
X121049500Y-72398416D01*
X121080290Y-72592823D01*
X121080291Y-72592826D01*
X121141116Y-72780026D01*
X121230472Y-72955399D01*
X121230475Y-72955403D01*
X121230476Y-72955405D01*
X121346172Y-73114646D01*
X121346174Y-73114648D01*
X121346177Y-73114652D01*
X121485347Y-73253822D01*
X121485350Y-73253824D01*
X121485354Y-73253828D01*
X121644595Y-73369524D01*
X121644597Y-73369525D01*
X121644600Y-73369527D01*
X121819973Y-73458883D01*
X121819975Y-73458884D01*
X122007174Y-73519709D01*
X122201583Y-73550500D01*
X122201584Y-73550500D01*
X122398416Y-73550500D01*
X122398417Y-73550500D01*
X122592826Y-73519709D01*
X122780025Y-73458884D01*
X122955405Y-73369524D01*
X123114646Y-73253828D01*
X123253828Y-73114646D01*
X123369524Y-72955405D01*
X123458884Y-72780025D01*
X123519709Y-72592826D01*
X123550500Y-72398417D01*
X123550500Y-72201583D01*
X123519709Y-72007174D01*
X123458884Y-71819975D01*
X123369524Y-71644595D01*
X123253828Y-71485354D01*
X123253824Y-71485350D01*
X123253822Y-71485347D01*
X123198727Y-71430252D01*
X126299500Y-71430252D01*
X126299500Y-73169748D01*
X126311133Y-73228231D01*
X126328233Y-73253822D01*
X126355447Y-73294552D01*
X126382012Y-73312301D01*
X126421769Y-73338867D01*
X126480252Y-73350500D01*
X126480255Y-73350500D01*
X128219745Y-73350500D01*
X128219748Y-73350500D01*
X128278231Y-73338867D01*
X128344552Y-73294552D01*
X128388867Y-73228231D01*
X128400500Y-73169748D01*
X128400500Y-72300000D01*
X128834417Y-72300000D01*
X128854700Y-72505934D01*
X128914767Y-72703952D01*
X128914769Y-72703956D01*
X128922785Y-72718952D01*
X129012315Y-72886450D01*
X129143590Y-73046410D01*
X129303550Y-73177685D01*
X129486046Y-73275232D01*
X129684066Y-73335300D01*
X129890000Y-73355583D01*
X130095934Y-73335300D01*
X130293954Y-73275232D01*
X130476450Y-73177685D01*
X130636410Y-73046410D01*
X130767685Y-72886450D01*
X130865232Y-72703954D01*
X130925300Y-72505934D01*
X130945583Y-72300000D01*
X131374417Y-72300000D01*
X131394700Y-72505934D01*
X131454767Y-72703952D01*
X131454769Y-72703956D01*
X131462785Y-72718952D01*
X131552315Y-72886450D01*
X131683590Y-73046410D01*
X131843550Y-73177685D01*
X132026046Y-73275232D01*
X132224066Y-73335300D01*
X132430000Y-73355583D01*
X132635934Y-73335300D01*
X132833954Y-73275232D01*
X133016450Y-73177685D01*
X133176410Y-73046410D01*
X133307685Y-72886450D01*
X133405232Y-72703954D01*
X133465300Y-72505934D01*
X133485583Y-72300000D01*
X133914417Y-72300000D01*
X133934700Y-72505934D01*
X133994767Y-72703952D01*
X133994769Y-72703956D01*
X134002785Y-72718952D01*
X134092315Y-72886450D01*
X134223590Y-73046410D01*
X134383550Y-73177685D01*
X134566046Y-73275232D01*
X134764066Y-73335300D01*
X134970000Y-73355583D01*
X135175934Y-73335300D01*
X135373954Y-73275232D01*
X135556450Y-73177685D01*
X135716410Y-73046410D01*
X135847685Y-72886450D01*
X135945232Y-72703954D01*
X136005300Y-72505934D01*
X136025583Y-72300000D01*
X136454417Y-72300000D01*
X136474700Y-72505934D01*
X136534767Y-72703952D01*
X136534769Y-72703956D01*
X136542785Y-72718952D01*
X136632315Y-72886450D01*
X136763590Y-73046410D01*
X136923550Y-73177685D01*
X137106046Y-73275232D01*
X137304066Y-73335300D01*
X137510000Y-73355583D01*
X137715934Y-73335300D01*
X137913954Y-73275232D01*
X138096450Y-73177685D01*
X138256410Y-73046410D01*
X138387685Y-72886450D01*
X138485232Y-72703954D01*
X138545300Y-72505934D01*
X138565583Y-72300000D01*
X138994417Y-72300000D01*
X139014700Y-72505934D01*
X139074767Y-72703952D01*
X139074769Y-72703956D01*
X139082785Y-72718952D01*
X139172315Y-72886450D01*
X139303590Y-73046410D01*
X139463550Y-73177685D01*
X139646046Y-73275232D01*
X139844066Y-73335300D01*
X140050000Y-73355583D01*
X140255934Y-73335300D01*
X140453954Y-73275232D01*
X140636450Y-73177685D01*
X140796410Y-73046410D01*
X140927685Y-72886450D01*
X141025232Y-72703954D01*
X141085300Y-72505934D01*
X141105583Y-72300000D01*
X141085300Y-72094066D01*
X141025232Y-71896046D01*
X140927685Y-71713550D01*
X140796410Y-71553590D01*
X140636450Y-71422315D01*
X140453954Y-71324768D01*
X140255934Y-71264700D01*
X140050000Y-71244417D01*
X139844065Y-71264700D01*
X139844064Y-71264700D01*
X139646043Y-71324769D01*
X139463548Y-71422316D01*
X139303590Y-71553590D01*
X139172316Y-71713548D01*
X139074769Y-71896043D01*
X139014700Y-72094064D01*
X139014700Y-72094065D01*
X139014700Y-72094066D01*
X138994417Y-72300000D01*
X138565583Y-72300000D01*
X138545300Y-72094066D01*
X138485232Y-71896046D01*
X138387685Y-71713550D01*
X138256410Y-71553590D01*
X138096450Y-71422315D01*
X137913954Y-71324768D01*
X137715934Y-71264700D01*
X137510000Y-71244417D01*
X137304065Y-71264700D01*
X137304064Y-71264700D01*
X137106043Y-71324769D01*
X136923548Y-71422316D01*
X136763590Y-71553590D01*
X136632316Y-71713548D01*
X136534769Y-71896043D01*
X136474700Y-72094064D01*
X136474700Y-72094065D01*
X136474700Y-72094066D01*
X136454417Y-72300000D01*
X136025583Y-72300000D01*
X136005300Y-72094066D01*
X135945232Y-71896046D01*
X135847685Y-71713550D01*
X135716410Y-71553590D01*
X135556450Y-71422315D01*
X135373954Y-71324768D01*
X135175934Y-71264700D01*
X134970000Y-71244417D01*
X134764065Y-71264700D01*
X134764064Y-71264700D01*
X134566043Y-71324769D01*
X134383548Y-71422316D01*
X134223590Y-71553590D01*
X134092316Y-71713548D01*
X133994769Y-71896043D01*
X133934700Y-72094064D01*
X133934700Y-72094065D01*
X133934700Y-72094066D01*
X133914417Y-72300000D01*
X133485583Y-72300000D01*
X133465300Y-72094066D01*
X133405232Y-71896046D01*
X133307685Y-71713550D01*
X133176410Y-71553590D01*
X133016450Y-71422315D01*
X132833954Y-71324768D01*
X132635934Y-71264700D01*
X132430000Y-71244417D01*
X132224065Y-71264700D01*
X132224064Y-71264700D01*
X132026043Y-71324769D01*
X131843548Y-71422316D01*
X131683590Y-71553590D01*
X131552316Y-71713548D01*
X131454769Y-71896043D01*
X131394700Y-72094064D01*
X131394700Y-72094065D01*
X131394700Y-72094066D01*
X131374417Y-72300000D01*
X130945583Y-72300000D01*
X130925300Y-72094066D01*
X130865232Y-71896046D01*
X130767685Y-71713550D01*
X130636410Y-71553590D01*
X130476450Y-71422315D01*
X130293954Y-71324768D01*
X130095934Y-71264700D01*
X129890000Y-71244417D01*
X129684065Y-71264700D01*
X129684064Y-71264700D01*
X129486043Y-71324769D01*
X129303548Y-71422316D01*
X129143590Y-71553590D01*
X129012316Y-71713548D01*
X128914769Y-71896043D01*
X128854700Y-72094064D01*
X128854700Y-72094065D01*
X128854700Y-72094066D01*
X128834417Y-72300000D01*
X128400500Y-72300000D01*
X128400500Y-71430252D01*
X128388867Y-71371769D01*
X128357462Y-71324769D01*
X128344552Y-71305447D01*
X128283569Y-71264700D01*
X128278231Y-71261133D01*
X128219748Y-71249500D01*
X126480252Y-71249500D01*
X126421769Y-71261133D01*
X126355447Y-71305447D01*
X126311133Y-71371769D01*
X126299500Y-71430252D01*
X123198727Y-71430252D01*
X123114652Y-71346177D01*
X123114653Y-71346177D01*
X123083945Y-71323866D01*
X122955405Y-71230476D01*
X122955403Y-71230475D01*
X122955399Y-71230472D01*
X122780026Y-71141116D01*
X122592826Y-71080291D01*
X122592823Y-71080290D01*
X122443482Y-71056637D01*
X122398417Y-71049500D01*
X122201583Y-71049500D01*
X122164998Y-71055294D01*
X122007176Y-71080290D01*
X122007173Y-71080291D01*
X121819973Y-71141116D01*
X121644600Y-71230472D01*
X121485347Y-71346177D01*
X121346177Y-71485347D01*
X121230472Y-71644600D01*
X121141116Y-71819973D01*
X121080291Y-72007173D01*
X121080290Y-72007176D01*
X121049500Y-72201583D01*
X120500500Y-72201583D01*
X120500500Y-71002752D01*
X120500808Y-70997266D01*
X120500808Y-70997265D01*
X120512406Y-70894332D01*
X120514848Y-70883637D01*
X120548145Y-70788477D01*
X120552897Y-70778610D01*
X120606541Y-70693235D01*
X120613375Y-70684666D01*
X120684666Y-70613375D01*
X120693235Y-70606541D01*
X120778610Y-70552897D01*
X120788477Y-70548145D01*
X120883640Y-70514847D01*
X120894332Y-70512406D01*
X120997267Y-70500808D01*
X121002753Y-70500500D01*
X121065892Y-70500500D01*
X153934108Y-70500500D01*
X153997247Y-70500500D01*
X154002733Y-70500808D01*
G37*
%TD.AperFunction*%
%TD*%
%TA.AperFunction,Conductor*%
%TO.N,VDD*%
G36*
X140169033Y-76874042D02*
G01*
X140169864Y-76874791D01*
X140338173Y-77041760D01*
X140338239Y-77041826D01*
X140505208Y-77210135D01*
X140508602Y-77218422D01*
X140505142Y-77226681D01*
X140504311Y-77227430D01*
X140133563Y-77530770D01*
X140124990Y-77533357D01*
X140117881Y-77529988D01*
X139850011Y-77262118D01*
X139846584Y-77253845D01*
X139849227Y-77246439D01*
X140152570Y-76875687D01*
X140160460Y-76871455D01*
X140169033Y-76874042D01*
G37*
%TD.AperFunction*%
%TD*%
%TA.AperFunction,Conductor*%
%TO.N,VDD*%
G36*
X133292807Y-80241280D02*
G01*
X133769464Y-80288946D01*
X133777355Y-80293179D01*
X133780000Y-80300588D01*
X133780000Y-80679411D01*
X133776573Y-80687684D01*
X133769464Y-80691053D01*
X133292812Y-80738718D01*
X133284239Y-80736131D01*
X133280006Y-80728240D01*
X133279948Y-80727123D01*
X133279790Y-80687684D01*
X133279000Y-80490000D01*
X133279948Y-80252874D01*
X133283408Y-80244617D01*
X133291695Y-80241223D01*
X133292807Y-80241280D01*
G37*
%TD.AperFunction*%
%TD*%
%TA.AperFunction,Conductor*%
%TO.N,+3V3*%
G36*
X132867124Y-78579948D02*
G01*
X132875382Y-78583408D01*
X132878776Y-78591695D01*
X132878718Y-78592812D01*
X132831054Y-79069464D01*
X132826821Y-79077355D01*
X132819412Y-79080000D01*
X132440588Y-79080000D01*
X132432315Y-79076573D01*
X132428946Y-79069464D01*
X132381281Y-78592812D01*
X132383868Y-78584239D01*
X132391759Y-78580006D01*
X132392865Y-78579948D01*
X132630000Y-78579000D01*
X132867124Y-78579948D01*
G37*
%TD.AperFunction*%
%TD*%
%TA.AperFunction,Conductor*%
%TO.N,+3V3*%
G36*
X136988260Y-88893868D02*
G01*
X136992493Y-88901759D01*
X136992551Y-88902876D01*
X136993500Y-89140000D01*
X136993500Y-89140094D01*
X136992551Y-89377123D01*
X136989091Y-89385382D01*
X136980804Y-89388776D01*
X136979687Y-89388718D01*
X136503036Y-89341053D01*
X136495145Y-89336820D01*
X136492500Y-89329411D01*
X136492500Y-88950588D01*
X136495927Y-88942315D01*
X136503034Y-88938946D01*
X136979687Y-88891281D01*
X136988260Y-88893868D01*
G37*
%TD.AperFunction*%
%TD*%
%TA.AperFunction,Conductor*%
%TO.N,/AP_CS_3V3*%
G36*
X137732135Y-86161973D02*
G01*
X137738443Y-86168328D01*
X137739089Y-86175062D01*
X137661883Y-86560597D01*
X137656899Y-86568037D01*
X137650411Y-86570000D01*
X137369589Y-86570000D01*
X137361316Y-86566573D01*
X137358117Y-86560597D01*
X137355326Y-86546662D01*
X137280910Y-86175060D01*
X137282645Y-86166277D01*
X137287862Y-86161974D01*
X137505484Y-86070889D01*
X137514436Y-86070857D01*
X137732135Y-86161973D01*
G37*
%TD.AperFunction*%
%TD*%
%TA.AperFunction,Conductor*%
%TO.N,/AP_CS_3V3*%
G36*
X149195948Y-87379363D02*
G01*
X149212355Y-87386138D01*
X149966215Y-87697438D01*
X149972552Y-87703761D01*
X149972562Y-87703785D01*
X150290636Y-88474051D01*
X150290627Y-88483006D01*
X150284288Y-88489331D01*
X150283861Y-88489498D01*
X148881006Y-89005564D01*
X148872059Y-89005204D01*
X148868694Y-89002856D01*
X148667143Y-88801305D01*
X148663716Y-88793032D01*
X148664433Y-88788999D01*
X149180501Y-87386137D01*
X149186574Y-87379556D01*
X149195521Y-87379196D01*
X149195948Y-87379363D01*
G37*
%TD.AperFunction*%
%TD*%
%TA.AperFunction,Conductor*%
%TO.N,/INT1*%
G36*
X142594489Y-72300865D02*
G01*
X143364061Y-72620612D01*
X143370386Y-72626951D01*
X143370377Y-72635906D01*
X143370193Y-72636325D01*
X142743139Y-73993208D01*
X142736557Y-73999281D01*
X142732518Y-74000000D01*
X142447482Y-74000000D01*
X142439209Y-73996573D01*
X142436861Y-73993208D01*
X141809806Y-72636325D01*
X141809446Y-72627378D01*
X141815519Y-72620796D01*
X141815913Y-72620622D01*
X142585511Y-72300864D01*
X142594466Y-72300856D01*
X142594489Y-72300865D01*
G37*
%TD.AperFunction*%
%TD*%
%TA.AperFunction,Conductor*%
%TO.N,/INT1*%
G36*
X136478684Y-86843427D02*
G01*
X136481883Y-86849403D01*
X136559089Y-87234937D01*
X136557354Y-87243722D01*
X136552134Y-87248027D01*
X136334517Y-87339109D01*
X136325563Y-87339142D01*
X136325483Y-87339109D01*
X136107865Y-87248027D01*
X136101556Y-87241672D01*
X136100910Y-87234939D01*
X136178117Y-86849403D01*
X136183101Y-86841963D01*
X136189589Y-86840000D01*
X136470411Y-86840000D01*
X136478684Y-86843427D01*
G37*
%TD.AperFunction*%
%TD*%
%TA.AperFunction,Conductor*%
%TO.N,/INT2*%
G36*
X140594268Y-84107162D02*
G01*
X140792837Y-84305731D01*
X140796264Y-84314004D01*
X140794301Y-84320492D01*
X140576281Y-84647700D01*
X140568841Y-84652684D01*
X140562107Y-84652038D01*
X140343824Y-84562564D01*
X140337468Y-84556255D01*
X140337435Y-84556175D01*
X140247961Y-84337890D01*
X140247994Y-84328938D01*
X140252296Y-84323721D01*
X140579507Y-84105697D01*
X140588292Y-84103963D01*
X140594268Y-84107162D01*
G37*
%TD.AperFunction*%
%TD*%
%TA.AperFunction,Conductor*%
%TO.N,/INT2*%
G36*
X145134489Y-72300865D02*
G01*
X145904061Y-72620612D01*
X145910386Y-72626951D01*
X145910377Y-72635906D01*
X145910193Y-72636325D01*
X145283139Y-73993208D01*
X145276557Y-73999281D01*
X145272518Y-74000000D01*
X144987482Y-74000000D01*
X144979209Y-73996573D01*
X144976861Y-73993208D01*
X144349806Y-72636325D01*
X144349446Y-72627378D01*
X144355519Y-72620796D01*
X144355913Y-72620622D01*
X145125511Y-72300864D01*
X145134466Y-72300856D01*
X145134489Y-72300865D01*
G37*
%TD.AperFunction*%
%TD*%
%TA.AperFunction,Conductor*%
%TO.N,/AP_CS*%
G36*
X149348684Y-80193427D02*
G01*
X149351883Y-80199403D01*
X149429089Y-80584937D01*
X149427354Y-80593722D01*
X149422134Y-80598027D01*
X149204517Y-80689109D01*
X149195563Y-80689142D01*
X149195483Y-80689109D01*
X148977865Y-80598027D01*
X148971556Y-80591672D01*
X148970910Y-80584939D01*
X149048117Y-80199403D01*
X149053101Y-80191963D01*
X149059589Y-80190000D01*
X149340411Y-80190000D01*
X149348684Y-80193427D01*
G37*
%TD.AperFunction*%
%TD*%
%TA.AperFunction,Conductor*%
%TO.N,/AP_CS*%
G36*
X149422135Y-74171973D02*
G01*
X149428443Y-74178328D01*
X149429089Y-74185062D01*
X149351883Y-74570597D01*
X149346899Y-74578037D01*
X149340411Y-74580000D01*
X149059589Y-74580000D01*
X149051316Y-74576573D01*
X149048117Y-74570597D01*
X149045326Y-74556662D01*
X148970910Y-74185060D01*
X148972645Y-74176277D01*
X148977862Y-74171974D01*
X149195484Y-74080889D01*
X149204436Y-74080857D01*
X149422135Y-74171973D01*
G37*
%TD.AperFunction*%
%TD*%
M02*
