%TF.GenerationSoftware,KiCad,Pcbnew,8.0.3*%
%TF.CreationDate,2025-01-10T12:31:22+08:00*%
%TF.ProjectId,ICM-42688,49434d2d-3432-4363-9838-2e6b69636164,rev?*%
%TF.SameCoordinates,Original*%
%TF.FileFunction,Copper,L1,Top*%
%TF.FilePolarity,Positive*%
%FSLAX46Y46*%
G04 Gerber Fmt 4.6, Leading zero omitted, Abs format (unit mm)*
G04 Created by KiCad (PCBNEW 8.0.3) date 2025-01-10 12:31:22*
%MOMM*%
%LPD*%
G01*
G04 APERTURE LIST*
G04 Aperture macros list*
%AMRoundRect*
0 Rectangle with rounded corners*
0 $1 Rounding radius*
0 $2 $3 $4 $5 $6 $7 $8 $9 X,Y pos of 4 corners*
0 Add a 4 corners polygon primitive as box body*
4,1,4,$2,$3,$4,$5,$6,$7,$8,$9,$2,$3,0*
0 Add four circle primitives for the rounded corners*
1,1,$1+$1,$2,$3*
1,1,$1+$1,$4,$5*
1,1,$1+$1,$6,$7*
1,1,$1+$1,$8,$9*
0 Add four rect primitives between the rounded corners*
20,1,$1+$1,$2,$3,$4,$5,0*
20,1,$1+$1,$4,$5,$6,$7,0*
20,1,$1+$1,$6,$7,$8,$9,0*
20,1,$1+$1,$8,$9,$2,$3,0*%
G04 Aperture macros list end*
%TA.AperFunction,SMDPad,CuDef*%
%ADD10RoundRect,0.225000X-0.250000X0.225000X-0.250000X-0.225000X0.250000X-0.225000X0.250000X0.225000X0*%
%TD*%
%TA.AperFunction,SMDPad,CuDef*%
%ADD11RoundRect,0.225000X0.375000X-0.225000X0.375000X0.225000X-0.375000X0.225000X-0.375000X-0.225000X0*%
%TD*%
%TA.AperFunction,SMDPad,CuDef*%
%ADD12RoundRect,0.250000X0.925000X-0.412500X0.925000X0.412500X-0.925000X0.412500X-0.925000X-0.412500X0*%
%TD*%
%TA.AperFunction,SMDPad,CuDef*%
%ADD13RoundRect,0.375000X0.625000X0.375000X-0.625000X0.375000X-0.625000X-0.375000X0.625000X-0.375000X0*%
%TD*%
%TA.AperFunction,SMDPad,CuDef*%
%ADD14RoundRect,0.500000X0.500000X1.400000X-0.500000X1.400000X-0.500000X-1.400000X0.500000X-1.400000X0*%
%TD*%
%TA.AperFunction,SMDPad,CuDef*%
%ADD15RoundRect,0.200000X0.200000X0.275000X-0.200000X0.275000X-0.200000X-0.275000X0.200000X-0.275000X0*%
%TD*%
%TA.AperFunction,SMDPad,CuDef*%
%ADD16RoundRect,0.225000X-0.225000X-0.375000X0.225000X-0.375000X0.225000X0.375000X-0.225000X0.375000X0*%
%TD*%
%TA.AperFunction,SMDPad,CuDef*%
%ADD17RoundRect,0.218750X0.218750X0.256250X-0.218750X0.256250X-0.218750X-0.256250X0.218750X-0.256250X0*%
%TD*%
%TA.AperFunction,SMDPad,CuDef*%
%ADD18RoundRect,0.200000X-0.275000X0.200000X-0.275000X-0.200000X0.275000X-0.200000X0.275000X0.200000X0*%
%TD*%
%TA.AperFunction,ComponentPad*%
%ADD19R,1.700000X1.700000*%
%TD*%
%TA.AperFunction,ComponentPad*%
%ADD20O,1.700000X1.700000*%
%TD*%
%TA.AperFunction,SMDPad,CuDef*%
%ADD21RoundRect,0.100000X-0.637500X-0.100000X0.637500X-0.100000X0.637500X0.100000X-0.637500X0.100000X0*%
%TD*%
%TA.AperFunction,SMDPad,CuDef*%
%ADD22RoundRect,0.250000X0.412500X0.925000X-0.412500X0.925000X-0.412500X-0.925000X0.412500X-0.925000X0*%
%TD*%
%TA.AperFunction,SMDPad,CuDef*%
%ADD23RoundRect,0.200000X-0.200000X-0.275000X0.200000X-0.275000X0.200000X0.275000X-0.200000X0.275000X0*%
%TD*%
%TA.AperFunction,SMDPad,CuDef*%
%ADD24RoundRect,0.087500X-0.225000X-0.087500X0.225000X-0.087500X0.225000X0.087500X-0.225000X0.087500X0*%
%TD*%
%TA.AperFunction,SMDPad,CuDef*%
%ADD25RoundRect,0.087500X-0.087500X-0.225000X0.087500X-0.225000X0.087500X0.225000X-0.087500X0.225000X0*%
%TD*%
%TA.AperFunction,SMDPad,CuDef*%
%ADD26RoundRect,0.225000X0.250000X-0.225000X0.250000X0.225000X-0.250000X0.225000X-0.250000X-0.225000X0*%
%TD*%
%TA.AperFunction,ViaPad*%
%ADD27C,0.500000*%
%TD*%
%TA.AperFunction,Conductor*%
%ADD28C,0.400000*%
%TD*%
%TA.AperFunction,Conductor*%
%ADD29C,0.300000*%
%TD*%
G04 APERTURE END LIST*
D10*
%TO.P,C5,1*%
%TO.N,+3V3*%
X140360000Y-90205000D03*
%TO.P,C5,2*%
%TO.N,GND*%
X140360000Y-91755000D03*
%TD*%
%TO.P,C6,1*%
%TO.N,Net-(D2-A)*%
X131560000Y-87330000D03*
%TO.P,C6,2*%
%TO.N,GND*%
X131560000Y-88880000D03*
%TD*%
D11*
%TO.P,D4,1,K*%
%TO.N,/AP_CS*%
X147470000Y-81450000D03*
%TO.P,D4,2,A*%
%TO.N,Net-(D4-A)*%
X147470000Y-78150000D03*
%TD*%
D12*
%TO.P,C4,1*%
%TO.N,Net-(D2-A)*%
X123060000Y-80495000D03*
%TO.P,C4,2*%
%TO.N,GND*%
X123060000Y-77420000D03*
%TD*%
D10*
%TO.P,C7,1*%
%TO.N,+3V3*%
X142460000Y-90205000D03*
%TO.P,C7,2*%
%TO.N,GND*%
X142460000Y-91755000D03*
%TD*%
D13*
%TO.P,U1,1,GND*%
%TO.N,GND*%
X128960000Y-88210000D03*
%TO.P,U1,2,VO*%
%TO.N,Net-(D2-A)*%
X128960000Y-85910000D03*
D14*
X122660000Y-85910000D03*
D13*
%TO.P,U1,3,VI*%
%TO.N,VDD*%
X128960000Y-83610000D03*
%TD*%
D15*
%TO.P,R2,1*%
%TO.N,+3V3*%
X152585000Y-76100000D03*
%TO.P,R2,2*%
%TO.N,Net-(D3-A)*%
X150935000Y-76100000D03*
%TD*%
D16*
%TO.P,D2,1,K*%
%TO.N,+3V3*%
X128037500Y-91480000D03*
%TO.P,D2,2,A*%
%TO.N,Net-(D2-A)*%
X131337500Y-91480000D03*
%TD*%
D11*
%TO.P,D1,1,K*%
%TO.N,VDD*%
X126660000Y-80607500D03*
%TO.P,D1,2,A*%
%TO.N,+5V*%
X126660000Y-77307500D03*
%TD*%
D17*
%TO.P,D3,1,K*%
%TO.N,GND*%
X152527500Y-78300000D03*
%TO.P,D3,2,A*%
%TO.N,Net-(D3-A)*%
X150952500Y-78300000D03*
%TD*%
D18*
%TO.P,R1,1*%
%TO.N,+3V3*%
X151760000Y-80535000D03*
%TO.P,R1,2*%
%TO.N,Net-(JP1-A)*%
X151760000Y-82185000D03*
%TD*%
D19*
%TO.P,JP1,1,A*%
%TO.N,Net-(JP1-A)*%
X152510000Y-87700000D03*
D20*
%TO.P,JP1,2,B*%
%TO.N,/AP_CS_3V3*%
X149970000Y-87700000D03*
%TD*%
D21*
%TO.P,U3,1,VCCA*%
%TO.N,+3V3*%
X134612500Y-77920000D03*
%TO.P,U3,2,A1*%
%TO.N,/AP_CS_3V3*%
X134612500Y-78570000D03*
%TO.P,U3,3,A2*%
%TO.N,/SCL_SCLK_3V3*%
X134612500Y-79220000D03*
%TO.P,U3,4,A3*%
%TO.N,/SDA_DIN_3V3*%
X134612500Y-79870000D03*
%TO.P,U3,5,A4*%
%TO.N,/DOUT_AD0_3V3*%
X134612500Y-80520000D03*
%TO.P,U3,6,NC*%
%TO.N,unconnected-(U3-NC-Pad6)*%
X134612500Y-81170000D03*
%TO.P,U3,7,GND*%
%TO.N,GND*%
X134612500Y-81820000D03*
%TO.P,U3,8,OE*%
%TO.N,Net-(U3-OE)*%
X140337500Y-81820000D03*
%TO.P,U3,9,NC*%
%TO.N,unconnected-(U3-NC-Pad9)*%
X140337500Y-81170000D03*
%TO.P,U3,10,B4*%
%TO.N,/DOUT_AD0*%
X140337500Y-80520000D03*
%TO.P,U3,11,B3*%
%TO.N,/SDA_DIN*%
X140337500Y-79870000D03*
%TO.P,U3,12,B2*%
%TO.N,/SCL_SCLK*%
X140337500Y-79220000D03*
%TO.P,U3,13,B1*%
%TO.N,Net-(D4-A)*%
X140337500Y-78570000D03*
%TO.P,U3,14,VCCB*%
%TO.N,VDD*%
X140337500Y-77920000D03*
%TD*%
D22*
%TO.P,C3,1*%
%TO.N,+3V3*%
X138000000Y-90980000D03*
%TO.P,C3,2*%
%TO.N,GND*%
X134925000Y-90980000D03*
%TD*%
D10*
%TO.P,C2,1*%
%TO.N,VDD*%
X131560000Y-83360000D03*
%TO.P,C2,2*%
%TO.N,GND*%
X131560000Y-84910000D03*
%TD*%
D23*
%TO.P,R3,1*%
%TO.N,Net-(U3-OE)*%
X142725000Y-81890000D03*
%TO.P,R3,2*%
%TO.N,+3V3*%
X144375000Y-81890000D03*
%TD*%
D19*
%TO.P,J1,1,Pin_1*%
%TO.N,+5V*%
X127350000Y-72300000D03*
D20*
%TO.P,J1,2,Pin_2*%
%TO.N,+3V3*%
X129890000Y-72300000D03*
%TO.P,J1,3,Pin_3*%
%TO.N,/DOUT_AD0*%
X132430000Y-72300000D03*
%TO.P,J1,4,Pin_4*%
%TO.N,/SDA_DIN*%
X134970000Y-72300000D03*
%TO.P,J1,5,Pin_5*%
%TO.N,/SCL_SCLK*%
X137510000Y-72300000D03*
%TO.P,J1,6,Pin_6*%
%TO.N,/AP_CS*%
X140050000Y-72300000D03*
%TO.P,J1,7,Pin_7*%
%TO.N,/INT1*%
X142590000Y-72300000D03*
%TO.P,J1,8,Pin_8*%
%TO.N,/INT2*%
X145130000Y-72300000D03*
%TO.P,J1,9,Pin_9*%
%TO.N,GND*%
X147670000Y-72300000D03*
%TD*%
D10*
%TO.P,C9,1*%
%TO.N,VDD*%
X142800000Y-78155000D03*
%TO.P,C9,2*%
%TO.N,GND*%
X142800000Y-79705000D03*
%TD*%
D24*
%TO.P,U2,1,AP_SDO/AP_AD0*%
%TO.N,/DOUT_AD0_3V3*%
X136330000Y-85240000D03*
%TO.P,U2,2,RESV*%
%TO.N,unconnected-(U2-RESV-Pad2)*%
X136330000Y-85740000D03*
%TO.P,U2,3,RESV*%
%TO.N,unconnected-(U2-RESV-Pad3)*%
X136330000Y-86240000D03*
%TO.P,U2,4,INT1/INT*%
%TO.N,/INT1*%
X136330000Y-86740000D03*
D25*
%TO.P,U2,5,VDDIO*%
%TO.N,+3V3*%
X136992500Y-86902500D03*
%TO.P,U2,6,GND*%
%TO.N,GND*%
X137492500Y-86902500D03*
%TO.P,U2,7,RESV*%
X137992500Y-86902500D03*
D24*
%TO.P,U2,8,VDD*%
%TO.N,+3V3*%
X138655000Y-86740000D03*
%TO.P,U2,9,INT2/FSYNC/CLKIN*%
%TO.N,/INT2*%
X138655000Y-86240000D03*
%TO.P,U2,10,RESV*%
%TO.N,unconnected-(U2-RESV-Pad10)*%
X138655000Y-85740000D03*
%TO.P,U2,11,RESV*%
%TO.N,GND*%
X138655000Y-85240000D03*
D25*
%TO.P,U2,12,~{AP_CS}*%
%TO.N,/AP_CS_3V3*%
X137992500Y-85077500D03*
%TO.P,U2,13,AP_SCL/AP_SCLK*%
%TO.N,/SCL_SCLK_3V3*%
X137492500Y-85077500D03*
%TO.P,U2,14,AP_SDA/AP_SDIO/AP_SDI*%
%TO.N,/SDA_DIN_3V3*%
X136992500Y-85077500D03*
%TD*%
D26*
%TO.P,C8,1*%
%TO.N,GND*%
X144590000Y-79705000D03*
%TO.P,C8,2*%
%TO.N,+3V3*%
X144590000Y-78155000D03*
%TD*%
D12*
%TO.P,C1,1*%
%TO.N,VDD*%
X130220000Y-80495000D03*
%TO.P,C1,2*%
%TO.N,GND*%
X130220000Y-77420000D03*
%TD*%
D27*
%TO.N,VDD*%
X133280000Y-80490000D03*
X140337500Y-77042500D03*
%TO.N,GND*%
X129800000Y-81900000D03*
X128800000Y-81900000D03*
X137860000Y-89140000D03*
X130800000Y-81900000D03*
X151440000Y-79360000D03*
X127800000Y-81900000D03*
X139010000Y-88280000D03*
X138320000Y-81060000D03*
X131090000Y-71370000D03*
X131800000Y-81900000D03*
X135850000Y-88270000D03*
%TO.N,+3V3*%
X136992500Y-89140000D03*
X132630000Y-78580000D03*
%TO.N,/AP_CS_3V3*%
X137510000Y-86070000D03*
%TO.N,/INT1*%
X136330000Y-87340000D03*
%TO.N,/INT2*%
X140340000Y-84560000D03*
%TO.N,/AP_CS*%
X149200000Y-80690000D03*
X149200000Y-74080000D03*
%TD*%
D28*
%TO.N,VDD*%
X133280000Y-80490000D02*
X130225000Y-80490000D01*
X140337500Y-77042500D02*
X140337500Y-77920000D01*
X126660000Y-80607500D02*
X126660000Y-83120000D01*
X128960000Y-83610000D02*
X130430000Y-83610000D01*
X130430000Y-83610000D02*
X130680000Y-83360000D01*
X140337500Y-77920000D02*
X141630000Y-77920000D01*
X127150000Y-83610000D02*
X128960000Y-83610000D01*
X126660000Y-83120000D02*
X127150000Y-83610000D01*
X130225000Y-80490000D02*
X130220000Y-80495000D01*
X130220000Y-80495000D02*
X126772500Y-80495000D01*
X141630000Y-77920000D02*
X141865000Y-78155000D01*
X141865000Y-78155000D02*
X142800000Y-78155000D01*
X130680000Y-83360000D02*
X131560000Y-83360000D01*
%TO.N,+3V3*%
X129317500Y-92760000D02*
X128037500Y-91480000D01*
X151710000Y-75225000D02*
X146145000Y-75225000D01*
X139585000Y-90980000D02*
X140360000Y-90205000D01*
X132630000Y-78580000D02*
X133290000Y-77920000D01*
D29*
X136992500Y-89972500D02*
X138000000Y-90980000D01*
D28*
X142460000Y-90205000D02*
X144375000Y-88290000D01*
D29*
X139730000Y-86740000D02*
X140360000Y-87370000D01*
D28*
X152585000Y-76100000D02*
X151710000Y-75225000D01*
X146145000Y-75225000D02*
X144590000Y-76780000D01*
X146290000Y-82580000D02*
X149715000Y-82580000D01*
D29*
X136992500Y-86902500D02*
X136992500Y-89972500D01*
X138655000Y-86740000D02*
X139730000Y-86740000D01*
D28*
X149715000Y-82580000D02*
X151760000Y-80535000D01*
X152585000Y-76100000D02*
X153640000Y-77155000D01*
X145600000Y-81890000D02*
X146290000Y-82580000D01*
D29*
X140360000Y-87370000D02*
X140360000Y-90205000D01*
D28*
X136220000Y-92760000D02*
X129317500Y-92760000D01*
X144375000Y-88290000D02*
X144375000Y-81890000D01*
X134612500Y-77022500D02*
X134612500Y-77920000D01*
X138000000Y-90980000D02*
X136220000Y-92760000D01*
X138000000Y-90980000D02*
X139585000Y-90980000D01*
X145600000Y-81890000D02*
X144375000Y-81890000D01*
X133290000Y-77920000D02*
X134612500Y-77920000D01*
X144590000Y-76780000D02*
X144590000Y-78155000D01*
X129890000Y-72300000D02*
X134612500Y-77022500D01*
X153640000Y-77155000D02*
X153640000Y-78655000D01*
X153640000Y-78655000D02*
X151760000Y-80535000D01*
X140360000Y-90205000D02*
X142460000Y-90205000D01*
%TO.N,+5V*%
X127350000Y-74310000D02*
X126660000Y-75000000D01*
X127350000Y-72300000D02*
X127350000Y-74310000D01*
X126660000Y-75000000D02*
X126660000Y-77307500D01*
%TO.N,Net-(D2-A)*%
X122660000Y-85910000D02*
X128960000Y-85910000D01*
X130960000Y-85910000D02*
X131560000Y-86510000D01*
X130510000Y-90652500D02*
X131337500Y-91480000D01*
X122660000Y-82850000D02*
X123060000Y-82450000D01*
X122660000Y-85910000D02*
X122660000Y-82850000D01*
X123060000Y-82450000D02*
X123060000Y-80495000D01*
X130510000Y-88380000D02*
X130510000Y-90652500D01*
X131560000Y-86510000D02*
X131560000Y-87330000D01*
X131560000Y-87330000D02*
X130510000Y-88380000D01*
X128960000Y-85910000D02*
X130960000Y-85910000D01*
D29*
%TO.N,Net-(D3-A)*%
X150935000Y-76100000D02*
X150935000Y-78282500D01*
%TO.N,/AP_CS_3V3*%
X137992500Y-85077500D02*
X137992500Y-83411182D01*
X135510489Y-78570000D02*
X134612500Y-78570000D01*
X137992500Y-85587500D02*
X137992500Y-85077500D01*
X137992500Y-83411182D02*
X137410000Y-82828682D01*
X137410000Y-82828682D02*
X137410000Y-80469511D01*
X137510000Y-86070000D02*
X137992500Y-85587500D01*
X137410000Y-80469511D02*
X135510489Y-78570000D01*
%TO.N,/INT1*%
X136330000Y-87340000D02*
X136330000Y-86740000D01*
%TO.N,/SDA_DIN*%
X136140000Y-76830000D02*
X136140000Y-74770000D01*
X134970000Y-73600000D02*
X134970000Y-72300000D01*
X140337500Y-79870000D02*
X139180000Y-79870000D01*
X139180000Y-79870000D02*
X136140000Y-76830000D01*
X136140000Y-74770000D02*
X134970000Y-73600000D01*
%TO.N,/SCL_SCLK*%
X139240000Y-79220000D02*
X137510000Y-77490000D01*
X137510000Y-77490000D02*
X137510000Y-72300000D01*
X140337500Y-79220000D02*
X139240000Y-79220000D01*
%TO.N,/INT2*%
X140340000Y-85640000D02*
X139740000Y-86240000D01*
X139740000Y-86240000D02*
X138655000Y-86240000D01*
X140340000Y-84560000D02*
X140340000Y-85640000D01*
%TO.N,/DOUT_AD0*%
X133230000Y-73920000D02*
X132430000Y-73120000D01*
X135620000Y-77020000D02*
X135620000Y-75080000D01*
X132430000Y-73120000D02*
X132430000Y-72300000D01*
X135620000Y-75080000D02*
X134460000Y-73920000D01*
X140337500Y-80520000D02*
X139120000Y-80520000D01*
X139120000Y-80520000D02*
X135620000Y-77020000D01*
X134460000Y-73920000D02*
X133230000Y-73920000D01*
%TO.N,/AP_CS*%
X149200000Y-80690000D02*
X148440000Y-81450000D01*
X149200000Y-74080000D02*
X140520000Y-74080000D01*
X140050000Y-73570000D02*
X140050000Y-72300000D01*
X140520000Y-74080000D02*
X140030000Y-73590000D01*
X148440000Y-81450000D02*
X147470000Y-81450000D01*
X140030000Y-73590000D02*
X140050000Y-73570000D01*
%TO.N,Net-(JP1-A)*%
X152510000Y-82935000D02*
X151760000Y-82185000D01*
X152510000Y-87700000D02*
X152510000Y-82935000D01*
%TO.N,/DOUT_AD0_3V3*%
X135910000Y-81090832D02*
X135339168Y-80520000D01*
X135339168Y-80520000D02*
X134612500Y-80520000D01*
X135910000Y-83450000D02*
X135910000Y-81090832D01*
X136330000Y-83870000D02*
X135910000Y-83450000D01*
X136330000Y-85240000D02*
X136330000Y-83870000D01*
%TO.N,/SDA_DIN_3V3*%
X136992500Y-83825394D02*
X136410000Y-83242894D01*
X136410000Y-80883725D02*
X135396275Y-79870000D01*
X136410000Y-83242894D02*
X136410000Y-80883725D01*
X135396275Y-79870000D02*
X134612500Y-79870000D01*
X136992500Y-85077500D02*
X136992500Y-83825394D01*
%TO.N,/SCL_SCLK_3V3*%
X136910000Y-83035788D02*
X136910000Y-80676618D01*
X137492500Y-83618288D02*
X136910000Y-83035788D01*
X135453382Y-79220000D02*
X134612500Y-79220000D01*
X136910000Y-80676618D02*
X135453382Y-79220000D01*
X137492500Y-85077500D02*
X137492500Y-83618288D01*
%TO.N,Net-(D4-A)*%
X147470000Y-79400000D02*
X147470000Y-78150000D01*
X146250000Y-80620000D02*
X147470000Y-79400000D01*
X140337500Y-78570000D02*
X141310000Y-78570000D01*
X142050000Y-80620000D02*
X146250000Y-80620000D01*
X141620000Y-80190000D02*
X142050000Y-80620000D01*
X141620000Y-78880000D02*
X141620000Y-80190000D01*
X141310000Y-78570000D02*
X141620000Y-78880000D01*
%TO.N,Net-(U3-OE)*%
X140337500Y-81820000D02*
X142655000Y-81820000D01*
X142655000Y-81820000D02*
X142725000Y-81890000D01*
%TD*%
%TA.AperFunction,Conductor*%
%TO.N,GND*%
G36*
X138248710Y-85896266D02*
G01*
X138254804Y-85903692D01*
X138294283Y-85962778D01*
X138301599Y-85999560D01*
X138294283Y-86017223D01*
X138252908Y-86079145D01*
X138252908Y-86079146D01*
X138242000Y-86133984D01*
X138242000Y-86346016D01*
X138252908Y-86400854D01*
X138261282Y-86413386D01*
X138294283Y-86462776D01*
X138301599Y-86499559D01*
X138294284Y-86517221D01*
X138285498Y-86530371D01*
X138254316Y-86551207D01*
X138217533Y-86543892D01*
X138217532Y-86543891D01*
X138153159Y-86500879D01*
X138098463Y-86490000D01*
X138092500Y-86490000D01*
X138092500Y-87315000D01*
X138098463Y-87315000D01*
X138153159Y-87304120D01*
X138215180Y-87262680D01*
X138256620Y-87200659D01*
X138267500Y-87145962D01*
X138267500Y-87036698D01*
X138281852Y-87002050D01*
X138316500Y-86987698D01*
X138343722Y-86995956D01*
X138356646Y-87004592D01*
X138411484Y-87015500D01*
X138418052Y-87015500D01*
X138442552Y-87022065D01*
X138467240Y-87036319D01*
X138519712Y-87066614D01*
X138541998Y-87072585D01*
X138608853Y-87090500D01*
X138608856Y-87090500D01*
X138769956Y-87090500D01*
X138792165Y-87095822D01*
X138819165Y-87109551D01*
X138827437Y-87111947D01*
X138904093Y-87119134D01*
X139120469Y-87098526D01*
X139151383Y-87095583D01*
X139151386Y-87095582D01*
X139151392Y-87095582D01*
X139163573Y-87092242D01*
X139176526Y-87090500D01*
X139564522Y-87090500D01*
X139599170Y-87104852D01*
X139995148Y-87500830D01*
X140009500Y-87535478D01*
X140009500Y-89233183D01*
X140003977Y-89255783D01*
X139732332Y-89778349D01*
X139728217Y-89790799D01*
X139725353Y-89797664D01*
X139700282Y-89846871D01*
X139700281Y-89846872D01*
X139700281Y-89846874D01*
X139699975Y-89848809D01*
X139684500Y-89946513D01*
X139684500Y-89972016D01*
X139679024Y-89994526D01*
X139407571Y-90519387D01*
X139378906Y-90543570D01*
X139341537Y-90540401D01*
X139335998Y-90537055D01*
X138883951Y-90221475D01*
X138863756Y-90189874D01*
X138863000Y-90181297D01*
X138863000Y-90000743D01*
X138862999Y-90000724D01*
X138860146Y-89970301D01*
X138860146Y-89970300D01*
X138815295Y-89842123D01*
X138815291Y-89842114D01*
X138734650Y-89732849D01*
X138625385Y-89652208D01*
X138625376Y-89652204D01*
X138497198Y-89607353D01*
X138466775Y-89604500D01*
X138466766Y-89604500D01*
X137889780Y-89604500D01*
X137879753Y-89603463D01*
X137875538Y-89602582D01*
X137860360Y-89599408D01*
X137391521Y-89594826D01*
X137357015Y-89580136D01*
X137343000Y-89545828D01*
X137343000Y-89441710D01*
X137354969Y-89409621D01*
X137375379Y-89386066D01*
X137375382Y-89386063D01*
X137429197Y-89268226D01*
X137429197Y-89268224D01*
X137429198Y-89268223D01*
X137447633Y-89140002D01*
X137447633Y-89139997D01*
X137429198Y-89011776D01*
X137414686Y-88980000D01*
X137375382Y-88893937D01*
X137354967Y-88870376D01*
X137343000Y-88838289D01*
X137343000Y-87423031D01*
X137345063Y-87408963D01*
X137348083Y-87398891D01*
X137351848Y-87359354D01*
X137369419Y-87326223D01*
X137387936Y-87319563D01*
X137392500Y-87315000D01*
X137592500Y-87315000D01*
X137598463Y-87315000D01*
X137653158Y-87304120D01*
X137715277Y-87262615D01*
X137752060Y-87255299D01*
X137769723Y-87262615D01*
X137831841Y-87304120D01*
X137886537Y-87315000D01*
X137892500Y-87315000D01*
X137892500Y-87002500D01*
X137592500Y-87002500D01*
X137592500Y-87315000D01*
X137392500Y-87315000D01*
X137392500Y-86851500D01*
X137406852Y-86816852D01*
X137441500Y-86802500D01*
X137892500Y-86802500D01*
X137892500Y-86490000D01*
X137886537Y-86490000D01*
X137852288Y-86496812D01*
X137815505Y-86489495D01*
X137794670Y-86458312D01*
X137801987Y-86421529D01*
X137806085Y-86416902D01*
X137805754Y-86416616D01*
X137819412Y-86400853D01*
X137892882Y-86316063D01*
X137906018Y-86287297D01*
X137915903Y-86273044D01*
X137917296Y-86271648D01*
X138135316Y-85944440D01*
X138135319Y-85944433D01*
X138136201Y-85942873D01*
X138136358Y-85942962D01*
X138144982Y-85930698D01*
X138179416Y-85896265D01*
X138214062Y-85881914D01*
X138248710Y-85896266D01*
G37*
%TD.AperFunction*%
%TA.AperFunction,Conductor*%
G36*
X154002733Y-70500808D02*
G01*
X154105665Y-70512406D01*
X154116361Y-70514847D01*
X154211519Y-70548144D01*
X154221393Y-70552899D01*
X154306759Y-70606538D01*
X154315337Y-70613379D01*
X154386620Y-70684662D01*
X154393461Y-70693240D01*
X154447097Y-70778600D01*
X154451858Y-70788487D01*
X154485151Y-70883637D01*
X154487593Y-70894333D01*
X154499192Y-70997265D01*
X154499500Y-71002752D01*
X154499500Y-93997247D01*
X154499192Y-94002734D01*
X154487593Y-94105666D01*
X154485151Y-94116362D01*
X154451858Y-94211512D01*
X154447097Y-94221399D01*
X154393461Y-94306759D01*
X154386620Y-94315337D01*
X154315337Y-94386620D01*
X154306759Y-94393461D01*
X154221399Y-94447097D01*
X154211512Y-94451858D01*
X154116362Y-94485151D01*
X154105666Y-94487593D01*
X154009877Y-94498386D01*
X154002732Y-94499192D01*
X153997247Y-94499500D01*
X121002753Y-94499500D01*
X120997267Y-94499192D01*
X120989061Y-94498267D01*
X120894333Y-94487593D01*
X120883637Y-94485151D01*
X120819221Y-94462612D01*
X120788484Y-94451856D01*
X120778603Y-94447098D01*
X120693240Y-94393461D01*
X120684662Y-94386620D01*
X120613379Y-94315337D01*
X120606538Y-94306759D01*
X120552899Y-94221393D01*
X120548144Y-94211519D01*
X120514847Y-94116361D01*
X120512406Y-94105665D01*
X120500808Y-94002733D01*
X120500500Y-93997247D01*
X120500500Y-92601583D01*
X121049500Y-92601583D01*
X121049500Y-92798416D01*
X121080290Y-92992823D01*
X121080291Y-92992826D01*
X121141116Y-93180026D01*
X121230472Y-93355399D01*
X121230475Y-93355403D01*
X121230476Y-93355405D01*
X121346172Y-93514646D01*
X121346174Y-93514648D01*
X121346177Y-93514652D01*
X121485347Y-93653822D01*
X121485350Y-93653824D01*
X121485354Y-93653828D01*
X121644595Y-93769524D01*
X121644597Y-93769525D01*
X121644600Y-93769527D01*
X121819973Y-93858883D01*
X121819975Y-93858884D01*
X122007174Y-93919709D01*
X122201583Y-93950500D01*
X122201584Y-93950500D01*
X122398416Y-93950500D01*
X122398417Y-93950500D01*
X122592826Y-93919709D01*
X122780025Y-93858884D01*
X122955405Y-93769524D01*
X123114646Y-93653828D01*
X123253828Y-93514646D01*
X123369524Y-93355405D01*
X123458884Y-93180025D01*
X123519709Y-92992826D01*
X123550500Y-92798417D01*
X123550500Y-92601583D01*
X123519709Y-92407174D01*
X123458884Y-92219975D01*
X123406867Y-92117885D01*
X123369527Y-92044600D01*
X123369525Y-92044597D01*
X123369524Y-92044595D01*
X123253828Y-91885354D01*
X123253824Y-91885350D01*
X123253822Y-91885347D01*
X123114652Y-91746177D01*
X123114653Y-91746177D01*
X122955399Y-91630472D01*
X122780026Y-91541116D01*
X122592826Y-91480291D01*
X122592823Y-91480290D01*
X122443482Y-91456637D01*
X122398417Y-91449500D01*
X122201583Y-91449500D01*
X122164998Y-91455294D01*
X122007176Y-91480290D01*
X122007173Y-91480291D01*
X121819973Y-91541116D01*
X121644600Y-91630472D01*
X121485347Y-91746177D01*
X121346177Y-91885347D01*
X121230472Y-92044600D01*
X121141116Y-92219973D01*
X121080291Y-92407173D01*
X121080290Y-92407176D01*
X121049500Y-92601583D01*
X120500500Y-92601583D01*
X120500500Y-88630442D01*
X127860001Y-88630442D01*
X127866080Y-88687002D01*
X127866083Y-88687011D01*
X127913813Y-88814981D01*
X127913816Y-88814985D01*
X127995670Y-88924329D01*
X128105014Y-89006183D01*
X128105018Y-89006186D01*
X128232992Y-89053918D01*
X128289556Y-89059999D01*
X128859999Y-89059999D01*
X128860000Y-89059998D01*
X128860000Y-88310000D01*
X127860001Y-88310000D01*
X127860001Y-88630442D01*
X120500500Y-88630442D01*
X120500500Y-84453384D01*
X121459500Y-84453384D01*
X121459500Y-87366616D01*
X121462432Y-87398883D01*
X121465914Y-87437201D01*
X121516520Y-87599603D01*
X121516520Y-87599604D01*
X121604527Y-87745184D01*
X121724815Y-87865472D01*
X121870395Y-87953479D01*
X122032798Y-88004085D01*
X122032801Y-88004085D01*
X122032804Y-88004086D01*
X122103384Y-88010500D01*
X122103390Y-88010500D01*
X123216610Y-88010500D01*
X123216616Y-88010500D01*
X123287196Y-88004086D01*
X123287198Y-88004085D01*
X123287201Y-88004085D01*
X123449603Y-87953479D01*
X123449604Y-87953479D01*
X123528251Y-87905935D01*
X123595185Y-87865472D01*
X123671101Y-87789556D01*
X127860000Y-87789556D01*
X127860000Y-88110000D01*
X128860000Y-88110000D01*
X129060000Y-88110000D01*
X130059999Y-88110000D01*
X130059999Y-87789557D01*
X130053919Y-87732997D01*
X130053916Y-87732988D01*
X130006186Y-87605018D01*
X130006183Y-87605014D01*
X129924329Y-87495670D01*
X129814985Y-87413816D01*
X129814981Y-87413813D01*
X129687007Y-87366081D01*
X129630443Y-87360000D01*
X129060000Y-87360000D01*
X129060000Y-88110000D01*
X128860000Y-88110000D01*
X128860000Y-87360000D01*
X128289557Y-87360000D01*
X128232997Y-87366080D01*
X128232988Y-87366083D01*
X128105018Y-87413813D01*
X128105014Y-87413816D01*
X127995670Y-87495670D01*
X127913816Y-87605014D01*
X127913813Y-87605018D01*
X127866081Y-87732992D01*
X127860000Y-87789556D01*
X123671101Y-87789556D01*
X123715472Y-87745185D01*
X123803478Y-87599606D01*
X123803479Y-87599603D01*
X123854085Y-87437201D01*
X123854085Y-87437198D01*
X123854086Y-87437196D01*
X123860500Y-87366616D01*
X123860500Y-87036319D01*
X123874852Y-87001671D01*
X123878890Y-86998056D01*
X124724914Y-86321237D01*
X124755524Y-86310500D01*
X127137179Y-86310500D01*
X127160169Y-86316228D01*
X127349122Y-86416616D01*
X128034833Y-86780925D01*
X128041670Y-86785321D01*
X128044767Y-86787698D01*
X128055366Y-86792088D01*
X128059603Y-86794086D01*
X128075441Y-86802500D01*
X128087689Y-86809007D01*
X128131200Y-86826102D01*
X128136312Y-86827464D01*
X128138026Y-86827765D01*
X128138771Y-86827897D01*
X128149031Y-86830885D01*
X128184764Y-86845687D01*
X128297280Y-86860500D01*
X128297284Y-86860500D01*
X129622716Y-86860500D01*
X129622720Y-86860500D01*
X129735236Y-86845687D01*
X129798965Y-86819288D01*
X129803587Y-86817641D01*
X129832310Y-86809007D01*
X129860401Y-86794081D01*
X129864624Y-86792091D01*
X129875233Y-86787698D01*
X129878332Y-86785319D01*
X129885164Y-86780925D01*
X130753949Y-86319352D01*
X130791278Y-86315771D01*
X130811584Y-86327977D01*
X131077510Y-86593903D01*
X131091862Y-86628551D01*
X131084640Y-86654156D01*
X130969800Y-86841537D01*
X130962679Y-86850571D01*
X130961474Y-86851775D01*
X130961469Y-86851782D01*
X130952229Y-86869917D01*
X130950350Y-86873273D01*
X130932745Y-86901999D01*
X130924233Y-86924257D01*
X130922126Y-86928997D01*
X130900282Y-86971871D01*
X130900281Y-86971872D01*
X130900281Y-86971874D01*
X130892332Y-87022065D01*
X130884500Y-87071513D01*
X130884500Y-87097016D01*
X130879024Y-87119526D01*
X130593006Y-87672549D01*
X130593000Y-87672555D01*
X130534313Y-87786029D01*
X130525438Y-87798167D01*
X130189521Y-88134085D01*
X130189520Y-88134086D01*
X130136793Y-88225410D01*
X130135124Y-88231642D01*
X130135123Y-88231641D01*
X130135123Y-88231645D01*
X130123859Y-88273682D01*
X130101029Y-88303435D01*
X130076529Y-88310000D01*
X129060000Y-88310000D01*
X129060000Y-89059999D01*
X129630442Y-89059999D01*
X129687002Y-89053919D01*
X129687011Y-89053916D01*
X129814981Y-89006186D01*
X129814985Y-89006183D01*
X129924329Y-88924329D01*
X130006183Y-88814985D01*
X130006184Y-88814985D01*
X130014589Y-88792451D01*
X130040144Y-88765002D01*
X130077623Y-88763663D01*
X130105072Y-88789218D01*
X130109500Y-88809574D01*
X130109500Y-90705230D01*
X130136792Y-90807087D01*
X130136793Y-90807089D01*
X130189520Y-90898413D01*
X130261065Y-90969958D01*
X130269198Y-90980715D01*
X130604382Y-91580905D01*
X130680781Y-91717708D01*
X130687000Y-91741599D01*
X130687000Y-91888488D01*
X130702781Y-91988126D01*
X130702781Y-91988127D01*
X130702782Y-91988129D01*
X130763967Y-92108213D01*
X130763972Y-92108220D01*
X130859279Y-92203527D01*
X130859286Y-92203532D01*
X130982810Y-92266470D01*
X130981915Y-92268226D01*
X131005365Y-92288252D01*
X131008309Y-92325640D01*
X130983955Y-92354158D01*
X130961707Y-92359500D01*
X129503689Y-92359500D01*
X129469041Y-92345148D01*
X129113932Y-91990039D01*
X129105799Y-91979282D01*
X129082867Y-91938220D01*
X128770618Y-91379095D01*
X128726715Y-91300480D01*
X128694219Y-91242291D01*
X128688000Y-91218400D01*
X128688000Y-91071513D01*
X128688000Y-91071512D01*
X128672219Y-90971874D01*
X128649937Y-90928143D01*
X128611032Y-90851786D01*
X128611027Y-90851779D01*
X128515720Y-90756472D01*
X128515713Y-90756467D01*
X128395629Y-90695282D01*
X128395627Y-90695281D01*
X128395626Y-90695281D01*
X128295988Y-90679500D01*
X127779012Y-90679500D01*
X127679374Y-90695281D01*
X127679372Y-90695281D01*
X127679370Y-90695282D01*
X127559286Y-90756467D01*
X127559279Y-90756472D01*
X127463972Y-90851779D01*
X127463967Y-90851786D01*
X127402782Y-90971870D01*
X127402781Y-90971872D01*
X127402781Y-90971874D01*
X127387000Y-91071512D01*
X127387000Y-91888488D01*
X127402781Y-91988126D01*
X127402781Y-91988127D01*
X127402782Y-91988129D01*
X127463967Y-92108213D01*
X127463972Y-92108220D01*
X127559279Y-92203527D01*
X127559286Y-92203532D01*
X127660295Y-92254998D01*
X127679374Y-92264719D01*
X127779012Y-92280500D01*
X127934792Y-92280500D01*
X127955147Y-92284928D01*
X128537712Y-92550974D01*
X128552004Y-92560897D01*
X128997019Y-93005912D01*
X128997020Y-93005913D01*
X129071587Y-93080480D01*
X129105013Y-93099778D01*
X129162910Y-93133206D01*
X129162912Y-93133206D01*
X129162913Y-93133207D01*
X129243247Y-93154732D01*
X129264769Y-93160499D01*
X129264770Y-93160500D01*
X129264773Y-93160500D01*
X136272730Y-93160500D01*
X136272730Y-93160499D01*
X136374588Y-93133207D01*
X136465913Y-93080480D01*
X136944809Y-92601583D01*
X151449500Y-92601583D01*
X151449500Y-92798416D01*
X151480290Y-92992823D01*
X151480291Y-92992826D01*
X151541116Y-93180026D01*
X151630472Y-93355399D01*
X151630475Y-93355403D01*
X151630476Y-93355405D01*
X151746172Y-93514646D01*
X151746174Y-93514648D01*
X151746177Y-93514652D01*
X151885347Y-93653822D01*
X151885350Y-93653824D01*
X151885354Y-93653828D01*
X152044595Y-93769524D01*
X152044597Y-93769525D01*
X152044600Y-93769527D01*
X152219973Y-93858883D01*
X152219975Y-93858884D01*
X152407174Y-93919709D01*
X152601583Y-93950500D01*
X152601584Y-93950500D01*
X152798416Y-93950500D01*
X152798417Y-93950500D01*
X152992826Y-93919709D01*
X153180025Y-93858884D01*
X153355405Y-93769524D01*
X153514646Y-93653828D01*
X153653828Y-93514646D01*
X153769524Y-93355405D01*
X153858884Y-93180025D01*
X153919709Y-92992826D01*
X153950500Y-92798417D01*
X153950500Y-92601583D01*
X153919709Y-92407174D01*
X153858884Y-92219975D01*
X153806867Y-92117885D01*
X153769527Y-92044600D01*
X153769525Y-92044597D01*
X153769524Y-92044595D01*
X153653828Y-91885354D01*
X153653824Y-91885350D01*
X153653822Y-91885347D01*
X153514652Y-91746177D01*
X153514653Y-91746177D01*
X153355399Y-91630472D01*
X153180026Y-91541116D01*
X152992826Y-91480291D01*
X152992823Y-91480290D01*
X152843482Y-91456637D01*
X152798417Y-91449500D01*
X152601583Y-91449500D01*
X152564998Y-91455294D01*
X152407176Y-91480290D01*
X152407173Y-91480291D01*
X152219973Y-91541116D01*
X152044600Y-91630472D01*
X151885347Y-91746177D01*
X151746177Y-91885347D01*
X151630472Y-92044600D01*
X151541116Y-92219973D01*
X151480291Y-92407173D01*
X151480290Y-92407176D01*
X151449500Y-92601583D01*
X136944809Y-92601583D01*
X137086360Y-92460032D01*
X137114707Y-92446087D01*
X137780029Y-92359871D01*
X137790412Y-92357297D01*
X137791859Y-92356939D01*
X137803646Y-92355500D01*
X138466756Y-92355500D01*
X138466766Y-92355500D01*
X138497199Y-92352646D01*
X138625382Y-92307793D01*
X138734650Y-92227150D01*
X138752084Y-92203528D01*
X138815291Y-92117885D01*
X138815291Y-92117884D01*
X138815293Y-92117882D01*
X138850213Y-92018085D01*
X139785001Y-92018085D01*
X139791230Y-92065414D01*
X139839668Y-92169288D01*
X139839669Y-92169290D01*
X139920709Y-92250330D01*
X139920711Y-92250331D01*
X140024584Y-92298768D01*
X140071918Y-92304999D01*
X140259999Y-92304999D01*
X140460000Y-92304999D01*
X140648080Y-92304999D01*
X140648085Y-92304998D01*
X140695414Y-92298769D01*
X140799288Y-92250331D01*
X140799290Y-92250330D01*
X140880330Y-92169290D01*
X140880331Y-92169288D01*
X140928768Y-92065415D01*
X140934999Y-92018085D01*
X141885001Y-92018085D01*
X141891230Y-92065414D01*
X141939668Y-92169288D01*
X141939669Y-92169290D01*
X142020709Y-92250330D01*
X142020711Y-92250331D01*
X142124584Y-92298768D01*
X142171918Y-92304999D01*
X142359999Y-92304999D01*
X142560000Y-92304999D01*
X142748080Y-92304999D01*
X142748085Y-92304998D01*
X142795414Y-92298769D01*
X142899288Y-92250331D01*
X142899290Y-92250330D01*
X142980330Y-92169290D01*
X142980331Y-92169288D01*
X143028768Y-92065415D01*
X143035000Y-92018081D01*
X143035000Y-91855000D01*
X142560000Y-91855000D01*
X142560000Y-92304999D01*
X142359999Y-92304999D01*
X142360000Y-92304998D01*
X142360000Y-91855000D01*
X141885001Y-91855000D01*
X141885001Y-92018085D01*
X140934999Y-92018085D01*
X140935000Y-92018081D01*
X140935000Y-91855000D01*
X140460000Y-91855000D01*
X140460000Y-92304999D01*
X140259999Y-92304999D01*
X140260000Y-92304998D01*
X140260000Y-91855000D01*
X139785001Y-91855000D01*
X139785001Y-92018085D01*
X138850213Y-92018085D01*
X138860146Y-91989699D01*
X138863000Y-91959266D01*
X138863000Y-91778700D01*
X138877352Y-91744052D01*
X138883944Y-91738527D01*
X139384159Y-91389321D01*
X139412208Y-91380500D01*
X139637730Y-91380500D01*
X139637730Y-91380499D01*
X139739588Y-91353207D01*
X139739595Y-91353202D01*
X139739989Y-91353040D01*
X139740211Y-91353039D01*
X139742690Y-91352376D01*
X139742867Y-91353039D01*
X139777492Y-91353038D01*
X139804013Y-91379554D01*
X139804015Y-91417057D01*
X139803154Y-91419016D01*
X139791231Y-91444585D01*
X139785000Y-91491918D01*
X139785000Y-91655000D01*
X140260000Y-91655000D01*
X140460000Y-91655000D01*
X140934999Y-91655000D01*
X140934999Y-91491919D01*
X140934999Y-91491918D01*
X141885000Y-91491918D01*
X141885000Y-91655000D01*
X142360000Y-91655000D01*
X142560000Y-91655000D01*
X143034999Y-91655000D01*
X143034999Y-91491919D01*
X143034998Y-91491914D01*
X143028769Y-91444585D01*
X142980331Y-91340711D01*
X142980330Y-91340709D01*
X142899290Y-91259669D01*
X142899288Y-91259668D01*
X142795415Y-91211231D01*
X142748081Y-91205000D01*
X142560000Y-91205000D01*
X142560000Y-91655000D01*
X142360000Y-91655000D01*
X142360000Y-91205000D01*
X142171919Y-91205000D01*
X142171914Y-91205001D01*
X142124585Y-91211230D01*
X142020711Y-91259668D01*
X142020709Y-91259669D01*
X141939669Y-91340709D01*
X141939668Y-91340711D01*
X141891231Y-91444584D01*
X141885000Y-91491918D01*
X140934999Y-91491918D01*
X140934998Y-91491914D01*
X140928769Y-91444585D01*
X140880331Y-91340711D01*
X140880330Y-91340709D01*
X140799290Y-91259669D01*
X140799288Y-91259668D01*
X140695415Y-91211231D01*
X140648081Y-91205000D01*
X140460000Y-91205000D01*
X140460000Y-91655000D01*
X140260000Y-91655000D01*
X140260000Y-91205000D01*
X140147633Y-91205000D01*
X140112985Y-91190648D01*
X140098633Y-91156000D01*
X140112985Y-91121352D01*
X140124576Y-91112764D01*
X140596325Y-90861260D01*
X140619377Y-90855500D01*
X140643487Y-90855500D01*
X140643488Y-90855500D01*
X140743126Y-90839719D01*
X140758977Y-90831641D01*
X140772436Y-90827096D01*
X140779822Y-90825751D01*
X141328118Y-90608933D01*
X141346137Y-90605500D01*
X141473863Y-90605500D01*
X141491882Y-90608933D01*
X142040177Y-90825751D01*
X142053677Y-90829220D01*
X142063720Y-90833016D01*
X142076874Y-90839719D01*
X142176512Y-90855500D01*
X142176514Y-90855500D01*
X142743486Y-90855500D01*
X142743488Y-90855500D01*
X142843126Y-90839719D01*
X142907170Y-90807087D01*
X142963213Y-90778532D01*
X142963215Y-90778530D01*
X142963220Y-90778528D01*
X143058528Y-90683220D01*
X143060424Y-90679500D01*
X143101046Y-90599773D01*
X143119719Y-90563126D01*
X143135500Y-90463488D01*
X143135500Y-90437979D01*
X143140976Y-90415469D01*
X143215120Y-90272110D01*
X143485683Y-89748967D01*
X143494554Y-89736837D01*
X144695480Y-88535913D01*
X144748207Y-88444588D01*
X144775499Y-88342730D01*
X144775500Y-88342730D01*
X144775500Y-87700000D01*
X148914417Y-87700000D01*
X148934700Y-87905934D01*
X148994768Y-88103954D01*
X149092315Y-88286450D01*
X149223590Y-88446410D01*
X149383550Y-88577685D01*
X149566046Y-88675232D01*
X149764066Y-88735300D01*
X149970000Y-88755583D01*
X150175934Y-88735300D01*
X150373954Y-88675232D01*
X150556450Y-88577685D01*
X150716410Y-88446410D01*
X150847685Y-88286450D01*
X150945232Y-88103954D01*
X151005300Y-87905934D01*
X151025583Y-87700000D01*
X151024413Y-87688126D01*
X151016228Y-87605018D01*
X151005300Y-87494066D01*
X150945232Y-87296046D01*
X150847685Y-87113550D01*
X150716410Y-86953590D01*
X150556450Y-86822315D01*
X150373954Y-86724768D01*
X150175934Y-86664700D01*
X149970000Y-86644417D01*
X149764065Y-86664700D01*
X149764064Y-86664700D01*
X149566043Y-86724769D01*
X149383548Y-86822316D01*
X149223590Y-86953590D01*
X149092316Y-87113548D01*
X148994769Y-87296043D01*
X148934700Y-87494064D01*
X148934700Y-87494065D01*
X148915587Y-87688126D01*
X148914417Y-87700000D01*
X144775500Y-87700000D01*
X144775500Y-82822762D01*
X144778294Y-82806452D01*
X144781534Y-82797273D01*
X144902931Y-82453356D01*
X144927996Y-82425463D01*
X144929097Y-82424954D01*
X145220472Y-82294762D01*
X145240461Y-82290500D01*
X145413811Y-82290500D01*
X145448459Y-82304852D01*
X145969519Y-82825912D01*
X145969520Y-82825913D01*
X146044087Y-82900480D01*
X146077513Y-82919778D01*
X146135410Y-82953206D01*
X146135412Y-82953206D01*
X146135413Y-82953207D01*
X146173697Y-82963465D01*
X146237269Y-82980499D01*
X146237270Y-82980500D01*
X146237273Y-82980500D01*
X149767730Y-82980500D01*
X149767730Y-82980499D01*
X149869588Y-82953207D01*
X149960913Y-82900480D01*
X151011098Y-81850292D01*
X151045744Y-81835942D01*
X151080392Y-81850294D01*
X151094744Y-81884942D01*
X151094141Y-81892607D01*
X151084500Y-81953481D01*
X151084500Y-82416517D01*
X151099353Y-82510303D01*
X151156945Y-82623335D01*
X151156950Y-82623342D01*
X151246657Y-82713049D01*
X151246664Y-82713054D01*
X151359691Y-82770644D01*
X151359692Y-82770644D01*
X151359696Y-82770646D01*
X151453481Y-82785500D01*
X151523818Y-82785499D01*
X151545899Y-82790756D01*
X151726237Y-82881786D01*
X152132580Y-83086897D01*
X152157044Y-83115322D01*
X152159500Y-83130640D01*
X152159500Y-85902619D01*
X152148325Y-85933769D01*
X151508112Y-86711171D01*
X151489019Y-86744768D01*
X151487161Y-86747778D01*
X151471133Y-86771767D01*
X151459499Y-86830256D01*
X151459264Y-86832649D01*
X151459209Y-86832643D01*
X151458948Y-86835241D01*
X151458901Y-86838078D01*
X151459500Y-86845198D01*
X151459500Y-88569748D01*
X151471133Y-88628231D01*
X151488882Y-88654795D01*
X151515447Y-88694552D01*
X151542012Y-88712301D01*
X151581769Y-88738867D01*
X151640252Y-88750500D01*
X151640255Y-88750500D01*
X153379745Y-88750500D01*
X153379748Y-88750500D01*
X153438231Y-88738867D01*
X153504552Y-88694552D01*
X153548867Y-88628231D01*
X153560500Y-88569748D01*
X153560500Y-86830252D01*
X153548867Y-86771769D01*
X153527519Y-86739820D01*
X153525085Y-86735767D01*
X153511885Y-86711171D01*
X153511883Y-86711167D01*
X152991395Y-86079145D01*
X152871675Y-85933770D01*
X152860500Y-85902620D01*
X152860500Y-82888853D01*
X152836614Y-82799713D01*
X152836614Y-82799712D01*
X152828408Y-82785499D01*
X152790470Y-82719788D01*
X152704629Y-82633947D01*
X152694538Y-82619284D01*
X152518233Y-82224547D01*
X152439759Y-82048848D01*
X152435499Y-82028865D01*
X152435499Y-81953482D01*
X152420646Y-81859696D01*
X152363054Y-81746664D01*
X152363049Y-81746657D01*
X152273342Y-81656950D01*
X152273335Y-81656945D01*
X152160308Y-81599355D01*
X152160305Y-81599354D01*
X152160304Y-81599354D01*
X152066519Y-81584500D01*
X152066517Y-81584500D01*
X151453482Y-81584500D01*
X151392606Y-81594141D01*
X151356139Y-81585385D01*
X151336545Y-81553408D01*
X151345301Y-81516941D01*
X151350288Y-81511102D01*
X151352168Y-81509222D01*
X151362120Y-81501550D01*
X151978364Y-81142170D01*
X152003049Y-81135499D01*
X152066517Y-81135499D01*
X152066518Y-81135499D01*
X152160304Y-81120646D01*
X152228864Y-81085713D01*
X152273335Y-81063054D01*
X152273337Y-81063052D01*
X152273342Y-81063050D01*
X152363050Y-80973342D01*
X152363846Y-80971780D01*
X152420644Y-80860309D01*
X152420644Y-80860307D01*
X152420646Y-80860304D01*
X152435500Y-80766519D01*
X152435499Y-80698512D01*
X152441229Y-80675519D01*
X152727349Y-80137073D01*
X152735965Y-80125426D01*
X153960480Y-78900913D01*
X153964826Y-78893386D01*
X153965731Y-78891820D01*
X154013206Y-78809589D01*
X154013206Y-78809588D01*
X154013207Y-78809587D01*
X154040499Y-78707730D01*
X154040500Y-78707730D01*
X154040500Y-77102270D01*
X154040499Y-77102269D01*
X154024484Y-77042500D01*
X154013207Y-77000413D01*
X154013206Y-77000412D01*
X154013206Y-77000410D01*
X153963476Y-76914276D01*
X153960480Y-76909087D01*
X153885913Y-76834520D01*
X153559224Y-76507831D01*
X153551544Y-76497868D01*
X153498271Y-76406519D01*
X153192171Y-75881634D01*
X153185499Y-75856949D01*
X153185499Y-75793482D01*
X153170646Y-75699696D01*
X153113054Y-75586664D01*
X153113049Y-75586657D01*
X153023342Y-75496950D01*
X153023335Y-75496945D01*
X152910308Y-75439355D01*
X152910305Y-75439354D01*
X152910304Y-75439354D01*
X152816519Y-75424500D01*
X152816517Y-75424500D01*
X152748513Y-75424500D01*
X152725520Y-75418770D01*
X152187076Y-75132650D01*
X152175421Y-75124028D01*
X151955913Y-74904520D01*
X151864589Y-74851793D01*
X151864587Y-74851792D01*
X151762730Y-74824500D01*
X151762727Y-74824500D01*
X146197727Y-74824500D01*
X146092273Y-74824500D01*
X146092270Y-74824500D01*
X145990412Y-74851792D01*
X145990410Y-74851793D01*
X145899086Y-74904520D01*
X145899086Y-74904521D01*
X144269521Y-76534086D01*
X144269520Y-76534086D01*
X144216793Y-76625410D01*
X144216792Y-76625412D01*
X144195990Y-76703050D01*
X144189500Y-76727270D01*
X144189500Y-77190698D01*
X144185463Y-77210175D01*
X143955174Y-77741785D01*
X143955173Y-77741789D01*
X143952845Y-77750327D01*
X143949232Y-77759677D01*
X143930280Y-77796874D01*
X143916952Y-77881028D01*
X143914500Y-77896512D01*
X143914500Y-78413488D01*
X143930281Y-78513126D01*
X143930281Y-78513127D01*
X143930282Y-78513129D01*
X143991467Y-78633213D01*
X143991472Y-78633220D01*
X144086779Y-78728527D01*
X144086786Y-78728532D01*
X144206870Y-78789717D01*
X144206874Y-78789719D01*
X144306512Y-78805500D01*
X144306514Y-78805500D01*
X144873486Y-78805500D01*
X144873488Y-78805500D01*
X144973126Y-78789719D01*
X145035699Y-78757836D01*
X145093213Y-78728532D01*
X145093215Y-78728530D01*
X145093220Y-78728528D01*
X145188528Y-78633220D01*
X145191080Y-78628213D01*
X145249717Y-78513129D01*
X145249719Y-78513126D01*
X145265500Y-78413488D01*
X145265500Y-77896512D01*
X145249719Y-77796874D01*
X145240417Y-77778618D01*
X145230048Y-77758267D01*
X145225809Y-77746356D01*
X145224823Y-77741782D01*
X145220200Y-77731111D01*
X144994537Y-77210176D01*
X144990500Y-77190699D01*
X144990500Y-76966189D01*
X145004852Y-76931541D01*
X146296541Y-75639852D01*
X146331189Y-75625500D01*
X150307198Y-75625500D01*
X150341846Y-75639852D01*
X150356198Y-75674500D01*
X150350857Y-75696746D01*
X150349355Y-75699693D01*
X150349354Y-75699694D01*
X150349354Y-75699696D01*
X150334500Y-75793481D01*
X150334500Y-75793482D01*
X150334500Y-76406517D01*
X150349353Y-76500302D01*
X150359251Y-76519730D01*
X150363352Y-76531025D01*
X150366174Y-76543337D01*
X150366176Y-76543344D01*
X150494421Y-76829280D01*
X150571175Y-77000413D01*
X150580209Y-77020554D01*
X150584500Y-77040606D01*
X150584500Y-77322409D01*
X150580309Y-77342237D01*
X150347350Y-77868692D01*
X150341710Y-77887852D01*
X150338365Y-77896256D01*
X150330048Y-77912579D01*
X150315189Y-78006402D01*
X150314500Y-78010754D01*
X150314500Y-78589246D01*
X150330049Y-78687420D01*
X150330049Y-78687421D01*
X150330050Y-78687422D01*
X150390338Y-78805746D01*
X150390342Y-78805751D01*
X150484248Y-78899657D01*
X150484253Y-78899661D01*
X150543107Y-78929648D01*
X150602580Y-78959951D01*
X150700754Y-78975500D01*
X150700755Y-78975500D01*
X151204245Y-78975500D01*
X151204246Y-78975500D01*
X151302420Y-78959951D01*
X151383402Y-78918688D01*
X151420746Y-78899661D01*
X151420747Y-78899659D01*
X151420751Y-78899658D01*
X151514658Y-78805751D01*
X151527492Y-78780564D01*
X151542009Y-78752072D01*
X151574951Y-78687420D01*
X151589811Y-78593597D01*
X151990001Y-78593597D01*
X151996111Y-78640021D01*
X152043618Y-78741898D01*
X152043619Y-78741900D01*
X152123099Y-78821380D01*
X152123101Y-78821381D01*
X152224977Y-78868887D01*
X152271406Y-78874999D01*
X152427499Y-78874999D01*
X152427500Y-78874998D01*
X152427500Y-78400000D01*
X151990001Y-78400000D01*
X151990001Y-78593597D01*
X151589811Y-78593597D01*
X151590500Y-78589246D01*
X151590500Y-78010754D01*
X151589811Y-78006405D01*
X151990000Y-78006405D01*
X151990000Y-78200000D01*
X152427500Y-78200000D01*
X152627500Y-78200000D01*
X153064999Y-78200000D01*
X153064999Y-78006407D01*
X153064998Y-78006402D01*
X153058888Y-77959978D01*
X153011381Y-77858101D01*
X153011380Y-77858099D01*
X152931900Y-77778619D01*
X152931898Y-77778618D01*
X152830022Y-77731112D01*
X152783594Y-77725000D01*
X152627500Y-77725000D01*
X152627500Y-78200000D01*
X152427500Y-78200000D01*
X152427500Y-77725000D01*
X152271407Y-77725000D01*
X152271402Y-77725001D01*
X152224978Y-77731111D01*
X152123101Y-77778618D01*
X152123099Y-77778619D01*
X152043619Y-77858099D01*
X152043618Y-77858101D01*
X151996112Y-77959977D01*
X151990000Y-78006405D01*
X151589811Y-78006405D01*
X151574951Y-77912580D01*
X151574949Y-77912577D01*
X151574950Y-77912577D01*
X151560724Y-77884659D01*
X151557160Y-77875489D01*
X151555278Y-77868694D01*
X151552645Y-77859183D01*
X151515643Y-77785713D01*
X151290737Y-77339143D01*
X151285500Y-77317103D01*
X151285500Y-77040606D01*
X151289791Y-77020554D01*
X151298824Y-77000414D01*
X151503823Y-76543342D01*
X151510883Y-76520939D01*
X151513953Y-76513437D01*
X151520646Y-76500304D01*
X151535500Y-76406519D01*
X151535499Y-75793482D01*
X151525858Y-75732607D01*
X151534613Y-75696142D01*
X151566590Y-75676547D01*
X151603057Y-75685302D01*
X151608903Y-75690296D01*
X151610777Y-75692170D01*
X151618457Y-75702133D01*
X151977828Y-76318361D01*
X151984500Y-76343045D01*
X151984500Y-76406517D01*
X151999353Y-76500303D01*
X152056945Y-76613335D01*
X152056950Y-76613342D01*
X152146657Y-76703049D01*
X152146664Y-76703054D01*
X152259691Y-76760644D01*
X152259692Y-76760644D01*
X152259696Y-76760646D01*
X152353481Y-76775500D01*
X152421483Y-76775499D01*
X152444477Y-76781229D01*
X152474482Y-76797173D01*
X152474484Y-76797173D01*
X152982922Y-77067348D01*
X152994576Y-77075969D01*
X153225148Y-77306541D01*
X153239500Y-77341189D01*
X153239500Y-78468810D01*
X153225148Y-78503458D01*
X153148648Y-78579958D01*
X153114000Y-78594310D01*
X153079352Y-78579958D01*
X153065000Y-78545310D01*
X153065000Y-78400000D01*
X152627500Y-78400000D01*
X152627500Y-78874999D01*
X152735311Y-78874999D01*
X152769959Y-78889351D01*
X152784311Y-78923999D01*
X152769959Y-78958647D01*
X152167828Y-79560777D01*
X152157865Y-79568457D01*
X151541636Y-79927828D01*
X151516952Y-79934500D01*
X151453482Y-79934500D01*
X151453482Y-79934501D01*
X151359696Y-79949353D01*
X151246664Y-80006945D01*
X151246657Y-80006950D01*
X151156950Y-80096657D01*
X151156945Y-80096664D01*
X151099355Y-80209690D01*
X151099355Y-80209692D01*
X151099354Y-80209694D01*
X151099354Y-80209696D01*
X151088853Y-80275996D01*
X151084500Y-80303482D01*
X151084500Y-80371486D01*
X151078770Y-80394479D01*
X151028889Y-80488349D01*
X150842788Y-80838569D01*
X150809381Y-80901437D01*
X150792647Y-80932927D01*
X150784025Y-80944581D01*
X149563459Y-82165148D01*
X149528811Y-82179500D01*
X147995794Y-82179500D01*
X147961146Y-82165148D01*
X147946794Y-82130500D01*
X147961146Y-82095852D01*
X147975109Y-82087295D01*
X147974689Y-82086470D01*
X147978124Y-82084719D01*
X147978126Y-82084719D01*
X148035698Y-82055383D01*
X148042471Y-82052552D01*
X148051845Y-82049435D01*
X148051847Y-82049433D01*
X148051856Y-82049431D01*
X148089103Y-82028230D01*
X148091085Y-82027163D01*
X148098216Y-82023530D01*
X148098215Y-82023530D01*
X148098220Y-82023528D01*
X148098223Y-82023524D01*
X148099107Y-82022883D01*
X148103676Y-82019936D01*
X148156289Y-81989991D01*
X148486487Y-81802055D01*
X148498037Y-81797313D01*
X148575288Y-81776614D01*
X148580065Y-81773856D01*
X148655212Y-81730470D01*
X148718719Y-81666961D01*
X148722142Y-81663850D01*
X148728714Y-81658424D01*
X148729878Y-81656782D01*
X148735186Y-81650494D01*
X149060585Y-81325094D01*
X149072648Y-81317091D01*
X149072308Y-81316452D01*
X149074427Y-81315320D01*
X149074440Y-81315316D01*
X149401648Y-81097296D01*
X149403964Y-81095204D01*
X149410297Y-81090360D01*
X149498049Y-81033967D01*
X149582882Y-80936063D01*
X149636697Y-80818226D01*
X149636697Y-80818224D01*
X149636698Y-80818223D01*
X149655133Y-80690002D01*
X149655133Y-80689997D01*
X149636698Y-80561776D01*
X149603168Y-80488357D01*
X149582882Y-80443937D01*
X149498049Y-80346033D01*
X149389069Y-80275996D01*
X149389066Y-80275995D01*
X149264776Y-80239500D01*
X149264772Y-80239500D01*
X149135228Y-80239500D01*
X149135223Y-80239500D01*
X149010933Y-80275995D01*
X148901950Y-80346033D01*
X148817118Y-80443935D01*
X148817117Y-80443937D01*
X148803980Y-80472701D01*
X148794113Y-80486935D01*
X148792715Y-80488337D01*
X148792698Y-80488357D01*
X148574686Y-80815553D01*
X148574675Y-80815574D01*
X148574669Y-80815587D01*
X148574662Y-80815595D01*
X148573797Y-80817128D01*
X148573644Y-80817041D01*
X148565013Y-80829303D01*
X148388897Y-81005419D01*
X148354249Y-81019771D01*
X148329405Y-81013006D01*
X148104173Y-80880515D01*
X148100218Y-80877924D01*
X148098220Y-80876472D01*
X148092661Y-80873639D01*
X148090071Y-80872218D01*
X148042861Y-80844448D01*
X148018522Y-80833967D01*
X147995932Y-80824239D01*
X147993084Y-80822901D01*
X147978125Y-80815280D01*
X147978127Y-80815280D01*
X147884606Y-80800469D01*
X147878488Y-80799500D01*
X147061512Y-80799500D01*
X146961874Y-80815281D01*
X146961872Y-80815281D01*
X146961870Y-80815282D01*
X146841786Y-80876467D01*
X146841779Y-80876472D01*
X146746472Y-80971779D01*
X146746467Y-80971786D01*
X146685282Y-81091870D01*
X146685281Y-81091872D01*
X146685281Y-81091874D01*
X146669500Y-81191512D01*
X146669500Y-81708488D01*
X146685281Y-81808126D01*
X146685281Y-81808127D01*
X146685282Y-81808129D01*
X146746467Y-81928213D01*
X146746472Y-81928220D01*
X146841779Y-82023527D01*
X146841786Y-82023532D01*
X146965310Y-82086470D01*
X146964415Y-82088226D01*
X146987865Y-82108252D01*
X146990809Y-82145640D01*
X146966455Y-82174158D01*
X146944207Y-82179500D01*
X146476189Y-82179500D01*
X146441541Y-82165148D01*
X145845913Y-81569520D01*
X145754589Y-81516793D01*
X145754587Y-81516792D01*
X145652730Y-81489500D01*
X145652727Y-81489500D01*
X145240462Y-81489500D01*
X145220472Y-81485237D01*
X145185252Y-81469500D01*
X145045233Y-81406936D01*
X144851197Y-81320236D01*
X144836539Y-81310147D01*
X144813342Y-81286950D01*
X144813335Y-81286945D01*
X144700308Y-81229355D01*
X144700305Y-81229354D01*
X144700304Y-81229354D01*
X144606519Y-81214500D01*
X144606517Y-81214500D01*
X144143482Y-81214500D01*
X144049696Y-81229353D01*
X143936664Y-81286945D01*
X143936657Y-81286950D01*
X143846950Y-81376657D01*
X143846945Y-81376664D01*
X143789355Y-81489690D01*
X143789355Y-81489692D01*
X143789354Y-81489694D01*
X143789354Y-81489696D01*
X143774500Y-81583481D01*
X143774500Y-81583482D01*
X143774500Y-82196517D01*
X143789353Y-82290301D01*
X143789353Y-82290302D01*
X143789354Y-82290304D01*
X143793734Y-82298901D01*
X143798574Y-82314162D01*
X143799017Y-82317234D01*
X143971706Y-82806453D01*
X143974500Y-82822763D01*
X143974500Y-88103810D01*
X143960148Y-88138458D01*
X142927519Y-89171086D01*
X142915923Y-89179677D01*
X142223672Y-89548739D01*
X142200620Y-89554500D01*
X142176512Y-89554500D01*
X142162889Y-89556657D01*
X142076874Y-89570280D01*
X142076869Y-89570282D01*
X142061024Y-89578355D01*
X142047571Y-89582900D01*
X142040181Y-89584247D01*
X142040177Y-89584248D01*
X141491879Y-89801067D01*
X141473860Y-89804500D01*
X141346140Y-89804500D01*
X141328121Y-89801067D01*
X140931456Y-89644209D01*
X140905998Y-89621242D01*
X140716023Y-89255783D01*
X140710500Y-89233183D01*
X140710500Y-87323853D01*
X140686614Y-87234713D01*
X140686614Y-87234712D01*
X140680143Y-87223504D01*
X140640470Y-87154788D01*
X140015330Y-86529648D01*
X140000978Y-86495000D01*
X140015330Y-86460352D01*
X140620469Y-85855213D01*
X140620470Y-85855212D01*
X140666614Y-85775288D01*
X140671669Y-85756421D01*
X140690500Y-85686144D01*
X140690500Y-85107660D01*
X140693337Y-85093451D01*
X140692680Y-85093251D01*
X140693377Y-85090960D01*
X140693382Y-85090949D01*
X140770588Y-84705414D01*
X140770588Y-84705409D01*
X140770832Y-84704192D01*
X140774305Y-84693463D01*
X140776697Y-84688226D01*
X140792098Y-84581109D01*
X140795133Y-84560001D01*
X140795133Y-84559997D01*
X140776698Y-84431776D01*
X140746764Y-84366231D01*
X140722882Y-84313937D01*
X140638049Y-84216033D01*
X140529069Y-84145996D01*
X140529066Y-84145995D01*
X140404776Y-84109500D01*
X140404772Y-84109500D01*
X140275228Y-84109500D01*
X140275223Y-84109500D01*
X140150933Y-84145995D01*
X140041950Y-84216033D01*
X139957119Y-84313936D01*
X139957118Y-84313936D01*
X139903301Y-84431776D01*
X139884867Y-84559997D01*
X139884867Y-84560002D01*
X139903301Y-84688221D01*
X139903303Y-84688228D01*
X139905694Y-84693464D01*
X139909166Y-84704192D01*
X139949392Y-84905061D01*
X139983827Y-85077014D01*
X139983828Y-85077019D01*
X139986619Y-85090954D01*
X139986620Y-85090957D01*
X139986621Y-85090961D01*
X139987103Y-85092696D01*
X139986929Y-85092744D01*
X139989500Y-85107508D01*
X139989500Y-85474522D01*
X139975148Y-85509170D01*
X139609170Y-85875148D01*
X139574522Y-85889500D01*
X139175533Y-85889500D01*
X139161463Y-85887436D01*
X139151391Y-85884416D01*
X139112353Y-85880698D01*
X139079222Y-85863125D01*
X139068000Y-85831919D01*
X139068000Y-85633987D01*
X139068000Y-85633984D01*
X139057092Y-85579146D01*
X139015540Y-85516960D01*
X139015539Y-85516959D01*
X139015415Y-85516773D01*
X139008098Y-85479991D01*
X139015415Y-85462327D01*
X139056620Y-85400658D01*
X139067500Y-85345962D01*
X139067500Y-85340000D01*
X138604000Y-85340000D01*
X138569352Y-85325648D01*
X138555000Y-85291000D01*
X138555000Y-85140000D01*
X138755000Y-85140000D01*
X139067500Y-85140000D01*
X139067500Y-85134037D01*
X139056620Y-85079340D01*
X139015180Y-85017319D01*
X138953159Y-84975879D01*
X138898463Y-84965000D01*
X138755000Y-84965000D01*
X138755000Y-85140000D01*
X138555000Y-85140000D01*
X138555000Y-84965000D01*
X138412245Y-84965000D01*
X138377597Y-84950648D01*
X138363245Y-84916000D01*
X138364106Y-84906855D01*
X138364443Y-84905073D01*
X138364447Y-84905062D01*
X138371634Y-84828406D01*
X138354786Y-84651503D01*
X138354786Y-84651490D01*
X138348082Y-84581109D01*
X138348082Y-84581106D01*
X138344743Y-84568923D01*
X138343000Y-84555971D01*
X138343000Y-83365035D01*
X138319114Y-83275895D01*
X138319113Y-83275892D01*
X138272972Y-83195976D01*
X138272969Y-83195970D01*
X138207712Y-83130713D01*
X137774852Y-82697852D01*
X137760500Y-82663204D01*
X137760500Y-80423364D01*
X137760499Y-80423363D01*
X137755451Y-80404526D01*
X137736614Y-80334223D01*
X137734096Y-80329862D01*
X137690470Y-80254299D01*
X135725701Y-78289530D01*
X135708585Y-78279648D01*
X135645780Y-78243387D01*
X135645777Y-78243386D01*
X135636275Y-78240840D01*
X135606124Y-78232761D01*
X135553530Y-78218668D01*
X135553983Y-78216976D01*
X135526385Y-78201010D01*
X135516710Y-78164777D01*
X135520458Y-78151426D01*
X135547585Y-78089991D01*
X135550500Y-78064865D01*
X135550499Y-77775136D01*
X135547585Y-77750009D01*
X135502206Y-77647235D01*
X135502205Y-77647234D01*
X135502205Y-77647233D01*
X135422766Y-77567794D01*
X135422767Y-77567794D01*
X135319993Y-77522415D01*
X135294865Y-77519500D01*
X135062000Y-77519500D01*
X135027352Y-77505148D01*
X135013000Y-77470500D01*
X135013000Y-77079183D01*
X135013001Y-77079170D01*
X135013001Y-76969771D01*
X134996740Y-76909087D01*
X134985707Y-76867913D01*
X134985706Y-76867911D01*
X134985706Y-76867910D01*
X134971886Y-76843974D01*
X134963402Y-76829279D01*
X134932980Y-76776587D01*
X134858413Y-76702020D01*
X134856707Y-76700314D01*
X134856696Y-76700304D01*
X131420297Y-73263904D01*
X131409493Y-73247562D01*
X131395810Y-73213590D01*
X131027850Y-72300000D01*
X131374417Y-72300000D01*
X131394700Y-72505934D01*
X131454767Y-72703952D01*
X131454769Y-72703956D01*
X131462785Y-72718952D01*
X131552315Y-72886450D01*
X131596073Y-72939770D01*
X131683588Y-73046408D01*
X131698444Y-73058601D01*
X131703991Y-73064238D01*
X131704012Y-73064219D01*
X131705686Y-73065949D01*
X131876128Y-73210552D01*
X132808831Y-74001857D01*
X132820947Y-74008918D01*
X132830923Y-74016605D01*
X133014788Y-74200470D01*
X133028217Y-74208223D01*
X133094709Y-74246613D01*
X133094711Y-74246613D01*
X133094712Y-74246614D01*
X133116998Y-74252585D01*
X133183853Y-74270500D01*
X133183856Y-74270500D01*
X134294522Y-74270500D01*
X134329170Y-74284852D01*
X135255148Y-75210830D01*
X135269500Y-75245478D01*
X135269500Y-77066145D01*
X135272990Y-77079170D01*
X135284918Y-77123684D01*
X135293386Y-77155288D01*
X135293387Y-77155291D01*
X135339530Y-77235212D01*
X138904787Y-80800469D01*
X138962807Y-80833967D01*
X138981191Y-80844581D01*
X138981189Y-80844582D01*
X138981196Y-80844584D01*
X138984712Y-80846614D01*
X138984714Y-80846615D01*
X139073852Y-80870499D01*
X139073853Y-80870500D01*
X139073856Y-80870500D01*
X139356902Y-80870500D01*
X139374231Y-80873666D01*
X139375993Y-80874333D01*
X139390021Y-80876670D01*
X139421839Y-80896521D01*
X139430302Y-80933056D01*
X139426793Y-80944796D01*
X139402415Y-81000006D01*
X139399500Y-81025134D01*
X139399500Y-81314858D01*
X139399501Y-81314868D01*
X139402415Y-81339992D01*
X139447794Y-81442766D01*
X139465380Y-81460352D01*
X139479732Y-81495000D01*
X139465380Y-81529648D01*
X139447794Y-81547233D01*
X139402415Y-81650006D01*
X139399500Y-81675134D01*
X139399500Y-81964858D01*
X139399501Y-81964868D01*
X139402415Y-81989992D01*
X139447794Y-82092766D01*
X139527233Y-82172205D01*
X139630006Y-82217584D01*
X139630009Y-82217585D01*
X139655135Y-82220500D01*
X140934062Y-82220499D01*
X140943142Y-82221347D01*
X140958112Y-82224171D01*
X140963532Y-82224547D01*
X141011538Y-82222244D01*
X141025753Y-82219874D01*
X141028094Y-82219543D01*
X141044991Y-82217585D01*
X141044994Y-82217583D01*
X141048550Y-82216616D01*
X141048609Y-82216834D01*
X141054418Y-82215096D01*
X141299007Y-82174333D01*
X141303054Y-82172990D01*
X141318477Y-82170500D01*
X141839588Y-82170500D01*
X141867051Y-82178919D01*
X142189478Y-82397123D01*
X142196663Y-82403056D01*
X142246966Y-82453358D01*
X142286658Y-82493050D01*
X142286660Y-82493051D01*
X142286664Y-82493054D01*
X142399691Y-82550644D01*
X142399692Y-82550644D01*
X142399696Y-82550646D01*
X142493481Y-82565500D01*
X142956518Y-82565499D01*
X143050304Y-82550646D01*
X143111387Y-82519522D01*
X143163335Y-82493054D01*
X143163337Y-82493052D01*
X143163342Y-82493050D01*
X143253050Y-82403342D01*
X143256219Y-82397123D01*
X143310644Y-82290309D01*
X143310644Y-82290307D01*
X143310646Y-82290304D01*
X143325500Y-82196519D01*
X143325499Y-81583482D01*
X143310646Y-81489696D01*
X143300356Y-81469500D01*
X143253054Y-81376664D01*
X143253049Y-81376657D01*
X143163342Y-81286950D01*
X143163335Y-81286945D01*
X143050308Y-81229355D01*
X143050305Y-81229354D01*
X143050304Y-81229354D01*
X142956519Y-81214500D01*
X142956517Y-81214500D01*
X142493482Y-81214500D01*
X142399696Y-81229353D01*
X142285652Y-81287461D01*
X142283077Y-81288680D01*
X141879935Y-81465378D01*
X141860265Y-81469500D01*
X141318101Y-81469500D01*
X141300777Y-81466334D01*
X141299008Y-81465666D01*
X141299003Y-81465665D01*
X141299000Y-81465664D01*
X141284975Y-81463326D01*
X141253158Y-81443472D01*
X141244699Y-81406936D01*
X141248205Y-81395206D01*
X141272585Y-81339991D01*
X141275500Y-81314865D01*
X141275499Y-81025136D01*
X141272585Y-81000009D01*
X141227206Y-80897235D01*
X141227205Y-80897234D01*
X141227205Y-80897233D01*
X141209620Y-80879649D01*
X141195267Y-80845001D01*
X141209618Y-80810353D01*
X141227205Y-80792766D01*
X141227206Y-80792765D01*
X141272585Y-80689991D01*
X141275500Y-80664865D01*
X141275499Y-80459476D01*
X141289851Y-80424829D01*
X141324499Y-80410477D01*
X141359147Y-80424829D01*
X141834788Y-80900470D01*
X141864040Y-80917359D01*
X141914709Y-80946613D01*
X141914711Y-80946613D01*
X141914712Y-80946614D01*
X141936998Y-80952585D01*
X142003853Y-80970500D01*
X142003856Y-80970500D01*
X146296146Y-80970500D01*
X146340716Y-80958557D01*
X146385288Y-80946614D01*
X146394678Y-80941193D01*
X146408771Y-80933056D01*
X146465212Y-80900470D01*
X147750470Y-79615212D01*
X147796614Y-79535288D01*
X147813461Y-79472415D01*
X147820500Y-79446144D01*
X147820500Y-79132729D01*
X147828325Y-79106166D01*
X148056812Y-78752072D01*
X148075737Y-78734983D01*
X148075743Y-78734980D01*
X148098220Y-78723528D01*
X148193528Y-78628220D01*
X148201433Y-78612707D01*
X148235773Y-78545310D01*
X148254719Y-78508126D01*
X148270500Y-78408488D01*
X148270500Y-77891512D01*
X148254719Y-77791874D01*
X148238314Y-77759677D01*
X148193532Y-77671786D01*
X148193527Y-77671779D01*
X148098220Y-77576472D01*
X148098213Y-77576467D01*
X147978129Y-77515282D01*
X147978127Y-77515281D01*
X147978126Y-77515281D01*
X147878488Y-77499500D01*
X147061512Y-77499500D01*
X146961874Y-77515281D01*
X146961872Y-77515281D01*
X146961870Y-77515282D01*
X146841786Y-77576467D01*
X146841779Y-77576472D01*
X146746472Y-77671779D01*
X146746467Y-77671786D01*
X146685282Y-77791870D01*
X146685281Y-77791872D01*
X146685281Y-77791874D01*
X146669500Y-77891512D01*
X146669500Y-78408488D01*
X146685281Y-78508126D01*
X146685281Y-78508127D01*
X146685282Y-78508129D01*
X146746467Y-78628213D01*
X146746472Y-78628220D01*
X146841780Y-78723528D01*
X146864258Y-78734981D01*
X146883185Y-78752072D01*
X146941707Y-78842765D01*
X147091649Y-79075134D01*
X147111672Y-79106163D01*
X147119500Y-79132731D01*
X147119500Y-79234522D01*
X147105148Y-79269170D01*
X146119170Y-80255148D01*
X146084522Y-80269500D01*
X145078417Y-80269500D01*
X145043769Y-80255148D01*
X145029417Y-80220500D01*
X145043769Y-80185852D01*
X145110330Y-80119290D01*
X145110331Y-80119288D01*
X145158768Y-80015415D01*
X145165000Y-79968081D01*
X145165000Y-79805000D01*
X144015001Y-79805000D01*
X144015001Y-79968085D01*
X144021230Y-80015414D01*
X144069668Y-80119288D01*
X144069669Y-80119290D01*
X144136231Y-80185852D01*
X144150583Y-80220500D01*
X144136231Y-80255148D01*
X144101583Y-80269500D01*
X143288417Y-80269500D01*
X143253769Y-80255148D01*
X143239417Y-80220500D01*
X143253769Y-80185852D01*
X143320330Y-80119290D01*
X143320331Y-80119288D01*
X143368768Y-80015415D01*
X143375000Y-79968081D01*
X143375000Y-79805000D01*
X142225001Y-79805000D01*
X142225001Y-79968085D01*
X142231230Y-80015414D01*
X142279668Y-80119288D01*
X142279669Y-80119290D01*
X142346231Y-80185852D01*
X142360583Y-80220500D01*
X142346231Y-80255148D01*
X142311583Y-80269500D01*
X142215478Y-80269500D01*
X142180830Y-80255148D01*
X141984852Y-80059170D01*
X141970500Y-80024522D01*
X141970500Y-79441918D01*
X142225000Y-79441918D01*
X142225000Y-79605000D01*
X142700000Y-79605000D01*
X142900000Y-79605000D01*
X143374999Y-79605000D01*
X143374999Y-79441919D01*
X143374999Y-79441918D01*
X144015000Y-79441918D01*
X144015000Y-79605000D01*
X144490000Y-79605000D01*
X144690000Y-79605000D01*
X145164999Y-79605000D01*
X145164999Y-79441919D01*
X145164998Y-79441914D01*
X145158769Y-79394585D01*
X145110331Y-79290711D01*
X145110330Y-79290709D01*
X145029290Y-79209669D01*
X145029288Y-79209668D01*
X144925415Y-79161231D01*
X144878081Y-79155000D01*
X144690000Y-79155000D01*
X144690000Y-79605000D01*
X144490000Y-79605000D01*
X144490000Y-79155000D01*
X144301919Y-79155000D01*
X144301914Y-79155001D01*
X144254585Y-79161230D01*
X144150711Y-79209668D01*
X144150709Y-79209669D01*
X144069669Y-79290709D01*
X144069668Y-79290711D01*
X144021231Y-79394584D01*
X144015000Y-79441918D01*
X143374999Y-79441918D01*
X143374998Y-79441914D01*
X143368769Y-79394585D01*
X143320331Y-79290711D01*
X143320330Y-79290709D01*
X143239290Y-79209669D01*
X143239288Y-79209668D01*
X143135415Y-79161231D01*
X143088081Y-79155000D01*
X142900000Y-79155000D01*
X142900000Y-79605000D01*
X142700000Y-79605000D01*
X142700000Y-79155000D01*
X142511919Y-79155000D01*
X142511914Y-79155001D01*
X142464585Y-79161230D01*
X142360711Y-79209668D01*
X142360709Y-79209669D01*
X142279669Y-79290709D01*
X142279668Y-79290711D01*
X142231231Y-79394584D01*
X142225000Y-79441918D01*
X141970500Y-79441918D01*
X141970500Y-78833853D01*
X141946614Y-78744713D01*
X141946614Y-78744712D01*
X141929381Y-78714864D01*
X141911872Y-78684537D01*
X141906977Y-78647355D01*
X141929807Y-78617602D01*
X141966989Y-78612707D01*
X141972324Y-78614469D01*
X142380177Y-78775751D01*
X142393677Y-78779220D01*
X142403720Y-78783016D01*
X142416874Y-78789719D01*
X142516512Y-78805500D01*
X142516514Y-78805500D01*
X143083486Y-78805500D01*
X143083488Y-78805500D01*
X143183126Y-78789719D01*
X143245699Y-78757836D01*
X143303213Y-78728532D01*
X143303215Y-78728530D01*
X143303220Y-78728528D01*
X143398528Y-78633220D01*
X143401080Y-78628213D01*
X143459717Y-78513129D01*
X143459719Y-78513126D01*
X143475500Y-78413488D01*
X143475500Y-77896512D01*
X143459719Y-77796874D01*
X143450417Y-77778618D01*
X143398532Y-77676786D01*
X143398527Y-77676779D01*
X143303220Y-77581472D01*
X143303213Y-77581467D01*
X143183129Y-77520282D01*
X143183127Y-77520281D01*
X143183126Y-77520281D01*
X143083488Y-77504500D01*
X142516512Y-77504500D01*
X142512421Y-77505148D01*
X142416874Y-77520280D01*
X142416869Y-77520282D01*
X142401024Y-77528355D01*
X142387571Y-77532900D01*
X142380181Y-77534247D01*
X142380177Y-77534248D01*
X142001953Y-77683812D01*
X141964455Y-77683207D01*
X141949286Y-77672893D01*
X141875913Y-77599520D01*
X141784589Y-77546793D01*
X141784587Y-77546792D01*
X141682730Y-77519500D01*
X141682727Y-77519500D01*
X140800469Y-77519500D01*
X140765821Y-77505148D01*
X140751469Y-77470500D01*
X140751712Y-77465624D01*
X140762358Y-77359170D01*
X140790698Y-77075760D01*
X140791076Y-77070787D01*
X140791443Y-77065959D01*
X140791500Y-77064860D01*
X140791499Y-77064855D01*
X140791500Y-77064851D01*
X140791499Y-77064846D01*
X140791342Y-77062153D01*
X140791616Y-77062136D01*
X140791467Y-77050605D01*
X140792633Y-77042501D01*
X140792633Y-77042498D01*
X140774198Y-76914276D01*
X140753023Y-76867910D01*
X140720382Y-76796437D01*
X140635549Y-76698533D01*
X140526569Y-76628496D01*
X140516066Y-76625412D01*
X140402276Y-76592000D01*
X140402272Y-76592000D01*
X140272728Y-76592000D01*
X140272723Y-76592000D01*
X140148433Y-76628495D01*
X140039450Y-76698533D01*
X139954619Y-76796436D01*
X139954618Y-76796436D01*
X139900801Y-76914276D01*
X139882639Y-77040606D01*
X139882367Y-77042500D01*
X139883532Y-77050605D01*
X139884609Y-77058096D01*
X139884879Y-77069792D01*
X139884352Y-77075230D01*
X139884301Y-77075760D01*
X139892254Y-77155288D01*
X139923286Y-77465625D01*
X139912453Y-77501529D01*
X139879404Y-77519257D01*
X139874529Y-77519500D01*
X139655141Y-77519500D01*
X139655131Y-77519501D01*
X139630007Y-77522415D01*
X139527233Y-77567794D01*
X139447794Y-77647233D01*
X139402415Y-77750006D01*
X139399500Y-77775134D01*
X139399500Y-78064858D01*
X139399501Y-78064868D01*
X139402415Y-78089992D01*
X139447794Y-78192766D01*
X139465380Y-78210352D01*
X139479732Y-78245000D01*
X139465380Y-78279648D01*
X139447794Y-78297233D01*
X139402415Y-78400006D01*
X139399500Y-78425134D01*
X139399500Y-78714858D01*
X139399501Y-78714864D01*
X139402415Y-78739993D01*
X139402415Y-78739994D01*
X139412557Y-78762963D01*
X139413423Y-78800456D01*
X139387523Y-78827579D01*
X139350030Y-78828445D01*
X139333084Y-78817402D01*
X137874852Y-77359170D01*
X137860500Y-77324522D01*
X137860500Y-74066782D01*
X137865020Y-74046227D01*
X137885525Y-74001857D01*
X138476737Y-72722532D01*
X138478350Y-72718952D01*
X138478534Y-72718533D01*
X138478537Y-72718514D01*
X138478819Y-72717641D01*
X138482264Y-72709504D01*
X138485232Y-72703954D01*
X138545300Y-72505934D01*
X138565583Y-72300000D01*
X138994417Y-72300000D01*
X139014700Y-72505934D01*
X139074767Y-72703952D01*
X139074769Y-72703956D01*
X139082785Y-72718952D01*
X139172315Y-72886450D01*
X139227683Y-72953917D01*
X139290990Y-73031058D01*
X139294983Y-73037055D01*
X139295000Y-73037045D01*
X139296323Y-73039041D01*
X139670642Y-73498406D01*
X139681403Y-73534332D01*
X139679988Y-73542034D01*
X139679501Y-73543851D01*
X139679501Y-73636147D01*
X139703384Y-73725284D01*
X139703386Y-73725289D01*
X139717172Y-73749166D01*
X139749530Y-73805212D01*
X140304788Y-74360470D01*
X140369153Y-74397631D01*
X140384712Y-74406614D01*
X140406998Y-74412585D01*
X140473853Y-74430500D01*
X140473856Y-74430500D01*
X140473857Y-74430500D01*
X140566144Y-74430500D01*
X148652339Y-74430500D01*
X148666556Y-74433326D01*
X148666753Y-74432682D01*
X148669050Y-74433382D01*
X148765588Y-74452714D01*
X149054585Y-74510588D01*
X149064350Y-74511086D01*
X149075644Y-74513004D01*
X149135228Y-74530500D01*
X149135233Y-74530500D01*
X149264772Y-74530500D01*
X149264776Y-74530499D01*
X149285324Y-74524465D01*
X149389069Y-74494004D01*
X149498049Y-74423967D01*
X149582882Y-74326063D01*
X149636697Y-74208226D01*
X149636697Y-74208224D01*
X149636698Y-74208223D01*
X149655133Y-74080002D01*
X149655133Y-74079997D01*
X149636698Y-73951776D01*
X149629297Y-73935572D01*
X149582882Y-73833937D01*
X149498049Y-73736033D01*
X149389069Y-73665996D01*
X149389066Y-73665995D01*
X149264776Y-73629500D01*
X149264772Y-73629500D01*
X149135228Y-73629500D01*
X149135223Y-73629500D01*
X149074203Y-73647418D01*
X149060463Y-73649403D01*
X149054587Y-73649410D01*
X149054584Y-73649411D01*
X148669043Y-73726619D01*
X148669039Y-73726621D01*
X148669034Y-73726621D01*
X148667302Y-73727103D01*
X148667254Y-73726931D01*
X148652490Y-73729500D01*
X140685478Y-73729500D01*
X140650830Y-73715148D01*
X140508488Y-73572806D01*
X140494136Y-73538158D01*
X140502109Y-73511367D01*
X140536381Y-73458883D01*
X140840580Y-72993040D01*
X140843708Y-72988774D01*
X140927685Y-72886450D01*
X141025232Y-72703954D01*
X141085300Y-72505934D01*
X141105583Y-72300000D01*
X141534417Y-72300000D01*
X141554700Y-72505934D01*
X141614767Y-72703952D01*
X141614769Y-72703956D01*
X141622785Y-72718952D01*
X141712315Y-72886450D01*
X141843590Y-73046410D01*
X142003550Y-73177685D01*
X142186046Y-73275232D01*
X142384066Y-73335300D01*
X142590000Y-73355583D01*
X142795934Y-73335300D01*
X142993954Y-73275232D01*
X143176450Y-73177685D01*
X143336410Y-73046410D01*
X143467685Y-72886450D01*
X143565232Y-72703954D01*
X143625300Y-72505934D01*
X143645583Y-72300000D01*
X144074417Y-72300000D01*
X144094700Y-72505934D01*
X144154767Y-72703952D01*
X144154769Y-72703956D01*
X144162785Y-72718952D01*
X144252315Y-72886450D01*
X144383590Y-73046410D01*
X144543550Y-73177685D01*
X144726046Y-73275232D01*
X144924066Y-73335300D01*
X145130000Y-73355583D01*
X145335934Y-73335300D01*
X145533954Y-73275232D01*
X145716450Y-73177685D01*
X145876410Y-73046410D01*
X146007685Y-72886450D01*
X146105232Y-72703954D01*
X146165300Y-72505934D01*
X146185583Y-72300000D01*
X146175734Y-72200000D01*
X146725251Y-72200000D01*
X147179157Y-72200000D01*
X147170000Y-72234174D01*
X147170000Y-72365826D01*
X147179157Y-72400000D01*
X146725252Y-72400000D01*
X146733745Y-72486233D01*
X146733745Y-72486234D01*
X146788066Y-72665305D01*
X146788069Y-72665312D01*
X146876285Y-72830351D01*
X146994996Y-72975000D01*
X146994999Y-72975003D01*
X147139649Y-73093714D01*
X147139648Y-73093714D01*
X147304687Y-73181930D01*
X147304694Y-73181933D01*
X147483766Y-73236254D01*
X147570000Y-73244748D01*
X147570000Y-72790842D01*
X147604174Y-72800000D01*
X147735826Y-72800000D01*
X147770000Y-72790842D01*
X147770000Y-73244747D01*
X147856233Y-73236254D01*
X147856234Y-73236254D01*
X148035305Y-73181933D01*
X148035312Y-73181930D01*
X148200351Y-73093714D01*
X148345000Y-72975003D01*
X148345003Y-72975000D01*
X148463714Y-72830351D01*
X148551930Y-72665312D01*
X148551933Y-72665305D01*
X148606254Y-72486234D01*
X148606254Y-72486233D01*
X148614748Y-72400000D01*
X148160843Y-72400000D01*
X148170000Y-72365826D01*
X148170000Y-72234174D01*
X148161267Y-72201583D01*
X151449500Y-72201583D01*
X151449500Y-72398416D01*
X151480290Y-72592823D01*
X151480291Y-72592826D01*
X151541116Y-72780026D01*
X151630472Y-72955399D01*
X151630475Y-72955403D01*
X151630476Y-72955405D01*
X151746172Y-73114646D01*
X151746174Y-73114648D01*
X151746177Y-73114652D01*
X151885347Y-73253822D01*
X151885350Y-73253824D01*
X151885354Y-73253828D01*
X152044595Y-73369524D01*
X152044597Y-73369525D01*
X152044600Y-73369527D01*
X152219973Y-73458883D01*
X152219975Y-73458884D01*
X152407174Y-73519709D01*
X152601583Y-73550500D01*
X152601584Y-73550500D01*
X152798416Y-73550500D01*
X152798417Y-73550500D01*
X152992826Y-73519709D01*
X153180025Y-73458884D01*
X153355405Y-73369524D01*
X153514646Y-73253828D01*
X153653828Y-73114646D01*
X153769524Y-72955405D01*
X153858884Y-72780025D01*
X153919709Y-72592826D01*
X153950500Y-72398417D01*
X153950500Y-72201583D01*
X153919709Y-72007174D01*
X153858884Y-71819975D01*
X153769524Y-71644595D01*
X153653828Y-71485354D01*
X153653824Y-71485350D01*
X153653822Y-71485347D01*
X153514652Y-71346177D01*
X153514653Y-71346177D01*
X153483945Y-71323866D01*
X153355405Y-71230476D01*
X153355403Y-71230475D01*
X153355399Y-71230472D01*
X153180026Y-71141116D01*
X152992826Y-71080291D01*
X152992823Y-71080290D01*
X152843482Y-71056637D01*
X152798417Y-71049500D01*
X152601583Y-71049500D01*
X152564998Y-71055294D01*
X152407176Y-71080290D01*
X152407173Y-71080291D01*
X152219973Y-71141116D01*
X152044600Y-71230472D01*
X151885347Y-71346177D01*
X151746177Y-71485347D01*
X151630472Y-71644600D01*
X151541116Y-71819973D01*
X151480291Y-72007173D01*
X151480290Y-72007176D01*
X151449500Y-72201583D01*
X148161267Y-72201583D01*
X148160843Y-72200000D01*
X148614748Y-72200000D01*
X148606254Y-72113766D01*
X148606254Y-72113765D01*
X148551933Y-71934694D01*
X148551930Y-71934687D01*
X148463714Y-71769648D01*
X148345003Y-71624999D01*
X148345000Y-71624996D01*
X148200350Y-71506285D01*
X148200351Y-71506285D01*
X148035312Y-71418069D01*
X148035305Y-71418066D01*
X147856234Y-71363745D01*
X147770000Y-71355251D01*
X147770000Y-71809157D01*
X147735826Y-71800000D01*
X147604174Y-71800000D01*
X147570000Y-71809157D01*
X147570000Y-71355251D01*
X147569999Y-71355251D01*
X147483766Y-71363745D01*
X147483764Y-71363745D01*
X147304694Y-71418066D01*
X147304687Y-71418069D01*
X147139648Y-71506285D01*
X146994999Y-71624996D01*
X146994996Y-71624999D01*
X146876285Y-71769648D01*
X146788069Y-71934687D01*
X146788066Y-71934694D01*
X146733745Y-72113765D01*
X146733745Y-72113766D01*
X146725251Y-72200000D01*
X146175734Y-72200000D01*
X146165300Y-72094066D01*
X146105232Y-71896046D01*
X146007685Y-71713550D01*
X145876410Y-71553590D01*
X145716450Y-71422315D01*
X145533954Y-71324768D01*
X145335934Y-71264700D01*
X145130000Y-71244417D01*
X144924065Y-71264700D01*
X144924064Y-71264700D01*
X144726043Y-71324769D01*
X144543548Y-71422316D01*
X144383590Y-71553590D01*
X144252316Y-71713548D01*
X144154769Y-71896043D01*
X144094700Y-72094064D01*
X144094700Y-72094065D01*
X144094700Y-72094066D01*
X144074417Y-72300000D01*
X143645583Y-72300000D01*
X143625300Y-72094066D01*
X143565232Y-71896046D01*
X143467685Y-71713550D01*
X143336410Y-71553590D01*
X143176450Y-71422315D01*
X142993954Y-71324768D01*
X142795934Y-71264700D01*
X142590000Y-71244417D01*
X142384065Y-71264700D01*
X142384064Y-71264700D01*
X142186043Y-71324769D01*
X142003548Y-71422316D01*
X141843590Y-71553590D01*
X141712316Y-71713548D01*
X141614769Y-71896043D01*
X141554700Y-72094064D01*
X141554700Y-72094065D01*
X141554700Y-72094066D01*
X141534417Y-72300000D01*
X141105583Y-72300000D01*
X141085300Y-72094066D01*
X141025232Y-71896046D01*
X140927685Y-71713550D01*
X140796410Y-71553590D01*
X140636450Y-71422315D01*
X140453954Y-71324768D01*
X140255934Y-71264700D01*
X140050000Y-71244417D01*
X139844065Y-71264700D01*
X139844064Y-71264700D01*
X139646043Y-71324769D01*
X139463548Y-71422316D01*
X139303590Y-71553590D01*
X139172316Y-71713548D01*
X139074769Y-71896043D01*
X139014700Y-72094064D01*
X139014700Y-72094065D01*
X139014700Y-72094066D01*
X138994417Y-72300000D01*
X138565583Y-72300000D01*
X138545300Y-72094066D01*
X138485232Y-71896046D01*
X138387685Y-71713550D01*
X138256410Y-71553590D01*
X138096450Y-71422315D01*
X137913954Y-71324768D01*
X137715934Y-71264700D01*
X137510000Y-71244417D01*
X137304065Y-71264700D01*
X137304064Y-71264700D01*
X137106043Y-71324769D01*
X136923548Y-71422316D01*
X136763590Y-71553590D01*
X136632316Y-71713548D01*
X136534769Y-71896043D01*
X136474700Y-72094064D01*
X136474700Y-72094065D01*
X136454417Y-72299999D01*
X136454417Y-72300000D01*
X136474700Y-72505934D01*
X136474700Y-72505935D01*
X136534767Y-72703951D01*
X136534770Y-72703960D01*
X136539130Y-72712116D01*
X136542261Y-72720336D01*
X136542473Y-72720263D01*
X136543261Y-72722529D01*
X136543262Y-72722532D01*
X137111331Y-73951776D01*
X137154980Y-74046227D01*
X137159500Y-74066783D01*
X137159500Y-77235522D01*
X137145148Y-77270170D01*
X137110500Y-77284522D01*
X137075852Y-77270170D01*
X136504852Y-76699170D01*
X136490500Y-76664522D01*
X136490500Y-74723853D01*
X136466614Y-74634713D01*
X136466614Y-74634712D01*
X136446284Y-74599500D01*
X136420470Y-74554788D01*
X135614848Y-73749166D01*
X135600496Y-73714518D01*
X135603164Y-73698569D01*
X135639372Y-73593386D01*
X135946026Y-72702570D01*
X135946026Y-72702564D01*
X135946556Y-72700412D01*
X135946589Y-72700420D01*
X135947423Y-72696727D01*
X136005300Y-72505934D01*
X136025583Y-72300000D01*
X136005300Y-72094066D01*
X135945232Y-71896046D01*
X135847685Y-71713550D01*
X135716410Y-71553590D01*
X135556450Y-71422315D01*
X135373954Y-71324768D01*
X135175934Y-71264700D01*
X134970000Y-71244417D01*
X134764065Y-71264700D01*
X134764064Y-71264700D01*
X134566043Y-71324769D01*
X134383548Y-71422316D01*
X134223590Y-71553590D01*
X134092316Y-71713548D01*
X133994769Y-71896043D01*
X133934700Y-72094064D01*
X133934700Y-72094065D01*
X133934700Y-72094066D01*
X133914417Y-72300000D01*
X133934700Y-72505934D01*
X133994767Y-72703952D01*
X133994769Y-72703956D01*
X134092316Y-72886453D01*
X134147697Y-72953933D01*
X134201685Y-73019718D01*
X134206029Y-73026722D01*
X134206353Y-73026536D01*
X134207553Y-73028620D01*
X134538867Y-73492001D01*
X134547344Y-73528533D01*
X134527506Y-73560360D01*
X134499007Y-73569500D01*
X133428123Y-73569500D01*
X133393475Y-73555148D01*
X133379123Y-73520500D01*
X133379311Y-73516206D01*
X133401504Y-73263904D01*
X133483591Y-72330721D01*
X133484179Y-72321816D01*
X133484224Y-72320801D01*
X133484222Y-72320794D01*
X133484209Y-72320571D01*
X133484342Y-72312596D01*
X133485583Y-72300000D01*
X133465300Y-72094066D01*
X133405232Y-71896046D01*
X133307685Y-71713550D01*
X133176410Y-71553590D01*
X133016450Y-71422315D01*
X132833954Y-71324768D01*
X132635934Y-71264700D01*
X132430000Y-71244417D01*
X132224065Y-71264700D01*
X132224064Y-71264700D01*
X132026043Y-71324769D01*
X131843548Y-71422316D01*
X131683590Y-71553590D01*
X131552316Y-71713548D01*
X131454769Y-71896043D01*
X131394700Y-72094064D01*
X131394700Y-72094065D01*
X131394700Y-72094066D01*
X131374417Y-72300000D01*
X131027850Y-72300000D01*
X131027850Y-72299999D01*
X130870355Y-71908961D01*
X130869846Y-71907709D01*
X130869773Y-71907532D01*
X130869772Y-71907529D01*
X130869769Y-71907524D01*
X130869537Y-71907087D01*
X130865926Y-71898334D01*
X130865232Y-71896046D01*
X130767685Y-71713550D01*
X130636410Y-71553590D01*
X130476450Y-71422315D01*
X130293954Y-71324768D01*
X130095934Y-71264700D01*
X129890000Y-71244417D01*
X129684065Y-71264700D01*
X129684064Y-71264700D01*
X129486043Y-71324769D01*
X129303548Y-71422316D01*
X129143590Y-71553590D01*
X129012316Y-71713548D01*
X128914769Y-71896043D01*
X128854700Y-72094064D01*
X128854700Y-72094065D01*
X128854700Y-72094066D01*
X128834417Y-72300000D01*
X128854700Y-72505934D01*
X128914767Y-72703952D01*
X128914769Y-72703956D01*
X128922785Y-72718952D01*
X129012315Y-72886450D01*
X129143590Y-73046410D01*
X129303550Y-73177685D01*
X129464853Y-73263904D01*
X129486048Y-73275233D01*
X129486051Y-73275234D01*
X129489016Y-73276133D01*
X129497478Y-73279589D01*
X129498888Y-73280324D01*
X129498892Y-73280327D01*
X130802104Y-73805212D01*
X130837562Y-73819493D01*
X130853904Y-73830297D01*
X134197648Y-77174040D01*
X134212000Y-77208688D01*
X134212000Y-77470500D01*
X134197648Y-77505148D01*
X134163000Y-77519500D01*
X133237270Y-77519500D01*
X133135412Y-77546792D01*
X133135410Y-77546793D01*
X133044086Y-77599520D01*
X133044085Y-77599521D01*
X132724204Y-77919401D01*
X132712592Y-77928001D01*
X132703809Y-77932679D01*
X132339209Y-78230986D01*
X132334680Y-78234278D01*
X132331950Y-78236032D01*
X132331946Y-78236036D01*
X132331110Y-78237001D01*
X132326078Y-78242017D01*
X132325510Y-78242505D01*
X132324668Y-78243265D01*
X132321478Y-78247765D01*
X132318540Y-78251509D01*
X132247119Y-78333936D01*
X132247118Y-78333936D01*
X132193301Y-78451776D01*
X132174867Y-78579997D01*
X132174867Y-78580002D01*
X132193301Y-78708223D01*
X132247118Y-78826063D01*
X132310886Y-78899657D01*
X132331951Y-78923967D01*
X132440931Y-78994004D01*
X132510093Y-79014311D01*
X132565223Y-79030499D01*
X132565228Y-79030500D01*
X132694772Y-79030500D01*
X132694776Y-79030499D01*
X132715324Y-79024465D01*
X132819069Y-78994004D01*
X132928049Y-78923967D01*
X132953203Y-78894936D01*
X132959091Y-78889196D01*
X132962226Y-78886615D01*
X132973978Y-78876942D01*
X133277318Y-78506194D01*
X133283279Y-78495642D01*
X133291287Y-78485104D01*
X133441541Y-78334852D01*
X133476189Y-78320500D01*
X133637322Y-78320500D01*
X133671970Y-78334852D01*
X133686322Y-78369500D01*
X133682146Y-78389294D01*
X133677415Y-78400006D01*
X133674500Y-78425134D01*
X133674500Y-78714858D01*
X133674501Y-78714864D01*
X133677415Y-78739992D01*
X133722794Y-78842766D01*
X133740380Y-78860352D01*
X133754732Y-78895000D01*
X133740380Y-78929648D01*
X133722794Y-78947233D01*
X133677415Y-79050006D01*
X133674500Y-79075134D01*
X133674500Y-79364858D01*
X133674501Y-79364868D01*
X133677415Y-79389992D01*
X133722794Y-79492766D01*
X133740380Y-79510352D01*
X133754732Y-79545000D01*
X133740380Y-79579648D01*
X133722794Y-79597233D01*
X133677415Y-79700006D01*
X133674500Y-79725134D01*
X133674500Y-80014858D01*
X133674501Y-80014868D01*
X133677415Y-80039992D01*
X133722794Y-80142766D01*
X133740380Y-80160352D01*
X133754732Y-80195000D01*
X133740380Y-80229648D01*
X133740379Y-80229650D01*
X133729439Y-80240589D01*
X133694790Y-80254939D01*
X133660142Y-80240586D01*
X133657774Y-80238043D01*
X133578049Y-80146033D01*
X133469069Y-80075996D01*
X133469066Y-80075995D01*
X133344776Y-80039500D01*
X133344772Y-80039500D01*
X133276935Y-80039500D01*
X133272203Y-80039271D01*
X133246743Y-80036801D01*
X133246741Y-80036801D01*
X133246739Y-80036801D01*
X133227091Y-80038765D01*
X133222178Y-80039257D01*
X133217303Y-80039500D01*
X133215228Y-80039500D01*
X133215225Y-80039500D01*
X133211765Y-80039998D01*
X133211761Y-80039975D01*
X133208355Y-80040638D01*
X132770087Y-80084465D01*
X132761934Y-80086732D01*
X132758415Y-80087710D01*
X132745293Y-80089500D01*
X132130804Y-80089500D01*
X132107629Y-80083673D01*
X131368457Y-79686889D01*
X131362536Y-79683142D01*
X131357883Y-79679708D01*
X131357882Y-79679707D01*
X131357880Y-79679706D01*
X131353434Y-79678150D01*
X131346446Y-79675073D01*
X131343886Y-79673698D01*
X131343868Y-79673689D01*
X131318623Y-79662258D01*
X131315679Y-79661157D01*
X131300433Y-79656129D01*
X131300434Y-79656129D01*
X131295564Y-79655860D01*
X131282091Y-79653186D01*
X131229699Y-79634854D01*
X131229697Y-79634853D01*
X131229695Y-79634853D01*
X131199275Y-79632000D01*
X131199266Y-79632000D01*
X129240734Y-79632000D01*
X129240724Y-79632000D01*
X129210304Y-79634853D01*
X129119182Y-79666737D01*
X129117530Y-79667282D01*
X129095257Y-79674197D01*
X129095252Y-79674199D01*
X129093988Y-79674886D01*
X129086814Y-79678063D01*
X129082119Y-79679706D01*
X129076524Y-79683835D01*
X129070811Y-79687469D01*
X128332036Y-80088563D01*
X128308656Y-80094500D01*
X127758093Y-80094500D01*
X127743620Y-80092314D01*
X127741791Y-80091748D01*
X127254887Y-79992223D01*
X127180234Y-79976963D01*
X127170235Y-79973466D01*
X127168125Y-79972780D01*
X127084268Y-79959499D01*
X127068488Y-79957000D01*
X126251512Y-79957000D01*
X126151874Y-79972781D01*
X126151872Y-79972781D01*
X126151870Y-79972782D01*
X126031786Y-80033967D01*
X126031779Y-80033972D01*
X125936472Y-80129279D01*
X125936467Y-80129286D01*
X125875282Y-80249370D01*
X125875281Y-80249372D01*
X125875281Y-80249374D01*
X125859500Y-80349012D01*
X125859500Y-80865988D01*
X125875281Y-80965626D01*
X125875281Y-80965627D01*
X125875282Y-80965629D01*
X125936467Y-81085713D01*
X125936472Y-81085720D01*
X126031780Y-81181028D01*
X126044766Y-81187644D01*
X126065677Y-81208097D01*
X126217099Y-81489692D01*
X126253656Y-81557677D01*
X126259500Y-81580883D01*
X126259500Y-83172730D01*
X126286792Y-83274587D01*
X126286793Y-83274589D01*
X126339520Y-83365913D01*
X126827804Y-83854196D01*
X126827809Y-83854202D01*
X126829520Y-83855913D01*
X126904087Y-83930480D01*
X126970437Y-83968787D01*
X126995413Y-83983207D01*
X127029366Y-83992305D01*
X127097271Y-84010501D01*
X127097273Y-84010501D01*
X127137181Y-84010501D01*
X127160171Y-84016229D01*
X128034833Y-84480925D01*
X128041670Y-84485321D01*
X128044767Y-84487698D01*
X128055366Y-84492088D01*
X128059603Y-84494086D01*
X128086665Y-84508463D01*
X128087689Y-84509007D01*
X128131200Y-84526102D01*
X128136312Y-84527464D01*
X128138026Y-84527765D01*
X128138771Y-84527897D01*
X128149031Y-84530885D01*
X128184764Y-84545687D01*
X128297280Y-84560500D01*
X128297284Y-84560500D01*
X129622716Y-84560500D01*
X129622720Y-84560500D01*
X129735236Y-84545687D01*
X129875233Y-84487698D01*
X129968998Y-84415748D01*
X129977413Y-84410552D01*
X129981174Y-84408725D01*
X130511974Y-84006408D01*
X130528886Y-83998131D01*
X130584588Y-83983207D01*
X130675913Y-83930480D01*
X130790212Y-83816179D01*
X130824858Y-83801829D01*
X130849999Y-83808771D01*
X130899259Y-83838220D01*
X131048736Y-83927581D01*
X131053582Y-83931358D01*
X131053655Y-83931258D01*
X131056778Y-83933526D01*
X131056780Y-83933528D01*
X131068206Y-83939349D01*
X131071075Y-83940935D01*
X131086020Y-83949870D01*
X131104709Y-83961044D01*
X131104738Y-83961061D01*
X131107684Y-83962822D01*
X131109563Y-83963945D01*
X131137081Y-83974709D01*
X131141477Y-83976683D01*
X131176874Y-83994719D01*
X131276512Y-84010500D01*
X131276514Y-84010500D01*
X131843486Y-84010500D01*
X131843488Y-84010500D01*
X131943126Y-83994719D01*
X132009150Y-83961078D01*
X132063213Y-83933532D01*
X132063215Y-83933530D01*
X132063220Y-83933528D01*
X132158528Y-83838220D01*
X132169758Y-83816181D01*
X132219717Y-83718129D01*
X132219719Y-83718126D01*
X132235500Y-83618488D01*
X132235500Y-83101512D01*
X132219719Y-83001874D01*
X132211429Y-82985604D01*
X132158532Y-82881786D01*
X132158527Y-82881779D01*
X132063220Y-82786472D01*
X132063213Y-82786467D01*
X131943129Y-82725282D01*
X131943127Y-82725281D01*
X131943126Y-82725281D01*
X131843488Y-82709500D01*
X131276512Y-82709500D01*
X131267098Y-82710991D01*
X131176874Y-82725280D01*
X131154600Y-82736629D01*
X131143390Y-82740710D01*
X131131063Y-82743558D01*
X131131062Y-82743559D01*
X130661628Y-82955171D01*
X130641491Y-82959500D01*
X130627270Y-82959500D01*
X130525417Y-82986791D01*
X130525413Y-82986793D01*
X130480589Y-83012671D01*
X130443407Y-83017565D01*
X130434038Y-83013992D01*
X129877399Y-82733460D01*
X129874906Y-82732112D01*
X129874903Y-82732110D01*
X129872879Y-82731181D01*
X129828308Y-82708719D01*
X129828303Y-82708717D01*
X129828299Y-82708715D01*
X129786458Y-82693065D01*
X129786453Y-82693063D01*
X129786451Y-82693063D01*
X129781570Y-82691822D01*
X129781569Y-82691821D01*
X129781562Y-82691820D01*
X129781554Y-82691818D01*
X129781551Y-82691818D01*
X129780110Y-82691573D01*
X129769576Y-82688537D01*
X129735235Y-82674312D01*
X129657894Y-82664130D01*
X129622720Y-82659500D01*
X128297280Y-82659500D01*
X128265425Y-82663693D01*
X128184764Y-82674312D01*
X128121063Y-82700698D01*
X128116421Y-82702353D01*
X128087691Y-82710991D01*
X128087687Y-82710993D01*
X128059597Y-82725916D01*
X128055362Y-82727913D01*
X128044768Y-82732301D01*
X128041669Y-82734679D01*
X128034835Y-82739072D01*
X127290130Y-83134723D01*
X127252798Y-83138305D01*
X127232492Y-83126099D01*
X127074852Y-82968459D01*
X127060500Y-82933811D01*
X127060500Y-81939694D01*
X133775000Y-81939694D01*
X133786604Y-81998036D01*
X133830807Y-82064192D01*
X133896963Y-82108395D01*
X133955305Y-82120000D01*
X134512500Y-82120000D01*
X134712500Y-82120000D01*
X135269695Y-82120000D01*
X135328036Y-82108395D01*
X135394192Y-82064192D01*
X135438395Y-81998036D01*
X135450000Y-81939694D01*
X135450000Y-81920000D01*
X134712500Y-81920000D01*
X134712500Y-82120000D01*
X134512500Y-82120000D01*
X134512500Y-81920000D01*
X133775000Y-81920000D01*
X133775000Y-81939694D01*
X127060500Y-81939694D01*
X127060500Y-81580882D01*
X127066343Y-81557677D01*
X127254321Y-81208096D01*
X127275231Y-81187645D01*
X127288220Y-81181028D01*
X127294774Y-81174472D01*
X127304884Y-81166707D01*
X127685419Y-80946613D01*
X127762408Y-80902084D01*
X127786941Y-80895500D01*
X128308660Y-80895500D01*
X128332039Y-80901437D01*
X128523564Y-81005419D01*
X129070803Y-81302524D01*
X129076521Y-81306162D01*
X129082115Y-81310291D01*
X129082118Y-81310293D01*
X129086806Y-81311933D01*
X129094008Y-81315123D01*
X129095251Y-81315798D01*
X129095265Y-81315805D01*
X129120846Y-81327502D01*
X129120849Y-81327503D01*
X129123840Y-81328630D01*
X129139614Y-81333855D01*
X129144361Y-81334116D01*
X129157849Y-81336792D01*
X129210297Y-81355145D01*
X129210298Y-81355145D01*
X129210301Y-81355146D01*
X129240734Y-81358000D01*
X129240744Y-81358000D01*
X131199256Y-81358000D01*
X131199266Y-81358000D01*
X131229699Y-81355146D01*
X131324381Y-81322014D01*
X131325743Y-81321561D01*
X131345609Y-81315291D01*
X131345613Y-81315288D01*
X131345836Y-81315193D01*
X131352975Y-81312009D01*
X131357882Y-81310293D01*
X131364450Y-81305444D01*
X131369962Y-81301918D01*
X132108294Y-80896547D01*
X132131876Y-80890500D01*
X132746279Y-80890500D01*
X132760572Y-80892631D01*
X132770088Y-80895533D01*
X133208343Y-80939357D01*
X133211752Y-80940023D01*
X133211756Y-80940000D01*
X133215225Y-80940499D01*
X133215228Y-80940500D01*
X133217313Y-80940500D01*
X133222188Y-80940743D01*
X133224644Y-80940988D01*
X133246739Y-80943198D01*
X133252970Y-80943671D01*
X133256539Y-80943943D01*
X133257205Y-80943977D01*
X133257648Y-80944000D01*
X133269271Y-80942023D01*
X133274158Y-80941193D01*
X133282370Y-80940500D01*
X133344772Y-80940500D01*
X133344776Y-80940499D01*
X133365324Y-80934465D01*
X133469069Y-80904004D01*
X133578049Y-80833967D01*
X133582091Y-80829303D01*
X133635356Y-80767830D01*
X133668891Y-80751042D01*
X133704475Y-80762885D01*
X133717213Y-80780125D01*
X133722794Y-80792766D01*
X133740380Y-80810352D01*
X133754732Y-80845000D01*
X133740380Y-80879648D01*
X133722794Y-80897233D01*
X133677415Y-81000006D01*
X133674500Y-81025134D01*
X133674500Y-81314858D01*
X133674501Y-81314868D01*
X133677415Y-81339992D01*
X133722794Y-81442766D01*
X133802230Y-81522202D01*
X133802233Y-81522204D01*
X133802235Y-81522206D01*
X133802237Y-81522207D01*
X133805979Y-81524770D01*
X133804556Y-81526847D01*
X133824489Y-81547691D01*
X133823652Y-81585184D01*
X133819554Y-81592649D01*
X133786604Y-81641962D01*
X133775000Y-81700305D01*
X133775000Y-81720000D01*
X135450000Y-81720000D01*
X135450000Y-81700305D01*
X135438395Y-81641964D01*
X135405445Y-81592650D01*
X135398129Y-81555868D01*
X135418964Y-81524685D01*
X135419877Y-81524184D01*
X135422765Y-81522206D01*
X135475852Y-81469119D01*
X135510500Y-81454767D01*
X135545148Y-81469119D01*
X135559500Y-81503767D01*
X135559500Y-83496145D01*
X135577610Y-83563731D01*
X135577610Y-83563732D01*
X135583385Y-83585287D01*
X135583386Y-83585290D01*
X135629530Y-83665212D01*
X135965148Y-84000830D01*
X135979500Y-84035478D01*
X135979500Y-84850191D01*
X135976725Y-84866447D01*
X135975130Y-84870980D01*
X135952384Y-85030200D01*
X135952093Y-85032910D01*
X135944118Y-85054885D01*
X135929329Y-85077019D01*
X135927908Y-85079146D01*
X135917000Y-85133984D01*
X135917000Y-85346016D01*
X135925036Y-85386414D01*
X135927908Y-85400854D01*
X135969283Y-85462777D01*
X135976599Y-85499560D01*
X135969283Y-85517223D01*
X135927908Y-85579145D01*
X135927908Y-85579146D01*
X135917000Y-85633984D01*
X135917000Y-85846016D01*
X135925239Y-85887436D01*
X135927908Y-85900854D01*
X135969283Y-85962777D01*
X135976599Y-85999560D01*
X135969283Y-86017223D01*
X135927908Y-86079145D01*
X135927908Y-86079146D01*
X135917000Y-86133984D01*
X135917000Y-86346016D01*
X135927908Y-86400853D01*
X135927908Y-86400854D01*
X135969283Y-86462777D01*
X135976599Y-86499560D01*
X135969283Y-86517223D01*
X135927908Y-86579145D01*
X135927908Y-86579146D01*
X135917000Y-86633984D01*
X135917000Y-86846016D01*
X135927908Y-86900854D01*
X135939944Y-86918867D01*
X135947259Y-86955649D01*
X135947247Y-86955710D01*
X135899167Y-87195804D01*
X135895695Y-87206534D01*
X135893302Y-87211775D01*
X135874867Y-87339997D01*
X135874867Y-87340002D01*
X135893301Y-87468223D01*
X135947118Y-87586063D01*
X136022062Y-87672555D01*
X136031951Y-87683967D01*
X136140931Y-87754004D01*
X136177489Y-87764738D01*
X136265223Y-87790499D01*
X136265228Y-87790500D01*
X136394772Y-87790500D01*
X136394776Y-87790499D01*
X136415324Y-87784465D01*
X136519069Y-87754004D01*
X136566509Y-87723515D01*
X136603416Y-87716858D01*
X136634222Y-87738247D01*
X136642000Y-87764738D01*
X136642000Y-88838289D01*
X136630033Y-88870376D01*
X136609618Y-88893936D01*
X136555801Y-89011776D01*
X136537367Y-89139997D01*
X136537367Y-89140002D01*
X136555801Y-89268223D01*
X136567705Y-89294288D01*
X136609618Y-89386063D01*
X136609619Y-89386064D01*
X136609620Y-89386066D01*
X136630031Y-89409621D01*
X136642000Y-89441710D01*
X136642000Y-90018645D01*
X136656175Y-90071546D01*
X136656175Y-90071547D01*
X136665885Y-90107785D01*
X136665886Y-90107789D01*
X136712030Y-90187712D01*
X136777839Y-90253521D01*
X136789485Y-90272110D01*
X137004099Y-90890790D01*
X137001936Y-90928143D01*
X136554691Y-91855043D01*
X136545208Y-91868397D01*
X136068459Y-92345148D01*
X136033811Y-92359500D01*
X131713293Y-92359500D01*
X131678645Y-92345148D01*
X131664293Y-92310500D01*
X131678645Y-92275852D01*
X131692610Y-92267294D01*
X131692190Y-92266470D01*
X131815713Y-92203532D01*
X131815715Y-92203530D01*
X131815720Y-92203528D01*
X131911028Y-92108220D01*
X131972219Y-91988126D01*
X131980123Y-91938221D01*
X134162501Y-91938221D01*
X134172411Y-92006248D01*
X134172411Y-92006249D01*
X134223712Y-92111186D01*
X134223715Y-92111190D01*
X134306309Y-92193784D01*
X134306313Y-92193786D01*
X134411251Y-92245087D01*
X134479279Y-92254999D01*
X134824999Y-92254999D01*
X135025000Y-92254999D01*
X135370721Y-92254999D01*
X135438748Y-92245088D01*
X135438749Y-92245088D01*
X135543686Y-92193787D01*
X135543690Y-92193784D01*
X135626284Y-92111190D01*
X135626286Y-92111186D01*
X135677587Y-92006249D01*
X135677587Y-92006248D01*
X135687500Y-91938220D01*
X135687500Y-91080000D01*
X135025000Y-91080000D01*
X135025000Y-92254999D01*
X134824999Y-92254999D01*
X134825000Y-92254998D01*
X134825000Y-91080000D01*
X134162501Y-91080000D01*
X134162501Y-91938221D01*
X131980123Y-91938221D01*
X131988000Y-91888488D01*
X131988000Y-91071512D01*
X131972219Y-90971874D01*
X131949937Y-90928143D01*
X131911032Y-90851786D01*
X131911027Y-90851779D01*
X131815720Y-90756472D01*
X131815713Y-90756467D01*
X131695629Y-90695282D01*
X131695627Y-90695281D01*
X131695626Y-90695281D01*
X131595988Y-90679500D01*
X131595986Y-90679500D01*
X131440209Y-90679500D01*
X131419854Y-90675072D01*
X130939145Y-90455540D01*
X130913589Y-90428092D01*
X130910500Y-90410968D01*
X130910500Y-90021779D01*
X134162500Y-90021779D01*
X134162500Y-90880000D01*
X134825000Y-90880000D01*
X135025000Y-90880000D01*
X135687499Y-90880000D01*
X135687499Y-90021778D01*
X135677588Y-89953751D01*
X135677588Y-89953750D01*
X135626287Y-89848813D01*
X135626284Y-89848809D01*
X135543690Y-89766215D01*
X135543686Y-89766213D01*
X135438748Y-89714912D01*
X135370721Y-89705000D01*
X135025000Y-89705000D01*
X135025000Y-90880000D01*
X134825000Y-90880000D01*
X134825000Y-89705000D01*
X134479278Y-89705000D01*
X134411251Y-89714911D01*
X134411250Y-89714911D01*
X134306313Y-89766212D01*
X134306309Y-89766215D01*
X134223715Y-89848809D01*
X134223713Y-89848813D01*
X134172412Y-89953750D01*
X134172412Y-89953751D01*
X134162500Y-90021779D01*
X130910500Y-90021779D01*
X130910500Y-89238310D01*
X130924852Y-89203662D01*
X130959500Y-89189310D01*
X130994148Y-89203662D01*
X131003909Y-89217602D01*
X131039668Y-89294288D01*
X131039669Y-89294290D01*
X131120709Y-89375330D01*
X131120711Y-89375331D01*
X131224584Y-89423768D01*
X131271918Y-89429999D01*
X131459999Y-89429999D01*
X131660000Y-89429999D01*
X131848080Y-89429999D01*
X131848085Y-89429998D01*
X131895414Y-89423769D01*
X131999288Y-89375331D01*
X131999290Y-89375330D01*
X132080330Y-89294290D01*
X132080331Y-89294288D01*
X132128768Y-89190415D01*
X132135000Y-89143081D01*
X132135000Y-88980000D01*
X131660000Y-88980000D01*
X131660000Y-89429999D01*
X131459999Y-89429999D01*
X131460000Y-89429998D01*
X131460000Y-88780000D01*
X131660000Y-88780000D01*
X132134999Y-88780000D01*
X132134999Y-88616919D01*
X132134998Y-88616914D01*
X132128769Y-88569585D01*
X132080331Y-88465711D01*
X132080330Y-88465709D01*
X131999290Y-88384669D01*
X131999288Y-88384668D01*
X131895415Y-88336231D01*
X131848081Y-88330000D01*
X131660000Y-88330000D01*
X131660000Y-88780000D01*
X131460000Y-88780000D01*
X131460000Y-88330000D01*
X131347633Y-88330000D01*
X131312985Y-88315648D01*
X131298633Y-88281000D01*
X131312985Y-88246352D01*
X131324576Y-88237764D01*
X131796325Y-87986260D01*
X131819377Y-87980500D01*
X131843486Y-87980500D01*
X131843488Y-87980500D01*
X131943126Y-87964719D01*
X132005699Y-87932836D01*
X132063213Y-87903532D01*
X132063215Y-87903530D01*
X132063220Y-87903528D01*
X132158528Y-87808220D01*
X132163651Y-87798167D01*
X132196856Y-87732997D01*
X132219719Y-87688126D01*
X132235500Y-87588488D01*
X132235500Y-87071512D01*
X132219719Y-86971874D01*
X132184116Y-86901999D01*
X132158532Y-86851786D01*
X132156264Y-86848665D01*
X132156314Y-86848628D01*
X132150021Y-86840030D01*
X132149009Y-86838078D01*
X132043218Y-86633987D01*
X131965997Y-86485013D01*
X131960500Y-86462463D01*
X131960500Y-86457270D01*
X131948741Y-86413386D01*
X131933207Y-86355412D01*
X131933206Y-86355410D01*
X131880479Y-86264086D01*
X131807483Y-86191090D01*
X131804042Y-86187268D01*
X131803327Y-86186384D01*
X131801202Y-86184390D01*
X131798510Y-86182117D01*
X131205913Y-85589520D01*
X131114589Y-85536793D01*
X131114587Y-85536792D01*
X131012730Y-85509500D01*
X131012727Y-85509500D01*
X130782823Y-85509500D01*
X130759833Y-85503772D01*
X130137406Y-85173085D01*
X130985001Y-85173085D01*
X130991230Y-85220414D01*
X131039668Y-85324288D01*
X131039669Y-85324290D01*
X131120709Y-85405330D01*
X131120711Y-85405331D01*
X131224584Y-85453768D01*
X131271918Y-85459999D01*
X131459999Y-85459999D01*
X131660000Y-85459999D01*
X131848080Y-85459999D01*
X131848085Y-85459998D01*
X131895414Y-85453769D01*
X131999288Y-85405331D01*
X131999290Y-85405330D01*
X132080330Y-85324290D01*
X132080331Y-85324288D01*
X132128768Y-85220415D01*
X132135000Y-85173081D01*
X132135000Y-85010000D01*
X131660000Y-85010000D01*
X131660000Y-85459999D01*
X131459999Y-85459999D01*
X131460000Y-85459998D01*
X131460000Y-85010000D01*
X130985001Y-85010000D01*
X130985001Y-85173085D01*
X130137406Y-85173085D01*
X129885167Y-85039074D01*
X129878329Y-85034677D01*
X129875237Y-85032304D01*
X129875228Y-85032299D01*
X129864633Y-85027911D01*
X129860399Y-85025915D01*
X129832310Y-85010992D01*
X129832304Y-85010989D01*
X129832301Y-85010988D01*
X129832298Y-85010986D01*
X129788799Y-84993897D01*
X129788795Y-84993895D01*
X129783693Y-84992536D01*
X129781208Y-84992098D01*
X129770965Y-84989112D01*
X129735235Y-84974312D01*
X129657894Y-84964130D01*
X129622720Y-84959500D01*
X128297280Y-84959500D01*
X128265425Y-84963693D01*
X128184764Y-84974312D01*
X128121063Y-85000698D01*
X128116421Y-85002353D01*
X128087691Y-85010991D01*
X128087687Y-85010993D01*
X128059597Y-85025916D01*
X128055362Y-85027913D01*
X128044768Y-85032301D01*
X128041669Y-85034679D01*
X128034835Y-85039072D01*
X127160167Y-85503772D01*
X127137177Y-85509500D01*
X124755526Y-85509500D01*
X124724916Y-85498763D01*
X123878890Y-84821942D01*
X123860800Y-84789090D01*
X123860500Y-84783679D01*
X123860500Y-84646918D01*
X130985000Y-84646918D01*
X130985000Y-84810000D01*
X131460000Y-84810000D01*
X131660000Y-84810000D01*
X132134999Y-84810000D01*
X132134999Y-84646919D01*
X132134998Y-84646914D01*
X132128769Y-84599585D01*
X132080331Y-84495711D01*
X132080330Y-84495709D01*
X131999290Y-84414669D01*
X131999288Y-84414668D01*
X131895415Y-84366231D01*
X131848081Y-84360000D01*
X131660000Y-84360000D01*
X131660000Y-84810000D01*
X131460000Y-84810000D01*
X131460000Y-84360000D01*
X131271919Y-84360000D01*
X131271914Y-84360001D01*
X131224585Y-84366230D01*
X131120711Y-84414668D01*
X131120709Y-84414669D01*
X131039669Y-84495709D01*
X131039668Y-84495711D01*
X130991231Y-84599584D01*
X130985000Y-84646918D01*
X123860500Y-84646918D01*
X123860500Y-84453389D01*
X123857080Y-84415753D01*
X123854086Y-84382804D01*
X123854085Y-84382801D01*
X123854085Y-84382798D01*
X123803479Y-84220396D01*
X123803479Y-84220395D01*
X123777764Y-84177859D01*
X123777351Y-84177164D01*
X123759204Y-84145996D01*
X123105227Y-83022767D01*
X123100198Y-82985604D01*
X123112924Y-82963467D01*
X123380480Y-82695913D01*
X123416960Y-82632727D01*
X123433207Y-82604587D01*
X123460499Y-82502730D01*
X123460500Y-82502730D01*
X123460500Y-81907209D01*
X123469322Y-81879160D01*
X123818524Y-81378951D01*
X123850125Y-81358756D01*
X123858702Y-81358000D01*
X124039256Y-81358000D01*
X124039266Y-81358000D01*
X124069699Y-81355146D01*
X124197882Y-81310293D01*
X124203480Y-81306162D01*
X124307150Y-81229650D01*
X124387791Y-81120385D01*
X124387791Y-81120384D01*
X124387793Y-81120382D01*
X124432646Y-80992199D01*
X124435500Y-80961766D01*
X124435500Y-80028234D01*
X124432646Y-79997801D01*
X124415693Y-79949353D01*
X124387795Y-79869623D01*
X124387791Y-79869614D01*
X124307150Y-79760349D01*
X124197885Y-79679708D01*
X124197876Y-79679704D01*
X124069698Y-79634853D01*
X124039275Y-79632000D01*
X124039266Y-79632000D01*
X122080734Y-79632000D01*
X122080724Y-79632000D01*
X122050301Y-79634853D01*
X122050300Y-79634853D01*
X121922123Y-79679704D01*
X121922114Y-79679708D01*
X121812849Y-79760349D01*
X121732208Y-79869614D01*
X121732204Y-79869623D01*
X121687353Y-79997800D01*
X121687353Y-79997801D01*
X121684500Y-80028224D01*
X121684500Y-80961775D01*
X121687353Y-80992198D01*
X121687353Y-80992199D01*
X121732204Y-81120376D01*
X121732208Y-81120385D01*
X121812849Y-81229650D01*
X121922114Y-81310291D01*
X121922117Y-81310292D01*
X121922118Y-81310293D01*
X121922120Y-81310293D01*
X121922123Y-81310295D01*
X121990200Y-81334116D01*
X122050301Y-81355146D01*
X122080734Y-81358000D01*
X122261297Y-81358000D01*
X122295945Y-81372352D01*
X122301475Y-81378951D01*
X122650678Y-81879160D01*
X122659500Y-81907209D01*
X122659500Y-82263811D01*
X122645148Y-82298459D01*
X122339521Y-82604086D01*
X122339520Y-82604086D01*
X122286793Y-82695410D01*
X122286792Y-82695412D01*
X122273892Y-82743559D01*
X122262394Y-82786472D01*
X122261246Y-82790756D01*
X122259500Y-82797272D01*
X122259500Y-82932719D01*
X122252845Y-82957374D01*
X121542649Y-84177158D01*
X121542238Y-84177851D01*
X121516521Y-84220395D01*
X121514189Y-84227878D01*
X121511422Y-84234833D01*
X121511044Y-84235604D01*
X121511040Y-84235612D01*
X121509797Y-84238687D01*
X121503861Y-84255405D01*
X121503860Y-84255407D01*
X121503731Y-84257163D01*
X121501647Y-84268125D01*
X121465914Y-84382802D01*
X121465914Y-84382804D01*
X121459500Y-84453384D01*
X120500500Y-84453384D01*
X120500500Y-77865721D01*
X121785001Y-77865721D01*
X121794911Y-77933748D01*
X121794911Y-77933749D01*
X121846212Y-78038686D01*
X121846215Y-78038690D01*
X121928809Y-78121284D01*
X121928813Y-78121286D01*
X122033751Y-78172587D01*
X122101779Y-78182499D01*
X122959999Y-78182499D01*
X123160000Y-78182499D01*
X124018221Y-78182499D01*
X124086248Y-78172588D01*
X124086249Y-78172588D01*
X124191186Y-78121287D01*
X124191190Y-78121284D01*
X124273784Y-78038690D01*
X124273786Y-78038686D01*
X124325087Y-77933749D01*
X124325087Y-77933748D01*
X124335000Y-77865720D01*
X124335000Y-77520000D01*
X123160000Y-77520000D01*
X123160000Y-78182499D01*
X122959999Y-78182499D01*
X122960000Y-78182498D01*
X122960000Y-77520000D01*
X121785001Y-77520000D01*
X121785001Y-77865721D01*
X120500500Y-77865721D01*
X120500500Y-76974279D01*
X121785000Y-76974279D01*
X121785000Y-77320000D01*
X122960000Y-77320000D01*
X123160000Y-77320000D01*
X124334999Y-77320000D01*
X124334999Y-77049012D01*
X125859500Y-77049012D01*
X125859500Y-77565988D01*
X125875281Y-77665626D01*
X125875281Y-77665627D01*
X125875282Y-77665629D01*
X125936467Y-77785713D01*
X125936472Y-77785720D01*
X126031779Y-77881027D01*
X126031786Y-77881032D01*
X126151870Y-77942217D01*
X126151874Y-77942219D01*
X126251512Y-77958000D01*
X126251514Y-77958000D01*
X127068486Y-77958000D01*
X127068488Y-77958000D01*
X127168126Y-77942219D01*
X127257831Y-77896512D01*
X127288213Y-77881032D01*
X127288215Y-77881030D01*
X127288220Y-77881028D01*
X127303527Y-77865721D01*
X128945001Y-77865721D01*
X128954911Y-77933748D01*
X128954911Y-77933749D01*
X129006212Y-78038686D01*
X129006215Y-78038690D01*
X129088809Y-78121284D01*
X129088813Y-78121286D01*
X129193751Y-78172587D01*
X129261779Y-78182499D01*
X130119999Y-78182499D01*
X130320000Y-78182499D01*
X131178221Y-78182499D01*
X131246248Y-78172588D01*
X131246249Y-78172588D01*
X131351186Y-78121287D01*
X131351190Y-78121284D01*
X131433784Y-78038690D01*
X131433786Y-78038686D01*
X131485087Y-77933749D01*
X131485087Y-77933748D01*
X131495000Y-77865720D01*
X131495000Y-77520000D01*
X130320000Y-77520000D01*
X130320000Y-78182499D01*
X130119999Y-78182499D01*
X130120000Y-78182498D01*
X130120000Y-77520000D01*
X128945001Y-77520000D01*
X128945001Y-77865721D01*
X127303527Y-77865721D01*
X127383528Y-77785720D01*
X127387147Y-77778619D01*
X127414466Y-77725000D01*
X127444719Y-77665626D01*
X127460500Y-77565988D01*
X127460500Y-77049012D01*
X127448664Y-76974279D01*
X128945000Y-76974279D01*
X128945000Y-77320000D01*
X130120000Y-77320000D01*
X130320000Y-77320000D01*
X131494999Y-77320000D01*
X131494999Y-76974278D01*
X131485088Y-76906251D01*
X131485088Y-76906250D01*
X131433787Y-76801313D01*
X131433784Y-76801309D01*
X131351190Y-76718715D01*
X131351186Y-76718713D01*
X131246248Y-76667412D01*
X131178221Y-76657500D01*
X130320000Y-76657500D01*
X130320000Y-77320000D01*
X130120000Y-77320000D01*
X130120000Y-76657500D01*
X129261778Y-76657500D01*
X129193751Y-76667411D01*
X129193750Y-76667411D01*
X129088813Y-76718712D01*
X129088809Y-76718715D01*
X129006215Y-76801309D01*
X129006213Y-76801313D01*
X128954912Y-76906250D01*
X128954912Y-76906251D01*
X128945000Y-76974279D01*
X127448664Y-76974279D01*
X127444719Y-76949374D01*
X127424192Y-76909087D01*
X127383532Y-76829286D01*
X127383527Y-76829279D01*
X127288223Y-76733975D01*
X127288220Y-76733972D01*
X127275230Y-76727353D01*
X127254322Y-76706901D01*
X127252253Y-76703054D01*
X127184907Y-76577811D01*
X127066344Y-76357320D01*
X127060500Y-76334114D01*
X127060500Y-75186189D01*
X127074852Y-75151541D01*
X127321873Y-74904520D01*
X127670480Y-74555913D01*
X127685152Y-74530500D01*
X127723207Y-74464587D01*
X127750499Y-74362730D01*
X127750500Y-74362730D01*
X127750500Y-74092695D01*
X127760575Y-74062931D01*
X128357022Y-73282962D01*
X128374531Y-73250116D01*
X128377019Y-73245960D01*
X128388867Y-73228231D01*
X128400500Y-73169748D01*
X128400500Y-73169743D01*
X128400736Y-73167351D01*
X128400925Y-73167369D01*
X128401354Y-73162917D01*
X128401357Y-73162669D01*
X128401187Y-73161665D01*
X128400500Y-73153491D01*
X128400500Y-71430255D01*
X128400500Y-71430252D01*
X128388867Y-71371769D01*
X128357462Y-71324769D01*
X128344552Y-71305447D01*
X128283569Y-71264700D01*
X128278231Y-71261133D01*
X128219748Y-71249500D01*
X126480252Y-71249500D01*
X126421769Y-71261133D01*
X126355447Y-71305447D01*
X126311133Y-71371769D01*
X126299500Y-71430252D01*
X126299500Y-71430255D01*
X126299500Y-73169747D01*
X126304416Y-73194467D01*
X126305326Y-73202268D01*
X126305328Y-73202333D01*
X126307515Y-73210552D01*
X126308220Y-73213590D01*
X126311132Y-73228230D01*
X126328065Y-73253573D01*
X126331305Y-73259195D01*
X126342977Y-73282962D01*
X126939424Y-74062931D01*
X126949500Y-74092695D01*
X126949500Y-74123811D01*
X126935148Y-74158459D01*
X126339521Y-74754086D01*
X126339520Y-74754086D01*
X126286793Y-74845410D01*
X126286792Y-74845413D01*
X126270749Y-74905288D01*
X126259500Y-74947269D01*
X126259500Y-76334114D01*
X126253656Y-76357320D01*
X126065675Y-76706902D01*
X126044767Y-76727354D01*
X126031783Y-76733970D01*
X126031776Y-76733975D01*
X125936472Y-76829279D01*
X125936467Y-76829286D01*
X125875282Y-76949370D01*
X125875281Y-76949372D01*
X125875281Y-76949374D01*
X125859500Y-77049012D01*
X124334999Y-77049012D01*
X124334999Y-76974278D01*
X124325088Y-76906251D01*
X124325088Y-76906250D01*
X124273787Y-76801313D01*
X124273784Y-76801309D01*
X124191190Y-76718715D01*
X124191186Y-76718713D01*
X124086248Y-76667412D01*
X124018221Y-76657500D01*
X123160000Y-76657500D01*
X123160000Y-77320000D01*
X122960000Y-77320000D01*
X122960000Y-76657500D01*
X122101778Y-76657500D01*
X122033751Y-76667411D01*
X122033750Y-76667411D01*
X121928813Y-76718712D01*
X121928809Y-76718715D01*
X121846215Y-76801309D01*
X121846213Y-76801313D01*
X121794912Y-76906250D01*
X121794912Y-76906251D01*
X121785000Y-76974279D01*
X120500500Y-76974279D01*
X120500500Y-72201583D01*
X121049500Y-72201583D01*
X121049500Y-72398416D01*
X121080290Y-72592823D01*
X121080291Y-72592826D01*
X121141116Y-72780026D01*
X121230472Y-72955399D01*
X121230475Y-72955403D01*
X121230476Y-72955405D01*
X121346172Y-73114646D01*
X121346174Y-73114648D01*
X121346177Y-73114652D01*
X121485347Y-73253822D01*
X121485350Y-73253824D01*
X121485354Y-73253828D01*
X121644595Y-73369524D01*
X121644597Y-73369525D01*
X121644600Y-73369527D01*
X121819973Y-73458883D01*
X121819975Y-73458884D01*
X122007174Y-73519709D01*
X122201583Y-73550500D01*
X122201584Y-73550500D01*
X122398416Y-73550500D01*
X122398417Y-73550500D01*
X122592826Y-73519709D01*
X122780025Y-73458884D01*
X122955405Y-73369524D01*
X123114646Y-73253828D01*
X123253828Y-73114646D01*
X123369524Y-72955405D01*
X123458884Y-72780025D01*
X123519709Y-72592826D01*
X123550500Y-72398417D01*
X123550500Y-72201583D01*
X123519709Y-72007174D01*
X123458884Y-71819975D01*
X123369524Y-71644595D01*
X123253828Y-71485354D01*
X123253824Y-71485350D01*
X123253822Y-71485347D01*
X123114652Y-71346177D01*
X123114653Y-71346177D01*
X123083945Y-71323866D01*
X122955405Y-71230476D01*
X122955403Y-71230475D01*
X122955399Y-71230472D01*
X122780026Y-71141116D01*
X122592826Y-71080291D01*
X122592823Y-71080290D01*
X122443482Y-71056637D01*
X122398417Y-71049500D01*
X122201583Y-71049500D01*
X122164998Y-71055294D01*
X122007176Y-71080290D01*
X122007173Y-71080291D01*
X121819973Y-71141116D01*
X121644600Y-71230472D01*
X121485347Y-71346177D01*
X121346177Y-71485347D01*
X121230472Y-71644600D01*
X121141116Y-71819973D01*
X121080291Y-72007173D01*
X121080290Y-72007176D01*
X121049500Y-72201583D01*
X120500500Y-72201583D01*
X120500500Y-71002752D01*
X120500808Y-70997266D01*
X120500808Y-70997265D01*
X120512406Y-70894332D01*
X120514848Y-70883637D01*
X120548145Y-70788477D01*
X120552897Y-70778610D01*
X120606541Y-70693235D01*
X120613375Y-70684666D01*
X120684666Y-70613375D01*
X120693235Y-70606541D01*
X120778610Y-70552897D01*
X120788477Y-70548145D01*
X120883640Y-70514847D01*
X120894332Y-70512406D01*
X120997267Y-70500808D01*
X121002753Y-70500500D01*
X121065892Y-70500500D01*
X153934108Y-70500500D01*
X153997247Y-70500500D01*
X154002733Y-70500808D01*
G37*
%TD.AperFunction*%
%TD*%
%TA.AperFunction,Conductor*%
%TO.N,VDD*%
G36*
X131246671Y-79854751D02*
G01*
X132051334Y-80286690D01*
X132057002Y-80293623D01*
X132057500Y-80296999D01*
X132057500Y-80683076D01*
X132054073Y-80691349D01*
X132051431Y-80693332D01*
X131246708Y-81135155D01*
X131237807Y-81136133D01*
X131234842Y-81134799D01*
X130234717Y-80504899D01*
X130229544Y-80497591D01*
X130231053Y-80488765D01*
X130234716Y-80485101D01*
X131234906Y-79855160D01*
X131243731Y-79853652D01*
X131246671Y-79854751D01*
G37*
%TD.AperFunction*%
%TD*%
%TA.AperFunction,Conductor*%
%TO.N,VDD*%
G36*
X133275760Y-80243868D02*
G01*
X133279993Y-80251759D01*
X133280051Y-80252876D01*
X133281000Y-80490000D01*
X133281000Y-80490094D01*
X133280051Y-80727123D01*
X133276591Y-80735382D01*
X133268304Y-80738776D01*
X133267187Y-80738718D01*
X132790536Y-80691053D01*
X132782645Y-80686820D01*
X132780000Y-80679411D01*
X132780000Y-80300588D01*
X132783427Y-80292315D01*
X132790534Y-80288946D01*
X133267187Y-80241281D01*
X133275760Y-80243868D01*
G37*
%TD.AperFunction*%
%TD*%
%TA.AperFunction,Conductor*%
%TO.N,VDD*%
G36*
X140574624Y-77042448D02*
G01*
X140582882Y-77045908D01*
X140586276Y-77054195D01*
X140586218Y-77055312D01*
X140538554Y-77531964D01*
X140534321Y-77539855D01*
X140526912Y-77542500D01*
X140148088Y-77542500D01*
X140139815Y-77539073D01*
X140136446Y-77531964D01*
X140088781Y-77055312D01*
X140091368Y-77046739D01*
X140099259Y-77042506D01*
X140100365Y-77042448D01*
X140337500Y-77041500D01*
X140574624Y-77042448D01*
G37*
%TD.AperFunction*%
%TD*%
%TA.AperFunction,Conductor*%
%TO.N,VDD*%
G36*
X126668142Y-80614390D02*
G01*
X127103648Y-81036426D01*
X127107205Y-81044644D01*
X127105811Y-81050369D01*
X126863312Y-81501341D01*
X126856375Y-81507005D01*
X126853007Y-81507500D01*
X126466993Y-81507500D01*
X126458720Y-81504073D01*
X126456688Y-81501341D01*
X126214188Y-81050369D01*
X126213288Y-81041460D01*
X126216351Y-81036426D01*
X126651858Y-80614390D01*
X126660184Y-80611093D01*
X126668142Y-80614390D01*
G37*
%TD.AperFunction*%
%TD*%
%TA.AperFunction,Conductor*%
%TO.N,VDD*%
G36*
X129735813Y-82892227D02*
G01*
X130484891Y-83269744D01*
X130487897Y-83271918D01*
X130759920Y-83543941D01*
X130763347Y-83552214D01*
X130759920Y-83560487D01*
X130758714Y-83561538D01*
X129857043Y-84244951D01*
X129848380Y-84247218D01*
X129843153Y-84245132D01*
X128970851Y-83619003D01*
X128966129Y-83611395D01*
X128968169Y-83602675D01*
X128969663Y-83600970D01*
X129722540Y-82894145D01*
X129730917Y-82890982D01*
X129735813Y-82892227D01*
G37*
%TD.AperFunction*%
%TD*%
%TA.AperFunction,Conductor*%
%TO.N,VDD*%
G36*
X128197597Y-82894267D02*
G01*
X128951896Y-83601465D01*
X128955588Y-83609623D01*
X128952429Y-83618002D01*
X128951896Y-83618535D01*
X128197597Y-84325732D01*
X128189218Y-84328891D01*
X128184106Y-84327529D01*
X127216211Y-83813299D01*
X127210512Y-83806391D01*
X127210000Y-83802967D01*
X127210000Y-83417032D01*
X127213427Y-83408759D01*
X127216211Y-83406700D01*
X128184106Y-82892470D01*
X128193019Y-82891614D01*
X128197597Y-82894267D01*
G37*
%TD.AperFunction*%
%TD*%
%TA.AperFunction,Conductor*%
%TO.N,VDD*%
G36*
X129205122Y-79855178D02*
G01*
X129898175Y-80291678D01*
X130205281Y-80485100D01*
X130210455Y-80492409D01*
X130208946Y-80501235D01*
X130205281Y-80504900D01*
X129205125Y-81134819D01*
X129196299Y-81136328D01*
X129193308Y-81135201D01*
X128388618Y-80698321D01*
X128382982Y-80691362D01*
X128382500Y-80688039D01*
X128382500Y-80301960D01*
X128385927Y-80293687D01*
X128388615Y-80291679D01*
X129193310Y-79854797D01*
X129202213Y-79853862D01*
X129205122Y-79855178D01*
G37*
%TD.AperFunction*%
%TD*%
%TA.AperFunction,Conductor*%
%TO.N,VDD*%
G36*
X127127025Y-80175837D02*
G01*
X127700643Y-80293087D01*
X127708062Y-80298101D01*
X127710000Y-80304550D01*
X127710000Y-80688250D01*
X127706573Y-80696523D01*
X127704158Y-80698378D01*
X127180941Y-81000999D01*
X127172064Y-81002175D01*
X127167936Y-81000135D01*
X126669889Y-80615900D01*
X126665432Y-80608133D01*
X126667772Y-80599489D01*
X126669031Y-80598103D01*
X127116690Y-80178761D01*
X127125070Y-80175607D01*
X127127025Y-80175837D01*
G37*
%TD.AperFunction*%
%TD*%
%TA.AperFunction,Conductor*%
%TO.N,VDD*%
G36*
X142464699Y-77725493D02*
G01*
X142469279Y-77729040D01*
X142795401Y-78147811D01*
X142797781Y-78156444D01*
X142795401Y-78162189D01*
X142469279Y-78580959D01*
X142461492Y-78585381D01*
X142455746Y-78584650D01*
X141882398Y-78357925D01*
X141875964Y-78351696D01*
X141875000Y-78347045D01*
X141875000Y-77962954D01*
X141878427Y-77954681D01*
X141882395Y-77952075D01*
X142455748Y-77725349D01*
X142464699Y-77725493D01*
G37*
%TD.AperFunction*%
%TD*%
%TA.AperFunction,Conductor*%
%TO.N,VDD*%
G36*
X131229548Y-82934380D02*
G01*
X131555110Y-83352112D01*
X131557493Y-83360744D01*
X131555122Y-83366482D01*
X131230249Y-83784694D01*
X131222467Y-83789125D01*
X131215005Y-83787558D01*
X131210214Y-83784694D01*
X130790844Y-83533984D01*
X130788575Y-83532215D01*
X130518736Y-83262376D01*
X130515309Y-83254103D01*
X130518736Y-83245830D01*
X130522196Y-83243439D01*
X131215512Y-82930905D01*
X131224462Y-82930630D01*
X131229548Y-82934380D01*
G37*
%TD.AperFunction*%
%TD*%
%TA.AperFunction,Conductor*%
%TO.N,+3V3*%
G36*
X128486848Y-91297578D02*
G01*
X128492565Y-91302674D01*
X128591200Y-91479293D01*
X128930363Y-92086610D01*
X128931405Y-92095503D01*
X128928421Y-92100587D01*
X128657577Y-92371431D01*
X128649304Y-92374858D01*
X128644444Y-92373801D01*
X128008398Y-92083331D01*
X128002296Y-92076777D01*
X128001579Y-92071997D01*
X128036357Y-91486618D01*
X128040268Y-91478565D01*
X128043573Y-91476499D01*
X128477895Y-91297561D01*
X128486848Y-91297578D01*
G37*
%TD.AperFunction*%
%TD*%
%TA.AperFunction,Conductor*%
%TO.N,+3V3*%
G36*
X139894517Y-90046818D02*
G01*
X140355661Y-90202588D01*
X140362403Y-90208483D01*
X140362735Y-90209216D01*
X140542360Y-90645203D01*
X140542343Y-90654158D01*
X140537046Y-90659984D01*
X139796759Y-91054654D01*
X139787847Y-91055523D01*
X139782982Y-91052603D01*
X139512317Y-90781938D01*
X139508890Y-90773665D01*
X139510198Y-90768290D01*
X139569226Y-90654158D01*
X139880384Y-90052527D01*
X139887227Y-90046755D01*
X139894517Y-90046818D01*
G37*
%TD.AperFunction*%
%TD*%
%TA.AperFunction,Conductor*%
%TO.N,+3V3*%
G36*
X132849618Y-78092511D02*
G01*
X133117488Y-78360381D01*
X133120915Y-78368654D01*
X133118270Y-78376063D01*
X132814930Y-78746811D01*
X132807039Y-78751044D01*
X132798466Y-78748457D01*
X132797635Y-78747708D01*
X132629326Y-78580739D01*
X132629260Y-78580673D01*
X132462291Y-78412364D01*
X132458897Y-78404077D01*
X132462357Y-78395818D01*
X132463178Y-78395077D01*
X132833939Y-78091727D01*
X132842509Y-78089142D01*
X132849618Y-78092511D01*
G37*
%TD.AperFunction*%
%TD*%
%TA.AperFunction,Conductor*%
%TO.N,+3V3*%
G36*
X137142605Y-89797904D02*
G01*
X137858349Y-89804898D01*
X137866588Y-89808405D01*
X137869862Y-89815299D01*
X137998982Y-90971888D01*
X137996494Y-90980490D01*
X137991396Y-90984166D01*
X137348688Y-91220745D01*
X137339740Y-91220387D01*
X137333666Y-91213807D01*
X137333592Y-91213599D01*
X136847889Y-89813437D01*
X136848415Y-89804498D01*
X136855109Y-89798549D01*
X136858943Y-89797903D01*
X137142488Y-89797903D01*
X137142605Y-89797904D01*
G37*
%TD.AperFunction*%
%TD*%
%TA.AperFunction,Conductor*%
%TO.N,+3V3*%
G36*
X143037017Y-89357396D02*
G01*
X143307682Y-89628061D01*
X143311109Y-89636334D01*
X143309801Y-89641709D01*
X142939616Y-90357470D01*
X142932772Y-90363244D01*
X142925480Y-90363180D01*
X142464338Y-90207411D01*
X142457596Y-90201516D01*
X142457264Y-90200783D01*
X142277639Y-89764793D01*
X142277656Y-89755841D01*
X142282951Y-89750016D01*
X143023242Y-89355344D01*
X143032152Y-89354476D01*
X143037017Y-89357396D01*
G37*
%TD.AperFunction*%
%TD*%
%TA.AperFunction,Conductor*%
%TO.N,+3V3*%
G36*
X152079759Y-75308335D02*
G01*
X152668079Y-75620958D01*
X152673776Y-75627865D01*
X152674084Y-75633463D01*
X152586885Y-76094476D01*
X152581980Y-76101969D01*
X152579843Y-76103121D01*
X152194425Y-76261804D01*
X152185471Y-76261785D01*
X152179865Y-76256879D01*
X151793815Y-75594904D01*
X151792609Y-75586034D01*
X151795648Y-75580742D01*
X152065997Y-75310393D01*
X152074269Y-75306967D01*
X152079759Y-75308335D01*
G37*
%TD.AperFunction*%
%TD*%
%TA.AperFunction,Conductor*%
%TO.N,+3V3*%
G36*
X136999663Y-86911359D02*
G01*
X137001751Y-86913447D01*
X137164664Y-87123838D01*
X137167060Y-87132110D01*
X137143509Y-87379409D01*
X137139314Y-87387320D01*
X137131862Y-87390000D01*
X136853138Y-87390000D01*
X136844865Y-87386573D01*
X136841491Y-87379409D01*
X136817939Y-87132110D01*
X136820334Y-87123839D01*
X136983249Y-86913446D01*
X136991024Y-86909003D01*
X136999663Y-86911359D01*
G37*
%TD.AperFunction*%
%TD*%
%TA.AperFunction,Conductor*%
%TO.N,+3V3*%
G36*
X137056144Y-89143427D02*
G01*
X137059571Y-89151700D01*
X137056144Y-89159973D01*
X137050721Y-89163048D01*
X136796810Y-89226811D01*
X136787951Y-89225502D01*
X136782612Y-89218313D01*
X136783921Y-89209454D01*
X136785029Y-89207905D01*
X136838994Y-89144141D01*
X136846955Y-89140040D01*
X136847925Y-89140000D01*
X137047871Y-89140000D01*
X137056144Y-89143427D01*
G37*
%TD.AperFunction*%
%TD*%
%TA.AperFunction,Conductor*%
%TO.N,+3V3*%
G36*
X139139073Y-86593927D02*
G01*
X139142500Y-86602200D01*
X139142500Y-86879361D01*
X139139073Y-86887634D01*
X139131909Y-86891008D01*
X138884610Y-86914560D01*
X138876338Y-86912164D01*
X138665947Y-86749251D01*
X138661503Y-86741476D01*
X138663859Y-86732837D01*
X138665947Y-86730749D01*
X138843906Y-86592949D01*
X138851069Y-86590500D01*
X139130800Y-86590500D01*
X139139073Y-86593927D01*
G37*
%TD.AperFunction*%
%TD*%
%TA.AperFunction,Conductor*%
%TO.N,+3V3*%
G36*
X151754476Y-80533114D02*
G01*
X151761969Y-80538019D01*
X151763121Y-80540156D01*
X151921805Y-80925574D01*
X151921786Y-80934528D01*
X151916880Y-80940135D01*
X151254907Y-81326183D01*
X151246034Y-81327390D01*
X151240740Y-81324349D01*
X150970394Y-81054003D01*
X150966967Y-81045730D01*
X150968335Y-81040240D01*
X151024258Y-80935000D01*
X151280959Y-80451919D01*
X151287865Y-80446223D01*
X151293459Y-80445915D01*
X151754476Y-80533114D01*
G37*
%TD.AperFunction*%
%TD*%
%TA.AperFunction,Conductor*%
%TO.N,+3V3*%
G36*
X152984528Y-75938213D02*
G01*
X152990134Y-75943118D01*
X153376183Y-76605093D01*
X153377390Y-76613965D01*
X153374349Y-76619259D01*
X153104003Y-76889605D01*
X153095730Y-76893032D01*
X153090240Y-76891664D01*
X152565606Y-76612883D01*
X152501920Y-76579041D01*
X152496223Y-76572134D01*
X152495915Y-76566539D01*
X152583114Y-76105521D01*
X152588019Y-76098030D01*
X152590147Y-76096882D01*
X152975576Y-75938194D01*
X152984528Y-75938213D01*
G37*
%TD.AperFunction*%
%TD*%
%TA.AperFunction,Conductor*%
%TO.N,+3V3*%
G36*
X140511169Y-89308427D02*
G01*
X140513277Y-89311304D01*
X140805331Y-89873133D01*
X140806106Y-89882054D01*
X140801785Y-89888025D01*
X140366835Y-90201080D01*
X140358118Y-90203132D01*
X140353165Y-90201080D01*
X139918214Y-89888025D01*
X139913501Y-89880411D01*
X139914668Y-89873133D01*
X140206723Y-89311304D01*
X140213579Y-89305544D01*
X140217104Y-89305000D01*
X140502896Y-89305000D01*
X140511169Y-89308427D01*
G37*
%TD.AperFunction*%
%TD*%
%TA.AperFunction,Conductor*%
%TO.N,+3V3*%
G36*
X144382902Y-81896240D02*
G01*
X144754071Y-82236310D01*
X144757856Y-82244426D01*
X144757200Y-82248831D01*
X144577755Y-82757194D01*
X144571770Y-82763855D01*
X144566722Y-82765000D01*
X144183278Y-82765000D01*
X144175005Y-82761573D01*
X144172245Y-82757194D01*
X143992799Y-82248831D01*
X143993277Y-82239889D01*
X143995925Y-82236312D01*
X144367097Y-81896240D01*
X144375511Y-81893179D01*
X144382902Y-81896240D01*
G37*
%TD.AperFunction*%
%TD*%
%TA.AperFunction,Conductor*%
%TO.N,+3V3*%
G36*
X137347700Y-90709792D02*
G01*
X137991783Y-90975610D01*
X137998123Y-90981933D01*
X137998785Y-90988753D01*
X137763582Y-92146801D01*
X137758577Y-92154226D01*
X137753620Y-92156075D01*
X137016171Y-92251639D01*
X137007526Y-92249304D01*
X137006394Y-92248309D01*
X136733495Y-91975410D01*
X136730068Y-91967137D01*
X136731229Y-91962056D01*
X137332704Y-90715521D01*
X137339384Y-90709562D01*
X137347700Y-90709792D01*
G37*
%TD.AperFunction*%
%TD*%
%TA.AperFunction,Conductor*%
%TO.N,+3V3*%
G36*
X138670529Y-90323105D02*
G01*
X139319997Y-90776507D01*
X139324819Y-90784053D01*
X139325000Y-90786101D01*
X139325000Y-91173898D01*
X139321573Y-91182171D01*
X139319997Y-91183492D01*
X138670531Y-91636893D01*
X138661786Y-91638818D01*
X138655568Y-91635578D01*
X138007290Y-90988278D01*
X138003858Y-90980009D01*
X138007279Y-90971733D01*
X138007291Y-90971721D01*
X138655569Y-90324419D01*
X138663843Y-90321000D01*
X138670529Y-90323105D01*
G37*
%TD.AperFunction*%
%TD*%
%TA.AperFunction,Conductor*%
%TO.N,+3V3*%
G36*
X144735241Y-81493506D02*
G01*
X145168074Y-81686905D01*
X145174228Y-81693408D01*
X145175000Y-81697586D01*
X145175000Y-82082413D01*
X145171573Y-82090686D01*
X145168073Y-82093095D01*
X144735242Y-82286492D01*
X144726291Y-82286738D01*
X144721701Y-82283557D01*
X144551303Y-82090686D01*
X144380843Y-81897746D01*
X144377934Y-81889278D01*
X144380844Y-81882253D01*
X144543994Y-81697586D01*
X144721702Y-81496441D01*
X144729747Y-81492511D01*
X144735241Y-81493506D01*
G37*
%TD.AperFunction*%
%TD*%
%TA.AperFunction,Conductor*%
%TO.N,+3V3*%
G36*
X144790591Y-77258427D02*
G01*
X144793054Y-77262049D01*
X145036255Y-77823468D01*
X145036399Y-77832422D01*
X145032354Y-77837615D01*
X144596835Y-78151080D01*
X144588118Y-78153132D01*
X144583165Y-78151080D01*
X144147645Y-77837615D01*
X144142932Y-77830001D01*
X144143743Y-77823471D01*
X144386946Y-77262048D01*
X144393379Y-77255820D01*
X144397682Y-77255000D01*
X144782318Y-77255000D01*
X144790591Y-77258427D01*
G37*
%TD.AperFunction*%
%TD*%
%TA.AperFunction,Conductor*%
%TO.N,+3V3*%
G36*
X130673343Y-71979233D02*
G01*
X130679668Y-71985572D01*
X130679707Y-71985667D01*
X131230613Y-73353485D01*
X131230525Y-73362439D01*
X131228033Y-73366129D01*
X130956129Y-73638033D01*
X130947856Y-73641460D01*
X130943485Y-73640613D01*
X129575667Y-73089707D01*
X129569273Y-73083437D01*
X129569185Y-73074483D01*
X129569224Y-73074388D01*
X129887438Y-72303783D01*
X129893759Y-72297448D01*
X130664388Y-71979224D01*
X130673343Y-71979233D01*
G37*
%TD.AperFunction*%
%TD*%
%TA.AperFunction,Conductor*%
%TO.N,+3V3*%
G36*
X152279259Y-79745650D02*
G01*
X152549605Y-80015996D01*
X152553032Y-80024269D01*
X152551664Y-80029759D01*
X152239042Y-80618079D01*
X152232134Y-80623777D01*
X152226536Y-80624085D01*
X151765523Y-80536885D01*
X151758030Y-80531980D01*
X151756880Y-80529848D01*
X151598195Y-80144423D01*
X151598214Y-80135471D01*
X151603118Y-80129866D01*
X152265095Y-79743815D01*
X152273965Y-79742609D01*
X152279259Y-79745650D01*
G37*
%TD.AperFunction*%
%TD*%
%TA.AperFunction,Conductor*%
%TO.N,+3V3*%
G36*
X142124699Y-89775493D02*
G01*
X142129279Y-89779040D01*
X142455401Y-90197811D01*
X142457781Y-90206444D01*
X142455401Y-90212189D01*
X142129279Y-90630959D01*
X142121492Y-90635381D01*
X142115746Y-90634650D01*
X141542398Y-90407925D01*
X141535964Y-90401696D01*
X141535000Y-90397045D01*
X141535000Y-90012954D01*
X141538427Y-90004681D01*
X141542395Y-90002075D01*
X142115748Y-89775349D01*
X142124699Y-89775493D01*
G37*
%TD.AperFunction*%
%TD*%
%TA.AperFunction,Conductor*%
%TO.N,+3V3*%
G36*
X140704251Y-89775348D02*
G01*
X141277602Y-90002074D01*
X141284036Y-90008303D01*
X141285000Y-90012954D01*
X141285000Y-90397045D01*
X141281573Y-90405318D01*
X141277602Y-90407925D01*
X140704253Y-90634650D01*
X140695300Y-90634506D01*
X140690720Y-90630959D01*
X140517030Y-90407925D01*
X140364597Y-90212188D01*
X140362218Y-90203556D01*
X140364597Y-90197812D01*
X140690720Y-89779039D01*
X140698507Y-89774618D01*
X140704251Y-89775348D01*
G37*
%TD.AperFunction*%
%TD*%
%TA.AperFunction,Conductor*%
%TO.N,+5V*%
G36*
X127358266Y-72307276D02*
G01*
X128192765Y-73142756D01*
X128196187Y-73151031D01*
X128193781Y-73158131D01*
X127553512Y-73995407D01*
X127545764Y-73999897D01*
X127544218Y-74000000D01*
X127155782Y-74000000D01*
X127147509Y-73996573D01*
X127146488Y-73995407D01*
X126506218Y-73158131D01*
X126503915Y-73149478D01*
X126507232Y-73142758D01*
X127341723Y-72307286D01*
X127349993Y-72303855D01*
X127358266Y-72307276D01*
G37*
%TD.AperFunction*%
%TD*%
%TA.AperFunction,Conductor*%
%TO.N,+5V*%
G36*
X126861280Y-76410927D02*
G01*
X126863312Y-76413659D01*
X127105811Y-76864629D01*
X127106711Y-76873538D01*
X127103648Y-76878572D01*
X126668142Y-77300609D01*
X126659816Y-77303906D01*
X126651858Y-77300609D01*
X126216351Y-76878572D01*
X126212794Y-76870354D01*
X126214188Y-76864629D01*
X126456688Y-76413659D01*
X126463625Y-76407995D01*
X126466993Y-76407500D01*
X126853007Y-76407500D01*
X126861280Y-76410927D01*
G37*
%TD.AperFunction*%
%TD*%
%TA.AperFunction,Conductor*%
%TO.N,Net-(D2-A)*%
G36*
X128197597Y-85194267D02*
G01*
X128951896Y-85901465D01*
X128955588Y-85909623D01*
X128952429Y-85918002D01*
X128951896Y-85918535D01*
X128197597Y-86625732D01*
X128189218Y-86628891D01*
X128184106Y-86627529D01*
X127216211Y-86113299D01*
X127210512Y-86106391D01*
X127210000Y-86102967D01*
X127210000Y-85717032D01*
X127213427Y-85708759D01*
X127216211Y-85706700D01*
X128184106Y-85192470D01*
X128193019Y-85191614D01*
X128197597Y-85194267D01*
G37*
%TD.AperFunction*%
%TD*%
%TA.AperFunction,Conductor*%
%TO.N,Net-(D2-A)*%
G36*
X123668172Y-84916537D02*
G01*
X124655609Y-85706487D01*
X124659928Y-85714331D01*
X124660000Y-85715623D01*
X124660000Y-86104376D01*
X124656573Y-86112649D01*
X124655609Y-86113512D01*
X123668173Y-86903461D01*
X123659572Y-86905953D01*
X123652595Y-86902602D01*
X123071627Y-86322214D01*
X122667284Y-85918276D01*
X122663854Y-85910006D01*
X122667277Y-85901731D01*
X122667285Y-85901723D01*
X122853571Y-85715623D01*
X123652596Y-84917396D01*
X123660870Y-84913974D01*
X123668172Y-84916537D01*
G37*
%TD.AperFunction*%
%TD*%
%TA.AperFunction,Conductor*%
%TO.N,Net-(D2-A)*%
G36*
X130730555Y-90586198D02*
G01*
X131366601Y-90876668D01*
X131372703Y-90883222D01*
X131373420Y-90888005D01*
X131338642Y-91473379D01*
X131334731Y-91481434D01*
X131331420Y-91483503D01*
X130897106Y-91662438D01*
X130888151Y-91662421D01*
X130882434Y-91657325D01*
X130783800Y-91480707D01*
X130444635Y-90873387D01*
X130443594Y-90864496D01*
X130446576Y-90859414D01*
X130717423Y-90588567D01*
X130725695Y-90585141D01*
X130730555Y-90586198D01*
G37*
%TD.AperFunction*%
%TD*%
%TA.AperFunction,Conductor*%
%TO.N,Net-(D2-A)*%
G36*
X122861547Y-83013427D02*
G01*
X122863385Y-83015813D01*
X123618448Y-84312661D01*
X123619649Y-84321535D01*
X123618351Y-84324598D01*
X122670014Y-85894423D01*
X122662803Y-85899732D01*
X122653950Y-85898387D01*
X122649986Y-85894423D01*
X121701648Y-84324598D01*
X121700303Y-84315745D01*
X121701549Y-84312664D01*
X122456615Y-83015812D01*
X122463739Y-83010388D01*
X122466726Y-83010000D01*
X122853274Y-83010000D01*
X122861547Y-83013427D01*
G37*
%TD.AperFunction*%
%TD*%
%TA.AperFunction,Conductor*%
%TO.N,Net-(D2-A)*%
G36*
X123068266Y-80502278D02*
G01*
X123715578Y-81150567D01*
X123718999Y-81158843D01*
X123716893Y-81165531D01*
X123263493Y-81814997D01*
X123255947Y-81819819D01*
X123253899Y-81820000D01*
X122866101Y-81820000D01*
X122857828Y-81816573D01*
X122856507Y-81814997D01*
X122403105Y-81165529D01*
X122401181Y-81156786D01*
X122404419Y-81150570D01*
X123051721Y-80502290D01*
X123059991Y-80498858D01*
X123068266Y-80502278D01*
G37*
%TD.AperFunction*%
%TD*%
%TA.AperFunction,Conductor*%
%TO.N,Net-(D2-A)*%
G36*
X131650094Y-86323314D02*
G01*
X131652208Y-86326203D01*
X131984097Y-86966475D01*
X131984862Y-86975397D01*
X131981193Y-86980853D01*
X131567481Y-87325070D01*
X131558930Y-87327727D01*
X131553419Y-87325751D01*
X131111355Y-87025170D01*
X131106441Y-87017685D01*
X131107958Y-87009381D01*
X131128786Y-86975397D01*
X131361291Y-86596025D01*
X131362988Y-86593874D01*
X131633549Y-86323313D01*
X131641821Y-86319887D01*
X131650094Y-86323314D01*
G37*
%TD.AperFunction*%
%TD*%
%TA.AperFunction,Conductor*%
%TO.N,Net-(D2-A)*%
G36*
X131094517Y-87171818D02*
G01*
X131555661Y-87327588D01*
X131562403Y-87333483D01*
X131562735Y-87334216D01*
X131742360Y-87770203D01*
X131742343Y-87779158D01*
X131737046Y-87784984D01*
X130996759Y-88179654D01*
X130987847Y-88180523D01*
X130982982Y-88177603D01*
X130712317Y-87906938D01*
X130708890Y-87898665D01*
X130710198Y-87893290D01*
X130769226Y-87779158D01*
X131080384Y-87177527D01*
X131087227Y-87171755D01*
X131094517Y-87171818D01*
G37*
%TD.AperFunction*%
%TD*%
%TA.AperFunction,Conductor*%
%TO.N,Net-(D2-A)*%
G36*
X129735893Y-85192470D02*
G01*
X130703789Y-85706700D01*
X130709488Y-85713608D01*
X130710000Y-85717032D01*
X130710000Y-86102967D01*
X130706573Y-86111240D01*
X130703789Y-86113299D01*
X129735893Y-86627529D01*
X129726980Y-86628385D01*
X129722402Y-86625732D01*
X129173643Y-86111240D01*
X128968102Y-85918534D01*
X128964411Y-85910377D01*
X128967570Y-85901998D01*
X128968103Y-85901465D01*
X129168472Y-85713608D01*
X129722403Y-85194266D01*
X129730781Y-85191108D01*
X129735893Y-85192470D01*
G37*
%TD.AperFunction*%
%TD*%
%TA.AperFunction,Conductor*%
%TO.N,Net-(D3-A)*%
G36*
X150942902Y-76106240D02*
G01*
X151272200Y-76407947D01*
X151313547Y-76445830D01*
X151317332Y-76453946D01*
X151316318Y-76459245D01*
X151088100Y-76968088D01*
X151081588Y-76974234D01*
X151077425Y-76975000D01*
X150792575Y-76975000D01*
X150784302Y-76971573D01*
X150781900Y-76968088D01*
X150553681Y-76459245D01*
X150553422Y-76450294D01*
X150556450Y-76445832D01*
X150927097Y-76106240D01*
X150935511Y-76103179D01*
X150942902Y-76106240D01*
G37*
%TD.AperFunction*%
%TD*%
%TA.AperFunction,Conductor*%
%TO.N,Net-(D3-A)*%
G36*
X151086065Y-77390927D02*
G01*
X151088242Y-77393937D01*
X151369108Y-77951618D01*
X151369768Y-77960549D01*
X151366023Y-77965972D01*
X150959865Y-78295033D01*
X150951280Y-78297578D01*
X150945135Y-78295033D01*
X150538608Y-77965674D01*
X150534337Y-77957803D01*
X150535273Y-77951851D01*
X150781918Y-77394466D01*
X150788399Y-77388287D01*
X150792617Y-77387500D01*
X151077792Y-77387500D01*
X151086065Y-77390927D01*
G37*
%TD.AperFunction*%
%TD*%
%TA.AperFunction,Conductor*%
%TO.N,/AP_CS_3V3*%
G36*
X138140135Y-84593427D02*
G01*
X138143508Y-84600590D01*
X138150103Y-84669834D01*
X138167060Y-84847889D01*
X138164664Y-84856161D01*
X138001751Y-85066552D01*
X137993976Y-85070996D01*
X137985337Y-85068640D01*
X137983249Y-85066552D01*
X137845449Y-84888593D01*
X137843000Y-84881430D01*
X137843000Y-84601700D01*
X137846427Y-84593427D01*
X137854700Y-84590000D01*
X138131862Y-84590000D01*
X138140135Y-84593427D01*
G37*
%TD.AperFunction*%
%TD*%
%TA.AperFunction,Conductor*%
%TO.N,/AP_CS_3V3*%
G36*
X135310997Y-78391652D02*
G01*
X135625743Y-78486238D01*
X135632680Y-78491901D01*
X135633581Y-78500810D01*
X135630649Y-78505716D01*
X135434042Y-78702323D01*
X135430163Y-78704894D01*
X135292000Y-78760875D01*
X135284395Y-78761282D01*
X134653318Y-78581146D01*
X134646303Y-78575580D01*
X134645278Y-78566684D01*
X134650844Y-78559669D01*
X134653622Y-78558562D01*
X135304726Y-78391525D01*
X135310997Y-78391652D01*
G37*
%TD.AperFunction*%
%TD*%
%TA.AperFunction,Conductor*%
%TO.N,/AP_CS_3V3*%
G36*
X137999663Y-85086359D02*
G01*
X138001751Y-85088447D01*
X138164664Y-85298838D01*
X138167060Y-85307110D01*
X138143509Y-85554409D01*
X138139314Y-85562320D01*
X138131862Y-85565000D01*
X137853138Y-85565000D01*
X137844865Y-85561573D01*
X137841491Y-85554409D01*
X137817939Y-85307110D01*
X137820334Y-85298839D01*
X137983249Y-85088446D01*
X137991024Y-85084003D01*
X137999663Y-85086359D01*
G37*
%TD.AperFunction*%
%TD*%
%TA.AperFunction,Conductor*%
%TO.N,/AP_CS_3V3*%
G36*
X137764268Y-85617162D02*
G01*
X137962837Y-85815731D01*
X137966264Y-85824004D01*
X137964301Y-85830492D01*
X137746281Y-86157700D01*
X137738841Y-86162684D01*
X137732107Y-86162038D01*
X137513824Y-86072564D01*
X137507468Y-86066255D01*
X137507435Y-86066175D01*
X137417961Y-85847890D01*
X137417994Y-85838938D01*
X137422296Y-85833721D01*
X137749507Y-85615697D01*
X137758292Y-85613963D01*
X137764268Y-85617162D01*
G37*
%TD.AperFunction*%
%TD*%
%TA.AperFunction,Conductor*%
%TO.N,/INT1*%
G36*
X136338249Y-86747296D02*
G01*
X136500890Y-86910866D01*
X136504293Y-86919149D01*
X136504175Y-86920771D01*
X136481435Y-87079955D01*
X136476873Y-87087660D01*
X136469853Y-87090000D01*
X136190147Y-87090000D01*
X136181874Y-87086573D01*
X136178565Y-87079955D01*
X136155824Y-86920771D01*
X136158046Y-86912096D01*
X136159098Y-86910877D01*
X136321703Y-86747343D01*
X136329967Y-86743894D01*
X136338249Y-86747296D01*
G37*
%TD.AperFunction*%
%TD*%
%TA.AperFunction,Conductor*%
%TO.N,/INT1*%
G36*
X136478684Y-86843427D02*
G01*
X136481883Y-86849403D01*
X136559089Y-87234937D01*
X136557354Y-87243722D01*
X136552134Y-87248027D01*
X136334517Y-87339109D01*
X136325563Y-87339142D01*
X136325483Y-87339109D01*
X136107865Y-87248027D01*
X136101556Y-87241672D01*
X136100910Y-87234939D01*
X136178117Y-86849403D01*
X136183101Y-86841963D01*
X136189589Y-86840000D01*
X136470411Y-86840000D01*
X136478684Y-86843427D01*
G37*
%TD.AperFunction*%
%TD*%
%TA.AperFunction,Conductor*%
%TO.N,/SDA_DIN*%
G36*
X134976526Y-72302293D02*
G01*
X135745136Y-72621066D01*
X135751465Y-72627400D01*
X135751717Y-72635681D01*
X135359787Y-73774221D01*
X135356997Y-73778686D01*
X135156537Y-73979146D01*
X135148264Y-73982573D01*
X135139991Y-73979146D01*
X135138747Y-73977678D01*
X134374719Y-72909097D01*
X134372694Y-72900374D01*
X134375951Y-72894032D01*
X134963762Y-72304836D01*
X134972030Y-72301400D01*
X134976526Y-72302293D01*
G37*
%TD.AperFunction*%
%TD*%
%TA.AperFunction,Conductor*%
%TO.N,/SDA_DIN*%
G36*
X139702665Y-79670835D02*
G01*
X140302855Y-79858835D01*
X140309726Y-79864578D01*
X140310523Y-79873497D01*
X140304780Y-79880368D01*
X140302855Y-79881165D01*
X139702665Y-80069164D01*
X139697245Y-80069540D01*
X139409777Y-80021629D01*
X139402179Y-80016888D01*
X139400000Y-80010088D01*
X139400000Y-79729911D01*
X139403427Y-79721638D01*
X139409775Y-79718370D01*
X139697245Y-79670459D01*
X139702665Y-79670835D01*
G37*
%TD.AperFunction*%
%TD*%
%TA.AperFunction,Conductor*%
%TO.N,/SCL_SCLK*%
G36*
X137514489Y-72300865D02*
G01*
X138284061Y-72620612D01*
X138290386Y-72626951D01*
X138290377Y-72635906D01*
X138290193Y-72636325D01*
X137663139Y-73993208D01*
X137656557Y-73999281D01*
X137652518Y-74000000D01*
X137367482Y-74000000D01*
X137359209Y-73996573D01*
X137356861Y-73993208D01*
X136729806Y-72636325D01*
X136729446Y-72627378D01*
X136735519Y-72620796D01*
X136735913Y-72620622D01*
X137505511Y-72300864D01*
X137514466Y-72300856D01*
X137514489Y-72300865D01*
G37*
%TD.AperFunction*%
%TD*%
%TA.AperFunction,Conductor*%
%TO.N,/SCL_SCLK*%
G36*
X139702665Y-79020835D02*
G01*
X140302855Y-79208835D01*
X140309726Y-79214578D01*
X140310523Y-79223497D01*
X140304780Y-79230368D01*
X140302855Y-79231165D01*
X139702665Y-79419164D01*
X139697245Y-79419540D01*
X139409777Y-79371629D01*
X139402179Y-79366888D01*
X139400000Y-79360088D01*
X139400000Y-79079911D01*
X139403427Y-79071638D01*
X139409775Y-79068370D01*
X139697245Y-79020459D01*
X139702665Y-79020835D01*
G37*
%TD.AperFunction*%
%TD*%
%TA.AperFunction,Conductor*%
%TO.N,/INT2*%
G36*
X139131909Y-86088991D02*
G01*
X139139820Y-86093186D01*
X139142500Y-86100638D01*
X139142500Y-86373300D01*
X139139073Y-86381573D01*
X139130800Y-86385000D01*
X138851069Y-86385000D01*
X138851066Y-86385000D01*
X138851058Y-86385001D01*
X138848028Y-86385504D01*
X138839305Y-86383478D01*
X138838950Y-86383213D01*
X138665947Y-86249250D01*
X138661503Y-86241475D01*
X138663859Y-86232836D01*
X138665942Y-86230752D01*
X138876339Y-86067834D01*
X138884610Y-86065439D01*
X139131909Y-86088991D01*
G37*
%TD.AperFunction*%
%TD*%
%TA.AperFunction,Conductor*%
%TO.N,/INT2*%
G36*
X140562135Y-84651973D02*
G01*
X140568443Y-84658328D01*
X140569089Y-84665062D01*
X140491883Y-85050597D01*
X140486899Y-85058037D01*
X140480411Y-85060000D01*
X140199589Y-85060000D01*
X140191316Y-85056573D01*
X140188117Y-85050597D01*
X140185326Y-85036662D01*
X140110910Y-84665060D01*
X140112645Y-84656277D01*
X140117862Y-84651974D01*
X140335484Y-84560889D01*
X140344436Y-84560857D01*
X140562135Y-84651973D01*
G37*
%TD.AperFunction*%
%TD*%
%TA.AperFunction,Conductor*%
%TO.N,/DOUT_AD0*%
G36*
X133267236Y-72299989D02*
G01*
X133275506Y-72303423D01*
X133278926Y-72311699D01*
X133278881Y-72312714D01*
X133162501Y-73635758D01*
X133159119Y-73643006D01*
X132957619Y-73844506D01*
X132949346Y-73847933D01*
X132941777Y-73845155D01*
X131838631Y-72909246D01*
X131834539Y-72901280D01*
X131837278Y-72892755D01*
X131837906Y-72892072D01*
X132425860Y-72302733D01*
X132434128Y-72299297D01*
X133267236Y-72299989D01*
G37*
%TD.AperFunction*%
%TD*%
%TA.AperFunction,Conductor*%
%TO.N,/DOUT_AD0*%
G36*
X139702665Y-80320835D02*
G01*
X140302855Y-80508835D01*
X140309726Y-80514578D01*
X140310523Y-80523497D01*
X140304780Y-80530368D01*
X140302855Y-80531165D01*
X139702665Y-80719164D01*
X139697245Y-80719540D01*
X139409777Y-80671629D01*
X139402179Y-80666888D01*
X139400000Y-80660088D01*
X139400000Y-80379911D01*
X139403427Y-80371638D01*
X139409775Y-80368370D01*
X139697245Y-80320459D01*
X139702665Y-80320835D01*
G37*
%TD.AperFunction*%
%TD*%
%TA.AperFunction,Conductor*%
%TO.N,/AP_CS*%
G36*
X148977890Y-80597960D02*
G01*
X149196175Y-80687435D01*
X149202531Y-80693744D01*
X149202564Y-80693824D01*
X149292038Y-80912107D01*
X149292005Y-80921061D01*
X149287700Y-80926281D01*
X148960492Y-81144301D01*
X148951707Y-81146036D01*
X148945731Y-81142837D01*
X148747162Y-80944268D01*
X148743735Y-80935995D01*
X148745698Y-80929507D01*
X148963720Y-80602297D01*
X148971158Y-80597315D01*
X148977890Y-80597960D01*
G37*
%TD.AperFunction*%
%TD*%
%TA.AperFunction,Conductor*%
%TO.N,/AP_CS*%
G36*
X149103722Y-73852645D02*
G01*
X149108027Y-73857865D01*
X149199109Y-74075483D01*
X149199142Y-74084438D01*
X149199109Y-74084517D01*
X149108027Y-74302134D01*
X149101671Y-74308443D01*
X149094937Y-74309089D01*
X148709403Y-74231883D01*
X148701963Y-74226899D01*
X148700000Y-74220411D01*
X148700000Y-73939588D01*
X148703427Y-73931315D01*
X148709400Y-73928117D01*
X149094939Y-73850910D01*
X149103722Y-73852645D01*
G37*
%TD.AperFunction*%
%TD*%
%TA.AperFunction,Conductor*%
%TO.N,/AP_CS*%
G36*
X140057930Y-72302294D02*
G01*
X140822287Y-72619875D01*
X140828612Y-72626214D01*
X140828603Y-72635169D01*
X140827594Y-72637077D01*
X140143945Y-73683999D01*
X140136553Y-73689052D01*
X140127752Y-73687398D01*
X140125876Y-73685875D01*
X139924357Y-73484356D01*
X139923560Y-73483474D01*
X139455634Y-72909232D01*
X139453064Y-72900654D01*
X139456430Y-72893569D01*
X140045173Y-72304826D01*
X140053445Y-72301400D01*
X140057930Y-72302294D01*
G37*
%TD.AperFunction*%
%TD*%
%TA.AperFunction,Conductor*%
%TO.N,/AP_CS*%
G36*
X147938654Y-81021568D02*
G01*
X147941299Y-81023124D01*
X148389218Y-81286610D01*
X148391559Y-81288422D01*
X148591783Y-81488646D01*
X148595210Y-81496919D01*
X148591783Y-81505192D01*
X148589297Y-81507087D01*
X147950205Y-81870833D01*
X147941320Y-81871947D01*
X147936611Y-81869379D01*
X147478794Y-81459219D01*
X147474919Y-81451146D01*
X147477887Y-81442698D01*
X147478586Y-81441981D01*
X147924716Y-81023123D01*
X147933093Y-81019960D01*
X147938654Y-81021568D01*
G37*
%TD.AperFunction*%
%TD*%
%TA.AperFunction,Conductor*%
%TO.N,Net-(JP1-A)*%
G36*
X152234679Y-82097861D02*
G01*
X152238771Y-82102757D01*
X152517086Y-82725887D01*
X152517331Y-82734838D01*
X152514676Y-82738931D01*
X152314225Y-82939382D01*
X152305952Y-82942809D01*
X152300680Y-82941554D01*
X151603986Y-82589881D01*
X151598144Y-82583094D01*
X151598438Y-82574983D01*
X151756879Y-82190154D01*
X151763197Y-82183810D01*
X151765517Y-82183115D01*
X152225915Y-82096032D01*
X152234679Y-82097861D01*
G37*
%TD.AperFunction*%
%TD*%
%TA.AperFunction,Conductor*%
%TO.N,Net-(JP1-A)*%
G36*
X152662751Y-86003427D02*
G01*
X152663510Y-86004262D01*
X153353251Y-86841805D01*
X153355865Y-86850370D01*
X153352497Y-86857511D01*
X152518278Y-87692712D01*
X152510007Y-87696144D01*
X152501732Y-87692722D01*
X152501722Y-87692712D01*
X151667502Y-86857511D01*
X151664080Y-86849236D01*
X151666747Y-86841806D01*
X152356490Y-86004261D01*
X152364395Y-86000054D01*
X152365522Y-86000000D01*
X152654478Y-86000000D01*
X152662751Y-86003427D01*
G37*
%TD.AperFunction*%
%TD*%
%TA.AperFunction,Conductor*%
%TO.N,/DOUT_AD0_3V3*%
G36*
X135353003Y-80446133D02*
G01*
X135582805Y-80558977D01*
X135588721Y-80565699D01*
X135588150Y-80574636D01*
X135585921Y-80577752D01*
X135389146Y-80774527D01*
X135380873Y-80777954D01*
X135380008Y-80777922D01*
X135324886Y-80773836D01*
X135321025Y-80772871D01*
X135319991Y-80772414D01*
X135294875Y-80769501D01*
X135294872Y-80769500D01*
X135294865Y-80769500D01*
X135294857Y-80769500D01*
X135266815Y-80769500D01*
X135265950Y-80769468D01*
X134610171Y-80720857D01*
X134602174Y-80716828D01*
X134599361Y-80708422D01*
X134608155Y-80574636D01*
X134611143Y-80529169D01*
X134615105Y-80521140D01*
X134621639Y-80518297D01*
X135346672Y-80444995D01*
X135353003Y-80446133D01*
G37*
%TD.AperFunction*%
%TD*%
%TA.AperFunction,Conductor*%
%TO.N,/DOUT_AD0_3V3*%
G36*
X136478126Y-84893427D02*
G01*
X136481435Y-84900045D01*
X136504175Y-85059228D01*
X136501953Y-85067903D01*
X136500890Y-85069133D01*
X136338297Y-85232655D01*
X136330033Y-85236105D01*
X136321750Y-85232702D01*
X136321703Y-85232655D01*
X136235377Y-85145836D01*
X136159108Y-85069132D01*
X136155706Y-85060850D01*
X136155823Y-85059236D01*
X136178565Y-84900045D01*
X136183127Y-84892340D01*
X136190147Y-84890000D01*
X136469853Y-84890000D01*
X136478126Y-84893427D01*
G37*
%TD.AperFunction*%
%TD*%
%TA.AperFunction,Conductor*%
%TO.N,/SDA_DIN_3V3*%
G36*
X135350687Y-79759273D02*
G01*
X135595296Y-79865777D01*
X135601512Y-79872220D01*
X135601351Y-79881174D01*
X135598897Y-79884776D01*
X135402425Y-80081248D01*
X135394152Y-80084675D01*
X135393934Y-80084673D01*
X134617219Y-80070220D01*
X134609011Y-80066640D01*
X134605739Y-80058304D01*
X134605740Y-80058249D01*
X134611481Y-79879027D01*
X134615171Y-79870869D01*
X134621422Y-79867835D01*
X135344266Y-79758432D01*
X135350687Y-79759273D01*
G37*
%TD.AperFunction*%
%TD*%
%TA.AperFunction,Conductor*%
%TO.N,/SDA_DIN_3V3*%
G36*
X137134073Y-84593427D02*
G01*
X137137500Y-84601700D01*
X137137500Y-84881425D01*
X137137501Y-84881440D01*
X137138004Y-84884470D01*
X137135978Y-84893192D01*
X137135713Y-84893548D01*
X137001750Y-85066552D01*
X136993975Y-85070996D01*
X136985336Y-85068640D01*
X136983248Y-85066552D01*
X136820335Y-84856161D01*
X136817939Y-84847889D01*
X136841491Y-84600590D01*
X136845686Y-84592680D01*
X136853138Y-84590000D01*
X137125800Y-84590000D01*
X137134073Y-84593427D01*
G37*
%TD.AperFunction*%
%TD*%
%TA.AperFunction,Conductor*%
%TO.N,/SCL_SCLK_3V3*%
G36*
X135340169Y-79074903D02*
G01*
X135610715Y-79175889D01*
X135617268Y-79181992D01*
X135617585Y-79190941D01*
X135614897Y-79195123D01*
X135418341Y-79391679D01*
X135411856Y-79394969D01*
X135252694Y-79419583D01*
X135247396Y-79419181D01*
X134655252Y-79232960D01*
X134648388Y-79227209D01*
X134647601Y-79218289D01*
X134653352Y-79211425D01*
X134656456Y-79210329D01*
X135333776Y-79074393D01*
X135340169Y-79074903D01*
G37*
%TD.AperFunction*%
%TD*%
%TA.AperFunction,Conductor*%
%TO.N,/SCL_SCLK_3V3*%
G36*
X137634073Y-84593427D02*
G01*
X137637500Y-84601700D01*
X137637500Y-84881425D01*
X137637501Y-84881440D01*
X137638004Y-84884470D01*
X137635978Y-84893192D01*
X137635713Y-84893548D01*
X137501750Y-85066552D01*
X137493975Y-85070996D01*
X137485336Y-85068640D01*
X137483248Y-85066552D01*
X137345449Y-84888593D01*
X137343000Y-84881430D01*
X137343000Y-84601700D01*
X137346427Y-84593427D01*
X137354700Y-84590000D01*
X137625800Y-84590000D01*
X137634073Y-84593427D01*
G37*
%TD.AperFunction*%
%TD*%
%TA.AperFunction,Conductor*%
%TO.N,Net-(D4-A)*%
G36*
X147478142Y-78156890D02*
G01*
X147913106Y-78578400D01*
X147916663Y-78586618D01*
X147914795Y-78593146D01*
X147623456Y-79044644D01*
X147616091Y-79049737D01*
X147613625Y-79050000D01*
X147326375Y-79050000D01*
X147318102Y-79046573D01*
X147316544Y-79044644D01*
X147025204Y-78593146D01*
X147023598Y-78584336D01*
X147026891Y-78578402D01*
X147461858Y-78156889D01*
X147470184Y-78153593D01*
X147478142Y-78156890D01*
G37*
%TD.AperFunction*%
%TD*%
%TA.AperFunction,Conductor*%
%TO.N,Net-(D4-A)*%
G36*
X141265224Y-78418370D02*
G01*
X141272821Y-78423110D01*
X141275000Y-78429911D01*
X141275000Y-78710088D01*
X141271573Y-78718361D01*
X141265223Y-78721629D01*
X140977754Y-78769540D01*
X140972334Y-78769164D01*
X140372144Y-78581165D01*
X140365273Y-78575422D01*
X140364476Y-78566503D01*
X140370219Y-78559632D01*
X140372144Y-78558835D01*
X140972334Y-78370835D01*
X140977754Y-78370459D01*
X141265224Y-78418370D01*
G37*
%TD.AperFunction*%
%TD*%
%TA.AperFunction,Conductor*%
%TO.N,Net-(U3-OE)*%
G36*
X141265224Y-81668370D02*
G01*
X141272821Y-81673110D01*
X141275000Y-81679911D01*
X141275000Y-81960088D01*
X141271573Y-81968361D01*
X141265223Y-81971629D01*
X140977754Y-82019540D01*
X140972334Y-82019164D01*
X140372144Y-81831165D01*
X140365273Y-81825422D01*
X140364476Y-81816503D01*
X140370219Y-81809632D01*
X140372144Y-81808835D01*
X140972334Y-81620835D01*
X140977754Y-81620459D01*
X141265224Y-81668370D01*
G37*
%TD.AperFunction*%
%TD*%
%TA.AperFunction,Conductor*%
%TO.N,Net-(U3-OE)*%
G36*
X142409031Y-81467702D02*
G01*
X142719861Y-81881821D01*
X142722087Y-81890494D01*
X142718717Y-81897177D01*
X142358601Y-82252088D01*
X142350303Y-82255455D01*
X142343830Y-82253445D01*
X141930142Y-81973479D01*
X141925212Y-81966004D01*
X141925000Y-81963789D01*
X141925000Y-81677646D01*
X141928427Y-81669373D01*
X141932000Y-81666931D01*
X142394979Y-81464008D01*
X142403930Y-81463827D01*
X142409031Y-81467702D01*
G37*
%TD.AperFunction*%
%TD*%
M02*
