%TF.GenerationSoftware,KiCad,Pcbnew,8.0.3*%
%TF.CreationDate,2025-01-10T12:31:24+08:00*%
%TF.ProjectId,ICM-42688,49434d2d-3432-4363-9838-2e6b69636164,rev?*%
%TF.SameCoordinates,Original*%
%TF.FileFunction,Drillmap*%
%TF.FilePolarity,Positive*%
%FSLAX45Y45*%
G04 Gerber Fmt 4.5, Leading zero omitted, Abs format (unit mm)*
G04 Created by KiCad (PCBNEW 8.0.3) date 2025-01-10 12:31:24*
%MOMM*%
%LPD*%
G01*
G04 APERTURE LIST*
%ADD10C,0.050000*%
%ADD11C,0.200000*%
%ADD12C,0.100000*%
G04 APERTURE END LIST*
D10*
X12000000Y-9400000D02*
X12000000Y-7100000D01*
X12100000Y-9500000D02*
G75*
G02*
X12000000Y-9400000I0J100000D01*
G01*
X15500000Y-7100000D02*
X15500000Y-9400000D01*
X12000000Y-7100000D02*
G75*
G02*
X12100000Y-7000000I100000J0D01*
G01*
X12100000Y-7000000D02*
X15400000Y-7000000D01*
X15400000Y-7000000D02*
G75*
G02*
X15500000Y-7100000I0J-100000D01*
G01*
X15500000Y-9400000D02*
G75*
G02*
X15400000Y-9500000I-100000J0D01*
G01*
X15400000Y-9500000D02*
X12100000Y-9500000D01*
D11*
D12*
X12765000Y-8175000D02*
X12795000Y-8205000D01*
X12795000Y-8175000D02*
X12765000Y-8205000D01*
X12865000Y-8175000D02*
X12895000Y-8205000D01*
X12895000Y-8175000D02*
X12865000Y-8205000D01*
X12965000Y-8175000D02*
X12995000Y-8205000D01*
X12995000Y-8175000D02*
X12965000Y-8205000D01*
X13065000Y-8175000D02*
X13095000Y-8205000D01*
X13095000Y-8175000D02*
X13065000Y-8205000D01*
X13094000Y-7122000D02*
X13124000Y-7152000D01*
X13124000Y-7122000D02*
X13094000Y-7152000D01*
X13165000Y-8175000D02*
X13195000Y-8205000D01*
X13195000Y-8175000D02*
X13165000Y-8205000D01*
X13248000Y-7843000D02*
X13278000Y-7873000D01*
X13278000Y-7843000D02*
X13248000Y-7873000D01*
X13313000Y-8034000D02*
X13343000Y-8064000D01*
X13343000Y-8034000D02*
X13313000Y-8064000D01*
X13570000Y-8812000D02*
X13600000Y-8842000D01*
X13600000Y-8812000D02*
X13570000Y-8842000D01*
X13618000Y-8719000D02*
X13648000Y-8749000D01*
X13648000Y-8719000D02*
X13618000Y-8749000D01*
X13684250Y-8899000D02*
X13714250Y-8929000D01*
X13714250Y-8899000D02*
X13684250Y-8929000D01*
X13736000Y-8592000D02*
X13766000Y-8622000D01*
X13766000Y-8592000D02*
X13736000Y-8622000D01*
X13771000Y-8899000D02*
X13801000Y-8929000D01*
X13801000Y-8899000D02*
X13771000Y-8929000D01*
X13817000Y-8091000D02*
X13847000Y-8121000D01*
X13847000Y-8091000D02*
X13817000Y-8121000D01*
X13886000Y-8813000D02*
X13916000Y-8843000D01*
X13916000Y-8813000D02*
X13886000Y-8843000D01*
X14018750Y-7689250D02*
X14048750Y-7719250D01*
X14048750Y-7689250D02*
X14018750Y-7719250D01*
X14019000Y-8441000D02*
X14049000Y-8471000D01*
X14049000Y-8441000D02*
X14019000Y-8471000D01*
X14905000Y-7393000D02*
X14935000Y-7423000D01*
X14935000Y-7393000D02*
X14905000Y-7423000D01*
X14905000Y-8054000D02*
X14935000Y-8084000D01*
X14935000Y-8054000D02*
X14905000Y-8084000D01*
X15129000Y-7921000D02*
X15159000Y-7951000D01*
X15159000Y-7921000D02*
X15129000Y-7951000D01*
X12785000Y-7230000D02*
G75*
G02*
X12685000Y-7230000I-50000J0D01*
G01*
X12685000Y-7230000D02*
G75*
G02*
X12785000Y-7230000I50000J0D01*
G01*
X13039000Y-7230000D02*
G75*
G02*
X12939000Y-7230000I-50000J0D01*
G01*
X12939000Y-7230000D02*
G75*
G02*
X13039000Y-7230000I50000J0D01*
G01*
X13293000Y-7230000D02*
G75*
G02*
X13193000Y-7230000I-50000J0D01*
G01*
X13193000Y-7230000D02*
G75*
G02*
X13293000Y-7230000I50000J0D01*
G01*
X13547000Y-7230000D02*
G75*
G02*
X13447000Y-7230000I-50000J0D01*
G01*
X13447000Y-7230000D02*
G75*
G02*
X13547000Y-7230000I50000J0D01*
G01*
X13801000Y-7230000D02*
G75*
G02*
X13701000Y-7230000I-50000J0D01*
G01*
X13701000Y-7230000D02*
G75*
G02*
X13801000Y-7230000I50000J0D01*
G01*
X14055000Y-7230000D02*
G75*
G02*
X13955000Y-7230000I-50000J0D01*
G01*
X13955000Y-7230000D02*
G75*
G02*
X14055000Y-7230000I50000J0D01*
G01*
X14309000Y-7230000D02*
G75*
G02*
X14209000Y-7230000I-50000J0D01*
G01*
X14209000Y-7230000D02*
G75*
G02*
X14309000Y-7230000I50000J0D01*
G01*
X14563000Y-7230000D02*
G75*
G02*
X14463000Y-7230000I-50000J0D01*
G01*
X14463000Y-7230000D02*
G75*
G02*
X14563000Y-7230000I50000J0D01*
G01*
X14817000Y-7230000D02*
G75*
G02*
X14717000Y-7230000I-50000J0D01*
G01*
X14717000Y-7230000D02*
G75*
G02*
X14817000Y-7230000I50000J0D01*
G01*
X15047000Y-8770000D02*
G75*
G02*
X14947000Y-8770000I-50000J0D01*
G01*
X14947000Y-8770000D02*
G75*
G02*
X15047000Y-8770000I50000J0D01*
G01*
X15301000Y-8770000D02*
G75*
G02*
X15201000Y-8770000I-50000J0D01*
G01*
X15201000Y-8770000D02*
G75*
G02*
X15301000Y-8770000I50000J0D01*
G01*
D11*
X12258277Y-9813984D02*
X12258277Y-9613984D01*
X12258277Y-9613984D02*
X12305896Y-9613984D01*
X12305896Y-9613984D02*
X12334467Y-9623508D01*
X12334467Y-9623508D02*
X12353515Y-9642555D01*
X12353515Y-9642555D02*
X12363039Y-9661603D01*
X12363039Y-9661603D02*
X12372562Y-9699698D01*
X12372562Y-9699698D02*
X12372562Y-9728270D01*
X12372562Y-9728270D02*
X12363039Y-9766365D01*
X12363039Y-9766365D02*
X12353515Y-9785412D01*
X12353515Y-9785412D02*
X12334467Y-9804460D01*
X12334467Y-9804460D02*
X12305896Y-9813984D01*
X12305896Y-9813984D02*
X12258277Y-9813984D01*
X12458277Y-9813984D02*
X12458277Y-9680650D01*
X12458277Y-9718746D02*
X12467801Y-9699698D01*
X12467801Y-9699698D02*
X12477324Y-9690174D01*
X12477324Y-9690174D02*
X12496372Y-9680650D01*
X12496372Y-9680650D02*
X12515420Y-9680650D01*
X12582086Y-9813984D02*
X12582086Y-9680650D01*
X12582086Y-9613984D02*
X12572562Y-9623508D01*
X12572562Y-9623508D02*
X12582086Y-9633031D01*
X12582086Y-9633031D02*
X12591610Y-9623508D01*
X12591610Y-9623508D02*
X12582086Y-9613984D01*
X12582086Y-9613984D02*
X12582086Y-9633031D01*
X12705896Y-9813984D02*
X12686848Y-9804460D01*
X12686848Y-9804460D02*
X12677324Y-9785412D01*
X12677324Y-9785412D02*
X12677324Y-9613984D01*
X12810658Y-9813984D02*
X12791610Y-9804460D01*
X12791610Y-9804460D02*
X12782086Y-9785412D01*
X12782086Y-9785412D02*
X12782086Y-9613984D01*
X13039229Y-9813984D02*
X13039229Y-9613984D01*
X13039229Y-9613984D02*
X13105896Y-9756841D01*
X13105896Y-9756841D02*
X13172562Y-9613984D01*
X13172562Y-9613984D02*
X13172562Y-9813984D01*
X13353515Y-9813984D02*
X13353515Y-9709222D01*
X13353515Y-9709222D02*
X13343991Y-9690174D01*
X13343991Y-9690174D02*
X13324943Y-9680650D01*
X13324943Y-9680650D02*
X13286848Y-9680650D01*
X13286848Y-9680650D02*
X13267801Y-9690174D01*
X13353515Y-9804460D02*
X13334467Y-9813984D01*
X13334467Y-9813984D02*
X13286848Y-9813984D01*
X13286848Y-9813984D02*
X13267801Y-9804460D01*
X13267801Y-9804460D02*
X13258277Y-9785412D01*
X13258277Y-9785412D02*
X13258277Y-9766365D01*
X13258277Y-9766365D02*
X13267801Y-9747317D01*
X13267801Y-9747317D02*
X13286848Y-9737793D01*
X13286848Y-9737793D02*
X13334467Y-9737793D01*
X13334467Y-9737793D02*
X13353515Y-9728270D01*
X13448753Y-9680650D02*
X13448753Y-9880650D01*
X13448753Y-9690174D02*
X13467801Y-9680650D01*
X13467801Y-9680650D02*
X13505896Y-9680650D01*
X13505896Y-9680650D02*
X13524943Y-9690174D01*
X13524943Y-9690174D02*
X13534467Y-9699698D01*
X13534467Y-9699698D02*
X13543991Y-9718746D01*
X13543991Y-9718746D02*
X13543991Y-9775889D01*
X13543991Y-9775889D02*
X13534467Y-9794936D01*
X13534467Y-9794936D02*
X13524943Y-9804460D01*
X13524943Y-9804460D02*
X13505896Y-9813984D01*
X13505896Y-9813984D02*
X13467801Y-9813984D01*
X13467801Y-9813984D02*
X13448753Y-9804460D01*
X13629705Y-9794936D02*
X13639229Y-9804460D01*
X13639229Y-9804460D02*
X13629705Y-9813984D01*
X13629705Y-9813984D02*
X13620182Y-9804460D01*
X13620182Y-9804460D02*
X13629705Y-9794936D01*
X13629705Y-9794936D02*
X13629705Y-9813984D01*
X13629705Y-9690174D02*
X13639229Y-9699698D01*
X13639229Y-9699698D02*
X13629705Y-9709222D01*
X13629705Y-9709222D02*
X13620182Y-9699698D01*
X13620182Y-9699698D02*
X13629705Y-9690174D01*
X13629705Y-9690174D02*
X13629705Y-9709222D01*
D12*
X11967500Y-10127500D02*
X11997500Y-10157500D01*
X11997500Y-10127500D02*
X11967500Y-10157500D01*
D11*
X12296372Y-10033984D02*
X12315420Y-10033984D01*
X12315420Y-10033984D02*
X12334467Y-10043508D01*
X12334467Y-10043508D02*
X12343991Y-10053031D01*
X12343991Y-10053031D02*
X12353515Y-10072079D01*
X12353515Y-10072079D02*
X12363039Y-10110174D01*
X12363039Y-10110174D02*
X12363039Y-10157793D01*
X12363039Y-10157793D02*
X12353515Y-10195889D01*
X12353515Y-10195889D02*
X12343991Y-10214936D01*
X12343991Y-10214936D02*
X12334467Y-10224460D01*
X12334467Y-10224460D02*
X12315420Y-10233984D01*
X12315420Y-10233984D02*
X12296372Y-10233984D01*
X12296372Y-10233984D02*
X12277324Y-10224460D01*
X12277324Y-10224460D02*
X12267801Y-10214936D01*
X12267801Y-10214936D02*
X12258277Y-10195889D01*
X12258277Y-10195889D02*
X12248753Y-10157793D01*
X12248753Y-10157793D02*
X12248753Y-10110174D01*
X12248753Y-10110174D02*
X12258277Y-10072079D01*
X12258277Y-10072079D02*
X12267801Y-10053031D01*
X12267801Y-10053031D02*
X12277324Y-10043508D01*
X12277324Y-10043508D02*
X12296372Y-10033984D01*
X12448753Y-10214936D02*
X12458277Y-10224460D01*
X12458277Y-10224460D02*
X12448753Y-10233984D01*
X12448753Y-10233984D02*
X12439229Y-10224460D01*
X12439229Y-10224460D02*
X12448753Y-10214936D01*
X12448753Y-10214936D02*
X12448753Y-10233984D01*
X12524943Y-10033984D02*
X12648753Y-10033984D01*
X12648753Y-10033984D02*
X12582086Y-10110174D01*
X12582086Y-10110174D02*
X12610658Y-10110174D01*
X12610658Y-10110174D02*
X12629705Y-10119698D01*
X12629705Y-10119698D02*
X12639229Y-10129222D01*
X12639229Y-10129222D02*
X12648753Y-10148270D01*
X12648753Y-10148270D02*
X12648753Y-10195889D01*
X12648753Y-10195889D02*
X12639229Y-10214936D01*
X12639229Y-10214936D02*
X12629705Y-10224460D01*
X12629705Y-10224460D02*
X12610658Y-10233984D01*
X12610658Y-10233984D02*
X12553515Y-10233984D01*
X12553515Y-10233984D02*
X12534467Y-10224460D01*
X12534467Y-10224460D02*
X12524943Y-10214936D01*
X12772562Y-10033984D02*
X12791610Y-10033984D01*
X12791610Y-10033984D02*
X12810658Y-10043508D01*
X12810658Y-10043508D02*
X12820182Y-10053031D01*
X12820182Y-10053031D02*
X12829705Y-10072079D01*
X12829705Y-10072079D02*
X12839229Y-10110174D01*
X12839229Y-10110174D02*
X12839229Y-10157793D01*
X12839229Y-10157793D02*
X12829705Y-10195889D01*
X12829705Y-10195889D02*
X12820182Y-10214936D01*
X12820182Y-10214936D02*
X12810658Y-10224460D01*
X12810658Y-10224460D02*
X12791610Y-10233984D01*
X12791610Y-10233984D02*
X12772562Y-10233984D01*
X12772562Y-10233984D02*
X12753515Y-10224460D01*
X12753515Y-10224460D02*
X12743991Y-10214936D01*
X12743991Y-10214936D02*
X12734467Y-10195889D01*
X12734467Y-10195889D02*
X12724943Y-10157793D01*
X12724943Y-10157793D02*
X12724943Y-10110174D01*
X12724943Y-10110174D02*
X12734467Y-10072079D01*
X12734467Y-10072079D02*
X12743991Y-10053031D01*
X12743991Y-10053031D02*
X12753515Y-10043508D01*
X12753515Y-10043508D02*
X12772562Y-10033984D01*
X12963039Y-10033984D02*
X12982086Y-10033984D01*
X12982086Y-10033984D02*
X13001134Y-10043508D01*
X13001134Y-10043508D02*
X13010658Y-10053031D01*
X13010658Y-10053031D02*
X13020182Y-10072079D01*
X13020182Y-10072079D02*
X13029705Y-10110174D01*
X13029705Y-10110174D02*
X13029705Y-10157793D01*
X13029705Y-10157793D02*
X13020182Y-10195889D01*
X13020182Y-10195889D02*
X13010658Y-10214936D01*
X13010658Y-10214936D02*
X13001134Y-10224460D01*
X13001134Y-10224460D02*
X12982086Y-10233984D01*
X12982086Y-10233984D02*
X12963039Y-10233984D01*
X12963039Y-10233984D02*
X12943991Y-10224460D01*
X12943991Y-10224460D02*
X12934467Y-10214936D01*
X12934467Y-10214936D02*
X12924943Y-10195889D01*
X12924943Y-10195889D02*
X12915420Y-10157793D01*
X12915420Y-10157793D02*
X12915420Y-10110174D01*
X12915420Y-10110174D02*
X12924943Y-10072079D01*
X12924943Y-10072079D02*
X12934467Y-10053031D01*
X12934467Y-10053031D02*
X12943991Y-10043508D01*
X12943991Y-10043508D02*
X12963039Y-10033984D01*
X13115420Y-10233984D02*
X13115420Y-10100650D01*
X13115420Y-10119698D02*
X13124943Y-10110174D01*
X13124943Y-10110174D02*
X13143991Y-10100650D01*
X13143991Y-10100650D02*
X13172563Y-10100650D01*
X13172563Y-10100650D02*
X13191610Y-10110174D01*
X13191610Y-10110174D02*
X13201134Y-10129222D01*
X13201134Y-10129222D02*
X13201134Y-10233984D01*
X13201134Y-10129222D02*
X13210658Y-10110174D01*
X13210658Y-10110174D02*
X13229705Y-10100650D01*
X13229705Y-10100650D02*
X13258277Y-10100650D01*
X13258277Y-10100650D02*
X13277324Y-10110174D01*
X13277324Y-10110174D02*
X13286848Y-10129222D01*
X13286848Y-10129222D02*
X13286848Y-10233984D01*
X13382086Y-10233984D02*
X13382086Y-10100650D01*
X13382086Y-10119698D02*
X13391610Y-10110174D01*
X13391610Y-10110174D02*
X13410658Y-10100650D01*
X13410658Y-10100650D02*
X13439229Y-10100650D01*
X13439229Y-10100650D02*
X13458277Y-10110174D01*
X13458277Y-10110174D02*
X13467801Y-10129222D01*
X13467801Y-10129222D02*
X13467801Y-10233984D01*
X13467801Y-10129222D02*
X13477324Y-10110174D01*
X13477324Y-10110174D02*
X13496372Y-10100650D01*
X13496372Y-10100650D02*
X13524943Y-10100650D01*
X13524943Y-10100650D02*
X13543991Y-10110174D01*
X13543991Y-10110174D02*
X13553515Y-10129222D01*
X13553515Y-10129222D02*
X13553515Y-10233984D01*
X13943991Y-10024460D02*
X13772563Y-10281603D01*
X14201134Y-10033984D02*
X14220182Y-10033984D01*
X14220182Y-10033984D02*
X14239229Y-10043508D01*
X14239229Y-10043508D02*
X14248753Y-10053031D01*
X14248753Y-10053031D02*
X14258277Y-10072079D01*
X14258277Y-10072079D02*
X14267801Y-10110174D01*
X14267801Y-10110174D02*
X14267801Y-10157793D01*
X14267801Y-10157793D02*
X14258277Y-10195889D01*
X14258277Y-10195889D02*
X14248753Y-10214936D01*
X14248753Y-10214936D02*
X14239229Y-10224460D01*
X14239229Y-10224460D02*
X14220182Y-10233984D01*
X14220182Y-10233984D02*
X14201134Y-10233984D01*
X14201134Y-10233984D02*
X14182086Y-10224460D01*
X14182086Y-10224460D02*
X14172563Y-10214936D01*
X14172563Y-10214936D02*
X14163039Y-10195889D01*
X14163039Y-10195889D02*
X14153515Y-10157793D01*
X14153515Y-10157793D02*
X14153515Y-10110174D01*
X14153515Y-10110174D02*
X14163039Y-10072079D01*
X14163039Y-10072079D02*
X14172563Y-10053031D01*
X14172563Y-10053031D02*
X14182086Y-10043508D01*
X14182086Y-10043508D02*
X14201134Y-10033984D01*
X14353515Y-10214936D02*
X14363039Y-10224460D01*
X14363039Y-10224460D02*
X14353515Y-10233984D01*
X14353515Y-10233984D02*
X14343991Y-10224460D01*
X14343991Y-10224460D02*
X14353515Y-10214936D01*
X14353515Y-10214936D02*
X14353515Y-10233984D01*
X14486848Y-10033984D02*
X14505896Y-10033984D01*
X14505896Y-10033984D02*
X14524944Y-10043508D01*
X14524944Y-10043508D02*
X14534467Y-10053031D01*
X14534467Y-10053031D02*
X14543991Y-10072079D01*
X14543991Y-10072079D02*
X14553515Y-10110174D01*
X14553515Y-10110174D02*
X14553515Y-10157793D01*
X14553515Y-10157793D02*
X14543991Y-10195889D01*
X14543991Y-10195889D02*
X14534467Y-10214936D01*
X14534467Y-10214936D02*
X14524944Y-10224460D01*
X14524944Y-10224460D02*
X14505896Y-10233984D01*
X14505896Y-10233984D02*
X14486848Y-10233984D01*
X14486848Y-10233984D02*
X14467801Y-10224460D01*
X14467801Y-10224460D02*
X14458277Y-10214936D01*
X14458277Y-10214936D02*
X14448753Y-10195889D01*
X14448753Y-10195889D02*
X14439229Y-10157793D01*
X14439229Y-10157793D02*
X14439229Y-10110174D01*
X14439229Y-10110174D02*
X14448753Y-10072079D01*
X14448753Y-10072079D02*
X14458277Y-10053031D01*
X14458277Y-10053031D02*
X14467801Y-10043508D01*
X14467801Y-10043508D02*
X14486848Y-10033984D01*
X14743991Y-10233984D02*
X14629706Y-10233984D01*
X14686848Y-10233984D02*
X14686848Y-10033984D01*
X14686848Y-10033984D02*
X14667801Y-10062555D01*
X14667801Y-10062555D02*
X14648753Y-10081603D01*
X14648753Y-10081603D02*
X14629706Y-10091127D01*
X14934467Y-10233984D02*
X14820182Y-10233984D01*
X14877325Y-10233984D02*
X14877325Y-10033984D01*
X14877325Y-10033984D02*
X14858277Y-10062555D01*
X14858277Y-10062555D02*
X14839229Y-10081603D01*
X14839229Y-10081603D02*
X14820182Y-10091127D01*
X15048753Y-10119698D02*
X15029706Y-10110174D01*
X15029706Y-10110174D02*
X15020182Y-10100650D01*
X15020182Y-10100650D02*
X15010658Y-10081603D01*
X15010658Y-10081603D02*
X15010658Y-10072079D01*
X15010658Y-10072079D02*
X15020182Y-10053031D01*
X15020182Y-10053031D02*
X15029706Y-10043508D01*
X15029706Y-10043508D02*
X15048753Y-10033984D01*
X15048753Y-10033984D02*
X15086848Y-10033984D01*
X15086848Y-10033984D02*
X15105896Y-10043508D01*
X15105896Y-10043508D02*
X15115420Y-10053031D01*
X15115420Y-10053031D02*
X15124944Y-10072079D01*
X15124944Y-10072079D02*
X15124944Y-10081603D01*
X15124944Y-10081603D02*
X15115420Y-10100650D01*
X15115420Y-10100650D02*
X15105896Y-10110174D01*
X15105896Y-10110174D02*
X15086848Y-10119698D01*
X15086848Y-10119698D02*
X15048753Y-10119698D01*
X15048753Y-10119698D02*
X15029706Y-10129222D01*
X15029706Y-10129222D02*
X15020182Y-10138746D01*
X15020182Y-10138746D02*
X15010658Y-10157793D01*
X15010658Y-10157793D02*
X15010658Y-10195889D01*
X15010658Y-10195889D02*
X15020182Y-10214936D01*
X15020182Y-10214936D02*
X15029706Y-10224460D01*
X15029706Y-10224460D02*
X15048753Y-10233984D01*
X15048753Y-10233984D02*
X15086848Y-10233984D01*
X15086848Y-10233984D02*
X15105896Y-10224460D01*
X15105896Y-10224460D02*
X15115420Y-10214936D01*
X15115420Y-10214936D02*
X15124944Y-10195889D01*
X15124944Y-10195889D02*
X15124944Y-10157793D01*
X15124944Y-10157793D02*
X15115420Y-10138746D01*
X15115420Y-10138746D02*
X15105896Y-10129222D01*
X15105896Y-10129222D02*
X15086848Y-10119698D01*
X15201134Y-10033984D02*
X15201134Y-10072079D01*
X15277325Y-10033984D02*
X15277325Y-10072079D01*
X15572563Y-10310174D02*
X15563039Y-10300650D01*
X15563039Y-10300650D02*
X15543991Y-10272079D01*
X15543991Y-10272079D02*
X15534468Y-10253031D01*
X15534468Y-10253031D02*
X15524944Y-10224460D01*
X15524944Y-10224460D02*
X15515420Y-10176841D01*
X15515420Y-10176841D02*
X15515420Y-10138746D01*
X15515420Y-10138746D02*
X15524944Y-10091127D01*
X15524944Y-10091127D02*
X15534468Y-10062555D01*
X15534468Y-10062555D02*
X15543991Y-10043508D01*
X15543991Y-10043508D02*
X15563039Y-10014936D01*
X15563039Y-10014936D02*
X15572563Y-10005412D01*
X15639229Y-10053031D02*
X15648753Y-10043508D01*
X15648753Y-10043508D02*
X15667801Y-10033984D01*
X15667801Y-10033984D02*
X15715420Y-10033984D01*
X15715420Y-10033984D02*
X15734468Y-10043508D01*
X15734468Y-10043508D02*
X15743991Y-10053031D01*
X15743991Y-10053031D02*
X15753515Y-10072079D01*
X15753515Y-10072079D02*
X15753515Y-10091127D01*
X15753515Y-10091127D02*
X15743991Y-10119698D01*
X15743991Y-10119698D02*
X15629706Y-10233984D01*
X15629706Y-10233984D02*
X15753515Y-10233984D01*
X15877325Y-10033984D02*
X15896372Y-10033984D01*
X15896372Y-10033984D02*
X15915420Y-10043508D01*
X15915420Y-10043508D02*
X15924944Y-10053031D01*
X15924944Y-10053031D02*
X15934468Y-10072079D01*
X15934468Y-10072079D02*
X15943991Y-10110174D01*
X15943991Y-10110174D02*
X15943991Y-10157793D01*
X15943991Y-10157793D02*
X15934468Y-10195889D01*
X15934468Y-10195889D02*
X15924944Y-10214936D01*
X15924944Y-10214936D02*
X15915420Y-10224460D01*
X15915420Y-10224460D02*
X15896372Y-10233984D01*
X15896372Y-10233984D02*
X15877325Y-10233984D01*
X15877325Y-10233984D02*
X15858277Y-10224460D01*
X15858277Y-10224460D02*
X15848753Y-10214936D01*
X15848753Y-10214936D02*
X15839229Y-10195889D01*
X15839229Y-10195889D02*
X15829706Y-10157793D01*
X15829706Y-10157793D02*
X15829706Y-10110174D01*
X15829706Y-10110174D02*
X15839229Y-10072079D01*
X15839229Y-10072079D02*
X15848753Y-10053031D01*
X15848753Y-10053031D02*
X15858277Y-10043508D01*
X15858277Y-10043508D02*
X15877325Y-10033984D01*
X16182087Y-10233984D02*
X16182087Y-10033984D01*
X16267801Y-10233984D02*
X16267801Y-10129222D01*
X16267801Y-10129222D02*
X16258277Y-10110174D01*
X16258277Y-10110174D02*
X16239230Y-10100650D01*
X16239230Y-10100650D02*
X16210658Y-10100650D01*
X16210658Y-10100650D02*
X16191610Y-10110174D01*
X16191610Y-10110174D02*
X16182087Y-10119698D01*
X16391610Y-10233984D02*
X16372563Y-10224460D01*
X16372563Y-10224460D02*
X16363039Y-10214936D01*
X16363039Y-10214936D02*
X16353515Y-10195889D01*
X16353515Y-10195889D02*
X16353515Y-10138746D01*
X16353515Y-10138746D02*
X16363039Y-10119698D01*
X16363039Y-10119698D02*
X16372563Y-10110174D01*
X16372563Y-10110174D02*
X16391610Y-10100650D01*
X16391610Y-10100650D02*
X16420182Y-10100650D01*
X16420182Y-10100650D02*
X16439230Y-10110174D01*
X16439230Y-10110174D02*
X16448753Y-10119698D01*
X16448753Y-10119698D02*
X16458277Y-10138746D01*
X16458277Y-10138746D02*
X16458277Y-10195889D01*
X16458277Y-10195889D02*
X16448753Y-10214936D01*
X16448753Y-10214936D02*
X16439230Y-10224460D01*
X16439230Y-10224460D02*
X16420182Y-10233984D01*
X16420182Y-10233984D02*
X16391610Y-10233984D01*
X16572563Y-10233984D02*
X16553515Y-10224460D01*
X16553515Y-10224460D02*
X16543991Y-10205412D01*
X16543991Y-10205412D02*
X16543991Y-10033984D01*
X16724944Y-10224460D02*
X16705896Y-10233984D01*
X16705896Y-10233984D02*
X16667801Y-10233984D01*
X16667801Y-10233984D02*
X16648753Y-10224460D01*
X16648753Y-10224460D02*
X16639230Y-10205412D01*
X16639230Y-10205412D02*
X16639230Y-10129222D01*
X16639230Y-10129222D02*
X16648753Y-10110174D01*
X16648753Y-10110174D02*
X16667801Y-10100650D01*
X16667801Y-10100650D02*
X16705896Y-10100650D01*
X16705896Y-10100650D02*
X16724944Y-10110174D01*
X16724944Y-10110174D02*
X16734468Y-10129222D01*
X16734468Y-10129222D02*
X16734468Y-10148270D01*
X16734468Y-10148270D02*
X16639230Y-10167317D01*
X16810658Y-10224460D02*
X16829706Y-10233984D01*
X16829706Y-10233984D02*
X16867801Y-10233984D01*
X16867801Y-10233984D02*
X16886849Y-10224460D01*
X16886849Y-10224460D02*
X16896373Y-10205412D01*
X16896373Y-10205412D02*
X16896373Y-10195889D01*
X16896373Y-10195889D02*
X16886849Y-10176841D01*
X16886849Y-10176841D02*
X16867801Y-10167317D01*
X16867801Y-10167317D02*
X16839230Y-10167317D01*
X16839230Y-10167317D02*
X16820182Y-10157793D01*
X16820182Y-10157793D02*
X16810658Y-10138746D01*
X16810658Y-10138746D02*
X16810658Y-10129222D01*
X16810658Y-10129222D02*
X16820182Y-10110174D01*
X16820182Y-10110174D02*
X16839230Y-10100650D01*
X16839230Y-10100650D02*
X16867801Y-10100650D01*
X16867801Y-10100650D02*
X16886849Y-10110174D01*
X16963039Y-10310174D02*
X16972563Y-10300650D01*
X16972563Y-10300650D02*
X16991611Y-10272079D01*
X16991611Y-10272079D02*
X17001134Y-10253031D01*
X17001134Y-10253031D02*
X17010658Y-10224460D01*
X17010658Y-10224460D02*
X17020182Y-10176841D01*
X17020182Y-10176841D02*
X17020182Y-10138746D01*
X17020182Y-10138746D02*
X17010658Y-10091127D01*
X17010658Y-10091127D02*
X17001134Y-10062555D01*
X17001134Y-10062555D02*
X16991611Y-10043508D01*
X16991611Y-10043508D02*
X16972563Y-10014936D01*
X16972563Y-10014936D02*
X16963039Y-10005412D01*
D12*
X11997500Y-10406500D02*
G75*
G02*
X11897500Y-10406500I-50000J0D01*
G01*
X11897500Y-10406500D02*
G75*
G02*
X11997500Y-10406500I50000J0D01*
G01*
D11*
X12363039Y-10497984D02*
X12248753Y-10497984D01*
X12305896Y-10497984D02*
X12305896Y-10297984D01*
X12305896Y-10297984D02*
X12286848Y-10326555D01*
X12286848Y-10326555D02*
X12267801Y-10345603D01*
X12267801Y-10345603D02*
X12248753Y-10355127D01*
X12448753Y-10478936D02*
X12458277Y-10488460D01*
X12458277Y-10488460D02*
X12448753Y-10497984D01*
X12448753Y-10497984D02*
X12439229Y-10488460D01*
X12439229Y-10488460D02*
X12448753Y-10478936D01*
X12448753Y-10478936D02*
X12448753Y-10497984D01*
X12582086Y-10297984D02*
X12601134Y-10297984D01*
X12601134Y-10297984D02*
X12620182Y-10307508D01*
X12620182Y-10307508D02*
X12629705Y-10317031D01*
X12629705Y-10317031D02*
X12639229Y-10336079D01*
X12639229Y-10336079D02*
X12648753Y-10374174D01*
X12648753Y-10374174D02*
X12648753Y-10421793D01*
X12648753Y-10421793D02*
X12639229Y-10459889D01*
X12639229Y-10459889D02*
X12629705Y-10478936D01*
X12629705Y-10478936D02*
X12620182Y-10488460D01*
X12620182Y-10488460D02*
X12601134Y-10497984D01*
X12601134Y-10497984D02*
X12582086Y-10497984D01*
X12582086Y-10497984D02*
X12563039Y-10488460D01*
X12563039Y-10488460D02*
X12553515Y-10478936D01*
X12553515Y-10478936D02*
X12543991Y-10459889D01*
X12543991Y-10459889D02*
X12534467Y-10421793D01*
X12534467Y-10421793D02*
X12534467Y-10374174D01*
X12534467Y-10374174D02*
X12543991Y-10336079D01*
X12543991Y-10336079D02*
X12553515Y-10317031D01*
X12553515Y-10317031D02*
X12563039Y-10307508D01*
X12563039Y-10307508D02*
X12582086Y-10297984D01*
X12772562Y-10297984D02*
X12791610Y-10297984D01*
X12791610Y-10297984D02*
X12810658Y-10307508D01*
X12810658Y-10307508D02*
X12820182Y-10317031D01*
X12820182Y-10317031D02*
X12829705Y-10336079D01*
X12829705Y-10336079D02*
X12839229Y-10374174D01*
X12839229Y-10374174D02*
X12839229Y-10421793D01*
X12839229Y-10421793D02*
X12829705Y-10459889D01*
X12829705Y-10459889D02*
X12820182Y-10478936D01*
X12820182Y-10478936D02*
X12810658Y-10488460D01*
X12810658Y-10488460D02*
X12791610Y-10497984D01*
X12791610Y-10497984D02*
X12772562Y-10497984D01*
X12772562Y-10497984D02*
X12753515Y-10488460D01*
X12753515Y-10488460D02*
X12743991Y-10478936D01*
X12743991Y-10478936D02*
X12734467Y-10459889D01*
X12734467Y-10459889D02*
X12724943Y-10421793D01*
X12724943Y-10421793D02*
X12724943Y-10374174D01*
X12724943Y-10374174D02*
X12734467Y-10336079D01*
X12734467Y-10336079D02*
X12743991Y-10317031D01*
X12743991Y-10317031D02*
X12753515Y-10307508D01*
X12753515Y-10307508D02*
X12772562Y-10297984D01*
X12963039Y-10297984D02*
X12982086Y-10297984D01*
X12982086Y-10297984D02*
X13001134Y-10307508D01*
X13001134Y-10307508D02*
X13010658Y-10317031D01*
X13010658Y-10317031D02*
X13020182Y-10336079D01*
X13020182Y-10336079D02*
X13029705Y-10374174D01*
X13029705Y-10374174D02*
X13029705Y-10421793D01*
X13029705Y-10421793D02*
X13020182Y-10459889D01*
X13020182Y-10459889D02*
X13010658Y-10478936D01*
X13010658Y-10478936D02*
X13001134Y-10488460D01*
X13001134Y-10488460D02*
X12982086Y-10497984D01*
X12982086Y-10497984D02*
X12963039Y-10497984D01*
X12963039Y-10497984D02*
X12943991Y-10488460D01*
X12943991Y-10488460D02*
X12934467Y-10478936D01*
X12934467Y-10478936D02*
X12924943Y-10459889D01*
X12924943Y-10459889D02*
X12915420Y-10421793D01*
X12915420Y-10421793D02*
X12915420Y-10374174D01*
X12915420Y-10374174D02*
X12924943Y-10336079D01*
X12924943Y-10336079D02*
X12934467Y-10317031D01*
X12934467Y-10317031D02*
X12943991Y-10307508D01*
X12943991Y-10307508D02*
X12963039Y-10297984D01*
X13115420Y-10497984D02*
X13115420Y-10364650D01*
X13115420Y-10383698D02*
X13124943Y-10374174D01*
X13124943Y-10374174D02*
X13143991Y-10364650D01*
X13143991Y-10364650D02*
X13172563Y-10364650D01*
X13172563Y-10364650D02*
X13191610Y-10374174D01*
X13191610Y-10374174D02*
X13201134Y-10393222D01*
X13201134Y-10393222D02*
X13201134Y-10497984D01*
X13201134Y-10393222D02*
X13210658Y-10374174D01*
X13210658Y-10374174D02*
X13229705Y-10364650D01*
X13229705Y-10364650D02*
X13258277Y-10364650D01*
X13258277Y-10364650D02*
X13277324Y-10374174D01*
X13277324Y-10374174D02*
X13286848Y-10393222D01*
X13286848Y-10393222D02*
X13286848Y-10497984D01*
X13382086Y-10497984D02*
X13382086Y-10364650D01*
X13382086Y-10383698D02*
X13391610Y-10374174D01*
X13391610Y-10374174D02*
X13410658Y-10364650D01*
X13410658Y-10364650D02*
X13439229Y-10364650D01*
X13439229Y-10364650D02*
X13458277Y-10374174D01*
X13458277Y-10374174D02*
X13467801Y-10393222D01*
X13467801Y-10393222D02*
X13467801Y-10497984D01*
X13467801Y-10393222D02*
X13477324Y-10374174D01*
X13477324Y-10374174D02*
X13496372Y-10364650D01*
X13496372Y-10364650D02*
X13524943Y-10364650D01*
X13524943Y-10364650D02*
X13543991Y-10374174D01*
X13543991Y-10374174D02*
X13553515Y-10393222D01*
X13553515Y-10393222D02*
X13553515Y-10497984D01*
X13943991Y-10288460D02*
X13772563Y-10545603D01*
X14201134Y-10297984D02*
X14220182Y-10297984D01*
X14220182Y-10297984D02*
X14239229Y-10307508D01*
X14239229Y-10307508D02*
X14248753Y-10317031D01*
X14248753Y-10317031D02*
X14258277Y-10336079D01*
X14258277Y-10336079D02*
X14267801Y-10374174D01*
X14267801Y-10374174D02*
X14267801Y-10421793D01*
X14267801Y-10421793D02*
X14258277Y-10459889D01*
X14258277Y-10459889D02*
X14248753Y-10478936D01*
X14248753Y-10478936D02*
X14239229Y-10488460D01*
X14239229Y-10488460D02*
X14220182Y-10497984D01*
X14220182Y-10497984D02*
X14201134Y-10497984D01*
X14201134Y-10497984D02*
X14182086Y-10488460D01*
X14182086Y-10488460D02*
X14172563Y-10478936D01*
X14172563Y-10478936D02*
X14163039Y-10459889D01*
X14163039Y-10459889D02*
X14153515Y-10421793D01*
X14153515Y-10421793D02*
X14153515Y-10374174D01*
X14153515Y-10374174D02*
X14163039Y-10336079D01*
X14163039Y-10336079D02*
X14172563Y-10317031D01*
X14172563Y-10317031D02*
X14182086Y-10307508D01*
X14182086Y-10307508D02*
X14201134Y-10297984D01*
X14353515Y-10478936D02*
X14363039Y-10488460D01*
X14363039Y-10488460D02*
X14353515Y-10497984D01*
X14353515Y-10497984D02*
X14343991Y-10488460D01*
X14343991Y-10488460D02*
X14353515Y-10478936D01*
X14353515Y-10478936D02*
X14353515Y-10497984D01*
X14486848Y-10297984D02*
X14505896Y-10297984D01*
X14505896Y-10297984D02*
X14524944Y-10307508D01*
X14524944Y-10307508D02*
X14534467Y-10317031D01*
X14534467Y-10317031D02*
X14543991Y-10336079D01*
X14543991Y-10336079D02*
X14553515Y-10374174D01*
X14553515Y-10374174D02*
X14553515Y-10421793D01*
X14553515Y-10421793D02*
X14543991Y-10459889D01*
X14543991Y-10459889D02*
X14534467Y-10478936D01*
X14534467Y-10478936D02*
X14524944Y-10488460D01*
X14524944Y-10488460D02*
X14505896Y-10497984D01*
X14505896Y-10497984D02*
X14486848Y-10497984D01*
X14486848Y-10497984D02*
X14467801Y-10488460D01*
X14467801Y-10488460D02*
X14458277Y-10478936D01*
X14458277Y-10478936D02*
X14448753Y-10459889D01*
X14448753Y-10459889D02*
X14439229Y-10421793D01*
X14439229Y-10421793D02*
X14439229Y-10374174D01*
X14439229Y-10374174D02*
X14448753Y-10336079D01*
X14448753Y-10336079D02*
X14458277Y-10317031D01*
X14458277Y-10317031D02*
X14467801Y-10307508D01*
X14467801Y-10307508D02*
X14486848Y-10297984D01*
X14620182Y-10297984D02*
X14743991Y-10297984D01*
X14743991Y-10297984D02*
X14677325Y-10374174D01*
X14677325Y-10374174D02*
X14705896Y-10374174D01*
X14705896Y-10374174D02*
X14724944Y-10383698D01*
X14724944Y-10383698D02*
X14734467Y-10393222D01*
X14734467Y-10393222D02*
X14743991Y-10412270D01*
X14743991Y-10412270D02*
X14743991Y-10459889D01*
X14743991Y-10459889D02*
X14734467Y-10478936D01*
X14734467Y-10478936D02*
X14724944Y-10488460D01*
X14724944Y-10488460D02*
X14705896Y-10497984D01*
X14705896Y-10497984D02*
X14648753Y-10497984D01*
X14648753Y-10497984D02*
X14629706Y-10488460D01*
X14629706Y-10488460D02*
X14620182Y-10478936D01*
X14839229Y-10497984D02*
X14877325Y-10497984D01*
X14877325Y-10497984D02*
X14896372Y-10488460D01*
X14896372Y-10488460D02*
X14905896Y-10478936D01*
X14905896Y-10478936D02*
X14924944Y-10450365D01*
X14924944Y-10450365D02*
X14934467Y-10412270D01*
X14934467Y-10412270D02*
X14934467Y-10336079D01*
X14934467Y-10336079D02*
X14924944Y-10317031D01*
X14924944Y-10317031D02*
X14915420Y-10307508D01*
X14915420Y-10307508D02*
X14896372Y-10297984D01*
X14896372Y-10297984D02*
X14858277Y-10297984D01*
X14858277Y-10297984D02*
X14839229Y-10307508D01*
X14839229Y-10307508D02*
X14829706Y-10317031D01*
X14829706Y-10317031D02*
X14820182Y-10336079D01*
X14820182Y-10336079D02*
X14820182Y-10383698D01*
X14820182Y-10383698D02*
X14829706Y-10402746D01*
X14829706Y-10402746D02*
X14839229Y-10412270D01*
X14839229Y-10412270D02*
X14858277Y-10421793D01*
X14858277Y-10421793D02*
X14896372Y-10421793D01*
X14896372Y-10421793D02*
X14915420Y-10412270D01*
X14915420Y-10412270D02*
X14924944Y-10402746D01*
X14924944Y-10402746D02*
X14934467Y-10383698D01*
X15105896Y-10364650D02*
X15105896Y-10497984D01*
X15058277Y-10288460D02*
X15010658Y-10431317D01*
X15010658Y-10431317D02*
X15134467Y-10431317D01*
X15201134Y-10297984D02*
X15201134Y-10336079D01*
X15277325Y-10297984D02*
X15277325Y-10336079D01*
X15572563Y-10574174D02*
X15563039Y-10564650D01*
X15563039Y-10564650D02*
X15543991Y-10536079D01*
X15543991Y-10536079D02*
X15534468Y-10517031D01*
X15534468Y-10517031D02*
X15524944Y-10488460D01*
X15524944Y-10488460D02*
X15515420Y-10440841D01*
X15515420Y-10440841D02*
X15515420Y-10402746D01*
X15515420Y-10402746D02*
X15524944Y-10355127D01*
X15524944Y-10355127D02*
X15534468Y-10326555D01*
X15534468Y-10326555D02*
X15543991Y-10307508D01*
X15543991Y-10307508D02*
X15563039Y-10278936D01*
X15563039Y-10278936D02*
X15572563Y-10269412D01*
X15753515Y-10497984D02*
X15639229Y-10497984D01*
X15696372Y-10497984D02*
X15696372Y-10297984D01*
X15696372Y-10297984D02*
X15677325Y-10326555D01*
X15677325Y-10326555D02*
X15658277Y-10345603D01*
X15658277Y-10345603D02*
X15639229Y-10355127D01*
X15943991Y-10497984D02*
X15829706Y-10497984D01*
X15886848Y-10497984D02*
X15886848Y-10297984D01*
X15886848Y-10297984D02*
X15867801Y-10326555D01*
X15867801Y-10326555D02*
X15848753Y-10345603D01*
X15848753Y-10345603D02*
X15829706Y-10355127D01*
X16182087Y-10497984D02*
X16182087Y-10297984D01*
X16267801Y-10497984D02*
X16267801Y-10393222D01*
X16267801Y-10393222D02*
X16258277Y-10374174D01*
X16258277Y-10374174D02*
X16239230Y-10364650D01*
X16239230Y-10364650D02*
X16210658Y-10364650D01*
X16210658Y-10364650D02*
X16191610Y-10374174D01*
X16191610Y-10374174D02*
X16182087Y-10383698D01*
X16391610Y-10497984D02*
X16372563Y-10488460D01*
X16372563Y-10488460D02*
X16363039Y-10478936D01*
X16363039Y-10478936D02*
X16353515Y-10459889D01*
X16353515Y-10459889D02*
X16353515Y-10402746D01*
X16353515Y-10402746D02*
X16363039Y-10383698D01*
X16363039Y-10383698D02*
X16372563Y-10374174D01*
X16372563Y-10374174D02*
X16391610Y-10364650D01*
X16391610Y-10364650D02*
X16420182Y-10364650D01*
X16420182Y-10364650D02*
X16439230Y-10374174D01*
X16439230Y-10374174D02*
X16448753Y-10383698D01*
X16448753Y-10383698D02*
X16458277Y-10402746D01*
X16458277Y-10402746D02*
X16458277Y-10459889D01*
X16458277Y-10459889D02*
X16448753Y-10478936D01*
X16448753Y-10478936D02*
X16439230Y-10488460D01*
X16439230Y-10488460D02*
X16420182Y-10497984D01*
X16420182Y-10497984D02*
X16391610Y-10497984D01*
X16572563Y-10497984D02*
X16553515Y-10488460D01*
X16553515Y-10488460D02*
X16543991Y-10469412D01*
X16543991Y-10469412D02*
X16543991Y-10297984D01*
X16724944Y-10488460D02*
X16705896Y-10497984D01*
X16705896Y-10497984D02*
X16667801Y-10497984D01*
X16667801Y-10497984D02*
X16648753Y-10488460D01*
X16648753Y-10488460D02*
X16639230Y-10469412D01*
X16639230Y-10469412D02*
X16639230Y-10393222D01*
X16639230Y-10393222D02*
X16648753Y-10374174D01*
X16648753Y-10374174D02*
X16667801Y-10364650D01*
X16667801Y-10364650D02*
X16705896Y-10364650D01*
X16705896Y-10364650D02*
X16724944Y-10374174D01*
X16724944Y-10374174D02*
X16734468Y-10393222D01*
X16734468Y-10393222D02*
X16734468Y-10412270D01*
X16734468Y-10412270D02*
X16639230Y-10431317D01*
X16810658Y-10488460D02*
X16829706Y-10497984D01*
X16829706Y-10497984D02*
X16867801Y-10497984D01*
X16867801Y-10497984D02*
X16886849Y-10488460D01*
X16886849Y-10488460D02*
X16896373Y-10469412D01*
X16896373Y-10469412D02*
X16896373Y-10459889D01*
X16896373Y-10459889D02*
X16886849Y-10440841D01*
X16886849Y-10440841D02*
X16867801Y-10431317D01*
X16867801Y-10431317D02*
X16839230Y-10431317D01*
X16839230Y-10431317D02*
X16820182Y-10421793D01*
X16820182Y-10421793D02*
X16810658Y-10402746D01*
X16810658Y-10402746D02*
X16810658Y-10393222D01*
X16810658Y-10393222D02*
X16820182Y-10374174D01*
X16820182Y-10374174D02*
X16839230Y-10364650D01*
X16839230Y-10364650D02*
X16867801Y-10364650D01*
X16867801Y-10364650D02*
X16886849Y-10374174D01*
X16963039Y-10574174D02*
X16972563Y-10564650D01*
X16972563Y-10564650D02*
X16991611Y-10536079D01*
X16991611Y-10536079D02*
X17001134Y-10517031D01*
X17001134Y-10517031D02*
X17010658Y-10488460D01*
X17010658Y-10488460D02*
X17020182Y-10440841D01*
X17020182Y-10440841D02*
X17020182Y-10402746D01*
X17020182Y-10402746D02*
X17010658Y-10355127D01*
X17010658Y-10355127D02*
X17001134Y-10326555D01*
X17001134Y-10326555D02*
X16991611Y-10307508D01*
X16991611Y-10307508D02*
X16972563Y-10278936D01*
X16972563Y-10278936D02*
X16963039Y-10269412D01*
M02*
