%TF.GenerationSoftware,KiCad,Pcbnew,8.0.3*%
%TF.CreationDate,2024-12-25T15:45:28+08:00*%
%TF.ProjectId,ICM-42688,49434d2d-3432-4363-9838-2e6b69636164,rev?*%
%TF.SameCoordinates,Original*%
%TF.FileFunction,Copper,L2,Bot*%
%TF.FilePolarity,Positive*%
%FSLAX46Y46*%
G04 Gerber Fmt 4.6, Leading zero omitted, Abs format (unit mm)*
G04 Created by KiCad (PCBNEW 8.0.3) date 2024-12-25 15:45:28*
%MOMM*%
%LPD*%
G01*
G04 APERTURE LIST*
%TA.AperFunction,ComponentPad*%
%ADD10R,1.700000X1.700000*%
%TD*%
%TA.AperFunction,ComponentPad*%
%ADD11O,1.700000X1.700000*%
%TD*%
%TA.AperFunction,ViaPad*%
%ADD12C,0.500000*%
%TD*%
%TA.AperFunction,Conductor*%
%ADD13C,0.400000*%
%TD*%
%TA.AperFunction,Conductor*%
%ADD14C,0.300000*%
%TD*%
G04 APERTURE END LIST*
D10*
%TO.P,JP1,1,A*%
%TO.N,Net-(JP1-A)*%
X152510000Y-87700000D03*
D11*
%TO.P,JP1,2,B*%
%TO.N,/AP_CS_3V3*%
X149970000Y-87700000D03*
%TD*%
D10*
%TO.P,J1,1,Pin_1*%
%TO.N,VCC*%
X127350000Y-72300000D03*
D11*
%TO.P,J1,2,Pin_2*%
%TO.N,+3V3*%
X129890000Y-72300000D03*
%TO.P,J1,3,Pin_3*%
%TO.N,/DOUT_AD0*%
X132430000Y-72300000D03*
%TO.P,J1,4,Pin_4*%
%TO.N,/SDA_DIN*%
X134970000Y-72300000D03*
%TO.P,J1,5,Pin_5*%
%TO.N,/SCL_SCLK*%
X137510000Y-72300000D03*
%TO.P,J1,6,Pin_6*%
%TO.N,/AP_CS*%
X140050000Y-72300000D03*
%TO.P,J1,7,Pin_7*%
%TO.N,/INT1*%
X142590000Y-72300000D03*
%TO.P,J1,8,Pin_8*%
%TO.N,/INT2*%
X145130000Y-72300000D03*
%TO.P,J1,9,Pin_9*%
%TO.N,GND*%
X147670000Y-72300000D03*
%TD*%
D12*
%TO.N,VDD*%
X147915000Y-76545000D03*
X148395000Y-81315000D03*
X126660000Y-79280000D03*
%TO.N,GND*%
X129800000Y-81900000D03*
X139800000Y-89700000D03*
X128800000Y-81900000D03*
X139200000Y-80300000D03*
X130800000Y-81900000D03*
X144700000Y-80900000D03*
X127800000Y-81900000D03*
X141400000Y-80500000D03*
X136800000Y-89700000D03*
X138450000Y-86425000D03*
X139600000Y-79700000D03*
X138800000Y-89700000D03*
X135100000Y-89700000D03*
X143000000Y-79600000D03*
X137800000Y-89700000D03*
X131800000Y-81900000D03*
%TO.N,+3V3*%
X133535000Y-78585000D03*
X142840000Y-84170000D03*
X139240000Y-82270000D03*
X133060000Y-81800000D03*
X131560000Y-86270000D03*
%TO.N,Net-(D3-A)*%
X143664915Y-84820000D03*
X143664915Y-77988606D03*
%TO.N,/INT1*%
X134170000Y-87770000D03*
X143910000Y-75120000D03*
%TO.N,/INT2*%
X139340000Y-86210000D03*
X145130000Y-75120000D03*
%TO.N,/DOUT_AD0_3V3*%
X137550000Y-80690000D03*
X135150000Y-86200000D03*
%TO.N,/SDA_DIN_3V3*%
X136975000Y-84045000D03*
X136805896Y-82463148D03*
%TO.N,/SCL_SCLK_3V3*%
X145980291Y-84800000D03*
X136900000Y-87460000D03*
%TD*%
D13*
%TO.N,VDD*%
X129800000Y-74470000D02*
X126660000Y-77610000D01*
X148395000Y-77025000D02*
X148395000Y-81315000D01*
X147915000Y-76545000D02*
X145840000Y-74470000D01*
X126660000Y-77610000D02*
X126660000Y-79280000D01*
X147915000Y-76545000D02*
X148395000Y-77025000D01*
X145840000Y-74470000D02*
X129800000Y-74470000D01*
%TO.N,+3V3*%
X131560000Y-86270000D02*
X131560000Y-83300000D01*
X133060000Y-79060000D02*
X133535000Y-78585000D01*
X131560000Y-83300000D02*
X133060000Y-81800000D01*
X141140000Y-84170000D02*
X142840000Y-84170000D01*
X133060000Y-81800000D02*
X133060000Y-79060000D01*
X139240000Y-82270000D02*
X141140000Y-84170000D01*
D14*
%TO.N,Net-(D3-A)*%
X143664915Y-84820000D02*
X143664915Y-77988606D01*
%TO.N,/INT1*%
X135990000Y-75700000D02*
X134170000Y-77520000D01*
X143330000Y-75700000D02*
X135990000Y-75700000D01*
X134170000Y-77520000D02*
X134170000Y-87770000D01*
X143910000Y-75120000D02*
X143330000Y-75700000D01*
%TO.N,/INT2*%
X143950000Y-76300000D02*
X145130000Y-75120000D01*
X138150000Y-82850000D02*
X138150000Y-77350000D01*
X139340000Y-86210000D02*
X139340000Y-84040000D01*
X139340000Y-84040000D02*
X138150000Y-82850000D01*
X139200000Y-76300000D02*
X143950000Y-76300000D01*
X138150000Y-77350000D02*
X139200000Y-76300000D01*
%TO.N,/DOUT_AD0_3V3*%
X135150000Y-81185000D02*
X135645000Y-80690000D01*
X135645000Y-80690000D02*
X137550000Y-80690000D01*
X135150000Y-86200000D02*
X135150000Y-81185000D01*
%TO.N,/SDA_DIN_3V3*%
X136805896Y-82463148D02*
X136805896Y-83875896D01*
X136805896Y-83875896D02*
X136975000Y-84045000D01*
%TO.N,/SCL_SCLK_3V3*%
X145310000Y-87460000D02*
X145980291Y-86789709D01*
X145980291Y-86789709D02*
X145980291Y-84800000D01*
X136900000Y-87460000D02*
X145310000Y-87460000D01*
%TD*%
%TA.AperFunction,Conductor*%
%TO.N,GND*%
G36*
X154002733Y-70500808D02*
G01*
X154105665Y-70512406D01*
X154116361Y-70514847D01*
X154211519Y-70548144D01*
X154221393Y-70552899D01*
X154306759Y-70606538D01*
X154315337Y-70613379D01*
X154386620Y-70684662D01*
X154393461Y-70693240D01*
X154447097Y-70778600D01*
X154451858Y-70788487D01*
X154485151Y-70883637D01*
X154487593Y-70894333D01*
X154499192Y-70997265D01*
X154499500Y-71002752D01*
X154499500Y-93997247D01*
X154499192Y-94002734D01*
X154487593Y-94105666D01*
X154485151Y-94116362D01*
X154451858Y-94211512D01*
X154447097Y-94221399D01*
X154393461Y-94306759D01*
X154386620Y-94315337D01*
X154315337Y-94386620D01*
X154306759Y-94393461D01*
X154221399Y-94447097D01*
X154211512Y-94451858D01*
X154116362Y-94485151D01*
X154105666Y-94487593D01*
X154009877Y-94498386D01*
X154002732Y-94499192D01*
X153997247Y-94499500D01*
X121002753Y-94499500D01*
X120997267Y-94499192D01*
X120989061Y-94498267D01*
X120894333Y-94487593D01*
X120883637Y-94485151D01*
X120819221Y-94462612D01*
X120788484Y-94451856D01*
X120778603Y-94447098D01*
X120693240Y-94393461D01*
X120684662Y-94386620D01*
X120613379Y-94315337D01*
X120606538Y-94306759D01*
X120552899Y-94221393D01*
X120548144Y-94211519D01*
X120514847Y-94116361D01*
X120512406Y-94105665D01*
X120500808Y-94002733D01*
X120500500Y-93997247D01*
X120500500Y-92601583D01*
X121049500Y-92601583D01*
X121049500Y-92798416D01*
X121080290Y-92992823D01*
X121080291Y-92992826D01*
X121141116Y-93180026D01*
X121230472Y-93355399D01*
X121230475Y-93355403D01*
X121230476Y-93355405D01*
X121346172Y-93514646D01*
X121346174Y-93514648D01*
X121346177Y-93514652D01*
X121485347Y-93653822D01*
X121485350Y-93653824D01*
X121485354Y-93653828D01*
X121644595Y-93769524D01*
X121644597Y-93769525D01*
X121644600Y-93769527D01*
X121819973Y-93858883D01*
X121819975Y-93858884D01*
X122007174Y-93919709D01*
X122201583Y-93950500D01*
X122201584Y-93950500D01*
X122398416Y-93950500D01*
X122398417Y-93950500D01*
X122592826Y-93919709D01*
X122780025Y-93858884D01*
X122955405Y-93769524D01*
X123114646Y-93653828D01*
X123253828Y-93514646D01*
X123369524Y-93355405D01*
X123458884Y-93180025D01*
X123519709Y-92992826D01*
X123550500Y-92798417D01*
X123550500Y-92601583D01*
X151449500Y-92601583D01*
X151449500Y-92798416D01*
X151480290Y-92992823D01*
X151480291Y-92992826D01*
X151541116Y-93180026D01*
X151630472Y-93355399D01*
X151630475Y-93355403D01*
X151630476Y-93355405D01*
X151746172Y-93514646D01*
X151746174Y-93514648D01*
X151746177Y-93514652D01*
X151885347Y-93653822D01*
X151885350Y-93653824D01*
X151885354Y-93653828D01*
X152044595Y-93769524D01*
X152044597Y-93769525D01*
X152044600Y-93769527D01*
X152219973Y-93858883D01*
X152219975Y-93858884D01*
X152407174Y-93919709D01*
X152601583Y-93950500D01*
X152601584Y-93950500D01*
X152798416Y-93950500D01*
X152798417Y-93950500D01*
X152992826Y-93919709D01*
X153180025Y-93858884D01*
X153355405Y-93769524D01*
X153514646Y-93653828D01*
X153653828Y-93514646D01*
X153769524Y-93355405D01*
X153858884Y-93180025D01*
X153919709Y-92992826D01*
X153950500Y-92798417D01*
X153950500Y-92601583D01*
X153919709Y-92407174D01*
X153858884Y-92219975D01*
X153769524Y-92044595D01*
X153653828Y-91885354D01*
X153653824Y-91885350D01*
X153653822Y-91885347D01*
X153514652Y-91746177D01*
X153514653Y-91746177D01*
X153355399Y-91630472D01*
X153180026Y-91541116D01*
X152992826Y-91480291D01*
X152992823Y-91480290D01*
X152843482Y-91456637D01*
X152798417Y-91449500D01*
X152601583Y-91449500D01*
X152564998Y-91455294D01*
X152407176Y-91480290D01*
X152407173Y-91480291D01*
X152219973Y-91541116D01*
X152044600Y-91630472D01*
X151885347Y-91746177D01*
X151746177Y-91885347D01*
X151630472Y-92044600D01*
X151541116Y-92219973D01*
X151480291Y-92407173D01*
X151480290Y-92407176D01*
X151449500Y-92601583D01*
X123550500Y-92601583D01*
X123519709Y-92407174D01*
X123458884Y-92219975D01*
X123369524Y-92044595D01*
X123253828Y-91885354D01*
X123253824Y-91885350D01*
X123253822Y-91885347D01*
X123114652Y-91746177D01*
X123114653Y-91746177D01*
X122955399Y-91630472D01*
X122780026Y-91541116D01*
X122592826Y-91480291D01*
X122592823Y-91480290D01*
X122443482Y-91456637D01*
X122398417Y-91449500D01*
X122201583Y-91449500D01*
X122164998Y-91455294D01*
X122007176Y-91480290D01*
X122007173Y-91480291D01*
X121819973Y-91541116D01*
X121644600Y-91630472D01*
X121485347Y-91746177D01*
X121346177Y-91885347D01*
X121230472Y-92044600D01*
X121141116Y-92219973D01*
X121080291Y-92407173D01*
X121080290Y-92407176D01*
X121049500Y-92601583D01*
X120500500Y-92601583D01*
X120500500Y-79279997D01*
X126204867Y-79279997D01*
X126204867Y-79280002D01*
X126223301Y-79408223D01*
X126277118Y-79526063D01*
X126361951Y-79623967D01*
X126470931Y-79694004D01*
X126540093Y-79714311D01*
X126595223Y-79730499D01*
X126595228Y-79730500D01*
X126724772Y-79730500D01*
X126724776Y-79730499D01*
X126745324Y-79724465D01*
X126849069Y-79694004D01*
X126958049Y-79623967D01*
X127042882Y-79526063D01*
X127096697Y-79408226D01*
X127096697Y-79408224D01*
X127096698Y-79408223D01*
X127115133Y-79280002D01*
X127115133Y-79279997D01*
X127096697Y-79151775D01*
X127096697Y-79151773D01*
X127064928Y-79082209D01*
X127060500Y-79061854D01*
X127060500Y-77796188D01*
X127074852Y-77761540D01*
X129951540Y-74884852D01*
X129986188Y-74870500D01*
X143452442Y-74870500D01*
X143487090Y-74884852D01*
X143501442Y-74919500D01*
X143497014Y-74939853D01*
X143488006Y-74959578D01*
X143473303Y-74991772D01*
X143473303Y-74991773D01*
X143463997Y-75056498D01*
X143450144Y-75084172D01*
X143199170Y-75335148D01*
X143164522Y-75349500D01*
X135943854Y-75349500D01*
X135902646Y-75360542D01*
X135882042Y-75366063D01*
X135854712Y-75373385D01*
X135854709Y-75373386D01*
X135774787Y-75419530D01*
X135774787Y-75419531D01*
X133889532Y-77304785D01*
X133889527Y-77304791D01*
X133871910Y-77335307D01*
X133866037Y-77345480D01*
X133855295Y-77364086D01*
X133843385Y-77384713D01*
X133819500Y-77473853D01*
X133819500Y-78142588D01*
X133805148Y-78177236D01*
X133770500Y-78191588D01*
X133744010Y-78183810D01*
X133724069Y-78170995D01*
X133599776Y-78134500D01*
X133599772Y-78134500D01*
X133470228Y-78134500D01*
X133470223Y-78134500D01*
X133345933Y-78170995D01*
X133345931Y-78170995D01*
X133345931Y-78170996D01*
X133325992Y-78183810D01*
X133236950Y-78241033D01*
X133152119Y-78338936D01*
X133152118Y-78338937D01*
X133103209Y-78446028D01*
X133093285Y-78460320D01*
X132739521Y-78814085D01*
X132739520Y-78814086D01*
X132686793Y-78905410D01*
X132686792Y-78905412D01*
X132669314Y-78970646D01*
X132669314Y-78970647D01*
X132659500Y-79007271D01*
X132659500Y-81581853D01*
X132655072Y-81602209D01*
X132628209Y-81661028D01*
X132618285Y-81675320D01*
X131239521Y-83054085D01*
X131239520Y-83054086D01*
X131186793Y-83145410D01*
X131185124Y-83151642D01*
X131185123Y-83151641D01*
X131185123Y-83151645D01*
X131159500Y-83247269D01*
X131159500Y-86051854D01*
X131155072Y-86072209D01*
X131123302Y-86141773D01*
X131123302Y-86141775D01*
X131104867Y-86269997D01*
X131104867Y-86270002D01*
X131123301Y-86398223D01*
X131177118Y-86516063D01*
X131209961Y-86553967D01*
X131261951Y-86613967D01*
X131370931Y-86684004D01*
X131440093Y-86704311D01*
X131495223Y-86720499D01*
X131495228Y-86720500D01*
X131624772Y-86720500D01*
X131624776Y-86720499D01*
X131645324Y-86714465D01*
X131749069Y-86684004D01*
X131858049Y-86613967D01*
X131942882Y-86516063D01*
X131996697Y-86398226D01*
X131996697Y-86398224D01*
X131996698Y-86398223D01*
X132015133Y-86270002D01*
X132015133Y-86269997D01*
X131996697Y-86141775D01*
X131996697Y-86141773D01*
X131964928Y-86072209D01*
X131960500Y-86051854D01*
X131960500Y-83486188D01*
X131974851Y-83451541D01*
X133188300Y-82238091D01*
X133209138Y-82225727D01*
X133249069Y-82214004D01*
X133358049Y-82143967D01*
X133442882Y-82046063D01*
X133496697Y-81928226D01*
X133496697Y-81928224D01*
X133496698Y-81928223D01*
X133515133Y-81800002D01*
X133515133Y-81799997D01*
X133496697Y-81671775D01*
X133496697Y-81671773D01*
X133464928Y-81602209D01*
X133460500Y-81581854D01*
X133460500Y-79246188D01*
X133474851Y-79211541D01*
X133663300Y-79023091D01*
X133684138Y-79010727D01*
X133724069Y-78999004D01*
X133744010Y-78986188D01*
X133780915Y-78979530D01*
X133811721Y-79000918D01*
X133819500Y-79027410D01*
X133819500Y-87468289D01*
X133807533Y-87500376D01*
X133787118Y-87523936D01*
X133733301Y-87641776D01*
X133714867Y-87769997D01*
X133714867Y-87770000D01*
X133733301Y-87898223D01*
X133787118Y-88016063D01*
X133863276Y-88103956D01*
X133871951Y-88113967D01*
X133980931Y-88184004D01*
X134050093Y-88204311D01*
X134105223Y-88220499D01*
X134105228Y-88220500D01*
X134234772Y-88220500D01*
X134234776Y-88220499D01*
X134255324Y-88214465D01*
X134359069Y-88184004D01*
X134468049Y-88113967D01*
X134552882Y-88016063D01*
X134606697Y-87898226D01*
X134606697Y-87898224D01*
X134606698Y-87898223D01*
X134625133Y-87770000D01*
X134625133Y-87769997D01*
X134606698Y-87641776D01*
X134582241Y-87588223D01*
X134552882Y-87523937D01*
X134532467Y-87500376D01*
X134520500Y-87468289D01*
X134520500Y-87459997D01*
X136444867Y-87459997D01*
X136444867Y-87460002D01*
X136463301Y-87588223D01*
X136514349Y-87699999D01*
X136517118Y-87706063D01*
X136601951Y-87803967D01*
X136710931Y-87874004D01*
X136780093Y-87894311D01*
X136835223Y-87910499D01*
X136835228Y-87910500D01*
X136964772Y-87910500D01*
X136964776Y-87910499D01*
X137006574Y-87898226D01*
X137089069Y-87874004D01*
X137175779Y-87818279D01*
X137202270Y-87810500D01*
X145356146Y-87810500D01*
X145400716Y-87798557D01*
X145445288Y-87786614D01*
X145474064Y-87770000D01*
X145525212Y-87740470D01*
X145565683Y-87699999D01*
X148914417Y-87699999D01*
X148914417Y-87700000D01*
X148934700Y-87905934D01*
X148934700Y-87905935D01*
X148936085Y-87910500D01*
X148994768Y-88103954D01*
X149092315Y-88286450D01*
X149223590Y-88446410D01*
X149383550Y-88577685D01*
X149566046Y-88675232D01*
X149764066Y-88735300D01*
X149970000Y-88755583D01*
X150175934Y-88735300D01*
X150373954Y-88675232D01*
X150556450Y-88577685D01*
X150716410Y-88446410D01*
X150847685Y-88286450D01*
X150945232Y-88103954D01*
X151005300Y-87905934D01*
X151025583Y-87700000D01*
X151005300Y-87494066D01*
X150945232Y-87296046D01*
X150847685Y-87113550D01*
X150716410Y-86953590D01*
X150566121Y-86830252D01*
X151459500Y-86830252D01*
X151459500Y-88569748D01*
X151471133Y-88628231D01*
X151488882Y-88654795D01*
X151515447Y-88694552D01*
X151542012Y-88712301D01*
X151581769Y-88738867D01*
X151640252Y-88750500D01*
X151640255Y-88750500D01*
X153379745Y-88750500D01*
X153379748Y-88750500D01*
X153438231Y-88738867D01*
X153504552Y-88694552D01*
X153548867Y-88628231D01*
X153560500Y-88569748D01*
X153560500Y-86830252D01*
X153548867Y-86771769D01*
X153517462Y-86724769D01*
X153504552Y-86705447D01*
X153443569Y-86664700D01*
X153438231Y-86661133D01*
X153379748Y-86649500D01*
X151640252Y-86649500D01*
X151593101Y-86658879D01*
X151581769Y-86661133D01*
X151515447Y-86705447D01*
X151471133Y-86771769D01*
X151459500Y-86830252D01*
X150566121Y-86830252D01*
X150556450Y-86822315D01*
X150373954Y-86724768D01*
X150175934Y-86664700D01*
X149970000Y-86644417D01*
X149764065Y-86664700D01*
X149764064Y-86664700D01*
X149566043Y-86724769D01*
X149383548Y-86822316D01*
X149223590Y-86953590D01*
X149092316Y-87113548D01*
X148994769Y-87296043D01*
X148934700Y-87494064D01*
X148934700Y-87494065D01*
X148914417Y-87699999D01*
X145565683Y-87699999D01*
X146260761Y-87004921D01*
X146306905Y-86924997D01*
X146330790Y-86835855D01*
X146330791Y-86835855D01*
X146330791Y-85101710D01*
X146342760Y-85069621D01*
X146363170Y-85046066D01*
X146363173Y-85046063D01*
X146416988Y-84928226D01*
X146416988Y-84928224D01*
X146416989Y-84928223D01*
X146435424Y-84800002D01*
X146435424Y-84799997D01*
X146416989Y-84671776D01*
X146409588Y-84655572D01*
X146363173Y-84553937D01*
X146278340Y-84456033D01*
X146169360Y-84385996D01*
X146169357Y-84385995D01*
X146045067Y-84349500D01*
X146045063Y-84349500D01*
X145915519Y-84349500D01*
X145915514Y-84349500D01*
X145791224Y-84385995D01*
X145682241Y-84456033D01*
X145597410Y-84553936D01*
X145597409Y-84553936D01*
X145543592Y-84671776D01*
X145525158Y-84799997D01*
X145525158Y-84800002D01*
X145543592Y-84928223D01*
X145572487Y-84991493D01*
X145597409Y-85046063D01*
X145597410Y-85046064D01*
X145597411Y-85046066D01*
X145617822Y-85069621D01*
X145629791Y-85101710D01*
X145629791Y-86624231D01*
X145615439Y-86658879D01*
X145179170Y-87095148D01*
X145144522Y-87109500D01*
X137202270Y-87109500D01*
X137175779Y-87101721D01*
X137089069Y-87045996D01*
X136964776Y-87009500D01*
X136964772Y-87009500D01*
X136835228Y-87009500D01*
X136835223Y-87009500D01*
X136710933Y-87045995D01*
X136601950Y-87116033D01*
X136517119Y-87213936D01*
X136517118Y-87213936D01*
X136463301Y-87331776D01*
X136444867Y-87459997D01*
X134520500Y-87459997D01*
X134520500Y-77685478D01*
X134534852Y-77650830D01*
X136120830Y-76064852D01*
X136155478Y-76050500D01*
X138835523Y-76050500D01*
X138870171Y-76064852D01*
X138884523Y-76099500D01*
X138870171Y-76134148D01*
X137869532Y-77134785D01*
X137869527Y-77134791D01*
X137843666Y-77179587D01*
X137843665Y-77179588D01*
X137823386Y-77214710D01*
X137823385Y-77214713D01*
X137799500Y-77303853D01*
X137799500Y-80228283D01*
X137785148Y-80262931D01*
X137750500Y-80277283D01*
X137736696Y-80275298D01*
X137614778Y-80239500D01*
X137614772Y-80239500D01*
X137485228Y-80239500D01*
X137485223Y-80239500D01*
X137360930Y-80275996D01*
X137274221Y-80331721D01*
X137247730Y-80339500D01*
X135598853Y-80339500D01*
X135515071Y-80361950D01*
X135512582Y-80362616D01*
X135509710Y-80363386D01*
X135509709Y-80363386D01*
X135429787Y-80409530D01*
X135429787Y-80409531D01*
X134869532Y-80969785D01*
X134869529Y-80969788D01*
X134847407Y-81008106D01*
X134828706Y-81040499D01*
X134823384Y-81049715D01*
X134799500Y-81138852D01*
X134799500Y-85898289D01*
X134787533Y-85930376D01*
X134767118Y-85953936D01*
X134713301Y-86071776D01*
X134694867Y-86199997D01*
X134694867Y-86200002D01*
X134713301Y-86328223D01*
X134745270Y-86398223D01*
X134767118Y-86446063D01*
X134851951Y-86543967D01*
X134960931Y-86614004D01*
X135030093Y-86634311D01*
X135085223Y-86650499D01*
X135085228Y-86650500D01*
X135214772Y-86650500D01*
X135214776Y-86650499D01*
X135235489Y-86644417D01*
X135339069Y-86614004D01*
X135448049Y-86543967D01*
X135532882Y-86446063D01*
X135586697Y-86328226D01*
X135586697Y-86328224D01*
X135586698Y-86328223D01*
X135605133Y-86200002D01*
X135605133Y-86199997D01*
X135586698Y-86071776D01*
X135577600Y-86051854D01*
X135532882Y-85953937D01*
X135512467Y-85930376D01*
X135500500Y-85898289D01*
X135500500Y-82463145D01*
X136350763Y-82463145D01*
X136350763Y-82463150D01*
X136369197Y-82591371D01*
X136379517Y-82613967D01*
X136423014Y-82709211D01*
X136423015Y-82709212D01*
X136423016Y-82709214D01*
X136443427Y-82732769D01*
X136455396Y-82764858D01*
X136455396Y-83922041D01*
X136474639Y-83993855D01*
X136474639Y-83993856D01*
X136479281Y-84011183D01*
X136479282Y-84011185D01*
X136496943Y-84041774D01*
X136522130Y-84085399D01*
X136528195Y-84102923D01*
X136538301Y-84173223D01*
X136543763Y-84185182D01*
X136592118Y-84291063D01*
X136676951Y-84388967D01*
X136785931Y-84459004D01*
X136855093Y-84479311D01*
X136910223Y-84495499D01*
X136910228Y-84495500D01*
X137039772Y-84495500D01*
X137039776Y-84495499D01*
X137060324Y-84489465D01*
X137164069Y-84459004D01*
X137273049Y-84388967D01*
X137357882Y-84291063D01*
X137411697Y-84173226D01*
X137411697Y-84173224D01*
X137411698Y-84173223D01*
X137430133Y-84045002D01*
X137430133Y-84044997D01*
X137411698Y-83916776D01*
X137370256Y-83826033D01*
X137357882Y-83798937D01*
X137289051Y-83719500D01*
X137273048Y-83701031D01*
X137273046Y-83701029D01*
X137178905Y-83640529D01*
X137157516Y-83609724D01*
X137156396Y-83599308D01*
X137156396Y-82764858D01*
X137168365Y-82732769D01*
X137169562Y-82731386D01*
X137188778Y-82709211D01*
X137242593Y-82591374D01*
X137242593Y-82591372D01*
X137242594Y-82591371D01*
X137261029Y-82463150D01*
X137261029Y-82463145D01*
X137242594Y-82334924D01*
X137235193Y-82318720D01*
X137188778Y-82217085D01*
X137103945Y-82119181D01*
X136994965Y-82049144D01*
X136994962Y-82049143D01*
X136870672Y-82012648D01*
X136870668Y-82012648D01*
X136741124Y-82012648D01*
X136741119Y-82012648D01*
X136616829Y-82049143D01*
X136507846Y-82119181D01*
X136423015Y-82217084D01*
X136423014Y-82217084D01*
X136369197Y-82334924D01*
X136350763Y-82463145D01*
X135500500Y-82463145D01*
X135500500Y-81350478D01*
X135514852Y-81315830D01*
X135775830Y-81054852D01*
X135810478Y-81040500D01*
X137247730Y-81040500D01*
X137274221Y-81048279D01*
X137307216Y-81069483D01*
X137360931Y-81104004D01*
X137435685Y-81125953D01*
X137485223Y-81140499D01*
X137485228Y-81140500D01*
X137614772Y-81140500D01*
X137614776Y-81140499D01*
X137736695Y-81104701D01*
X137773983Y-81108710D01*
X137797515Y-81137911D01*
X137799500Y-81151716D01*
X137799500Y-82896146D01*
X137823385Y-82985286D01*
X137823386Y-82985290D01*
X137869530Y-83065212D01*
X138975148Y-84170830D01*
X138989500Y-84205478D01*
X138989500Y-85908289D01*
X138977533Y-85940376D01*
X138957118Y-85963936D01*
X138903301Y-86081776D01*
X138884867Y-86209997D01*
X138884867Y-86210002D01*
X138903301Y-86338223D01*
X138930703Y-86398223D01*
X138957118Y-86456063D01*
X139041951Y-86553967D01*
X139150931Y-86624004D01*
X139220093Y-86644311D01*
X139275223Y-86660499D01*
X139275228Y-86660500D01*
X139404772Y-86660500D01*
X139404776Y-86660499D01*
X139425324Y-86654465D01*
X139529069Y-86624004D01*
X139638049Y-86553967D01*
X139722882Y-86456063D01*
X139776697Y-86338226D01*
X139776697Y-86338224D01*
X139776698Y-86338223D01*
X139795133Y-86210002D01*
X139795133Y-86209997D01*
X139776698Y-86081776D01*
X139763033Y-86051854D01*
X139722882Y-85963937D01*
X139702467Y-85940376D01*
X139690500Y-85908289D01*
X139690500Y-83993853D01*
X139671257Y-83922040D01*
X139666614Y-83904712D01*
X139666613Y-83904711D01*
X139666613Y-83904709D01*
X139637359Y-83854040D01*
X139620470Y-83824788D01*
X138514852Y-82719170D01*
X138500500Y-82684522D01*
X138500500Y-82269997D01*
X138784867Y-82269997D01*
X138784867Y-82270002D01*
X138803301Y-82398223D01*
X138832951Y-82463145D01*
X138857118Y-82516063D01*
X138941951Y-82613967D01*
X139050931Y-82684004D01*
X139090858Y-82695727D01*
X139111700Y-82708093D01*
X140817804Y-84414196D01*
X140817809Y-84414202D01*
X140819520Y-84415913D01*
X140894087Y-84490480D01*
X140907199Y-84498050D01*
X140985412Y-84543207D01*
X141087269Y-84570499D01*
X141087270Y-84570500D01*
X141087273Y-84570500D01*
X141192727Y-84570500D01*
X142615530Y-84570500D01*
X142642020Y-84578278D01*
X142650930Y-84584004D01*
X142775223Y-84620499D01*
X142775228Y-84620500D01*
X142904772Y-84620500D01*
X142904776Y-84620499D01*
X142925324Y-84614465D01*
X143029069Y-84584004D01*
X143138049Y-84513967D01*
X143222882Y-84416063D01*
X143222883Y-84416061D01*
X143224193Y-84414023D01*
X143254998Y-84392633D01*
X143291905Y-84399291D01*
X143313295Y-84430096D01*
X143314415Y-84440513D01*
X143314415Y-84518289D01*
X143302448Y-84550376D01*
X143282033Y-84573936D01*
X143228216Y-84691776D01*
X143209782Y-84819997D01*
X143209782Y-84820002D01*
X143228216Y-84948223D01*
X143282033Y-85066063D01*
X143366866Y-85163967D01*
X143475846Y-85234004D01*
X143545008Y-85254311D01*
X143600138Y-85270499D01*
X143600143Y-85270500D01*
X143729687Y-85270500D01*
X143729691Y-85270499D01*
X143750239Y-85264465D01*
X143853984Y-85234004D01*
X143962964Y-85163967D01*
X144047797Y-85066063D01*
X144101612Y-84948226D01*
X144101612Y-84948224D01*
X144101613Y-84948223D01*
X144120048Y-84820002D01*
X144120048Y-84819997D01*
X144101613Y-84691776D01*
X144049779Y-84578278D01*
X144047797Y-84573937D01*
X144027382Y-84550376D01*
X144015415Y-84518289D01*
X144015415Y-78290316D01*
X144027384Y-78258227D01*
X144028581Y-78256844D01*
X144047797Y-78234669D01*
X144101612Y-78116832D01*
X144101612Y-78116830D01*
X144101613Y-78116829D01*
X144120048Y-77988608D01*
X144120048Y-77988603D01*
X144101613Y-77860382D01*
X144063027Y-77775892D01*
X144047797Y-77742543D01*
X143962964Y-77644639D01*
X143853984Y-77574602D01*
X143853981Y-77574601D01*
X143729691Y-77538106D01*
X143729687Y-77538106D01*
X143600143Y-77538106D01*
X143600138Y-77538106D01*
X143475848Y-77574601D01*
X143366865Y-77644639D01*
X143282034Y-77742542D01*
X143282033Y-77742542D01*
X143228216Y-77860382D01*
X143209782Y-77988603D01*
X143209782Y-77988608D01*
X143228216Y-78116829D01*
X143252954Y-78170995D01*
X143282033Y-78234669D01*
X143282034Y-78234670D01*
X143282035Y-78234672D01*
X143302446Y-78258227D01*
X143314415Y-78290316D01*
X143314415Y-83899486D01*
X143300063Y-83934134D01*
X143265415Y-83948486D01*
X143230767Y-83934134D01*
X143224195Y-83925980D01*
X143222882Y-83923937D01*
X143138049Y-83826033D01*
X143136110Y-83824787D01*
X143029069Y-83755996D01*
X143026181Y-83755148D01*
X142904776Y-83719500D01*
X142904772Y-83719500D01*
X142775228Y-83719500D01*
X142775223Y-83719500D01*
X142650930Y-83755995D01*
X142642020Y-83761722D01*
X142615530Y-83769500D01*
X141326188Y-83769500D01*
X141291540Y-83755148D01*
X139681712Y-82145319D01*
X139671788Y-82131026D01*
X139622882Y-82023937D01*
X139538049Y-81926033D01*
X139429069Y-81855996D01*
X139429066Y-81855995D01*
X139304776Y-81819500D01*
X139304772Y-81819500D01*
X139175228Y-81819500D01*
X139175223Y-81819500D01*
X139050933Y-81855995D01*
X138941950Y-81926033D01*
X138857119Y-82023936D01*
X138857118Y-82023936D01*
X138803301Y-82141776D01*
X138784867Y-82269997D01*
X138500500Y-82269997D01*
X138500500Y-77515477D01*
X138514852Y-77480829D01*
X139330829Y-76664852D01*
X139365477Y-76650500D01*
X143996146Y-76650500D01*
X144040716Y-76638557D01*
X144085288Y-76626614D01*
X144165212Y-76580470D01*
X145160830Y-75584852D01*
X145191472Y-75572159D01*
X145191306Y-75570998D01*
X145194769Y-75570500D01*
X145194772Y-75570500D01*
X145194774Y-75570499D01*
X145194776Y-75570499D01*
X145215324Y-75564465D01*
X145319069Y-75534004D01*
X145428049Y-75463967D01*
X145512882Y-75366063D01*
X145566697Y-75248226D01*
X145566697Y-75248224D01*
X145566698Y-75248223D01*
X145585133Y-75120002D01*
X145585133Y-75119997D01*
X145566698Y-74991776D01*
X145563519Y-74984816D01*
X145542985Y-74939854D01*
X145541647Y-74902377D01*
X145567202Y-74874928D01*
X145587558Y-74870500D01*
X145653811Y-74870500D01*
X145688459Y-74884852D01*
X147473285Y-76669678D01*
X147483209Y-76683970D01*
X147532118Y-76791063D01*
X147616951Y-76888967D01*
X147725931Y-76959004D01*
X147765859Y-76970727D01*
X147786701Y-76983093D01*
X147980148Y-77176540D01*
X147994500Y-77211188D01*
X147994500Y-81096854D01*
X147990072Y-81117209D01*
X147958302Y-81186773D01*
X147958302Y-81186775D01*
X147939867Y-81314997D01*
X147939867Y-81315002D01*
X147958301Y-81443223D01*
X148012118Y-81561063D01*
X148096951Y-81658967D01*
X148205931Y-81729004D01*
X148275093Y-81749311D01*
X148330223Y-81765499D01*
X148330228Y-81765500D01*
X148459772Y-81765500D01*
X148459776Y-81765499D01*
X148480324Y-81759465D01*
X148584069Y-81729004D01*
X148693049Y-81658967D01*
X148777882Y-81561063D01*
X148831697Y-81443226D01*
X148831697Y-81443224D01*
X148831698Y-81443223D01*
X148850133Y-81315002D01*
X148850133Y-81314997D01*
X148831697Y-81186775D01*
X148831697Y-81186773D01*
X148799928Y-81117209D01*
X148795500Y-81096854D01*
X148795500Y-77081683D01*
X148795501Y-77081670D01*
X148795501Y-76972272D01*
X148783964Y-76929220D01*
X148768207Y-76870413D01*
X148768206Y-76870411D01*
X148768206Y-76870410D01*
X148722394Y-76791063D01*
X148722393Y-76791061D01*
X148715484Y-76779093D01*
X148715481Y-76779090D01*
X148715480Y-76779087D01*
X148640913Y-76704520D01*
X148639207Y-76702814D01*
X148639196Y-76702804D01*
X148356712Y-76420319D01*
X148346788Y-76406026D01*
X148297882Y-76298937D01*
X148213049Y-76201033D01*
X148104069Y-76130996D01*
X148104066Y-76130995D01*
X148064141Y-76119272D01*
X148043298Y-76106905D01*
X146085913Y-74149520D01*
X145994589Y-74096793D01*
X145994587Y-74096792D01*
X145892730Y-74069500D01*
X145892727Y-74069500D01*
X129855740Y-74069500D01*
X129855724Y-74069499D01*
X129852727Y-74069499D01*
X129747273Y-74069499D01*
X129747271Y-74069499D01*
X129645414Y-74096792D01*
X129645410Y-74096793D01*
X129554086Y-74149520D01*
X129554086Y-74149521D01*
X126339521Y-77364086D01*
X126339520Y-77364086D01*
X126286793Y-77455410D01*
X126285124Y-77461642D01*
X126285123Y-77461641D01*
X126285123Y-77461645D01*
X126259500Y-77557269D01*
X126259500Y-79061854D01*
X126255072Y-79082209D01*
X126223302Y-79151773D01*
X126223302Y-79151775D01*
X126204867Y-79279997D01*
X120500500Y-79279997D01*
X120500500Y-72201583D01*
X121049500Y-72201583D01*
X121049500Y-72398416D01*
X121080290Y-72592823D01*
X121080291Y-72592826D01*
X121141116Y-72780026D01*
X121230472Y-72955399D01*
X121230475Y-72955403D01*
X121230476Y-72955405D01*
X121346172Y-73114646D01*
X121346174Y-73114648D01*
X121346177Y-73114652D01*
X121485347Y-73253822D01*
X121485350Y-73253824D01*
X121485354Y-73253828D01*
X121644595Y-73369524D01*
X121644597Y-73369525D01*
X121644600Y-73369527D01*
X121819973Y-73458883D01*
X121819975Y-73458884D01*
X122007174Y-73519709D01*
X122201583Y-73550500D01*
X122201584Y-73550500D01*
X122398416Y-73550500D01*
X122398417Y-73550500D01*
X122592826Y-73519709D01*
X122780025Y-73458884D01*
X122955405Y-73369524D01*
X123114646Y-73253828D01*
X123253828Y-73114646D01*
X123369524Y-72955405D01*
X123458884Y-72780025D01*
X123519709Y-72592826D01*
X123550500Y-72398417D01*
X123550500Y-72201583D01*
X123519709Y-72007174D01*
X123458884Y-71819975D01*
X123369524Y-71644595D01*
X123253828Y-71485354D01*
X123253824Y-71485350D01*
X123253822Y-71485347D01*
X123198727Y-71430252D01*
X126299500Y-71430252D01*
X126299500Y-73169748D01*
X126311133Y-73228231D01*
X126328233Y-73253822D01*
X126355447Y-73294552D01*
X126382012Y-73312301D01*
X126421769Y-73338867D01*
X126480252Y-73350500D01*
X126480255Y-73350500D01*
X128219745Y-73350500D01*
X128219748Y-73350500D01*
X128278231Y-73338867D01*
X128344552Y-73294552D01*
X128388867Y-73228231D01*
X128400500Y-73169748D01*
X128400500Y-72300000D01*
X128834417Y-72300000D01*
X128854700Y-72505934D01*
X128914768Y-72703954D01*
X129012315Y-72886450D01*
X129143590Y-73046410D01*
X129303550Y-73177685D01*
X129486046Y-73275232D01*
X129684066Y-73335300D01*
X129890000Y-73355583D01*
X130095934Y-73335300D01*
X130293954Y-73275232D01*
X130476450Y-73177685D01*
X130636410Y-73046410D01*
X130767685Y-72886450D01*
X130865232Y-72703954D01*
X130925300Y-72505934D01*
X130945583Y-72300000D01*
X131374417Y-72300000D01*
X131394700Y-72505934D01*
X131454768Y-72703954D01*
X131552315Y-72886450D01*
X131683590Y-73046410D01*
X131843550Y-73177685D01*
X132026046Y-73275232D01*
X132224066Y-73335300D01*
X132430000Y-73355583D01*
X132635934Y-73335300D01*
X132833954Y-73275232D01*
X133016450Y-73177685D01*
X133176410Y-73046410D01*
X133307685Y-72886450D01*
X133405232Y-72703954D01*
X133465300Y-72505934D01*
X133485583Y-72300000D01*
X133914417Y-72300000D01*
X133934700Y-72505934D01*
X133994768Y-72703954D01*
X134092315Y-72886450D01*
X134223590Y-73046410D01*
X134383550Y-73177685D01*
X134566046Y-73275232D01*
X134764066Y-73335300D01*
X134970000Y-73355583D01*
X135175934Y-73335300D01*
X135373954Y-73275232D01*
X135556450Y-73177685D01*
X135716410Y-73046410D01*
X135847685Y-72886450D01*
X135945232Y-72703954D01*
X136005300Y-72505934D01*
X136025583Y-72300000D01*
X136454417Y-72300000D01*
X136474700Y-72505934D01*
X136534768Y-72703954D01*
X136632315Y-72886450D01*
X136763590Y-73046410D01*
X136923550Y-73177685D01*
X137106046Y-73275232D01*
X137304066Y-73335300D01*
X137510000Y-73355583D01*
X137715934Y-73335300D01*
X137913954Y-73275232D01*
X138096450Y-73177685D01*
X138256410Y-73046410D01*
X138387685Y-72886450D01*
X138485232Y-72703954D01*
X138545300Y-72505934D01*
X138565583Y-72300000D01*
X138994417Y-72300000D01*
X139014700Y-72505934D01*
X139074768Y-72703954D01*
X139172315Y-72886450D01*
X139303590Y-73046410D01*
X139463550Y-73177685D01*
X139646046Y-73275232D01*
X139844066Y-73335300D01*
X140050000Y-73355583D01*
X140255934Y-73335300D01*
X140453954Y-73275232D01*
X140636450Y-73177685D01*
X140796410Y-73046410D01*
X140927685Y-72886450D01*
X141025232Y-72703954D01*
X141085300Y-72505934D01*
X141105583Y-72300000D01*
X141534417Y-72300000D01*
X141554700Y-72505934D01*
X141614768Y-72703954D01*
X141712315Y-72886450D01*
X141843590Y-73046410D01*
X142003550Y-73177685D01*
X142186046Y-73275232D01*
X142384066Y-73335300D01*
X142590000Y-73355583D01*
X142795934Y-73335300D01*
X142993954Y-73275232D01*
X143176450Y-73177685D01*
X143336410Y-73046410D01*
X143467685Y-72886450D01*
X143565232Y-72703954D01*
X143625300Y-72505934D01*
X143645583Y-72300000D01*
X144074417Y-72300000D01*
X144094700Y-72505934D01*
X144154768Y-72703954D01*
X144252315Y-72886450D01*
X144383590Y-73046410D01*
X144543550Y-73177685D01*
X144726046Y-73275232D01*
X144924066Y-73335300D01*
X145130000Y-73355583D01*
X145335934Y-73335300D01*
X145533954Y-73275232D01*
X145716450Y-73177685D01*
X145876410Y-73046410D01*
X146007685Y-72886450D01*
X146105232Y-72703954D01*
X146165300Y-72505934D01*
X146185583Y-72300000D01*
X146175734Y-72200000D01*
X146725251Y-72200000D01*
X147179157Y-72200000D01*
X147170000Y-72234174D01*
X147170000Y-72365826D01*
X147179157Y-72400000D01*
X146725252Y-72400000D01*
X146733745Y-72486233D01*
X146733745Y-72486234D01*
X146788066Y-72665305D01*
X146788069Y-72665312D01*
X146876285Y-72830351D01*
X146994996Y-72975000D01*
X146994999Y-72975003D01*
X147139649Y-73093714D01*
X147139648Y-73093714D01*
X147304687Y-73181930D01*
X147304694Y-73181933D01*
X147483766Y-73236254D01*
X147570000Y-73244748D01*
X147570000Y-72790842D01*
X147604174Y-72800000D01*
X147735826Y-72800000D01*
X147770000Y-72790842D01*
X147770000Y-73244747D01*
X147856233Y-73236254D01*
X147856234Y-73236254D01*
X148035305Y-73181933D01*
X148035312Y-73181930D01*
X148200351Y-73093714D01*
X148345000Y-72975003D01*
X148345003Y-72975000D01*
X148463714Y-72830351D01*
X148551930Y-72665312D01*
X148551933Y-72665305D01*
X148606254Y-72486234D01*
X148606254Y-72486233D01*
X148614748Y-72400000D01*
X148160843Y-72400000D01*
X148170000Y-72365826D01*
X148170000Y-72234174D01*
X148161267Y-72201583D01*
X151449500Y-72201583D01*
X151449500Y-72398416D01*
X151480290Y-72592823D01*
X151480291Y-72592826D01*
X151541116Y-72780026D01*
X151630472Y-72955399D01*
X151630475Y-72955403D01*
X151630476Y-72955405D01*
X151746172Y-73114646D01*
X151746174Y-73114648D01*
X151746177Y-73114652D01*
X151885347Y-73253822D01*
X151885350Y-73253824D01*
X151885354Y-73253828D01*
X152044595Y-73369524D01*
X152044597Y-73369525D01*
X152044600Y-73369527D01*
X152219973Y-73458883D01*
X152219975Y-73458884D01*
X152407174Y-73519709D01*
X152601583Y-73550500D01*
X152601584Y-73550500D01*
X152798416Y-73550500D01*
X152798417Y-73550500D01*
X152992826Y-73519709D01*
X153180025Y-73458884D01*
X153355405Y-73369524D01*
X153514646Y-73253828D01*
X153653828Y-73114646D01*
X153769524Y-72955405D01*
X153858884Y-72780025D01*
X153919709Y-72592826D01*
X153950500Y-72398417D01*
X153950500Y-72201583D01*
X153919709Y-72007174D01*
X153858884Y-71819975D01*
X153769524Y-71644595D01*
X153653828Y-71485354D01*
X153653824Y-71485350D01*
X153653822Y-71485347D01*
X153514652Y-71346177D01*
X153514653Y-71346177D01*
X153483945Y-71323866D01*
X153355405Y-71230476D01*
X153355403Y-71230475D01*
X153355399Y-71230472D01*
X153180026Y-71141116D01*
X152992826Y-71080291D01*
X152992823Y-71080290D01*
X152843482Y-71056637D01*
X152798417Y-71049500D01*
X152601583Y-71049500D01*
X152564998Y-71055294D01*
X152407176Y-71080290D01*
X152407173Y-71080291D01*
X152219973Y-71141116D01*
X152044600Y-71230472D01*
X151885347Y-71346177D01*
X151746177Y-71485347D01*
X151630472Y-71644600D01*
X151541116Y-71819973D01*
X151480291Y-72007173D01*
X151480290Y-72007176D01*
X151449500Y-72201583D01*
X148161267Y-72201583D01*
X148160843Y-72200000D01*
X148614748Y-72200000D01*
X148606254Y-72113766D01*
X148606254Y-72113765D01*
X148551933Y-71934694D01*
X148551930Y-71934687D01*
X148463714Y-71769648D01*
X148345003Y-71624999D01*
X148345000Y-71624996D01*
X148200350Y-71506285D01*
X148200351Y-71506285D01*
X148035312Y-71418069D01*
X148035305Y-71418066D01*
X147856234Y-71363745D01*
X147770000Y-71355251D01*
X147770000Y-71809157D01*
X147735826Y-71800000D01*
X147604174Y-71800000D01*
X147570000Y-71809157D01*
X147570000Y-71355251D01*
X147569999Y-71355251D01*
X147483766Y-71363745D01*
X147483764Y-71363745D01*
X147304694Y-71418066D01*
X147304687Y-71418069D01*
X147139648Y-71506285D01*
X146994999Y-71624996D01*
X146994996Y-71624999D01*
X146876285Y-71769648D01*
X146788069Y-71934687D01*
X146788066Y-71934694D01*
X146733745Y-72113765D01*
X146733745Y-72113766D01*
X146725251Y-72200000D01*
X146175734Y-72200000D01*
X146165300Y-72094066D01*
X146105232Y-71896046D01*
X146007685Y-71713550D01*
X145876410Y-71553590D01*
X145716450Y-71422315D01*
X145533954Y-71324768D01*
X145335934Y-71264700D01*
X145130000Y-71244417D01*
X144924065Y-71264700D01*
X144924064Y-71264700D01*
X144726043Y-71324769D01*
X144543548Y-71422316D01*
X144383590Y-71553590D01*
X144252316Y-71713548D01*
X144154769Y-71896043D01*
X144094700Y-72094064D01*
X144094700Y-72094065D01*
X144094700Y-72094066D01*
X144074417Y-72300000D01*
X143645583Y-72300000D01*
X143625300Y-72094066D01*
X143565232Y-71896046D01*
X143467685Y-71713550D01*
X143336410Y-71553590D01*
X143176450Y-71422315D01*
X142993954Y-71324768D01*
X142795934Y-71264700D01*
X142590000Y-71244417D01*
X142384065Y-71264700D01*
X142384064Y-71264700D01*
X142186043Y-71324769D01*
X142003548Y-71422316D01*
X141843590Y-71553590D01*
X141712316Y-71713548D01*
X141614769Y-71896043D01*
X141554700Y-72094064D01*
X141554700Y-72094065D01*
X141554700Y-72094066D01*
X141534417Y-72300000D01*
X141105583Y-72300000D01*
X141085300Y-72094066D01*
X141025232Y-71896046D01*
X140927685Y-71713550D01*
X140796410Y-71553590D01*
X140636450Y-71422315D01*
X140453954Y-71324768D01*
X140255934Y-71264700D01*
X140050000Y-71244417D01*
X139844065Y-71264700D01*
X139844064Y-71264700D01*
X139646043Y-71324769D01*
X139463548Y-71422316D01*
X139303590Y-71553590D01*
X139172316Y-71713548D01*
X139074769Y-71896043D01*
X139014700Y-72094064D01*
X139014700Y-72094065D01*
X139014700Y-72094066D01*
X138994417Y-72300000D01*
X138565583Y-72300000D01*
X138545300Y-72094066D01*
X138485232Y-71896046D01*
X138387685Y-71713550D01*
X138256410Y-71553590D01*
X138096450Y-71422315D01*
X137913954Y-71324768D01*
X137715934Y-71264700D01*
X137510000Y-71244417D01*
X137304065Y-71264700D01*
X137304064Y-71264700D01*
X137106043Y-71324769D01*
X136923548Y-71422316D01*
X136763590Y-71553590D01*
X136632316Y-71713548D01*
X136534769Y-71896043D01*
X136474700Y-72094064D01*
X136474700Y-72094065D01*
X136474700Y-72094066D01*
X136454417Y-72300000D01*
X136025583Y-72300000D01*
X136005300Y-72094066D01*
X135945232Y-71896046D01*
X135847685Y-71713550D01*
X135716410Y-71553590D01*
X135556450Y-71422315D01*
X135373954Y-71324768D01*
X135175934Y-71264700D01*
X134970000Y-71244417D01*
X134764065Y-71264700D01*
X134764064Y-71264700D01*
X134566043Y-71324769D01*
X134383548Y-71422316D01*
X134223590Y-71553590D01*
X134092316Y-71713548D01*
X133994769Y-71896043D01*
X133934700Y-72094064D01*
X133934700Y-72094065D01*
X133934700Y-72094066D01*
X133914417Y-72300000D01*
X133485583Y-72300000D01*
X133465300Y-72094066D01*
X133405232Y-71896046D01*
X133307685Y-71713550D01*
X133176410Y-71553590D01*
X133016450Y-71422315D01*
X132833954Y-71324768D01*
X132635934Y-71264700D01*
X132430000Y-71244417D01*
X132224065Y-71264700D01*
X132224064Y-71264700D01*
X132026043Y-71324769D01*
X131843548Y-71422316D01*
X131683590Y-71553590D01*
X131552316Y-71713548D01*
X131454769Y-71896043D01*
X131394700Y-72094064D01*
X131394700Y-72094065D01*
X131394700Y-72094066D01*
X131374417Y-72300000D01*
X130945583Y-72300000D01*
X130925300Y-72094066D01*
X130865232Y-71896046D01*
X130767685Y-71713550D01*
X130636410Y-71553590D01*
X130476450Y-71422315D01*
X130293954Y-71324768D01*
X130095934Y-71264700D01*
X129890000Y-71244417D01*
X129684065Y-71264700D01*
X129684064Y-71264700D01*
X129486043Y-71324769D01*
X129303548Y-71422316D01*
X129143590Y-71553590D01*
X129012316Y-71713548D01*
X128914769Y-71896043D01*
X128854700Y-72094064D01*
X128854700Y-72094065D01*
X128854700Y-72094066D01*
X128834417Y-72300000D01*
X128400500Y-72300000D01*
X128400500Y-71430252D01*
X128388867Y-71371769D01*
X128357462Y-71324769D01*
X128344552Y-71305447D01*
X128283569Y-71264700D01*
X128278231Y-71261133D01*
X128219748Y-71249500D01*
X126480252Y-71249500D01*
X126421769Y-71261133D01*
X126355447Y-71305447D01*
X126311133Y-71371769D01*
X126299500Y-71430252D01*
X123198727Y-71430252D01*
X123114652Y-71346177D01*
X123114653Y-71346177D01*
X123083945Y-71323866D01*
X122955405Y-71230476D01*
X122955403Y-71230475D01*
X122955399Y-71230472D01*
X122780026Y-71141116D01*
X122592826Y-71080291D01*
X122592823Y-71080290D01*
X122443482Y-71056637D01*
X122398417Y-71049500D01*
X122201583Y-71049500D01*
X122164998Y-71055294D01*
X122007176Y-71080290D01*
X122007173Y-71080291D01*
X121819973Y-71141116D01*
X121644600Y-71230472D01*
X121485347Y-71346177D01*
X121346177Y-71485347D01*
X121230472Y-71644600D01*
X121141116Y-71819973D01*
X121080291Y-72007173D01*
X121080290Y-72007176D01*
X121049500Y-72201583D01*
X120500500Y-72201583D01*
X120500500Y-71002752D01*
X120500808Y-70997266D01*
X120500808Y-70997265D01*
X120512406Y-70894332D01*
X120514848Y-70883637D01*
X120548145Y-70788477D01*
X120552897Y-70778610D01*
X120606541Y-70693235D01*
X120613375Y-70684666D01*
X120684666Y-70613375D01*
X120693235Y-70606541D01*
X120778610Y-70552897D01*
X120788477Y-70548145D01*
X120883640Y-70514847D01*
X120894332Y-70512406D01*
X120997267Y-70500808D01*
X121002753Y-70500500D01*
X121065892Y-70500500D01*
X153934108Y-70500500D01*
X153997247Y-70500500D01*
X154002733Y-70500808D01*
G37*
%TD.AperFunction*%
%TD*%
M02*
