M48
; DRILL file {KiCad 8.0.3} date 2024-12-25T15:45:30+0800
; FORMAT={-:-/ absolute / inch / decimal}
; #@! TF.CreationDate,2024-12-25T15:45:30+08:00
; #@! TF.GenerationSoftware,Kicad,Pcbnew,8.0.3
; #@! TF.FileFunction,Plated,1,2,PTH
FMAT,2
INCH
; #@! TA.AperFunction,Plated,PTH,ViaDrill
T1C0.0118
; #@! TA.AperFunction,Plated,PTH,ComponentDrill
T2C0.0394
%
G90
G05
T1
X4.9866Y-3.1213
X5.0315Y-3.2244
X5.0709Y-3.2244
X5.1102Y-3.2244
X5.1496Y-3.2244
X5.1795Y-3.3965
X5.189Y-3.2244
X5.2386Y-3.2205
X5.2573Y-3.0939
X5.2823Y-3.4555
X5.3189Y-3.5315
X5.3209Y-3.3937
X5.3858Y-3.5315
X5.3861Y-3.2466
X5.3898Y-3.4433
X5.3927Y-3.3089
X5.4154Y-3.1768
X5.4252Y-3.5315
X5.4508Y-3.4026
X5.4646Y-3.5315
X5.4803Y-3.1614
X5.4819Y-3.239
X5.4858Y-3.3941
X5.4961Y-3.1378
X5.5039Y-3.5315
X5.5669Y-3.1693
X5.6236Y-3.3138
X5.6299Y-3.1339
X5.6561Y-3.0704
X5.6561Y-3.3394
X5.6657Y-2.9575
X5.6969Y-3.185
X5.7138Y-2.9575
X5.7473Y-3.3386
X5.8234Y-3.0136
X5.8423Y-3.2014
T2
X5.0138Y-2.8465
X5.1138Y-2.8465
X5.2138Y-2.8465
X5.3138Y-2.8465
X5.4138Y-2.8465
X5.5138Y-2.8465
X5.6138Y-2.8465
X5.7138Y-2.8465
X5.8138Y-2.8465
X5.9043Y-3.4528
X6.0043Y-3.4528
M30
