%TF.GenerationSoftware,KiCad,Pcbnew,8.0.3*%
%TF.CreationDate,2025-01-10T12:47:35+08:00*%
%TF.ProjectId,ICM-42688_Panelized,49434d2d-3432-4363-9838-5f50616e656c,rev?*%
%TF.SameCoordinates,Original*%
%TF.FileFunction,Soldermask,Bot*%
%TF.FilePolarity,Negative*%
%FSLAX46Y46*%
G04 Gerber Fmt 4.6, Leading zero omitted, Abs format (unit mm)*
G04 Created by KiCad (PCBNEW 8.0.3) date 2025-01-10 12:47:35*
%MOMM*%
%LPD*%
G01*
G04 APERTURE LIST*
%ADD10C,0.500000*%
%ADD11C,2.000000*%
%ADD12R,1.700000X1.700000*%
%ADD13O,1.700000X1.700000*%
%ADD14C,1.000000*%
G04 APERTURE END LIST*
D10*
%TO.C,KiKit_MB_35_1*%
X147300000Y-87833333D03*
%TD*%
%TO.C,KiKit_MB_52_4*%
X184500000Y-110500000D03*
%TD*%
%TO.C,KiKit_MB_46_3*%
X173333333Y-81200000D03*
%TD*%
%TO.C,KiKit_MB_15_3*%
X160666666Y-51800000D03*
%TD*%
%TO.C,KiKit_MB_50_2*%
X184500000Y-20833334D03*
%TD*%
%TO.C,KiKit_MB_30_2*%
X172333333Y-54200000D03*
%TD*%
D11*
%TO.C,H2*%
X145200000Y-29300000D03*
%TD*%
D10*
%TO.C,KiKit_MB_4_2*%
X147300000Y-43166666D03*
%TD*%
%TO.C,KiKit_MB_22_2*%
X135333333Y-54200000D03*
%TD*%
%TO.C,KiKit_MB_9_3*%
X149700000Y-34833334D03*
%TD*%
%TO.C,KiKit_MB_21_3*%
X124666667Y-54200000D03*
%TD*%
%TO.C,KiKit_MB_25_1*%
X149700000Y-63833333D03*
%TD*%
%TO.C,KiKit_MB_49_4*%
X112500000Y-22500000D03*
%TD*%
%TO.C,KiKit_MB_5_2*%
X123666667Y-27200000D03*
%TD*%
%TO.C,KiKit_MB_52_5*%
X184500000Y-111333333D03*
%TD*%
D12*
%TO.C,J1*%
X156850000Y-56300000D03*
D13*
X159390000Y-56300000D03*
X161930000Y-56300000D03*
X164470000Y-56300000D03*
X167010000Y-56300000D03*
X169550000Y-56300000D03*
X172090000Y-56300000D03*
X174630000Y-56300000D03*
X177170000Y-56300000D03*
%TD*%
D10*
%TO.C,KiKit_MB_27_1*%
X184300000Y-60833333D03*
%TD*%
%TO.C,KiKit_MB_37_2*%
X123666667Y-81200000D03*
%TD*%
%TO.C,KiKit_MB_50_5*%
X184500000Y-23333334D03*
%TD*%
%TO.C,KiKit_MB_32_4*%
X171333333Y-78800000D03*
%TD*%
D14*
%TO.C,KiKit_TO_2*%
X189500000Y-22000000D03*
%TD*%
D10*
%TO.C,KiKit_MB_36_3*%
X147300000Y-98166666D03*
%TD*%
%TO.C,KiKit_MB_3_2*%
X147300000Y-34833334D03*
%TD*%
%TO.C,KiKit_MB_23_4*%
X122666667Y-78800000D03*
%TD*%
%TO.C,KiKit_MB_32_1*%
X174333333Y-78800000D03*
%TD*%
%TO.C,KiKit_MB_27_3*%
X184300000Y-62833333D03*
%TD*%
%TO.C,KiKit_MB_15_2*%
X161666666Y-51800000D03*
%TD*%
%TO.C,KiKit_MB_46_1*%
X171333333Y-81200000D03*
%TD*%
%TO.C,KiKit_MB_4_3*%
X147300000Y-44166666D03*
%TD*%
%TO.C,KiKit_MB_13_2*%
X160666666Y-27200000D03*
%TD*%
D11*
%TO.C,H1*%
X114800000Y-56300000D03*
%TD*%
D10*
%TO.C,KiKit_MB_43_1*%
X184300000Y-87833333D03*
%TD*%
%TO.C,KiKit_MB_2_4*%
X112700000Y-42166666D03*
%TD*%
%TO.C,KiKit_MB_8_2*%
X136333333Y-51800000D03*
%TD*%
%TO.C,KiKit_MB_43_2*%
X184300000Y-88833333D03*
%TD*%
%TO.C,KiKit_MB_50_4*%
X184500000Y-22500000D03*
%TD*%
%TO.C,KiKit_MB_39_4*%
X122666667Y-105800000D03*
%TD*%
%TO.C,KiKit_MB_22_1*%
X134333333Y-54200000D03*
%TD*%
D11*
%TO.C,H1*%
X151800000Y-29300000D03*
%TD*%
D10*
%TO.C,KiKit_MB_30_4*%
X174333333Y-54200000D03*
%TD*%
%TO.C,KiKit_MB_49_7*%
X112500000Y-25000000D03*
%TD*%
%TO.C,KiKit_MB_30_1*%
X171333333Y-54200000D03*
%TD*%
%TO.C,KiKit_MB_35_2*%
X147300000Y-88833333D03*
%TD*%
%TO.C,KiKit_MB_34_2*%
X112700000Y-98166666D03*
%TD*%
D12*
%TO.C,J1*%
X119850000Y-29300000D03*
D13*
X122390000Y-29300000D03*
X124930000Y-29300000D03*
X127470000Y-29300000D03*
X130010000Y-29300000D03*
X132550000Y-29300000D03*
X135090000Y-29300000D03*
X137630000Y-29300000D03*
X140170000Y-29300000D03*
%TD*%
D10*
%TO.C,KiKit_MB_12_4*%
X184300000Y-45166666D03*
%TD*%
%TO.C,KiKit_MB_21_2*%
X123666667Y-54200000D03*
%TD*%
%TO.C,KiKit_MB_20_4*%
X147300000Y-72166666D03*
%TD*%
%TO.C,KiKit_MB_23_3*%
X123666667Y-78800000D03*
%TD*%
%TO.C,KiKit_MB_4_4*%
X147300000Y-45166666D03*
%TD*%
D11*
%TO.C,H1*%
X151800000Y-56300000D03*
%TD*%
D10*
%TO.C,KiKit_MB_51_2*%
X112500000Y-108833333D03*
%TD*%
%TO.C,KiKit_MB_48_4*%
X171333333Y-105800000D03*
%TD*%
%TO.C,KiKit_MB_49_3*%
X112500000Y-21666667D03*
%TD*%
%TO.C,KiKit_MB_1_3*%
X112700000Y-34833334D03*
%TD*%
%TO.C,KiKit_MB_31_1*%
X162666666Y-78800000D03*
%TD*%
%TO.C,KiKit_MB_40_3*%
X135333333Y-105800000D03*
%TD*%
%TO.C,KiKit_MB_11_2*%
X184300000Y-34833334D03*
%TD*%
%TO.C,KiKit_MB_44_4*%
X184300000Y-99166666D03*
%TD*%
%TO.C,KiKit_MB_7_3*%
X123666667Y-51800000D03*
%TD*%
%TO.C,KiKit_MB_33_1*%
X112700000Y-90833333D03*
%TD*%
%TO.C,KiKit_MB_29_2*%
X160666666Y-54200000D03*
%TD*%
D12*
%TO.C,JP1*%
X182010000Y-71700000D03*
D13*
X179470000Y-71700000D03*
%TD*%
D10*
%TO.C,KiKit_MB_32_2*%
X173333333Y-78800000D03*
%TD*%
D11*
%TO.C,H3*%
X145200000Y-76700000D03*
%TD*%
D10*
%TO.C,KiKit_MB_28_4*%
X184300000Y-72166666D03*
%TD*%
%TO.C,KiKit_MB_19_3*%
X147300000Y-62833333D03*
%TD*%
%TO.C,KiKit_MB_14_4*%
X174333333Y-27200000D03*
%TD*%
%TO.C,KiKit_MB_11_4*%
X184300000Y-36833334D03*
%TD*%
%TO.C,KiKit_MB_29_1*%
X159666666Y-54200000D03*
%TD*%
%TO.C,KiKit_MB_24_1*%
X137333333Y-78800000D03*
%TD*%
%TO.C,KiKit_MB_45_3*%
X161666666Y-81200000D03*
%TD*%
%TO.C,KiKit_MB_51_4*%
X112500000Y-110500000D03*
%TD*%
D11*
%TO.C,H2*%
X145200000Y-83300000D03*
%TD*%
D10*
%TO.C,KiKit_MB_1_2*%
X112700000Y-35833334D03*
%TD*%
D12*
%TO.C,J1*%
X156850000Y-83300000D03*
D13*
X159390000Y-83300000D03*
X161930000Y-83300000D03*
X164470000Y-83300000D03*
X167010000Y-83300000D03*
X169550000Y-83300000D03*
X172090000Y-83300000D03*
X174630000Y-83300000D03*
X177170000Y-83300000D03*
%TD*%
D10*
%TO.C,KiKit_MB_41_1*%
X149700000Y-90833333D03*
%TD*%
%TO.C,KiKit_MB_37_3*%
X124666667Y-81200000D03*
%TD*%
%TO.C,KiKit_MB_42_2*%
X149700000Y-98166666D03*
%TD*%
%TO.C,KiKit_MB_7_4*%
X122666667Y-51800000D03*
%TD*%
D12*
%TO.C,JP1*%
X182010000Y-98700000D03*
D13*
X179470000Y-98700000D03*
%TD*%
D10*
%TO.C,KiKit_MB_41_4*%
X149700000Y-87833333D03*
%TD*%
%TO.C,KiKit_MB_22_3*%
X136333333Y-54200000D03*
%TD*%
%TO.C,KiKit_MB_9_4*%
X149700000Y-33833334D03*
%TD*%
%TO.C,KiKit_MB_30_3*%
X173333333Y-54200000D03*
%TD*%
%TO.C,KiKit_MB_17_2*%
X112700000Y-62833333D03*
%TD*%
%TO.C,KiKit_MB_12_2*%
X184300000Y-43166666D03*
%TD*%
%TO.C,KiKit_MB_39_3*%
X123666667Y-105800000D03*
%TD*%
%TO.C,KiKit_MB_2_2*%
X112700000Y-44166666D03*
%TD*%
%TO.C,KiKit_MB_11_1*%
X184300000Y-33833334D03*
%TD*%
%TO.C,KiKit_MB_18_2*%
X112700000Y-71166666D03*
%TD*%
%TO.C,KiKit_MB_45_4*%
X162666666Y-81200000D03*
%TD*%
%TO.C,KiKit_MB_49_2*%
X112500000Y-20833334D03*
%TD*%
%TO.C,KiKit_MB_38_3*%
X136333333Y-81200000D03*
%TD*%
D12*
%TO.C,J1*%
X119850000Y-83300000D03*
D13*
X122390000Y-83300000D03*
X124930000Y-83300000D03*
X127470000Y-83300000D03*
X130010000Y-83300000D03*
X132550000Y-83300000D03*
X135090000Y-83300000D03*
X137630000Y-83300000D03*
X140170000Y-83300000D03*
%TD*%
D10*
%TO.C,KiKit_MB_6_2*%
X135333333Y-27200000D03*
%TD*%
%TO.C,KiKit_MB_7_1*%
X125666667Y-51800000D03*
%TD*%
D11*
%TO.C,H1*%
X114800000Y-29300000D03*
%TD*%
D10*
%TO.C,KiKit_MB_10_1*%
X149700000Y-45166666D03*
%TD*%
%TO.C,KiKit_MB_43_4*%
X184300000Y-90833333D03*
%TD*%
D14*
%TO.C,KiKit_TO_3*%
X107500000Y-111000000D03*
%TD*%
D10*
%TO.C,KiKit_MB_26_3*%
X149700000Y-70166666D03*
%TD*%
%TO.C,KiKit_MB_36_4*%
X147300000Y-99166666D03*
%TD*%
%TO.C,KiKit_MB_3_1*%
X147300000Y-33833334D03*
%TD*%
%TO.C,KiKit_MB_46_2*%
X172333333Y-81200000D03*
%TD*%
%TO.C,KiKit_MB_20_2*%
X147300000Y-70166666D03*
%TD*%
%TO.C,KiKit_MB_52_1*%
X184500000Y-108000000D03*
%TD*%
%TO.C,KiKit_MB_10_4*%
X149700000Y-42166666D03*
%TD*%
%TO.C,KiKit_MB_5_3*%
X124666667Y-27200000D03*
%TD*%
%TO.C,KiKit_MB_32_3*%
X172333333Y-78800000D03*
%TD*%
%TO.C,KiKit_MB_40_1*%
X137333333Y-105800000D03*
%TD*%
%TO.C,KiKit_MB_34_4*%
X112700000Y-96166666D03*
%TD*%
D12*
%TO.C,JP1*%
X145010000Y-71700000D03*
D13*
X142470000Y-71700000D03*
%TD*%
D10*
%TO.C,KiKit_MB_42_3*%
X149700000Y-97166666D03*
%TD*%
%TO.C,KiKit_MB_13_1*%
X159666666Y-27200000D03*
%TD*%
D11*
%TO.C,H1*%
X114800000Y-83300000D03*
%TD*%
D10*
%TO.C,KiKit_MB_10_2*%
X149700000Y-44166666D03*
%TD*%
%TO.C,KiKit_MB_16_4*%
X171333333Y-51800000D03*
%TD*%
%TO.C,KiKit_MB_44_2*%
X184300000Y-97166666D03*
%TD*%
D11*
%TO.C,H2*%
X145200000Y-56300000D03*
%TD*%
D10*
%TO.C,KiKit_MB_3_4*%
X147300000Y-36833334D03*
%TD*%
%TO.C,KiKit_MB_5_1*%
X122666667Y-27200000D03*
%TD*%
%TO.C,KiKit_MB_35_3*%
X147300000Y-89833333D03*
%TD*%
%TO.C,KiKit_MB_8_3*%
X135333333Y-51800000D03*
%TD*%
%TO.C,KiKit_MB_50_7*%
X184500000Y-25000000D03*
%TD*%
%TO.C,KiKit_MB_7_2*%
X124666667Y-51800000D03*
%TD*%
%TO.C,KiKit_MB_25_2*%
X149700000Y-62833333D03*
%TD*%
%TO.C,KiKit_MB_6_4*%
X137333333Y-27200000D03*
%TD*%
%TO.C,KiKit_MB_6_1*%
X134333333Y-27200000D03*
%TD*%
%TO.C,KiKit_MB_28_3*%
X184300000Y-71166666D03*
%TD*%
%TO.C,KiKit_MB_18_4*%
X112700000Y-69166666D03*
%TD*%
%TO.C,KiKit_MB_14_3*%
X173333333Y-27200000D03*
%TD*%
D11*
%TO.C,H3*%
X182200000Y-103700000D03*
%TD*%
D10*
%TO.C,KiKit_MB_26_1*%
X149700000Y-72166666D03*
%TD*%
%TO.C,KiKit_MB_44_3*%
X184300000Y-98166666D03*
%TD*%
%TO.C,KiKit_MB_31_2*%
X161666666Y-78800000D03*
%TD*%
%TO.C,KiKit_MB_16_1*%
X174333333Y-51800000D03*
%TD*%
D11*
%TO.C,H2*%
X182200000Y-83300000D03*
%TD*%
D10*
%TO.C,KiKit_MB_28_2*%
X184300000Y-70166666D03*
%TD*%
%TO.C,KiKit_MB_16_3*%
X172333333Y-51800000D03*
%TD*%
%TO.C,KiKit_MB_52_2*%
X184500000Y-108833333D03*
%TD*%
%TO.C,KiKit_MB_33_2*%
X112700000Y-89833333D03*
%TD*%
%TO.C,KiKit_MB_24_3*%
X135333333Y-78800000D03*
%TD*%
D12*
%TO.C,JP1*%
X145010000Y-98700000D03*
D13*
X142470000Y-98700000D03*
%TD*%
D10*
%TO.C,KiKit_MB_12_3*%
X184300000Y-44166666D03*
%TD*%
D11*
%TO.C,H4*%
X114800000Y-49700000D03*
%TD*%
D10*
%TO.C,KiKit_MB_36_2*%
X147300000Y-97166666D03*
%TD*%
%TO.C,KiKit_MB_35_4*%
X147300000Y-90833333D03*
%TD*%
%TO.C,KiKit_MB_39_2*%
X124666667Y-105800000D03*
%TD*%
%TO.C,KiKit_MB_31_3*%
X160666666Y-78800000D03*
%TD*%
%TO.C,KiKit_MB_39_1*%
X125666667Y-105800000D03*
%TD*%
%TO.C,KiKit_MB_45_1*%
X159666666Y-81200000D03*
%TD*%
%TO.C,KiKit_MB_46_4*%
X174333333Y-81200000D03*
%TD*%
%TO.C,KiKit_MB_18_1*%
X112700000Y-72166666D03*
%TD*%
%TO.C,KiKit_MB_38_1*%
X134333333Y-81200000D03*
%TD*%
%TO.C,KiKit_MB_20_3*%
X147300000Y-71166666D03*
%TD*%
%TO.C,KiKit_MB_25_4*%
X149700000Y-60833333D03*
%TD*%
%TO.C,KiKit_MB_52_6*%
X184500000Y-112166666D03*
%TD*%
%TO.C,KiKit_MB_3_3*%
X147300000Y-35833334D03*
%TD*%
D12*
%TO.C,JP1*%
X182010000Y-44700000D03*
D13*
X179470000Y-44700000D03*
%TD*%
D10*
%TO.C,KiKit_MB_14_2*%
X172333333Y-27200000D03*
%TD*%
%TO.C,KiKit_MB_48_1*%
X174333333Y-105800000D03*
%TD*%
%TO.C,KiKit_MB_43_3*%
X184300000Y-89833333D03*
%TD*%
%TO.C,KiKit_MB_23_1*%
X125666667Y-78800000D03*
%TD*%
%TO.C,KiKit_MB_19_1*%
X147300000Y-60833333D03*
%TD*%
D11*
%TO.C,H3*%
X182200000Y-49700000D03*
%TD*%
D10*
%TO.C,KiKit_MB_33_4*%
X112700000Y-87833333D03*
%TD*%
%TO.C,KiKit_MB_22_4*%
X137333333Y-54200000D03*
%TD*%
%TO.C,KiKit_MB_42_1*%
X149700000Y-99166666D03*
%TD*%
%TO.C,KiKit_MB_9_2*%
X149700000Y-35833334D03*
%TD*%
%TO.C,KiKit_MB_13_4*%
X162666666Y-27200000D03*
%TD*%
%TO.C,KiKit_MB_20_1*%
X147300000Y-69166666D03*
%TD*%
%TO.C,KiKit_MB_8_4*%
X134333333Y-51800000D03*
%TD*%
%TO.C,KiKit_MB_24_2*%
X136333333Y-78800000D03*
%TD*%
%TO.C,KiKit_MB_4_1*%
X147300000Y-42166666D03*
%TD*%
%TO.C,KiKit_MB_24_4*%
X134333333Y-78800000D03*
%TD*%
%TO.C,KiKit_MB_40_4*%
X134333333Y-105800000D03*
%TD*%
%TO.C,KiKit_MB_42_4*%
X149700000Y-96166666D03*
%TD*%
D11*
%TO.C,H4*%
X114800000Y-103700000D03*
%TD*%
D10*
%TO.C,KiKit_MB_44_1*%
X184300000Y-96166666D03*
%TD*%
D11*
%TO.C,H2*%
X182200000Y-56300000D03*
%TD*%
D10*
%TO.C,KiKit_MB_49_6*%
X112500000Y-24166667D03*
%TD*%
D11*
%TO.C,H4*%
X151800000Y-49700000D03*
%TD*%
D10*
%TO.C,KiKit_MB_50_3*%
X184500000Y-21666667D03*
%TD*%
D11*
%TO.C,H1*%
X151800000Y-83300000D03*
%TD*%
D10*
%TO.C,KiKit_MB_45_2*%
X160666666Y-81200000D03*
%TD*%
%TO.C,KiKit_MB_37_1*%
X122666667Y-81200000D03*
%TD*%
D12*
%TO.C,JP1*%
X145010000Y-44700000D03*
D13*
X142470000Y-44700000D03*
%TD*%
D10*
%TO.C,KiKit_MB_41_3*%
X149700000Y-88833333D03*
%TD*%
%TO.C,KiKit_MB_51_5*%
X112500000Y-111333333D03*
%TD*%
%TO.C,KiKit_MB_50_1*%
X184500000Y-20000000D03*
%TD*%
%TO.C,KiKit_MB_1_1*%
X112700000Y-36833334D03*
%TD*%
%TO.C,KiKit_MB_12_1*%
X184300000Y-42166666D03*
%TD*%
%TO.C,KiKit_MB_10_3*%
X149700000Y-43166666D03*
%TD*%
%TO.C,KiKit_MB_51_3*%
X112500000Y-109666666D03*
%TD*%
D11*
%TO.C,H3*%
X145200000Y-103700000D03*
%TD*%
D10*
%TO.C,KiKit_MB_14_1*%
X171333333Y-27200000D03*
%TD*%
%TO.C,KiKit_MB_18_3*%
X112700000Y-70166666D03*
%TD*%
%TO.C,KiKit_MB_17_4*%
X112700000Y-60833333D03*
%TD*%
%TO.C,KiKit_MB_1_4*%
X112700000Y-33833334D03*
%TD*%
%TO.C,KiKit_MB_38_2*%
X135333333Y-81200000D03*
%TD*%
%TO.C,KiKit_MB_11_3*%
X184300000Y-35833334D03*
%TD*%
%TO.C,KiKit_MB_5_4*%
X125666667Y-27200000D03*
%TD*%
%TO.C,KiKit_MB_21_4*%
X125666667Y-54200000D03*
%TD*%
%TO.C,KiKit_MB_23_2*%
X124666667Y-78800000D03*
%TD*%
%TO.C,KiKit_MB_49_5*%
X112500000Y-23333334D03*
%TD*%
%TO.C,KiKit_MB_51_1*%
X112500000Y-108000000D03*
%TD*%
%TO.C,KiKit_MB_33_3*%
X112700000Y-88833333D03*
%TD*%
%TO.C,KiKit_MB_28_1*%
X184300000Y-69166666D03*
%TD*%
%TO.C,KiKit_MB_17_1*%
X112700000Y-63833333D03*
%TD*%
%TO.C,KiKit_MB_16_2*%
X173333333Y-51800000D03*
%TD*%
%TO.C,KiKit_MB_25_3*%
X149700000Y-61833333D03*
%TD*%
D11*
%TO.C,H4*%
X151800000Y-76700000D03*
%TD*%
D10*
%TO.C,KiKit_MB_38_4*%
X137333333Y-81200000D03*
%TD*%
%TO.C,KiKit_MB_41_2*%
X149700000Y-89833333D03*
%TD*%
%TO.C,KiKit_MB_37_4*%
X125666667Y-81200000D03*
%TD*%
%TO.C,KiKit_MB_27_2*%
X184300000Y-61833333D03*
%TD*%
%TO.C,KiKit_MB_19_2*%
X147300000Y-61833333D03*
%TD*%
%TO.C,KiKit_MB_31_4*%
X159666666Y-78800000D03*
%TD*%
D11*
%TO.C,H4*%
X151800000Y-103700000D03*
%TD*%
D10*
%TO.C,KiKit_MB_6_3*%
X136333333Y-27200000D03*
%TD*%
%TO.C,KiKit_MB_29_4*%
X162666666Y-54200000D03*
%TD*%
%TO.C,KiKit_MB_36_1*%
X147300000Y-96166666D03*
%TD*%
%TO.C,KiKit_MB_47_1*%
X162666666Y-105800000D03*
%TD*%
D11*
%TO.C,H3*%
X145200000Y-49700000D03*
%TD*%
D10*
%TO.C,KiKit_MB_26_4*%
X149700000Y-69166666D03*
%TD*%
D11*
%TO.C,H2*%
X182200000Y-29300000D03*
%TD*%
D10*
%TO.C,KiKit_MB_8_1*%
X137333333Y-51800000D03*
%TD*%
D12*
%TO.C,J1*%
X156850000Y-29300000D03*
D13*
X159390000Y-29300000D03*
X161930000Y-29300000D03*
X164470000Y-29300000D03*
X167010000Y-29300000D03*
X169550000Y-29300000D03*
X172090000Y-29300000D03*
X174630000Y-29300000D03*
X177170000Y-29300000D03*
%TD*%
D10*
%TO.C,KiKit_MB_51_7*%
X112500000Y-113000000D03*
%TD*%
%TO.C,KiKit_MB_17_3*%
X112700000Y-61833333D03*
%TD*%
%TO.C,KiKit_MB_2_3*%
X112700000Y-43166666D03*
%TD*%
%TO.C,KiKit_MB_50_6*%
X184500000Y-24166667D03*
%TD*%
%TO.C,KiKit_MB_48_2*%
X173333333Y-105800000D03*
%TD*%
%TO.C,KiKit_MB_34_1*%
X112700000Y-99166666D03*
%TD*%
%TO.C,KiKit_MB_40_2*%
X136333333Y-105800000D03*
%TD*%
D11*
%TO.C,H3*%
X182200000Y-76700000D03*
%TD*%
D10*
%TO.C,KiKit_MB_52_7*%
X184500000Y-113000000D03*
%TD*%
%TO.C,KiKit_MB_29_3*%
X161666666Y-54200000D03*
%TD*%
%TO.C,KiKit_MB_51_6*%
X112500000Y-112166666D03*
%TD*%
%TO.C,KiKit_MB_47_2*%
X161666666Y-105800000D03*
%TD*%
%TO.C,KiKit_MB_52_3*%
X184500000Y-109666666D03*
%TD*%
%TO.C,KiKit_MB_9_1*%
X149700000Y-36833334D03*
%TD*%
%TO.C,KiKit_MB_34_3*%
X112700000Y-97166666D03*
%TD*%
%TO.C,KiKit_MB_47_3*%
X160666666Y-105800000D03*
%TD*%
D14*
%TO.C,KiKit_TO_1*%
X107500000Y-22000000D03*
%TD*%
D10*
%TO.C,KiKit_MB_27_4*%
X184300000Y-63833333D03*
%TD*%
%TO.C,KiKit_MB_13_3*%
X161666666Y-27200000D03*
%TD*%
%TO.C,KiKit_MB_47_4*%
X159666666Y-105800000D03*
%TD*%
%TO.C,KiKit_MB_48_3*%
X172333333Y-105800000D03*
%TD*%
%TO.C,KiKit_MB_49_1*%
X112500000Y-20000000D03*
%TD*%
%TO.C,KiKit_MB_15_4*%
X159666666Y-51800000D03*
%TD*%
%TO.C,KiKit_MB_21_1*%
X122666667Y-54200000D03*
%TD*%
%TO.C,KiKit_MB_19_4*%
X147300000Y-63833333D03*
%TD*%
%TO.C,KiKit_MB_26_2*%
X149700000Y-71166666D03*
%TD*%
D12*
%TO.C,J1*%
X119850000Y-56300000D03*
D13*
X122390000Y-56300000D03*
X124930000Y-56300000D03*
X127470000Y-56300000D03*
X130010000Y-56300000D03*
X132550000Y-56300000D03*
X135090000Y-56300000D03*
X137630000Y-56300000D03*
X140170000Y-56300000D03*
%TD*%
D10*
%TO.C,KiKit_MB_15_1*%
X162666666Y-51800000D03*
%TD*%
D11*
%TO.C,H4*%
X114800000Y-76700000D03*
%TD*%
D10*
%TO.C,KiKit_MB_2_1*%
X112700000Y-45166666D03*
%TD*%
D14*
%TO.C,KiKit_FID_B_2*%
X186500000Y-22000000D03*
%TD*%
%TO.C,KiKit_FID_B_1*%
X110500000Y-22000000D03*
%TD*%
%TO.C,KiKit_FID_B_3*%
X110500000Y-111000000D03*
%TD*%
M02*
