M48
; DRILL file {KiCad 8.0.3} date 2024-12-25T16:19:32+0800
; FORMAT={-:-/ absolute / inch / decimal}
; #@! TF.CreationDate,2024-12-25T16:19:32+08:00
; #@! TF.GenerationSoftware,Kicad,Pcbnew,8.0.3
; #@! TF.FileFunction,Plated,1,2,PTH
FMAT,2
INCH
; #@! TA.AperFunction,Plated,PTH,ViaDrill
T1C0.0118
; #@! TA.AperFunction,Plated,PTH,ComponentDrill
T2C0.0394
%
G90
G05
T1
X4.6913Y-1.4283
X4.6913Y-2.4913
X4.6913Y-3.5543
X4.7362Y-1.5315
X4.7362Y-2.5945
X4.7362Y-3.6575
X4.7756Y-1.5315
X4.7756Y-2.5945
X4.7756Y-3.6575
X4.815Y-1.5315
X4.815Y-2.5945
X4.815Y-3.6575
X4.8543Y-1.5315
X4.8543Y-2.5945
X4.8543Y-3.6575
X4.8843Y-1.7035
X4.8843Y-2.7665
X4.8843Y-3.8295
X4.8937Y-1.5315
X4.8937Y-2.5945
X4.8937Y-3.6575
X4.9433Y-1.5276
X4.9433Y-2.5906
X4.9433Y-3.6535
X4.962Y-1.401
X4.962Y-2.464
X4.962Y-3.527
X4.987Y-1.7626
X4.987Y-2.8256
X4.987Y-3.8886
X5.0236Y-1.8386
X5.0236Y-2.9016
X5.0236Y-3.9646
X5.0256Y-1.7008
X5.0256Y-2.7638
X5.0256Y-3.8268
X5.0906Y-1.8386
X5.0906Y-2.9016
X5.0906Y-3.9646
X5.0908Y-1.5537
X5.0908Y-2.6167
X5.0908Y-3.6797
X5.0945Y-1.7504
X5.0945Y-2.8134
X5.0945Y-3.8764
X5.0974Y-1.6159
X5.0974Y-2.6789
X5.0974Y-3.7419
X5.1201Y-1.4839
X5.1201Y-2.5469
X5.1201Y-3.6098
X5.1299Y-1.8386
X5.1299Y-2.9016
X5.1299Y-3.9646
X5.1555Y-1.7096
X5.1555Y-2.7726
X5.1555Y-3.8356
X5.1693Y-1.8386
X5.1693Y-2.9016
X5.1693Y-3.9646
X5.185Y-1.4685
X5.185Y-2.5315
X5.185Y-3.5945
X5.1866Y-1.5461
X5.1866Y-2.6091
X5.1866Y-3.672
X5.1906Y-1.7012
X5.1906Y-2.7642
X5.1906Y-3.8272
X5.2008Y-1.4449
X5.2008Y-2.5079
X5.2008Y-3.5709
X5.2087Y-1.8386
X5.2087Y-2.9016
X5.2087Y-3.9646
X5.2717Y-1.4764
X5.2717Y-2.5394
X5.2717Y-3.6024
X5.3283Y-1.6209
X5.3283Y-2.6839
X5.3283Y-3.7469
X5.3346Y-1.4409
X5.3346Y-2.5039
X5.3346Y-3.5669
X5.3608Y-1.3775
X5.3608Y-1.6465
X5.3608Y-2.4405
X5.3608Y-2.7094
X5.3608Y-3.5035
X5.3608Y-3.7724
X5.3705Y-1.2646
X5.3705Y-2.3276
X5.3705Y-3.3906
X5.4016Y-1.4921
X5.4016Y-2.5551
X5.4016Y-3.6181
X5.4185Y-1.2646
X5.4185Y-2.3276
X5.4185Y-3.3906
X5.452Y-1.6457
X5.452Y-2.7087
X5.452Y-3.7717
X5.5281Y-1.3207
X5.5281Y-2.3837
X5.5281Y-3.4467
X5.547Y-1.5085
X5.547Y-2.5715
X5.547Y-3.6344
X6.148Y-1.4283
X6.148Y-2.4913
X6.148Y-3.5543
X6.1929Y-1.5315
X6.1929Y-2.5945
X6.1929Y-3.6575
X6.2323Y-1.5315
X6.2323Y-2.5945
X6.2323Y-3.6575
X6.2717Y-1.5315
X6.2717Y-2.5945
X6.2717Y-3.6575
X6.311Y-1.5315
X6.311Y-2.5945
X6.311Y-3.6575
X6.3409Y-1.7035
X6.3409Y-2.7665
X6.3409Y-3.8295
X6.3504Y-1.5315
X6.3504Y-2.5945
X6.3504Y-3.6575
X6.4Y-1.5276
X6.4Y-2.5906
X6.4Y-3.6535
X6.4187Y-1.401
X6.4187Y-2.464
X6.4187Y-3.527
X6.4437Y-1.7626
X6.4437Y-2.8256
X6.4437Y-3.8886
X6.4803Y-1.8386
X6.4803Y-2.9016
X6.4803Y-3.9646
X6.4823Y-1.7008
X6.4823Y-2.7638
X6.4823Y-3.8268
X6.5472Y-1.8386
X6.5472Y-2.9016
X6.5472Y-3.9646
X6.5475Y-1.5537
X6.5475Y-2.6167
X6.5475Y-3.6797
X6.5512Y-1.7504
X6.5512Y-2.8134
X6.5512Y-3.8764
X6.5541Y-1.6159
X6.5541Y-2.6789
X6.5541Y-3.7419
X6.5768Y-1.4839
X6.5768Y-2.5469
X6.5768Y-3.6098
X6.5866Y-1.8386
X6.5866Y-2.9016
X6.5866Y-3.9646
X6.6122Y-1.7096
X6.6122Y-2.7726
X6.6122Y-3.8356
X6.626Y-1.8386
X6.626Y-2.9016
X6.626Y-3.9646
X6.6417Y-1.4685
X6.6417Y-2.5315
X6.6417Y-3.5945
X6.6433Y-1.5461
X6.6433Y-2.6091
X6.6433Y-3.672
X6.6472Y-1.7012
X6.6472Y-2.7642
X6.6472Y-3.8272
X6.6575Y-1.4449
X6.6575Y-2.5079
X6.6575Y-3.5709
X6.6654Y-1.8386
X6.6654Y-2.9016
X6.6654Y-3.9646
X6.7283Y-1.4764
X6.7283Y-2.5394
X6.7283Y-3.6024
X6.785Y-1.6209
X6.785Y-2.6839
X6.785Y-3.7469
X6.7913Y-1.4409
X6.7913Y-2.5039
X6.7913Y-3.5669
X6.8175Y-1.3775
X6.8175Y-1.6465
X6.8175Y-2.4405
X6.8175Y-2.7094
X6.8175Y-3.5035
X6.8175Y-3.7724
X6.8272Y-1.2646
X6.8272Y-2.3276
X6.8272Y-3.3906
X6.8583Y-1.4921
X6.8583Y-2.5551
X6.8583Y-3.6181
X6.8752Y-1.2646
X6.8752Y-2.3276
X6.8752Y-3.3906
X6.9087Y-1.6457
X6.9087Y-2.7087
X6.9087Y-3.7717
X6.9848Y-1.3207
X6.9848Y-2.3837
X6.9848Y-3.4467
X7.0037Y-1.5085
X7.0037Y-2.5715
X7.0037Y-3.6344
T2
X4.7185Y-1.1535
X4.7185Y-2.2165
X4.7185Y-3.2795
X4.8185Y-1.1535
X4.8185Y-2.2165
X4.8185Y-3.2795
X4.9185Y-1.1535
X4.9185Y-2.2165
X4.9185Y-3.2795
X5.0185Y-1.1535
X5.0185Y-2.2165
X5.0185Y-3.2795
X5.1185Y-1.1535
X5.1185Y-2.2165
X5.1185Y-3.2795
X5.2185Y-1.1535
X5.2185Y-2.2165
X5.2185Y-3.2795
X5.3185Y-1.1535
X5.3185Y-2.2165
X5.3185Y-3.2795
X5.4185Y-1.1535
X5.4185Y-2.2165
X5.4185Y-3.2795
X5.5185Y-1.1535
X5.5185Y-2.2165
X5.5185Y-3.2795
X5.6091Y-1.7598
X5.6091Y-2.8228
X5.6091Y-3.8858
X5.7091Y-1.7598
X5.7091Y-2.8228
X5.7091Y-3.8858
X6.1752Y-1.1535
X6.1752Y-2.2165
X6.1752Y-3.2795
X6.2752Y-1.1535
X6.2752Y-2.2165
X6.2752Y-3.2795
X6.3752Y-1.1535
X6.3752Y-2.2165
X6.3752Y-3.2795
X6.4752Y-1.1535
X6.4752Y-2.2165
X6.4752Y-3.2795
X6.5752Y-1.1535
X6.5752Y-2.2165
X6.5752Y-3.2795
X6.6752Y-1.1535
X6.6752Y-2.2165
X6.6752Y-3.2795
X6.7752Y-1.1535
X6.7752Y-2.2165
X6.7752Y-3.2795
X6.8752Y-1.1535
X6.8752Y-2.2165
X6.8752Y-3.2795
X6.9752Y-1.1535
X6.9752Y-2.2165
X6.9752Y-3.2795
X7.0657Y-1.7598
X7.0657Y-2.8228
X7.0657Y-3.8858
X7.1657Y-1.7598
X7.1657Y-2.8228
X7.1657Y-3.8858
M30
