%TF.GenerationSoftware,KiCad,Pcbnew,8.0.3*%
%TF.CreationDate,2024-12-25T16:19:31+08:00*%
%TF.ProjectId,ICM-42688_Panelized,49434d2d-3432-4363-9838-5f50616e656c,rev?*%
%TF.SameCoordinates,Original*%
%TF.FileFunction,Soldermask,Top*%
%TF.FilePolarity,Negative*%
%FSLAX46Y46*%
G04 Gerber Fmt 4.6, Leading zero omitted, Abs format (unit mm)*
G04 Created by KiCad (PCBNEW 8.0.3) date 2024-12-25 16:19:31*
%MOMM*%
%LPD*%
G01*
G04 APERTURE LIST*
G04 Aperture macros list*
%AMRoundRect*
0 Rectangle with rounded corners*
0 $1 Rounding radius*
0 $2 $3 $4 $5 $6 $7 $8 $9 X,Y pos of 4 corners*
0 Add a 4 corners polygon primitive as box body*
4,1,4,$2,$3,$4,$5,$6,$7,$8,$9,$2,$3,0*
0 Add four circle primitives for the rounded corners*
1,1,$1+$1,$2,$3*
1,1,$1+$1,$4,$5*
1,1,$1+$1,$6,$7*
1,1,$1+$1,$8,$9*
0 Add four rect primitives between the rounded corners*
20,1,$1+$1,$2,$3,$4,$5,0*
20,1,$1+$1,$4,$5,$6,$7,0*
20,1,$1+$1,$6,$7,$8,$9,0*
20,1,$1+$1,$8,$9,$2,$3,0*%
G04 Aperture macros list end*
%ADD10RoundRect,0.200000X0.200000X0.275000X-0.200000X0.275000X-0.200000X-0.275000X0.200000X-0.275000X0*%
%ADD11C,0.500000*%
%ADD12RoundRect,0.225000X-0.225000X-0.375000X0.225000X-0.375000X0.225000X0.375000X-0.225000X0.375000X0*%
%ADD13R,1.700000X1.700000*%
%ADD14O,1.700000X1.700000*%
%ADD15RoundRect,0.375000X0.625000X0.375000X-0.625000X0.375000X-0.625000X-0.375000X0.625000X-0.375000X0*%
%ADD16RoundRect,0.500000X0.500000X1.400000X-0.500000X1.400000X-0.500000X-1.400000X0.500000X-1.400000X0*%
%ADD17RoundRect,0.225000X0.375000X-0.225000X0.375000X0.225000X-0.375000X0.225000X-0.375000X-0.225000X0*%
%ADD18RoundRect,0.200000X-0.200000X-0.275000X0.200000X-0.275000X0.200000X0.275000X-0.200000X0.275000X0*%
%ADD19RoundRect,0.225000X-0.250000X0.225000X-0.250000X-0.225000X0.250000X-0.225000X0.250000X0.225000X0*%
%ADD20RoundRect,0.250000X0.925000X-0.412500X0.925000X0.412500X-0.925000X0.412500X-0.925000X-0.412500X0*%
%ADD21C,2.000000*%
%ADD22RoundRect,0.150000X-0.587500X-0.150000X0.587500X-0.150000X0.587500X0.150000X-0.587500X0.150000X0*%
%ADD23RoundRect,0.200000X-0.275000X0.200000X-0.275000X-0.200000X0.275000X-0.200000X0.275000X0.200000X0*%
%ADD24RoundRect,0.150000X0.587500X0.150000X-0.587500X0.150000X-0.587500X-0.150000X0.587500X-0.150000X0*%
%ADD25RoundRect,0.218750X0.218750X0.256250X-0.218750X0.256250X-0.218750X-0.256250X0.218750X-0.256250X0*%
%ADD26RoundRect,0.087500X-0.225000X-0.087500X0.225000X-0.087500X0.225000X0.087500X-0.225000X0.087500X0*%
%ADD27RoundRect,0.087500X-0.087500X-0.225000X0.087500X-0.225000X0.087500X0.225000X-0.087500X0.225000X0*%
%ADD28C,1.000000*%
%ADD29RoundRect,0.250000X0.412500X0.925000X-0.412500X0.925000X-0.412500X-0.925000X0.412500X-0.925000X0*%
G04 APERTURE END LIST*
D10*
%TO.C,R7*%
X177895000Y-63690000D03*
X176245000Y-63690000D03*
%TD*%
D11*
%TO.C,KiKit_MB_23_3*%
X123666667Y-79000000D03*
%TD*%
D12*
%TO.C,D3*%
X170900000Y-44460000D03*
X174200000Y-44460000D03*
%TD*%
D13*
%TO.C,JP1*%
X182010000Y-71700000D03*
D14*
X179470000Y-71700000D03*
%TD*%
D11*
%TO.C,KiKit_MB_8_1*%
X137333333Y-52000000D03*
%TD*%
%TO.C,KiKit_MB_33_3*%
X112500000Y-88833333D03*
%TD*%
%TO.C,KiKit_MB_13_2*%
X160666666Y-27000000D03*
%TD*%
D15*
%TO.C,U1*%
X158460000Y-72210000D03*
X158460000Y-69910000D03*
D16*
X152160000Y-69910000D03*
D15*
X158460000Y-67610000D03*
%TD*%
D10*
%TO.C,R5*%
X177895000Y-39250000D03*
X176245000Y-39250000D03*
%TD*%
%TO.C,R6*%
X177895000Y-34750000D03*
X176245000Y-34750000D03*
%TD*%
D17*
%TO.C,D1*%
X156160000Y-37607500D03*
X156160000Y-34307500D03*
%TD*%
D11*
%TO.C,KiKit_MB_52_3*%
X184500000Y-109666666D03*
%TD*%
%TO.C,KiKit_MB_51_1*%
X112500000Y-108000000D03*
%TD*%
D18*
%TO.C,R4*%
X163870000Y-95190000D03*
X165520000Y-95190000D03*
%TD*%
D19*
%TO.C,C7*%
X161060000Y-71330000D03*
X161060000Y-72880000D03*
%TD*%
D11*
%TO.C,KiKit_MB_25_3*%
X149500000Y-61833333D03*
%TD*%
%TO.C,KiKit_MB_12_2*%
X184500000Y-43166666D03*
%TD*%
D20*
%TO.C,C5*%
X152560000Y-91495000D03*
X152560000Y-88420000D03*
%TD*%
D11*
%TO.C,KiKit_MB_46_3*%
X173333333Y-81000000D03*
%TD*%
%TO.C,KiKit_MB_16_2*%
X173333333Y-52000000D03*
%TD*%
%TO.C,KiKit_MB_18_3*%
X112500000Y-70166666D03*
%TD*%
%TO.C,KiKit_MB_8_4*%
X134333333Y-52000000D03*
%TD*%
%TO.C,KiKit_MB_17_2*%
X112500000Y-62833333D03*
%TD*%
%TO.C,KiKit_MB_17_4*%
X112500000Y-60833333D03*
%TD*%
D15*
%TO.C,U1*%
X121460000Y-99210000D03*
X121460000Y-96910000D03*
D16*
X115160000Y-96910000D03*
D15*
X121460000Y-94610000D03*
%TD*%
D21*
%TO.C,H4*%
X114800000Y-49700000D03*
%TD*%
D22*
%TO.C,Q3*%
X167492500Y-39270000D03*
X167492500Y-41170000D03*
X169367500Y-40220000D03*
%TD*%
D23*
%TO.C,R1*%
X181260000Y-64535000D03*
X181260000Y-66185000D03*
%TD*%
D18*
%TO.C,R3*%
X126870000Y-90690000D03*
X128520000Y-90690000D03*
%TD*%
D11*
%TO.C,KiKit_MB_9_1*%
X149500000Y-36833334D03*
%TD*%
D10*
%TO.C,R6*%
X177895000Y-61750000D03*
X176245000Y-61750000D03*
%TD*%
D11*
%TO.C,KiKit_MB_12_3*%
X184500000Y-44166666D03*
%TD*%
%TO.C,KiKit_MB_15_4*%
X159666666Y-52000000D03*
%TD*%
%TO.C,KiKit_MB_52_5*%
X184500000Y-111333333D03*
%TD*%
%TO.C,KiKit_MB_32_2*%
X173333333Y-79000000D03*
%TD*%
D18*
%TO.C,R3*%
X126870000Y-63690000D03*
X128520000Y-63690000D03*
%TD*%
D11*
%TO.C,KiKit_MB_9_4*%
X149500000Y-33833334D03*
%TD*%
D20*
%TO.C,C1*%
X122720000Y-64495000D03*
X122720000Y-61420000D03*
%TD*%
D11*
%TO.C,KiKit_MB_22_1*%
X134333333Y-54000000D03*
%TD*%
%TO.C,KiKit_MB_22_2*%
X135333333Y-54000000D03*
%TD*%
%TO.C,KiKit_MB_7_4*%
X122666667Y-52000000D03*
%TD*%
%TO.C,KiKit_MB_11_2*%
X184500000Y-34833334D03*
%TD*%
D13*
%TO.C,JP1*%
X145010000Y-71700000D03*
D14*
X142470000Y-71700000D03*
%TD*%
D24*
%TO.C,Q1*%
X174300000Y-36670000D03*
X174300000Y-34770000D03*
X172425000Y-35720000D03*
%TD*%
D18*
%TO.C,R4*%
X163870000Y-68190000D03*
X165520000Y-68190000D03*
%TD*%
D11*
%TO.C,KiKit_MB_33_2*%
X112500000Y-89833333D03*
%TD*%
D21*
%TO.C,H3*%
X182200000Y-103700000D03*
%TD*%
D11*
%TO.C,KiKit_MB_44_1*%
X184500000Y-96166666D03*
%TD*%
%TO.C,KiKit_MB_24_2*%
X136333333Y-79000000D03*
%TD*%
D21*
%TO.C,H1*%
X151800000Y-83300000D03*
%TD*%
D11*
%TO.C,KiKit_MB_17_3*%
X112500000Y-61833333D03*
%TD*%
D18*
%TO.C,R9*%
X126870000Y-39250000D03*
X128520000Y-39250000D03*
%TD*%
D19*
%TO.C,C6*%
X170060000Y-75160000D03*
X170060000Y-76710000D03*
%TD*%
D10*
%TO.C,R5*%
X177895000Y-93250000D03*
X176245000Y-93250000D03*
%TD*%
D11*
%TO.C,KiKit_MB_34_4*%
X112500000Y-96166666D03*
%TD*%
%TO.C,KiKit_MB_19_1*%
X147500000Y-60833333D03*
%TD*%
D10*
%TO.C,R2*%
X182085000Y-60100000D03*
X180435000Y-60100000D03*
%TD*%
D22*
%TO.C,Q2*%
X130492500Y-61770000D03*
X130492500Y-63670000D03*
X132367500Y-62720000D03*
%TD*%
D11*
%TO.C,KiKit_MB_49_2*%
X112500000Y-20833334D03*
%TD*%
D18*
%TO.C,R8*%
X126870000Y-61750000D03*
X128520000Y-61750000D03*
%TD*%
D12*
%TO.C,D3*%
X133900000Y-71460000D03*
X137200000Y-71460000D03*
%TD*%
D19*
%TO.C,C6*%
X170060000Y-102160000D03*
X170060000Y-103710000D03*
%TD*%
D11*
%TO.C,KiKit_MB_8_2*%
X136333333Y-52000000D03*
%TD*%
%TO.C,KiKit_MB_28_2*%
X184500000Y-70166666D03*
%TD*%
%TO.C,KiKit_MB_49_6*%
X112500000Y-24166667D03*
%TD*%
%TO.C,KiKit_MB_15_1*%
X162666666Y-52000000D03*
%TD*%
%TO.C,KiKit_MB_47_3*%
X160666666Y-106000000D03*
%TD*%
D25*
%TO.C,D2*%
X182027500Y-62300000D03*
X180452500Y-62300000D03*
%TD*%
D11*
%TO.C,KiKit_MB_3_3*%
X147500000Y-35833334D03*
%TD*%
%TO.C,KiKit_MB_16_4*%
X171333333Y-52000000D03*
%TD*%
%TO.C,KiKit_MB_14_4*%
X174333333Y-27000000D03*
%TD*%
%TO.C,KiKit_MB_52_4*%
X184500000Y-110500000D03*
%TD*%
D10*
%TO.C,R6*%
X140895000Y-88750000D03*
X139245000Y-88750000D03*
%TD*%
D11*
%TO.C,KiKit_MB_45_3*%
X161666666Y-81000000D03*
%TD*%
D20*
%TO.C,C1*%
X159720000Y-64495000D03*
X159720000Y-61420000D03*
%TD*%
D26*
%TO.C,U2*%
X127877500Y-70762500D03*
X127877500Y-71262500D03*
X127877500Y-71762500D03*
X127877500Y-72262500D03*
D27*
X128540000Y-72425000D03*
X129040000Y-72425000D03*
X129540000Y-72425000D03*
D26*
X130202500Y-72262500D03*
X130202500Y-71762500D03*
X130202500Y-71262500D03*
X130202500Y-70762500D03*
D27*
X129540000Y-70600000D03*
X129040000Y-70600000D03*
X128540000Y-70600000D03*
%TD*%
D11*
%TO.C,KiKit_MB_35_2*%
X147500000Y-88833333D03*
%TD*%
D23*
%TO.C,R1*%
X144260000Y-64535000D03*
X144260000Y-66185000D03*
%TD*%
D11*
%TO.C,KiKit_MB_52_1*%
X184500000Y-108000000D03*
%TD*%
D24*
%TO.C,Q4*%
X137300000Y-95170000D03*
X137300000Y-93270000D03*
X135425000Y-94220000D03*
%TD*%
D18*
%TO.C,R9*%
X126870000Y-66250000D03*
X128520000Y-66250000D03*
%TD*%
D21*
%TO.C,H2*%
X182200000Y-29300000D03*
%TD*%
D11*
%TO.C,KiKit_MB_9_2*%
X149500000Y-35833334D03*
%TD*%
%TO.C,KiKit_MB_12_1*%
X184500000Y-42166666D03*
%TD*%
D21*
%TO.C,H1*%
X151800000Y-29300000D03*
%TD*%
D25*
%TO.C,D2*%
X145027500Y-62300000D03*
X143452500Y-62300000D03*
%TD*%
D13*
%TO.C,JP1*%
X182010000Y-98700000D03*
D14*
X179470000Y-98700000D03*
%TD*%
D11*
%TO.C,KiKit_MB_18_4*%
X112500000Y-69166666D03*
%TD*%
%TO.C,KiKit_MB_35_1*%
X147500000Y-87833333D03*
%TD*%
D21*
%TO.C,H2*%
X145200000Y-29300000D03*
%TD*%
D10*
%TO.C,R2*%
X182085000Y-87100000D03*
X180435000Y-87100000D03*
%TD*%
D11*
%TO.C,KiKit_MB_16_1*%
X174333333Y-52000000D03*
%TD*%
D13*
%TO.C,J1*%
X156850000Y-56300000D03*
D14*
X159390000Y-56300000D03*
X161930000Y-56300000D03*
X164470000Y-56300000D03*
X167010000Y-56300000D03*
X169550000Y-56300000D03*
X172090000Y-56300000D03*
X174630000Y-56300000D03*
X177170000Y-56300000D03*
%TD*%
D18*
%TO.C,R4*%
X126870000Y-41190000D03*
X128520000Y-41190000D03*
%TD*%
D11*
%TO.C,KiKit_MB_29_1*%
X159666666Y-54000000D03*
%TD*%
D13*
%TO.C,J1*%
X119850000Y-83300000D03*
D14*
X122390000Y-83300000D03*
X124930000Y-83300000D03*
X127470000Y-83300000D03*
X130010000Y-83300000D03*
X132550000Y-83300000D03*
X135090000Y-83300000D03*
X137630000Y-83300000D03*
X140170000Y-83300000D03*
%TD*%
D12*
%TO.C,D3*%
X170900000Y-71460000D03*
X174200000Y-71460000D03*
%TD*%
D11*
%TO.C,KiKit_MB_46_1*%
X171333333Y-81000000D03*
%TD*%
%TO.C,KiKit_MB_4_3*%
X147500000Y-44166666D03*
%TD*%
%TO.C,KiKit_MB_6_4*%
X137333333Y-27000000D03*
%TD*%
D24*
%TO.C,Q1*%
X137300000Y-90670000D03*
X137300000Y-88770000D03*
X135425000Y-89720000D03*
%TD*%
D10*
%TO.C,R6*%
X177895000Y-88750000D03*
X176245000Y-88750000D03*
%TD*%
%TO.C,R5*%
X140895000Y-93250000D03*
X139245000Y-93250000D03*
%TD*%
D22*
%TO.C,Q2*%
X130492500Y-34770000D03*
X130492500Y-36670000D03*
X132367500Y-35720000D03*
%TD*%
D26*
%TO.C,U2*%
X164877500Y-43762500D03*
X164877500Y-44262500D03*
X164877500Y-44762500D03*
X164877500Y-45262500D03*
D27*
X165540000Y-45425000D03*
X166040000Y-45425000D03*
X166540000Y-45425000D03*
D26*
X167202500Y-45262500D03*
X167202500Y-44762500D03*
X167202500Y-44262500D03*
X167202500Y-43762500D03*
D27*
X166540000Y-43600000D03*
X166040000Y-43600000D03*
X165540000Y-43600000D03*
%TD*%
D17*
%TO.C,D1*%
X119160000Y-37607500D03*
X119160000Y-34307500D03*
%TD*%
D10*
%TO.C,R7*%
X140895000Y-90690000D03*
X139245000Y-90690000D03*
%TD*%
D11*
%TO.C,KiKit_MB_2_4*%
X112500000Y-42166666D03*
%TD*%
D10*
%TO.C,R6*%
X140895000Y-61750000D03*
X139245000Y-61750000D03*
%TD*%
D21*
%TO.C,H2*%
X182200000Y-56300000D03*
%TD*%
D11*
%TO.C,KiKit_MB_20_2*%
X147500000Y-70166666D03*
%TD*%
%TO.C,KiKit_MB_3_2*%
X147500000Y-34833334D03*
%TD*%
%TO.C,KiKit_MB_25_1*%
X149500000Y-63833333D03*
%TD*%
%TO.C,KiKit_MB_22_4*%
X137333333Y-54000000D03*
%TD*%
D10*
%TO.C,R10*%
X177895000Y-95190000D03*
X176245000Y-95190000D03*
%TD*%
D13*
%TO.C,J1*%
X119850000Y-56300000D03*
D14*
X122390000Y-56300000D03*
X124930000Y-56300000D03*
X127470000Y-56300000D03*
X130010000Y-56300000D03*
X132550000Y-56300000D03*
X135090000Y-56300000D03*
X137630000Y-56300000D03*
X140170000Y-56300000D03*
%TD*%
D11*
%TO.C,KiKit_MB_48_3*%
X172333333Y-106000000D03*
%TD*%
D15*
%TO.C,U1*%
X158460000Y-45210000D03*
X158460000Y-42910000D03*
D16*
X152160000Y-42910000D03*
D15*
X158460000Y-40610000D03*
%TD*%
D11*
%TO.C,KiKit_MB_49_5*%
X112500000Y-23333334D03*
%TD*%
D10*
%TO.C,R7*%
X140895000Y-63690000D03*
X139245000Y-63690000D03*
%TD*%
D19*
%TO.C,C6*%
X133060000Y-48160000D03*
X133060000Y-49710000D03*
%TD*%
D12*
%TO.C,D3*%
X133900000Y-44460000D03*
X137200000Y-44460000D03*
%TD*%
D10*
%TO.C,R5*%
X140895000Y-66250000D03*
X139245000Y-66250000D03*
%TD*%
D11*
%TO.C,KiKit_MB_15_3*%
X160666666Y-52000000D03*
%TD*%
%TO.C,KiKit_MB_47_1*%
X162666666Y-106000000D03*
%TD*%
D18*
%TO.C,R8*%
X163870000Y-88750000D03*
X165520000Y-88750000D03*
%TD*%
D11*
%TO.C,KiKit_MB_1_3*%
X112500000Y-34833334D03*
%TD*%
%TO.C,KiKit_MB_42_2*%
X149500000Y-98166666D03*
%TD*%
D19*
%TO.C,C6*%
X170060000Y-48160000D03*
X170060000Y-49710000D03*
%TD*%
D21*
%TO.C,KiKit_TO_3*%
X105500000Y-113000000D03*
%TD*%
D11*
%TO.C,KiKit_MB_50_4*%
X184500000Y-22500000D03*
%TD*%
%TO.C,KiKit_MB_24_4*%
X134333333Y-79000000D03*
%TD*%
%TO.C,KiKit_MB_20_3*%
X147500000Y-71166666D03*
%TD*%
D21*
%TO.C,H4*%
X114800000Y-103700000D03*
%TD*%
D10*
%TO.C,R5*%
X140895000Y-39250000D03*
X139245000Y-39250000D03*
%TD*%
D11*
%TO.C,KiKit_MB_26_3*%
X149500000Y-70166666D03*
%TD*%
D21*
%TO.C,H1*%
X151800000Y-56300000D03*
%TD*%
D11*
%TO.C,KiKit_MB_13_3*%
X161666666Y-27000000D03*
%TD*%
%TO.C,KiKit_MB_29_3*%
X161666666Y-54000000D03*
%TD*%
D10*
%TO.C,R10*%
X140895000Y-41190000D03*
X139245000Y-41190000D03*
%TD*%
%TO.C,R6*%
X140895000Y-34750000D03*
X139245000Y-34750000D03*
%TD*%
D11*
%TO.C,KiKit_MB_40_3*%
X135333333Y-106000000D03*
%TD*%
D10*
%TO.C,R10*%
X140895000Y-68190000D03*
X139245000Y-68190000D03*
%TD*%
D11*
%TO.C,KiKit_MB_40_4*%
X134333333Y-106000000D03*
%TD*%
D23*
%TO.C,R1*%
X181260000Y-37535000D03*
X181260000Y-39185000D03*
%TD*%
D18*
%TO.C,R3*%
X163870000Y-63690000D03*
X165520000Y-63690000D03*
%TD*%
D11*
%TO.C,KiKit_MB_43_4*%
X184500000Y-90833333D03*
%TD*%
%TO.C,KiKit_MB_52_2*%
X184500000Y-108833333D03*
%TD*%
%TO.C,KiKit_MB_21_4*%
X125666667Y-54000000D03*
%TD*%
%TO.C,KiKit_MB_39_1*%
X125666667Y-106000000D03*
%TD*%
%TO.C,KiKit_MB_29_4*%
X162666666Y-54000000D03*
%TD*%
D21*
%TO.C,H4*%
X151800000Y-103700000D03*
%TD*%
D11*
%TO.C,KiKit_MB_43_2*%
X184500000Y-88833333D03*
%TD*%
%TO.C,KiKit_MB_42_3*%
X149500000Y-97166666D03*
%TD*%
%TO.C,KiKit_MB_20_4*%
X147500000Y-72166666D03*
%TD*%
D19*
%TO.C,C4*%
X167960000Y-75160000D03*
X167960000Y-76710000D03*
%TD*%
D17*
%TO.C,D1*%
X119160000Y-64607500D03*
X119160000Y-61307500D03*
%TD*%
D11*
%TO.C,KiKit_MB_3_1*%
X147500000Y-33833334D03*
%TD*%
%TO.C,KiKit_MB_4_1*%
X147500000Y-42166666D03*
%TD*%
D26*
%TO.C,U2*%
X164877500Y-97762500D03*
X164877500Y-98262500D03*
X164877500Y-98762500D03*
X164877500Y-99262500D03*
D27*
X165540000Y-99425000D03*
X166040000Y-99425000D03*
X166540000Y-99425000D03*
D26*
X167202500Y-99262500D03*
X167202500Y-98762500D03*
X167202500Y-98262500D03*
X167202500Y-97762500D03*
D27*
X166540000Y-97600000D03*
X166040000Y-97600000D03*
X165540000Y-97600000D03*
%TD*%
D11*
%TO.C,KiKit_MB_36_3*%
X147500000Y-98166666D03*
%TD*%
%TO.C,KiKit_MB_50_6*%
X184500000Y-24166667D03*
%TD*%
D28*
%TO.C,KiKit_FID_T_2*%
X191500000Y-20000000D03*
%TD*%
D25*
%TO.C,D2*%
X182027500Y-89300000D03*
X180452500Y-89300000D03*
%TD*%
D11*
%TO.C,KiKit_MB_4_4*%
X147500000Y-45166666D03*
%TD*%
D19*
%TO.C,C7*%
X124060000Y-44330000D03*
X124060000Y-45880000D03*
%TD*%
D21*
%TO.C,H3*%
X145200000Y-76700000D03*
%TD*%
D13*
%TO.C,JP1*%
X145010000Y-44700000D03*
D14*
X142470000Y-44700000D03*
%TD*%
D18*
%TO.C,R9*%
X163870000Y-93250000D03*
X165520000Y-93250000D03*
%TD*%
D11*
%TO.C,KiKit_MB_10_3*%
X149500000Y-43166666D03*
%TD*%
D23*
%TO.C,R1*%
X181260000Y-91535000D03*
X181260000Y-93185000D03*
%TD*%
D21*
%TO.C,H3*%
X182200000Y-76700000D03*
%TD*%
D20*
%TO.C,C1*%
X122720000Y-91495000D03*
X122720000Y-88420000D03*
%TD*%
D13*
%TO.C,J1*%
X156850000Y-83300000D03*
D14*
X159390000Y-83300000D03*
X161930000Y-83300000D03*
X164470000Y-83300000D03*
X167010000Y-83300000D03*
X169550000Y-83300000D03*
X172090000Y-83300000D03*
X174630000Y-83300000D03*
X177170000Y-83300000D03*
%TD*%
D18*
%TO.C,R9*%
X126870000Y-93250000D03*
X128520000Y-93250000D03*
%TD*%
D11*
%TO.C,KiKit_MB_2_2*%
X112500000Y-44166666D03*
%TD*%
D20*
%TO.C,C1*%
X159720000Y-91495000D03*
X159720000Y-88420000D03*
%TD*%
D11*
%TO.C,KiKit_MB_18_2*%
X112500000Y-71166666D03*
%TD*%
%TO.C,KiKit_MB_43_3*%
X184500000Y-89833333D03*
%TD*%
D17*
%TO.C,D1*%
X156160000Y-91607500D03*
X156160000Y-88307500D03*
%TD*%
D11*
%TO.C,KiKit_MB_19_2*%
X147500000Y-61833333D03*
%TD*%
D18*
%TO.C,R4*%
X126870000Y-68190000D03*
X128520000Y-68190000D03*
%TD*%
D11*
%TO.C,KiKit_MB_21_1*%
X122666667Y-54000000D03*
%TD*%
%TO.C,KiKit_MB_7_1*%
X125666667Y-52000000D03*
%TD*%
%TO.C,KiKit_MB_46_4*%
X174333333Y-81000000D03*
%TD*%
D15*
%TO.C,U1*%
X121460000Y-45210000D03*
X121460000Y-42910000D03*
D16*
X115160000Y-42910000D03*
D15*
X121460000Y-40610000D03*
%TD*%
D20*
%TO.C,C5*%
X115560000Y-91495000D03*
X115560000Y-88420000D03*
%TD*%
D22*
%TO.C,Q3*%
X167492500Y-66270000D03*
X167492500Y-68170000D03*
X169367500Y-67220000D03*
%TD*%
D11*
%TO.C,KiKit_MB_44_4*%
X184500000Y-99166666D03*
%TD*%
%TO.C,KiKit_MB_21_3*%
X124666667Y-54000000D03*
%TD*%
%TO.C,KiKit_MB_31_3*%
X160666666Y-79000000D03*
%TD*%
%TO.C,KiKit_MB_40_2*%
X136333333Y-106000000D03*
%TD*%
%TO.C,KiKit_MB_24_3*%
X135333333Y-79000000D03*
%TD*%
D24*
%TO.C,Q1*%
X174300000Y-90670000D03*
X174300000Y-88770000D03*
X172425000Y-89720000D03*
%TD*%
D21*
%TO.C,H4*%
X151800000Y-49700000D03*
%TD*%
D11*
%TO.C,KiKit_MB_21_2*%
X123666667Y-54000000D03*
%TD*%
%TO.C,KiKit_MB_51_4*%
X112500000Y-110500000D03*
%TD*%
%TO.C,KiKit_MB_25_4*%
X149500000Y-60833333D03*
%TD*%
D10*
%TO.C,R2*%
X145085000Y-60100000D03*
X143435000Y-60100000D03*
%TD*%
D21*
%TO.C,KiKit_TO_1*%
X105500000Y-20000000D03*
%TD*%
D19*
%TO.C,C2*%
X161060000Y-67360000D03*
X161060000Y-68910000D03*
%TD*%
D11*
%TO.C,KiKit_MB_18_1*%
X112500000Y-72166666D03*
%TD*%
%TO.C,KiKit_MB_7_3*%
X123666667Y-52000000D03*
%TD*%
%TO.C,KiKit_MB_14_2*%
X172333333Y-27000000D03*
%TD*%
D20*
%TO.C,C1*%
X122720000Y-37495000D03*
X122720000Y-34420000D03*
%TD*%
D11*
%TO.C,KiKit_MB_26_1*%
X149500000Y-72166666D03*
%TD*%
D22*
%TO.C,Q2*%
X167492500Y-88770000D03*
X167492500Y-90670000D03*
X169367500Y-89720000D03*
%TD*%
D25*
%TO.C,D2*%
X145027500Y-89300000D03*
X143452500Y-89300000D03*
%TD*%
D11*
%TO.C,KiKit_MB_19_3*%
X147500000Y-62833333D03*
%TD*%
D21*
%TO.C,H1*%
X114800000Y-56300000D03*
%TD*%
D11*
%TO.C,KiKit_MB_30_4*%
X174333333Y-54000000D03*
%TD*%
%TO.C,KiKit_MB_27_2*%
X184500000Y-61833333D03*
%TD*%
%TO.C,KiKit_MB_50_2*%
X184500000Y-20833334D03*
%TD*%
D22*
%TO.C,Q2*%
X167492500Y-34770000D03*
X167492500Y-36670000D03*
X169367500Y-35720000D03*
%TD*%
D11*
%TO.C,KiKit_MB_15_2*%
X161666666Y-52000000D03*
%TD*%
D12*
%TO.C,D3*%
X170900000Y-98460000D03*
X174200000Y-98460000D03*
%TD*%
D13*
%TO.C,J1*%
X119850000Y-29300000D03*
D14*
X122390000Y-29300000D03*
X124930000Y-29300000D03*
X127470000Y-29300000D03*
X130010000Y-29300000D03*
X132550000Y-29300000D03*
X135090000Y-29300000D03*
X137630000Y-29300000D03*
X140170000Y-29300000D03*
%TD*%
D11*
%TO.C,KiKit_MB_13_1*%
X159666666Y-27000000D03*
%TD*%
%TO.C,KiKit_MB_5_4*%
X125666667Y-27000000D03*
%TD*%
D19*
%TO.C,C2*%
X124060000Y-40360000D03*
X124060000Y-41910000D03*
%TD*%
D11*
%TO.C,KiKit_MB_34_2*%
X112500000Y-98166666D03*
%TD*%
%TO.C,KiKit_MB_44_2*%
X184500000Y-97166666D03*
%TD*%
%TO.C,KiKit_MB_11_3*%
X184500000Y-35833334D03*
%TD*%
D19*
%TO.C,C7*%
X161060000Y-98330000D03*
X161060000Y-99880000D03*
%TD*%
D10*
%TO.C,R5*%
X177895000Y-66250000D03*
X176245000Y-66250000D03*
%TD*%
D11*
%TO.C,KiKit_MB_11_1*%
X184500000Y-33833334D03*
%TD*%
D23*
%TO.C,R1*%
X144260000Y-37535000D03*
X144260000Y-39185000D03*
%TD*%
D11*
%TO.C,KiKit_MB_5_1*%
X122666667Y-27000000D03*
%TD*%
%TO.C,KiKit_MB_24_1*%
X137333333Y-79000000D03*
%TD*%
%TO.C,KiKit_MB_1_1*%
X112500000Y-36833334D03*
%TD*%
%TO.C,KiKit_MB_2_3*%
X112500000Y-43166666D03*
%TD*%
%TO.C,KiKit_MB_51_6*%
X112500000Y-112166666D03*
%TD*%
%TO.C,KiKit_MB_11_4*%
X184500000Y-36833334D03*
%TD*%
D10*
%TO.C,R10*%
X140895000Y-95190000D03*
X139245000Y-95190000D03*
%TD*%
D11*
%TO.C,KiKit_MB_51_7*%
X112500000Y-113000000D03*
%TD*%
%TO.C,KiKit_MB_38_1*%
X134333333Y-81000000D03*
%TD*%
%TO.C,KiKit_MB_37_2*%
X123666667Y-81000000D03*
%TD*%
%TO.C,KiKit_MB_41_3*%
X149500000Y-88833333D03*
%TD*%
%TO.C,KiKit_MB_49_1*%
X112500000Y-20000000D03*
%TD*%
%TO.C,KiKit_MB_26_4*%
X149500000Y-69166666D03*
%TD*%
%TO.C,KiKit_MB_36_2*%
X147500000Y-97166666D03*
%TD*%
D19*
%TO.C,C6*%
X133060000Y-102160000D03*
X133060000Y-103710000D03*
%TD*%
D11*
%TO.C,KiKit_MB_27_4*%
X184500000Y-63833333D03*
%TD*%
D20*
%TO.C,C5*%
X115560000Y-64495000D03*
X115560000Y-61420000D03*
%TD*%
D11*
%TO.C,KiKit_MB_43_1*%
X184500000Y-87833333D03*
%TD*%
%TO.C,KiKit_MB_8_3*%
X135333333Y-52000000D03*
%TD*%
%TO.C,KiKit_MB_2_1*%
X112500000Y-45166666D03*
%TD*%
D18*
%TO.C,R8*%
X163870000Y-34750000D03*
X165520000Y-34750000D03*
%TD*%
D11*
%TO.C,KiKit_MB_32_4*%
X171333333Y-79000000D03*
%TD*%
D15*
%TO.C,U1*%
X158460000Y-99210000D03*
X158460000Y-96910000D03*
D16*
X152160000Y-96910000D03*
D15*
X158460000Y-94610000D03*
%TD*%
D21*
%TO.C,H4*%
X114800000Y-76700000D03*
%TD*%
%TO.C,H3*%
X145200000Y-103700000D03*
%TD*%
D11*
%TO.C,KiKit_MB_14_1*%
X171333333Y-27000000D03*
%TD*%
%TO.C,KiKit_MB_41_2*%
X149500000Y-89833333D03*
%TD*%
D21*
%TO.C,H1*%
X114800000Y-83300000D03*
%TD*%
D20*
%TO.C,C1*%
X159720000Y-37495000D03*
X159720000Y-34420000D03*
%TD*%
D11*
%TO.C,KiKit_MB_39_3*%
X123666667Y-106000000D03*
%TD*%
D24*
%TO.C,Q4*%
X174300000Y-68170000D03*
X174300000Y-66270000D03*
X172425000Y-67220000D03*
%TD*%
D19*
%TO.C,C4*%
X167960000Y-48160000D03*
X167960000Y-49710000D03*
%TD*%
D29*
%TO.C,C3*%
X165600000Y-102935000D03*
X162525000Y-102935000D03*
%TD*%
D11*
%TO.C,KiKit_MB_38_4*%
X137333333Y-81000000D03*
%TD*%
D18*
%TO.C,R3*%
X126870000Y-36690000D03*
X128520000Y-36690000D03*
%TD*%
D11*
%TO.C,KiKit_MB_16_3*%
X172333333Y-52000000D03*
%TD*%
%TO.C,KiKit_MB_42_1*%
X149500000Y-99166666D03*
%TD*%
D19*
%TO.C,C4*%
X130960000Y-102160000D03*
X130960000Y-103710000D03*
%TD*%
D10*
%TO.C,R7*%
X177895000Y-90690000D03*
X176245000Y-90690000D03*
%TD*%
D17*
%TO.C,D1*%
X156160000Y-64607500D03*
X156160000Y-61307500D03*
%TD*%
D11*
%TO.C,KiKit_MB_47_2*%
X161666666Y-106000000D03*
%TD*%
%TO.C,KiKit_MB_45_4*%
X162666666Y-81000000D03*
%TD*%
%TO.C,KiKit_MB_52_7*%
X184500000Y-113000000D03*
%TD*%
%TO.C,KiKit_MB_37_4*%
X125666667Y-81000000D03*
%TD*%
%TO.C,KiKit_MB_10_1*%
X149500000Y-45166666D03*
%TD*%
%TO.C,KiKit_MB_41_1*%
X149500000Y-90833333D03*
%TD*%
D29*
%TO.C,C3*%
X128600000Y-75935000D03*
X125525000Y-75935000D03*
%TD*%
D11*
%TO.C,KiKit_MB_10_4*%
X149500000Y-42166666D03*
%TD*%
D13*
%TO.C,JP1*%
X182010000Y-44700000D03*
D14*
X179470000Y-44700000D03*
%TD*%
D11*
%TO.C,KiKit_MB_49_4*%
X112500000Y-22500000D03*
%TD*%
D15*
%TO.C,U1*%
X121460000Y-72210000D03*
X121460000Y-69910000D03*
D16*
X115160000Y-69910000D03*
D15*
X121460000Y-67610000D03*
%TD*%
D11*
%TO.C,KiKit_MB_36_4*%
X147500000Y-99166666D03*
%TD*%
D18*
%TO.C,R9*%
X163870000Y-39250000D03*
X165520000Y-39250000D03*
%TD*%
D11*
%TO.C,KiKit_MB_35_4*%
X147500000Y-90833333D03*
%TD*%
D24*
%TO.C,Q4*%
X137300000Y-41170000D03*
X137300000Y-39270000D03*
X135425000Y-40220000D03*
%TD*%
D11*
%TO.C,KiKit_MB_49_3*%
X112500000Y-21666667D03*
%TD*%
%TO.C,KiKit_MB_49_7*%
X112500000Y-25000000D03*
%TD*%
D20*
%TO.C,C5*%
X152560000Y-64495000D03*
X152560000Y-61420000D03*
%TD*%
D19*
%TO.C,C2*%
X161060000Y-40360000D03*
X161060000Y-41910000D03*
%TD*%
D18*
%TO.C,R3*%
X163870000Y-36690000D03*
X165520000Y-36690000D03*
%TD*%
D21*
%TO.C,H2*%
X182200000Y-83300000D03*
%TD*%
D11*
%TO.C,KiKit_MB_46_2*%
X172333333Y-81000000D03*
%TD*%
%TO.C,KiKit_MB_37_1*%
X122666667Y-81000000D03*
%TD*%
D18*
%TO.C,R4*%
X163870000Y-41190000D03*
X165520000Y-41190000D03*
%TD*%
D10*
%TO.C,R10*%
X177895000Y-68190000D03*
X176245000Y-68190000D03*
%TD*%
D21*
%TO.C,H2*%
X145200000Y-83300000D03*
%TD*%
D20*
%TO.C,C5*%
X115560000Y-37495000D03*
X115560000Y-34420000D03*
%TD*%
D10*
%TO.C,R2*%
X145085000Y-87100000D03*
X143435000Y-87100000D03*
%TD*%
D11*
%TO.C,KiKit_MB_10_2*%
X149500000Y-44166666D03*
%TD*%
D19*
%TO.C,C2*%
X124060000Y-94360000D03*
X124060000Y-95910000D03*
%TD*%
D11*
%TO.C,KiKit_MB_31_2*%
X161666666Y-79000000D03*
%TD*%
D28*
%TO.C,KiKit_FID_T_1*%
X105500000Y-20000000D03*
%TD*%
D19*
%TO.C,C2*%
X124060000Y-67360000D03*
X124060000Y-68910000D03*
%TD*%
D18*
%TO.C,R4*%
X126870000Y-95190000D03*
X128520000Y-95190000D03*
%TD*%
D25*
%TO.C,D2*%
X145027500Y-35300000D03*
X143452500Y-35300000D03*
%TD*%
D11*
%TO.C,KiKit_MB_30_1*%
X171333333Y-54000000D03*
%TD*%
D22*
%TO.C,Q3*%
X130492500Y-39270000D03*
X130492500Y-41170000D03*
X132367500Y-40220000D03*
%TD*%
D11*
%TO.C,KiKit_MB_14_3*%
X173333333Y-27000000D03*
%TD*%
%TO.C,KiKit_MB_50_1*%
X184500000Y-20000000D03*
%TD*%
D28*
%TO.C,KiKit_FID_T_3*%
X105500000Y-113000000D03*
%TD*%
D11*
%TO.C,KiKit_MB_30_2*%
X172333333Y-54000000D03*
%TD*%
%TO.C,KiKit_MB_35_3*%
X147500000Y-89833333D03*
%TD*%
D23*
%TO.C,R1*%
X144260000Y-91535000D03*
X144260000Y-93185000D03*
%TD*%
D11*
%TO.C,KiKit_MB_50_5*%
X184500000Y-23333334D03*
%TD*%
%TO.C,KiKit_MB_33_4*%
X112500000Y-87833333D03*
%TD*%
D26*
%TO.C,U2*%
X127877500Y-97762500D03*
X127877500Y-98262500D03*
X127877500Y-98762500D03*
X127877500Y-99262500D03*
D27*
X128540000Y-99425000D03*
X129040000Y-99425000D03*
X129540000Y-99425000D03*
D26*
X130202500Y-99262500D03*
X130202500Y-98762500D03*
X130202500Y-98262500D03*
X130202500Y-97762500D03*
D27*
X129540000Y-97600000D03*
X129040000Y-97600000D03*
X128540000Y-97600000D03*
%TD*%
D29*
%TO.C,C3*%
X128600000Y-102935000D03*
X125525000Y-102935000D03*
%TD*%
D20*
%TO.C,C5*%
X152560000Y-37495000D03*
X152560000Y-34420000D03*
%TD*%
D21*
%TO.C,H3*%
X182200000Y-49700000D03*
%TD*%
%TO.C,H4*%
X151800000Y-76700000D03*
%TD*%
D18*
%TO.C,R8*%
X163870000Y-61750000D03*
X165520000Y-61750000D03*
%TD*%
D13*
%TO.C,JP1*%
X145010000Y-98700000D03*
D14*
X142470000Y-98700000D03*
%TD*%
D22*
%TO.C,Q3*%
X130492500Y-93270000D03*
X130492500Y-95170000D03*
X132367500Y-94220000D03*
%TD*%
D19*
%TO.C,C7*%
X161060000Y-44330000D03*
X161060000Y-45880000D03*
%TD*%
D26*
%TO.C,U2*%
X164877500Y-70762500D03*
X164877500Y-71262500D03*
X164877500Y-71762500D03*
X164877500Y-72262500D03*
D27*
X165540000Y-72425000D03*
X166040000Y-72425000D03*
X166540000Y-72425000D03*
D26*
X167202500Y-72262500D03*
X167202500Y-71762500D03*
X167202500Y-71262500D03*
X167202500Y-70762500D03*
D27*
X166540000Y-70600000D03*
X166040000Y-70600000D03*
X165540000Y-70600000D03*
%TD*%
D11*
%TO.C,KiKit_MB_40_1*%
X137333333Y-106000000D03*
%TD*%
D21*
%TO.C,H2*%
X145200000Y-56300000D03*
%TD*%
D11*
%TO.C,KiKit_MB_38_2*%
X135333333Y-81000000D03*
%TD*%
%TO.C,KiKit_MB_19_4*%
X147500000Y-63833333D03*
%TD*%
%TO.C,KiKit_MB_51_3*%
X112500000Y-109666666D03*
%TD*%
%TO.C,KiKit_MB_26_2*%
X149500000Y-71166666D03*
%TD*%
%TO.C,KiKit_MB_6_1*%
X134333333Y-27000000D03*
%TD*%
%TO.C,KiKit_MB_51_5*%
X112500000Y-111333333D03*
%TD*%
%TO.C,KiKit_MB_25_2*%
X149500000Y-62833333D03*
%TD*%
%TO.C,KiKit_MB_51_2*%
X112500000Y-108833333D03*
%TD*%
%TO.C,KiKit_MB_41_4*%
X149500000Y-87833333D03*
%TD*%
%TO.C,KiKit_MB_22_3*%
X136333333Y-54000000D03*
%TD*%
D22*
%TO.C,Q3*%
X167492500Y-93270000D03*
X167492500Y-95170000D03*
X169367500Y-94220000D03*
%TD*%
D11*
%TO.C,KiKit_MB_27_1*%
X184500000Y-60833333D03*
%TD*%
%TO.C,KiKit_MB_45_2*%
X160666666Y-81000000D03*
%TD*%
%TO.C,KiKit_MB_5_2*%
X123666667Y-27000000D03*
%TD*%
%TO.C,KiKit_MB_5_3*%
X124666667Y-27000000D03*
%TD*%
D10*
%TO.C,R10*%
X177895000Y-41190000D03*
X176245000Y-41190000D03*
%TD*%
D19*
%TO.C,C4*%
X130960000Y-48160000D03*
X130960000Y-49710000D03*
%TD*%
D24*
%TO.C,Q4*%
X174300000Y-41170000D03*
X174300000Y-39270000D03*
X172425000Y-40220000D03*
%TD*%
D13*
%TO.C,J1*%
X156850000Y-29300000D03*
D14*
X159390000Y-29300000D03*
X161930000Y-29300000D03*
X164470000Y-29300000D03*
X167010000Y-29300000D03*
X169550000Y-29300000D03*
X172090000Y-29300000D03*
X174630000Y-29300000D03*
X177170000Y-29300000D03*
%TD*%
D11*
%TO.C,KiKit_MB_28_3*%
X184500000Y-71166666D03*
%TD*%
D19*
%TO.C,C7*%
X124060000Y-71330000D03*
X124060000Y-72880000D03*
%TD*%
D11*
%TO.C,KiKit_MB_50_3*%
X184500000Y-21666667D03*
%TD*%
%TO.C,KiKit_MB_1_2*%
X112500000Y-35833334D03*
%TD*%
%TO.C,KiKit_MB_17_1*%
X112500000Y-63833333D03*
%TD*%
D22*
%TO.C,Q3*%
X130492500Y-66270000D03*
X130492500Y-68170000D03*
X132367500Y-67220000D03*
%TD*%
D29*
%TO.C,C3*%
X165600000Y-48935000D03*
X162525000Y-48935000D03*
%TD*%
D11*
%TO.C,KiKit_MB_33_1*%
X112500000Y-90833333D03*
%TD*%
D18*
%TO.C,R8*%
X126870000Y-34750000D03*
X128520000Y-34750000D03*
%TD*%
D11*
%TO.C,KiKit_MB_13_4*%
X162666666Y-27000000D03*
%TD*%
D24*
%TO.C,Q1*%
X174300000Y-63670000D03*
X174300000Y-61770000D03*
X172425000Y-62720000D03*
%TD*%
D11*
%TO.C,KiKit_MB_20_1*%
X147500000Y-69166666D03*
%TD*%
%TO.C,KiKit_MB_31_1*%
X162666666Y-79000000D03*
%TD*%
D29*
%TO.C,C3*%
X128600000Y-48935000D03*
X125525000Y-48935000D03*
%TD*%
D11*
%TO.C,KiKit_MB_12_4*%
X184500000Y-45166666D03*
%TD*%
%TO.C,KiKit_MB_32_3*%
X172333333Y-79000000D03*
%TD*%
D24*
%TO.C,Q4*%
X174300000Y-95170000D03*
X174300000Y-93270000D03*
X172425000Y-94220000D03*
%TD*%
D18*
%TO.C,R9*%
X163870000Y-66250000D03*
X165520000Y-66250000D03*
%TD*%
%TO.C,R3*%
X163870000Y-90690000D03*
X165520000Y-90690000D03*
%TD*%
D11*
%TO.C,KiKit_MB_30_3*%
X173333333Y-54000000D03*
%TD*%
%TO.C,KiKit_MB_1_4*%
X112500000Y-33833334D03*
%TD*%
%TO.C,KiKit_MB_28_1*%
X184500000Y-69166666D03*
%TD*%
%TO.C,KiKit_MB_34_1*%
X112500000Y-99166666D03*
%TD*%
D22*
%TO.C,Q2*%
X167492500Y-61770000D03*
X167492500Y-63670000D03*
X169367500Y-62720000D03*
%TD*%
D11*
%TO.C,KiKit_MB_50_7*%
X184500000Y-25000000D03*
%TD*%
%TO.C,KiKit_MB_29_2*%
X160666666Y-54000000D03*
%TD*%
D12*
%TO.C,D3*%
X133900000Y-98460000D03*
X137200000Y-98460000D03*
%TD*%
D11*
%TO.C,KiKit_MB_39_4*%
X122666667Y-106000000D03*
%TD*%
%TO.C,KiKit_MB_6_2*%
X135333333Y-27000000D03*
%TD*%
%TO.C,KiKit_MB_28_4*%
X184500000Y-72166666D03*
%TD*%
%TO.C,KiKit_MB_48_2*%
X173333333Y-106000000D03*
%TD*%
%TO.C,KiKit_MB_44_3*%
X184500000Y-98166666D03*
%TD*%
D17*
%TO.C,D1*%
X119160000Y-91607500D03*
X119160000Y-88307500D03*
%TD*%
D11*
%TO.C,KiKit_MB_7_2*%
X124666667Y-52000000D03*
%TD*%
D25*
%TO.C,D2*%
X182027500Y-35300000D03*
X180452500Y-35300000D03*
%TD*%
D19*
%TO.C,C7*%
X124060000Y-98330000D03*
X124060000Y-99880000D03*
%TD*%
D11*
%TO.C,KiKit_MB_39_2*%
X124666667Y-106000000D03*
%TD*%
%TO.C,KiKit_MB_23_4*%
X122666667Y-79000000D03*
%TD*%
D21*
%TO.C,H3*%
X145200000Y-49700000D03*
%TD*%
D11*
%TO.C,KiKit_MB_45_1*%
X159666666Y-81000000D03*
%TD*%
D21*
%TO.C,KiKit_TO_2*%
X191500000Y-20000000D03*
%TD*%
D11*
%TO.C,KiKit_MB_23_2*%
X124666667Y-79000000D03*
%TD*%
%TO.C,KiKit_MB_42_4*%
X149500000Y-96166666D03*
%TD*%
D10*
%TO.C,R2*%
X145085000Y-33100000D03*
X143435000Y-33100000D03*
%TD*%
D11*
%TO.C,KiKit_MB_32_1*%
X174333333Y-79000000D03*
%TD*%
D19*
%TO.C,C6*%
X133060000Y-75160000D03*
X133060000Y-76710000D03*
%TD*%
D11*
%TO.C,KiKit_MB_48_4*%
X171333333Y-106000000D03*
%TD*%
D24*
%TO.C,Q1*%
X137300000Y-36670000D03*
X137300000Y-34770000D03*
X135425000Y-35720000D03*
%TD*%
D11*
%TO.C,KiKit_MB_52_6*%
X184500000Y-112166666D03*
%TD*%
D26*
%TO.C,U2*%
X127877500Y-43762500D03*
X127877500Y-44262500D03*
X127877500Y-44762500D03*
X127877500Y-45262500D03*
D27*
X128540000Y-45425000D03*
X129040000Y-45425000D03*
X129540000Y-45425000D03*
D26*
X130202500Y-45262500D03*
X130202500Y-44762500D03*
X130202500Y-44262500D03*
X130202500Y-43762500D03*
D27*
X129540000Y-43600000D03*
X129040000Y-43600000D03*
X128540000Y-43600000D03*
%TD*%
D11*
%TO.C,KiKit_MB_36_1*%
X147500000Y-96166666D03*
%TD*%
D18*
%TO.C,R8*%
X126870000Y-88750000D03*
X128520000Y-88750000D03*
%TD*%
D19*
%TO.C,C4*%
X167960000Y-102160000D03*
X167960000Y-103710000D03*
%TD*%
D11*
%TO.C,KiKit_MB_9_3*%
X149500000Y-34833334D03*
%TD*%
D29*
%TO.C,C3*%
X165600000Y-75935000D03*
X162525000Y-75935000D03*
%TD*%
D24*
%TO.C,Q1*%
X137300000Y-63670000D03*
X137300000Y-61770000D03*
X135425000Y-62720000D03*
%TD*%
D11*
%TO.C,KiKit_MB_6_3*%
X136333333Y-27000000D03*
%TD*%
D10*
%TO.C,R7*%
X140895000Y-36690000D03*
X139245000Y-36690000D03*
%TD*%
D11*
%TO.C,KiKit_MB_47_4*%
X159666666Y-106000000D03*
%TD*%
%TO.C,KiKit_MB_27_3*%
X184500000Y-62833333D03*
%TD*%
D19*
%TO.C,C2*%
X161060000Y-94360000D03*
X161060000Y-95910000D03*
%TD*%
D24*
%TO.C,Q4*%
X137300000Y-68170000D03*
X137300000Y-66270000D03*
X135425000Y-67220000D03*
%TD*%
D10*
%TO.C,R2*%
X182085000Y-33100000D03*
X180435000Y-33100000D03*
%TD*%
D11*
%TO.C,KiKit_MB_37_3*%
X124666667Y-81000000D03*
%TD*%
%TO.C,KiKit_MB_34_3*%
X112500000Y-97166666D03*
%TD*%
D10*
%TO.C,R7*%
X177895000Y-36690000D03*
X176245000Y-36690000D03*
%TD*%
D11*
%TO.C,KiKit_MB_4_2*%
X147500000Y-43166666D03*
%TD*%
%TO.C,KiKit_MB_23_1*%
X125666667Y-79000000D03*
%TD*%
%TO.C,KiKit_MB_38_3*%
X136333333Y-81000000D03*
%TD*%
%TO.C,KiKit_MB_3_4*%
X147500000Y-36833334D03*
%TD*%
%TO.C,KiKit_MB_31_4*%
X159666666Y-79000000D03*
%TD*%
%TO.C,KiKit_MB_48_1*%
X174333333Y-106000000D03*
%TD*%
D19*
%TO.C,C4*%
X130960000Y-75160000D03*
X130960000Y-76710000D03*
%TD*%
D22*
%TO.C,Q2*%
X130492500Y-88770000D03*
X130492500Y-90670000D03*
X132367500Y-89720000D03*
%TD*%
D21*
%TO.C,H1*%
X114800000Y-29300000D03*
%TD*%
M02*
