%TF.GenerationSoftware,KiCad,Pcbnew,8.0.3*%
%TF.CreationDate,2024-12-25T16:19:31+08:00*%
%TF.ProjectId,ICM-42688_Panelized,49434d2d-3432-4363-9838-5f50616e656c,rev?*%
%TF.SameCoordinates,Original*%
%TF.FileFunction,Legend,Bot*%
%TF.FilePolarity,Positive*%
%FSLAX46Y46*%
G04 Gerber Fmt 4.6, Leading zero omitted, Abs format (unit mm)*
G04 Created by KiCad (PCBNEW 8.0.3) date 2024-12-25 16:19:31*
%MOMM*%
%LPD*%
G01*
G04 APERTURE LIST*
%ADD10C,0.200000*%
G04 APERTURE END LIST*
D10*
X140285715Y-38940532D02*
X139809525Y-38940532D01*
X140380953Y-39226247D02*
X140047620Y-38226247D01*
X140047620Y-38226247D02*
X139714287Y-39226247D01*
X138952382Y-39178628D02*
X139047620Y-39226247D01*
X139047620Y-39226247D02*
X139238096Y-39226247D01*
X139238096Y-39226247D02*
X139333334Y-39178628D01*
X139333334Y-39178628D02*
X139380953Y-39131008D01*
X139380953Y-39131008D02*
X139428572Y-39035770D01*
X139428572Y-39035770D02*
X139428572Y-38750056D01*
X139428572Y-38750056D02*
X139380953Y-38654818D01*
X139380953Y-38654818D02*
X139333334Y-38607199D01*
X139333334Y-38607199D02*
X139238096Y-38559580D01*
X139238096Y-38559580D02*
X139047620Y-38559580D01*
X139047620Y-38559580D02*
X138952382Y-38607199D01*
X138095239Y-39178628D02*
X138190477Y-39226247D01*
X138190477Y-39226247D02*
X138380953Y-39226247D01*
X138380953Y-39226247D02*
X138476191Y-39178628D01*
X138476191Y-39178628D02*
X138523810Y-39131008D01*
X138523810Y-39131008D02*
X138571429Y-39035770D01*
X138571429Y-39035770D02*
X138571429Y-38750056D01*
X138571429Y-38750056D02*
X138523810Y-38654818D01*
X138523810Y-38654818D02*
X138476191Y-38607199D01*
X138476191Y-38607199D02*
X138380953Y-38559580D01*
X138380953Y-38559580D02*
X138190477Y-38559580D01*
X138190477Y-38559580D02*
X138095239Y-38607199D01*
X137285715Y-39178628D02*
X137380953Y-39226247D01*
X137380953Y-39226247D02*
X137571429Y-39226247D01*
X137571429Y-39226247D02*
X137666667Y-39178628D01*
X137666667Y-39178628D02*
X137714286Y-39083389D01*
X137714286Y-39083389D02*
X137714286Y-38702437D01*
X137714286Y-38702437D02*
X137666667Y-38607199D01*
X137666667Y-38607199D02*
X137571429Y-38559580D01*
X137571429Y-38559580D02*
X137380953Y-38559580D01*
X137380953Y-38559580D02*
X137285715Y-38607199D01*
X137285715Y-38607199D02*
X137238096Y-38702437D01*
X137238096Y-38702437D02*
X137238096Y-38797675D01*
X137238096Y-38797675D02*
X137714286Y-38892913D01*
X136666667Y-39226247D02*
X136761905Y-39178628D01*
X136761905Y-39178628D02*
X136809524Y-39083389D01*
X136809524Y-39083389D02*
X136809524Y-38226247D01*
X135904762Y-39178628D02*
X136000000Y-39226247D01*
X136000000Y-39226247D02*
X136190476Y-39226247D01*
X136190476Y-39226247D02*
X136285714Y-39178628D01*
X136285714Y-39178628D02*
X136333333Y-39083389D01*
X136333333Y-39083389D02*
X136333333Y-38702437D01*
X136333333Y-38702437D02*
X136285714Y-38607199D01*
X136285714Y-38607199D02*
X136190476Y-38559580D01*
X136190476Y-38559580D02*
X136000000Y-38559580D01*
X136000000Y-38559580D02*
X135904762Y-38607199D01*
X135904762Y-38607199D02*
X135857143Y-38702437D01*
X135857143Y-38702437D02*
X135857143Y-38797675D01*
X135857143Y-38797675D02*
X136333333Y-38892913D01*
X135428571Y-39226247D02*
X135428571Y-38559580D01*
X135428571Y-38750056D02*
X135380952Y-38654818D01*
X135380952Y-38654818D02*
X135333333Y-38607199D01*
X135333333Y-38607199D02*
X135238095Y-38559580D01*
X135238095Y-38559580D02*
X135142857Y-38559580D01*
X134666666Y-39226247D02*
X134761904Y-39178628D01*
X134761904Y-39178628D02*
X134809523Y-39131008D01*
X134809523Y-39131008D02*
X134857142Y-39035770D01*
X134857142Y-39035770D02*
X134857142Y-38750056D01*
X134857142Y-38750056D02*
X134809523Y-38654818D01*
X134809523Y-38654818D02*
X134761904Y-38607199D01*
X134761904Y-38607199D02*
X134666666Y-38559580D01*
X134666666Y-38559580D02*
X134523809Y-38559580D01*
X134523809Y-38559580D02*
X134428571Y-38607199D01*
X134428571Y-38607199D02*
X134380952Y-38654818D01*
X134380952Y-38654818D02*
X134333333Y-38750056D01*
X134333333Y-38750056D02*
X134333333Y-39035770D01*
X134333333Y-39035770D02*
X134380952Y-39131008D01*
X134380952Y-39131008D02*
X134428571Y-39178628D01*
X134428571Y-39178628D02*
X134523809Y-39226247D01*
X134523809Y-39226247D02*
X134666666Y-39226247D01*
X133904761Y-39226247D02*
X133904761Y-38559580D01*
X133904761Y-38654818D02*
X133857142Y-38607199D01*
X133857142Y-38607199D02*
X133761904Y-38559580D01*
X133761904Y-38559580D02*
X133619047Y-38559580D01*
X133619047Y-38559580D02*
X133523809Y-38607199D01*
X133523809Y-38607199D02*
X133476190Y-38702437D01*
X133476190Y-38702437D02*
X133476190Y-39226247D01*
X133476190Y-38702437D02*
X133428571Y-38607199D01*
X133428571Y-38607199D02*
X133333333Y-38559580D01*
X133333333Y-38559580D02*
X133190476Y-38559580D01*
X133190476Y-38559580D02*
X133095237Y-38607199D01*
X133095237Y-38607199D02*
X133047618Y-38702437D01*
X133047618Y-38702437D02*
X133047618Y-39226247D01*
X132190476Y-39178628D02*
X132285714Y-39226247D01*
X132285714Y-39226247D02*
X132476190Y-39226247D01*
X132476190Y-39226247D02*
X132571428Y-39178628D01*
X132571428Y-39178628D02*
X132619047Y-39083389D01*
X132619047Y-39083389D02*
X132619047Y-38702437D01*
X132619047Y-38702437D02*
X132571428Y-38607199D01*
X132571428Y-38607199D02*
X132476190Y-38559580D01*
X132476190Y-38559580D02*
X132285714Y-38559580D01*
X132285714Y-38559580D02*
X132190476Y-38607199D01*
X132190476Y-38607199D02*
X132142857Y-38702437D01*
X132142857Y-38702437D02*
X132142857Y-38797675D01*
X132142857Y-38797675D02*
X132619047Y-38892913D01*
X131857142Y-38559580D02*
X131476190Y-38559580D01*
X131714285Y-38226247D02*
X131714285Y-39083389D01*
X131714285Y-39083389D02*
X131666666Y-39178628D01*
X131666666Y-39178628D02*
X131571428Y-39226247D01*
X131571428Y-39226247D02*
X131476190Y-39226247D01*
X130761904Y-39178628D02*
X130857142Y-39226247D01*
X130857142Y-39226247D02*
X131047618Y-39226247D01*
X131047618Y-39226247D02*
X131142856Y-39178628D01*
X131142856Y-39178628D02*
X131190475Y-39083389D01*
X131190475Y-39083389D02*
X131190475Y-38702437D01*
X131190475Y-38702437D02*
X131142856Y-38607199D01*
X131142856Y-38607199D02*
X131047618Y-38559580D01*
X131047618Y-38559580D02*
X130857142Y-38559580D01*
X130857142Y-38559580D02*
X130761904Y-38607199D01*
X130761904Y-38607199D02*
X130714285Y-38702437D01*
X130714285Y-38702437D02*
X130714285Y-38797675D01*
X130714285Y-38797675D02*
X131190475Y-38892913D01*
X130285713Y-39226247D02*
X130285713Y-38559580D01*
X130285713Y-38750056D02*
X130238094Y-38654818D01*
X130238094Y-38654818D02*
X130190475Y-38607199D01*
X130190475Y-38607199D02*
X130095237Y-38559580D01*
X130095237Y-38559580D02*
X129999999Y-38559580D01*
X128095236Y-39226247D02*
X128142856Y-39226247D01*
X128142856Y-39226247D02*
X128238094Y-39178628D01*
X128238094Y-39178628D02*
X128380951Y-39035770D01*
X128380951Y-39035770D02*
X128619046Y-38750056D01*
X128619046Y-38750056D02*
X128714284Y-38607199D01*
X128714284Y-38607199D02*
X128761903Y-38464342D01*
X128761903Y-38464342D02*
X128761903Y-38369104D01*
X128761903Y-38369104D02*
X128714284Y-38273866D01*
X128714284Y-38273866D02*
X128619046Y-38226247D01*
X128619046Y-38226247D02*
X128571427Y-38226247D01*
X128571427Y-38226247D02*
X128476189Y-38273866D01*
X128476189Y-38273866D02*
X128428570Y-38369104D01*
X128428570Y-38369104D02*
X128428570Y-38416723D01*
X128428570Y-38416723D02*
X128476189Y-38511961D01*
X128476189Y-38511961D02*
X128523808Y-38559580D01*
X128523808Y-38559580D02*
X128809522Y-38750056D01*
X128809522Y-38750056D02*
X128857141Y-38797675D01*
X128857141Y-38797675D02*
X128904760Y-38892913D01*
X128904760Y-38892913D02*
X128904760Y-39035770D01*
X128904760Y-39035770D02*
X128857141Y-39131008D01*
X128857141Y-39131008D02*
X128809522Y-39178628D01*
X128809522Y-39178628D02*
X128714284Y-39226247D01*
X128714284Y-39226247D02*
X128571427Y-39226247D01*
X128571427Y-39226247D02*
X128476189Y-39178628D01*
X128476189Y-39178628D02*
X128428570Y-39131008D01*
X128428570Y-39131008D02*
X128285713Y-38940532D01*
X128285713Y-38940532D02*
X128238094Y-38797675D01*
X128238094Y-38797675D02*
X128238094Y-38702437D01*
X126380951Y-38273866D02*
X126476189Y-38226247D01*
X126476189Y-38226247D02*
X126619046Y-38226247D01*
X126619046Y-38226247D02*
X126761903Y-38273866D01*
X126761903Y-38273866D02*
X126857141Y-38369104D01*
X126857141Y-38369104D02*
X126904760Y-38464342D01*
X126904760Y-38464342D02*
X126952379Y-38654818D01*
X126952379Y-38654818D02*
X126952379Y-38797675D01*
X126952379Y-38797675D02*
X126904760Y-38988151D01*
X126904760Y-38988151D02*
X126857141Y-39083389D01*
X126857141Y-39083389D02*
X126761903Y-39178628D01*
X126761903Y-39178628D02*
X126619046Y-39226247D01*
X126619046Y-39226247D02*
X126523808Y-39226247D01*
X126523808Y-39226247D02*
X126380951Y-39178628D01*
X126380951Y-39178628D02*
X126333332Y-39131008D01*
X126333332Y-39131008D02*
X126333332Y-38797675D01*
X126333332Y-38797675D02*
X126523808Y-38797675D01*
X125999998Y-38559580D02*
X125761903Y-39226247D01*
X125523808Y-38559580D02*
X125761903Y-39226247D01*
X125761903Y-39226247D02*
X125857141Y-39464342D01*
X125857141Y-39464342D02*
X125904760Y-39511961D01*
X125904760Y-39511961D02*
X125999998Y-39559580D01*
X125142855Y-39226247D02*
X125142855Y-38559580D01*
X125142855Y-38750056D02*
X125095236Y-38654818D01*
X125095236Y-38654818D02*
X125047617Y-38607199D01*
X125047617Y-38607199D02*
X124952379Y-38559580D01*
X124952379Y-38559580D02*
X124857141Y-38559580D01*
X124380950Y-39226247D02*
X124476188Y-39178628D01*
X124476188Y-39178628D02*
X124523807Y-39131008D01*
X124523807Y-39131008D02*
X124571426Y-39035770D01*
X124571426Y-39035770D02*
X124571426Y-38750056D01*
X124571426Y-38750056D02*
X124523807Y-38654818D01*
X124523807Y-38654818D02*
X124476188Y-38607199D01*
X124476188Y-38607199D02*
X124380950Y-38559580D01*
X124380950Y-38559580D02*
X124238093Y-38559580D01*
X124238093Y-38559580D02*
X124142855Y-38607199D01*
X124142855Y-38607199D02*
X124095236Y-38654818D01*
X124095236Y-38654818D02*
X124047617Y-38750056D01*
X124047617Y-38750056D02*
X124047617Y-39035770D01*
X124047617Y-39035770D02*
X124095236Y-39131008D01*
X124095236Y-39131008D02*
X124142855Y-39178628D01*
X124142855Y-39178628D02*
X124238093Y-39226247D01*
X124238093Y-39226247D02*
X124380950Y-39226247D01*
X123666664Y-39178628D02*
X123571426Y-39226247D01*
X123571426Y-39226247D02*
X123380950Y-39226247D01*
X123380950Y-39226247D02*
X123285712Y-39178628D01*
X123285712Y-39178628D02*
X123238093Y-39083389D01*
X123238093Y-39083389D02*
X123238093Y-39035770D01*
X123238093Y-39035770D02*
X123285712Y-38940532D01*
X123285712Y-38940532D02*
X123380950Y-38892913D01*
X123380950Y-38892913D02*
X123523807Y-38892913D01*
X123523807Y-38892913D02*
X123619045Y-38845294D01*
X123619045Y-38845294D02*
X123666664Y-38750056D01*
X123666664Y-38750056D02*
X123666664Y-38702437D01*
X123666664Y-38702437D02*
X123619045Y-38607199D01*
X123619045Y-38607199D02*
X123523807Y-38559580D01*
X123523807Y-38559580D02*
X123380950Y-38559580D01*
X123380950Y-38559580D02*
X123285712Y-38607199D01*
X122380950Y-39178628D02*
X122476188Y-39226247D01*
X122476188Y-39226247D02*
X122666664Y-39226247D01*
X122666664Y-39226247D02*
X122761902Y-39178628D01*
X122761902Y-39178628D02*
X122809521Y-39131008D01*
X122809521Y-39131008D02*
X122857140Y-39035770D01*
X122857140Y-39035770D02*
X122857140Y-38750056D01*
X122857140Y-38750056D02*
X122809521Y-38654818D01*
X122809521Y-38654818D02*
X122761902Y-38607199D01*
X122761902Y-38607199D02*
X122666664Y-38559580D01*
X122666664Y-38559580D02*
X122476188Y-38559580D01*
X122476188Y-38559580D02*
X122380950Y-38607199D01*
X121809521Y-39226247D02*
X121904759Y-39178628D01*
X121904759Y-39178628D02*
X121952378Y-39131008D01*
X121952378Y-39131008D02*
X121999997Y-39035770D01*
X121999997Y-39035770D02*
X121999997Y-38750056D01*
X121999997Y-38750056D02*
X121952378Y-38654818D01*
X121952378Y-38654818D02*
X121904759Y-38607199D01*
X121904759Y-38607199D02*
X121809521Y-38559580D01*
X121809521Y-38559580D02*
X121666664Y-38559580D01*
X121666664Y-38559580D02*
X121571426Y-38607199D01*
X121571426Y-38607199D02*
X121523807Y-38654818D01*
X121523807Y-38654818D02*
X121476188Y-38750056D01*
X121476188Y-38750056D02*
X121476188Y-39035770D01*
X121476188Y-39035770D02*
X121523807Y-39131008D01*
X121523807Y-39131008D02*
X121571426Y-39178628D01*
X121571426Y-39178628D02*
X121666664Y-39226247D01*
X121666664Y-39226247D02*
X121809521Y-39226247D01*
X121047616Y-38559580D02*
X121047616Y-39559580D01*
X121047616Y-38607199D02*
X120952378Y-38559580D01*
X120952378Y-38559580D02*
X120761902Y-38559580D01*
X120761902Y-38559580D02*
X120666664Y-38607199D01*
X120666664Y-38607199D02*
X120619045Y-38654818D01*
X120619045Y-38654818D02*
X120571426Y-38750056D01*
X120571426Y-38750056D02*
X120571426Y-39035770D01*
X120571426Y-39035770D02*
X120619045Y-39131008D01*
X120619045Y-39131008D02*
X120666664Y-39178628D01*
X120666664Y-39178628D02*
X120761902Y-39226247D01*
X120761902Y-39226247D02*
X120952378Y-39226247D01*
X120952378Y-39226247D02*
X121047616Y-39178628D01*
X119761902Y-39178628D02*
X119857140Y-39226247D01*
X119857140Y-39226247D02*
X120047616Y-39226247D01*
X120047616Y-39226247D02*
X120142854Y-39178628D01*
X120142854Y-39178628D02*
X120190473Y-39083389D01*
X120190473Y-39083389D02*
X120190473Y-38702437D01*
X120190473Y-38702437D02*
X120142854Y-38607199D01*
X120142854Y-38607199D02*
X120047616Y-38559580D01*
X120047616Y-38559580D02*
X119857140Y-38559580D01*
X119857140Y-38559580D02*
X119761902Y-38607199D01*
X119761902Y-38607199D02*
X119714283Y-38702437D01*
X119714283Y-38702437D02*
X119714283Y-38797675D01*
X119714283Y-38797675D02*
X120190473Y-38892913D01*
X143619047Y-40836191D02*
X143619047Y-39836191D01*
X142571429Y-40740952D02*
X142619048Y-40788572D01*
X142619048Y-40788572D02*
X142761905Y-40836191D01*
X142761905Y-40836191D02*
X142857143Y-40836191D01*
X142857143Y-40836191D02*
X143000000Y-40788572D01*
X143000000Y-40788572D02*
X143095238Y-40693333D01*
X143095238Y-40693333D02*
X143142857Y-40598095D01*
X143142857Y-40598095D02*
X143190476Y-40407619D01*
X143190476Y-40407619D02*
X143190476Y-40264762D01*
X143190476Y-40264762D02*
X143142857Y-40074286D01*
X143142857Y-40074286D02*
X143095238Y-39979048D01*
X143095238Y-39979048D02*
X143000000Y-39883810D01*
X143000000Y-39883810D02*
X142857143Y-39836191D01*
X142857143Y-39836191D02*
X142761905Y-39836191D01*
X142761905Y-39836191D02*
X142619048Y-39883810D01*
X142619048Y-39883810D02*
X142571429Y-39931429D01*
X142142857Y-40836191D02*
X142142857Y-39836191D01*
X142142857Y-39836191D02*
X141809524Y-40550476D01*
X141809524Y-40550476D02*
X141476191Y-39836191D01*
X141476191Y-39836191D02*
X141476191Y-40836191D01*
X141000000Y-40455238D02*
X140238096Y-40455238D01*
X139333334Y-40169524D02*
X139333334Y-40836191D01*
X139571429Y-39788572D02*
X139809524Y-40502857D01*
X139809524Y-40502857D02*
X139190477Y-40502857D01*
X138857143Y-39931429D02*
X138809524Y-39883810D01*
X138809524Y-39883810D02*
X138714286Y-39836191D01*
X138714286Y-39836191D02*
X138476191Y-39836191D01*
X138476191Y-39836191D02*
X138380953Y-39883810D01*
X138380953Y-39883810D02*
X138333334Y-39931429D01*
X138333334Y-39931429D02*
X138285715Y-40026667D01*
X138285715Y-40026667D02*
X138285715Y-40121905D01*
X138285715Y-40121905D02*
X138333334Y-40264762D01*
X138333334Y-40264762D02*
X138904762Y-40836191D01*
X138904762Y-40836191D02*
X138285715Y-40836191D01*
X137428572Y-39836191D02*
X137619048Y-39836191D01*
X137619048Y-39836191D02*
X137714286Y-39883810D01*
X137714286Y-39883810D02*
X137761905Y-39931429D01*
X137761905Y-39931429D02*
X137857143Y-40074286D01*
X137857143Y-40074286D02*
X137904762Y-40264762D01*
X137904762Y-40264762D02*
X137904762Y-40645714D01*
X137904762Y-40645714D02*
X137857143Y-40740952D01*
X137857143Y-40740952D02*
X137809524Y-40788572D01*
X137809524Y-40788572D02*
X137714286Y-40836191D01*
X137714286Y-40836191D02*
X137523810Y-40836191D01*
X137523810Y-40836191D02*
X137428572Y-40788572D01*
X137428572Y-40788572D02*
X137380953Y-40740952D01*
X137380953Y-40740952D02*
X137333334Y-40645714D01*
X137333334Y-40645714D02*
X137333334Y-40407619D01*
X137333334Y-40407619D02*
X137380953Y-40312381D01*
X137380953Y-40312381D02*
X137428572Y-40264762D01*
X137428572Y-40264762D02*
X137523810Y-40217143D01*
X137523810Y-40217143D02*
X137714286Y-40217143D01*
X137714286Y-40217143D02*
X137809524Y-40264762D01*
X137809524Y-40264762D02*
X137857143Y-40312381D01*
X137857143Y-40312381D02*
X137904762Y-40407619D01*
X136761905Y-40264762D02*
X136857143Y-40217143D01*
X136857143Y-40217143D02*
X136904762Y-40169524D01*
X136904762Y-40169524D02*
X136952381Y-40074286D01*
X136952381Y-40074286D02*
X136952381Y-40026667D01*
X136952381Y-40026667D02*
X136904762Y-39931429D01*
X136904762Y-39931429D02*
X136857143Y-39883810D01*
X136857143Y-39883810D02*
X136761905Y-39836191D01*
X136761905Y-39836191D02*
X136571429Y-39836191D01*
X136571429Y-39836191D02*
X136476191Y-39883810D01*
X136476191Y-39883810D02*
X136428572Y-39931429D01*
X136428572Y-39931429D02*
X136380953Y-40026667D01*
X136380953Y-40026667D02*
X136380953Y-40074286D01*
X136380953Y-40074286D02*
X136428572Y-40169524D01*
X136428572Y-40169524D02*
X136476191Y-40217143D01*
X136476191Y-40217143D02*
X136571429Y-40264762D01*
X136571429Y-40264762D02*
X136761905Y-40264762D01*
X136761905Y-40264762D02*
X136857143Y-40312381D01*
X136857143Y-40312381D02*
X136904762Y-40360000D01*
X136904762Y-40360000D02*
X136952381Y-40455238D01*
X136952381Y-40455238D02*
X136952381Y-40645714D01*
X136952381Y-40645714D02*
X136904762Y-40740952D01*
X136904762Y-40740952D02*
X136857143Y-40788572D01*
X136857143Y-40788572D02*
X136761905Y-40836191D01*
X136761905Y-40836191D02*
X136571429Y-40836191D01*
X136571429Y-40836191D02*
X136476191Y-40788572D01*
X136476191Y-40788572D02*
X136428572Y-40740952D01*
X136428572Y-40740952D02*
X136380953Y-40645714D01*
X136380953Y-40645714D02*
X136380953Y-40455238D01*
X136380953Y-40455238D02*
X136428572Y-40360000D01*
X136428572Y-40360000D02*
X136476191Y-40312381D01*
X136476191Y-40312381D02*
X136571429Y-40264762D01*
X135809524Y-40264762D02*
X135904762Y-40217143D01*
X135904762Y-40217143D02*
X135952381Y-40169524D01*
X135952381Y-40169524D02*
X136000000Y-40074286D01*
X136000000Y-40074286D02*
X136000000Y-40026667D01*
X136000000Y-40026667D02*
X135952381Y-39931429D01*
X135952381Y-39931429D02*
X135904762Y-39883810D01*
X135904762Y-39883810D02*
X135809524Y-39836191D01*
X135809524Y-39836191D02*
X135619048Y-39836191D01*
X135619048Y-39836191D02*
X135523810Y-39883810D01*
X135523810Y-39883810D02*
X135476191Y-39931429D01*
X135476191Y-39931429D02*
X135428572Y-40026667D01*
X135428572Y-40026667D02*
X135428572Y-40074286D01*
X135428572Y-40074286D02*
X135476191Y-40169524D01*
X135476191Y-40169524D02*
X135523810Y-40217143D01*
X135523810Y-40217143D02*
X135619048Y-40264762D01*
X135619048Y-40264762D02*
X135809524Y-40264762D01*
X135809524Y-40264762D02*
X135904762Y-40312381D01*
X135904762Y-40312381D02*
X135952381Y-40360000D01*
X135952381Y-40360000D02*
X136000000Y-40455238D01*
X136000000Y-40455238D02*
X136000000Y-40645714D01*
X136000000Y-40645714D02*
X135952381Y-40740952D01*
X135952381Y-40740952D02*
X135904762Y-40788572D01*
X135904762Y-40788572D02*
X135809524Y-40836191D01*
X135809524Y-40836191D02*
X135619048Y-40836191D01*
X135619048Y-40836191D02*
X135523810Y-40788572D01*
X135523810Y-40788572D02*
X135476191Y-40740952D01*
X135476191Y-40740952D02*
X135428572Y-40645714D01*
X135428572Y-40645714D02*
X135428572Y-40455238D01*
X135428572Y-40455238D02*
X135476191Y-40360000D01*
X135476191Y-40360000D02*
X135523810Y-40312381D01*
X135523810Y-40312381D02*
X135619048Y-40264762D01*
X134285714Y-40788572D02*
X134142857Y-40836191D01*
X134142857Y-40836191D02*
X133904762Y-40836191D01*
X133904762Y-40836191D02*
X133809524Y-40788572D01*
X133809524Y-40788572D02*
X133761905Y-40740952D01*
X133761905Y-40740952D02*
X133714286Y-40645714D01*
X133714286Y-40645714D02*
X133714286Y-40550476D01*
X133714286Y-40550476D02*
X133761905Y-40455238D01*
X133761905Y-40455238D02*
X133809524Y-40407619D01*
X133809524Y-40407619D02*
X133904762Y-40360000D01*
X133904762Y-40360000D02*
X134095238Y-40312381D01*
X134095238Y-40312381D02*
X134190476Y-40264762D01*
X134190476Y-40264762D02*
X134238095Y-40217143D01*
X134238095Y-40217143D02*
X134285714Y-40121905D01*
X134285714Y-40121905D02*
X134285714Y-40026667D01*
X134285714Y-40026667D02*
X134238095Y-39931429D01*
X134238095Y-39931429D02*
X134190476Y-39883810D01*
X134190476Y-39883810D02*
X134095238Y-39836191D01*
X134095238Y-39836191D02*
X133857143Y-39836191D01*
X133857143Y-39836191D02*
X133714286Y-39883810D01*
X133285714Y-40836191D02*
X133285714Y-39836191D01*
X133285714Y-39836191D02*
X132904762Y-39836191D01*
X132904762Y-39836191D02*
X132809524Y-39883810D01*
X132809524Y-39883810D02*
X132761905Y-39931429D01*
X132761905Y-39931429D02*
X132714286Y-40026667D01*
X132714286Y-40026667D02*
X132714286Y-40169524D01*
X132714286Y-40169524D02*
X132761905Y-40264762D01*
X132761905Y-40264762D02*
X132809524Y-40312381D01*
X132809524Y-40312381D02*
X132904762Y-40360000D01*
X132904762Y-40360000D02*
X133285714Y-40360000D01*
X132285714Y-40836191D02*
X132285714Y-39836191D01*
X131095239Y-39788572D02*
X131952381Y-41074286D01*
X130761905Y-40836191D02*
X130761905Y-39836191D01*
X130333334Y-39931429D02*
X130285715Y-39883810D01*
X130285715Y-39883810D02*
X130190477Y-39836191D01*
X130190477Y-39836191D02*
X129952382Y-39836191D01*
X129952382Y-39836191D02*
X129857144Y-39883810D01*
X129857144Y-39883810D02*
X129809525Y-39931429D01*
X129809525Y-39931429D02*
X129761906Y-40026667D01*
X129761906Y-40026667D02*
X129761906Y-40121905D01*
X129761906Y-40121905D02*
X129809525Y-40264762D01*
X129809525Y-40264762D02*
X130380953Y-40836191D01*
X130380953Y-40836191D02*
X129761906Y-40836191D01*
X128761906Y-40740952D02*
X128809525Y-40788572D01*
X128809525Y-40788572D02*
X128952382Y-40836191D01*
X128952382Y-40836191D02*
X129047620Y-40836191D01*
X129047620Y-40836191D02*
X129190477Y-40788572D01*
X129190477Y-40788572D02*
X129285715Y-40693333D01*
X129285715Y-40693333D02*
X129333334Y-40598095D01*
X129333334Y-40598095D02*
X129380953Y-40407619D01*
X129380953Y-40407619D02*
X129380953Y-40264762D01*
X129380953Y-40264762D02*
X129333334Y-40074286D01*
X129333334Y-40074286D02*
X129285715Y-39979048D01*
X129285715Y-39979048D02*
X129190477Y-39883810D01*
X129190477Y-39883810D02*
X129047620Y-39836191D01*
X129047620Y-39836191D02*
X128952382Y-39836191D01*
X128952382Y-39836191D02*
X128809525Y-39883810D01*
X128809525Y-39883810D02*
X128761906Y-39931429D01*
X127238096Y-40312381D02*
X127095239Y-40360000D01*
X127095239Y-40360000D02*
X127047620Y-40407619D01*
X127047620Y-40407619D02*
X127000001Y-40502857D01*
X127000001Y-40502857D02*
X127000001Y-40645714D01*
X127000001Y-40645714D02*
X127047620Y-40740952D01*
X127047620Y-40740952D02*
X127095239Y-40788572D01*
X127095239Y-40788572D02*
X127190477Y-40836191D01*
X127190477Y-40836191D02*
X127571429Y-40836191D01*
X127571429Y-40836191D02*
X127571429Y-39836191D01*
X127571429Y-39836191D02*
X127238096Y-39836191D01*
X127238096Y-39836191D02*
X127142858Y-39883810D01*
X127142858Y-39883810D02*
X127095239Y-39931429D01*
X127095239Y-39931429D02*
X127047620Y-40026667D01*
X127047620Y-40026667D02*
X127047620Y-40121905D01*
X127047620Y-40121905D02*
X127095239Y-40217143D01*
X127095239Y-40217143D02*
X127142858Y-40264762D01*
X127142858Y-40264762D02*
X127238096Y-40312381D01*
X127238096Y-40312381D02*
X127571429Y-40312381D01*
X126571429Y-40836191D02*
X126571429Y-40169524D01*
X126571429Y-40360000D02*
X126523810Y-40264762D01*
X126523810Y-40264762D02*
X126476191Y-40217143D01*
X126476191Y-40217143D02*
X126380953Y-40169524D01*
X126380953Y-40169524D02*
X126285715Y-40169524D01*
X125571429Y-40788572D02*
X125666667Y-40836191D01*
X125666667Y-40836191D02*
X125857143Y-40836191D01*
X125857143Y-40836191D02*
X125952381Y-40788572D01*
X125952381Y-40788572D02*
X126000000Y-40693333D01*
X126000000Y-40693333D02*
X126000000Y-40312381D01*
X126000000Y-40312381D02*
X125952381Y-40217143D01*
X125952381Y-40217143D02*
X125857143Y-40169524D01*
X125857143Y-40169524D02*
X125666667Y-40169524D01*
X125666667Y-40169524D02*
X125571429Y-40217143D01*
X125571429Y-40217143D02*
X125523810Y-40312381D01*
X125523810Y-40312381D02*
X125523810Y-40407619D01*
X125523810Y-40407619D02*
X126000000Y-40502857D01*
X124666667Y-40836191D02*
X124666667Y-40312381D01*
X124666667Y-40312381D02*
X124714286Y-40217143D01*
X124714286Y-40217143D02*
X124809524Y-40169524D01*
X124809524Y-40169524D02*
X125000000Y-40169524D01*
X125000000Y-40169524D02*
X125095238Y-40217143D01*
X124666667Y-40788572D02*
X124761905Y-40836191D01*
X124761905Y-40836191D02*
X125000000Y-40836191D01*
X125000000Y-40836191D02*
X125095238Y-40788572D01*
X125095238Y-40788572D02*
X125142857Y-40693333D01*
X125142857Y-40693333D02*
X125142857Y-40598095D01*
X125142857Y-40598095D02*
X125095238Y-40502857D01*
X125095238Y-40502857D02*
X125000000Y-40455238D01*
X125000000Y-40455238D02*
X124761905Y-40455238D01*
X124761905Y-40455238D02*
X124666667Y-40407619D01*
X124190476Y-40836191D02*
X124190476Y-39836191D01*
X124095238Y-40455238D02*
X123809524Y-40836191D01*
X123809524Y-40169524D02*
X124190476Y-40550476D01*
X123238095Y-40836191D02*
X123333333Y-40788572D01*
X123333333Y-40788572D02*
X123380952Y-40740952D01*
X123380952Y-40740952D02*
X123428571Y-40645714D01*
X123428571Y-40645714D02*
X123428571Y-40360000D01*
X123428571Y-40360000D02*
X123380952Y-40264762D01*
X123380952Y-40264762D02*
X123333333Y-40217143D01*
X123333333Y-40217143D02*
X123238095Y-40169524D01*
X123238095Y-40169524D02*
X123095238Y-40169524D01*
X123095238Y-40169524D02*
X123000000Y-40217143D01*
X123000000Y-40217143D02*
X122952381Y-40264762D01*
X122952381Y-40264762D02*
X122904762Y-40360000D01*
X122904762Y-40360000D02*
X122904762Y-40645714D01*
X122904762Y-40645714D02*
X122952381Y-40740952D01*
X122952381Y-40740952D02*
X123000000Y-40788572D01*
X123000000Y-40788572D02*
X123095238Y-40836191D01*
X123095238Y-40836191D02*
X123238095Y-40836191D01*
X122047619Y-40169524D02*
X122047619Y-40836191D01*
X122476190Y-40169524D02*
X122476190Y-40693333D01*
X122476190Y-40693333D02*
X122428571Y-40788572D01*
X122428571Y-40788572D02*
X122333333Y-40836191D01*
X122333333Y-40836191D02*
X122190476Y-40836191D01*
X122190476Y-40836191D02*
X122095238Y-40788572D01*
X122095238Y-40788572D02*
X122047619Y-40740952D01*
X121714285Y-40169524D02*
X121333333Y-40169524D01*
X121571428Y-39836191D02*
X121571428Y-40693333D01*
X121571428Y-40693333D02*
X121523809Y-40788572D01*
X121523809Y-40788572D02*
X121428571Y-40836191D01*
X121428571Y-40836191D02*
X121333333Y-40836191D01*
X119904761Y-40312381D02*
X119761904Y-40360000D01*
X119761904Y-40360000D02*
X119714285Y-40407619D01*
X119714285Y-40407619D02*
X119666666Y-40502857D01*
X119666666Y-40502857D02*
X119666666Y-40645714D01*
X119666666Y-40645714D02*
X119714285Y-40740952D01*
X119714285Y-40740952D02*
X119761904Y-40788572D01*
X119761904Y-40788572D02*
X119857142Y-40836191D01*
X119857142Y-40836191D02*
X120238094Y-40836191D01*
X120238094Y-40836191D02*
X120238094Y-39836191D01*
X120238094Y-39836191D02*
X119904761Y-39836191D01*
X119904761Y-39836191D02*
X119809523Y-39883810D01*
X119809523Y-39883810D02*
X119761904Y-39931429D01*
X119761904Y-39931429D02*
X119714285Y-40026667D01*
X119714285Y-40026667D02*
X119714285Y-40121905D01*
X119714285Y-40121905D02*
X119761904Y-40217143D01*
X119761904Y-40217143D02*
X119809523Y-40264762D01*
X119809523Y-40264762D02*
X119904761Y-40312381D01*
X119904761Y-40312381D02*
X120238094Y-40312381D01*
X119095237Y-40836191D02*
X119190475Y-40788572D01*
X119190475Y-40788572D02*
X119238094Y-40740952D01*
X119238094Y-40740952D02*
X119285713Y-40645714D01*
X119285713Y-40645714D02*
X119285713Y-40360000D01*
X119285713Y-40360000D02*
X119238094Y-40264762D01*
X119238094Y-40264762D02*
X119190475Y-40217143D01*
X119190475Y-40217143D02*
X119095237Y-40169524D01*
X119095237Y-40169524D02*
X118952380Y-40169524D01*
X118952380Y-40169524D02*
X118857142Y-40217143D01*
X118857142Y-40217143D02*
X118809523Y-40264762D01*
X118809523Y-40264762D02*
X118761904Y-40360000D01*
X118761904Y-40360000D02*
X118761904Y-40645714D01*
X118761904Y-40645714D02*
X118809523Y-40740952D01*
X118809523Y-40740952D02*
X118857142Y-40788572D01*
X118857142Y-40788572D02*
X118952380Y-40836191D01*
X118952380Y-40836191D02*
X119095237Y-40836191D01*
X117904761Y-40836191D02*
X117904761Y-40312381D01*
X117904761Y-40312381D02*
X117952380Y-40217143D01*
X117952380Y-40217143D02*
X118047618Y-40169524D01*
X118047618Y-40169524D02*
X118238094Y-40169524D01*
X118238094Y-40169524D02*
X118333332Y-40217143D01*
X117904761Y-40788572D02*
X117999999Y-40836191D01*
X117999999Y-40836191D02*
X118238094Y-40836191D01*
X118238094Y-40836191D02*
X118333332Y-40788572D01*
X118333332Y-40788572D02*
X118380951Y-40693333D01*
X118380951Y-40693333D02*
X118380951Y-40598095D01*
X118380951Y-40598095D02*
X118333332Y-40502857D01*
X118333332Y-40502857D02*
X118238094Y-40455238D01*
X118238094Y-40455238D02*
X117999999Y-40455238D01*
X117999999Y-40455238D02*
X117904761Y-40407619D01*
X117428570Y-40836191D02*
X117428570Y-40169524D01*
X117428570Y-40360000D02*
X117380951Y-40264762D01*
X117380951Y-40264762D02*
X117333332Y-40217143D01*
X117333332Y-40217143D02*
X117238094Y-40169524D01*
X117238094Y-40169524D02*
X117142856Y-40169524D01*
X116380951Y-40836191D02*
X116380951Y-39836191D01*
X116380951Y-40788572D02*
X116476189Y-40836191D01*
X116476189Y-40836191D02*
X116666665Y-40836191D01*
X116666665Y-40836191D02*
X116761903Y-40788572D01*
X116761903Y-40788572D02*
X116809522Y-40740952D01*
X116809522Y-40740952D02*
X116857141Y-40645714D01*
X116857141Y-40645714D02*
X116857141Y-40360000D01*
X116857141Y-40360000D02*
X116809522Y-40264762D01*
X116809522Y-40264762D02*
X116761903Y-40217143D01*
X116761903Y-40217143D02*
X116666665Y-40169524D01*
X116666665Y-40169524D02*
X116476189Y-40169524D01*
X116476189Y-40169524D02*
X116380951Y-40217143D01*
X140285715Y-92940532D02*
X139809525Y-92940532D01*
X140380953Y-93226247D02*
X140047620Y-92226247D01*
X140047620Y-92226247D02*
X139714287Y-93226247D01*
X138952382Y-93178628D02*
X139047620Y-93226247D01*
X139047620Y-93226247D02*
X139238096Y-93226247D01*
X139238096Y-93226247D02*
X139333334Y-93178628D01*
X139333334Y-93178628D02*
X139380953Y-93131008D01*
X139380953Y-93131008D02*
X139428572Y-93035770D01*
X139428572Y-93035770D02*
X139428572Y-92750056D01*
X139428572Y-92750056D02*
X139380953Y-92654818D01*
X139380953Y-92654818D02*
X139333334Y-92607199D01*
X139333334Y-92607199D02*
X139238096Y-92559580D01*
X139238096Y-92559580D02*
X139047620Y-92559580D01*
X139047620Y-92559580D02*
X138952382Y-92607199D01*
X138095239Y-93178628D02*
X138190477Y-93226247D01*
X138190477Y-93226247D02*
X138380953Y-93226247D01*
X138380953Y-93226247D02*
X138476191Y-93178628D01*
X138476191Y-93178628D02*
X138523810Y-93131008D01*
X138523810Y-93131008D02*
X138571429Y-93035770D01*
X138571429Y-93035770D02*
X138571429Y-92750056D01*
X138571429Y-92750056D02*
X138523810Y-92654818D01*
X138523810Y-92654818D02*
X138476191Y-92607199D01*
X138476191Y-92607199D02*
X138380953Y-92559580D01*
X138380953Y-92559580D02*
X138190477Y-92559580D01*
X138190477Y-92559580D02*
X138095239Y-92607199D01*
X137285715Y-93178628D02*
X137380953Y-93226247D01*
X137380953Y-93226247D02*
X137571429Y-93226247D01*
X137571429Y-93226247D02*
X137666667Y-93178628D01*
X137666667Y-93178628D02*
X137714286Y-93083389D01*
X137714286Y-93083389D02*
X137714286Y-92702437D01*
X137714286Y-92702437D02*
X137666667Y-92607199D01*
X137666667Y-92607199D02*
X137571429Y-92559580D01*
X137571429Y-92559580D02*
X137380953Y-92559580D01*
X137380953Y-92559580D02*
X137285715Y-92607199D01*
X137285715Y-92607199D02*
X137238096Y-92702437D01*
X137238096Y-92702437D02*
X137238096Y-92797675D01*
X137238096Y-92797675D02*
X137714286Y-92892913D01*
X136666667Y-93226247D02*
X136761905Y-93178628D01*
X136761905Y-93178628D02*
X136809524Y-93083389D01*
X136809524Y-93083389D02*
X136809524Y-92226247D01*
X135904762Y-93178628D02*
X136000000Y-93226247D01*
X136000000Y-93226247D02*
X136190476Y-93226247D01*
X136190476Y-93226247D02*
X136285714Y-93178628D01*
X136285714Y-93178628D02*
X136333333Y-93083389D01*
X136333333Y-93083389D02*
X136333333Y-92702437D01*
X136333333Y-92702437D02*
X136285714Y-92607199D01*
X136285714Y-92607199D02*
X136190476Y-92559580D01*
X136190476Y-92559580D02*
X136000000Y-92559580D01*
X136000000Y-92559580D02*
X135904762Y-92607199D01*
X135904762Y-92607199D02*
X135857143Y-92702437D01*
X135857143Y-92702437D02*
X135857143Y-92797675D01*
X135857143Y-92797675D02*
X136333333Y-92892913D01*
X135428571Y-93226247D02*
X135428571Y-92559580D01*
X135428571Y-92750056D02*
X135380952Y-92654818D01*
X135380952Y-92654818D02*
X135333333Y-92607199D01*
X135333333Y-92607199D02*
X135238095Y-92559580D01*
X135238095Y-92559580D02*
X135142857Y-92559580D01*
X134666666Y-93226247D02*
X134761904Y-93178628D01*
X134761904Y-93178628D02*
X134809523Y-93131008D01*
X134809523Y-93131008D02*
X134857142Y-93035770D01*
X134857142Y-93035770D02*
X134857142Y-92750056D01*
X134857142Y-92750056D02*
X134809523Y-92654818D01*
X134809523Y-92654818D02*
X134761904Y-92607199D01*
X134761904Y-92607199D02*
X134666666Y-92559580D01*
X134666666Y-92559580D02*
X134523809Y-92559580D01*
X134523809Y-92559580D02*
X134428571Y-92607199D01*
X134428571Y-92607199D02*
X134380952Y-92654818D01*
X134380952Y-92654818D02*
X134333333Y-92750056D01*
X134333333Y-92750056D02*
X134333333Y-93035770D01*
X134333333Y-93035770D02*
X134380952Y-93131008D01*
X134380952Y-93131008D02*
X134428571Y-93178628D01*
X134428571Y-93178628D02*
X134523809Y-93226247D01*
X134523809Y-93226247D02*
X134666666Y-93226247D01*
X133904761Y-93226247D02*
X133904761Y-92559580D01*
X133904761Y-92654818D02*
X133857142Y-92607199D01*
X133857142Y-92607199D02*
X133761904Y-92559580D01*
X133761904Y-92559580D02*
X133619047Y-92559580D01*
X133619047Y-92559580D02*
X133523809Y-92607199D01*
X133523809Y-92607199D02*
X133476190Y-92702437D01*
X133476190Y-92702437D02*
X133476190Y-93226247D01*
X133476190Y-92702437D02*
X133428571Y-92607199D01*
X133428571Y-92607199D02*
X133333333Y-92559580D01*
X133333333Y-92559580D02*
X133190476Y-92559580D01*
X133190476Y-92559580D02*
X133095237Y-92607199D01*
X133095237Y-92607199D02*
X133047618Y-92702437D01*
X133047618Y-92702437D02*
X133047618Y-93226247D01*
X132190476Y-93178628D02*
X132285714Y-93226247D01*
X132285714Y-93226247D02*
X132476190Y-93226247D01*
X132476190Y-93226247D02*
X132571428Y-93178628D01*
X132571428Y-93178628D02*
X132619047Y-93083389D01*
X132619047Y-93083389D02*
X132619047Y-92702437D01*
X132619047Y-92702437D02*
X132571428Y-92607199D01*
X132571428Y-92607199D02*
X132476190Y-92559580D01*
X132476190Y-92559580D02*
X132285714Y-92559580D01*
X132285714Y-92559580D02*
X132190476Y-92607199D01*
X132190476Y-92607199D02*
X132142857Y-92702437D01*
X132142857Y-92702437D02*
X132142857Y-92797675D01*
X132142857Y-92797675D02*
X132619047Y-92892913D01*
X131857142Y-92559580D02*
X131476190Y-92559580D01*
X131714285Y-92226247D02*
X131714285Y-93083389D01*
X131714285Y-93083389D02*
X131666666Y-93178628D01*
X131666666Y-93178628D02*
X131571428Y-93226247D01*
X131571428Y-93226247D02*
X131476190Y-93226247D01*
X130761904Y-93178628D02*
X130857142Y-93226247D01*
X130857142Y-93226247D02*
X131047618Y-93226247D01*
X131047618Y-93226247D02*
X131142856Y-93178628D01*
X131142856Y-93178628D02*
X131190475Y-93083389D01*
X131190475Y-93083389D02*
X131190475Y-92702437D01*
X131190475Y-92702437D02*
X131142856Y-92607199D01*
X131142856Y-92607199D02*
X131047618Y-92559580D01*
X131047618Y-92559580D02*
X130857142Y-92559580D01*
X130857142Y-92559580D02*
X130761904Y-92607199D01*
X130761904Y-92607199D02*
X130714285Y-92702437D01*
X130714285Y-92702437D02*
X130714285Y-92797675D01*
X130714285Y-92797675D02*
X131190475Y-92892913D01*
X130285713Y-93226247D02*
X130285713Y-92559580D01*
X130285713Y-92750056D02*
X130238094Y-92654818D01*
X130238094Y-92654818D02*
X130190475Y-92607199D01*
X130190475Y-92607199D02*
X130095237Y-92559580D01*
X130095237Y-92559580D02*
X129999999Y-92559580D01*
X128095236Y-93226247D02*
X128142856Y-93226247D01*
X128142856Y-93226247D02*
X128238094Y-93178628D01*
X128238094Y-93178628D02*
X128380951Y-93035770D01*
X128380951Y-93035770D02*
X128619046Y-92750056D01*
X128619046Y-92750056D02*
X128714284Y-92607199D01*
X128714284Y-92607199D02*
X128761903Y-92464342D01*
X128761903Y-92464342D02*
X128761903Y-92369104D01*
X128761903Y-92369104D02*
X128714284Y-92273866D01*
X128714284Y-92273866D02*
X128619046Y-92226247D01*
X128619046Y-92226247D02*
X128571427Y-92226247D01*
X128571427Y-92226247D02*
X128476189Y-92273866D01*
X128476189Y-92273866D02*
X128428570Y-92369104D01*
X128428570Y-92369104D02*
X128428570Y-92416723D01*
X128428570Y-92416723D02*
X128476189Y-92511961D01*
X128476189Y-92511961D02*
X128523808Y-92559580D01*
X128523808Y-92559580D02*
X128809522Y-92750056D01*
X128809522Y-92750056D02*
X128857141Y-92797675D01*
X128857141Y-92797675D02*
X128904760Y-92892913D01*
X128904760Y-92892913D02*
X128904760Y-93035770D01*
X128904760Y-93035770D02*
X128857141Y-93131008D01*
X128857141Y-93131008D02*
X128809522Y-93178628D01*
X128809522Y-93178628D02*
X128714284Y-93226247D01*
X128714284Y-93226247D02*
X128571427Y-93226247D01*
X128571427Y-93226247D02*
X128476189Y-93178628D01*
X128476189Y-93178628D02*
X128428570Y-93131008D01*
X128428570Y-93131008D02*
X128285713Y-92940532D01*
X128285713Y-92940532D02*
X128238094Y-92797675D01*
X128238094Y-92797675D02*
X128238094Y-92702437D01*
X126380951Y-92273866D02*
X126476189Y-92226247D01*
X126476189Y-92226247D02*
X126619046Y-92226247D01*
X126619046Y-92226247D02*
X126761903Y-92273866D01*
X126761903Y-92273866D02*
X126857141Y-92369104D01*
X126857141Y-92369104D02*
X126904760Y-92464342D01*
X126904760Y-92464342D02*
X126952379Y-92654818D01*
X126952379Y-92654818D02*
X126952379Y-92797675D01*
X126952379Y-92797675D02*
X126904760Y-92988151D01*
X126904760Y-92988151D02*
X126857141Y-93083389D01*
X126857141Y-93083389D02*
X126761903Y-93178628D01*
X126761903Y-93178628D02*
X126619046Y-93226247D01*
X126619046Y-93226247D02*
X126523808Y-93226247D01*
X126523808Y-93226247D02*
X126380951Y-93178628D01*
X126380951Y-93178628D02*
X126333332Y-93131008D01*
X126333332Y-93131008D02*
X126333332Y-92797675D01*
X126333332Y-92797675D02*
X126523808Y-92797675D01*
X125999998Y-92559580D02*
X125761903Y-93226247D01*
X125523808Y-92559580D02*
X125761903Y-93226247D01*
X125761903Y-93226247D02*
X125857141Y-93464342D01*
X125857141Y-93464342D02*
X125904760Y-93511961D01*
X125904760Y-93511961D02*
X125999998Y-93559580D01*
X125142855Y-93226247D02*
X125142855Y-92559580D01*
X125142855Y-92750056D02*
X125095236Y-92654818D01*
X125095236Y-92654818D02*
X125047617Y-92607199D01*
X125047617Y-92607199D02*
X124952379Y-92559580D01*
X124952379Y-92559580D02*
X124857141Y-92559580D01*
X124380950Y-93226247D02*
X124476188Y-93178628D01*
X124476188Y-93178628D02*
X124523807Y-93131008D01*
X124523807Y-93131008D02*
X124571426Y-93035770D01*
X124571426Y-93035770D02*
X124571426Y-92750056D01*
X124571426Y-92750056D02*
X124523807Y-92654818D01*
X124523807Y-92654818D02*
X124476188Y-92607199D01*
X124476188Y-92607199D02*
X124380950Y-92559580D01*
X124380950Y-92559580D02*
X124238093Y-92559580D01*
X124238093Y-92559580D02*
X124142855Y-92607199D01*
X124142855Y-92607199D02*
X124095236Y-92654818D01*
X124095236Y-92654818D02*
X124047617Y-92750056D01*
X124047617Y-92750056D02*
X124047617Y-93035770D01*
X124047617Y-93035770D02*
X124095236Y-93131008D01*
X124095236Y-93131008D02*
X124142855Y-93178628D01*
X124142855Y-93178628D02*
X124238093Y-93226247D01*
X124238093Y-93226247D02*
X124380950Y-93226247D01*
X123666664Y-93178628D02*
X123571426Y-93226247D01*
X123571426Y-93226247D02*
X123380950Y-93226247D01*
X123380950Y-93226247D02*
X123285712Y-93178628D01*
X123285712Y-93178628D02*
X123238093Y-93083389D01*
X123238093Y-93083389D02*
X123238093Y-93035770D01*
X123238093Y-93035770D02*
X123285712Y-92940532D01*
X123285712Y-92940532D02*
X123380950Y-92892913D01*
X123380950Y-92892913D02*
X123523807Y-92892913D01*
X123523807Y-92892913D02*
X123619045Y-92845294D01*
X123619045Y-92845294D02*
X123666664Y-92750056D01*
X123666664Y-92750056D02*
X123666664Y-92702437D01*
X123666664Y-92702437D02*
X123619045Y-92607199D01*
X123619045Y-92607199D02*
X123523807Y-92559580D01*
X123523807Y-92559580D02*
X123380950Y-92559580D01*
X123380950Y-92559580D02*
X123285712Y-92607199D01*
X122380950Y-93178628D02*
X122476188Y-93226247D01*
X122476188Y-93226247D02*
X122666664Y-93226247D01*
X122666664Y-93226247D02*
X122761902Y-93178628D01*
X122761902Y-93178628D02*
X122809521Y-93131008D01*
X122809521Y-93131008D02*
X122857140Y-93035770D01*
X122857140Y-93035770D02*
X122857140Y-92750056D01*
X122857140Y-92750056D02*
X122809521Y-92654818D01*
X122809521Y-92654818D02*
X122761902Y-92607199D01*
X122761902Y-92607199D02*
X122666664Y-92559580D01*
X122666664Y-92559580D02*
X122476188Y-92559580D01*
X122476188Y-92559580D02*
X122380950Y-92607199D01*
X121809521Y-93226247D02*
X121904759Y-93178628D01*
X121904759Y-93178628D02*
X121952378Y-93131008D01*
X121952378Y-93131008D02*
X121999997Y-93035770D01*
X121999997Y-93035770D02*
X121999997Y-92750056D01*
X121999997Y-92750056D02*
X121952378Y-92654818D01*
X121952378Y-92654818D02*
X121904759Y-92607199D01*
X121904759Y-92607199D02*
X121809521Y-92559580D01*
X121809521Y-92559580D02*
X121666664Y-92559580D01*
X121666664Y-92559580D02*
X121571426Y-92607199D01*
X121571426Y-92607199D02*
X121523807Y-92654818D01*
X121523807Y-92654818D02*
X121476188Y-92750056D01*
X121476188Y-92750056D02*
X121476188Y-93035770D01*
X121476188Y-93035770D02*
X121523807Y-93131008D01*
X121523807Y-93131008D02*
X121571426Y-93178628D01*
X121571426Y-93178628D02*
X121666664Y-93226247D01*
X121666664Y-93226247D02*
X121809521Y-93226247D01*
X121047616Y-92559580D02*
X121047616Y-93559580D01*
X121047616Y-92607199D02*
X120952378Y-92559580D01*
X120952378Y-92559580D02*
X120761902Y-92559580D01*
X120761902Y-92559580D02*
X120666664Y-92607199D01*
X120666664Y-92607199D02*
X120619045Y-92654818D01*
X120619045Y-92654818D02*
X120571426Y-92750056D01*
X120571426Y-92750056D02*
X120571426Y-93035770D01*
X120571426Y-93035770D02*
X120619045Y-93131008D01*
X120619045Y-93131008D02*
X120666664Y-93178628D01*
X120666664Y-93178628D02*
X120761902Y-93226247D01*
X120761902Y-93226247D02*
X120952378Y-93226247D01*
X120952378Y-93226247D02*
X121047616Y-93178628D01*
X119761902Y-93178628D02*
X119857140Y-93226247D01*
X119857140Y-93226247D02*
X120047616Y-93226247D01*
X120047616Y-93226247D02*
X120142854Y-93178628D01*
X120142854Y-93178628D02*
X120190473Y-93083389D01*
X120190473Y-93083389D02*
X120190473Y-92702437D01*
X120190473Y-92702437D02*
X120142854Y-92607199D01*
X120142854Y-92607199D02*
X120047616Y-92559580D01*
X120047616Y-92559580D02*
X119857140Y-92559580D01*
X119857140Y-92559580D02*
X119761902Y-92607199D01*
X119761902Y-92607199D02*
X119714283Y-92702437D01*
X119714283Y-92702437D02*
X119714283Y-92797675D01*
X119714283Y-92797675D02*
X120190473Y-92892913D01*
X143619047Y-94836191D02*
X143619047Y-93836191D01*
X142571429Y-94740952D02*
X142619048Y-94788572D01*
X142619048Y-94788572D02*
X142761905Y-94836191D01*
X142761905Y-94836191D02*
X142857143Y-94836191D01*
X142857143Y-94836191D02*
X143000000Y-94788572D01*
X143000000Y-94788572D02*
X143095238Y-94693333D01*
X143095238Y-94693333D02*
X143142857Y-94598095D01*
X143142857Y-94598095D02*
X143190476Y-94407619D01*
X143190476Y-94407619D02*
X143190476Y-94264762D01*
X143190476Y-94264762D02*
X143142857Y-94074286D01*
X143142857Y-94074286D02*
X143095238Y-93979048D01*
X143095238Y-93979048D02*
X143000000Y-93883810D01*
X143000000Y-93883810D02*
X142857143Y-93836191D01*
X142857143Y-93836191D02*
X142761905Y-93836191D01*
X142761905Y-93836191D02*
X142619048Y-93883810D01*
X142619048Y-93883810D02*
X142571429Y-93931429D01*
X142142857Y-94836191D02*
X142142857Y-93836191D01*
X142142857Y-93836191D02*
X141809524Y-94550476D01*
X141809524Y-94550476D02*
X141476191Y-93836191D01*
X141476191Y-93836191D02*
X141476191Y-94836191D01*
X141000000Y-94455238D02*
X140238096Y-94455238D01*
X139333334Y-94169524D02*
X139333334Y-94836191D01*
X139571429Y-93788572D02*
X139809524Y-94502857D01*
X139809524Y-94502857D02*
X139190477Y-94502857D01*
X138857143Y-93931429D02*
X138809524Y-93883810D01*
X138809524Y-93883810D02*
X138714286Y-93836191D01*
X138714286Y-93836191D02*
X138476191Y-93836191D01*
X138476191Y-93836191D02*
X138380953Y-93883810D01*
X138380953Y-93883810D02*
X138333334Y-93931429D01*
X138333334Y-93931429D02*
X138285715Y-94026667D01*
X138285715Y-94026667D02*
X138285715Y-94121905D01*
X138285715Y-94121905D02*
X138333334Y-94264762D01*
X138333334Y-94264762D02*
X138904762Y-94836191D01*
X138904762Y-94836191D02*
X138285715Y-94836191D01*
X137428572Y-93836191D02*
X137619048Y-93836191D01*
X137619048Y-93836191D02*
X137714286Y-93883810D01*
X137714286Y-93883810D02*
X137761905Y-93931429D01*
X137761905Y-93931429D02*
X137857143Y-94074286D01*
X137857143Y-94074286D02*
X137904762Y-94264762D01*
X137904762Y-94264762D02*
X137904762Y-94645714D01*
X137904762Y-94645714D02*
X137857143Y-94740952D01*
X137857143Y-94740952D02*
X137809524Y-94788572D01*
X137809524Y-94788572D02*
X137714286Y-94836191D01*
X137714286Y-94836191D02*
X137523810Y-94836191D01*
X137523810Y-94836191D02*
X137428572Y-94788572D01*
X137428572Y-94788572D02*
X137380953Y-94740952D01*
X137380953Y-94740952D02*
X137333334Y-94645714D01*
X137333334Y-94645714D02*
X137333334Y-94407619D01*
X137333334Y-94407619D02*
X137380953Y-94312381D01*
X137380953Y-94312381D02*
X137428572Y-94264762D01*
X137428572Y-94264762D02*
X137523810Y-94217143D01*
X137523810Y-94217143D02*
X137714286Y-94217143D01*
X137714286Y-94217143D02*
X137809524Y-94264762D01*
X137809524Y-94264762D02*
X137857143Y-94312381D01*
X137857143Y-94312381D02*
X137904762Y-94407619D01*
X136761905Y-94264762D02*
X136857143Y-94217143D01*
X136857143Y-94217143D02*
X136904762Y-94169524D01*
X136904762Y-94169524D02*
X136952381Y-94074286D01*
X136952381Y-94074286D02*
X136952381Y-94026667D01*
X136952381Y-94026667D02*
X136904762Y-93931429D01*
X136904762Y-93931429D02*
X136857143Y-93883810D01*
X136857143Y-93883810D02*
X136761905Y-93836191D01*
X136761905Y-93836191D02*
X136571429Y-93836191D01*
X136571429Y-93836191D02*
X136476191Y-93883810D01*
X136476191Y-93883810D02*
X136428572Y-93931429D01*
X136428572Y-93931429D02*
X136380953Y-94026667D01*
X136380953Y-94026667D02*
X136380953Y-94074286D01*
X136380953Y-94074286D02*
X136428572Y-94169524D01*
X136428572Y-94169524D02*
X136476191Y-94217143D01*
X136476191Y-94217143D02*
X136571429Y-94264762D01*
X136571429Y-94264762D02*
X136761905Y-94264762D01*
X136761905Y-94264762D02*
X136857143Y-94312381D01*
X136857143Y-94312381D02*
X136904762Y-94360000D01*
X136904762Y-94360000D02*
X136952381Y-94455238D01*
X136952381Y-94455238D02*
X136952381Y-94645714D01*
X136952381Y-94645714D02*
X136904762Y-94740952D01*
X136904762Y-94740952D02*
X136857143Y-94788572D01*
X136857143Y-94788572D02*
X136761905Y-94836191D01*
X136761905Y-94836191D02*
X136571429Y-94836191D01*
X136571429Y-94836191D02*
X136476191Y-94788572D01*
X136476191Y-94788572D02*
X136428572Y-94740952D01*
X136428572Y-94740952D02*
X136380953Y-94645714D01*
X136380953Y-94645714D02*
X136380953Y-94455238D01*
X136380953Y-94455238D02*
X136428572Y-94360000D01*
X136428572Y-94360000D02*
X136476191Y-94312381D01*
X136476191Y-94312381D02*
X136571429Y-94264762D01*
X135809524Y-94264762D02*
X135904762Y-94217143D01*
X135904762Y-94217143D02*
X135952381Y-94169524D01*
X135952381Y-94169524D02*
X136000000Y-94074286D01*
X136000000Y-94074286D02*
X136000000Y-94026667D01*
X136000000Y-94026667D02*
X135952381Y-93931429D01*
X135952381Y-93931429D02*
X135904762Y-93883810D01*
X135904762Y-93883810D02*
X135809524Y-93836191D01*
X135809524Y-93836191D02*
X135619048Y-93836191D01*
X135619048Y-93836191D02*
X135523810Y-93883810D01*
X135523810Y-93883810D02*
X135476191Y-93931429D01*
X135476191Y-93931429D02*
X135428572Y-94026667D01*
X135428572Y-94026667D02*
X135428572Y-94074286D01*
X135428572Y-94074286D02*
X135476191Y-94169524D01*
X135476191Y-94169524D02*
X135523810Y-94217143D01*
X135523810Y-94217143D02*
X135619048Y-94264762D01*
X135619048Y-94264762D02*
X135809524Y-94264762D01*
X135809524Y-94264762D02*
X135904762Y-94312381D01*
X135904762Y-94312381D02*
X135952381Y-94360000D01*
X135952381Y-94360000D02*
X136000000Y-94455238D01*
X136000000Y-94455238D02*
X136000000Y-94645714D01*
X136000000Y-94645714D02*
X135952381Y-94740952D01*
X135952381Y-94740952D02*
X135904762Y-94788572D01*
X135904762Y-94788572D02*
X135809524Y-94836191D01*
X135809524Y-94836191D02*
X135619048Y-94836191D01*
X135619048Y-94836191D02*
X135523810Y-94788572D01*
X135523810Y-94788572D02*
X135476191Y-94740952D01*
X135476191Y-94740952D02*
X135428572Y-94645714D01*
X135428572Y-94645714D02*
X135428572Y-94455238D01*
X135428572Y-94455238D02*
X135476191Y-94360000D01*
X135476191Y-94360000D02*
X135523810Y-94312381D01*
X135523810Y-94312381D02*
X135619048Y-94264762D01*
X134285714Y-94788572D02*
X134142857Y-94836191D01*
X134142857Y-94836191D02*
X133904762Y-94836191D01*
X133904762Y-94836191D02*
X133809524Y-94788572D01*
X133809524Y-94788572D02*
X133761905Y-94740952D01*
X133761905Y-94740952D02*
X133714286Y-94645714D01*
X133714286Y-94645714D02*
X133714286Y-94550476D01*
X133714286Y-94550476D02*
X133761905Y-94455238D01*
X133761905Y-94455238D02*
X133809524Y-94407619D01*
X133809524Y-94407619D02*
X133904762Y-94360000D01*
X133904762Y-94360000D02*
X134095238Y-94312381D01*
X134095238Y-94312381D02*
X134190476Y-94264762D01*
X134190476Y-94264762D02*
X134238095Y-94217143D01*
X134238095Y-94217143D02*
X134285714Y-94121905D01*
X134285714Y-94121905D02*
X134285714Y-94026667D01*
X134285714Y-94026667D02*
X134238095Y-93931429D01*
X134238095Y-93931429D02*
X134190476Y-93883810D01*
X134190476Y-93883810D02*
X134095238Y-93836191D01*
X134095238Y-93836191D02*
X133857143Y-93836191D01*
X133857143Y-93836191D02*
X133714286Y-93883810D01*
X133285714Y-94836191D02*
X133285714Y-93836191D01*
X133285714Y-93836191D02*
X132904762Y-93836191D01*
X132904762Y-93836191D02*
X132809524Y-93883810D01*
X132809524Y-93883810D02*
X132761905Y-93931429D01*
X132761905Y-93931429D02*
X132714286Y-94026667D01*
X132714286Y-94026667D02*
X132714286Y-94169524D01*
X132714286Y-94169524D02*
X132761905Y-94264762D01*
X132761905Y-94264762D02*
X132809524Y-94312381D01*
X132809524Y-94312381D02*
X132904762Y-94360000D01*
X132904762Y-94360000D02*
X133285714Y-94360000D01*
X132285714Y-94836191D02*
X132285714Y-93836191D01*
X131095239Y-93788572D02*
X131952381Y-95074286D01*
X130761905Y-94836191D02*
X130761905Y-93836191D01*
X130333334Y-93931429D02*
X130285715Y-93883810D01*
X130285715Y-93883810D02*
X130190477Y-93836191D01*
X130190477Y-93836191D02*
X129952382Y-93836191D01*
X129952382Y-93836191D02*
X129857144Y-93883810D01*
X129857144Y-93883810D02*
X129809525Y-93931429D01*
X129809525Y-93931429D02*
X129761906Y-94026667D01*
X129761906Y-94026667D02*
X129761906Y-94121905D01*
X129761906Y-94121905D02*
X129809525Y-94264762D01*
X129809525Y-94264762D02*
X130380953Y-94836191D01*
X130380953Y-94836191D02*
X129761906Y-94836191D01*
X128761906Y-94740952D02*
X128809525Y-94788572D01*
X128809525Y-94788572D02*
X128952382Y-94836191D01*
X128952382Y-94836191D02*
X129047620Y-94836191D01*
X129047620Y-94836191D02*
X129190477Y-94788572D01*
X129190477Y-94788572D02*
X129285715Y-94693333D01*
X129285715Y-94693333D02*
X129333334Y-94598095D01*
X129333334Y-94598095D02*
X129380953Y-94407619D01*
X129380953Y-94407619D02*
X129380953Y-94264762D01*
X129380953Y-94264762D02*
X129333334Y-94074286D01*
X129333334Y-94074286D02*
X129285715Y-93979048D01*
X129285715Y-93979048D02*
X129190477Y-93883810D01*
X129190477Y-93883810D02*
X129047620Y-93836191D01*
X129047620Y-93836191D02*
X128952382Y-93836191D01*
X128952382Y-93836191D02*
X128809525Y-93883810D01*
X128809525Y-93883810D02*
X128761906Y-93931429D01*
X127238096Y-94312381D02*
X127095239Y-94360000D01*
X127095239Y-94360000D02*
X127047620Y-94407619D01*
X127047620Y-94407619D02*
X127000001Y-94502857D01*
X127000001Y-94502857D02*
X127000001Y-94645714D01*
X127000001Y-94645714D02*
X127047620Y-94740952D01*
X127047620Y-94740952D02*
X127095239Y-94788572D01*
X127095239Y-94788572D02*
X127190477Y-94836191D01*
X127190477Y-94836191D02*
X127571429Y-94836191D01*
X127571429Y-94836191D02*
X127571429Y-93836191D01*
X127571429Y-93836191D02*
X127238096Y-93836191D01*
X127238096Y-93836191D02*
X127142858Y-93883810D01*
X127142858Y-93883810D02*
X127095239Y-93931429D01*
X127095239Y-93931429D02*
X127047620Y-94026667D01*
X127047620Y-94026667D02*
X127047620Y-94121905D01*
X127047620Y-94121905D02*
X127095239Y-94217143D01*
X127095239Y-94217143D02*
X127142858Y-94264762D01*
X127142858Y-94264762D02*
X127238096Y-94312381D01*
X127238096Y-94312381D02*
X127571429Y-94312381D01*
X126571429Y-94836191D02*
X126571429Y-94169524D01*
X126571429Y-94360000D02*
X126523810Y-94264762D01*
X126523810Y-94264762D02*
X126476191Y-94217143D01*
X126476191Y-94217143D02*
X126380953Y-94169524D01*
X126380953Y-94169524D02*
X126285715Y-94169524D01*
X125571429Y-94788572D02*
X125666667Y-94836191D01*
X125666667Y-94836191D02*
X125857143Y-94836191D01*
X125857143Y-94836191D02*
X125952381Y-94788572D01*
X125952381Y-94788572D02*
X126000000Y-94693333D01*
X126000000Y-94693333D02*
X126000000Y-94312381D01*
X126000000Y-94312381D02*
X125952381Y-94217143D01*
X125952381Y-94217143D02*
X125857143Y-94169524D01*
X125857143Y-94169524D02*
X125666667Y-94169524D01*
X125666667Y-94169524D02*
X125571429Y-94217143D01*
X125571429Y-94217143D02*
X125523810Y-94312381D01*
X125523810Y-94312381D02*
X125523810Y-94407619D01*
X125523810Y-94407619D02*
X126000000Y-94502857D01*
X124666667Y-94836191D02*
X124666667Y-94312381D01*
X124666667Y-94312381D02*
X124714286Y-94217143D01*
X124714286Y-94217143D02*
X124809524Y-94169524D01*
X124809524Y-94169524D02*
X125000000Y-94169524D01*
X125000000Y-94169524D02*
X125095238Y-94217143D01*
X124666667Y-94788572D02*
X124761905Y-94836191D01*
X124761905Y-94836191D02*
X125000000Y-94836191D01*
X125000000Y-94836191D02*
X125095238Y-94788572D01*
X125095238Y-94788572D02*
X125142857Y-94693333D01*
X125142857Y-94693333D02*
X125142857Y-94598095D01*
X125142857Y-94598095D02*
X125095238Y-94502857D01*
X125095238Y-94502857D02*
X125000000Y-94455238D01*
X125000000Y-94455238D02*
X124761905Y-94455238D01*
X124761905Y-94455238D02*
X124666667Y-94407619D01*
X124190476Y-94836191D02*
X124190476Y-93836191D01*
X124095238Y-94455238D02*
X123809524Y-94836191D01*
X123809524Y-94169524D02*
X124190476Y-94550476D01*
X123238095Y-94836191D02*
X123333333Y-94788572D01*
X123333333Y-94788572D02*
X123380952Y-94740952D01*
X123380952Y-94740952D02*
X123428571Y-94645714D01*
X123428571Y-94645714D02*
X123428571Y-94360000D01*
X123428571Y-94360000D02*
X123380952Y-94264762D01*
X123380952Y-94264762D02*
X123333333Y-94217143D01*
X123333333Y-94217143D02*
X123238095Y-94169524D01*
X123238095Y-94169524D02*
X123095238Y-94169524D01*
X123095238Y-94169524D02*
X123000000Y-94217143D01*
X123000000Y-94217143D02*
X122952381Y-94264762D01*
X122952381Y-94264762D02*
X122904762Y-94360000D01*
X122904762Y-94360000D02*
X122904762Y-94645714D01*
X122904762Y-94645714D02*
X122952381Y-94740952D01*
X122952381Y-94740952D02*
X123000000Y-94788572D01*
X123000000Y-94788572D02*
X123095238Y-94836191D01*
X123095238Y-94836191D02*
X123238095Y-94836191D01*
X122047619Y-94169524D02*
X122047619Y-94836191D01*
X122476190Y-94169524D02*
X122476190Y-94693333D01*
X122476190Y-94693333D02*
X122428571Y-94788572D01*
X122428571Y-94788572D02*
X122333333Y-94836191D01*
X122333333Y-94836191D02*
X122190476Y-94836191D01*
X122190476Y-94836191D02*
X122095238Y-94788572D01*
X122095238Y-94788572D02*
X122047619Y-94740952D01*
X121714285Y-94169524D02*
X121333333Y-94169524D01*
X121571428Y-93836191D02*
X121571428Y-94693333D01*
X121571428Y-94693333D02*
X121523809Y-94788572D01*
X121523809Y-94788572D02*
X121428571Y-94836191D01*
X121428571Y-94836191D02*
X121333333Y-94836191D01*
X119904761Y-94312381D02*
X119761904Y-94360000D01*
X119761904Y-94360000D02*
X119714285Y-94407619D01*
X119714285Y-94407619D02*
X119666666Y-94502857D01*
X119666666Y-94502857D02*
X119666666Y-94645714D01*
X119666666Y-94645714D02*
X119714285Y-94740952D01*
X119714285Y-94740952D02*
X119761904Y-94788572D01*
X119761904Y-94788572D02*
X119857142Y-94836191D01*
X119857142Y-94836191D02*
X120238094Y-94836191D01*
X120238094Y-94836191D02*
X120238094Y-93836191D01*
X120238094Y-93836191D02*
X119904761Y-93836191D01*
X119904761Y-93836191D02*
X119809523Y-93883810D01*
X119809523Y-93883810D02*
X119761904Y-93931429D01*
X119761904Y-93931429D02*
X119714285Y-94026667D01*
X119714285Y-94026667D02*
X119714285Y-94121905D01*
X119714285Y-94121905D02*
X119761904Y-94217143D01*
X119761904Y-94217143D02*
X119809523Y-94264762D01*
X119809523Y-94264762D02*
X119904761Y-94312381D01*
X119904761Y-94312381D02*
X120238094Y-94312381D01*
X119095237Y-94836191D02*
X119190475Y-94788572D01*
X119190475Y-94788572D02*
X119238094Y-94740952D01*
X119238094Y-94740952D02*
X119285713Y-94645714D01*
X119285713Y-94645714D02*
X119285713Y-94360000D01*
X119285713Y-94360000D02*
X119238094Y-94264762D01*
X119238094Y-94264762D02*
X119190475Y-94217143D01*
X119190475Y-94217143D02*
X119095237Y-94169524D01*
X119095237Y-94169524D02*
X118952380Y-94169524D01*
X118952380Y-94169524D02*
X118857142Y-94217143D01*
X118857142Y-94217143D02*
X118809523Y-94264762D01*
X118809523Y-94264762D02*
X118761904Y-94360000D01*
X118761904Y-94360000D02*
X118761904Y-94645714D01*
X118761904Y-94645714D02*
X118809523Y-94740952D01*
X118809523Y-94740952D02*
X118857142Y-94788572D01*
X118857142Y-94788572D02*
X118952380Y-94836191D01*
X118952380Y-94836191D02*
X119095237Y-94836191D01*
X117904761Y-94836191D02*
X117904761Y-94312381D01*
X117904761Y-94312381D02*
X117952380Y-94217143D01*
X117952380Y-94217143D02*
X118047618Y-94169524D01*
X118047618Y-94169524D02*
X118238094Y-94169524D01*
X118238094Y-94169524D02*
X118333332Y-94217143D01*
X117904761Y-94788572D02*
X117999999Y-94836191D01*
X117999999Y-94836191D02*
X118238094Y-94836191D01*
X118238094Y-94836191D02*
X118333332Y-94788572D01*
X118333332Y-94788572D02*
X118380951Y-94693333D01*
X118380951Y-94693333D02*
X118380951Y-94598095D01*
X118380951Y-94598095D02*
X118333332Y-94502857D01*
X118333332Y-94502857D02*
X118238094Y-94455238D01*
X118238094Y-94455238D02*
X117999999Y-94455238D01*
X117999999Y-94455238D02*
X117904761Y-94407619D01*
X117428570Y-94836191D02*
X117428570Y-94169524D01*
X117428570Y-94360000D02*
X117380951Y-94264762D01*
X117380951Y-94264762D02*
X117333332Y-94217143D01*
X117333332Y-94217143D02*
X117238094Y-94169524D01*
X117238094Y-94169524D02*
X117142856Y-94169524D01*
X116380951Y-94836191D02*
X116380951Y-93836191D01*
X116380951Y-94788572D02*
X116476189Y-94836191D01*
X116476189Y-94836191D02*
X116666665Y-94836191D01*
X116666665Y-94836191D02*
X116761903Y-94788572D01*
X116761903Y-94788572D02*
X116809522Y-94740952D01*
X116809522Y-94740952D02*
X116857141Y-94645714D01*
X116857141Y-94645714D02*
X116857141Y-94360000D01*
X116857141Y-94360000D02*
X116809522Y-94264762D01*
X116809522Y-94264762D02*
X116761903Y-94217143D01*
X116761903Y-94217143D02*
X116666665Y-94169524D01*
X116666665Y-94169524D02*
X116476189Y-94169524D01*
X116476189Y-94169524D02*
X116380951Y-94217143D01*
X140285715Y-65940532D02*
X139809525Y-65940532D01*
X140380953Y-66226247D02*
X140047620Y-65226247D01*
X140047620Y-65226247D02*
X139714287Y-66226247D01*
X138952382Y-66178628D02*
X139047620Y-66226247D01*
X139047620Y-66226247D02*
X139238096Y-66226247D01*
X139238096Y-66226247D02*
X139333334Y-66178628D01*
X139333334Y-66178628D02*
X139380953Y-66131008D01*
X139380953Y-66131008D02*
X139428572Y-66035770D01*
X139428572Y-66035770D02*
X139428572Y-65750056D01*
X139428572Y-65750056D02*
X139380953Y-65654818D01*
X139380953Y-65654818D02*
X139333334Y-65607199D01*
X139333334Y-65607199D02*
X139238096Y-65559580D01*
X139238096Y-65559580D02*
X139047620Y-65559580D01*
X139047620Y-65559580D02*
X138952382Y-65607199D01*
X138095239Y-66178628D02*
X138190477Y-66226247D01*
X138190477Y-66226247D02*
X138380953Y-66226247D01*
X138380953Y-66226247D02*
X138476191Y-66178628D01*
X138476191Y-66178628D02*
X138523810Y-66131008D01*
X138523810Y-66131008D02*
X138571429Y-66035770D01*
X138571429Y-66035770D02*
X138571429Y-65750056D01*
X138571429Y-65750056D02*
X138523810Y-65654818D01*
X138523810Y-65654818D02*
X138476191Y-65607199D01*
X138476191Y-65607199D02*
X138380953Y-65559580D01*
X138380953Y-65559580D02*
X138190477Y-65559580D01*
X138190477Y-65559580D02*
X138095239Y-65607199D01*
X137285715Y-66178628D02*
X137380953Y-66226247D01*
X137380953Y-66226247D02*
X137571429Y-66226247D01*
X137571429Y-66226247D02*
X137666667Y-66178628D01*
X137666667Y-66178628D02*
X137714286Y-66083389D01*
X137714286Y-66083389D02*
X137714286Y-65702437D01*
X137714286Y-65702437D02*
X137666667Y-65607199D01*
X137666667Y-65607199D02*
X137571429Y-65559580D01*
X137571429Y-65559580D02*
X137380953Y-65559580D01*
X137380953Y-65559580D02*
X137285715Y-65607199D01*
X137285715Y-65607199D02*
X137238096Y-65702437D01*
X137238096Y-65702437D02*
X137238096Y-65797675D01*
X137238096Y-65797675D02*
X137714286Y-65892913D01*
X136666667Y-66226247D02*
X136761905Y-66178628D01*
X136761905Y-66178628D02*
X136809524Y-66083389D01*
X136809524Y-66083389D02*
X136809524Y-65226247D01*
X135904762Y-66178628D02*
X136000000Y-66226247D01*
X136000000Y-66226247D02*
X136190476Y-66226247D01*
X136190476Y-66226247D02*
X136285714Y-66178628D01*
X136285714Y-66178628D02*
X136333333Y-66083389D01*
X136333333Y-66083389D02*
X136333333Y-65702437D01*
X136333333Y-65702437D02*
X136285714Y-65607199D01*
X136285714Y-65607199D02*
X136190476Y-65559580D01*
X136190476Y-65559580D02*
X136000000Y-65559580D01*
X136000000Y-65559580D02*
X135904762Y-65607199D01*
X135904762Y-65607199D02*
X135857143Y-65702437D01*
X135857143Y-65702437D02*
X135857143Y-65797675D01*
X135857143Y-65797675D02*
X136333333Y-65892913D01*
X135428571Y-66226247D02*
X135428571Y-65559580D01*
X135428571Y-65750056D02*
X135380952Y-65654818D01*
X135380952Y-65654818D02*
X135333333Y-65607199D01*
X135333333Y-65607199D02*
X135238095Y-65559580D01*
X135238095Y-65559580D02*
X135142857Y-65559580D01*
X134666666Y-66226247D02*
X134761904Y-66178628D01*
X134761904Y-66178628D02*
X134809523Y-66131008D01*
X134809523Y-66131008D02*
X134857142Y-66035770D01*
X134857142Y-66035770D02*
X134857142Y-65750056D01*
X134857142Y-65750056D02*
X134809523Y-65654818D01*
X134809523Y-65654818D02*
X134761904Y-65607199D01*
X134761904Y-65607199D02*
X134666666Y-65559580D01*
X134666666Y-65559580D02*
X134523809Y-65559580D01*
X134523809Y-65559580D02*
X134428571Y-65607199D01*
X134428571Y-65607199D02*
X134380952Y-65654818D01*
X134380952Y-65654818D02*
X134333333Y-65750056D01*
X134333333Y-65750056D02*
X134333333Y-66035770D01*
X134333333Y-66035770D02*
X134380952Y-66131008D01*
X134380952Y-66131008D02*
X134428571Y-66178628D01*
X134428571Y-66178628D02*
X134523809Y-66226247D01*
X134523809Y-66226247D02*
X134666666Y-66226247D01*
X133904761Y-66226247D02*
X133904761Y-65559580D01*
X133904761Y-65654818D02*
X133857142Y-65607199D01*
X133857142Y-65607199D02*
X133761904Y-65559580D01*
X133761904Y-65559580D02*
X133619047Y-65559580D01*
X133619047Y-65559580D02*
X133523809Y-65607199D01*
X133523809Y-65607199D02*
X133476190Y-65702437D01*
X133476190Y-65702437D02*
X133476190Y-66226247D01*
X133476190Y-65702437D02*
X133428571Y-65607199D01*
X133428571Y-65607199D02*
X133333333Y-65559580D01*
X133333333Y-65559580D02*
X133190476Y-65559580D01*
X133190476Y-65559580D02*
X133095237Y-65607199D01*
X133095237Y-65607199D02*
X133047618Y-65702437D01*
X133047618Y-65702437D02*
X133047618Y-66226247D01*
X132190476Y-66178628D02*
X132285714Y-66226247D01*
X132285714Y-66226247D02*
X132476190Y-66226247D01*
X132476190Y-66226247D02*
X132571428Y-66178628D01*
X132571428Y-66178628D02*
X132619047Y-66083389D01*
X132619047Y-66083389D02*
X132619047Y-65702437D01*
X132619047Y-65702437D02*
X132571428Y-65607199D01*
X132571428Y-65607199D02*
X132476190Y-65559580D01*
X132476190Y-65559580D02*
X132285714Y-65559580D01*
X132285714Y-65559580D02*
X132190476Y-65607199D01*
X132190476Y-65607199D02*
X132142857Y-65702437D01*
X132142857Y-65702437D02*
X132142857Y-65797675D01*
X132142857Y-65797675D02*
X132619047Y-65892913D01*
X131857142Y-65559580D02*
X131476190Y-65559580D01*
X131714285Y-65226247D02*
X131714285Y-66083389D01*
X131714285Y-66083389D02*
X131666666Y-66178628D01*
X131666666Y-66178628D02*
X131571428Y-66226247D01*
X131571428Y-66226247D02*
X131476190Y-66226247D01*
X130761904Y-66178628D02*
X130857142Y-66226247D01*
X130857142Y-66226247D02*
X131047618Y-66226247D01*
X131047618Y-66226247D02*
X131142856Y-66178628D01*
X131142856Y-66178628D02*
X131190475Y-66083389D01*
X131190475Y-66083389D02*
X131190475Y-65702437D01*
X131190475Y-65702437D02*
X131142856Y-65607199D01*
X131142856Y-65607199D02*
X131047618Y-65559580D01*
X131047618Y-65559580D02*
X130857142Y-65559580D01*
X130857142Y-65559580D02*
X130761904Y-65607199D01*
X130761904Y-65607199D02*
X130714285Y-65702437D01*
X130714285Y-65702437D02*
X130714285Y-65797675D01*
X130714285Y-65797675D02*
X131190475Y-65892913D01*
X130285713Y-66226247D02*
X130285713Y-65559580D01*
X130285713Y-65750056D02*
X130238094Y-65654818D01*
X130238094Y-65654818D02*
X130190475Y-65607199D01*
X130190475Y-65607199D02*
X130095237Y-65559580D01*
X130095237Y-65559580D02*
X129999999Y-65559580D01*
X128095236Y-66226247D02*
X128142856Y-66226247D01*
X128142856Y-66226247D02*
X128238094Y-66178628D01*
X128238094Y-66178628D02*
X128380951Y-66035770D01*
X128380951Y-66035770D02*
X128619046Y-65750056D01*
X128619046Y-65750056D02*
X128714284Y-65607199D01*
X128714284Y-65607199D02*
X128761903Y-65464342D01*
X128761903Y-65464342D02*
X128761903Y-65369104D01*
X128761903Y-65369104D02*
X128714284Y-65273866D01*
X128714284Y-65273866D02*
X128619046Y-65226247D01*
X128619046Y-65226247D02*
X128571427Y-65226247D01*
X128571427Y-65226247D02*
X128476189Y-65273866D01*
X128476189Y-65273866D02*
X128428570Y-65369104D01*
X128428570Y-65369104D02*
X128428570Y-65416723D01*
X128428570Y-65416723D02*
X128476189Y-65511961D01*
X128476189Y-65511961D02*
X128523808Y-65559580D01*
X128523808Y-65559580D02*
X128809522Y-65750056D01*
X128809522Y-65750056D02*
X128857141Y-65797675D01*
X128857141Y-65797675D02*
X128904760Y-65892913D01*
X128904760Y-65892913D02*
X128904760Y-66035770D01*
X128904760Y-66035770D02*
X128857141Y-66131008D01*
X128857141Y-66131008D02*
X128809522Y-66178628D01*
X128809522Y-66178628D02*
X128714284Y-66226247D01*
X128714284Y-66226247D02*
X128571427Y-66226247D01*
X128571427Y-66226247D02*
X128476189Y-66178628D01*
X128476189Y-66178628D02*
X128428570Y-66131008D01*
X128428570Y-66131008D02*
X128285713Y-65940532D01*
X128285713Y-65940532D02*
X128238094Y-65797675D01*
X128238094Y-65797675D02*
X128238094Y-65702437D01*
X126380951Y-65273866D02*
X126476189Y-65226247D01*
X126476189Y-65226247D02*
X126619046Y-65226247D01*
X126619046Y-65226247D02*
X126761903Y-65273866D01*
X126761903Y-65273866D02*
X126857141Y-65369104D01*
X126857141Y-65369104D02*
X126904760Y-65464342D01*
X126904760Y-65464342D02*
X126952379Y-65654818D01*
X126952379Y-65654818D02*
X126952379Y-65797675D01*
X126952379Y-65797675D02*
X126904760Y-65988151D01*
X126904760Y-65988151D02*
X126857141Y-66083389D01*
X126857141Y-66083389D02*
X126761903Y-66178628D01*
X126761903Y-66178628D02*
X126619046Y-66226247D01*
X126619046Y-66226247D02*
X126523808Y-66226247D01*
X126523808Y-66226247D02*
X126380951Y-66178628D01*
X126380951Y-66178628D02*
X126333332Y-66131008D01*
X126333332Y-66131008D02*
X126333332Y-65797675D01*
X126333332Y-65797675D02*
X126523808Y-65797675D01*
X125999998Y-65559580D02*
X125761903Y-66226247D01*
X125523808Y-65559580D02*
X125761903Y-66226247D01*
X125761903Y-66226247D02*
X125857141Y-66464342D01*
X125857141Y-66464342D02*
X125904760Y-66511961D01*
X125904760Y-66511961D02*
X125999998Y-66559580D01*
X125142855Y-66226247D02*
X125142855Y-65559580D01*
X125142855Y-65750056D02*
X125095236Y-65654818D01*
X125095236Y-65654818D02*
X125047617Y-65607199D01*
X125047617Y-65607199D02*
X124952379Y-65559580D01*
X124952379Y-65559580D02*
X124857141Y-65559580D01*
X124380950Y-66226247D02*
X124476188Y-66178628D01*
X124476188Y-66178628D02*
X124523807Y-66131008D01*
X124523807Y-66131008D02*
X124571426Y-66035770D01*
X124571426Y-66035770D02*
X124571426Y-65750056D01*
X124571426Y-65750056D02*
X124523807Y-65654818D01*
X124523807Y-65654818D02*
X124476188Y-65607199D01*
X124476188Y-65607199D02*
X124380950Y-65559580D01*
X124380950Y-65559580D02*
X124238093Y-65559580D01*
X124238093Y-65559580D02*
X124142855Y-65607199D01*
X124142855Y-65607199D02*
X124095236Y-65654818D01*
X124095236Y-65654818D02*
X124047617Y-65750056D01*
X124047617Y-65750056D02*
X124047617Y-66035770D01*
X124047617Y-66035770D02*
X124095236Y-66131008D01*
X124095236Y-66131008D02*
X124142855Y-66178628D01*
X124142855Y-66178628D02*
X124238093Y-66226247D01*
X124238093Y-66226247D02*
X124380950Y-66226247D01*
X123666664Y-66178628D02*
X123571426Y-66226247D01*
X123571426Y-66226247D02*
X123380950Y-66226247D01*
X123380950Y-66226247D02*
X123285712Y-66178628D01*
X123285712Y-66178628D02*
X123238093Y-66083389D01*
X123238093Y-66083389D02*
X123238093Y-66035770D01*
X123238093Y-66035770D02*
X123285712Y-65940532D01*
X123285712Y-65940532D02*
X123380950Y-65892913D01*
X123380950Y-65892913D02*
X123523807Y-65892913D01*
X123523807Y-65892913D02*
X123619045Y-65845294D01*
X123619045Y-65845294D02*
X123666664Y-65750056D01*
X123666664Y-65750056D02*
X123666664Y-65702437D01*
X123666664Y-65702437D02*
X123619045Y-65607199D01*
X123619045Y-65607199D02*
X123523807Y-65559580D01*
X123523807Y-65559580D02*
X123380950Y-65559580D01*
X123380950Y-65559580D02*
X123285712Y-65607199D01*
X122380950Y-66178628D02*
X122476188Y-66226247D01*
X122476188Y-66226247D02*
X122666664Y-66226247D01*
X122666664Y-66226247D02*
X122761902Y-66178628D01*
X122761902Y-66178628D02*
X122809521Y-66131008D01*
X122809521Y-66131008D02*
X122857140Y-66035770D01*
X122857140Y-66035770D02*
X122857140Y-65750056D01*
X122857140Y-65750056D02*
X122809521Y-65654818D01*
X122809521Y-65654818D02*
X122761902Y-65607199D01*
X122761902Y-65607199D02*
X122666664Y-65559580D01*
X122666664Y-65559580D02*
X122476188Y-65559580D01*
X122476188Y-65559580D02*
X122380950Y-65607199D01*
X121809521Y-66226247D02*
X121904759Y-66178628D01*
X121904759Y-66178628D02*
X121952378Y-66131008D01*
X121952378Y-66131008D02*
X121999997Y-66035770D01*
X121999997Y-66035770D02*
X121999997Y-65750056D01*
X121999997Y-65750056D02*
X121952378Y-65654818D01*
X121952378Y-65654818D02*
X121904759Y-65607199D01*
X121904759Y-65607199D02*
X121809521Y-65559580D01*
X121809521Y-65559580D02*
X121666664Y-65559580D01*
X121666664Y-65559580D02*
X121571426Y-65607199D01*
X121571426Y-65607199D02*
X121523807Y-65654818D01*
X121523807Y-65654818D02*
X121476188Y-65750056D01*
X121476188Y-65750056D02*
X121476188Y-66035770D01*
X121476188Y-66035770D02*
X121523807Y-66131008D01*
X121523807Y-66131008D02*
X121571426Y-66178628D01*
X121571426Y-66178628D02*
X121666664Y-66226247D01*
X121666664Y-66226247D02*
X121809521Y-66226247D01*
X121047616Y-65559580D02*
X121047616Y-66559580D01*
X121047616Y-65607199D02*
X120952378Y-65559580D01*
X120952378Y-65559580D02*
X120761902Y-65559580D01*
X120761902Y-65559580D02*
X120666664Y-65607199D01*
X120666664Y-65607199D02*
X120619045Y-65654818D01*
X120619045Y-65654818D02*
X120571426Y-65750056D01*
X120571426Y-65750056D02*
X120571426Y-66035770D01*
X120571426Y-66035770D02*
X120619045Y-66131008D01*
X120619045Y-66131008D02*
X120666664Y-66178628D01*
X120666664Y-66178628D02*
X120761902Y-66226247D01*
X120761902Y-66226247D02*
X120952378Y-66226247D01*
X120952378Y-66226247D02*
X121047616Y-66178628D01*
X119761902Y-66178628D02*
X119857140Y-66226247D01*
X119857140Y-66226247D02*
X120047616Y-66226247D01*
X120047616Y-66226247D02*
X120142854Y-66178628D01*
X120142854Y-66178628D02*
X120190473Y-66083389D01*
X120190473Y-66083389D02*
X120190473Y-65702437D01*
X120190473Y-65702437D02*
X120142854Y-65607199D01*
X120142854Y-65607199D02*
X120047616Y-65559580D01*
X120047616Y-65559580D02*
X119857140Y-65559580D01*
X119857140Y-65559580D02*
X119761902Y-65607199D01*
X119761902Y-65607199D02*
X119714283Y-65702437D01*
X119714283Y-65702437D02*
X119714283Y-65797675D01*
X119714283Y-65797675D02*
X120190473Y-65892913D01*
X143619047Y-67836191D02*
X143619047Y-66836191D01*
X142571429Y-67740952D02*
X142619048Y-67788572D01*
X142619048Y-67788572D02*
X142761905Y-67836191D01*
X142761905Y-67836191D02*
X142857143Y-67836191D01*
X142857143Y-67836191D02*
X143000000Y-67788572D01*
X143000000Y-67788572D02*
X143095238Y-67693333D01*
X143095238Y-67693333D02*
X143142857Y-67598095D01*
X143142857Y-67598095D02*
X143190476Y-67407619D01*
X143190476Y-67407619D02*
X143190476Y-67264762D01*
X143190476Y-67264762D02*
X143142857Y-67074286D01*
X143142857Y-67074286D02*
X143095238Y-66979048D01*
X143095238Y-66979048D02*
X143000000Y-66883810D01*
X143000000Y-66883810D02*
X142857143Y-66836191D01*
X142857143Y-66836191D02*
X142761905Y-66836191D01*
X142761905Y-66836191D02*
X142619048Y-66883810D01*
X142619048Y-66883810D02*
X142571429Y-66931429D01*
X142142857Y-67836191D02*
X142142857Y-66836191D01*
X142142857Y-66836191D02*
X141809524Y-67550476D01*
X141809524Y-67550476D02*
X141476191Y-66836191D01*
X141476191Y-66836191D02*
X141476191Y-67836191D01*
X141000000Y-67455238D02*
X140238096Y-67455238D01*
X139333334Y-67169524D02*
X139333334Y-67836191D01*
X139571429Y-66788572D02*
X139809524Y-67502857D01*
X139809524Y-67502857D02*
X139190477Y-67502857D01*
X138857143Y-66931429D02*
X138809524Y-66883810D01*
X138809524Y-66883810D02*
X138714286Y-66836191D01*
X138714286Y-66836191D02*
X138476191Y-66836191D01*
X138476191Y-66836191D02*
X138380953Y-66883810D01*
X138380953Y-66883810D02*
X138333334Y-66931429D01*
X138333334Y-66931429D02*
X138285715Y-67026667D01*
X138285715Y-67026667D02*
X138285715Y-67121905D01*
X138285715Y-67121905D02*
X138333334Y-67264762D01*
X138333334Y-67264762D02*
X138904762Y-67836191D01*
X138904762Y-67836191D02*
X138285715Y-67836191D01*
X137428572Y-66836191D02*
X137619048Y-66836191D01*
X137619048Y-66836191D02*
X137714286Y-66883810D01*
X137714286Y-66883810D02*
X137761905Y-66931429D01*
X137761905Y-66931429D02*
X137857143Y-67074286D01*
X137857143Y-67074286D02*
X137904762Y-67264762D01*
X137904762Y-67264762D02*
X137904762Y-67645714D01*
X137904762Y-67645714D02*
X137857143Y-67740952D01*
X137857143Y-67740952D02*
X137809524Y-67788572D01*
X137809524Y-67788572D02*
X137714286Y-67836191D01*
X137714286Y-67836191D02*
X137523810Y-67836191D01*
X137523810Y-67836191D02*
X137428572Y-67788572D01*
X137428572Y-67788572D02*
X137380953Y-67740952D01*
X137380953Y-67740952D02*
X137333334Y-67645714D01*
X137333334Y-67645714D02*
X137333334Y-67407619D01*
X137333334Y-67407619D02*
X137380953Y-67312381D01*
X137380953Y-67312381D02*
X137428572Y-67264762D01*
X137428572Y-67264762D02*
X137523810Y-67217143D01*
X137523810Y-67217143D02*
X137714286Y-67217143D01*
X137714286Y-67217143D02*
X137809524Y-67264762D01*
X137809524Y-67264762D02*
X137857143Y-67312381D01*
X137857143Y-67312381D02*
X137904762Y-67407619D01*
X136761905Y-67264762D02*
X136857143Y-67217143D01*
X136857143Y-67217143D02*
X136904762Y-67169524D01*
X136904762Y-67169524D02*
X136952381Y-67074286D01*
X136952381Y-67074286D02*
X136952381Y-67026667D01*
X136952381Y-67026667D02*
X136904762Y-66931429D01*
X136904762Y-66931429D02*
X136857143Y-66883810D01*
X136857143Y-66883810D02*
X136761905Y-66836191D01*
X136761905Y-66836191D02*
X136571429Y-66836191D01*
X136571429Y-66836191D02*
X136476191Y-66883810D01*
X136476191Y-66883810D02*
X136428572Y-66931429D01*
X136428572Y-66931429D02*
X136380953Y-67026667D01*
X136380953Y-67026667D02*
X136380953Y-67074286D01*
X136380953Y-67074286D02*
X136428572Y-67169524D01*
X136428572Y-67169524D02*
X136476191Y-67217143D01*
X136476191Y-67217143D02*
X136571429Y-67264762D01*
X136571429Y-67264762D02*
X136761905Y-67264762D01*
X136761905Y-67264762D02*
X136857143Y-67312381D01*
X136857143Y-67312381D02*
X136904762Y-67360000D01*
X136904762Y-67360000D02*
X136952381Y-67455238D01*
X136952381Y-67455238D02*
X136952381Y-67645714D01*
X136952381Y-67645714D02*
X136904762Y-67740952D01*
X136904762Y-67740952D02*
X136857143Y-67788572D01*
X136857143Y-67788572D02*
X136761905Y-67836191D01*
X136761905Y-67836191D02*
X136571429Y-67836191D01*
X136571429Y-67836191D02*
X136476191Y-67788572D01*
X136476191Y-67788572D02*
X136428572Y-67740952D01*
X136428572Y-67740952D02*
X136380953Y-67645714D01*
X136380953Y-67645714D02*
X136380953Y-67455238D01*
X136380953Y-67455238D02*
X136428572Y-67360000D01*
X136428572Y-67360000D02*
X136476191Y-67312381D01*
X136476191Y-67312381D02*
X136571429Y-67264762D01*
X135809524Y-67264762D02*
X135904762Y-67217143D01*
X135904762Y-67217143D02*
X135952381Y-67169524D01*
X135952381Y-67169524D02*
X136000000Y-67074286D01*
X136000000Y-67074286D02*
X136000000Y-67026667D01*
X136000000Y-67026667D02*
X135952381Y-66931429D01*
X135952381Y-66931429D02*
X135904762Y-66883810D01*
X135904762Y-66883810D02*
X135809524Y-66836191D01*
X135809524Y-66836191D02*
X135619048Y-66836191D01*
X135619048Y-66836191D02*
X135523810Y-66883810D01*
X135523810Y-66883810D02*
X135476191Y-66931429D01*
X135476191Y-66931429D02*
X135428572Y-67026667D01*
X135428572Y-67026667D02*
X135428572Y-67074286D01*
X135428572Y-67074286D02*
X135476191Y-67169524D01*
X135476191Y-67169524D02*
X135523810Y-67217143D01*
X135523810Y-67217143D02*
X135619048Y-67264762D01*
X135619048Y-67264762D02*
X135809524Y-67264762D01*
X135809524Y-67264762D02*
X135904762Y-67312381D01*
X135904762Y-67312381D02*
X135952381Y-67360000D01*
X135952381Y-67360000D02*
X136000000Y-67455238D01*
X136000000Y-67455238D02*
X136000000Y-67645714D01*
X136000000Y-67645714D02*
X135952381Y-67740952D01*
X135952381Y-67740952D02*
X135904762Y-67788572D01*
X135904762Y-67788572D02*
X135809524Y-67836191D01*
X135809524Y-67836191D02*
X135619048Y-67836191D01*
X135619048Y-67836191D02*
X135523810Y-67788572D01*
X135523810Y-67788572D02*
X135476191Y-67740952D01*
X135476191Y-67740952D02*
X135428572Y-67645714D01*
X135428572Y-67645714D02*
X135428572Y-67455238D01*
X135428572Y-67455238D02*
X135476191Y-67360000D01*
X135476191Y-67360000D02*
X135523810Y-67312381D01*
X135523810Y-67312381D02*
X135619048Y-67264762D01*
X134285714Y-67788572D02*
X134142857Y-67836191D01*
X134142857Y-67836191D02*
X133904762Y-67836191D01*
X133904762Y-67836191D02*
X133809524Y-67788572D01*
X133809524Y-67788572D02*
X133761905Y-67740952D01*
X133761905Y-67740952D02*
X133714286Y-67645714D01*
X133714286Y-67645714D02*
X133714286Y-67550476D01*
X133714286Y-67550476D02*
X133761905Y-67455238D01*
X133761905Y-67455238D02*
X133809524Y-67407619D01*
X133809524Y-67407619D02*
X133904762Y-67360000D01*
X133904762Y-67360000D02*
X134095238Y-67312381D01*
X134095238Y-67312381D02*
X134190476Y-67264762D01*
X134190476Y-67264762D02*
X134238095Y-67217143D01*
X134238095Y-67217143D02*
X134285714Y-67121905D01*
X134285714Y-67121905D02*
X134285714Y-67026667D01*
X134285714Y-67026667D02*
X134238095Y-66931429D01*
X134238095Y-66931429D02*
X134190476Y-66883810D01*
X134190476Y-66883810D02*
X134095238Y-66836191D01*
X134095238Y-66836191D02*
X133857143Y-66836191D01*
X133857143Y-66836191D02*
X133714286Y-66883810D01*
X133285714Y-67836191D02*
X133285714Y-66836191D01*
X133285714Y-66836191D02*
X132904762Y-66836191D01*
X132904762Y-66836191D02*
X132809524Y-66883810D01*
X132809524Y-66883810D02*
X132761905Y-66931429D01*
X132761905Y-66931429D02*
X132714286Y-67026667D01*
X132714286Y-67026667D02*
X132714286Y-67169524D01*
X132714286Y-67169524D02*
X132761905Y-67264762D01*
X132761905Y-67264762D02*
X132809524Y-67312381D01*
X132809524Y-67312381D02*
X132904762Y-67360000D01*
X132904762Y-67360000D02*
X133285714Y-67360000D01*
X132285714Y-67836191D02*
X132285714Y-66836191D01*
X131095239Y-66788572D02*
X131952381Y-68074286D01*
X130761905Y-67836191D02*
X130761905Y-66836191D01*
X130333334Y-66931429D02*
X130285715Y-66883810D01*
X130285715Y-66883810D02*
X130190477Y-66836191D01*
X130190477Y-66836191D02*
X129952382Y-66836191D01*
X129952382Y-66836191D02*
X129857144Y-66883810D01*
X129857144Y-66883810D02*
X129809525Y-66931429D01*
X129809525Y-66931429D02*
X129761906Y-67026667D01*
X129761906Y-67026667D02*
X129761906Y-67121905D01*
X129761906Y-67121905D02*
X129809525Y-67264762D01*
X129809525Y-67264762D02*
X130380953Y-67836191D01*
X130380953Y-67836191D02*
X129761906Y-67836191D01*
X128761906Y-67740952D02*
X128809525Y-67788572D01*
X128809525Y-67788572D02*
X128952382Y-67836191D01*
X128952382Y-67836191D02*
X129047620Y-67836191D01*
X129047620Y-67836191D02*
X129190477Y-67788572D01*
X129190477Y-67788572D02*
X129285715Y-67693333D01*
X129285715Y-67693333D02*
X129333334Y-67598095D01*
X129333334Y-67598095D02*
X129380953Y-67407619D01*
X129380953Y-67407619D02*
X129380953Y-67264762D01*
X129380953Y-67264762D02*
X129333334Y-67074286D01*
X129333334Y-67074286D02*
X129285715Y-66979048D01*
X129285715Y-66979048D02*
X129190477Y-66883810D01*
X129190477Y-66883810D02*
X129047620Y-66836191D01*
X129047620Y-66836191D02*
X128952382Y-66836191D01*
X128952382Y-66836191D02*
X128809525Y-66883810D01*
X128809525Y-66883810D02*
X128761906Y-66931429D01*
X127238096Y-67312381D02*
X127095239Y-67360000D01*
X127095239Y-67360000D02*
X127047620Y-67407619D01*
X127047620Y-67407619D02*
X127000001Y-67502857D01*
X127000001Y-67502857D02*
X127000001Y-67645714D01*
X127000001Y-67645714D02*
X127047620Y-67740952D01*
X127047620Y-67740952D02*
X127095239Y-67788572D01*
X127095239Y-67788572D02*
X127190477Y-67836191D01*
X127190477Y-67836191D02*
X127571429Y-67836191D01*
X127571429Y-67836191D02*
X127571429Y-66836191D01*
X127571429Y-66836191D02*
X127238096Y-66836191D01*
X127238096Y-66836191D02*
X127142858Y-66883810D01*
X127142858Y-66883810D02*
X127095239Y-66931429D01*
X127095239Y-66931429D02*
X127047620Y-67026667D01*
X127047620Y-67026667D02*
X127047620Y-67121905D01*
X127047620Y-67121905D02*
X127095239Y-67217143D01*
X127095239Y-67217143D02*
X127142858Y-67264762D01*
X127142858Y-67264762D02*
X127238096Y-67312381D01*
X127238096Y-67312381D02*
X127571429Y-67312381D01*
X126571429Y-67836191D02*
X126571429Y-67169524D01*
X126571429Y-67360000D02*
X126523810Y-67264762D01*
X126523810Y-67264762D02*
X126476191Y-67217143D01*
X126476191Y-67217143D02*
X126380953Y-67169524D01*
X126380953Y-67169524D02*
X126285715Y-67169524D01*
X125571429Y-67788572D02*
X125666667Y-67836191D01*
X125666667Y-67836191D02*
X125857143Y-67836191D01*
X125857143Y-67836191D02*
X125952381Y-67788572D01*
X125952381Y-67788572D02*
X126000000Y-67693333D01*
X126000000Y-67693333D02*
X126000000Y-67312381D01*
X126000000Y-67312381D02*
X125952381Y-67217143D01*
X125952381Y-67217143D02*
X125857143Y-67169524D01*
X125857143Y-67169524D02*
X125666667Y-67169524D01*
X125666667Y-67169524D02*
X125571429Y-67217143D01*
X125571429Y-67217143D02*
X125523810Y-67312381D01*
X125523810Y-67312381D02*
X125523810Y-67407619D01*
X125523810Y-67407619D02*
X126000000Y-67502857D01*
X124666667Y-67836191D02*
X124666667Y-67312381D01*
X124666667Y-67312381D02*
X124714286Y-67217143D01*
X124714286Y-67217143D02*
X124809524Y-67169524D01*
X124809524Y-67169524D02*
X125000000Y-67169524D01*
X125000000Y-67169524D02*
X125095238Y-67217143D01*
X124666667Y-67788572D02*
X124761905Y-67836191D01*
X124761905Y-67836191D02*
X125000000Y-67836191D01*
X125000000Y-67836191D02*
X125095238Y-67788572D01*
X125095238Y-67788572D02*
X125142857Y-67693333D01*
X125142857Y-67693333D02*
X125142857Y-67598095D01*
X125142857Y-67598095D02*
X125095238Y-67502857D01*
X125095238Y-67502857D02*
X125000000Y-67455238D01*
X125000000Y-67455238D02*
X124761905Y-67455238D01*
X124761905Y-67455238D02*
X124666667Y-67407619D01*
X124190476Y-67836191D02*
X124190476Y-66836191D01*
X124095238Y-67455238D02*
X123809524Y-67836191D01*
X123809524Y-67169524D02*
X124190476Y-67550476D01*
X123238095Y-67836191D02*
X123333333Y-67788572D01*
X123333333Y-67788572D02*
X123380952Y-67740952D01*
X123380952Y-67740952D02*
X123428571Y-67645714D01*
X123428571Y-67645714D02*
X123428571Y-67360000D01*
X123428571Y-67360000D02*
X123380952Y-67264762D01*
X123380952Y-67264762D02*
X123333333Y-67217143D01*
X123333333Y-67217143D02*
X123238095Y-67169524D01*
X123238095Y-67169524D02*
X123095238Y-67169524D01*
X123095238Y-67169524D02*
X123000000Y-67217143D01*
X123000000Y-67217143D02*
X122952381Y-67264762D01*
X122952381Y-67264762D02*
X122904762Y-67360000D01*
X122904762Y-67360000D02*
X122904762Y-67645714D01*
X122904762Y-67645714D02*
X122952381Y-67740952D01*
X122952381Y-67740952D02*
X123000000Y-67788572D01*
X123000000Y-67788572D02*
X123095238Y-67836191D01*
X123095238Y-67836191D02*
X123238095Y-67836191D01*
X122047619Y-67169524D02*
X122047619Y-67836191D01*
X122476190Y-67169524D02*
X122476190Y-67693333D01*
X122476190Y-67693333D02*
X122428571Y-67788572D01*
X122428571Y-67788572D02*
X122333333Y-67836191D01*
X122333333Y-67836191D02*
X122190476Y-67836191D01*
X122190476Y-67836191D02*
X122095238Y-67788572D01*
X122095238Y-67788572D02*
X122047619Y-67740952D01*
X121714285Y-67169524D02*
X121333333Y-67169524D01*
X121571428Y-66836191D02*
X121571428Y-67693333D01*
X121571428Y-67693333D02*
X121523809Y-67788572D01*
X121523809Y-67788572D02*
X121428571Y-67836191D01*
X121428571Y-67836191D02*
X121333333Y-67836191D01*
X119904761Y-67312381D02*
X119761904Y-67360000D01*
X119761904Y-67360000D02*
X119714285Y-67407619D01*
X119714285Y-67407619D02*
X119666666Y-67502857D01*
X119666666Y-67502857D02*
X119666666Y-67645714D01*
X119666666Y-67645714D02*
X119714285Y-67740952D01*
X119714285Y-67740952D02*
X119761904Y-67788572D01*
X119761904Y-67788572D02*
X119857142Y-67836191D01*
X119857142Y-67836191D02*
X120238094Y-67836191D01*
X120238094Y-67836191D02*
X120238094Y-66836191D01*
X120238094Y-66836191D02*
X119904761Y-66836191D01*
X119904761Y-66836191D02*
X119809523Y-66883810D01*
X119809523Y-66883810D02*
X119761904Y-66931429D01*
X119761904Y-66931429D02*
X119714285Y-67026667D01*
X119714285Y-67026667D02*
X119714285Y-67121905D01*
X119714285Y-67121905D02*
X119761904Y-67217143D01*
X119761904Y-67217143D02*
X119809523Y-67264762D01*
X119809523Y-67264762D02*
X119904761Y-67312381D01*
X119904761Y-67312381D02*
X120238094Y-67312381D01*
X119095237Y-67836191D02*
X119190475Y-67788572D01*
X119190475Y-67788572D02*
X119238094Y-67740952D01*
X119238094Y-67740952D02*
X119285713Y-67645714D01*
X119285713Y-67645714D02*
X119285713Y-67360000D01*
X119285713Y-67360000D02*
X119238094Y-67264762D01*
X119238094Y-67264762D02*
X119190475Y-67217143D01*
X119190475Y-67217143D02*
X119095237Y-67169524D01*
X119095237Y-67169524D02*
X118952380Y-67169524D01*
X118952380Y-67169524D02*
X118857142Y-67217143D01*
X118857142Y-67217143D02*
X118809523Y-67264762D01*
X118809523Y-67264762D02*
X118761904Y-67360000D01*
X118761904Y-67360000D02*
X118761904Y-67645714D01*
X118761904Y-67645714D02*
X118809523Y-67740952D01*
X118809523Y-67740952D02*
X118857142Y-67788572D01*
X118857142Y-67788572D02*
X118952380Y-67836191D01*
X118952380Y-67836191D02*
X119095237Y-67836191D01*
X117904761Y-67836191D02*
X117904761Y-67312381D01*
X117904761Y-67312381D02*
X117952380Y-67217143D01*
X117952380Y-67217143D02*
X118047618Y-67169524D01*
X118047618Y-67169524D02*
X118238094Y-67169524D01*
X118238094Y-67169524D02*
X118333332Y-67217143D01*
X117904761Y-67788572D02*
X117999999Y-67836191D01*
X117999999Y-67836191D02*
X118238094Y-67836191D01*
X118238094Y-67836191D02*
X118333332Y-67788572D01*
X118333332Y-67788572D02*
X118380951Y-67693333D01*
X118380951Y-67693333D02*
X118380951Y-67598095D01*
X118380951Y-67598095D02*
X118333332Y-67502857D01*
X118333332Y-67502857D02*
X118238094Y-67455238D01*
X118238094Y-67455238D02*
X117999999Y-67455238D01*
X117999999Y-67455238D02*
X117904761Y-67407619D01*
X117428570Y-67836191D02*
X117428570Y-67169524D01*
X117428570Y-67360000D02*
X117380951Y-67264762D01*
X117380951Y-67264762D02*
X117333332Y-67217143D01*
X117333332Y-67217143D02*
X117238094Y-67169524D01*
X117238094Y-67169524D02*
X117142856Y-67169524D01*
X116380951Y-67836191D02*
X116380951Y-66836191D01*
X116380951Y-67788572D02*
X116476189Y-67836191D01*
X116476189Y-67836191D02*
X116666665Y-67836191D01*
X116666665Y-67836191D02*
X116761903Y-67788572D01*
X116761903Y-67788572D02*
X116809522Y-67740952D01*
X116809522Y-67740952D02*
X116857141Y-67645714D01*
X116857141Y-67645714D02*
X116857141Y-67360000D01*
X116857141Y-67360000D02*
X116809522Y-67264762D01*
X116809522Y-67264762D02*
X116761903Y-67217143D01*
X116761903Y-67217143D02*
X116666665Y-67169524D01*
X116666665Y-67169524D02*
X116476189Y-67169524D01*
X116476189Y-67169524D02*
X116380951Y-67217143D01*
X177285715Y-38940532D02*
X176809525Y-38940532D01*
X177380953Y-39226247D02*
X177047620Y-38226247D01*
X177047620Y-38226247D02*
X176714287Y-39226247D01*
X175952382Y-39178628D02*
X176047620Y-39226247D01*
X176047620Y-39226247D02*
X176238096Y-39226247D01*
X176238096Y-39226247D02*
X176333334Y-39178628D01*
X176333334Y-39178628D02*
X176380953Y-39131008D01*
X176380953Y-39131008D02*
X176428572Y-39035770D01*
X176428572Y-39035770D02*
X176428572Y-38750056D01*
X176428572Y-38750056D02*
X176380953Y-38654818D01*
X176380953Y-38654818D02*
X176333334Y-38607199D01*
X176333334Y-38607199D02*
X176238096Y-38559580D01*
X176238096Y-38559580D02*
X176047620Y-38559580D01*
X176047620Y-38559580D02*
X175952382Y-38607199D01*
X175095239Y-39178628D02*
X175190477Y-39226247D01*
X175190477Y-39226247D02*
X175380953Y-39226247D01*
X175380953Y-39226247D02*
X175476191Y-39178628D01*
X175476191Y-39178628D02*
X175523810Y-39131008D01*
X175523810Y-39131008D02*
X175571429Y-39035770D01*
X175571429Y-39035770D02*
X175571429Y-38750056D01*
X175571429Y-38750056D02*
X175523810Y-38654818D01*
X175523810Y-38654818D02*
X175476191Y-38607199D01*
X175476191Y-38607199D02*
X175380953Y-38559580D01*
X175380953Y-38559580D02*
X175190477Y-38559580D01*
X175190477Y-38559580D02*
X175095239Y-38607199D01*
X174285715Y-39178628D02*
X174380953Y-39226247D01*
X174380953Y-39226247D02*
X174571429Y-39226247D01*
X174571429Y-39226247D02*
X174666667Y-39178628D01*
X174666667Y-39178628D02*
X174714286Y-39083389D01*
X174714286Y-39083389D02*
X174714286Y-38702437D01*
X174714286Y-38702437D02*
X174666667Y-38607199D01*
X174666667Y-38607199D02*
X174571429Y-38559580D01*
X174571429Y-38559580D02*
X174380953Y-38559580D01*
X174380953Y-38559580D02*
X174285715Y-38607199D01*
X174285715Y-38607199D02*
X174238096Y-38702437D01*
X174238096Y-38702437D02*
X174238096Y-38797675D01*
X174238096Y-38797675D02*
X174714286Y-38892913D01*
X173666667Y-39226247D02*
X173761905Y-39178628D01*
X173761905Y-39178628D02*
X173809524Y-39083389D01*
X173809524Y-39083389D02*
X173809524Y-38226247D01*
X172904762Y-39178628D02*
X173000000Y-39226247D01*
X173000000Y-39226247D02*
X173190476Y-39226247D01*
X173190476Y-39226247D02*
X173285714Y-39178628D01*
X173285714Y-39178628D02*
X173333333Y-39083389D01*
X173333333Y-39083389D02*
X173333333Y-38702437D01*
X173333333Y-38702437D02*
X173285714Y-38607199D01*
X173285714Y-38607199D02*
X173190476Y-38559580D01*
X173190476Y-38559580D02*
X173000000Y-38559580D01*
X173000000Y-38559580D02*
X172904762Y-38607199D01*
X172904762Y-38607199D02*
X172857143Y-38702437D01*
X172857143Y-38702437D02*
X172857143Y-38797675D01*
X172857143Y-38797675D02*
X173333333Y-38892913D01*
X172428571Y-39226247D02*
X172428571Y-38559580D01*
X172428571Y-38750056D02*
X172380952Y-38654818D01*
X172380952Y-38654818D02*
X172333333Y-38607199D01*
X172333333Y-38607199D02*
X172238095Y-38559580D01*
X172238095Y-38559580D02*
X172142857Y-38559580D01*
X171666666Y-39226247D02*
X171761904Y-39178628D01*
X171761904Y-39178628D02*
X171809523Y-39131008D01*
X171809523Y-39131008D02*
X171857142Y-39035770D01*
X171857142Y-39035770D02*
X171857142Y-38750056D01*
X171857142Y-38750056D02*
X171809523Y-38654818D01*
X171809523Y-38654818D02*
X171761904Y-38607199D01*
X171761904Y-38607199D02*
X171666666Y-38559580D01*
X171666666Y-38559580D02*
X171523809Y-38559580D01*
X171523809Y-38559580D02*
X171428571Y-38607199D01*
X171428571Y-38607199D02*
X171380952Y-38654818D01*
X171380952Y-38654818D02*
X171333333Y-38750056D01*
X171333333Y-38750056D02*
X171333333Y-39035770D01*
X171333333Y-39035770D02*
X171380952Y-39131008D01*
X171380952Y-39131008D02*
X171428571Y-39178628D01*
X171428571Y-39178628D02*
X171523809Y-39226247D01*
X171523809Y-39226247D02*
X171666666Y-39226247D01*
X170904761Y-39226247D02*
X170904761Y-38559580D01*
X170904761Y-38654818D02*
X170857142Y-38607199D01*
X170857142Y-38607199D02*
X170761904Y-38559580D01*
X170761904Y-38559580D02*
X170619047Y-38559580D01*
X170619047Y-38559580D02*
X170523809Y-38607199D01*
X170523809Y-38607199D02*
X170476190Y-38702437D01*
X170476190Y-38702437D02*
X170476190Y-39226247D01*
X170476190Y-38702437D02*
X170428571Y-38607199D01*
X170428571Y-38607199D02*
X170333333Y-38559580D01*
X170333333Y-38559580D02*
X170190476Y-38559580D01*
X170190476Y-38559580D02*
X170095237Y-38607199D01*
X170095237Y-38607199D02*
X170047618Y-38702437D01*
X170047618Y-38702437D02*
X170047618Y-39226247D01*
X169190476Y-39178628D02*
X169285714Y-39226247D01*
X169285714Y-39226247D02*
X169476190Y-39226247D01*
X169476190Y-39226247D02*
X169571428Y-39178628D01*
X169571428Y-39178628D02*
X169619047Y-39083389D01*
X169619047Y-39083389D02*
X169619047Y-38702437D01*
X169619047Y-38702437D02*
X169571428Y-38607199D01*
X169571428Y-38607199D02*
X169476190Y-38559580D01*
X169476190Y-38559580D02*
X169285714Y-38559580D01*
X169285714Y-38559580D02*
X169190476Y-38607199D01*
X169190476Y-38607199D02*
X169142857Y-38702437D01*
X169142857Y-38702437D02*
X169142857Y-38797675D01*
X169142857Y-38797675D02*
X169619047Y-38892913D01*
X168857142Y-38559580D02*
X168476190Y-38559580D01*
X168714285Y-38226247D02*
X168714285Y-39083389D01*
X168714285Y-39083389D02*
X168666666Y-39178628D01*
X168666666Y-39178628D02*
X168571428Y-39226247D01*
X168571428Y-39226247D02*
X168476190Y-39226247D01*
X167761904Y-39178628D02*
X167857142Y-39226247D01*
X167857142Y-39226247D02*
X168047618Y-39226247D01*
X168047618Y-39226247D02*
X168142856Y-39178628D01*
X168142856Y-39178628D02*
X168190475Y-39083389D01*
X168190475Y-39083389D02*
X168190475Y-38702437D01*
X168190475Y-38702437D02*
X168142856Y-38607199D01*
X168142856Y-38607199D02*
X168047618Y-38559580D01*
X168047618Y-38559580D02*
X167857142Y-38559580D01*
X167857142Y-38559580D02*
X167761904Y-38607199D01*
X167761904Y-38607199D02*
X167714285Y-38702437D01*
X167714285Y-38702437D02*
X167714285Y-38797675D01*
X167714285Y-38797675D02*
X168190475Y-38892913D01*
X167285713Y-39226247D02*
X167285713Y-38559580D01*
X167285713Y-38750056D02*
X167238094Y-38654818D01*
X167238094Y-38654818D02*
X167190475Y-38607199D01*
X167190475Y-38607199D02*
X167095237Y-38559580D01*
X167095237Y-38559580D02*
X166999999Y-38559580D01*
X165095236Y-39226247D02*
X165142856Y-39226247D01*
X165142856Y-39226247D02*
X165238094Y-39178628D01*
X165238094Y-39178628D02*
X165380951Y-39035770D01*
X165380951Y-39035770D02*
X165619046Y-38750056D01*
X165619046Y-38750056D02*
X165714284Y-38607199D01*
X165714284Y-38607199D02*
X165761903Y-38464342D01*
X165761903Y-38464342D02*
X165761903Y-38369104D01*
X165761903Y-38369104D02*
X165714284Y-38273866D01*
X165714284Y-38273866D02*
X165619046Y-38226247D01*
X165619046Y-38226247D02*
X165571427Y-38226247D01*
X165571427Y-38226247D02*
X165476189Y-38273866D01*
X165476189Y-38273866D02*
X165428570Y-38369104D01*
X165428570Y-38369104D02*
X165428570Y-38416723D01*
X165428570Y-38416723D02*
X165476189Y-38511961D01*
X165476189Y-38511961D02*
X165523808Y-38559580D01*
X165523808Y-38559580D02*
X165809522Y-38750056D01*
X165809522Y-38750056D02*
X165857141Y-38797675D01*
X165857141Y-38797675D02*
X165904760Y-38892913D01*
X165904760Y-38892913D02*
X165904760Y-39035770D01*
X165904760Y-39035770D02*
X165857141Y-39131008D01*
X165857141Y-39131008D02*
X165809522Y-39178628D01*
X165809522Y-39178628D02*
X165714284Y-39226247D01*
X165714284Y-39226247D02*
X165571427Y-39226247D01*
X165571427Y-39226247D02*
X165476189Y-39178628D01*
X165476189Y-39178628D02*
X165428570Y-39131008D01*
X165428570Y-39131008D02*
X165285713Y-38940532D01*
X165285713Y-38940532D02*
X165238094Y-38797675D01*
X165238094Y-38797675D02*
X165238094Y-38702437D01*
X163380951Y-38273866D02*
X163476189Y-38226247D01*
X163476189Y-38226247D02*
X163619046Y-38226247D01*
X163619046Y-38226247D02*
X163761903Y-38273866D01*
X163761903Y-38273866D02*
X163857141Y-38369104D01*
X163857141Y-38369104D02*
X163904760Y-38464342D01*
X163904760Y-38464342D02*
X163952379Y-38654818D01*
X163952379Y-38654818D02*
X163952379Y-38797675D01*
X163952379Y-38797675D02*
X163904760Y-38988151D01*
X163904760Y-38988151D02*
X163857141Y-39083389D01*
X163857141Y-39083389D02*
X163761903Y-39178628D01*
X163761903Y-39178628D02*
X163619046Y-39226247D01*
X163619046Y-39226247D02*
X163523808Y-39226247D01*
X163523808Y-39226247D02*
X163380951Y-39178628D01*
X163380951Y-39178628D02*
X163333332Y-39131008D01*
X163333332Y-39131008D02*
X163333332Y-38797675D01*
X163333332Y-38797675D02*
X163523808Y-38797675D01*
X162999998Y-38559580D02*
X162761903Y-39226247D01*
X162523808Y-38559580D02*
X162761903Y-39226247D01*
X162761903Y-39226247D02*
X162857141Y-39464342D01*
X162857141Y-39464342D02*
X162904760Y-39511961D01*
X162904760Y-39511961D02*
X162999998Y-39559580D01*
X162142855Y-39226247D02*
X162142855Y-38559580D01*
X162142855Y-38750056D02*
X162095236Y-38654818D01*
X162095236Y-38654818D02*
X162047617Y-38607199D01*
X162047617Y-38607199D02*
X161952379Y-38559580D01*
X161952379Y-38559580D02*
X161857141Y-38559580D01*
X161380950Y-39226247D02*
X161476188Y-39178628D01*
X161476188Y-39178628D02*
X161523807Y-39131008D01*
X161523807Y-39131008D02*
X161571426Y-39035770D01*
X161571426Y-39035770D02*
X161571426Y-38750056D01*
X161571426Y-38750056D02*
X161523807Y-38654818D01*
X161523807Y-38654818D02*
X161476188Y-38607199D01*
X161476188Y-38607199D02*
X161380950Y-38559580D01*
X161380950Y-38559580D02*
X161238093Y-38559580D01*
X161238093Y-38559580D02*
X161142855Y-38607199D01*
X161142855Y-38607199D02*
X161095236Y-38654818D01*
X161095236Y-38654818D02*
X161047617Y-38750056D01*
X161047617Y-38750056D02*
X161047617Y-39035770D01*
X161047617Y-39035770D02*
X161095236Y-39131008D01*
X161095236Y-39131008D02*
X161142855Y-39178628D01*
X161142855Y-39178628D02*
X161238093Y-39226247D01*
X161238093Y-39226247D02*
X161380950Y-39226247D01*
X160666664Y-39178628D02*
X160571426Y-39226247D01*
X160571426Y-39226247D02*
X160380950Y-39226247D01*
X160380950Y-39226247D02*
X160285712Y-39178628D01*
X160285712Y-39178628D02*
X160238093Y-39083389D01*
X160238093Y-39083389D02*
X160238093Y-39035770D01*
X160238093Y-39035770D02*
X160285712Y-38940532D01*
X160285712Y-38940532D02*
X160380950Y-38892913D01*
X160380950Y-38892913D02*
X160523807Y-38892913D01*
X160523807Y-38892913D02*
X160619045Y-38845294D01*
X160619045Y-38845294D02*
X160666664Y-38750056D01*
X160666664Y-38750056D02*
X160666664Y-38702437D01*
X160666664Y-38702437D02*
X160619045Y-38607199D01*
X160619045Y-38607199D02*
X160523807Y-38559580D01*
X160523807Y-38559580D02*
X160380950Y-38559580D01*
X160380950Y-38559580D02*
X160285712Y-38607199D01*
X159380950Y-39178628D02*
X159476188Y-39226247D01*
X159476188Y-39226247D02*
X159666664Y-39226247D01*
X159666664Y-39226247D02*
X159761902Y-39178628D01*
X159761902Y-39178628D02*
X159809521Y-39131008D01*
X159809521Y-39131008D02*
X159857140Y-39035770D01*
X159857140Y-39035770D02*
X159857140Y-38750056D01*
X159857140Y-38750056D02*
X159809521Y-38654818D01*
X159809521Y-38654818D02*
X159761902Y-38607199D01*
X159761902Y-38607199D02*
X159666664Y-38559580D01*
X159666664Y-38559580D02*
X159476188Y-38559580D01*
X159476188Y-38559580D02*
X159380950Y-38607199D01*
X158809521Y-39226247D02*
X158904759Y-39178628D01*
X158904759Y-39178628D02*
X158952378Y-39131008D01*
X158952378Y-39131008D02*
X158999997Y-39035770D01*
X158999997Y-39035770D02*
X158999997Y-38750056D01*
X158999997Y-38750056D02*
X158952378Y-38654818D01*
X158952378Y-38654818D02*
X158904759Y-38607199D01*
X158904759Y-38607199D02*
X158809521Y-38559580D01*
X158809521Y-38559580D02*
X158666664Y-38559580D01*
X158666664Y-38559580D02*
X158571426Y-38607199D01*
X158571426Y-38607199D02*
X158523807Y-38654818D01*
X158523807Y-38654818D02*
X158476188Y-38750056D01*
X158476188Y-38750056D02*
X158476188Y-39035770D01*
X158476188Y-39035770D02*
X158523807Y-39131008D01*
X158523807Y-39131008D02*
X158571426Y-39178628D01*
X158571426Y-39178628D02*
X158666664Y-39226247D01*
X158666664Y-39226247D02*
X158809521Y-39226247D01*
X158047616Y-38559580D02*
X158047616Y-39559580D01*
X158047616Y-38607199D02*
X157952378Y-38559580D01*
X157952378Y-38559580D02*
X157761902Y-38559580D01*
X157761902Y-38559580D02*
X157666664Y-38607199D01*
X157666664Y-38607199D02*
X157619045Y-38654818D01*
X157619045Y-38654818D02*
X157571426Y-38750056D01*
X157571426Y-38750056D02*
X157571426Y-39035770D01*
X157571426Y-39035770D02*
X157619045Y-39131008D01*
X157619045Y-39131008D02*
X157666664Y-39178628D01*
X157666664Y-39178628D02*
X157761902Y-39226247D01*
X157761902Y-39226247D02*
X157952378Y-39226247D01*
X157952378Y-39226247D02*
X158047616Y-39178628D01*
X156761902Y-39178628D02*
X156857140Y-39226247D01*
X156857140Y-39226247D02*
X157047616Y-39226247D01*
X157047616Y-39226247D02*
X157142854Y-39178628D01*
X157142854Y-39178628D02*
X157190473Y-39083389D01*
X157190473Y-39083389D02*
X157190473Y-38702437D01*
X157190473Y-38702437D02*
X157142854Y-38607199D01*
X157142854Y-38607199D02*
X157047616Y-38559580D01*
X157047616Y-38559580D02*
X156857140Y-38559580D01*
X156857140Y-38559580D02*
X156761902Y-38607199D01*
X156761902Y-38607199D02*
X156714283Y-38702437D01*
X156714283Y-38702437D02*
X156714283Y-38797675D01*
X156714283Y-38797675D02*
X157190473Y-38892913D01*
X180619047Y-40836191D02*
X180619047Y-39836191D01*
X179571429Y-40740952D02*
X179619048Y-40788572D01*
X179619048Y-40788572D02*
X179761905Y-40836191D01*
X179761905Y-40836191D02*
X179857143Y-40836191D01*
X179857143Y-40836191D02*
X180000000Y-40788572D01*
X180000000Y-40788572D02*
X180095238Y-40693333D01*
X180095238Y-40693333D02*
X180142857Y-40598095D01*
X180142857Y-40598095D02*
X180190476Y-40407619D01*
X180190476Y-40407619D02*
X180190476Y-40264762D01*
X180190476Y-40264762D02*
X180142857Y-40074286D01*
X180142857Y-40074286D02*
X180095238Y-39979048D01*
X180095238Y-39979048D02*
X180000000Y-39883810D01*
X180000000Y-39883810D02*
X179857143Y-39836191D01*
X179857143Y-39836191D02*
X179761905Y-39836191D01*
X179761905Y-39836191D02*
X179619048Y-39883810D01*
X179619048Y-39883810D02*
X179571429Y-39931429D01*
X179142857Y-40836191D02*
X179142857Y-39836191D01*
X179142857Y-39836191D02*
X178809524Y-40550476D01*
X178809524Y-40550476D02*
X178476191Y-39836191D01*
X178476191Y-39836191D02*
X178476191Y-40836191D01*
X178000000Y-40455238D02*
X177238096Y-40455238D01*
X176333334Y-40169524D02*
X176333334Y-40836191D01*
X176571429Y-39788572D02*
X176809524Y-40502857D01*
X176809524Y-40502857D02*
X176190477Y-40502857D01*
X175857143Y-39931429D02*
X175809524Y-39883810D01*
X175809524Y-39883810D02*
X175714286Y-39836191D01*
X175714286Y-39836191D02*
X175476191Y-39836191D01*
X175476191Y-39836191D02*
X175380953Y-39883810D01*
X175380953Y-39883810D02*
X175333334Y-39931429D01*
X175333334Y-39931429D02*
X175285715Y-40026667D01*
X175285715Y-40026667D02*
X175285715Y-40121905D01*
X175285715Y-40121905D02*
X175333334Y-40264762D01*
X175333334Y-40264762D02*
X175904762Y-40836191D01*
X175904762Y-40836191D02*
X175285715Y-40836191D01*
X174428572Y-39836191D02*
X174619048Y-39836191D01*
X174619048Y-39836191D02*
X174714286Y-39883810D01*
X174714286Y-39883810D02*
X174761905Y-39931429D01*
X174761905Y-39931429D02*
X174857143Y-40074286D01*
X174857143Y-40074286D02*
X174904762Y-40264762D01*
X174904762Y-40264762D02*
X174904762Y-40645714D01*
X174904762Y-40645714D02*
X174857143Y-40740952D01*
X174857143Y-40740952D02*
X174809524Y-40788572D01*
X174809524Y-40788572D02*
X174714286Y-40836191D01*
X174714286Y-40836191D02*
X174523810Y-40836191D01*
X174523810Y-40836191D02*
X174428572Y-40788572D01*
X174428572Y-40788572D02*
X174380953Y-40740952D01*
X174380953Y-40740952D02*
X174333334Y-40645714D01*
X174333334Y-40645714D02*
X174333334Y-40407619D01*
X174333334Y-40407619D02*
X174380953Y-40312381D01*
X174380953Y-40312381D02*
X174428572Y-40264762D01*
X174428572Y-40264762D02*
X174523810Y-40217143D01*
X174523810Y-40217143D02*
X174714286Y-40217143D01*
X174714286Y-40217143D02*
X174809524Y-40264762D01*
X174809524Y-40264762D02*
X174857143Y-40312381D01*
X174857143Y-40312381D02*
X174904762Y-40407619D01*
X173761905Y-40264762D02*
X173857143Y-40217143D01*
X173857143Y-40217143D02*
X173904762Y-40169524D01*
X173904762Y-40169524D02*
X173952381Y-40074286D01*
X173952381Y-40074286D02*
X173952381Y-40026667D01*
X173952381Y-40026667D02*
X173904762Y-39931429D01*
X173904762Y-39931429D02*
X173857143Y-39883810D01*
X173857143Y-39883810D02*
X173761905Y-39836191D01*
X173761905Y-39836191D02*
X173571429Y-39836191D01*
X173571429Y-39836191D02*
X173476191Y-39883810D01*
X173476191Y-39883810D02*
X173428572Y-39931429D01*
X173428572Y-39931429D02*
X173380953Y-40026667D01*
X173380953Y-40026667D02*
X173380953Y-40074286D01*
X173380953Y-40074286D02*
X173428572Y-40169524D01*
X173428572Y-40169524D02*
X173476191Y-40217143D01*
X173476191Y-40217143D02*
X173571429Y-40264762D01*
X173571429Y-40264762D02*
X173761905Y-40264762D01*
X173761905Y-40264762D02*
X173857143Y-40312381D01*
X173857143Y-40312381D02*
X173904762Y-40360000D01*
X173904762Y-40360000D02*
X173952381Y-40455238D01*
X173952381Y-40455238D02*
X173952381Y-40645714D01*
X173952381Y-40645714D02*
X173904762Y-40740952D01*
X173904762Y-40740952D02*
X173857143Y-40788572D01*
X173857143Y-40788572D02*
X173761905Y-40836191D01*
X173761905Y-40836191D02*
X173571429Y-40836191D01*
X173571429Y-40836191D02*
X173476191Y-40788572D01*
X173476191Y-40788572D02*
X173428572Y-40740952D01*
X173428572Y-40740952D02*
X173380953Y-40645714D01*
X173380953Y-40645714D02*
X173380953Y-40455238D01*
X173380953Y-40455238D02*
X173428572Y-40360000D01*
X173428572Y-40360000D02*
X173476191Y-40312381D01*
X173476191Y-40312381D02*
X173571429Y-40264762D01*
X172809524Y-40264762D02*
X172904762Y-40217143D01*
X172904762Y-40217143D02*
X172952381Y-40169524D01*
X172952381Y-40169524D02*
X173000000Y-40074286D01*
X173000000Y-40074286D02*
X173000000Y-40026667D01*
X173000000Y-40026667D02*
X172952381Y-39931429D01*
X172952381Y-39931429D02*
X172904762Y-39883810D01*
X172904762Y-39883810D02*
X172809524Y-39836191D01*
X172809524Y-39836191D02*
X172619048Y-39836191D01*
X172619048Y-39836191D02*
X172523810Y-39883810D01*
X172523810Y-39883810D02*
X172476191Y-39931429D01*
X172476191Y-39931429D02*
X172428572Y-40026667D01*
X172428572Y-40026667D02*
X172428572Y-40074286D01*
X172428572Y-40074286D02*
X172476191Y-40169524D01*
X172476191Y-40169524D02*
X172523810Y-40217143D01*
X172523810Y-40217143D02*
X172619048Y-40264762D01*
X172619048Y-40264762D02*
X172809524Y-40264762D01*
X172809524Y-40264762D02*
X172904762Y-40312381D01*
X172904762Y-40312381D02*
X172952381Y-40360000D01*
X172952381Y-40360000D02*
X173000000Y-40455238D01*
X173000000Y-40455238D02*
X173000000Y-40645714D01*
X173000000Y-40645714D02*
X172952381Y-40740952D01*
X172952381Y-40740952D02*
X172904762Y-40788572D01*
X172904762Y-40788572D02*
X172809524Y-40836191D01*
X172809524Y-40836191D02*
X172619048Y-40836191D01*
X172619048Y-40836191D02*
X172523810Y-40788572D01*
X172523810Y-40788572D02*
X172476191Y-40740952D01*
X172476191Y-40740952D02*
X172428572Y-40645714D01*
X172428572Y-40645714D02*
X172428572Y-40455238D01*
X172428572Y-40455238D02*
X172476191Y-40360000D01*
X172476191Y-40360000D02*
X172523810Y-40312381D01*
X172523810Y-40312381D02*
X172619048Y-40264762D01*
X171285714Y-40788572D02*
X171142857Y-40836191D01*
X171142857Y-40836191D02*
X170904762Y-40836191D01*
X170904762Y-40836191D02*
X170809524Y-40788572D01*
X170809524Y-40788572D02*
X170761905Y-40740952D01*
X170761905Y-40740952D02*
X170714286Y-40645714D01*
X170714286Y-40645714D02*
X170714286Y-40550476D01*
X170714286Y-40550476D02*
X170761905Y-40455238D01*
X170761905Y-40455238D02*
X170809524Y-40407619D01*
X170809524Y-40407619D02*
X170904762Y-40360000D01*
X170904762Y-40360000D02*
X171095238Y-40312381D01*
X171095238Y-40312381D02*
X171190476Y-40264762D01*
X171190476Y-40264762D02*
X171238095Y-40217143D01*
X171238095Y-40217143D02*
X171285714Y-40121905D01*
X171285714Y-40121905D02*
X171285714Y-40026667D01*
X171285714Y-40026667D02*
X171238095Y-39931429D01*
X171238095Y-39931429D02*
X171190476Y-39883810D01*
X171190476Y-39883810D02*
X171095238Y-39836191D01*
X171095238Y-39836191D02*
X170857143Y-39836191D01*
X170857143Y-39836191D02*
X170714286Y-39883810D01*
X170285714Y-40836191D02*
X170285714Y-39836191D01*
X170285714Y-39836191D02*
X169904762Y-39836191D01*
X169904762Y-39836191D02*
X169809524Y-39883810D01*
X169809524Y-39883810D02*
X169761905Y-39931429D01*
X169761905Y-39931429D02*
X169714286Y-40026667D01*
X169714286Y-40026667D02*
X169714286Y-40169524D01*
X169714286Y-40169524D02*
X169761905Y-40264762D01*
X169761905Y-40264762D02*
X169809524Y-40312381D01*
X169809524Y-40312381D02*
X169904762Y-40360000D01*
X169904762Y-40360000D02*
X170285714Y-40360000D01*
X169285714Y-40836191D02*
X169285714Y-39836191D01*
X168095239Y-39788572D02*
X168952381Y-41074286D01*
X167761905Y-40836191D02*
X167761905Y-39836191D01*
X167333334Y-39931429D02*
X167285715Y-39883810D01*
X167285715Y-39883810D02*
X167190477Y-39836191D01*
X167190477Y-39836191D02*
X166952382Y-39836191D01*
X166952382Y-39836191D02*
X166857144Y-39883810D01*
X166857144Y-39883810D02*
X166809525Y-39931429D01*
X166809525Y-39931429D02*
X166761906Y-40026667D01*
X166761906Y-40026667D02*
X166761906Y-40121905D01*
X166761906Y-40121905D02*
X166809525Y-40264762D01*
X166809525Y-40264762D02*
X167380953Y-40836191D01*
X167380953Y-40836191D02*
X166761906Y-40836191D01*
X165761906Y-40740952D02*
X165809525Y-40788572D01*
X165809525Y-40788572D02*
X165952382Y-40836191D01*
X165952382Y-40836191D02*
X166047620Y-40836191D01*
X166047620Y-40836191D02*
X166190477Y-40788572D01*
X166190477Y-40788572D02*
X166285715Y-40693333D01*
X166285715Y-40693333D02*
X166333334Y-40598095D01*
X166333334Y-40598095D02*
X166380953Y-40407619D01*
X166380953Y-40407619D02*
X166380953Y-40264762D01*
X166380953Y-40264762D02*
X166333334Y-40074286D01*
X166333334Y-40074286D02*
X166285715Y-39979048D01*
X166285715Y-39979048D02*
X166190477Y-39883810D01*
X166190477Y-39883810D02*
X166047620Y-39836191D01*
X166047620Y-39836191D02*
X165952382Y-39836191D01*
X165952382Y-39836191D02*
X165809525Y-39883810D01*
X165809525Y-39883810D02*
X165761906Y-39931429D01*
X164238096Y-40312381D02*
X164095239Y-40360000D01*
X164095239Y-40360000D02*
X164047620Y-40407619D01*
X164047620Y-40407619D02*
X164000001Y-40502857D01*
X164000001Y-40502857D02*
X164000001Y-40645714D01*
X164000001Y-40645714D02*
X164047620Y-40740952D01*
X164047620Y-40740952D02*
X164095239Y-40788572D01*
X164095239Y-40788572D02*
X164190477Y-40836191D01*
X164190477Y-40836191D02*
X164571429Y-40836191D01*
X164571429Y-40836191D02*
X164571429Y-39836191D01*
X164571429Y-39836191D02*
X164238096Y-39836191D01*
X164238096Y-39836191D02*
X164142858Y-39883810D01*
X164142858Y-39883810D02*
X164095239Y-39931429D01*
X164095239Y-39931429D02*
X164047620Y-40026667D01*
X164047620Y-40026667D02*
X164047620Y-40121905D01*
X164047620Y-40121905D02*
X164095239Y-40217143D01*
X164095239Y-40217143D02*
X164142858Y-40264762D01*
X164142858Y-40264762D02*
X164238096Y-40312381D01*
X164238096Y-40312381D02*
X164571429Y-40312381D01*
X163571429Y-40836191D02*
X163571429Y-40169524D01*
X163571429Y-40360000D02*
X163523810Y-40264762D01*
X163523810Y-40264762D02*
X163476191Y-40217143D01*
X163476191Y-40217143D02*
X163380953Y-40169524D01*
X163380953Y-40169524D02*
X163285715Y-40169524D01*
X162571429Y-40788572D02*
X162666667Y-40836191D01*
X162666667Y-40836191D02*
X162857143Y-40836191D01*
X162857143Y-40836191D02*
X162952381Y-40788572D01*
X162952381Y-40788572D02*
X163000000Y-40693333D01*
X163000000Y-40693333D02*
X163000000Y-40312381D01*
X163000000Y-40312381D02*
X162952381Y-40217143D01*
X162952381Y-40217143D02*
X162857143Y-40169524D01*
X162857143Y-40169524D02*
X162666667Y-40169524D01*
X162666667Y-40169524D02*
X162571429Y-40217143D01*
X162571429Y-40217143D02*
X162523810Y-40312381D01*
X162523810Y-40312381D02*
X162523810Y-40407619D01*
X162523810Y-40407619D02*
X163000000Y-40502857D01*
X161666667Y-40836191D02*
X161666667Y-40312381D01*
X161666667Y-40312381D02*
X161714286Y-40217143D01*
X161714286Y-40217143D02*
X161809524Y-40169524D01*
X161809524Y-40169524D02*
X162000000Y-40169524D01*
X162000000Y-40169524D02*
X162095238Y-40217143D01*
X161666667Y-40788572D02*
X161761905Y-40836191D01*
X161761905Y-40836191D02*
X162000000Y-40836191D01*
X162000000Y-40836191D02*
X162095238Y-40788572D01*
X162095238Y-40788572D02*
X162142857Y-40693333D01*
X162142857Y-40693333D02*
X162142857Y-40598095D01*
X162142857Y-40598095D02*
X162095238Y-40502857D01*
X162095238Y-40502857D02*
X162000000Y-40455238D01*
X162000000Y-40455238D02*
X161761905Y-40455238D01*
X161761905Y-40455238D02*
X161666667Y-40407619D01*
X161190476Y-40836191D02*
X161190476Y-39836191D01*
X161095238Y-40455238D02*
X160809524Y-40836191D01*
X160809524Y-40169524D02*
X161190476Y-40550476D01*
X160238095Y-40836191D02*
X160333333Y-40788572D01*
X160333333Y-40788572D02*
X160380952Y-40740952D01*
X160380952Y-40740952D02*
X160428571Y-40645714D01*
X160428571Y-40645714D02*
X160428571Y-40360000D01*
X160428571Y-40360000D02*
X160380952Y-40264762D01*
X160380952Y-40264762D02*
X160333333Y-40217143D01*
X160333333Y-40217143D02*
X160238095Y-40169524D01*
X160238095Y-40169524D02*
X160095238Y-40169524D01*
X160095238Y-40169524D02*
X160000000Y-40217143D01*
X160000000Y-40217143D02*
X159952381Y-40264762D01*
X159952381Y-40264762D02*
X159904762Y-40360000D01*
X159904762Y-40360000D02*
X159904762Y-40645714D01*
X159904762Y-40645714D02*
X159952381Y-40740952D01*
X159952381Y-40740952D02*
X160000000Y-40788572D01*
X160000000Y-40788572D02*
X160095238Y-40836191D01*
X160095238Y-40836191D02*
X160238095Y-40836191D01*
X159047619Y-40169524D02*
X159047619Y-40836191D01*
X159476190Y-40169524D02*
X159476190Y-40693333D01*
X159476190Y-40693333D02*
X159428571Y-40788572D01*
X159428571Y-40788572D02*
X159333333Y-40836191D01*
X159333333Y-40836191D02*
X159190476Y-40836191D01*
X159190476Y-40836191D02*
X159095238Y-40788572D01*
X159095238Y-40788572D02*
X159047619Y-40740952D01*
X158714285Y-40169524D02*
X158333333Y-40169524D01*
X158571428Y-39836191D02*
X158571428Y-40693333D01*
X158571428Y-40693333D02*
X158523809Y-40788572D01*
X158523809Y-40788572D02*
X158428571Y-40836191D01*
X158428571Y-40836191D02*
X158333333Y-40836191D01*
X156904761Y-40312381D02*
X156761904Y-40360000D01*
X156761904Y-40360000D02*
X156714285Y-40407619D01*
X156714285Y-40407619D02*
X156666666Y-40502857D01*
X156666666Y-40502857D02*
X156666666Y-40645714D01*
X156666666Y-40645714D02*
X156714285Y-40740952D01*
X156714285Y-40740952D02*
X156761904Y-40788572D01*
X156761904Y-40788572D02*
X156857142Y-40836191D01*
X156857142Y-40836191D02*
X157238094Y-40836191D01*
X157238094Y-40836191D02*
X157238094Y-39836191D01*
X157238094Y-39836191D02*
X156904761Y-39836191D01*
X156904761Y-39836191D02*
X156809523Y-39883810D01*
X156809523Y-39883810D02*
X156761904Y-39931429D01*
X156761904Y-39931429D02*
X156714285Y-40026667D01*
X156714285Y-40026667D02*
X156714285Y-40121905D01*
X156714285Y-40121905D02*
X156761904Y-40217143D01*
X156761904Y-40217143D02*
X156809523Y-40264762D01*
X156809523Y-40264762D02*
X156904761Y-40312381D01*
X156904761Y-40312381D02*
X157238094Y-40312381D01*
X156095237Y-40836191D02*
X156190475Y-40788572D01*
X156190475Y-40788572D02*
X156238094Y-40740952D01*
X156238094Y-40740952D02*
X156285713Y-40645714D01*
X156285713Y-40645714D02*
X156285713Y-40360000D01*
X156285713Y-40360000D02*
X156238094Y-40264762D01*
X156238094Y-40264762D02*
X156190475Y-40217143D01*
X156190475Y-40217143D02*
X156095237Y-40169524D01*
X156095237Y-40169524D02*
X155952380Y-40169524D01*
X155952380Y-40169524D02*
X155857142Y-40217143D01*
X155857142Y-40217143D02*
X155809523Y-40264762D01*
X155809523Y-40264762D02*
X155761904Y-40360000D01*
X155761904Y-40360000D02*
X155761904Y-40645714D01*
X155761904Y-40645714D02*
X155809523Y-40740952D01*
X155809523Y-40740952D02*
X155857142Y-40788572D01*
X155857142Y-40788572D02*
X155952380Y-40836191D01*
X155952380Y-40836191D02*
X156095237Y-40836191D01*
X154904761Y-40836191D02*
X154904761Y-40312381D01*
X154904761Y-40312381D02*
X154952380Y-40217143D01*
X154952380Y-40217143D02*
X155047618Y-40169524D01*
X155047618Y-40169524D02*
X155238094Y-40169524D01*
X155238094Y-40169524D02*
X155333332Y-40217143D01*
X154904761Y-40788572D02*
X154999999Y-40836191D01*
X154999999Y-40836191D02*
X155238094Y-40836191D01*
X155238094Y-40836191D02*
X155333332Y-40788572D01*
X155333332Y-40788572D02*
X155380951Y-40693333D01*
X155380951Y-40693333D02*
X155380951Y-40598095D01*
X155380951Y-40598095D02*
X155333332Y-40502857D01*
X155333332Y-40502857D02*
X155238094Y-40455238D01*
X155238094Y-40455238D02*
X154999999Y-40455238D01*
X154999999Y-40455238D02*
X154904761Y-40407619D01*
X154428570Y-40836191D02*
X154428570Y-40169524D01*
X154428570Y-40360000D02*
X154380951Y-40264762D01*
X154380951Y-40264762D02*
X154333332Y-40217143D01*
X154333332Y-40217143D02*
X154238094Y-40169524D01*
X154238094Y-40169524D02*
X154142856Y-40169524D01*
X153380951Y-40836191D02*
X153380951Y-39836191D01*
X153380951Y-40788572D02*
X153476189Y-40836191D01*
X153476189Y-40836191D02*
X153666665Y-40836191D01*
X153666665Y-40836191D02*
X153761903Y-40788572D01*
X153761903Y-40788572D02*
X153809522Y-40740952D01*
X153809522Y-40740952D02*
X153857141Y-40645714D01*
X153857141Y-40645714D02*
X153857141Y-40360000D01*
X153857141Y-40360000D02*
X153809522Y-40264762D01*
X153809522Y-40264762D02*
X153761903Y-40217143D01*
X153761903Y-40217143D02*
X153666665Y-40169524D01*
X153666665Y-40169524D02*
X153476189Y-40169524D01*
X153476189Y-40169524D02*
X153380951Y-40217143D01*
X177285715Y-65940532D02*
X176809525Y-65940532D01*
X177380953Y-66226247D02*
X177047620Y-65226247D01*
X177047620Y-65226247D02*
X176714287Y-66226247D01*
X175952382Y-66178628D02*
X176047620Y-66226247D01*
X176047620Y-66226247D02*
X176238096Y-66226247D01*
X176238096Y-66226247D02*
X176333334Y-66178628D01*
X176333334Y-66178628D02*
X176380953Y-66131008D01*
X176380953Y-66131008D02*
X176428572Y-66035770D01*
X176428572Y-66035770D02*
X176428572Y-65750056D01*
X176428572Y-65750056D02*
X176380953Y-65654818D01*
X176380953Y-65654818D02*
X176333334Y-65607199D01*
X176333334Y-65607199D02*
X176238096Y-65559580D01*
X176238096Y-65559580D02*
X176047620Y-65559580D01*
X176047620Y-65559580D02*
X175952382Y-65607199D01*
X175095239Y-66178628D02*
X175190477Y-66226247D01*
X175190477Y-66226247D02*
X175380953Y-66226247D01*
X175380953Y-66226247D02*
X175476191Y-66178628D01*
X175476191Y-66178628D02*
X175523810Y-66131008D01*
X175523810Y-66131008D02*
X175571429Y-66035770D01*
X175571429Y-66035770D02*
X175571429Y-65750056D01*
X175571429Y-65750056D02*
X175523810Y-65654818D01*
X175523810Y-65654818D02*
X175476191Y-65607199D01*
X175476191Y-65607199D02*
X175380953Y-65559580D01*
X175380953Y-65559580D02*
X175190477Y-65559580D01*
X175190477Y-65559580D02*
X175095239Y-65607199D01*
X174285715Y-66178628D02*
X174380953Y-66226247D01*
X174380953Y-66226247D02*
X174571429Y-66226247D01*
X174571429Y-66226247D02*
X174666667Y-66178628D01*
X174666667Y-66178628D02*
X174714286Y-66083389D01*
X174714286Y-66083389D02*
X174714286Y-65702437D01*
X174714286Y-65702437D02*
X174666667Y-65607199D01*
X174666667Y-65607199D02*
X174571429Y-65559580D01*
X174571429Y-65559580D02*
X174380953Y-65559580D01*
X174380953Y-65559580D02*
X174285715Y-65607199D01*
X174285715Y-65607199D02*
X174238096Y-65702437D01*
X174238096Y-65702437D02*
X174238096Y-65797675D01*
X174238096Y-65797675D02*
X174714286Y-65892913D01*
X173666667Y-66226247D02*
X173761905Y-66178628D01*
X173761905Y-66178628D02*
X173809524Y-66083389D01*
X173809524Y-66083389D02*
X173809524Y-65226247D01*
X172904762Y-66178628D02*
X173000000Y-66226247D01*
X173000000Y-66226247D02*
X173190476Y-66226247D01*
X173190476Y-66226247D02*
X173285714Y-66178628D01*
X173285714Y-66178628D02*
X173333333Y-66083389D01*
X173333333Y-66083389D02*
X173333333Y-65702437D01*
X173333333Y-65702437D02*
X173285714Y-65607199D01*
X173285714Y-65607199D02*
X173190476Y-65559580D01*
X173190476Y-65559580D02*
X173000000Y-65559580D01*
X173000000Y-65559580D02*
X172904762Y-65607199D01*
X172904762Y-65607199D02*
X172857143Y-65702437D01*
X172857143Y-65702437D02*
X172857143Y-65797675D01*
X172857143Y-65797675D02*
X173333333Y-65892913D01*
X172428571Y-66226247D02*
X172428571Y-65559580D01*
X172428571Y-65750056D02*
X172380952Y-65654818D01*
X172380952Y-65654818D02*
X172333333Y-65607199D01*
X172333333Y-65607199D02*
X172238095Y-65559580D01*
X172238095Y-65559580D02*
X172142857Y-65559580D01*
X171666666Y-66226247D02*
X171761904Y-66178628D01*
X171761904Y-66178628D02*
X171809523Y-66131008D01*
X171809523Y-66131008D02*
X171857142Y-66035770D01*
X171857142Y-66035770D02*
X171857142Y-65750056D01*
X171857142Y-65750056D02*
X171809523Y-65654818D01*
X171809523Y-65654818D02*
X171761904Y-65607199D01*
X171761904Y-65607199D02*
X171666666Y-65559580D01*
X171666666Y-65559580D02*
X171523809Y-65559580D01*
X171523809Y-65559580D02*
X171428571Y-65607199D01*
X171428571Y-65607199D02*
X171380952Y-65654818D01*
X171380952Y-65654818D02*
X171333333Y-65750056D01*
X171333333Y-65750056D02*
X171333333Y-66035770D01*
X171333333Y-66035770D02*
X171380952Y-66131008D01*
X171380952Y-66131008D02*
X171428571Y-66178628D01*
X171428571Y-66178628D02*
X171523809Y-66226247D01*
X171523809Y-66226247D02*
X171666666Y-66226247D01*
X170904761Y-66226247D02*
X170904761Y-65559580D01*
X170904761Y-65654818D02*
X170857142Y-65607199D01*
X170857142Y-65607199D02*
X170761904Y-65559580D01*
X170761904Y-65559580D02*
X170619047Y-65559580D01*
X170619047Y-65559580D02*
X170523809Y-65607199D01*
X170523809Y-65607199D02*
X170476190Y-65702437D01*
X170476190Y-65702437D02*
X170476190Y-66226247D01*
X170476190Y-65702437D02*
X170428571Y-65607199D01*
X170428571Y-65607199D02*
X170333333Y-65559580D01*
X170333333Y-65559580D02*
X170190476Y-65559580D01*
X170190476Y-65559580D02*
X170095237Y-65607199D01*
X170095237Y-65607199D02*
X170047618Y-65702437D01*
X170047618Y-65702437D02*
X170047618Y-66226247D01*
X169190476Y-66178628D02*
X169285714Y-66226247D01*
X169285714Y-66226247D02*
X169476190Y-66226247D01*
X169476190Y-66226247D02*
X169571428Y-66178628D01*
X169571428Y-66178628D02*
X169619047Y-66083389D01*
X169619047Y-66083389D02*
X169619047Y-65702437D01*
X169619047Y-65702437D02*
X169571428Y-65607199D01*
X169571428Y-65607199D02*
X169476190Y-65559580D01*
X169476190Y-65559580D02*
X169285714Y-65559580D01*
X169285714Y-65559580D02*
X169190476Y-65607199D01*
X169190476Y-65607199D02*
X169142857Y-65702437D01*
X169142857Y-65702437D02*
X169142857Y-65797675D01*
X169142857Y-65797675D02*
X169619047Y-65892913D01*
X168857142Y-65559580D02*
X168476190Y-65559580D01*
X168714285Y-65226247D02*
X168714285Y-66083389D01*
X168714285Y-66083389D02*
X168666666Y-66178628D01*
X168666666Y-66178628D02*
X168571428Y-66226247D01*
X168571428Y-66226247D02*
X168476190Y-66226247D01*
X167761904Y-66178628D02*
X167857142Y-66226247D01*
X167857142Y-66226247D02*
X168047618Y-66226247D01*
X168047618Y-66226247D02*
X168142856Y-66178628D01*
X168142856Y-66178628D02*
X168190475Y-66083389D01*
X168190475Y-66083389D02*
X168190475Y-65702437D01*
X168190475Y-65702437D02*
X168142856Y-65607199D01*
X168142856Y-65607199D02*
X168047618Y-65559580D01*
X168047618Y-65559580D02*
X167857142Y-65559580D01*
X167857142Y-65559580D02*
X167761904Y-65607199D01*
X167761904Y-65607199D02*
X167714285Y-65702437D01*
X167714285Y-65702437D02*
X167714285Y-65797675D01*
X167714285Y-65797675D02*
X168190475Y-65892913D01*
X167285713Y-66226247D02*
X167285713Y-65559580D01*
X167285713Y-65750056D02*
X167238094Y-65654818D01*
X167238094Y-65654818D02*
X167190475Y-65607199D01*
X167190475Y-65607199D02*
X167095237Y-65559580D01*
X167095237Y-65559580D02*
X166999999Y-65559580D01*
X165095236Y-66226247D02*
X165142856Y-66226247D01*
X165142856Y-66226247D02*
X165238094Y-66178628D01*
X165238094Y-66178628D02*
X165380951Y-66035770D01*
X165380951Y-66035770D02*
X165619046Y-65750056D01*
X165619046Y-65750056D02*
X165714284Y-65607199D01*
X165714284Y-65607199D02*
X165761903Y-65464342D01*
X165761903Y-65464342D02*
X165761903Y-65369104D01*
X165761903Y-65369104D02*
X165714284Y-65273866D01*
X165714284Y-65273866D02*
X165619046Y-65226247D01*
X165619046Y-65226247D02*
X165571427Y-65226247D01*
X165571427Y-65226247D02*
X165476189Y-65273866D01*
X165476189Y-65273866D02*
X165428570Y-65369104D01*
X165428570Y-65369104D02*
X165428570Y-65416723D01*
X165428570Y-65416723D02*
X165476189Y-65511961D01*
X165476189Y-65511961D02*
X165523808Y-65559580D01*
X165523808Y-65559580D02*
X165809522Y-65750056D01*
X165809522Y-65750056D02*
X165857141Y-65797675D01*
X165857141Y-65797675D02*
X165904760Y-65892913D01*
X165904760Y-65892913D02*
X165904760Y-66035770D01*
X165904760Y-66035770D02*
X165857141Y-66131008D01*
X165857141Y-66131008D02*
X165809522Y-66178628D01*
X165809522Y-66178628D02*
X165714284Y-66226247D01*
X165714284Y-66226247D02*
X165571427Y-66226247D01*
X165571427Y-66226247D02*
X165476189Y-66178628D01*
X165476189Y-66178628D02*
X165428570Y-66131008D01*
X165428570Y-66131008D02*
X165285713Y-65940532D01*
X165285713Y-65940532D02*
X165238094Y-65797675D01*
X165238094Y-65797675D02*
X165238094Y-65702437D01*
X163380951Y-65273866D02*
X163476189Y-65226247D01*
X163476189Y-65226247D02*
X163619046Y-65226247D01*
X163619046Y-65226247D02*
X163761903Y-65273866D01*
X163761903Y-65273866D02*
X163857141Y-65369104D01*
X163857141Y-65369104D02*
X163904760Y-65464342D01*
X163904760Y-65464342D02*
X163952379Y-65654818D01*
X163952379Y-65654818D02*
X163952379Y-65797675D01*
X163952379Y-65797675D02*
X163904760Y-65988151D01*
X163904760Y-65988151D02*
X163857141Y-66083389D01*
X163857141Y-66083389D02*
X163761903Y-66178628D01*
X163761903Y-66178628D02*
X163619046Y-66226247D01*
X163619046Y-66226247D02*
X163523808Y-66226247D01*
X163523808Y-66226247D02*
X163380951Y-66178628D01*
X163380951Y-66178628D02*
X163333332Y-66131008D01*
X163333332Y-66131008D02*
X163333332Y-65797675D01*
X163333332Y-65797675D02*
X163523808Y-65797675D01*
X162999998Y-65559580D02*
X162761903Y-66226247D01*
X162523808Y-65559580D02*
X162761903Y-66226247D01*
X162761903Y-66226247D02*
X162857141Y-66464342D01*
X162857141Y-66464342D02*
X162904760Y-66511961D01*
X162904760Y-66511961D02*
X162999998Y-66559580D01*
X162142855Y-66226247D02*
X162142855Y-65559580D01*
X162142855Y-65750056D02*
X162095236Y-65654818D01*
X162095236Y-65654818D02*
X162047617Y-65607199D01*
X162047617Y-65607199D02*
X161952379Y-65559580D01*
X161952379Y-65559580D02*
X161857141Y-65559580D01*
X161380950Y-66226247D02*
X161476188Y-66178628D01*
X161476188Y-66178628D02*
X161523807Y-66131008D01*
X161523807Y-66131008D02*
X161571426Y-66035770D01*
X161571426Y-66035770D02*
X161571426Y-65750056D01*
X161571426Y-65750056D02*
X161523807Y-65654818D01*
X161523807Y-65654818D02*
X161476188Y-65607199D01*
X161476188Y-65607199D02*
X161380950Y-65559580D01*
X161380950Y-65559580D02*
X161238093Y-65559580D01*
X161238093Y-65559580D02*
X161142855Y-65607199D01*
X161142855Y-65607199D02*
X161095236Y-65654818D01*
X161095236Y-65654818D02*
X161047617Y-65750056D01*
X161047617Y-65750056D02*
X161047617Y-66035770D01*
X161047617Y-66035770D02*
X161095236Y-66131008D01*
X161095236Y-66131008D02*
X161142855Y-66178628D01*
X161142855Y-66178628D02*
X161238093Y-66226247D01*
X161238093Y-66226247D02*
X161380950Y-66226247D01*
X160666664Y-66178628D02*
X160571426Y-66226247D01*
X160571426Y-66226247D02*
X160380950Y-66226247D01*
X160380950Y-66226247D02*
X160285712Y-66178628D01*
X160285712Y-66178628D02*
X160238093Y-66083389D01*
X160238093Y-66083389D02*
X160238093Y-66035770D01*
X160238093Y-66035770D02*
X160285712Y-65940532D01*
X160285712Y-65940532D02*
X160380950Y-65892913D01*
X160380950Y-65892913D02*
X160523807Y-65892913D01*
X160523807Y-65892913D02*
X160619045Y-65845294D01*
X160619045Y-65845294D02*
X160666664Y-65750056D01*
X160666664Y-65750056D02*
X160666664Y-65702437D01*
X160666664Y-65702437D02*
X160619045Y-65607199D01*
X160619045Y-65607199D02*
X160523807Y-65559580D01*
X160523807Y-65559580D02*
X160380950Y-65559580D01*
X160380950Y-65559580D02*
X160285712Y-65607199D01*
X159380950Y-66178628D02*
X159476188Y-66226247D01*
X159476188Y-66226247D02*
X159666664Y-66226247D01*
X159666664Y-66226247D02*
X159761902Y-66178628D01*
X159761902Y-66178628D02*
X159809521Y-66131008D01*
X159809521Y-66131008D02*
X159857140Y-66035770D01*
X159857140Y-66035770D02*
X159857140Y-65750056D01*
X159857140Y-65750056D02*
X159809521Y-65654818D01*
X159809521Y-65654818D02*
X159761902Y-65607199D01*
X159761902Y-65607199D02*
X159666664Y-65559580D01*
X159666664Y-65559580D02*
X159476188Y-65559580D01*
X159476188Y-65559580D02*
X159380950Y-65607199D01*
X158809521Y-66226247D02*
X158904759Y-66178628D01*
X158904759Y-66178628D02*
X158952378Y-66131008D01*
X158952378Y-66131008D02*
X158999997Y-66035770D01*
X158999997Y-66035770D02*
X158999997Y-65750056D01*
X158999997Y-65750056D02*
X158952378Y-65654818D01*
X158952378Y-65654818D02*
X158904759Y-65607199D01*
X158904759Y-65607199D02*
X158809521Y-65559580D01*
X158809521Y-65559580D02*
X158666664Y-65559580D01*
X158666664Y-65559580D02*
X158571426Y-65607199D01*
X158571426Y-65607199D02*
X158523807Y-65654818D01*
X158523807Y-65654818D02*
X158476188Y-65750056D01*
X158476188Y-65750056D02*
X158476188Y-66035770D01*
X158476188Y-66035770D02*
X158523807Y-66131008D01*
X158523807Y-66131008D02*
X158571426Y-66178628D01*
X158571426Y-66178628D02*
X158666664Y-66226247D01*
X158666664Y-66226247D02*
X158809521Y-66226247D01*
X158047616Y-65559580D02*
X158047616Y-66559580D01*
X158047616Y-65607199D02*
X157952378Y-65559580D01*
X157952378Y-65559580D02*
X157761902Y-65559580D01*
X157761902Y-65559580D02*
X157666664Y-65607199D01*
X157666664Y-65607199D02*
X157619045Y-65654818D01*
X157619045Y-65654818D02*
X157571426Y-65750056D01*
X157571426Y-65750056D02*
X157571426Y-66035770D01*
X157571426Y-66035770D02*
X157619045Y-66131008D01*
X157619045Y-66131008D02*
X157666664Y-66178628D01*
X157666664Y-66178628D02*
X157761902Y-66226247D01*
X157761902Y-66226247D02*
X157952378Y-66226247D01*
X157952378Y-66226247D02*
X158047616Y-66178628D01*
X156761902Y-66178628D02*
X156857140Y-66226247D01*
X156857140Y-66226247D02*
X157047616Y-66226247D01*
X157047616Y-66226247D02*
X157142854Y-66178628D01*
X157142854Y-66178628D02*
X157190473Y-66083389D01*
X157190473Y-66083389D02*
X157190473Y-65702437D01*
X157190473Y-65702437D02*
X157142854Y-65607199D01*
X157142854Y-65607199D02*
X157047616Y-65559580D01*
X157047616Y-65559580D02*
X156857140Y-65559580D01*
X156857140Y-65559580D02*
X156761902Y-65607199D01*
X156761902Y-65607199D02*
X156714283Y-65702437D01*
X156714283Y-65702437D02*
X156714283Y-65797675D01*
X156714283Y-65797675D02*
X157190473Y-65892913D01*
X180619047Y-67836191D02*
X180619047Y-66836191D01*
X179571429Y-67740952D02*
X179619048Y-67788572D01*
X179619048Y-67788572D02*
X179761905Y-67836191D01*
X179761905Y-67836191D02*
X179857143Y-67836191D01*
X179857143Y-67836191D02*
X180000000Y-67788572D01*
X180000000Y-67788572D02*
X180095238Y-67693333D01*
X180095238Y-67693333D02*
X180142857Y-67598095D01*
X180142857Y-67598095D02*
X180190476Y-67407619D01*
X180190476Y-67407619D02*
X180190476Y-67264762D01*
X180190476Y-67264762D02*
X180142857Y-67074286D01*
X180142857Y-67074286D02*
X180095238Y-66979048D01*
X180095238Y-66979048D02*
X180000000Y-66883810D01*
X180000000Y-66883810D02*
X179857143Y-66836191D01*
X179857143Y-66836191D02*
X179761905Y-66836191D01*
X179761905Y-66836191D02*
X179619048Y-66883810D01*
X179619048Y-66883810D02*
X179571429Y-66931429D01*
X179142857Y-67836191D02*
X179142857Y-66836191D01*
X179142857Y-66836191D02*
X178809524Y-67550476D01*
X178809524Y-67550476D02*
X178476191Y-66836191D01*
X178476191Y-66836191D02*
X178476191Y-67836191D01*
X178000000Y-67455238D02*
X177238096Y-67455238D01*
X176333334Y-67169524D02*
X176333334Y-67836191D01*
X176571429Y-66788572D02*
X176809524Y-67502857D01*
X176809524Y-67502857D02*
X176190477Y-67502857D01*
X175857143Y-66931429D02*
X175809524Y-66883810D01*
X175809524Y-66883810D02*
X175714286Y-66836191D01*
X175714286Y-66836191D02*
X175476191Y-66836191D01*
X175476191Y-66836191D02*
X175380953Y-66883810D01*
X175380953Y-66883810D02*
X175333334Y-66931429D01*
X175333334Y-66931429D02*
X175285715Y-67026667D01*
X175285715Y-67026667D02*
X175285715Y-67121905D01*
X175285715Y-67121905D02*
X175333334Y-67264762D01*
X175333334Y-67264762D02*
X175904762Y-67836191D01*
X175904762Y-67836191D02*
X175285715Y-67836191D01*
X174428572Y-66836191D02*
X174619048Y-66836191D01*
X174619048Y-66836191D02*
X174714286Y-66883810D01*
X174714286Y-66883810D02*
X174761905Y-66931429D01*
X174761905Y-66931429D02*
X174857143Y-67074286D01*
X174857143Y-67074286D02*
X174904762Y-67264762D01*
X174904762Y-67264762D02*
X174904762Y-67645714D01*
X174904762Y-67645714D02*
X174857143Y-67740952D01*
X174857143Y-67740952D02*
X174809524Y-67788572D01*
X174809524Y-67788572D02*
X174714286Y-67836191D01*
X174714286Y-67836191D02*
X174523810Y-67836191D01*
X174523810Y-67836191D02*
X174428572Y-67788572D01*
X174428572Y-67788572D02*
X174380953Y-67740952D01*
X174380953Y-67740952D02*
X174333334Y-67645714D01*
X174333334Y-67645714D02*
X174333334Y-67407619D01*
X174333334Y-67407619D02*
X174380953Y-67312381D01*
X174380953Y-67312381D02*
X174428572Y-67264762D01*
X174428572Y-67264762D02*
X174523810Y-67217143D01*
X174523810Y-67217143D02*
X174714286Y-67217143D01*
X174714286Y-67217143D02*
X174809524Y-67264762D01*
X174809524Y-67264762D02*
X174857143Y-67312381D01*
X174857143Y-67312381D02*
X174904762Y-67407619D01*
X173761905Y-67264762D02*
X173857143Y-67217143D01*
X173857143Y-67217143D02*
X173904762Y-67169524D01*
X173904762Y-67169524D02*
X173952381Y-67074286D01*
X173952381Y-67074286D02*
X173952381Y-67026667D01*
X173952381Y-67026667D02*
X173904762Y-66931429D01*
X173904762Y-66931429D02*
X173857143Y-66883810D01*
X173857143Y-66883810D02*
X173761905Y-66836191D01*
X173761905Y-66836191D02*
X173571429Y-66836191D01*
X173571429Y-66836191D02*
X173476191Y-66883810D01*
X173476191Y-66883810D02*
X173428572Y-66931429D01*
X173428572Y-66931429D02*
X173380953Y-67026667D01*
X173380953Y-67026667D02*
X173380953Y-67074286D01*
X173380953Y-67074286D02*
X173428572Y-67169524D01*
X173428572Y-67169524D02*
X173476191Y-67217143D01*
X173476191Y-67217143D02*
X173571429Y-67264762D01*
X173571429Y-67264762D02*
X173761905Y-67264762D01*
X173761905Y-67264762D02*
X173857143Y-67312381D01*
X173857143Y-67312381D02*
X173904762Y-67360000D01*
X173904762Y-67360000D02*
X173952381Y-67455238D01*
X173952381Y-67455238D02*
X173952381Y-67645714D01*
X173952381Y-67645714D02*
X173904762Y-67740952D01*
X173904762Y-67740952D02*
X173857143Y-67788572D01*
X173857143Y-67788572D02*
X173761905Y-67836191D01*
X173761905Y-67836191D02*
X173571429Y-67836191D01*
X173571429Y-67836191D02*
X173476191Y-67788572D01*
X173476191Y-67788572D02*
X173428572Y-67740952D01*
X173428572Y-67740952D02*
X173380953Y-67645714D01*
X173380953Y-67645714D02*
X173380953Y-67455238D01*
X173380953Y-67455238D02*
X173428572Y-67360000D01*
X173428572Y-67360000D02*
X173476191Y-67312381D01*
X173476191Y-67312381D02*
X173571429Y-67264762D01*
X172809524Y-67264762D02*
X172904762Y-67217143D01*
X172904762Y-67217143D02*
X172952381Y-67169524D01*
X172952381Y-67169524D02*
X173000000Y-67074286D01*
X173000000Y-67074286D02*
X173000000Y-67026667D01*
X173000000Y-67026667D02*
X172952381Y-66931429D01*
X172952381Y-66931429D02*
X172904762Y-66883810D01*
X172904762Y-66883810D02*
X172809524Y-66836191D01*
X172809524Y-66836191D02*
X172619048Y-66836191D01*
X172619048Y-66836191D02*
X172523810Y-66883810D01*
X172523810Y-66883810D02*
X172476191Y-66931429D01*
X172476191Y-66931429D02*
X172428572Y-67026667D01*
X172428572Y-67026667D02*
X172428572Y-67074286D01*
X172428572Y-67074286D02*
X172476191Y-67169524D01*
X172476191Y-67169524D02*
X172523810Y-67217143D01*
X172523810Y-67217143D02*
X172619048Y-67264762D01*
X172619048Y-67264762D02*
X172809524Y-67264762D01*
X172809524Y-67264762D02*
X172904762Y-67312381D01*
X172904762Y-67312381D02*
X172952381Y-67360000D01*
X172952381Y-67360000D02*
X173000000Y-67455238D01*
X173000000Y-67455238D02*
X173000000Y-67645714D01*
X173000000Y-67645714D02*
X172952381Y-67740952D01*
X172952381Y-67740952D02*
X172904762Y-67788572D01*
X172904762Y-67788572D02*
X172809524Y-67836191D01*
X172809524Y-67836191D02*
X172619048Y-67836191D01*
X172619048Y-67836191D02*
X172523810Y-67788572D01*
X172523810Y-67788572D02*
X172476191Y-67740952D01*
X172476191Y-67740952D02*
X172428572Y-67645714D01*
X172428572Y-67645714D02*
X172428572Y-67455238D01*
X172428572Y-67455238D02*
X172476191Y-67360000D01*
X172476191Y-67360000D02*
X172523810Y-67312381D01*
X172523810Y-67312381D02*
X172619048Y-67264762D01*
X171285714Y-67788572D02*
X171142857Y-67836191D01*
X171142857Y-67836191D02*
X170904762Y-67836191D01*
X170904762Y-67836191D02*
X170809524Y-67788572D01*
X170809524Y-67788572D02*
X170761905Y-67740952D01*
X170761905Y-67740952D02*
X170714286Y-67645714D01*
X170714286Y-67645714D02*
X170714286Y-67550476D01*
X170714286Y-67550476D02*
X170761905Y-67455238D01*
X170761905Y-67455238D02*
X170809524Y-67407619D01*
X170809524Y-67407619D02*
X170904762Y-67360000D01*
X170904762Y-67360000D02*
X171095238Y-67312381D01*
X171095238Y-67312381D02*
X171190476Y-67264762D01*
X171190476Y-67264762D02*
X171238095Y-67217143D01*
X171238095Y-67217143D02*
X171285714Y-67121905D01*
X171285714Y-67121905D02*
X171285714Y-67026667D01*
X171285714Y-67026667D02*
X171238095Y-66931429D01*
X171238095Y-66931429D02*
X171190476Y-66883810D01*
X171190476Y-66883810D02*
X171095238Y-66836191D01*
X171095238Y-66836191D02*
X170857143Y-66836191D01*
X170857143Y-66836191D02*
X170714286Y-66883810D01*
X170285714Y-67836191D02*
X170285714Y-66836191D01*
X170285714Y-66836191D02*
X169904762Y-66836191D01*
X169904762Y-66836191D02*
X169809524Y-66883810D01*
X169809524Y-66883810D02*
X169761905Y-66931429D01*
X169761905Y-66931429D02*
X169714286Y-67026667D01*
X169714286Y-67026667D02*
X169714286Y-67169524D01*
X169714286Y-67169524D02*
X169761905Y-67264762D01*
X169761905Y-67264762D02*
X169809524Y-67312381D01*
X169809524Y-67312381D02*
X169904762Y-67360000D01*
X169904762Y-67360000D02*
X170285714Y-67360000D01*
X169285714Y-67836191D02*
X169285714Y-66836191D01*
X168095239Y-66788572D02*
X168952381Y-68074286D01*
X167761905Y-67836191D02*
X167761905Y-66836191D01*
X167333334Y-66931429D02*
X167285715Y-66883810D01*
X167285715Y-66883810D02*
X167190477Y-66836191D01*
X167190477Y-66836191D02*
X166952382Y-66836191D01*
X166952382Y-66836191D02*
X166857144Y-66883810D01*
X166857144Y-66883810D02*
X166809525Y-66931429D01*
X166809525Y-66931429D02*
X166761906Y-67026667D01*
X166761906Y-67026667D02*
X166761906Y-67121905D01*
X166761906Y-67121905D02*
X166809525Y-67264762D01*
X166809525Y-67264762D02*
X167380953Y-67836191D01*
X167380953Y-67836191D02*
X166761906Y-67836191D01*
X165761906Y-67740952D02*
X165809525Y-67788572D01*
X165809525Y-67788572D02*
X165952382Y-67836191D01*
X165952382Y-67836191D02*
X166047620Y-67836191D01*
X166047620Y-67836191D02*
X166190477Y-67788572D01*
X166190477Y-67788572D02*
X166285715Y-67693333D01*
X166285715Y-67693333D02*
X166333334Y-67598095D01*
X166333334Y-67598095D02*
X166380953Y-67407619D01*
X166380953Y-67407619D02*
X166380953Y-67264762D01*
X166380953Y-67264762D02*
X166333334Y-67074286D01*
X166333334Y-67074286D02*
X166285715Y-66979048D01*
X166285715Y-66979048D02*
X166190477Y-66883810D01*
X166190477Y-66883810D02*
X166047620Y-66836191D01*
X166047620Y-66836191D02*
X165952382Y-66836191D01*
X165952382Y-66836191D02*
X165809525Y-66883810D01*
X165809525Y-66883810D02*
X165761906Y-66931429D01*
X164238096Y-67312381D02*
X164095239Y-67360000D01*
X164095239Y-67360000D02*
X164047620Y-67407619D01*
X164047620Y-67407619D02*
X164000001Y-67502857D01*
X164000001Y-67502857D02*
X164000001Y-67645714D01*
X164000001Y-67645714D02*
X164047620Y-67740952D01*
X164047620Y-67740952D02*
X164095239Y-67788572D01*
X164095239Y-67788572D02*
X164190477Y-67836191D01*
X164190477Y-67836191D02*
X164571429Y-67836191D01*
X164571429Y-67836191D02*
X164571429Y-66836191D01*
X164571429Y-66836191D02*
X164238096Y-66836191D01*
X164238096Y-66836191D02*
X164142858Y-66883810D01*
X164142858Y-66883810D02*
X164095239Y-66931429D01*
X164095239Y-66931429D02*
X164047620Y-67026667D01*
X164047620Y-67026667D02*
X164047620Y-67121905D01*
X164047620Y-67121905D02*
X164095239Y-67217143D01*
X164095239Y-67217143D02*
X164142858Y-67264762D01*
X164142858Y-67264762D02*
X164238096Y-67312381D01*
X164238096Y-67312381D02*
X164571429Y-67312381D01*
X163571429Y-67836191D02*
X163571429Y-67169524D01*
X163571429Y-67360000D02*
X163523810Y-67264762D01*
X163523810Y-67264762D02*
X163476191Y-67217143D01*
X163476191Y-67217143D02*
X163380953Y-67169524D01*
X163380953Y-67169524D02*
X163285715Y-67169524D01*
X162571429Y-67788572D02*
X162666667Y-67836191D01*
X162666667Y-67836191D02*
X162857143Y-67836191D01*
X162857143Y-67836191D02*
X162952381Y-67788572D01*
X162952381Y-67788572D02*
X163000000Y-67693333D01*
X163000000Y-67693333D02*
X163000000Y-67312381D01*
X163000000Y-67312381D02*
X162952381Y-67217143D01*
X162952381Y-67217143D02*
X162857143Y-67169524D01*
X162857143Y-67169524D02*
X162666667Y-67169524D01*
X162666667Y-67169524D02*
X162571429Y-67217143D01*
X162571429Y-67217143D02*
X162523810Y-67312381D01*
X162523810Y-67312381D02*
X162523810Y-67407619D01*
X162523810Y-67407619D02*
X163000000Y-67502857D01*
X161666667Y-67836191D02*
X161666667Y-67312381D01*
X161666667Y-67312381D02*
X161714286Y-67217143D01*
X161714286Y-67217143D02*
X161809524Y-67169524D01*
X161809524Y-67169524D02*
X162000000Y-67169524D01*
X162000000Y-67169524D02*
X162095238Y-67217143D01*
X161666667Y-67788572D02*
X161761905Y-67836191D01*
X161761905Y-67836191D02*
X162000000Y-67836191D01*
X162000000Y-67836191D02*
X162095238Y-67788572D01*
X162095238Y-67788572D02*
X162142857Y-67693333D01*
X162142857Y-67693333D02*
X162142857Y-67598095D01*
X162142857Y-67598095D02*
X162095238Y-67502857D01*
X162095238Y-67502857D02*
X162000000Y-67455238D01*
X162000000Y-67455238D02*
X161761905Y-67455238D01*
X161761905Y-67455238D02*
X161666667Y-67407619D01*
X161190476Y-67836191D02*
X161190476Y-66836191D01*
X161095238Y-67455238D02*
X160809524Y-67836191D01*
X160809524Y-67169524D02*
X161190476Y-67550476D01*
X160238095Y-67836191D02*
X160333333Y-67788572D01*
X160333333Y-67788572D02*
X160380952Y-67740952D01*
X160380952Y-67740952D02*
X160428571Y-67645714D01*
X160428571Y-67645714D02*
X160428571Y-67360000D01*
X160428571Y-67360000D02*
X160380952Y-67264762D01*
X160380952Y-67264762D02*
X160333333Y-67217143D01*
X160333333Y-67217143D02*
X160238095Y-67169524D01*
X160238095Y-67169524D02*
X160095238Y-67169524D01*
X160095238Y-67169524D02*
X160000000Y-67217143D01*
X160000000Y-67217143D02*
X159952381Y-67264762D01*
X159952381Y-67264762D02*
X159904762Y-67360000D01*
X159904762Y-67360000D02*
X159904762Y-67645714D01*
X159904762Y-67645714D02*
X159952381Y-67740952D01*
X159952381Y-67740952D02*
X160000000Y-67788572D01*
X160000000Y-67788572D02*
X160095238Y-67836191D01*
X160095238Y-67836191D02*
X160238095Y-67836191D01*
X159047619Y-67169524D02*
X159047619Y-67836191D01*
X159476190Y-67169524D02*
X159476190Y-67693333D01*
X159476190Y-67693333D02*
X159428571Y-67788572D01*
X159428571Y-67788572D02*
X159333333Y-67836191D01*
X159333333Y-67836191D02*
X159190476Y-67836191D01*
X159190476Y-67836191D02*
X159095238Y-67788572D01*
X159095238Y-67788572D02*
X159047619Y-67740952D01*
X158714285Y-67169524D02*
X158333333Y-67169524D01*
X158571428Y-66836191D02*
X158571428Y-67693333D01*
X158571428Y-67693333D02*
X158523809Y-67788572D01*
X158523809Y-67788572D02*
X158428571Y-67836191D01*
X158428571Y-67836191D02*
X158333333Y-67836191D01*
X156904761Y-67312381D02*
X156761904Y-67360000D01*
X156761904Y-67360000D02*
X156714285Y-67407619D01*
X156714285Y-67407619D02*
X156666666Y-67502857D01*
X156666666Y-67502857D02*
X156666666Y-67645714D01*
X156666666Y-67645714D02*
X156714285Y-67740952D01*
X156714285Y-67740952D02*
X156761904Y-67788572D01*
X156761904Y-67788572D02*
X156857142Y-67836191D01*
X156857142Y-67836191D02*
X157238094Y-67836191D01*
X157238094Y-67836191D02*
X157238094Y-66836191D01*
X157238094Y-66836191D02*
X156904761Y-66836191D01*
X156904761Y-66836191D02*
X156809523Y-66883810D01*
X156809523Y-66883810D02*
X156761904Y-66931429D01*
X156761904Y-66931429D02*
X156714285Y-67026667D01*
X156714285Y-67026667D02*
X156714285Y-67121905D01*
X156714285Y-67121905D02*
X156761904Y-67217143D01*
X156761904Y-67217143D02*
X156809523Y-67264762D01*
X156809523Y-67264762D02*
X156904761Y-67312381D01*
X156904761Y-67312381D02*
X157238094Y-67312381D01*
X156095237Y-67836191D02*
X156190475Y-67788572D01*
X156190475Y-67788572D02*
X156238094Y-67740952D01*
X156238094Y-67740952D02*
X156285713Y-67645714D01*
X156285713Y-67645714D02*
X156285713Y-67360000D01*
X156285713Y-67360000D02*
X156238094Y-67264762D01*
X156238094Y-67264762D02*
X156190475Y-67217143D01*
X156190475Y-67217143D02*
X156095237Y-67169524D01*
X156095237Y-67169524D02*
X155952380Y-67169524D01*
X155952380Y-67169524D02*
X155857142Y-67217143D01*
X155857142Y-67217143D02*
X155809523Y-67264762D01*
X155809523Y-67264762D02*
X155761904Y-67360000D01*
X155761904Y-67360000D02*
X155761904Y-67645714D01*
X155761904Y-67645714D02*
X155809523Y-67740952D01*
X155809523Y-67740952D02*
X155857142Y-67788572D01*
X155857142Y-67788572D02*
X155952380Y-67836191D01*
X155952380Y-67836191D02*
X156095237Y-67836191D01*
X154904761Y-67836191D02*
X154904761Y-67312381D01*
X154904761Y-67312381D02*
X154952380Y-67217143D01*
X154952380Y-67217143D02*
X155047618Y-67169524D01*
X155047618Y-67169524D02*
X155238094Y-67169524D01*
X155238094Y-67169524D02*
X155333332Y-67217143D01*
X154904761Y-67788572D02*
X154999999Y-67836191D01*
X154999999Y-67836191D02*
X155238094Y-67836191D01*
X155238094Y-67836191D02*
X155333332Y-67788572D01*
X155333332Y-67788572D02*
X155380951Y-67693333D01*
X155380951Y-67693333D02*
X155380951Y-67598095D01*
X155380951Y-67598095D02*
X155333332Y-67502857D01*
X155333332Y-67502857D02*
X155238094Y-67455238D01*
X155238094Y-67455238D02*
X154999999Y-67455238D01*
X154999999Y-67455238D02*
X154904761Y-67407619D01*
X154428570Y-67836191D02*
X154428570Y-67169524D01*
X154428570Y-67360000D02*
X154380951Y-67264762D01*
X154380951Y-67264762D02*
X154333332Y-67217143D01*
X154333332Y-67217143D02*
X154238094Y-67169524D01*
X154238094Y-67169524D02*
X154142856Y-67169524D01*
X153380951Y-67836191D02*
X153380951Y-66836191D01*
X153380951Y-67788572D02*
X153476189Y-67836191D01*
X153476189Y-67836191D02*
X153666665Y-67836191D01*
X153666665Y-67836191D02*
X153761903Y-67788572D01*
X153761903Y-67788572D02*
X153809522Y-67740952D01*
X153809522Y-67740952D02*
X153857141Y-67645714D01*
X153857141Y-67645714D02*
X153857141Y-67360000D01*
X153857141Y-67360000D02*
X153809522Y-67264762D01*
X153809522Y-67264762D02*
X153761903Y-67217143D01*
X153761903Y-67217143D02*
X153666665Y-67169524D01*
X153666665Y-67169524D02*
X153476189Y-67169524D01*
X153476189Y-67169524D02*
X153380951Y-67217143D01*
X177285715Y-92940532D02*
X176809525Y-92940532D01*
X177380953Y-93226247D02*
X177047620Y-92226247D01*
X177047620Y-92226247D02*
X176714287Y-93226247D01*
X175952382Y-93178628D02*
X176047620Y-93226247D01*
X176047620Y-93226247D02*
X176238096Y-93226247D01*
X176238096Y-93226247D02*
X176333334Y-93178628D01*
X176333334Y-93178628D02*
X176380953Y-93131008D01*
X176380953Y-93131008D02*
X176428572Y-93035770D01*
X176428572Y-93035770D02*
X176428572Y-92750056D01*
X176428572Y-92750056D02*
X176380953Y-92654818D01*
X176380953Y-92654818D02*
X176333334Y-92607199D01*
X176333334Y-92607199D02*
X176238096Y-92559580D01*
X176238096Y-92559580D02*
X176047620Y-92559580D01*
X176047620Y-92559580D02*
X175952382Y-92607199D01*
X175095239Y-93178628D02*
X175190477Y-93226247D01*
X175190477Y-93226247D02*
X175380953Y-93226247D01*
X175380953Y-93226247D02*
X175476191Y-93178628D01*
X175476191Y-93178628D02*
X175523810Y-93131008D01*
X175523810Y-93131008D02*
X175571429Y-93035770D01*
X175571429Y-93035770D02*
X175571429Y-92750056D01*
X175571429Y-92750056D02*
X175523810Y-92654818D01*
X175523810Y-92654818D02*
X175476191Y-92607199D01*
X175476191Y-92607199D02*
X175380953Y-92559580D01*
X175380953Y-92559580D02*
X175190477Y-92559580D01*
X175190477Y-92559580D02*
X175095239Y-92607199D01*
X174285715Y-93178628D02*
X174380953Y-93226247D01*
X174380953Y-93226247D02*
X174571429Y-93226247D01*
X174571429Y-93226247D02*
X174666667Y-93178628D01*
X174666667Y-93178628D02*
X174714286Y-93083389D01*
X174714286Y-93083389D02*
X174714286Y-92702437D01*
X174714286Y-92702437D02*
X174666667Y-92607199D01*
X174666667Y-92607199D02*
X174571429Y-92559580D01*
X174571429Y-92559580D02*
X174380953Y-92559580D01*
X174380953Y-92559580D02*
X174285715Y-92607199D01*
X174285715Y-92607199D02*
X174238096Y-92702437D01*
X174238096Y-92702437D02*
X174238096Y-92797675D01*
X174238096Y-92797675D02*
X174714286Y-92892913D01*
X173666667Y-93226247D02*
X173761905Y-93178628D01*
X173761905Y-93178628D02*
X173809524Y-93083389D01*
X173809524Y-93083389D02*
X173809524Y-92226247D01*
X172904762Y-93178628D02*
X173000000Y-93226247D01*
X173000000Y-93226247D02*
X173190476Y-93226247D01*
X173190476Y-93226247D02*
X173285714Y-93178628D01*
X173285714Y-93178628D02*
X173333333Y-93083389D01*
X173333333Y-93083389D02*
X173333333Y-92702437D01*
X173333333Y-92702437D02*
X173285714Y-92607199D01*
X173285714Y-92607199D02*
X173190476Y-92559580D01*
X173190476Y-92559580D02*
X173000000Y-92559580D01*
X173000000Y-92559580D02*
X172904762Y-92607199D01*
X172904762Y-92607199D02*
X172857143Y-92702437D01*
X172857143Y-92702437D02*
X172857143Y-92797675D01*
X172857143Y-92797675D02*
X173333333Y-92892913D01*
X172428571Y-93226247D02*
X172428571Y-92559580D01*
X172428571Y-92750056D02*
X172380952Y-92654818D01*
X172380952Y-92654818D02*
X172333333Y-92607199D01*
X172333333Y-92607199D02*
X172238095Y-92559580D01*
X172238095Y-92559580D02*
X172142857Y-92559580D01*
X171666666Y-93226247D02*
X171761904Y-93178628D01*
X171761904Y-93178628D02*
X171809523Y-93131008D01*
X171809523Y-93131008D02*
X171857142Y-93035770D01*
X171857142Y-93035770D02*
X171857142Y-92750056D01*
X171857142Y-92750056D02*
X171809523Y-92654818D01*
X171809523Y-92654818D02*
X171761904Y-92607199D01*
X171761904Y-92607199D02*
X171666666Y-92559580D01*
X171666666Y-92559580D02*
X171523809Y-92559580D01*
X171523809Y-92559580D02*
X171428571Y-92607199D01*
X171428571Y-92607199D02*
X171380952Y-92654818D01*
X171380952Y-92654818D02*
X171333333Y-92750056D01*
X171333333Y-92750056D02*
X171333333Y-93035770D01*
X171333333Y-93035770D02*
X171380952Y-93131008D01*
X171380952Y-93131008D02*
X171428571Y-93178628D01*
X171428571Y-93178628D02*
X171523809Y-93226247D01*
X171523809Y-93226247D02*
X171666666Y-93226247D01*
X170904761Y-93226247D02*
X170904761Y-92559580D01*
X170904761Y-92654818D02*
X170857142Y-92607199D01*
X170857142Y-92607199D02*
X170761904Y-92559580D01*
X170761904Y-92559580D02*
X170619047Y-92559580D01*
X170619047Y-92559580D02*
X170523809Y-92607199D01*
X170523809Y-92607199D02*
X170476190Y-92702437D01*
X170476190Y-92702437D02*
X170476190Y-93226247D01*
X170476190Y-92702437D02*
X170428571Y-92607199D01*
X170428571Y-92607199D02*
X170333333Y-92559580D01*
X170333333Y-92559580D02*
X170190476Y-92559580D01*
X170190476Y-92559580D02*
X170095237Y-92607199D01*
X170095237Y-92607199D02*
X170047618Y-92702437D01*
X170047618Y-92702437D02*
X170047618Y-93226247D01*
X169190476Y-93178628D02*
X169285714Y-93226247D01*
X169285714Y-93226247D02*
X169476190Y-93226247D01*
X169476190Y-93226247D02*
X169571428Y-93178628D01*
X169571428Y-93178628D02*
X169619047Y-93083389D01*
X169619047Y-93083389D02*
X169619047Y-92702437D01*
X169619047Y-92702437D02*
X169571428Y-92607199D01*
X169571428Y-92607199D02*
X169476190Y-92559580D01*
X169476190Y-92559580D02*
X169285714Y-92559580D01*
X169285714Y-92559580D02*
X169190476Y-92607199D01*
X169190476Y-92607199D02*
X169142857Y-92702437D01*
X169142857Y-92702437D02*
X169142857Y-92797675D01*
X169142857Y-92797675D02*
X169619047Y-92892913D01*
X168857142Y-92559580D02*
X168476190Y-92559580D01*
X168714285Y-92226247D02*
X168714285Y-93083389D01*
X168714285Y-93083389D02*
X168666666Y-93178628D01*
X168666666Y-93178628D02*
X168571428Y-93226247D01*
X168571428Y-93226247D02*
X168476190Y-93226247D01*
X167761904Y-93178628D02*
X167857142Y-93226247D01*
X167857142Y-93226247D02*
X168047618Y-93226247D01*
X168047618Y-93226247D02*
X168142856Y-93178628D01*
X168142856Y-93178628D02*
X168190475Y-93083389D01*
X168190475Y-93083389D02*
X168190475Y-92702437D01*
X168190475Y-92702437D02*
X168142856Y-92607199D01*
X168142856Y-92607199D02*
X168047618Y-92559580D01*
X168047618Y-92559580D02*
X167857142Y-92559580D01*
X167857142Y-92559580D02*
X167761904Y-92607199D01*
X167761904Y-92607199D02*
X167714285Y-92702437D01*
X167714285Y-92702437D02*
X167714285Y-92797675D01*
X167714285Y-92797675D02*
X168190475Y-92892913D01*
X167285713Y-93226247D02*
X167285713Y-92559580D01*
X167285713Y-92750056D02*
X167238094Y-92654818D01*
X167238094Y-92654818D02*
X167190475Y-92607199D01*
X167190475Y-92607199D02*
X167095237Y-92559580D01*
X167095237Y-92559580D02*
X166999999Y-92559580D01*
X165095236Y-93226247D02*
X165142856Y-93226247D01*
X165142856Y-93226247D02*
X165238094Y-93178628D01*
X165238094Y-93178628D02*
X165380951Y-93035770D01*
X165380951Y-93035770D02*
X165619046Y-92750056D01*
X165619046Y-92750056D02*
X165714284Y-92607199D01*
X165714284Y-92607199D02*
X165761903Y-92464342D01*
X165761903Y-92464342D02*
X165761903Y-92369104D01*
X165761903Y-92369104D02*
X165714284Y-92273866D01*
X165714284Y-92273866D02*
X165619046Y-92226247D01*
X165619046Y-92226247D02*
X165571427Y-92226247D01*
X165571427Y-92226247D02*
X165476189Y-92273866D01*
X165476189Y-92273866D02*
X165428570Y-92369104D01*
X165428570Y-92369104D02*
X165428570Y-92416723D01*
X165428570Y-92416723D02*
X165476189Y-92511961D01*
X165476189Y-92511961D02*
X165523808Y-92559580D01*
X165523808Y-92559580D02*
X165809522Y-92750056D01*
X165809522Y-92750056D02*
X165857141Y-92797675D01*
X165857141Y-92797675D02*
X165904760Y-92892913D01*
X165904760Y-92892913D02*
X165904760Y-93035770D01*
X165904760Y-93035770D02*
X165857141Y-93131008D01*
X165857141Y-93131008D02*
X165809522Y-93178628D01*
X165809522Y-93178628D02*
X165714284Y-93226247D01*
X165714284Y-93226247D02*
X165571427Y-93226247D01*
X165571427Y-93226247D02*
X165476189Y-93178628D01*
X165476189Y-93178628D02*
X165428570Y-93131008D01*
X165428570Y-93131008D02*
X165285713Y-92940532D01*
X165285713Y-92940532D02*
X165238094Y-92797675D01*
X165238094Y-92797675D02*
X165238094Y-92702437D01*
X163380951Y-92273866D02*
X163476189Y-92226247D01*
X163476189Y-92226247D02*
X163619046Y-92226247D01*
X163619046Y-92226247D02*
X163761903Y-92273866D01*
X163761903Y-92273866D02*
X163857141Y-92369104D01*
X163857141Y-92369104D02*
X163904760Y-92464342D01*
X163904760Y-92464342D02*
X163952379Y-92654818D01*
X163952379Y-92654818D02*
X163952379Y-92797675D01*
X163952379Y-92797675D02*
X163904760Y-92988151D01*
X163904760Y-92988151D02*
X163857141Y-93083389D01*
X163857141Y-93083389D02*
X163761903Y-93178628D01*
X163761903Y-93178628D02*
X163619046Y-93226247D01*
X163619046Y-93226247D02*
X163523808Y-93226247D01*
X163523808Y-93226247D02*
X163380951Y-93178628D01*
X163380951Y-93178628D02*
X163333332Y-93131008D01*
X163333332Y-93131008D02*
X163333332Y-92797675D01*
X163333332Y-92797675D02*
X163523808Y-92797675D01*
X162999998Y-92559580D02*
X162761903Y-93226247D01*
X162523808Y-92559580D02*
X162761903Y-93226247D01*
X162761903Y-93226247D02*
X162857141Y-93464342D01*
X162857141Y-93464342D02*
X162904760Y-93511961D01*
X162904760Y-93511961D02*
X162999998Y-93559580D01*
X162142855Y-93226247D02*
X162142855Y-92559580D01*
X162142855Y-92750056D02*
X162095236Y-92654818D01*
X162095236Y-92654818D02*
X162047617Y-92607199D01*
X162047617Y-92607199D02*
X161952379Y-92559580D01*
X161952379Y-92559580D02*
X161857141Y-92559580D01*
X161380950Y-93226247D02*
X161476188Y-93178628D01*
X161476188Y-93178628D02*
X161523807Y-93131008D01*
X161523807Y-93131008D02*
X161571426Y-93035770D01*
X161571426Y-93035770D02*
X161571426Y-92750056D01*
X161571426Y-92750056D02*
X161523807Y-92654818D01*
X161523807Y-92654818D02*
X161476188Y-92607199D01*
X161476188Y-92607199D02*
X161380950Y-92559580D01*
X161380950Y-92559580D02*
X161238093Y-92559580D01*
X161238093Y-92559580D02*
X161142855Y-92607199D01*
X161142855Y-92607199D02*
X161095236Y-92654818D01*
X161095236Y-92654818D02*
X161047617Y-92750056D01*
X161047617Y-92750056D02*
X161047617Y-93035770D01*
X161047617Y-93035770D02*
X161095236Y-93131008D01*
X161095236Y-93131008D02*
X161142855Y-93178628D01*
X161142855Y-93178628D02*
X161238093Y-93226247D01*
X161238093Y-93226247D02*
X161380950Y-93226247D01*
X160666664Y-93178628D02*
X160571426Y-93226247D01*
X160571426Y-93226247D02*
X160380950Y-93226247D01*
X160380950Y-93226247D02*
X160285712Y-93178628D01*
X160285712Y-93178628D02*
X160238093Y-93083389D01*
X160238093Y-93083389D02*
X160238093Y-93035770D01*
X160238093Y-93035770D02*
X160285712Y-92940532D01*
X160285712Y-92940532D02*
X160380950Y-92892913D01*
X160380950Y-92892913D02*
X160523807Y-92892913D01*
X160523807Y-92892913D02*
X160619045Y-92845294D01*
X160619045Y-92845294D02*
X160666664Y-92750056D01*
X160666664Y-92750056D02*
X160666664Y-92702437D01*
X160666664Y-92702437D02*
X160619045Y-92607199D01*
X160619045Y-92607199D02*
X160523807Y-92559580D01*
X160523807Y-92559580D02*
X160380950Y-92559580D01*
X160380950Y-92559580D02*
X160285712Y-92607199D01*
X159380950Y-93178628D02*
X159476188Y-93226247D01*
X159476188Y-93226247D02*
X159666664Y-93226247D01*
X159666664Y-93226247D02*
X159761902Y-93178628D01*
X159761902Y-93178628D02*
X159809521Y-93131008D01*
X159809521Y-93131008D02*
X159857140Y-93035770D01*
X159857140Y-93035770D02*
X159857140Y-92750056D01*
X159857140Y-92750056D02*
X159809521Y-92654818D01*
X159809521Y-92654818D02*
X159761902Y-92607199D01*
X159761902Y-92607199D02*
X159666664Y-92559580D01*
X159666664Y-92559580D02*
X159476188Y-92559580D01*
X159476188Y-92559580D02*
X159380950Y-92607199D01*
X158809521Y-93226247D02*
X158904759Y-93178628D01*
X158904759Y-93178628D02*
X158952378Y-93131008D01*
X158952378Y-93131008D02*
X158999997Y-93035770D01*
X158999997Y-93035770D02*
X158999997Y-92750056D01*
X158999997Y-92750056D02*
X158952378Y-92654818D01*
X158952378Y-92654818D02*
X158904759Y-92607199D01*
X158904759Y-92607199D02*
X158809521Y-92559580D01*
X158809521Y-92559580D02*
X158666664Y-92559580D01*
X158666664Y-92559580D02*
X158571426Y-92607199D01*
X158571426Y-92607199D02*
X158523807Y-92654818D01*
X158523807Y-92654818D02*
X158476188Y-92750056D01*
X158476188Y-92750056D02*
X158476188Y-93035770D01*
X158476188Y-93035770D02*
X158523807Y-93131008D01*
X158523807Y-93131008D02*
X158571426Y-93178628D01*
X158571426Y-93178628D02*
X158666664Y-93226247D01*
X158666664Y-93226247D02*
X158809521Y-93226247D01*
X158047616Y-92559580D02*
X158047616Y-93559580D01*
X158047616Y-92607199D02*
X157952378Y-92559580D01*
X157952378Y-92559580D02*
X157761902Y-92559580D01*
X157761902Y-92559580D02*
X157666664Y-92607199D01*
X157666664Y-92607199D02*
X157619045Y-92654818D01*
X157619045Y-92654818D02*
X157571426Y-92750056D01*
X157571426Y-92750056D02*
X157571426Y-93035770D01*
X157571426Y-93035770D02*
X157619045Y-93131008D01*
X157619045Y-93131008D02*
X157666664Y-93178628D01*
X157666664Y-93178628D02*
X157761902Y-93226247D01*
X157761902Y-93226247D02*
X157952378Y-93226247D01*
X157952378Y-93226247D02*
X158047616Y-93178628D01*
X156761902Y-93178628D02*
X156857140Y-93226247D01*
X156857140Y-93226247D02*
X157047616Y-93226247D01*
X157047616Y-93226247D02*
X157142854Y-93178628D01*
X157142854Y-93178628D02*
X157190473Y-93083389D01*
X157190473Y-93083389D02*
X157190473Y-92702437D01*
X157190473Y-92702437D02*
X157142854Y-92607199D01*
X157142854Y-92607199D02*
X157047616Y-92559580D01*
X157047616Y-92559580D02*
X156857140Y-92559580D01*
X156857140Y-92559580D02*
X156761902Y-92607199D01*
X156761902Y-92607199D02*
X156714283Y-92702437D01*
X156714283Y-92702437D02*
X156714283Y-92797675D01*
X156714283Y-92797675D02*
X157190473Y-92892913D01*
X180619047Y-94836191D02*
X180619047Y-93836191D01*
X179571429Y-94740952D02*
X179619048Y-94788572D01*
X179619048Y-94788572D02*
X179761905Y-94836191D01*
X179761905Y-94836191D02*
X179857143Y-94836191D01*
X179857143Y-94836191D02*
X180000000Y-94788572D01*
X180000000Y-94788572D02*
X180095238Y-94693333D01*
X180095238Y-94693333D02*
X180142857Y-94598095D01*
X180142857Y-94598095D02*
X180190476Y-94407619D01*
X180190476Y-94407619D02*
X180190476Y-94264762D01*
X180190476Y-94264762D02*
X180142857Y-94074286D01*
X180142857Y-94074286D02*
X180095238Y-93979048D01*
X180095238Y-93979048D02*
X180000000Y-93883810D01*
X180000000Y-93883810D02*
X179857143Y-93836191D01*
X179857143Y-93836191D02*
X179761905Y-93836191D01*
X179761905Y-93836191D02*
X179619048Y-93883810D01*
X179619048Y-93883810D02*
X179571429Y-93931429D01*
X179142857Y-94836191D02*
X179142857Y-93836191D01*
X179142857Y-93836191D02*
X178809524Y-94550476D01*
X178809524Y-94550476D02*
X178476191Y-93836191D01*
X178476191Y-93836191D02*
X178476191Y-94836191D01*
X178000000Y-94455238D02*
X177238096Y-94455238D01*
X176333334Y-94169524D02*
X176333334Y-94836191D01*
X176571429Y-93788572D02*
X176809524Y-94502857D01*
X176809524Y-94502857D02*
X176190477Y-94502857D01*
X175857143Y-93931429D02*
X175809524Y-93883810D01*
X175809524Y-93883810D02*
X175714286Y-93836191D01*
X175714286Y-93836191D02*
X175476191Y-93836191D01*
X175476191Y-93836191D02*
X175380953Y-93883810D01*
X175380953Y-93883810D02*
X175333334Y-93931429D01*
X175333334Y-93931429D02*
X175285715Y-94026667D01*
X175285715Y-94026667D02*
X175285715Y-94121905D01*
X175285715Y-94121905D02*
X175333334Y-94264762D01*
X175333334Y-94264762D02*
X175904762Y-94836191D01*
X175904762Y-94836191D02*
X175285715Y-94836191D01*
X174428572Y-93836191D02*
X174619048Y-93836191D01*
X174619048Y-93836191D02*
X174714286Y-93883810D01*
X174714286Y-93883810D02*
X174761905Y-93931429D01*
X174761905Y-93931429D02*
X174857143Y-94074286D01*
X174857143Y-94074286D02*
X174904762Y-94264762D01*
X174904762Y-94264762D02*
X174904762Y-94645714D01*
X174904762Y-94645714D02*
X174857143Y-94740952D01*
X174857143Y-94740952D02*
X174809524Y-94788572D01*
X174809524Y-94788572D02*
X174714286Y-94836191D01*
X174714286Y-94836191D02*
X174523810Y-94836191D01*
X174523810Y-94836191D02*
X174428572Y-94788572D01*
X174428572Y-94788572D02*
X174380953Y-94740952D01*
X174380953Y-94740952D02*
X174333334Y-94645714D01*
X174333334Y-94645714D02*
X174333334Y-94407619D01*
X174333334Y-94407619D02*
X174380953Y-94312381D01*
X174380953Y-94312381D02*
X174428572Y-94264762D01*
X174428572Y-94264762D02*
X174523810Y-94217143D01*
X174523810Y-94217143D02*
X174714286Y-94217143D01*
X174714286Y-94217143D02*
X174809524Y-94264762D01*
X174809524Y-94264762D02*
X174857143Y-94312381D01*
X174857143Y-94312381D02*
X174904762Y-94407619D01*
X173761905Y-94264762D02*
X173857143Y-94217143D01*
X173857143Y-94217143D02*
X173904762Y-94169524D01*
X173904762Y-94169524D02*
X173952381Y-94074286D01*
X173952381Y-94074286D02*
X173952381Y-94026667D01*
X173952381Y-94026667D02*
X173904762Y-93931429D01*
X173904762Y-93931429D02*
X173857143Y-93883810D01*
X173857143Y-93883810D02*
X173761905Y-93836191D01*
X173761905Y-93836191D02*
X173571429Y-93836191D01*
X173571429Y-93836191D02*
X173476191Y-93883810D01*
X173476191Y-93883810D02*
X173428572Y-93931429D01*
X173428572Y-93931429D02*
X173380953Y-94026667D01*
X173380953Y-94026667D02*
X173380953Y-94074286D01*
X173380953Y-94074286D02*
X173428572Y-94169524D01*
X173428572Y-94169524D02*
X173476191Y-94217143D01*
X173476191Y-94217143D02*
X173571429Y-94264762D01*
X173571429Y-94264762D02*
X173761905Y-94264762D01*
X173761905Y-94264762D02*
X173857143Y-94312381D01*
X173857143Y-94312381D02*
X173904762Y-94360000D01*
X173904762Y-94360000D02*
X173952381Y-94455238D01*
X173952381Y-94455238D02*
X173952381Y-94645714D01*
X173952381Y-94645714D02*
X173904762Y-94740952D01*
X173904762Y-94740952D02*
X173857143Y-94788572D01*
X173857143Y-94788572D02*
X173761905Y-94836191D01*
X173761905Y-94836191D02*
X173571429Y-94836191D01*
X173571429Y-94836191D02*
X173476191Y-94788572D01*
X173476191Y-94788572D02*
X173428572Y-94740952D01*
X173428572Y-94740952D02*
X173380953Y-94645714D01*
X173380953Y-94645714D02*
X173380953Y-94455238D01*
X173380953Y-94455238D02*
X173428572Y-94360000D01*
X173428572Y-94360000D02*
X173476191Y-94312381D01*
X173476191Y-94312381D02*
X173571429Y-94264762D01*
X172809524Y-94264762D02*
X172904762Y-94217143D01*
X172904762Y-94217143D02*
X172952381Y-94169524D01*
X172952381Y-94169524D02*
X173000000Y-94074286D01*
X173000000Y-94074286D02*
X173000000Y-94026667D01*
X173000000Y-94026667D02*
X172952381Y-93931429D01*
X172952381Y-93931429D02*
X172904762Y-93883810D01*
X172904762Y-93883810D02*
X172809524Y-93836191D01*
X172809524Y-93836191D02*
X172619048Y-93836191D01*
X172619048Y-93836191D02*
X172523810Y-93883810D01*
X172523810Y-93883810D02*
X172476191Y-93931429D01*
X172476191Y-93931429D02*
X172428572Y-94026667D01*
X172428572Y-94026667D02*
X172428572Y-94074286D01*
X172428572Y-94074286D02*
X172476191Y-94169524D01*
X172476191Y-94169524D02*
X172523810Y-94217143D01*
X172523810Y-94217143D02*
X172619048Y-94264762D01*
X172619048Y-94264762D02*
X172809524Y-94264762D01*
X172809524Y-94264762D02*
X172904762Y-94312381D01*
X172904762Y-94312381D02*
X172952381Y-94360000D01*
X172952381Y-94360000D02*
X173000000Y-94455238D01*
X173000000Y-94455238D02*
X173000000Y-94645714D01*
X173000000Y-94645714D02*
X172952381Y-94740952D01*
X172952381Y-94740952D02*
X172904762Y-94788572D01*
X172904762Y-94788572D02*
X172809524Y-94836191D01*
X172809524Y-94836191D02*
X172619048Y-94836191D01*
X172619048Y-94836191D02*
X172523810Y-94788572D01*
X172523810Y-94788572D02*
X172476191Y-94740952D01*
X172476191Y-94740952D02*
X172428572Y-94645714D01*
X172428572Y-94645714D02*
X172428572Y-94455238D01*
X172428572Y-94455238D02*
X172476191Y-94360000D01*
X172476191Y-94360000D02*
X172523810Y-94312381D01*
X172523810Y-94312381D02*
X172619048Y-94264762D01*
X171285714Y-94788572D02*
X171142857Y-94836191D01*
X171142857Y-94836191D02*
X170904762Y-94836191D01*
X170904762Y-94836191D02*
X170809524Y-94788572D01*
X170809524Y-94788572D02*
X170761905Y-94740952D01*
X170761905Y-94740952D02*
X170714286Y-94645714D01*
X170714286Y-94645714D02*
X170714286Y-94550476D01*
X170714286Y-94550476D02*
X170761905Y-94455238D01*
X170761905Y-94455238D02*
X170809524Y-94407619D01*
X170809524Y-94407619D02*
X170904762Y-94360000D01*
X170904762Y-94360000D02*
X171095238Y-94312381D01*
X171095238Y-94312381D02*
X171190476Y-94264762D01*
X171190476Y-94264762D02*
X171238095Y-94217143D01*
X171238095Y-94217143D02*
X171285714Y-94121905D01*
X171285714Y-94121905D02*
X171285714Y-94026667D01*
X171285714Y-94026667D02*
X171238095Y-93931429D01*
X171238095Y-93931429D02*
X171190476Y-93883810D01*
X171190476Y-93883810D02*
X171095238Y-93836191D01*
X171095238Y-93836191D02*
X170857143Y-93836191D01*
X170857143Y-93836191D02*
X170714286Y-93883810D01*
X170285714Y-94836191D02*
X170285714Y-93836191D01*
X170285714Y-93836191D02*
X169904762Y-93836191D01*
X169904762Y-93836191D02*
X169809524Y-93883810D01*
X169809524Y-93883810D02*
X169761905Y-93931429D01*
X169761905Y-93931429D02*
X169714286Y-94026667D01*
X169714286Y-94026667D02*
X169714286Y-94169524D01*
X169714286Y-94169524D02*
X169761905Y-94264762D01*
X169761905Y-94264762D02*
X169809524Y-94312381D01*
X169809524Y-94312381D02*
X169904762Y-94360000D01*
X169904762Y-94360000D02*
X170285714Y-94360000D01*
X169285714Y-94836191D02*
X169285714Y-93836191D01*
X168095239Y-93788572D02*
X168952381Y-95074286D01*
X167761905Y-94836191D02*
X167761905Y-93836191D01*
X167333334Y-93931429D02*
X167285715Y-93883810D01*
X167285715Y-93883810D02*
X167190477Y-93836191D01*
X167190477Y-93836191D02*
X166952382Y-93836191D01*
X166952382Y-93836191D02*
X166857144Y-93883810D01*
X166857144Y-93883810D02*
X166809525Y-93931429D01*
X166809525Y-93931429D02*
X166761906Y-94026667D01*
X166761906Y-94026667D02*
X166761906Y-94121905D01*
X166761906Y-94121905D02*
X166809525Y-94264762D01*
X166809525Y-94264762D02*
X167380953Y-94836191D01*
X167380953Y-94836191D02*
X166761906Y-94836191D01*
X165761906Y-94740952D02*
X165809525Y-94788572D01*
X165809525Y-94788572D02*
X165952382Y-94836191D01*
X165952382Y-94836191D02*
X166047620Y-94836191D01*
X166047620Y-94836191D02*
X166190477Y-94788572D01*
X166190477Y-94788572D02*
X166285715Y-94693333D01*
X166285715Y-94693333D02*
X166333334Y-94598095D01*
X166333334Y-94598095D02*
X166380953Y-94407619D01*
X166380953Y-94407619D02*
X166380953Y-94264762D01*
X166380953Y-94264762D02*
X166333334Y-94074286D01*
X166333334Y-94074286D02*
X166285715Y-93979048D01*
X166285715Y-93979048D02*
X166190477Y-93883810D01*
X166190477Y-93883810D02*
X166047620Y-93836191D01*
X166047620Y-93836191D02*
X165952382Y-93836191D01*
X165952382Y-93836191D02*
X165809525Y-93883810D01*
X165809525Y-93883810D02*
X165761906Y-93931429D01*
X164238096Y-94312381D02*
X164095239Y-94360000D01*
X164095239Y-94360000D02*
X164047620Y-94407619D01*
X164047620Y-94407619D02*
X164000001Y-94502857D01*
X164000001Y-94502857D02*
X164000001Y-94645714D01*
X164000001Y-94645714D02*
X164047620Y-94740952D01*
X164047620Y-94740952D02*
X164095239Y-94788572D01*
X164095239Y-94788572D02*
X164190477Y-94836191D01*
X164190477Y-94836191D02*
X164571429Y-94836191D01*
X164571429Y-94836191D02*
X164571429Y-93836191D01*
X164571429Y-93836191D02*
X164238096Y-93836191D01*
X164238096Y-93836191D02*
X164142858Y-93883810D01*
X164142858Y-93883810D02*
X164095239Y-93931429D01*
X164095239Y-93931429D02*
X164047620Y-94026667D01*
X164047620Y-94026667D02*
X164047620Y-94121905D01*
X164047620Y-94121905D02*
X164095239Y-94217143D01*
X164095239Y-94217143D02*
X164142858Y-94264762D01*
X164142858Y-94264762D02*
X164238096Y-94312381D01*
X164238096Y-94312381D02*
X164571429Y-94312381D01*
X163571429Y-94836191D02*
X163571429Y-94169524D01*
X163571429Y-94360000D02*
X163523810Y-94264762D01*
X163523810Y-94264762D02*
X163476191Y-94217143D01*
X163476191Y-94217143D02*
X163380953Y-94169524D01*
X163380953Y-94169524D02*
X163285715Y-94169524D01*
X162571429Y-94788572D02*
X162666667Y-94836191D01*
X162666667Y-94836191D02*
X162857143Y-94836191D01*
X162857143Y-94836191D02*
X162952381Y-94788572D01*
X162952381Y-94788572D02*
X163000000Y-94693333D01*
X163000000Y-94693333D02*
X163000000Y-94312381D01*
X163000000Y-94312381D02*
X162952381Y-94217143D01*
X162952381Y-94217143D02*
X162857143Y-94169524D01*
X162857143Y-94169524D02*
X162666667Y-94169524D01*
X162666667Y-94169524D02*
X162571429Y-94217143D01*
X162571429Y-94217143D02*
X162523810Y-94312381D01*
X162523810Y-94312381D02*
X162523810Y-94407619D01*
X162523810Y-94407619D02*
X163000000Y-94502857D01*
X161666667Y-94836191D02*
X161666667Y-94312381D01*
X161666667Y-94312381D02*
X161714286Y-94217143D01*
X161714286Y-94217143D02*
X161809524Y-94169524D01*
X161809524Y-94169524D02*
X162000000Y-94169524D01*
X162000000Y-94169524D02*
X162095238Y-94217143D01*
X161666667Y-94788572D02*
X161761905Y-94836191D01*
X161761905Y-94836191D02*
X162000000Y-94836191D01*
X162000000Y-94836191D02*
X162095238Y-94788572D01*
X162095238Y-94788572D02*
X162142857Y-94693333D01*
X162142857Y-94693333D02*
X162142857Y-94598095D01*
X162142857Y-94598095D02*
X162095238Y-94502857D01*
X162095238Y-94502857D02*
X162000000Y-94455238D01*
X162000000Y-94455238D02*
X161761905Y-94455238D01*
X161761905Y-94455238D02*
X161666667Y-94407619D01*
X161190476Y-94836191D02*
X161190476Y-93836191D01*
X161095238Y-94455238D02*
X160809524Y-94836191D01*
X160809524Y-94169524D02*
X161190476Y-94550476D01*
X160238095Y-94836191D02*
X160333333Y-94788572D01*
X160333333Y-94788572D02*
X160380952Y-94740952D01*
X160380952Y-94740952D02*
X160428571Y-94645714D01*
X160428571Y-94645714D02*
X160428571Y-94360000D01*
X160428571Y-94360000D02*
X160380952Y-94264762D01*
X160380952Y-94264762D02*
X160333333Y-94217143D01*
X160333333Y-94217143D02*
X160238095Y-94169524D01*
X160238095Y-94169524D02*
X160095238Y-94169524D01*
X160095238Y-94169524D02*
X160000000Y-94217143D01*
X160000000Y-94217143D02*
X159952381Y-94264762D01*
X159952381Y-94264762D02*
X159904762Y-94360000D01*
X159904762Y-94360000D02*
X159904762Y-94645714D01*
X159904762Y-94645714D02*
X159952381Y-94740952D01*
X159952381Y-94740952D02*
X160000000Y-94788572D01*
X160000000Y-94788572D02*
X160095238Y-94836191D01*
X160095238Y-94836191D02*
X160238095Y-94836191D01*
X159047619Y-94169524D02*
X159047619Y-94836191D01*
X159476190Y-94169524D02*
X159476190Y-94693333D01*
X159476190Y-94693333D02*
X159428571Y-94788572D01*
X159428571Y-94788572D02*
X159333333Y-94836191D01*
X159333333Y-94836191D02*
X159190476Y-94836191D01*
X159190476Y-94836191D02*
X159095238Y-94788572D01*
X159095238Y-94788572D02*
X159047619Y-94740952D01*
X158714285Y-94169524D02*
X158333333Y-94169524D01*
X158571428Y-93836191D02*
X158571428Y-94693333D01*
X158571428Y-94693333D02*
X158523809Y-94788572D01*
X158523809Y-94788572D02*
X158428571Y-94836191D01*
X158428571Y-94836191D02*
X158333333Y-94836191D01*
X156904761Y-94312381D02*
X156761904Y-94360000D01*
X156761904Y-94360000D02*
X156714285Y-94407619D01*
X156714285Y-94407619D02*
X156666666Y-94502857D01*
X156666666Y-94502857D02*
X156666666Y-94645714D01*
X156666666Y-94645714D02*
X156714285Y-94740952D01*
X156714285Y-94740952D02*
X156761904Y-94788572D01*
X156761904Y-94788572D02*
X156857142Y-94836191D01*
X156857142Y-94836191D02*
X157238094Y-94836191D01*
X157238094Y-94836191D02*
X157238094Y-93836191D01*
X157238094Y-93836191D02*
X156904761Y-93836191D01*
X156904761Y-93836191D02*
X156809523Y-93883810D01*
X156809523Y-93883810D02*
X156761904Y-93931429D01*
X156761904Y-93931429D02*
X156714285Y-94026667D01*
X156714285Y-94026667D02*
X156714285Y-94121905D01*
X156714285Y-94121905D02*
X156761904Y-94217143D01*
X156761904Y-94217143D02*
X156809523Y-94264762D01*
X156809523Y-94264762D02*
X156904761Y-94312381D01*
X156904761Y-94312381D02*
X157238094Y-94312381D01*
X156095237Y-94836191D02*
X156190475Y-94788572D01*
X156190475Y-94788572D02*
X156238094Y-94740952D01*
X156238094Y-94740952D02*
X156285713Y-94645714D01*
X156285713Y-94645714D02*
X156285713Y-94360000D01*
X156285713Y-94360000D02*
X156238094Y-94264762D01*
X156238094Y-94264762D02*
X156190475Y-94217143D01*
X156190475Y-94217143D02*
X156095237Y-94169524D01*
X156095237Y-94169524D02*
X155952380Y-94169524D01*
X155952380Y-94169524D02*
X155857142Y-94217143D01*
X155857142Y-94217143D02*
X155809523Y-94264762D01*
X155809523Y-94264762D02*
X155761904Y-94360000D01*
X155761904Y-94360000D02*
X155761904Y-94645714D01*
X155761904Y-94645714D02*
X155809523Y-94740952D01*
X155809523Y-94740952D02*
X155857142Y-94788572D01*
X155857142Y-94788572D02*
X155952380Y-94836191D01*
X155952380Y-94836191D02*
X156095237Y-94836191D01*
X154904761Y-94836191D02*
X154904761Y-94312381D01*
X154904761Y-94312381D02*
X154952380Y-94217143D01*
X154952380Y-94217143D02*
X155047618Y-94169524D01*
X155047618Y-94169524D02*
X155238094Y-94169524D01*
X155238094Y-94169524D02*
X155333332Y-94217143D01*
X154904761Y-94788572D02*
X154999999Y-94836191D01*
X154999999Y-94836191D02*
X155238094Y-94836191D01*
X155238094Y-94836191D02*
X155333332Y-94788572D01*
X155333332Y-94788572D02*
X155380951Y-94693333D01*
X155380951Y-94693333D02*
X155380951Y-94598095D01*
X155380951Y-94598095D02*
X155333332Y-94502857D01*
X155333332Y-94502857D02*
X155238094Y-94455238D01*
X155238094Y-94455238D02*
X154999999Y-94455238D01*
X154999999Y-94455238D02*
X154904761Y-94407619D01*
X154428570Y-94836191D02*
X154428570Y-94169524D01*
X154428570Y-94360000D02*
X154380951Y-94264762D01*
X154380951Y-94264762D02*
X154333332Y-94217143D01*
X154333332Y-94217143D02*
X154238094Y-94169524D01*
X154238094Y-94169524D02*
X154142856Y-94169524D01*
X153380951Y-94836191D02*
X153380951Y-93836191D01*
X153380951Y-94788572D02*
X153476189Y-94836191D01*
X153476189Y-94836191D02*
X153666665Y-94836191D01*
X153666665Y-94836191D02*
X153761903Y-94788572D01*
X153761903Y-94788572D02*
X153809522Y-94740952D01*
X153809522Y-94740952D02*
X153857141Y-94645714D01*
X153857141Y-94645714D02*
X153857141Y-94360000D01*
X153857141Y-94360000D02*
X153809522Y-94264762D01*
X153809522Y-94264762D02*
X153761903Y-94217143D01*
X153761903Y-94217143D02*
X153666665Y-94169524D01*
X153666665Y-94169524D02*
X153476189Y-94169524D01*
X153476189Y-94169524D02*
X153380951Y-94217143D01*
M02*
