%TF.GenerationSoftware,KiCad,Pcbnew,8.0.3*%
%TF.CreationDate,2024-12-25T16:19:31+08:00*%
%TF.ProjectId,ICM-42688_Panelized,49434d2d-3432-4363-9838-5f50616e656c,rev?*%
%TF.SameCoordinates,Original*%
%TF.FileFunction,Paste,Top*%
%TF.FilePolarity,Positive*%
%FSLAX46Y46*%
G04 Gerber Fmt 4.6, Leading zero omitted, Abs format (unit mm)*
G04 Created by KiCad (PCBNEW 8.0.3) date 2024-12-25 16:19:31*
%MOMM*%
%LPD*%
G01*
G04 APERTURE LIST*
G04 Aperture macros list*
%AMRoundRect*
0 Rectangle with rounded corners*
0 $1 Rounding radius*
0 $2 $3 $4 $5 $6 $7 $8 $9 X,Y pos of 4 corners*
0 Add a 4 corners polygon primitive as box body*
4,1,4,$2,$3,$4,$5,$6,$7,$8,$9,$2,$3,0*
0 Add four circle primitives for the rounded corners*
1,1,$1+$1,$2,$3*
1,1,$1+$1,$4,$5*
1,1,$1+$1,$6,$7*
1,1,$1+$1,$8,$9*
0 Add four rect primitives between the rounded corners*
20,1,$1+$1,$2,$3,$4,$5,0*
20,1,$1+$1,$4,$5,$6,$7,0*
20,1,$1+$1,$6,$7,$8,$9,0*
20,1,$1+$1,$8,$9,$2,$3,0*%
G04 Aperture macros list end*
%ADD10RoundRect,0.200000X0.200000X0.275000X-0.200000X0.275000X-0.200000X-0.275000X0.200000X-0.275000X0*%
%ADD11RoundRect,0.225000X-0.225000X-0.375000X0.225000X-0.375000X0.225000X0.375000X-0.225000X0.375000X0*%
%ADD12RoundRect,0.375000X0.625000X0.375000X-0.625000X0.375000X-0.625000X-0.375000X0.625000X-0.375000X0*%
%ADD13RoundRect,0.500000X0.500000X1.400000X-0.500000X1.400000X-0.500000X-1.400000X0.500000X-1.400000X0*%
%ADD14RoundRect,0.225000X0.375000X-0.225000X0.375000X0.225000X-0.375000X0.225000X-0.375000X-0.225000X0*%
%ADD15RoundRect,0.200000X-0.200000X-0.275000X0.200000X-0.275000X0.200000X0.275000X-0.200000X0.275000X0*%
%ADD16RoundRect,0.225000X-0.250000X0.225000X-0.250000X-0.225000X0.250000X-0.225000X0.250000X0.225000X0*%
%ADD17RoundRect,0.250000X0.925000X-0.412500X0.925000X0.412500X-0.925000X0.412500X-0.925000X-0.412500X0*%
%ADD18RoundRect,0.150000X-0.587500X-0.150000X0.587500X-0.150000X0.587500X0.150000X-0.587500X0.150000X0*%
%ADD19RoundRect,0.200000X-0.275000X0.200000X-0.275000X-0.200000X0.275000X-0.200000X0.275000X0.200000X0*%
%ADD20RoundRect,0.150000X0.587500X0.150000X-0.587500X0.150000X-0.587500X-0.150000X0.587500X-0.150000X0*%
%ADD21RoundRect,0.218750X0.218750X0.256250X-0.218750X0.256250X-0.218750X-0.256250X0.218750X-0.256250X0*%
%ADD22RoundRect,0.087500X-0.225000X-0.087500X0.225000X-0.087500X0.225000X0.087500X-0.225000X0.087500X0*%
%ADD23RoundRect,0.087500X-0.087500X-0.225000X0.087500X-0.225000X0.087500X0.225000X-0.087500X0.225000X0*%
%ADD24RoundRect,0.250000X0.412500X0.925000X-0.412500X0.925000X-0.412500X-0.925000X0.412500X-0.925000X0*%
G04 APERTURE END LIST*
D10*
%TO.C,R7*%
X177895000Y-63690000D03*
X176245000Y-63690000D03*
%TD*%
D11*
%TO.C,D3*%
X170900000Y-44460000D03*
X174200000Y-44460000D03*
%TD*%
D12*
%TO.C,U1*%
X158460000Y-72210000D03*
X158460000Y-69910000D03*
D13*
X152160000Y-69910000D03*
D12*
X158460000Y-67610000D03*
%TD*%
D10*
%TO.C,R5*%
X177895000Y-39250000D03*
X176245000Y-39250000D03*
%TD*%
%TO.C,R6*%
X177895000Y-34750000D03*
X176245000Y-34750000D03*
%TD*%
D14*
%TO.C,D1*%
X156160000Y-37607500D03*
X156160000Y-34307500D03*
%TD*%
D15*
%TO.C,R4*%
X163870000Y-95190000D03*
X165520000Y-95190000D03*
%TD*%
D16*
%TO.C,C7*%
X161060000Y-71330000D03*
X161060000Y-72880000D03*
%TD*%
D17*
%TO.C,C5*%
X152560000Y-91495000D03*
X152560000Y-88420000D03*
%TD*%
D12*
%TO.C,U1*%
X121460000Y-99210000D03*
X121460000Y-96910000D03*
D13*
X115160000Y-96910000D03*
D12*
X121460000Y-94610000D03*
%TD*%
D18*
%TO.C,Q3*%
X167492500Y-39270000D03*
X167492500Y-41170000D03*
X169367500Y-40220000D03*
%TD*%
D19*
%TO.C,R1*%
X181260000Y-64535000D03*
X181260000Y-66185000D03*
%TD*%
D15*
%TO.C,R3*%
X126870000Y-90690000D03*
X128520000Y-90690000D03*
%TD*%
D10*
%TO.C,R6*%
X177895000Y-61750000D03*
X176245000Y-61750000D03*
%TD*%
D15*
%TO.C,R3*%
X126870000Y-63690000D03*
X128520000Y-63690000D03*
%TD*%
D17*
%TO.C,C1*%
X122720000Y-64495000D03*
X122720000Y-61420000D03*
%TD*%
D20*
%TO.C,Q1*%
X174300000Y-36670000D03*
X174300000Y-34770000D03*
X172425000Y-35720000D03*
%TD*%
D15*
%TO.C,R4*%
X163870000Y-68190000D03*
X165520000Y-68190000D03*
%TD*%
%TO.C,R9*%
X126870000Y-39250000D03*
X128520000Y-39250000D03*
%TD*%
D16*
%TO.C,C6*%
X170060000Y-75160000D03*
X170060000Y-76710000D03*
%TD*%
D10*
%TO.C,R5*%
X177895000Y-93250000D03*
X176245000Y-93250000D03*
%TD*%
%TO.C,R2*%
X182085000Y-60100000D03*
X180435000Y-60100000D03*
%TD*%
D18*
%TO.C,Q2*%
X130492500Y-61770000D03*
X130492500Y-63670000D03*
X132367500Y-62720000D03*
%TD*%
D15*
%TO.C,R8*%
X126870000Y-61750000D03*
X128520000Y-61750000D03*
%TD*%
D11*
%TO.C,D3*%
X133900000Y-71460000D03*
X137200000Y-71460000D03*
%TD*%
D16*
%TO.C,C6*%
X170060000Y-102160000D03*
X170060000Y-103710000D03*
%TD*%
D21*
%TO.C,D2*%
X182027500Y-62300000D03*
X180452500Y-62300000D03*
%TD*%
D10*
%TO.C,R6*%
X140895000Y-88750000D03*
X139245000Y-88750000D03*
%TD*%
D17*
%TO.C,C1*%
X159720000Y-64495000D03*
X159720000Y-61420000D03*
%TD*%
D22*
%TO.C,U2*%
X127877500Y-70762500D03*
X127877500Y-71262500D03*
X127877500Y-71762500D03*
X127877500Y-72262500D03*
D23*
X128540000Y-72425000D03*
X129040000Y-72425000D03*
X129540000Y-72425000D03*
D22*
X130202500Y-72262500D03*
X130202500Y-71762500D03*
X130202500Y-71262500D03*
X130202500Y-70762500D03*
D23*
X129540000Y-70600000D03*
X129040000Y-70600000D03*
X128540000Y-70600000D03*
%TD*%
D19*
%TO.C,R1*%
X144260000Y-64535000D03*
X144260000Y-66185000D03*
%TD*%
D20*
%TO.C,Q4*%
X137300000Y-95170000D03*
X137300000Y-93270000D03*
X135425000Y-94220000D03*
%TD*%
D15*
%TO.C,R9*%
X126870000Y-66250000D03*
X128520000Y-66250000D03*
%TD*%
D21*
%TO.C,D2*%
X145027500Y-62300000D03*
X143452500Y-62300000D03*
%TD*%
D10*
%TO.C,R2*%
X182085000Y-87100000D03*
X180435000Y-87100000D03*
%TD*%
D15*
%TO.C,R4*%
X126870000Y-41190000D03*
X128520000Y-41190000D03*
%TD*%
D11*
%TO.C,D3*%
X170900000Y-71460000D03*
X174200000Y-71460000D03*
%TD*%
D20*
%TO.C,Q1*%
X137300000Y-90670000D03*
X137300000Y-88770000D03*
X135425000Y-89720000D03*
%TD*%
D10*
%TO.C,R6*%
X177895000Y-88750000D03*
X176245000Y-88750000D03*
%TD*%
%TO.C,R5*%
X140895000Y-93250000D03*
X139245000Y-93250000D03*
%TD*%
D18*
%TO.C,Q2*%
X130492500Y-34770000D03*
X130492500Y-36670000D03*
X132367500Y-35720000D03*
%TD*%
D22*
%TO.C,U2*%
X164877500Y-43762500D03*
X164877500Y-44262500D03*
X164877500Y-44762500D03*
X164877500Y-45262500D03*
D23*
X165540000Y-45425000D03*
X166040000Y-45425000D03*
X166540000Y-45425000D03*
D22*
X167202500Y-45262500D03*
X167202500Y-44762500D03*
X167202500Y-44262500D03*
X167202500Y-43762500D03*
D23*
X166540000Y-43600000D03*
X166040000Y-43600000D03*
X165540000Y-43600000D03*
%TD*%
D14*
%TO.C,D1*%
X119160000Y-37607500D03*
X119160000Y-34307500D03*
%TD*%
D10*
%TO.C,R7*%
X140895000Y-90690000D03*
X139245000Y-90690000D03*
%TD*%
%TO.C,R6*%
X140895000Y-61750000D03*
X139245000Y-61750000D03*
%TD*%
%TO.C,R10*%
X177895000Y-95190000D03*
X176245000Y-95190000D03*
%TD*%
D12*
%TO.C,U1*%
X158460000Y-45210000D03*
X158460000Y-42910000D03*
D13*
X152160000Y-42910000D03*
D12*
X158460000Y-40610000D03*
%TD*%
D10*
%TO.C,R7*%
X140895000Y-63690000D03*
X139245000Y-63690000D03*
%TD*%
D16*
%TO.C,C6*%
X133060000Y-48160000D03*
X133060000Y-49710000D03*
%TD*%
D11*
%TO.C,D3*%
X133900000Y-44460000D03*
X137200000Y-44460000D03*
%TD*%
D10*
%TO.C,R5*%
X140895000Y-66250000D03*
X139245000Y-66250000D03*
%TD*%
D15*
%TO.C,R8*%
X163870000Y-88750000D03*
X165520000Y-88750000D03*
%TD*%
D16*
%TO.C,C6*%
X170060000Y-48160000D03*
X170060000Y-49710000D03*
%TD*%
D10*
%TO.C,R5*%
X140895000Y-39250000D03*
X139245000Y-39250000D03*
%TD*%
%TO.C,R10*%
X140895000Y-41190000D03*
X139245000Y-41190000D03*
%TD*%
%TO.C,R6*%
X140895000Y-34750000D03*
X139245000Y-34750000D03*
%TD*%
%TO.C,R10*%
X140895000Y-68190000D03*
X139245000Y-68190000D03*
%TD*%
D19*
%TO.C,R1*%
X181260000Y-37535000D03*
X181260000Y-39185000D03*
%TD*%
D15*
%TO.C,R3*%
X163870000Y-63690000D03*
X165520000Y-63690000D03*
%TD*%
D16*
%TO.C,C4*%
X167960000Y-75160000D03*
X167960000Y-76710000D03*
%TD*%
D14*
%TO.C,D1*%
X119160000Y-64607500D03*
X119160000Y-61307500D03*
%TD*%
D22*
%TO.C,U2*%
X164877500Y-97762500D03*
X164877500Y-98262500D03*
X164877500Y-98762500D03*
X164877500Y-99262500D03*
D23*
X165540000Y-99425000D03*
X166040000Y-99425000D03*
X166540000Y-99425000D03*
D22*
X167202500Y-99262500D03*
X167202500Y-98762500D03*
X167202500Y-98262500D03*
X167202500Y-97762500D03*
D23*
X166540000Y-97600000D03*
X166040000Y-97600000D03*
X165540000Y-97600000D03*
%TD*%
D21*
%TO.C,D2*%
X182027500Y-89300000D03*
X180452500Y-89300000D03*
%TD*%
D16*
%TO.C,C7*%
X124060000Y-44330000D03*
X124060000Y-45880000D03*
%TD*%
D15*
%TO.C,R9*%
X163870000Y-93250000D03*
X165520000Y-93250000D03*
%TD*%
D19*
%TO.C,R1*%
X181260000Y-91535000D03*
X181260000Y-93185000D03*
%TD*%
D17*
%TO.C,C1*%
X122720000Y-91495000D03*
X122720000Y-88420000D03*
%TD*%
D15*
%TO.C,R9*%
X126870000Y-93250000D03*
X128520000Y-93250000D03*
%TD*%
D17*
%TO.C,C1*%
X159720000Y-91495000D03*
X159720000Y-88420000D03*
%TD*%
D14*
%TO.C,D1*%
X156160000Y-91607500D03*
X156160000Y-88307500D03*
%TD*%
D15*
%TO.C,R4*%
X126870000Y-68190000D03*
X128520000Y-68190000D03*
%TD*%
D12*
%TO.C,U1*%
X121460000Y-45210000D03*
X121460000Y-42910000D03*
D13*
X115160000Y-42910000D03*
D12*
X121460000Y-40610000D03*
%TD*%
D17*
%TO.C,C5*%
X115560000Y-91495000D03*
X115560000Y-88420000D03*
%TD*%
D18*
%TO.C,Q3*%
X167492500Y-66270000D03*
X167492500Y-68170000D03*
X169367500Y-67220000D03*
%TD*%
D20*
%TO.C,Q1*%
X174300000Y-90670000D03*
X174300000Y-88770000D03*
X172425000Y-89720000D03*
%TD*%
D10*
%TO.C,R2*%
X145085000Y-60100000D03*
X143435000Y-60100000D03*
%TD*%
D16*
%TO.C,C2*%
X161060000Y-67360000D03*
X161060000Y-68910000D03*
%TD*%
D17*
%TO.C,C1*%
X122720000Y-37495000D03*
X122720000Y-34420000D03*
%TD*%
D18*
%TO.C,Q2*%
X167492500Y-88770000D03*
X167492500Y-90670000D03*
X169367500Y-89720000D03*
%TD*%
D21*
%TO.C,D2*%
X145027500Y-89300000D03*
X143452500Y-89300000D03*
%TD*%
D18*
%TO.C,Q2*%
X167492500Y-34770000D03*
X167492500Y-36670000D03*
X169367500Y-35720000D03*
%TD*%
D11*
%TO.C,D3*%
X170900000Y-98460000D03*
X174200000Y-98460000D03*
%TD*%
D16*
%TO.C,C2*%
X124060000Y-40360000D03*
X124060000Y-41910000D03*
%TD*%
%TO.C,C7*%
X161060000Y-98330000D03*
X161060000Y-99880000D03*
%TD*%
D10*
%TO.C,R5*%
X177895000Y-66250000D03*
X176245000Y-66250000D03*
%TD*%
D19*
%TO.C,R1*%
X144260000Y-37535000D03*
X144260000Y-39185000D03*
%TD*%
D10*
%TO.C,R10*%
X140895000Y-95190000D03*
X139245000Y-95190000D03*
%TD*%
D16*
%TO.C,C6*%
X133060000Y-102160000D03*
X133060000Y-103710000D03*
%TD*%
D17*
%TO.C,C5*%
X115560000Y-64495000D03*
X115560000Y-61420000D03*
%TD*%
D15*
%TO.C,R8*%
X163870000Y-34750000D03*
X165520000Y-34750000D03*
%TD*%
D12*
%TO.C,U1*%
X158460000Y-99210000D03*
X158460000Y-96910000D03*
D13*
X152160000Y-96910000D03*
D12*
X158460000Y-94610000D03*
%TD*%
D17*
%TO.C,C1*%
X159720000Y-37495000D03*
X159720000Y-34420000D03*
%TD*%
D20*
%TO.C,Q4*%
X174300000Y-68170000D03*
X174300000Y-66270000D03*
X172425000Y-67220000D03*
%TD*%
D16*
%TO.C,C4*%
X167960000Y-48160000D03*
X167960000Y-49710000D03*
%TD*%
D24*
%TO.C,C3*%
X165600000Y-102935000D03*
X162525000Y-102935000D03*
%TD*%
D15*
%TO.C,R3*%
X126870000Y-36690000D03*
X128520000Y-36690000D03*
%TD*%
D16*
%TO.C,C4*%
X130960000Y-102160000D03*
X130960000Y-103710000D03*
%TD*%
D10*
%TO.C,R7*%
X177895000Y-90690000D03*
X176245000Y-90690000D03*
%TD*%
D14*
%TO.C,D1*%
X156160000Y-64607500D03*
X156160000Y-61307500D03*
%TD*%
D24*
%TO.C,C3*%
X128600000Y-75935000D03*
X125525000Y-75935000D03*
%TD*%
D12*
%TO.C,U1*%
X121460000Y-72210000D03*
X121460000Y-69910000D03*
D13*
X115160000Y-69910000D03*
D12*
X121460000Y-67610000D03*
%TD*%
D15*
%TO.C,R9*%
X163870000Y-39250000D03*
X165520000Y-39250000D03*
%TD*%
D20*
%TO.C,Q4*%
X137300000Y-41170000D03*
X137300000Y-39270000D03*
X135425000Y-40220000D03*
%TD*%
D17*
%TO.C,C5*%
X152560000Y-64495000D03*
X152560000Y-61420000D03*
%TD*%
D16*
%TO.C,C2*%
X161060000Y-40360000D03*
X161060000Y-41910000D03*
%TD*%
D15*
%TO.C,R3*%
X163870000Y-36690000D03*
X165520000Y-36690000D03*
%TD*%
%TO.C,R4*%
X163870000Y-41190000D03*
X165520000Y-41190000D03*
%TD*%
D10*
%TO.C,R10*%
X177895000Y-68190000D03*
X176245000Y-68190000D03*
%TD*%
D17*
%TO.C,C5*%
X115560000Y-37495000D03*
X115560000Y-34420000D03*
%TD*%
D10*
%TO.C,R2*%
X145085000Y-87100000D03*
X143435000Y-87100000D03*
%TD*%
D16*
%TO.C,C2*%
X124060000Y-94360000D03*
X124060000Y-95910000D03*
%TD*%
%TO.C,C2*%
X124060000Y-67360000D03*
X124060000Y-68910000D03*
%TD*%
D15*
%TO.C,R4*%
X126870000Y-95190000D03*
X128520000Y-95190000D03*
%TD*%
D21*
%TO.C,D2*%
X145027500Y-35300000D03*
X143452500Y-35300000D03*
%TD*%
D18*
%TO.C,Q3*%
X130492500Y-39270000D03*
X130492500Y-41170000D03*
X132367500Y-40220000D03*
%TD*%
D19*
%TO.C,R1*%
X144260000Y-91535000D03*
X144260000Y-93185000D03*
%TD*%
D22*
%TO.C,U2*%
X127877500Y-97762500D03*
X127877500Y-98262500D03*
X127877500Y-98762500D03*
X127877500Y-99262500D03*
D23*
X128540000Y-99425000D03*
X129040000Y-99425000D03*
X129540000Y-99425000D03*
D22*
X130202500Y-99262500D03*
X130202500Y-98762500D03*
X130202500Y-98262500D03*
X130202500Y-97762500D03*
D23*
X129540000Y-97600000D03*
X129040000Y-97600000D03*
X128540000Y-97600000D03*
%TD*%
D24*
%TO.C,C3*%
X128600000Y-102935000D03*
X125525000Y-102935000D03*
%TD*%
D17*
%TO.C,C5*%
X152560000Y-37495000D03*
X152560000Y-34420000D03*
%TD*%
D15*
%TO.C,R8*%
X163870000Y-61750000D03*
X165520000Y-61750000D03*
%TD*%
D18*
%TO.C,Q3*%
X130492500Y-93270000D03*
X130492500Y-95170000D03*
X132367500Y-94220000D03*
%TD*%
D16*
%TO.C,C7*%
X161060000Y-44330000D03*
X161060000Y-45880000D03*
%TD*%
D22*
%TO.C,U2*%
X164877500Y-70762500D03*
X164877500Y-71262500D03*
X164877500Y-71762500D03*
X164877500Y-72262500D03*
D23*
X165540000Y-72425000D03*
X166040000Y-72425000D03*
X166540000Y-72425000D03*
D22*
X167202500Y-72262500D03*
X167202500Y-71762500D03*
X167202500Y-71262500D03*
X167202500Y-70762500D03*
D23*
X166540000Y-70600000D03*
X166040000Y-70600000D03*
X165540000Y-70600000D03*
%TD*%
D18*
%TO.C,Q3*%
X167492500Y-93270000D03*
X167492500Y-95170000D03*
X169367500Y-94220000D03*
%TD*%
D10*
%TO.C,R10*%
X177895000Y-41190000D03*
X176245000Y-41190000D03*
%TD*%
D16*
%TO.C,C4*%
X130960000Y-48160000D03*
X130960000Y-49710000D03*
%TD*%
D20*
%TO.C,Q4*%
X174300000Y-41170000D03*
X174300000Y-39270000D03*
X172425000Y-40220000D03*
%TD*%
D16*
%TO.C,C7*%
X124060000Y-71330000D03*
X124060000Y-72880000D03*
%TD*%
D18*
%TO.C,Q3*%
X130492500Y-66270000D03*
X130492500Y-68170000D03*
X132367500Y-67220000D03*
%TD*%
D24*
%TO.C,C3*%
X165600000Y-48935000D03*
X162525000Y-48935000D03*
%TD*%
D15*
%TO.C,R8*%
X126870000Y-34750000D03*
X128520000Y-34750000D03*
%TD*%
D20*
%TO.C,Q1*%
X174300000Y-63670000D03*
X174300000Y-61770000D03*
X172425000Y-62720000D03*
%TD*%
D24*
%TO.C,C3*%
X128600000Y-48935000D03*
X125525000Y-48935000D03*
%TD*%
D20*
%TO.C,Q4*%
X174300000Y-95170000D03*
X174300000Y-93270000D03*
X172425000Y-94220000D03*
%TD*%
D15*
%TO.C,R9*%
X163870000Y-66250000D03*
X165520000Y-66250000D03*
%TD*%
%TO.C,R3*%
X163870000Y-90690000D03*
X165520000Y-90690000D03*
%TD*%
D18*
%TO.C,Q2*%
X167492500Y-61770000D03*
X167492500Y-63670000D03*
X169367500Y-62720000D03*
%TD*%
D11*
%TO.C,D3*%
X133900000Y-98460000D03*
X137200000Y-98460000D03*
%TD*%
D14*
%TO.C,D1*%
X119160000Y-91607500D03*
X119160000Y-88307500D03*
%TD*%
D21*
%TO.C,D2*%
X182027500Y-35300000D03*
X180452500Y-35300000D03*
%TD*%
D16*
%TO.C,C7*%
X124060000Y-98330000D03*
X124060000Y-99880000D03*
%TD*%
D10*
%TO.C,R2*%
X145085000Y-33100000D03*
X143435000Y-33100000D03*
%TD*%
D16*
%TO.C,C6*%
X133060000Y-75160000D03*
X133060000Y-76710000D03*
%TD*%
D20*
%TO.C,Q1*%
X137300000Y-36670000D03*
X137300000Y-34770000D03*
X135425000Y-35720000D03*
%TD*%
D22*
%TO.C,U2*%
X127877500Y-43762500D03*
X127877500Y-44262500D03*
X127877500Y-44762500D03*
X127877500Y-45262500D03*
D23*
X128540000Y-45425000D03*
X129040000Y-45425000D03*
X129540000Y-45425000D03*
D22*
X130202500Y-45262500D03*
X130202500Y-44762500D03*
X130202500Y-44262500D03*
X130202500Y-43762500D03*
D23*
X129540000Y-43600000D03*
X129040000Y-43600000D03*
X128540000Y-43600000D03*
%TD*%
D15*
%TO.C,R8*%
X126870000Y-88750000D03*
X128520000Y-88750000D03*
%TD*%
D16*
%TO.C,C4*%
X167960000Y-102160000D03*
X167960000Y-103710000D03*
%TD*%
D24*
%TO.C,C3*%
X165600000Y-75935000D03*
X162525000Y-75935000D03*
%TD*%
D20*
%TO.C,Q1*%
X137300000Y-63670000D03*
X137300000Y-61770000D03*
X135425000Y-62720000D03*
%TD*%
D10*
%TO.C,R7*%
X140895000Y-36690000D03*
X139245000Y-36690000D03*
%TD*%
D16*
%TO.C,C2*%
X161060000Y-94360000D03*
X161060000Y-95910000D03*
%TD*%
D20*
%TO.C,Q4*%
X137300000Y-68170000D03*
X137300000Y-66270000D03*
X135425000Y-67220000D03*
%TD*%
D10*
%TO.C,R2*%
X182085000Y-33100000D03*
X180435000Y-33100000D03*
%TD*%
%TO.C,R7*%
X177895000Y-36690000D03*
X176245000Y-36690000D03*
%TD*%
D16*
%TO.C,C4*%
X130960000Y-75160000D03*
X130960000Y-76710000D03*
%TD*%
D18*
%TO.C,Q2*%
X130492500Y-88770000D03*
X130492500Y-90670000D03*
X132367500Y-89720000D03*
%TD*%
M02*
