M48
; DRILL file {KiCad 8.0.3} date 2025-01-10T12:47:37+0800
; FORMAT={-:-/ absolute / inch / decimal}
; #@! TF.CreationDate,2025-01-10T12:47:37+08:00
; #@! TF.GenerationSoftware,Kicad,Pcbnew,8.0.3
; #@! TF.FileFunction,NonPlated,1,2,NPTH
FMAT,2
INCH
; #@! TA.AperFunction,NonPlated,NPTH,ComponentDrill
T1C0.0197
; #@! TA.AperFunction,NonPlated,NPTH,ComponentDrill
T2C0.0394
; #@! TA.AperFunction,NonPlated,NPTH,ComponentDrill
T3C0.0787
%
G90
G05
T1
X4.4291Y-0.7874
X4.4291Y-0.8202
X4.4291Y-0.853
X4.4291Y-0.8858
X4.4291Y-0.9186
X4.4291Y-0.9514
X4.4291Y-0.9843
X4.4291Y-4.252
X4.4291Y-4.2848
X4.4291Y-4.3176
X4.4291Y-4.3504
X4.4291Y-4.3832
X4.4291Y-4.416
X4.4291Y-4.4488
X4.437Y-1.332
X4.437Y-1.3714
X4.437Y-1.4108
X4.437Y-1.4501
X4.437Y-1.6601
X4.437Y-1.6995
X4.437Y-1.7388
X4.437Y-1.7782
X4.437Y-2.395
X4.437Y-2.4344
X4.437Y-2.4738
X4.437Y-2.5131
X4.437Y-2.7231
X4.437Y-2.7625
X4.437Y-2.8018
X4.437Y-2.8412
X4.437Y-3.458
X4.437Y-3.4974
X4.437Y-3.5367
X4.437Y-3.5761
X4.437Y-3.7861
X4.437Y-3.8255
X4.437Y-3.8648
X4.437Y-3.9042
X4.8294Y-1.0709
X4.8294Y-2.0394
X4.8294Y-2.1339
X4.8294Y-3.1024
X4.8294Y-3.1969
X4.8294Y-4.1654
X4.8688Y-1.0709
X4.8688Y-2.0394
X4.8688Y-2.1339
X4.8688Y-3.1024
X4.8688Y-3.1969
X4.8688Y-4.1654
X4.9081Y-1.0709
X4.9081Y-2.0394
X4.9081Y-2.1339
X4.9081Y-3.1024
X4.9081Y-3.1969
X4.9081Y-4.1654
X4.9475Y-1.0709
X4.9475Y-2.0394
X4.9475Y-2.1339
X4.9475Y-3.1024
X4.9475Y-3.1969
X4.9475Y-4.1654
X5.2887Y-1.0709
X5.2887Y-2.0394
X5.2887Y-2.1339
X5.2887Y-3.1024
X5.2887Y-3.1969
X5.2887Y-4.1654
X5.3281Y-1.0709
X5.3281Y-2.0394
X5.3281Y-2.1339
X5.3281Y-3.1024
X5.3281Y-3.1969
X5.3281Y-4.1654
X5.3675Y-1.0709
X5.3675Y-2.0394
X5.3675Y-2.1339
X5.3675Y-3.1024
X5.3675Y-3.1969
X5.3675Y-4.1654
X5.4068Y-1.0709
X5.4068Y-2.0394
X5.4068Y-2.1339
X5.4068Y-3.1024
X5.4068Y-3.1969
X5.4068Y-4.1654
X5.7992Y-1.332
X5.7992Y-1.3714
X5.7992Y-1.4108
X5.7992Y-1.4501
X5.7992Y-1.6601
X5.7992Y-1.6995
X5.7992Y-1.7388
X5.7992Y-1.7782
X5.7992Y-2.395
X5.7992Y-2.4344
X5.7992Y-2.4738
X5.7992Y-2.5131
X5.7992Y-2.7231
X5.7992Y-2.7625
X5.7992Y-2.8018
X5.7992Y-2.8412
X5.7992Y-3.458
X5.7992Y-3.4974
X5.7992Y-3.5367
X5.7992Y-3.5761
X5.7992Y-3.7861
X5.7992Y-3.8255
X5.7992Y-3.8648
X5.7992Y-3.9042
X5.8937Y-1.332
X5.8937Y-1.3714
X5.8937Y-1.4108
X5.8937Y-1.4501
X5.8937Y-1.6601
X5.8937Y-1.6995
X5.8937Y-1.7388
X5.8937Y-1.7782
X5.8937Y-2.395
X5.8937Y-2.4344
X5.8937Y-2.4738
X5.8937Y-2.5131
X5.8937Y-2.7231
X5.8937Y-2.7625
X5.8937Y-2.8018
X5.8937Y-2.8412
X5.8937Y-3.458
X5.8937Y-3.4974
X5.8937Y-3.5367
X5.8937Y-3.5761
X5.8937Y-3.7861
X5.8937Y-3.8255
X5.8937Y-3.8648
X5.8937Y-3.9042
X6.2861Y-1.0709
X6.2861Y-2.0394
X6.2861Y-2.1339
X6.2861Y-3.1024
X6.2861Y-3.1969
X6.2861Y-4.1654
X6.3255Y-1.0709
X6.3255Y-2.0394
X6.3255Y-2.1339
X6.3255Y-3.1024
X6.3255Y-3.1969
X6.3255Y-4.1654
X6.3648Y-1.0709
X6.3648Y-2.0394
X6.3648Y-2.1339
X6.3648Y-3.1024
X6.3648Y-3.1969
X6.3648Y-4.1654
X6.4042Y-1.0709
X6.4042Y-2.0394
X6.4042Y-2.1339
X6.4042Y-3.1024
X6.4042Y-3.1969
X6.4042Y-4.1654
X6.7454Y-1.0709
X6.7454Y-2.0394
X6.7454Y-2.1339
X6.7454Y-3.1024
X6.7454Y-3.1969
X6.7454Y-4.1654
X6.7848Y-1.0709
X6.7848Y-2.0394
X6.7848Y-2.1339
X6.7848Y-3.1024
X6.7848Y-3.1969
X6.7848Y-4.1654
X6.8241Y-1.0709
X6.8241Y-2.0394
X6.8241Y-2.1339
X6.8241Y-3.1024
X6.8241Y-3.1969
X6.8241Y-4.1654
X6.8635Y-1.0709
X6.8635Y-2.0394
X6.8635Y-2.1339
X6.8635Y-3.1024
X6.8635Y-3.1969
X6.8635Y-4.1654
X7.2559Y-1.332
X7.2559Y-1.3714
X7.2559Y-1.4108
X7.2559Y-1.4501
X7.2559Y-1.6601
X7.2559Y-1.6995
X7.2559Y-1.7388
X7.2559Y-1.7782
X7.2559Y-2.395
X7.2559Y-2.4344
X7.2559Y-2.4738
X7.2559Y-2.5131
X7.2559Y-2.7231
X7.2559Y-2.7625
X7.2559Y-2.8018
X7.2559Y-2.8412
X7.2559Y-3.458
X7.2559Y-3.4974
X7.2559Y-3.5367
X7.2559Y-3.5761
X7.2559Y-3.7861
X7.2559Y-3.8255
X7.2559Y-3.8648
X7.2559Y-3.9042
X7.2638Y-0.7874
X7.2638Y-0.8202
X7.2638Y-0.853
X7.2638Y-0.8858
X7.2638Y-0.9186
X7.2638Y-0.9514
X7.2638Y-0.9843
X7.2638Y-4.252
X7.2638Y-4.2848
X7.2638Y-4.3176
X7.2638Y-4.3504
X7.2638Y-4.3832
X7.2638Y-4.416
X7.2638Y-4.4488
T2
X4.2323Y-0.8661
X4.2323Y-4.3701
X7.4606Y-0.8661
T3
X4.5197Y-1.1535
X4.5197Y-1.9567
X4.5197Y-2.2165
X4.5197Y-3.0197
X4.5197Y-3.2795
X4.5197Y-4.0827
X5.7165Y-1.1535
X5.7165Y-1.9567
X5.7165Y-2.2165
X5.7165Y-3.0197
X5.7165Y-3.2795
X5.7165Y-4.0827
X5.9764Y-1.1535
X5.9764Y-1.9567
X5.9764Y-2.2165
X5.9764Y-3.0197
X5.9764Y-3.2795
X5.9764Y-4.0827
X7.1732Y-1.1535
X7.1732Y-1.9567
X7.1732Y-2.2165
X7.1732Y-3.0197
X7.1732Y-3.2795
X7.1732Y-4.0827
M30
