M48
; DRILL file {KiCad 8.0.3} date 2025-01-10T12:47:37+0800
; FORMAT={-:-/ absolute / inch / decimal}
; #@! TF.CreationDate,2025-01-10T12:47:37+08:00
; #@! TF.GenerationSoftware,Kicad,Pcbnew,8.0.3
; #@! TF.FileFunction,Plated,1,2,PTH
FMAT,2
INCH
; #@! TA.AperFunction,Plated,PTH,ViaDrill
T1C0.0118
; #@! TA.AperFunction,Plated,PTH,ComponentDrill
T2C0.0394
%
G90
G05
T1
X4.7362Y-1.5315
X4.7362Y-2.5945
X4.7362Y-3.6575
X4.7756Y-1.5315
X4.7756Y-2.5945
X4.7756Y-3.6575
X4.815Y-1.5315
X4.815Y-2.5945
X4.815Y-3.6575
X4.8543Y-1.5315
X4.8543Y-2.5945
X4.8543Y-3.6575
X4.8657Y-1.1169
X4.8657Y-2.1799
X4.8657Y-3.2429
X4.8937Y-1.5315
X4.8937Y-2.5945
X4.8937Y-3.6575
X4.9264Y-1.4008
X4.9264Y-2.4638
X4.9264Y-3.5268
X4.952Y-1.476
X4.952Y-2.539
X4.952Y-3.602
X5.0531Y-1.7823
X5.0531Y-2.8453
X5.0531Y-3.9083
X5.072Y-1.7457
X5.072Y-2.8087
X5.072Y-3.8717
X5.0981Y-1.8165
X5.0981Y-2.8795
X5.0981Y-3.9425
X5.1185Y-1.6957
X5.1185Y-2.7587
X5.1185Y-3.8217
X5.1323Y-1.8165
X5.1323Y-2.8795
X5.1323Y-3.9425
X5.1504Y-1.4984
X5.1504Y-2.5614
X5.1504Y-3.6244
X5.1776Y-1.7827
X5.1776Y-2.8457
X5.1776Y-3.9087
X5.2298Y-1.3403
X5.2298Y-2.4032
X5.2298Y-3.4662
X5.2299Y-1.6362
X5.2299Y-2.6992
X5.2299Y-3.7622
X5.5787Y-1.2236
X5.5787Y-1.4839
X5.5787Y-2.2866
X5.5787Y-2.5469
X5.5787Y-3.3496
X5.5787Y-3.6098
X5.6669Y-1.4315
X5.6669Y-2.4945
X5.6669Y-3.5575
X6.1929Y-1.5315
X6.1929Y-2.5945
X6.1929Y-3.6575
X6.2323Y-1.5315
X6.2323Y-2.5945
X6.2323Y-3.6575
X6.2717Y-1.5315
X6.2717Y-2.5945
X6.2717Y-3.6575
X6.311Y-1.5315
X6.311Y-2.5945
X6.311Y-3.6575
X6.3224Y-1.1169
X6.3224Y-2.1799
X6.3224Y-3.2429
X6.3504Y-1.5315
X6.3504Y-2.5945
X6.3504Y-3.6575
X6.3831Y-1.4008
X6.3831Y-2.4638
X6.3831Y-3.5268
X6.4087Y-1.476
X6.4087Y-2.539
X6.4087Y-3.602
X6.5098Y-1.7823
X6.5098Y-2.8453
X6.5098Y-3.9083
X6.5287Y-1.7457
X6.5287Y-2.8087
X6.5287Y-3.8717
X6.5548Y-1.8165
X6.5548Y-2.8795
X6.5548Y-3.9425
X6.5752Y-1.6957
X6.5752Y-2.7587
X6.5752Y-3.8217
X6.589Y-1.8165
X6.589Y-2.8795
X6.589Y-3.9425
X6.6071Y-1.4984
X6.6071Y-2.5614
X6.6071Y-3.6244
X6.6343Y-1.7827
X6.6343Y-2.8457
X6.6343Y-3.9087
X6.6865Y-1.3403
X6.6865Y-2.4032
X6.6865Y-3.4662
X6.6866Y-1.6362
X6.6866Y-2.6992
X6.6866Y-3.7622
X7.0354Y-1.2236
X7.0354Y-1.4839
X7.0354Y-2.2866
X7.0354Y-2.5469
X7.0354Y-3.3496
X7.0354Y-3.6098
X7.1236Y-1.4315
X7.1236Y-2.4945
X7.1236Y-3.5575
T2
X4.7185Y-1.1535
X4.7185Y-2.2165
X4.7185Y-3.2795
X4.8185Y-1.1535
X4.8185Y-2.2165
X4.8185Y-3.2795
X4.9185Y-1.1535
X4.9185Y-2.2165
X4.9185Y-3.2795
X5.0185Y-1.1535
X5.0185Y-2.2165
X5.0185Y-3.2795
X5.1185Y-1.1535
X5.1185Y-2.2165
X5.1185Y-3.2795
X5.2185Y-1.1535
X5.2185Y-2.2165
X5.2185Y-3.2795
X5.3185Y-1.1535
X5.3185Y-2.2165
X5.3185Y-3.2795
X5.4185Y-1.1535
X5.4185Y-2.2165
X5.4185Y-3.2795
X5.5185Y-1.1535
X5.5185Y-2.2165
X5.5185Y-3.2795
X5.6091Y-1.7598
X5.6091Y-2.8228
X5.6091Y-3.8858
X5.7091Y-1.7598
X5.7091Y-2.8228
X5.7091Y-3.8858
X6.1752Y-1.1535
X6.1752Y-2.2165
X6.1752Y-3.2795
X6.2752Y-1.1535
X6.2752Y-2.2165
X6.2752Y-3.2795
X6.3752Y-1.1535
X6.3752Y-2.2165
X6.3752Y-3.2795
X6.4752Y-1.1535
X6.4752Y-2.2165
X6.4752Y-3.2795
X6.5752Y-1.1535
X6.5752Y-2.2165
X6.5752Y-3.2795
X6.6752Y-1.1535
X6.6752Y-2.2165
X6.6752Y-3.2795
X6.7752Y-1.1535
X6.7752Y-2.2165
X6.7752Y-3.2795
X6.8752Y-1.1535
X6.8752Y-2.2165
X6.8752Y-3.2795
X6.9752Y-1.1535
X6.9752Y-2.2165
X6.9752Y-3.2795
X7.0657Y-1.7598
X7.0657Y-2.8228
X7.0657Y-3.8858
X7.1657Y-1.7598
X7.1657Y-2.8228
X7.1657Y-3.8858
M30
