%TF.GenerationSoftware,KiCad,Pcbnew,8.0.3*%
%TF.CreationDate,2025-01-10T12:47:37+08:00*%
%TF.ProjectId,ICM-42688_Panelized,49434d2d-3432-4363-9838-5f50616e656c,rev?*%
%TF.SameCoordinates,Original*%
%TF.FileFunction,Drillmap*%
%TF.FilePolarity,Positive*%
%FSLAX45Y45*%
G04 Gerber Fmt 4.5, Leading zero omitted, Abs format (unit mm)*
G04 Created by KiCad (PCBNEW 8.0.3) date 2025-01-10 12:47:37*
%MOMM*%
%LPD*%
G01*
G04 APERTURE LIST*
%ADD10C,0.100000*%
%ADD11C,0.200000*%
G04 APERTURE END LIST*
D10*
X14750000Y-8200000D02*
X14749872Y-8194935D01*
X14977521Y-10568897D02*
X14981103Y-10572479D01*
X11315269Y-7893775D02*
X11320064Y-7895414D01*
X11284863Y-5175876D02*
X11288789Y-5179078D01*
X14849900Y-9616667D02*
X14750000Y-9616667D01*
X13433333Y-5300100D02*
X13433333Y-5400000D01*
X18650000Y-6083333D02*
X18450000Y-6083333D01*
X18422479Y-5168897D02*
X18425876Y-5165137D01*
X18360117Y-5400513D02*
X18355065Y-5400128D01*
X15039883Y-7899487D02*
X15044935Y-7899872D01*
X14984863Y-7875876D02*
X14988789Y-7879077D01*
X14950513Y-8189883D02*
X14950128Y-8194935D01*
X11258104Y-8160564D02*
X11256225Y-8165269D01*
X18355065Y-5400128D02*
X18350000Y-5400000D01*
X15005960Y-5189780D02*
X15010564Y-5191896D01*
X14954586Y-5129936D02*
X14956225Y-5134731D01*
X14850100Y-7216667D02*
X14950000Y-7216667D01*
X18375065Y-2703192D02*
X18370130Y-2702047D01*
X14711210Y-2720922D02*
X14707127Y-2717924D01*
X14850100Y-9616667D02*
X14849900Y-9616667D01*
X18422479Y-8131103D02*
X18418897Y-8127521D01*
X11301470Y-2712565D02*
X11297103Y-2715136D01*
X17433333Y-2500000D02*
X18650000Y-2500000D01*
X11288789Y-5420922D02*
X11284863Y-5424124D01*
X19150000Y-11300000D02*
X19150000Y-2000000D01*
X14956225Y-5465269D02*
X14954586Y-5470064D01*
X11250000Y-6083333D02*
X11050000Y-6083333D01*
X11253192Y-10525065D02*
X11254586Y-10529936D01*
X11334857Y-8101153D02*
X11329870Y-8102047D01*
X18445414Y-7829936D02*
X18446808Y-7825065D01*
X18450000Y-2800000D02*
X18449872Y-2794935D01*
X12266667Y-5400000D02*
X11350000Y-5400000D01*
X18434864Y-5447104D02*
X18432076Y-5442873D01*
X11262565Y-2751470D02*
X11260219Y-2755961D01*
X14997103Y-10584864D02*
X15001470Y-10587435D01*
X14988789Y-5420922D02*
X14984863Y-5424124D01*
X11270922Y-10561211D02*
X11274124Y-10565137D01*
X15050000Y-10600000D02*
X15966667Y-10600000D01*
X14747953Y-5479870D02*
X14746808Y-5474935D01*
X18446808Y-7825065D02*
X18447953Y-7820130D01*
X18360117Y-5199487D02*
X18365143Y-5198847D01*
X14718897Y-10572479D02*
X14722479Y-10568897D01*
X14679936Y-10595414D02*
X14684730Y-10593775D01*
X14960219Y-7844039D02*
X14962565Y-7848530D01*
X16266667Y-7999900D02*
X16266667Y-7900000D01*
X15044935Y-2700128D02*
X15039883Y-2700513D01*
X10550000Y-11300000D02*
X19150000Y-11300000D01*
X18384731Y-5193775D02*
X18389436Y-5191896D01*
X14739780Y-5144039D02*
X14741896Y-5139436D01*
X14970922Y-2738789D02*
X14967924Y-2742873D01*
X14729077Y-2738789D02*
X14725876Y-2734863D01*
X11350000Y-5400000D02*
X11344935Y-5400128D01*
X14850100Y-3383333D02*
X14849900Y-3383333D01*
X15001470Y-5412565D02*
X14997103Y-5415136D01*
X11050000Y-6383333D02*
X11250000Y-6383333D01*
X11250000Y-5100000D02*
X11250128Y-5105065D01*
X14743775Y-8165269D02*
X14741896Y-8160564D01*
X18394039Y-7889780D02*
X18398530Y-7887435D01*
X14739780Y-7844039D02*
X14741896Y-7839435D01*
X11050000Y-9616667D02*
X11050000Y-9083333D01*
X14698530Y-5412565D02*
X14694039Y-5410220D01*
X13433333Y-2500000D02*
X13433333Y-2700000D01*
X14977521Y-7868897D02*
X14981103Y-7872479D01*
X14950128Y-10505065D02*
X14950513Y-10510117D01*
X14698530Y-5187435D02*
X14702896Y-5184864D01*
X11265135Y-2747104D02*
X11262565Y-2751470D01*
X16266667Y-5300100D02*
X16266667Y-5299900D01*
X11301470Y-7887435D02*
X11305960Y-7889780D01*
X18411211Y-2720922D02*
X18407127Y-2717924D01*
X11253192Y-7825065D02*
X11254586Y-7829936D01*
X11315269Y-5406225D02*
X11310564Y-5408104D01*
X14992873Y-7882076D02*
X14997103Y-7884864D01*
X11250513Y-5489883D02*
X11250128Y-5494935D01*
X14956225Y-2765269D02*
X14954586Y-2770064D01*
X16266667Y-5299900D02*
X16266667Y-5200000D01*
X14734864Y-8147103D02*
X14732076Y-8142873D01*
X15039883Y-2700513D02*
X15034857Y-2701153D01*
X14745414Y-5470064D02*
X14743775Y-5465269D01*
X14950128Y-7805065D02*
X14950513Y-7810117D01*
X15044935Y-5199872D02*
X15050000Y-5200000D01*
X16266667Y-5200000D02*
X17133333Y-5200000D01*
X14711210Y-7879077D02*
X14715137Y-7875876D01*
X14660117Y-7899487D02*
X14665143Y-7898847D01*
X14950000Y-8783333D02*
X14850100Y-8783333D01*
X14962565Y-10548530D02*
X14965135Y-10552896D01*
X14849900Y-4516667D02*
X14850100Y-4516667D01*
X18650000Y-4516667D02*
X18650000Y-6083333D01*
X15034857Y-5198847D02*
X15039883Y-5199487D01*
X11277521Y-5168897D02*
X11281103Y-5172479D01*
X18449487Y-7810117D02*
X18449872Y-7805065D01*
X14974124Y-2734863D02*
X14970922Y-2738789D01*
X11258104Y-2760564D02*
X11256225Y-2765269D01*
X14960219Y-8155960D02*
X14958104Y-8160564D01*
X18448847Y-5115143D02*
X18449487Y-5110117D01*
X15005960Y-7889780D02*
X15010564Y-7891896D01*
X18402896Y-8115135D02*
X18398530Y-8112565D01*
X15015269Y-5406225D02*
X15010564Y-5408104D01*
X18407127Y-5182076D02*
X18411211Y-5179078D01*
X14715137Y-8124124D02*
X14711210Y-8120922D01*
X11339883Y-5199487D02*
X11344935Y-5199872D01*
X14974124Y-5165137D02*
X14977521Y-5168897D01*
X11050000Y-6083333D02*
X11050000Y-4516667D01*
X18415137Y-8124124D02*
X18411211Y-8120922D01*
X14950513Y-5110117D02*
X14951153Y-5115143D01*
X14748847Y-8184857D02*
X14747953Y-8179870D01*
X11050000Y-4216667D02*
X11050000Y-3683333D01*
X18411211Y-7879077D02*
X18415137Y-7875876D01*
X18443775Y-5465269D02*
X18441896Y-5460564D01*
X15044935Y-7899872D02*
X15050000Y-7900000D01*
X15020064Y-2704586D02*
X15015269Y-2706225D01*
X14981103Y-7872479D02*
X14984863Y-7875876D01*
X11270922Y-5438789D02*
X11267924Y-5442873D01*
X11274124Y-5165137D02*
X11277521Y-5168897D01*
X14849900Y-6383333D02*
X14850100Y-6383333D01*
X14689435Y-8108104D02*
X14684730Y-8106225D01*
X14849900Y-9083333D02*
X14850100Y-9083333D01*
X18379936Y-10595414D02*
X18384731Y-10593775D01*
X14750000Y-10500000D02*
X14750000Y-9916667D01*
X14952047Y-8179870D02*
X14951153Y-8184857D01*
X11250000Y-9083333D02*
X11250000Y-9616667D01*
X11344935Y-2700128D02*
X11339883Y-2700513D01*
X15966667Y-5200000D02*
X15966667Y-5299900D01*
X11344935Y-5400128D02*
X11339883Y-5400513D01*
X14702896Y-5415136D02*
X14698530Y-5412565D01*
X17133333Y-10800000D02*
X16266667Y-10800000D01*
X14952047Y-7820130D02*
X14953192Y-7825065D01*
X18437435Y-8151470D02*
X18434864Y-8147103D01*
X14694039Y-5189780D02*
X14698530Y-5187435D01*
X13433333Y-5200000D02*
X13433333Y-5299900D01*
X11251153Y-7815143D02*
X11252047Y-7820130D01*
X14950000Y-3383333D02*
X14850100Y-3383333D01*
X14849900Y-9916667D02*
X14850100Y-9916667D01*
X14950000Y-10500000D02*
X14950128Y-10505065D01*
X11267924Y-5442873D02*
X11265135Y-5447104D01*
X14679936Y-5195414D02*
X14684730Y-5193775D01*
X15010564Y-8108104D02*
X15005960Y-8110219D01*
X18449872Y-10505065D02*
X18450000Y-10500000D01*
X14749487Y-8189883D02*
X14748847Y-8184857D01*
X15020064Y-5195414D02*
X15024935Y-5196808D01*
X17433333Y-5400000D02*
X17433333Y-5300100D01*
X18432076Y-2742873D02*
X18429078Y-2738789D01*
X11288789Y-7879077D02*
X11292873Y-7882076D01*
X14750000Y-2800000D02*
X14749872Y-2794935D01*
X15029870Y-5402047D02*
X15024935Y-5403192D01*
X11250000Y-8200000D02*
X11250000Y-8783333D01*
X14952047Y-10520130D02*
X14953192Y-10525065D01*
X15005960Y-2710220D02*
X15001470Y-2712565D01*
X15024935Y-7896808D02*
X15029870Y-7897953D01*
X14655065Y-7899872D02*
X14660117Y-7899487D01*
X14737435Y-7848530D02*
X14739780Y-7844039D01*
X18398530Y-2712565D02*
X18394039Y-2710220D01*
X18445414Y-8170064D02*
X18443775Y-8165269D01*
X14850100Y-3683333D02*
X14950000Y-3683333D01*
X14974124Y-10565137D02*
X14977521Y-10568897D01*
X14749872Y-5105065D02*
X14750000Y-5100000D01*
X14954586Y-10529936D02*
X14956225Y-10534731D01*
X14950000Y-6383333D02*
X14950000Y-6916667D01*
X11270922Y-7861210D02*
X11274124Y-7865137D01*
X11301470Y-10587435D02*
X11305960Y-10589780D01*
X18415137Y-7875876D02*
X18418897Y-7872479D01*
X18411211Y-5179078D02*
X18415137Y-5175876D01*
X11258104Y-10539436D02*
X11260219Y-10544039D01*
X18439780Y-8155960D02*
X18437435Y-8151470D01*
X14698530Y-8112565D02*
X14694039Y-8110219D01*
X18434864Y-10552896D02*
X18437435Y-10548530D01*
X18407127Y-5417924D02*
X18402896Y-5415136D01*
X13433333Y-2700000D02*
X12566667Y-2700000D01*
X18394039Y-2710220D02*
X18389436Y-2708104D01*
X11305960Y-7889780D02*
X11310564Y-7891896D01*
X14750000Y-3383333D02*
X14750000Y-2800000D01*
X15001470Y-7887435D02*
X15005960Y-7889780D01*
X15005960Y-8110219D02*
X15001470Y-8112565D01*
X14749487Y-5489883D02*
X14748847Y-5484857D01*
X11305960Y-5410220D02*
X11301470Y-5412565D01*
X14722479Y-5431103D02*
X14718897Y-5427521D01*
X14950128Y-8194935D02*
X14950000Y-8200000D01*
X18389436Y-10591896D02*
X18394039Y-10589780D01*
X11267924Y-8142873D02*
X11265135Y-8147103D01*
X14749872Y-10505065D02*
X14750000Y-10500000D01*
X18450000Y-5100000D02*
X18450000Y-4516667D01*
X14734864Y-2747104D02*
X14732076Y-2742873D01*
X14711210Y-5179078D02*
X14715137Y-5175876D01*
X14684730Y-7893775D02*
X14689435Y-7891896D01*
X14660117Y-10599487D02*
X14665143Y-10598847D01*
X18365143Y-10598847D02*
X18370130Y-10597953D01*
X14970922Y-7861210D02*
X14974124Y-7865137D01*
X18450000Y-6383333D02*
X18650000Y-6383333D01*
X12566667Y-2700000D02*
X12566667Y-2500000D01*
X11320064Y-8104586D02*
X11315269Y-8106225D01*
X18389436Y-7891896D02*
X18394039Y-7889780D01*
X18398530Y-10587435D02*
X18402896Y-10584864D01*
X15029870Y-10597953D02*
X15034857Y-10598847D01*
X11274124Y-2734863D02*
X11270922Y-2738789D01*
X11250000Y-7216667D02*
X11250000Y-7800000D01*
X14962565Y-5148530D02*
X14965135Y-5152896D01*
X14745414Y-10529936D02*
X14746808Y-10525065D01*
X14741896Y-2760564D02*
X14739780Y-2755961D01*
X15005960Y-5410220D02*
X15001470Y-5412565D01*
X13433333Y-8000100D02*
X13433333Y-8100000D01*
X18450000Y-4216667D02*
X18450000Y-3683333D01*
X18432076Y-8142873D02*
X18429078Y-8138789D01*
X11250000Y-4216667D02*
X11050000Y-4216667D01*
X14749487Y-7810117D02*
X14749872Y-7805065D01*
X11251153Y-5115143D02*
X11252047Y-5120130D01*
X14997103Y-5184864D02*
X15001470Y-5187435D01*
X15029870Y-5197953D02*
X15034857Y-5198847D01*
X17433333Y-2700000D02*
X17433333Y-2500000D01*
X18360117Y-10599487D02*
X18365143Y-10598847D01*
X14746808Y-7825065D02*
X14747953Y-7820130D01*
X15966667Y-7900000D02*
X15966667Y-7999900D01*
X12266667Y-5200000D02*
X12266667Y-5299900D01*
X18418897Y-8127521D02*
X18415137Y-8124124D01*
X13433333Y-8100000D02*
X12566667Y-8100000D01*
X13733333Y-7900000D02*
X14650000Y-7900000D01*
X12566667Y-7999900D02*
X12566667Y-7900000D01*
X14850100Y-6916667D02*
X14849900Y-6916667D01*
X11344935Y-8100128D02*
X11339883Y-8100513D01*
X14970922Y-8138789D02*
X14967924Y-8142873D01*
X14950000Y-9916667D02*
X14950000Y-10500000D01*
X18650000Y-4216667D02*
X18450000Y-4216667D01*
X14974124Y-8134863D02*
X14970922Y-8138789D01*
X14729077Y-10561211D02*
X14732076Y-10557127D01*
X18360117Y-2700513D02*
X18355065Y-2700128D01*
X15034857Y-10598847D02*
X15039883Y-10599487D01*
X15015269Y-5193775D02*
X15020064Y-5195414D01*
X11315269Y-10593775D02*
X11320064Y-10595414D01*
X18448847Y-8184857D02*
X18447953Y-8179870D01*
X18379936Y-5195414D02*
X18384731Y-5193775D01*
X14743775Y-7834730D02*
X14745414Y-7829936D01*
X14953192Y-2774935D02*
X14952047Y-2779870D01*
X12566667Y-5400000D02*
X12566667Y-5300100D01*
X14951153Y-5115143D02*
X14952047Y-5120130D01*
X18446808Y-10525065D02*
X18447953Y-10520130D01*
X15029870Y-7897953D02*
X15034857Y-7898847D01*
X14689435Y-5191896D02*
X14694039Y-5189780D01*
X18360117Y-8100513D02*
X18355065Y-8100128D01*
X11310564Y-10591896D02*
X11315269Y-10593775D01*
X14660117Y-5199487D02*
X14665143Y-5198847D01*
X15020064Y-10595414D02*
X15024935Y-10596808D01*
X11329870Y-10597953D02*
X11334857Y-10598847D01*
X14960219Y-5455961D02*
X14958104Y-5460564D01*
X11301470Y-5412565D02*
X11297103Y-5415136D01*
X14950128Y-2794935D02*
X14950000Y-2800000D01*
X14950000Y-2800000D02*
X14950000Y-3383333D01*
X14711210Y-5420922D02*
X14707127Y-5417924D01*
X18432076Y-5442873D02*
X18429078Y-5438789D01*
X11281103Y-10572479D02*
X11284863Y-10575876D01*
X15024935Y-5196808D02*
X15029870Y-5197953D01*
X14997103Y-2715136D02*
X14992873Y-2717924D01*
X11265135Y-8147103D02*
X11262565Y-8151470D01*
X14660117Y-5400513D02*
X14655065Y-5400128D01*
X18425876Y-2734863D02*
X18422479Y-2731103D01*
X18350000Y-5200000D02*
X18355065Y-5199872D01*
X14992873Y-10582076D02*
X14997103Y-10584864D01*
X17133333Y-5300100D02*
X17133333Y-5400000D01*
X18450000Y-6916667D02*
X18450000Y-6383333D01*
X14748847Y-10515143D02*
X14749487Y-10510117D01*
X14967924Y-7857127D02*
X14970922Y-7861210D01*
X11262565Y-8151470D02*
X11260219Y-8155960D01*
X14951153Y-7815143D02*
X14952047Y-7820130D01*
X14746808Y-8174935D02*
X14745414Y-8170064D01*
X18370130Y-8102047D02*
X18365143Y-8101153D01*
X17433333Y-8000100D02*
X17433333Y-7999900D01*
X15015269Y-7893775D02*
X15020064Y-7895414D01*
X18650000Y-9083333D02*
X18650000Y-9616667D01*
X14722479Y-7868897D02*
X14725876Y-7865137D01*
X14729077Y-5161211D02*
X14732076Y-5157127D01*
X18449872Y-2794935D02*
X18449487Y-2789883D01*
X18447953Y-5479870D02*
X18446808Y-5474935D01*
X12266667Y-10800000D02*
X11050000Y-10800000D01*
X11253192Y-5474935D02*
X11252047Y-5479870D01*
X18450000Y-4516667D02*
X18650000Y-4516667D01*
X11292873Y-10582076D02*
X11297103Y-10584864D01*
X14743775Y-5465269D02*
X14741896Y-5460564D01*
X14655065Y-10599872D02*
X14660117Y-10599487D01*
X18365143Y-5401153D02*
X18360117Y-5400513D01*
X18402896Y-7884864D02*
X18407127Y-7882076D01*
X18441896Y-10539436D02*
X18443775Y-10534731D01*
X11329870Y-5402047D02*
X11324935Y-5403192D01*
X11281103Y-5172479D02*
X11284863Y-5175876D01*
X11262565Y-7848530D02*
X11265135Y-7852896D01*
X14746808Y-5474935D02*
X14745414Y-5470064D01*
X13433333Y-10600000D02*
X13433333Y-10800000D01*
X18398530Y-5187435D02*
X18402896Y-5184864D01*
X14956225Y-10534731D02*
X14958104Y-10539436D01*
X11256225Y-2765269D02*
X11254586Y-2770064D01*
X11050000Y-7216667D02*
X11250000Y-7216667D01*
X18422479Y-5431103D02*
X18418897Y-5427521D01*
X18443775Y-8165269D02*
X18441896Y-8160564D01*
X18449487Y-10510117D02*
X18449872Y-10505065D01*
X18379936Y-2704586D02*
X18375065Y-2703192D01*
X11250513Y-8189883D02*
X11250128Y-8194935D01*
X11250128Y-10505065D02*
X11250513Y-10510117D01*
X13733333Y-10600000D02*
X14650000Y-10600000D01*
X11270922Y-8138789D02*
X11267924Y-8142873D01*
X18355065Y-2700128D02*
X18350000Y-2700000D01*
X14725876Y-2734863D02*
X14722479Y-2731103D01*
X17433333Y-7999900D02*
X17433333Y-7900000D01*
X11310564Y-5191896D02*
X11315269Y-5193775D01*
X14745414Y-2770064D02*
X14743775Y-2765269D01*
X17433333Y-5300100D02*
X17433333Y-5299900D01*
X14974124Y-5434863D02*
X14970922Y-5438789D01*
X11334857Y-10598847D02*
X11339883Y-10599487D01*
X18389436Y-8108104D02*
X18384731Y-8106225D01*
X11284863Y-7875876D02*
X11288789Y-7879077D01*
X11250128Y-2794935D02*
X11250000Y-2800000D01*
X11250000Y-9616667D02*
X11050000Y-9616667D01*
X11270922Y-5161211D02*
X11274124Y-5165137D01*
X14741896Y-5460564D02*
X14739780Y-5455961D01*
X14951153Y-2784857D02*
X14950513Y-2789883D01*
X11288789Y-10579078D02*
X11292873Y-10582076D01*
X14732076Y-7857127D02*
X14734864Y-7852896D01*
X18432076Y-7857127D02*
X18434864Y-7852896D01*
X18448847Y-7815143D02*
X18449487Y-7810117D01*
X15005960Y-10589780D02*
X15010564Y-10591896D01*
X14670130Y-2702047D02*
X14665143Y-2701153D01*
X18379936Y-8104586D02*
X18375065Y-8103192D01*
X12566667Y-2500000D02*
X13433333Y-2500000D01*
X14967924Y-2742873D02*
X14965135Y-2747104D01*
X18415137Y-10575876D02*
X18418897Y-10572479D01*
X14655065Y-2700128D02*
X14650000Y-2700000D01*
X18350000Y-7900000D02*
X18355065Y-7899872D01*
X14711210Y-8120922D02*
X14707127Y-8117924D01*
X14981103Y-8127521D02*
X14977521Y-8131103D01*
X18449872Y-5105065D02*
X18450000Y-5100000D01*
X14722479Y-10568897D02*
X14725876Y-10565137D01*
X11250000Y-4516667D02*
X11250000Y-5100000D01*
X15039883Y-10599487D02*
X15044935Y-10599872D01*
X18449487Y-2789883D02*
X18448847Y-2784857D01*
X15010564Y-5408104D02*
X15005960Y-5410220D01*
X16266667Y-10800000D02*
X16266667Y-10600000D01*
X11320064Y-10595414D02*
X11324935Y-10596808D01*
X14732076Y-2742873D02*
X14729077Y-2738789D01*
X14850100Y-9083333D02*
X14950000Y-9083333D01*
X15044935Y-10599872D02*
X15050000Y-10600000D01*
X18418897Y-10572479D02*
X18422479Y-10568897D01*
X18437435Y-2751470D02*
X18434864Y-2747104D01*
X14960219Y-2755961D02*
X14958104Y-2760564D01*
X14748847Y-5115143D02*
X14749487Y-5110117D01*
X14722479Y-8131103D02*
X14718897Y-8127521D01*
X11050000Y-8783333D02*
X11050000Y-7216667D01*
X15015269Y-10593775D02*
X15020064Y-10595414D01*
X17133333Y-8000100D02*
X17133333Y-8100000D01*
X11292873Y-2717924D02*
X11288789Y-2720922D01*
X18402896Y-10584864D02*
X18407127Y-10582076D01*
X11292873Y-5417924D02*
X11288789Y-5420922D01*
X12266667Y-5300100D02*
X12266667Y-5400000D01*
X18448847Y-10515143D02*
X18449487Y-10510117D01*
X11292873Y-5182076D02*
X11297103Y-5184864D01*
X14750000Y-9916667D02*
X14849900Y-9916667D01*
X12266667Y-2700000D02*
X11350000Y-2700000D01*
X14965135Y-2747104D02*
X14962565Y-2751470D01*
X15966667Y-10800000D02*
X13733333Y-10800000D01*
X11305960Y-10589780D02*
X11310564Y-10591896D01*
X11350000Y-10600000D02*
X12266667Y-10600000D01*
X18425876Y-5434863D02*
X18422479Y-5431103D01*
X13433333Y-7900000D02*
X13433333Y-7999900D01*
X17133333Y-2500000D02*
X17133333Y-2700000D01*
X11334857Y-2701153D02*
X11329870Y-2702047D01*
X14849900Y-6916667D02*
X14750000Y-6916667D01*
X11329870Y-2702047D02*
X11324935Y-2703192D01*
X16266667Y-7900000D02*
X17133333Y-7900000D01*
X11250000Y-7800000D02*
X11250128Y-7805065D01*
X17133333Y-5400000D02*
X16266667Y-5400000D01*
X14958104Y-8160564D02*
X14956225Y-8165269D01*
X14718897Y-5172479D02*
X14722479Y-5168897D01*
X15020064Y-7895414D02*
X15024935Y-7896808D01*
X11250128Y-7805065D02*
X11250513Y-7810117D01*
X14981103Y-5427521D02*
X14977521Y-5431103D01*
X11260219Y-2755961D02*
X11258104Y-2760564D01*
X14950000Y-6083333D02*
X14850100Y-6083333D01*
X14749872Y-8194935D02*
X14749487Y-8189883D01*
X18375065Y-5196808D02*
X18379936Y-5195414D01*
X11288789Y-8120922D02*
X11284863Y-8124124D01*
X13733333Y-5400000D02*
X13733333Y-5300100D01*
X11305960Y-2710220D02*
X11301470Y-2712565D01*
X14665143Y-5198847D02*
X14670130Y-5197953D01*
X11339883Y-10599487D02*
X11344935Y-10599872D01*
X13733333Y-2500000D02*
X15966667Y-2500000D01*
X18394039Y-5189780D02*
X18398530Y-5187435D01*
X11320064Y-5404586D02*
X11315269Y-5406225D01*
X11324935Y-2703192D02*
X11320064Y-2704586D01*
X14739780Y-10544039D02*
X14741896Y-10539436D01*
X14698530Y-2712565D02*
X14694039Y-2710220D01*
X18445414Y-5129936D02*
X18446808Y-5125065D01*
X14729077Y-8138789D02*
X14725876Y-8134863D01*
X11250128Y-5494935D02*
X11250000Y-5500000D01*
X14694039Y-8110219D02*
X14689435Y-8108104D01*
X14732076Y-5442873D02*
X14729077Y-5438789D01*
X11251153Y-8184857D02*
X11250513Y-8189883D01*
X18422479Y-10568897D02*
X18425876Y-10565137D01*
X18398530Y-7887435D02*
X18402896Y-7884864D01*
X17433333Y-8100000D02*
X17433333Y-8000100D01*
X11284863Y-10575876D02*
X11288789Y-10579078D01*
X14850100Y-8783333D02*
X14849900Y-8783333D01*
X14954586Y-2770064D02*
X14953192Y-2774935D01*
X17133333Y-7999900D02*
X17133333Y-8000100D01*
X14950128Y-5494935D02*
X14950000Y-5500000D01*
X17133333Y-10600000D02*
X17133333Y-10800000D01*
X14974124Y-7865137D02*
X14977521Y-7868897D01*
X14665143Y-7898847D02*
X14670130Y-7897953D01*
X18443775Y-7834730D02*
X18445414Y-7829936D01*
X11329870Y-8102047D02*
X11324935Y-8103192D01*
X14950513Y-2789883D02*
X14950128Y-2794935D01*
X14997103Y-5415136D02*
X14992873Y-5417924D01*
X11250128Y-5105065D02*
X11250513Y-5110117D01*
X11256225Y-5134731D02*
X11258104Y-5139436D01*
X14953192Y-5125065D02*
X14954586Y-5129936D01*
X14750000Y-7800000D02*
X14750000Y-7216667D01*
X18439780Y-5144039D02*
X18441896Y-5139436D01*
X11256225Y-5465269D02*
X11254586Y-5470064D01*
X14698530Y-7887435D02*
X14702896Y-7884864D01*
X11329870Y-5197953D02*
X11334857Y-5198847D01*
X14743775Y-5134731D02*
X14745414Y-5129936D01*
X14698530Y-10587435D02*
X14702896Y-10584864D01*
X14849900Y-3683333D02*
X14850100Y-3683333D01*
X11250000Y-8783333D02*
X11050000Y-8783333D01*
X13733333Y-8000100D02*
X13733333Y-7999900D01*
X17133333Y-2700000D02*
X16266667Y-2700000D01*
X11267924Y-7857127D02*
X11270922Y-7861210D01*
X14850100Y-9916667D02*
X14950000Y-9916667D01*
X11267924Y-2742873D02*
X11265135Y-2747104D01*
X14675065Y-8103192D02*
X14670130Y-8102047D01*
X14650000Y-5400000D02*
X13733333Y-5400000D01*
X14737435Y-10548530D02*
X14739780Y-10544039D01*
X11270922Y-2738789D02*
X11267924Y-2742873D01*
X14707127Y-7882076D02*
X14711210Y-7879077D01*
X14850100Y-4516667D02*
X14950000Y-4516667D01*
X11250000Y-2800000D02*
X11250000Y-3383333D01*
X14660117Y-8100513D02*
X14655065Y-8100128D01*
X11260219Y-5455961D02*
X11258104Y-5460564D01*
X14725876Y-7865137D02*
X14729077Y-7861210D01*
X14992873Y-2717924D02*
X14988789Y-2720922D01*
X11324935Y-5403192D02*
X11320064Y-5404586D01*
X12566667Y-5300100D02*
X12566667Y-5299900D01*
X14679936Y-5404586D02*
X14675065Y-5403192D01*
X11260219Y-10544039D02*
X11262565Y-10548530D01*
X18449487Y-5489883D02*
X18448847Y-5484857D01*
X14715137Y-2724124D02*
X14711210Y-2720922D01*
X14984863Y-2724124D02*
X14981103Y-2727521D01*
X11250513Y-7810117D02*
X11251153Y-7815143D01*
X14650000Y-10600000D02*
X14655065Y-10599872D01*
X11254586Y-2770064D02*
X11253192Y-2774935D01*
X15024935Y-5403192D02*
X15020064Y-5404586D01*
X14748847Y-2784857D02*
X14747953Y-2779870D01*
X14737435Y-8151470D02*
X14734864Y-8147103D01*
X15015269Y-8106225D02*
X15010564Y-8108104D01*
X13733333Y-5299900D02*
X13733333Y-5200000D01*
X11350000Y-2700000D02*
X11344935Y-2700128D01*
X18389436Y-5191896D02*
X18394039Y-5189780D01*
X14849900Y-7216667D02*
X14850100Y-7216667D01*
X14650000Y-7900000D02*
X14655065Y-7899872D01*
X14679936Y-2704586D02*
X14675065Y-2703192D01*
X14734864Y-5447104D02*
X14732076Y-5442873D01*
X14707127Y-10582076D02*
X14711210Y-10579078D01*
X18650000Y-9916667D02*
X18650000Y-10800000D01*
X15010564Y-2708104D02*
X15005960Y-2710220D01*
X14956225Y-7834730D02*
X14958104Y-7839435D01*
X18365143Y-8101153D02*
X18360117Y-8100513D01*
X11315269Y-2706225D02*
X11310564Y-2708104D01*
X12266667Y-8000100D02*
X12266667Y-8100000D01*
X14684730Y-2706225D02*
X14679936Y-2704586D01*
X14689435Y-7891896D02*
X14694039Y-7889780D01*
X11251153Y-2784857D02*
X11250513Y-2789883D01*
X18443775Y-10534731D02*
X18445414Y-10529936D01*
X12566667Y-8100000D02*
X12566667Y-8000100D01*
X18402896Y-5415136D02*
X18398530Y-5412565D01*
X18445414Y-5470064D02*
X18443775Y-5465269D01*
X11277521Y-5431103D02*
X11274124Y-5434863D01*
X14992873Y-5182076D02*
X14997103Y-5184864D01*
X14725876Y-5165137D02*
X14729077Y-5161211D01*
X14750000Y-9616667D02*
X14750000Y-9083333D01*
X18448847Y-2784857D02*
X18447953Y-2779870D01*
X15015269Y-2706225D02*
X15010564Y-2708104D01*
X11339883Y-2700513D02*
X11334857Y-2701153D01*
X14951153Y-5484857D02*
X14950513Y-5489883D01*
X18445414Y-2770064D02*
X18443775Y-2765269D01*
X14981103Y-2727521D02*
X14977521Y-2731103D01*
X13733333Y-10800000D02*
X13733333Y-10600000D01*
X15024935Y-2703192D02*
X15020064Y-2704586D01*
X14745414Y-8170064D02*
X14743775Y-8165269D01*
X11297103Y-8115135D02*
X11292873Y-8117924D01*
X11050000Y-2500000D02*
X12266667Y-2500000D01*
X14992873Y-8117924D02*
X14988789Y-8120922D01*
X16266667Y-2500000D02*
X17133333Y-2500000D01*
X14743775Y-2765269D02*
X14741896Y-2760564D01*
X18441896Y-5139436D02*
X18443775Y-5134731D01*
X18439780Y-10544039D02*
X18441896Y-10539436D01*
X14675065Y-5196808D02*
X14679936Y-5195414D01*
X14960219Y-5144039D02*
X14962565Y-5148530D01*
X18650000Y-3383333D02*
X18450000Y-3383333D01*
X14850100Y-6383333D02*
X14950000Y-6383333D01*
X14675065Y-5403192D02*
X14670130Y-5402047D01*
X11250513Y-10510117D02*
X11251153Y-10515143D01*
X18446808Y-8174935D02*
X18445414Y-8170064D01*
X14670130Y-10597953D02*
X14675065Y-10596808D01*
X14750000Y-8783333D02*
X14750000Y-8200000D01*
X14747953Y-8179870D02*
X14746808Y-8174935D01*
X11258104Y-7839435D02*
X11260219Y-7844039D01*
X18449487Y-8189883D02*
X18448847Y-8184857D01*
X11324935Y-8103192D02*
X11320064Y-8104586D01*
X19150000Y-2000000D02*
X10550000Y-2000000D01*
X15001470Y-8112565D02*
X14997103Y-8115135D01*
X14745414Y-7829936D02*
X14746808Y-7825065D01*
X11350000Y-8100000D02*
X11344935Y-8100128D01*
X11258104Y-5460564D02*
X11256225Y-5465269D01*
X17133333Y-8100000D02*
X16266667Y-8100000D01*
X11250000Y-3683333D02*
X11250000Y-4216667D01*
X18350000Y-5400000D02*
X17433333Y-5400000D01*
X14950000Y-5500000D02*
X14950000Y-6083333D01*
X14750000Y-5100000D02*
X14750000Y-4516667D01*
X18365143Y-7898847D02*
X18370130Y-7897953D01*
X18650000Y-6383333D02*
X18650000Y-6916667D01*
X11281103Y-8127521D02*
X11277521Y-8131103D01*
X11281103Y-7872479D02*
X11284863Y-7875876D01*
X14684730Y-10593775D02*
X14689435Y-10591896D01*
X18450000Y-3383333D02*
X18450000Y-2800000D01*
X15020064Y-8104586D02*
X15015269Y-8106225D01*
X17433333Y-10800000D02*
X17433333Y-10600000D01*
X11254586Y-5129936D02*
X11256225Y-5134731D01*
X18441896Y-5460564D02*
X18439780Y-5455961D01*
X14750000Y-9083333D02*
X14849900Y-9083333D01*
X14962565Y-8151470D02*
X14960219Y-8155960D01*
X18415137Y-5424124D02*
X18411211Y-5420922D01*
X14707127Y-2717924D02*
X14702896Y-2715136D01*
X13733333Y-5300100D02*
X13733333Y-5299900D01*
X18350000Y-2700000D02*
X17433333Y-2700000D01*
X14749872Y-5494935D02*
X14749487Y-5489883D01*
X18379936Y-7895414D02*
X18384731Y-7893775D01*
X11284863Y-8124124D02*
X11281103Y-8127521D01*
X11252047Y-5479870D02*
X11251153Y-5484857D01*
X18446808Y-5474935D02*
X18445414Y-5470064D01*
X18450000Y-5500000D02*
X18449872Y-5494935D01*
X12266667Y-8100000D02*
X11350000Y-8100000D01*
X14739780Y-8155960D02*
X14737435Y-8151470D01*
X18450000Y-8200000D02*
X18449872Y-8194935D01*
X17433333Y-5299900D02*
X17433333Y-5200000D01*
X14750000Y-6916667D02*
X14750000Y-6383333D01*
X14988789Y-7879077D02*
X14992873Y-7882076D01*
X14750000Y-3683333D02*
X14849900Y-3683333D01*
X18450000Y-8783333D02*
X18450000Y-8200000D01*
X12566667Y-5299900D02*
X12566667Y-5200000D01*
X14718897Y-8127521D02*
X14715137Y-8124124D01*
X14734864Y-7852896D02*
X14737435Y-7848530D01*
X18450000Y-6083333D02*
X18450000Y-5500000D01*
X14718897Y-5427521D02*
X14715137Y-5424124D01*
X17133333Y-7900000D02*
X17133333Y-7999900D01*
X13433333Y-10800000D02*
X12566667Y-10800000D01*
X14970922Y-5438789D02*
X14967924Y-5442873D01*
X15966667Y-10600000D02*
X15966667Y-10800000D01*
X14988789Y-5179078D02*
X14992873Y-5182076D01*
X18429078Y-5161211D02*
X18432076Y-5157127D01*
X15966667Y-2700000D02*
X15050000Y-2700000D01*
X14749872Y-7805065D02*
X14750000Y-7800000D01*
X18418897Y-2727521D02*
X18415137Y-2724124D01*
X14741896Y-5139436D02*
X14743775Y-5134731D01*
X14977521Y-2731103D02*
X14974124Y-2734863D01*
X15010564Y-7891896D02*
X15015269Y-7893775D01*
X14953192Y-5474935D02*
X14952047Y-5479870D01*
X14958104Y-10539436D02*
X14960219Y-10544039D01*
X12566667Y-5200000D02*
X13433333Y-5200000D01*
X11250000Y-10500000D02*
X11250128Y-10505065D01*
X15034857Y-5401153D02*
X15029870Y-5402047D01*
X14950000Y-4216667D02*
X14850100Y-4216667D01*
X11324935Y-7896808D02*
X11329870Y-7897953D01*
X14739780Y-5455961D02*
X14737435Y-5451470D01*
X14750000Y-5500000D02*
X14749872Y-5494935D01*
X13733333Y-8100000D02*
X13733333Y-8000100D01*
X14747953Y-7820130D02*
X14748847Y-7815143D01*
X14655065Y-5199872D02*
X14660117Y-5199487D01*
X18384731Y-5406225D02*
X18379936Y-5404586D01*
X14988789Y-10579078D02*
X14992873Y-10582076D01*
X16266667Y-5400000D02*
X16266667Y-5300100D01*
X18450000Y-7800000D02*
X18450000Y-7216667D01*
X14954586Y-7829936D02*
X14956225Y-7834730D01*
X15050000Y-8100000D02*
X15044935Y-8100128D01*
X14849900Y-8783333D02*
X14750000Y-8783333D01*
X14722479Y-2731103D02*
X14718897Y-2727521D01*
X11250000Y-3383333D02*
X11050000Y-3383333D01*
X18429078Y-2738789D02*
X18425876Y-2734863D01*
X11339883Y-5400513D02*
X11334857Y-5401153D01*
X11274124Y-7865137D02*
X11277521Y-7868897D01*
X15024935Y-8103192D02*
X15020064Y-8104586D01*
X14950000Y-9083333D02*
X14950000Y-9616667D01*
X13733333Y-5200000D02*
X14650000Y-5200000D01*
X11253192Y-2774935D02*
X11252047Y-2779870D01*
X14746808Y-5125065D02*
X14747953Y-5120130D01*
X18394039Y-5410220D02*
X18389436Y-5408104D01*
X14992873Y-5417924D02*
X14988789Y-5420922D01*
X18375065Y-10596808D02*
X18379936Y-10595414D01*
X18450000Y-10500000D02*
X18450000Y-9916667D01*
X14679936Y-8104586D02*
X14675065Y-8103192D01*
X18425876Y-10565137D02*
X18429078Y-10561211D01*
X11320064Y-2704586D02*
X11315269Y-2706225D01*
X11274124Y-5434863D02*
X11270922Y-5438789D01*
X14850100Y-6083333D02*
X14849900Y-6083333D01*
X18437435Y-5148530D02*
X18439780Y-5144039D01*
X15029870Y-8102047D02*
X15024935Y-8103192D01*
X14650000Y-5200000D02*
X14655065Y-5199872D01*
X14952047Y-5120130D02*
X14953192Y-5125065D01*
X14739780Y-2755961D02*
X14737435Y-2751470D01*
X18415137Y-2724124D02*
X18411211Y-2720922D01*
X14684730Y-5406225D02*
X14679936Y-5404586D01*
X18650000Y-8783333D02*
X18450000Y-8783333D01*
X18650000Y-9616667D02*
X18450000Y-9616667D01*
X14729077Y-5438789D02*
X14725876Y-5434863D01*
X14750000Y-7216667D02*
X14849900Y-7216667D01*
X18355065Y-10599872D02*
X18360117Y-10599487D01*
X14951153Y-10515143D02*
X14952047Y-10520130D01*
X14962565Y-7848530D02*
X14965135Y-7852896D01*
X11251153Y-10515143D02*
X11252047Y-10520130D01*
X15966667Y-5299900D02*
X15966667Y-5300100D01*
X18384731Y-2706225D02*
X18379936Y-2704586D01*
X15039883Y-5400513D02*
X15034857Y-5401153D01*
X11277521Y-8131103D02*
X11274124Y-8134863D01*
X11274124Y-10565137D02*
X11277521Y-10568897D01*
X14849900Y-3383333D02*
X14750000Y-3383333D01*
X11274124Y-8134863D02*
X11270922Y-8138789D01*
X10550000Y-2000000D02*
X10550000Y-11300000D01*
X11265135Y-10552896D02*
X11267924Y-10557127D01*
X18411211Y-8120922D02*
X18407127Y-8117924D01*
X14749487Y-10510117D02*
X14749872Y-10505065D01*
X14725876Y-10565137D02*
X14729077Y-10561211D01*
X14746808Y-10525065D02*
X14747953Y-10520130D01*
X14725876Y-8134863D02*
X14722479Y-8131103D01*
X18447953Y-10520130D02*
X18448847Y-10515143D01*
X14715137Y-10575876D02*
X14718897Y-10572479D01*
X15050000Y-5400000D02*
X15044935Y-5400128D01*
X11281103Y-5427521D02*
X11277521Y-5431103D01*
X18650000Y-6916667D02*
X18450000Y-6916667D01*
X11050000Y-6916667D02*
X11050000Y-6383333D01*
X14665143Y-5401153D02*
X14660117Y-5400513D01*
X11050000Y-9916667D02*
X11250000Y-9916667D01*
X18432076Y-5157127D02*
X18434864Y-5152896D01*
X11297103Y-2715136D02*
X11292873Y-2717924D01*
X15001470Y-10587435D02*
X15005960Y-10589780D01*
X14665143Y-8101153D02*
X14660117Y-8100513D01*
X16266667Y-2700000D02*
X16266667Y-2500000D01*
X11262565Y-10548530D02*
X11265135Y-10552896D01*
X11334857Y-5401153D02*
X11329870Y-5402047D01*
X15966667Y-8100000D02*
X15050000Y-8100000D01*
X11260219Y-8155960D02*
X11258104Y-8160564D01*
X18449872Y-7805065D02*
X18450000Y-7800000D01*
X18394039Y-8110219D02*
X18389436Y-8108104D01*
X18425876Y-8134863D02*
X18422479Y-8131103D01*
X14670130Y-5197953D02*
X14675065Y-5196808D01*
X18407127Y-8117924D02*
X18402896Y-8115135D01*
X14954586Y-5470064D02*
X14953192Y-5474935D01*
X14950000Y-7800000D02*
X14950128Y-7805065D01*
X11252047Y-5120130D02*
X11253192Y-5125065D01*
X15024935Y-10596808D02*
X15029870Y-10597953D01*
X14746808Y-2774935D02*
X14745414Y-2770064D01*
X15966667Y-2500000D02*
X15966667Y-2700000D01*
X15001470Y-2712565D02*
X14997103Y-2715136D01*
X14675065Y-10596808D02*
X14679936Y-10595414D01*
X14684730Y-8106225D02*
X14679936Y-8104586D01*
X14694039Y-10589780D02*
X14698530Y-10587435D01*
X17433333Y-10600000D02*
X18350000Y-10600000D01*
X14747953Y-5120130D02*
X14748847Y-5115143D01*
X18425876Y-7865137D02*
X18429078Y-7861210D01*
X13433333Y-7999900D02*
X13433333Y-8000100D01*
X11252047Y-7820130D02*
X11253192Y-7825065D01*
X18407127Y-2717924D02*
X18402896Y-2715136D01*
X18365143Y-2701153D02*
X18360117Y-2700513D01*
X14732076Y-10557127D02*
X14734864Y-10552896D01*
X11320064Y-7895414D02*
X11324935Y-7896808D01*
X11256225Y-7834730D02*
X11258104Y-7839435D01*
X11250000Y-9916667D02*
X11250000Y-10500000D01*
X12566667Y-10600000D02*
X13433333Y-10600000D01*
X18415137Y-5175876D02*
X18418897Y-5172479D01*
X14732076Y-8142873D02*
X14729077Y-8138789D01*
X14981103Y-5172479D02*
X14984863Y-5175876D01*
X11252047Y-2779870D02*
X11251153Y-2784857D01*
X11297103Y-5184864D02*
X11301470Y-5187435D01*
X14750000Y-6083333D02*
X14750000Y-5500000D01*
X11256225Y-8165269D02*
X11254586Y-8170064D01*
X13733333Y-7999900D02*
X13733333Y-7900000D01*
X11339883Y-8100513D02*
X11334857Y-8101153D01*
X14960219Y-10544039D02*
X14962565Y-10548530D01*
X14950513Y-7810117D02*
X14951153Y-7815143D01*
X18425876Y-5165137D02*
X18429078Y-5161211D01*
X14689435Y-2708104D02*
X14684730Y-2706225D01*
X14953192Y-7825065D02*
X14954586Y-7829936D01*
X18449487Y-5110117D02*
X18449872Y-5105065D01*
X14956225Y-8165269D02*
X14954586Y-8170064D01*
X11350000Y-5200000D02*
X12266667Y-5200000D01*
X12566667Y-10800000D02*
X12566667Y-10600000D01*
X18650000Y-10800000D02*
X17433333Y-10800000D01*
X18443775Y-5134731D02*
X18445414Y-5129936D01*
X11315269Y-8106225D02*
X11310564Y-8108104D01*
X11253192Y-5125065D02*
X11254586Y-5129936D01*
X11260219Y-7844039D02*
X11262565Y-7848530D01*
X11305960Y-5189780D02*
X11310564Y-5191896D01*
X18446808Y-5125065D02*
X18447953Y-5120130D01*
X18355065Y-5199872D02*
X18360117Y-5199487D01*
X11262565Y-5451470D02*
X11260219Y-5455961D01*
X18407127Y-10582076D02*
X18411211Y-10579078D01*
X18650000Y-2500000D02*
X18650000Y-3383333D01*
X12266667Y-10600000D02*
X12266667Y-10800000D01*
X17433333Y-5200000D02*
X18350000Y-5200000D01*
X12266667Y-2500000D02*
X12266667Y-2700000D01*
X18450000Y-9616667D02*
X18450000Y-9083333D01*
X14965135Y-5447104D02*
X14962565Y-5451470D01*
X18375065Y-5403192D02*
X18370130Y-5402047D01*
X11310564Y-2708104D02*
X11305960Y-2710220D01*
X18350000Y-8100000D02*
X17433333Y-8100000D01*
X18389436Y-2708104D02*
X18384731Y-2706225D01*
X18370130Y-5402047D02*
X18365143Y-5401153D01*
X14650000Y-2700000D02*
X13733333Y-2700000D01*
X14750000Y-4216667D02*
X14750000Y-3683333D01*
X12266667Y-7999900D02*
X12266667Y-8000100D01*
X14984863Y-5175876D02*
X14988789Y-5179078D01*
X18439780Y-5455961D02*
X18437435Y-5451470D01*
X14711210Y-10579078D02*
X14715137Y-10575876D01*
X14679936Y-7895414D02*
X14684730Y-7893775D01*
X15050000Y-2700000D02*
X15044935Y-2700128D01*
X18422479Y-2731103D02*
X18418897Y-2727521D01*
X14707127Y-8117924D02*
X14702896Y-8115135D01*
X18434864Y-5152896D02*
X18437435Y-5148530D01*
X11344935Y-7899872D02*
X11350000Y-7900000D01*
X18437435Y-5451470D02*
X18434864Y-5447104D01*
X14715137Y-5424124D02*
X14711210Y-5420922D01*
X16266667Y-10600000D02*
X17133333Y-10600000D01*
X11324935Y-5196808D02*
X11329870Y-5197953D01*
X12266667Y-5299900D02*
X12266667Y-5300100D01*
X14950000Y-6916667D02*
X14850100Y-6916667D01*
X14734864Y-10552896D02*
X14737435Y-10548530D01*
X14707127Y-5182076D02*
X14711210Y-5179078D01*
X14741896Y-8160564D02*
X14739780Y-8155960D01*
X11350000Y-7900000D02*
X12266667Y-7900000D01*
X15010564Y-10591896D02*
X15015269Y-10593775D01*
X14965135Y-8147103D02*
X14962565Y-8151470D01*
X14952047Y-5479870D02*
X14951153Y-5484857D01*
X14984863Y-5424124D02*
X14981103Y-5427521D01*
X14997103Y-7884864D02*
X15001470Y-7887435D01*
X18418897Y-7872479D02*
X18422479Y-7868897D01*
X11310564Y-7891896D02*
X11315269Y-7893775D01*
X11250000Y-6916667D02*
X11050000Y-6916667D01*
X11050000Y-3683333D02*
X11250000Y-3683333D01*
X14655065Y-5400128D02*
X14650000Y-5400000D01*
X18446808Y-2774935D02*
X18445414Y-2770064D01*
X11252047Y-10520130D02*
X11253192Y-10525065D01*
X18429078Y-7861210D02*
X18432076Y-7857127D01*
X14702896Y-7884864D02*
X14707127Y-7882076D01*
X15001470Y-5187435D02*
X15005960Y-5189780D01*
X14967924Y-5157127D02*
X14970922Y-5161211D01*
X11344935Y-5199872D02*
X11350000Y-5200000D01*
X14718897Y-7872479D02*
X14722479Y-7868897D01*
X14967924Y-5442873D02*
X14965135Y-5447104D01*
X11250000Y-5500000D02*
X11250000Y-6083333D01*
X11254586Y-8170064D02*
X11253192Y-8174935D01*
X11315269Y-5193775D02*
X11320064Y-5195414D01*
X18402896Y-5184864D02*
X18407127Y-5182076D01*
X11258104Y-5139436D02*
X11260219Y-5144039D01*
X14675065Y-2703192D02*
X14670130Y-2702047D01*
X11324935Y-10596808D02*
X11329870Y-10597953D01*
X14665143Y-2701153D02*
X14660117Y-2700513D01*
X18394039Y-10589780D02*
X18398530Y-10587435D01*
X18447953Y-7820130D02*
X18448847Y-7815143D01*
X15966667Y-8000100D02*
X15966667Y-8100000D01*
X18418897Y-5172479D02*
X18422479Y-5168897D01*
X15044935Y-8100128D02*
X15039883Y-8100513D01*
X14694039Y-2710220D02*
X14689435Y-2708104D01*
X14965135Y-7852896D02*
X14967924Y-7857127D01*
X18434864Y-2747104D02*
X18432076Y-2742873D01*
X18370130Y-5197953D02*
X18375065Y-5196808D01*
X18437435Y-7848530D02*
X18439780Y-7844039D01*
X14694039Y-7889780D02*
X14698530Y-7887435D01*
X14950128Y-5105065D02*
X14950513Y-5110117D01*
X14950000Y-7216667D02*
X14950000Y-7800000D01*
X14954586Y-8170064D02*
X14953192Y-8174935D01*
X14958104Y-2760564D02*
X14956225Y-2765269D01*
X11050000Y-3383333D02*
X11050000Y-2500000D01*
X18447953Y-8179870D02*
X18446808Y-8174935D01*
X14950000Y-8200000D02*
X14950000Y-8783333D01*
X11250513Y-2789883D02*
X11250128Y-2794935D01*
X11265135Y-5152896D02*
X11267924Y-5157127D01*
X11301470Y-5187435D02*
X11305960Y-5189780D01*
X14743775Y-10534731D02*
X14745414Y-10529936D01*
X14748847Y-7815143D02*
X14749487Y-7810117D01*
X18384731Y-10593775D02*
X18389436Y-10591896D01*
X14967924Y-8142873D02*
X14965135Y-8147103D01*
X11320064Y-5195414D02*
X11324935Y-5196808D01*
X15050000Y-5200000D02*
X15966667Y-5200000D01*
X14977521Y-8131103D02*
X14974124Y-8134863D01*
X11277521Y-2731103D02*
X11274124Y-2734863D01*
X15039883Y-8100513D02*
X15034857Y-8101153D01*
X18441896Y-7839435D02*
X18443775Y-7834730D01*
X14722479Y-5168897D02*
X14725876Y-5165137D01*
X11253192Y-8174935D02*
X11252047Y-8179870D01*
X14715137Y-7875876D02*
X14718897Y-7872479D01*
X18434864Y-7852896D02*
X18437435Y-7848530D01*
X14702896Y-8115135D02*
X14698530Y-8112565D01*
X14950513Y-5489883D02*
X14950128Y-5494935D01*
X14988789Y-8120922D02*
X14984863Y-8124124D01*
X14729077Y-7861210D02*
X14732076Y-7857127D01*
X18445414Y-10529936D02*
X18446808Y-10525065D01*
X11254586Y-7829936D02*
X11256225Y-7834730D01*
X11288789Y-5179078D02*
X11292873Y-5182076D01*
X14670130Y-5402047D02*
X14665143Y-5401153D01*
X14951153Y-8184857D02*
X14950513Y-8189883D01*
X17433333Y-7900000D02*
X18350000Y-7900000D01*
X14734864Y-5152896D02*
X14737435Y-5148530D01*
X11281103Y-2727521D02*
X11277521Y-2731103D01*
X11339883Y-7899487D02*
X11344935Y-7899872D01*
X18370130Y-7897953D02*
X18375065Y-7896808D01*
X14981103Y-10572479D02*
X14984863Y-10575876D01*
X14958104Y-5139436D02*
X14960219Y-5144039D01*
X15966667Y-7999900D02*
X15966667Y-8000100D01*
X18443775Y-2765269D02*
X18441896Y-2760564D01*
X15020064Y-5404586D02*
X15015269Y-5406225D01*
X11267924Y-5157127D02*
X11270922Y-5161211D01*
X11310564Y-8108104D02*
X11305960Y-8110219D01*
X18384731Y-7893775D02*
X18389436Y-7891896D01*
X18389436Y-5408104D02*
X18384731Y-5406225D01*
X18450000Y-9083333D02*
X18650000Y-9083333D01*
X15034857Y-8101153D02*
X15029870Y-8102047D01*
X18448847Y-5484857D02*
X18447953Y-5479870D01*
X18429078Y-5438789D02*
X18425876Y-5434863D01*
X11297103Y-5415136D02*
X11292873Y-5417924D01*
X14718897Y-2727521D02*
X14715137Y-2724124D01*
X11252047Y-8179870D02*
X11251153Y-8184857D01*
X18370130Y-2702047D02*
X18365143Y-2701153D01*
X17133333Y-5200000D02*
X17133333Y-5299900D01*
X14953192Y-8174935D02*
X14952047Y-8179870D01*
X11288789Y-2720922D02*
X11284863Y-2724124D01*
X14684730Y-5193775D02*
X14689435Y-5191896D01*
X18437435Y-10548530D02*
X18439780Y-10544039D01*
X14747953Y-2779870D02*
X14746808Y-2774935D01*
X14749487Y-5110117D02*
X14749872Y-5105065D01*
X18411211Y-5420922D02*
X18407127Y-5417924D01*
X11262565Y-5148530D02*
X11265135Y-5152896D01*
X18450000Y-7216667D02*
X18650000Y-7216667D01*
X12566667Y-7900000D02*
X13433333Y-7900000D01*
X14741896Y-10539436D02*
X14743775Y-10534731D01*
X18439780Y-7844039D02*
X18441896Y-7839435D01*
X11344935Y-10599872D02*
X11350000Y-10600000D01*
X17133333Y-5299900D02*
X17133333Y-5300100D01*
X14737435Y-5451470D02*
X14734864Y-5447104D01*
X18449872Y-8194935D02*
X18449487Y-8189883D01*
X14747953Y-10520130D02*
X14748847Y-10515143D01*
X16266667Y-8100000D02*
X16266667Y-8000100D01*
X18375065Y-8103192D02*
X18370130Y-8102047D01*
X14675065Y-7896808D02*
X14679936Y-7895414D01*
X13433333Y-5400000D02*
X12566667Y-5400000D01*
X18370130Y-10597953D02*
X18375065Y-10596808D01*
X14660117Y-2700513D02*
X14655065Y-2700128D01*
X14750000Y-4516667D02*
X14849900Y-4516667D01*
X11310564Y-5408104D02*
X11305960Y-5410220D01*
X14988789Y-2720922D02*
X14984863Y-2724124D01*
X18375065Y-7896808D02*
X18379936Y-7895414D01*
X14849900Y-4216667D02*
X14750000Y-4216667D01*
X18429078Y-10561211D02*
X18432076Y-10557127D01*
X14750000Y-6383333D02*
X14849900Y-6383333D01*
X18650000Y-3683333D02*
X18650000Y-4216667D01*
X12266667Y-7900000D02*
X12266667Y-7999900D01*
X18398530Y-5412565D02*
X18394039Y-5410220D01*
X11277521Y-10568897D02*
X11281103Y-10572479D01*
X11251153Y-5484857D02*
X11250513Y-5489883D01*
X14707127Y-5417924D02*
X14702896Y-5415136D01*
X11050000Y-4516667D02*
X11250000Y-4516667D01*
X14965135Y-10552896D02*
X14967924Y-10557127D01*
X14970922Y-5161211D02*
X14974124Y-5165137D01*
X11256225Y-10534731D02*
X11258104Y-10539436D01*
X14694039Y-5410220D02*
X14689435Y-5408104D01*
X11250513Y-5110117D02*
X11251153Y-5115143D01*
X15966667Y-5400000D02*
X15050000Y-5400000D01*
X18422479Y-7868897D02*
X18425876Y-7865137D01*
X18418897Y-5427521D02*
X18415137Y-5424124D01*
X14670130Y-7897953D02*
X14675065Y-7896808D01*
X18432076Y-10557127D02*
X18434864Y-10552896D01*
X14737435Y-5148530D02*
X14739780Y-5144039D01*
X11277521Y-7868897D02*
X11281103Y-7872479D01*
X11297103Y-10584864D02*
X11301470Y-10587435D01*
X18411211Y-10579078D02*
X18415137Y-10575876D01*
X14997103Y-8115135D02*
X14992873Y-8117924D01*
X18441896Y-8160564D02*
X18439780Y-8155960D01*
X15029870Y-2702047D02*
X15024935Y-2703192D01*
X18449872Y-5494935D02*
X18449487Y-5489883D01*
X14984863Y-8124124D02*
X14981103Y-8127521D01*
X18355065Y-8100128D02*
X18350000Y-8100000D01*
X18402896Y-2715136D02*
X18398530Y-2712565D01*
X14950000Y-3683333D02*
X14950000Y-4216667D01*
X13733333Y-2700000D02*
X13733333Y-2500000D01*
X15966667Y-5300100D02*
X15966667Y-5400000D01*
X11250000Y-6383333D02*
X11250000Y-6916667D01*
X14962565Y-5451470D02*
X14960219Y-5455961D01*
X14952047Y-2779870D02*
X14951153Y-2784857D01*
X18407127Y-7882076D02*
X18411211Y-7879077D01*
X14956225Y-5134731D02*
X14958104Y-5139436D01*
X18398530Y-8112565D02*
X18394039Y-8110219D01*
X14970922Y-10561211D02*
X14974124Y-10565137D01*
X14670130Y-8102047D02*
X14665143Y-8101153D01*
X11254586Y-10529936D02*
X11256225Y-10534731D01*
X11284863Y-2724124D02*
X11281103Y-2727521D01*
X14702896Y-2715136D02*
X14698530Y-2712565D01*
X14950000Y-4516667D02*
X14950000Y-5100000D01*
X11265135Y-5447104D02*
X11262565Y-5451470D01*
X15039883Y-5199487D02*
X15044935Y-5199872D01*
X14984863Y-10575876D02*
X14988789Y-10579078D01*
X11334857Y-5198847D02*
X11339883Y-5199487D01*
X18447953Y-5120130D02*
X18448847Y-5115143D01*
X11292873Y-8117924D02*
X11288789Y-8120922D01*
X18429078Y-8138789D02*
X18425876Y-8134863D01*
X14849900Y-6083333D02*
X14750000Y-6083333D01*
X14950000Y-9616667D02*
X14850100Y-9616667D01*
X18441896Y-2760564D02*
X18439780Y-2755961D01*
X15034857Y-2701153D02*
X15029870Y-2702047D01*
X18447953Y-2779870D02*
X18446808Y-2774935D01*
X14702896Y-10584864D02*
X14707127Y-10582076D01*
X14850100Y-4216667D02*
X14849900Y-4216667D01*
X14741896Y-7839435D02*
X14743775Y-7834730D01*
X14689435Y-10591896D02*
X14694039Y-10589780D01*
X14977521Y-5431103D02*
X14974124Y-5434863D01*
X14958104Y-5460564D02*
X14956225Y-5465269D01*
X12566667Y-8000100D02*
X12566667Y-7999900D01*
X11292873Y-7882076D02*
X11297103Y-7884864D01*
X11265135Y-7852896D02*
X11267924Y-7857127D01*
X14953192Y-10525065D02*
X14954586Y-10529936D01*
X14737435Y-2751470D02*
X14734864Y-2747104D01*
X14950513Y-10510117D02*
X14951153Y-10515143D01*
X14725876Y-5434863D02*
X14722479Y-5431103D01*
X14665143Y-10598847D02*
X14670130Y-10597953D01*
X11305960Y-8110219D02*
X11301470Y-8112565D01*
X14965135Y-5152896D02*
X14967924Y-5157127D01*
X18360117Y-7899487D02*
X18365143Y-7898847D01*
X13433333Y-5299900D02*
X13433333Y-5300100D01*
X16266667Y-8000100D02*
X16266667Y-7999900D01*
X11334857Y-7898847D02*
X11339883Y-7899487D01*
X14967924Y-10557127D02*
X14970922Y-10561211D01*
X18434864Y-8147103D02*
X18432076Y-8142873D01*
X18350000Y-10600000D02*
X18355065Y-10599872D01*
X11301470Y-8112565D02*
X11297103Y-8115135D01*
X18384731Y-8106225D02*
X18379936Y-8104586D01*
X11267924Y-10557127D02*
X11270922Y-10561211D01*
X11329870Y-7897953D02*
X11334857Y-7898847D01*
X14689435Y-5408104D02*
X14684730Y-5406225D01*
X14650000Y-8100000D02*
X13733333Y-8100000D01*
X18450000Y-3683333D02*
X18650000Y-3683333D01*
X14732076Y-5157127D02*
X14734864Y-5152896D01*
X18650000Y-7216667D02*
X18650000Y-8783333D01*
X15034857Y-7898847D02*
X15039883Y-7899487D01*
X11050000Y-10800000D02*
X11050000Y-9916667D01*
X18450000Y-9916667D02*
X18650000Y-9916667D01*
X14977521Y-5168897D02*
X14981103Y-5172479D01*
X14702896Y-5184864D02*
X14707127Y-5182076D01*
X15044935Y-5400128D02*
X15039883Y-5400513D01*
X11260219Y-5144039D02*
X11262565Y-5148530D01*
X14748847Y-5484857D02*
X14747953Y-5479870D01*
X11050000Y-9083333D02*
X11250000Y-9083333D01*
X14962565Y-2751470D02*
X14960219Y-2755961D01*
X11284863Y-5424124D02*
X11281103Y-5427521D01*
X14958104Y-7839435D02*
X14960219Y-7844039D01*
X11254586Y-5470064D02*
X11253192Y-5474935D01*
X18355065Y-7899872D02*
X18360117Y-7899487D01*
X14655065Y-8100128D02*
X14650000Y-8100000D01*
X11250128Y-8194935D02*
X11250000Y-8200000D01*
X14745414Y-5129936D02*
X14746808Y-5125065D01*
X14715137Y-5175876D02*
X14718897Y-5172479D01*
X15010564Y-5191896D02*
X15015269Y-5193775D01*
X11297103Y-7884864D02*
X11301470Y-7887435D01*
X18439780Y-2755961D02*
X18437435Y-2751470D01*
X15050000Y-7900000D02*
X15966667Y-7900000D01*
X14950000Y-5100000D02*
X14950128Y-5105065D01*
X18379936Y-5404586D02*
X18375065Y-5403192D01*
X14749487Y-2789883D02*
X14748847Y-2784857D01*
X14749872Y-2794935D02*
X14749487Y-2789883D01*
X18365143Y-5198847D02*
X18370130Y-5197953D01*
D11*
D10*
X11225000Y-1975000D02*
X11275000Y-2025000D01*
X11275000Y-1975000D02*
X11225000Y-2025000D01*
X11225000Y-2058333D02*
X11275000Y-2108333D01*
X11275000Y-2058333D02*
X11225000Y-2108333D01*
X11225000Y-2141667D02*
X11275000Y-2191667D01*
X11275000Y-2141667D02*
X11225000Y-2191667D01*
X11225000Y-2225000D02*
X11275000Y-2275000D01*
X11275000Y-2225000D02*
X11225000Y-2275000D01*
X11225000Y-2308333D02*
X11275000Y-2358333D01*
X11275000Y-2308333D02*
X11225000Y-2358333D01*
X11225000Y-2391667D02*
X11275000Y-2441667D01*
X11275000Y-2391667D02*
X11225000Y-2441667D01*
X11225000Y-2475000D02*
X11275000Y-2525000D01*
X11275000Y-2475000D02*
X11225000Y-2525000D01*
X11225000Y-10775000D02*
X11275000Y-10825000D01*
X11275000Y-10775000D02*
X11225000Y-10825000D01*
X11225000Y-10858333D02*
X11275000Y-10908333D01*
X11275000Y-10858333D02*
X11225000Y-10908333D01*
X11225000Y-10941667D02*
X11275000Y-10991667D01*
X11275000Y-10941667D02*
X11225000Y-10991667D01*
X11225000Y-11025000D02*
X11275000Y-11075000D01*
X11275000Y-11025000D02*
X11225000Y-11075000D01*
X11225000Y-11108333D02*
X11275000Y-11158333D01*
X11275000Y-11108333D02*
X11225000Y-11158333D01*
X11225000Y-11191667D02*
X11275000Y-11241667D01*
X11275000Y-11191667D02*
X11225000Y-11241667D01*
X11225000Y-11275000D02*
X11275000Y-11325000D01*
X11275000Y-11275000D02*
X11225000Y-11325000D01*
X11245000Y-3358333D02*
X11295000Y-3408333D01*
X11295000Y-3358333D02*
X11245000Y-3408333D01*
X11245000Y-3458333D02*
X11295000Y-3508333D01*
X11295000Y-3458333D02*
X11245000Y-3508333D01*
X11245000Y-3558333D02*
X11295000Y-3608333D01*
X11295000Y-3558333D02*
X11245000Y-3608333D01*
X11245000Y-3658333D02*
X11295000Y-3708333D01*
X11295000Y-3658333D02*
X11245000Y-3708333D01*
X11245000Y-4191667D02*
X11295000Y-4241667D01*
X11295000Y-4191667D02*
X11245000Y-4241667D01*
X11245000Y-4291667D02*
X11295000Y-4341667D01*
X11295000Y-4291667D02*
X11245000Y-4341667D01*
X11245000Y-4391667D02*
X11295000Y-4441667D01*
X11295000Y-4391667D02*
X11245000Y-4441667D01*
X11245000Y-4491667D02*
X11295000Y-4541667D01*
X11295000Y-4491667D02*
X11245000Y-4541667D01*
X11245000Y-6058333D02*
X11295000Y-6108333D01*
X11295000Y-6058333D02*
X11245000Y-6108333D01*
X11245000Y-6158333D02*
X11295000Y-6208333D01*
X11295000Y-6158333D02*
X11245000Y-6208333D01*
X11245000Y-6258333D02*
X11295000Y-6308333D01*
X11295000Y-6258333D02*
X11245000Y-6308333D01*
X11245000Y-6358333D02*
X11295000Y-6408333D01*
X11295000Y-6358333D02*
X11245000Y-6408333D01*
X11245000Y-6891667D02*
X11295000Y-6941667D01*
X11295000Y-6891667D02*
X11245000Y-6941667D01*
X11245000Y-6991667D02*
X11295000Y-7041667D01*
X11295000Y-6991667D02*
X11245000Y-7041667D01*
X11245000Y-7091667D02*
X11295000Y-7141667D01*
X11295000Y-7091667D02*
X11245000Y-7141667D01*
X11245000Y-7191667D02*
X11295000Y-7241667D01*
X11295000Y-7191667D02*
X11245000Y-7241667D01*
X11245000Y-8758333D02*
X11295000Y-8808333D01*
X11295000Y-8758333D02*
X11245000Y-8808333D01*
X11245000Y-8858333D02*
X11295000Y-8908333D01*
X11295000Y-8858333D02*
X11245000Y-8908333D01*
X11245000Y-8958333D02*
X11295000Y-9008333D01*
X11295000Y-8958333D02*
X11245000Y-9008333D01*
X11245000Y-9058333D02*
X11295000Y-9108333D01*
X11295000Y-9058333D02*
X11245000Y-9108333D01*
X11245000Y-9591667D02*
X11295000Y-9641667D01*
X11295000Y-9591667D02*
X11245000Y-9641667D01*
X11245000Y-9691667D02*
X11295000Y-9741667D01*
X11295000Y-9691667D02*
X11245000Y-9741667D01*
X11245000Y-9791667D02*
X11295000Y-9841667D01*
X11295000Y-9791667D02*
X11245000Y-9841667D01*
X11245000Y-9891667D02*
X11295000Y-9941667D01*
X11295000Y-9891667D02*
X11245000Y-9941667D01*
X12241667Y-2695000D02*
X12291667Y-2745000D01*
X12291667Y-2695000D02*
X12241667Y-2745000D01*
X12241667Y-5155000D02*
X12291667Y-5205000D01*
X12291667Y-5155000D02*
X12241667Y-5205000D01*
X12241667Y-5395000D02*
X12291667Y-5445000D01*
X12291667Y-5395000D02*
X12241667Y-5445000D01*
X12241667Y-7855000D02*
X12291667Y-7905000D01*
X12291667Y-7855000D02*
X12241667Y-7905000D01*
X12241667Y-8095000D02*
X12291667Y-8145000D01*
X12291667Y-8095000D02*
X12241667Y-8145000D01*
X12241667Y-10555000D02*
X12291667Y-10605000D01*
X12291667Y-10555000D02*
X12241667Y-10605000D01*
X12341667Y-2695000D02*
X12391667Y-2745000D01*
X12391667Y-2695000D02*
X12341667Y-2745000D01*
X12341667Y-5155000D02*
X12391667Y-5205000D01*
X12391667Y-5155000D02*
X12341667Y-5205000D01*
X12341667Y-5395000D02*
X12391667Y-5445000D01*
X12391667Y-5395000D02*
X12341667Y-5445000D01*
X12341667Y-7855000D02*
X12391667Y-7905000D01*
X12391667Y-7855000D02*
X12341667Y-7905000D01*
X12341667Y-8095000D02*
X12391667Y-8145000D01*
X12391667Y-8095000D02*
X12341667Y-8145000D01*
X12341667Y-10555000D02*
X12391667Y-10605000D01*
X12391667Y-10555000D02*
X12341667Y-10605000D01*
X12441667Y-2695000D02*
X12491667Y-2745000D01*
X12491667Y-2695000D02*
X12441667Y-2745000D01*
X12441667Y-5155000D02*
X12491667Y-5205000D01*
X12491667Y-5155000D02*
X12441667Y-5205000D01*
X12441667Y-5395000D02*
X12491667Y-5445000D01*
X12491667Y-5395000D02*
X12441667Y-5445000D01*
X12441667Y-7855000D02*
X12491667Y-7905000D01*
X12491667Y-7855000D02*
X12441667Y-7905000D01*
X12441667Y-8095000D02*
X12491667Y-8145000D01*
X12491667Y-8095000D02*
X12441667Y-8145000D01*
X12441667Y-10555000D02*
X12491667Y-10605000D01*
X12491667Y-10555000D02*
X12441667Y-10605000D01*
X12541667Y-2695000D02*
X12591667Y-2745000D01*
X12591667Y-2695000D02*
X12541667Y-2745000D01*
X12541667Y-5155000D02*
X12591667Y-5205000D01*
X12591667Y-5155000D02*
X12541667Y-5205000D01*
X12541667Y-5395000D02*
X12591667Y-5445000D01*
X12591667Y-5395000D02*
X12541667Y-5445000D01*
X12541667Y-7855000D02*
X12591667Y-7905000D01*
X12591667Y-7855000D02*
X12541667Y-7905000D01*
X12541667Y-8095000D02*
X12591667Y-8145000D01*
X12591667Y-8095000D02*
X12541667Y-8145000D01*
X12541667Y-10555000D02*
X12591667Y-10605000D01*
X12591667Y-10555000D02*
X12541667Y-10605000D01*
X13408333Y-2695000D02*
X13458333Y-2745000D01*
X13458333Y-2695000D02*
X13408333Y-2745000D01*
X13408333Y-5155000D02*
X13458333Y-5205000D01*
X13458333Y-5155000D02*
X13408333Y-5205000D01*
X13408333Y-5395000D02*
X13458333Y-5445000D01*
X13458333Y-5395000D02*
X13408333Y-5445000D01*
X13408333Y-7855000D02*
X13458333Y-7905000D01*
X13458333Y-7855000D02*
X13408333Y-7905000D01*
X13408333Y-8095000D02*
X13458333Y-8145000D01*
X13458333Y-8095000D02*
X13408333Y-8145000D01*
X13408333Y-10555000D02*
X13458333Y-10605000D01*
X13458333Y-10555000D02*
X13408333Y-10605000D01*
X13508333Y-2695000D02*
X13558333Y-2745000D01*
X13558333Y-2695000D02*
X13508333Y-2745000D01*
X13508333Y-5155000D02*
X13558333Y-5205000D01*
X13558333Y-5155000D02*
X13508333Y-5205000D01*
X13508333Y-5395000D02*
X13558333Y-5445000D01*
X13558333Y-5395000D02*
X13508333Y-5445000D01*
X13508333Y-7855000D02*
X13558333Y-7905000D01*
X13558333Y-7855000D02*
X13508333Y-7905000D01*
X13508333Y-8095000D02*
X13558333Y-8145000D01*
X13558333Y-8095000D02*
X13508333Y-8145000D01*
X13508333Y-10555000D02*
X13558333Y-10605000D01*
X13558333Y-10555000D02*
X13508333Y-10605000D01*
X13608333Y-2695000D02*
X13658333Y-2745000D01*
X13658333Y-2695000D02*
X13608333Y-2745000D01*
X13608333Y-5155000D02*
X13658333Y-5205000D01*
X13658333Y-5155000D02*
X13608333Y-5205000D01*
X13608333Y-5395000D02*
X13658333Y-5445000D01*
X13658333Y-5395000D02*
X13608333Y-5445000D01*
X13608333Y-7855000D02*
X13658333Y-7905000D01*
X13658333Y-7855000D02*
X13608333Y-7905000D01*
X13608333Y-8095000D02*
X13658333Y-8145000D01*
X13658333Y-8095000D02*
X13608333Y-8145000D01*
X13608333Y-10555000D02*
X13658333Y-10605000D01*
X13658333Y-10555000D02*
X13608333Y-10605000D01*
X13708333Y-2695000D02*
X13758333Y-2745000D01*
X13758333Y-2695000D02*
X13708333Y-2745000D01*
X13708333Y-5155000D02*
X13758333Y-5205000D01*
X13758333Y-5155000D02*
X13708333Y-5205000D01*
X13708333Y-5395000D02*
X13758333Y-5445000D01*
X13758333Y-5395000D02*
X13708333Y-5445000D01*
X13708333Y-7855000D02*
X13758333Y-7905000D01*
X13758333Y-7855000D02*
X13708333Y-7905000D01*
X13708333Y-8095000D02*
X13758333Y-8145000D01*
X13758333Y-8095000D02*
X13708333Y-8145000D01*
X13708333Y-10555000D02*
X13758333Y-10605000D01*
X13758333Y-10555000D02*
X13708333Y-10605000D01*
X14705000Y-3358333D02*
X14755000Y-3408333D01*
X14755000Y-3358333D02*
X14705000Y-3408333D01*
X14705000Y-3458333D02*
X14755000Y-3508333D01*
X14755000Y-3458333D02*
X14705000Y-3508333D01*
X14705000Y-3558333D02*
X14755000Y-3608333D01*
X14755000Y-3558333D02*
X14705000Y-3608333D01*
X14705000Y-3658333D02*
X14755000Y-3708333D01*
X14755000Y-3658333D02*
X14705000Y-3708333D01*
X14705000Y-4191667D02*
X14755000Y-4241667D01*
X14755000Y-4191667D02*
X14705000Y-4241667D01*
X14705000Y-4291667D02*
X14755000Y-4341667D01*
X14755000Y-4291667D02*
X14705000Y-4341667D01*
X14705000Y-4391667D02*
X14755000Y-4441667D01*
X14755000Y-4391667D02*
X14705000Y-4441667D01*
X14705000Y-4491667D02*
X14755000Y-4541667D01*
X14755000Y-4491667D02*
X14705000Y-4541667D01*
X14705000Y-6058333D02*
X14755000Y-6108333D01*
X14755000Y-6058333D02*
X14705000Y-6108333D01*
X14705000Y-6158333D02*
X14755000Y-6208333D01*
X14755000Y-6158333D02*
X14705000Y-6208333D01*
X14705000Y-6258333D02*
X14755000Y-6308333D01*
X14755000Y-6258333D02*
X14705000Y-6308333D01*
X14705000Y-6358333D02*
X14755000Y-6408333D01*
X14755000Y-6358333D02*
X14705000Y-6408333D01*
X14705000Y-6891667D02*
X14755000Y-6941667D01*
X14755000Y-6891667D02*
X14705000Y-6941667D01*
X14705000Y-6991667D02*
X14755000Y-7041667D01*
X14755000Y-6991667D02*
X14705000Y-7041667D01*
X14705000Y-7091667D02*
X14755000Y-7141667D01*
X14755000Y-7091667D02*
X14705000Y-7141667D01*
X14705000Y-7191667D02*
X14755000Y-7241667D01*
X14755000Y-7191667D02*
X14705000Y-7241667D01*
X14705000Y-8758333D02*
X14755000Y-8808333D01*
X14755000Y-8758333D02*
X14705000Y-8808333D01*
X14705000Y-8858333D02*
X14755000Y-8908333D01*
X14755000Y-8858333D02*
X14705000Y-8908333D01*
X14705000Y-8958333D02*
X14755000Y-9008333D01*
X14755000Y-8958333D02*
X14705000Y-9008333D01*
X14705000Y-9058333D02*
X14755000Y-9108333D01*
X14755000Y-9058333D02*
X14705000Y-9108333D01*
X14705000Y-9591667D02*
X14755000Y-9641667D01*
X14755000Y-9591667D02*
X14705000Y-9641667D01*
X14705000Y-9691667D02*
X14755000Y-9741667D01*
X14755000Y-9691667D02*
X14705000Y-9741667D01*
X14705000Y-9791667D02*
X14755000Y-9841667D01*
X14755000Y-9791667D02*
X14705000Y-9841667D01*
X14705000Y-9891667D02*
X14755000Y-9941667D01*
X14755000Y-9891667D02*
X14705000Y-9941667D01*
X14945000Y-3358333D02*
X14995000Y-3408333D01*
X14995000Y-3358333D02*
X14945000Y-3408333D01*
X14945000Y-3458333D02*
X14995000Y-3508333D01*
X14995000Y-3458333D02*
X14945000Y-3508333D01*
X14945000Y-3558333D02*
X14995000Y-3608333D01*
X14995000Y-3558333D02*
X14945000Y-3608333D01*
X14945000Y-3658333D02*
X14995000Y-3708333D01*
X14995000Y-3658333D02*
X14945000Y-3708333D01*
X14945000Y-4191667D02*
X14995000Y-4241667D01*
X14995000Y-4191667D02*
X14945000Y-4241667D01*
X14945000Y-4291667D02*
X14995000Y-4341667D01*
X14995000Y-4291667D02*
X14945000Y-4341667D01*
X14945000Y-4391667D02*
X14995000Y-4441667D01*
X14995000Y-4391667D02*
X14945000Y-4441667D01*
X14945000Y-4491667D02*
X14995000Y-4541667D01*
X14995000Y-4491667D02*
X14945000Y-4541667D01*
X14945000Y-6058333D02*
X14995000Y-6108333D01*
X14995000Y-6058333D02*
X14945000Y-6108333D01*
X14945000Y-6158333D02*
X14995000Y-6208333D01*
X14995000Y-6158333D02*
X14945000Y-6208333D01*
X14945000Y-6258333D02*
X14995000Y-6308333D01*
X14995000Y-6258333D02*
X14945000Y-6308333D01*
X14945000Y-6358333D02*
X14995000Y-6408333D01*
X14995000Y-6358333D02*
X14945000Y-6408333D01*
X14945000Y-6891667D02*
X14995000Y-6941667D01*
X14995000Y-6891667D02*
X14945000Y-6941667D01*
X14945000Y-6991667D02*
X14995000Y-7041667D01*
X14995000Y-6991667D02*
X14945000Y-7041667D01*
X14945000Y-7091667D02*
X14995000Y-7141667D01*
X14995000Y-7091667D02*
X14945000Y-7141667D01*
X14945000Y-7191667D02*
X14995000Y-7241667D01*
X14995000Y-7191667D02*
X14945000Y-7241667D01*
X14945000Y-8758333D02*
X14995000Y-8808333D01*
X14995000Y-8758333D02*
X14945000Y-8808333D01*
X14945000Y-8858333D02*
X14995000Y-8908333D01*
X14995000Y-8858333D02*
X14945000Y-8908333D01*
X14945000Y-8958333D02*
X14995000Y-9008333D01*
X14995000Y-8958333D02*
X14945000Y-9008333D01*
X14945000Y-9058333D02*
X14995000Y-9108333D01*
X14995000Y-9058333D02*
X14945000Y-9108333D01*
X14945000Y-9591667D02*
X14995000Y-9641667D01*
X14995000Y-9591667D02*
X14945000Y-9641667D01*
X14945000Y-9691667D02*
X14995000Y-9741667D01*
X14995000Y-9691667D02*
X14945000Y-9741667D01*
X14945000Y-9791667D02*
X14995000Y-9841667D01*
X14995000Y-9791667D02*
X14945000Y-9841667D01*
X14945000Y-9891667D02*
X14995000Y-9941667D01*
X14995000Y-9891667D02*
X14945000Y-9941667D01*
X15941667Y-2695000D02*
X15991667Y-2745000D01*
X15991667Y-2695000D02*
X15941667Y-2745000D01*
X15941667Y-5155000D02*
X15991667Y-5205000D01*
X15991667Y-5155000D02*
X15941667Y-5205000D01*
X15941667Y-5395000D02*
X15991667Y-5445000D01*
X15991667Y-5395000D02*
X15941667Y-5445000D01*
X15941667Y-7855000D02*
X15991667Y-7905000D01*
X15991667Y-7855000D02*
X15941667Y-7905000D01*
X15941667Y-8095000D02*
X15991667Y-8145000D01*
X15991667Y-8095000D02*
X15941667Y-8145000D01*
X15941667Y-10555000D02*
X15991667Y-10605000D01*
X15991667Y-10555000D02*
X15941667Y-10605000D01*
X16041667Y-2695000D02*
X16091667Y-2745000D01*
X16091667Y-2695000D02*
X16041667Y-2745000D01*
X16041667Y-5155000D02*
X16091667Y-5205000D01*
X16091667Y-5155000D02*
X16041667Y-5205000D01*
X16041667Y-5395000D02*
X16091667Y-5445000D01*
X16091667Y-5395000D02*
X16041667Y-5445000D01*
X16041667Y-7855000D02*
X16091667Y-7905000D01*
X16091667Y-7855000D02*
X16041667Y-7905000D01*
X16041667Y-8095000D02*
X16091667Y-8145000D01*
X16091667Y-8095000D02*
X16041667Y-8145000D01*
X16041667Y-10555000D02*
X16091667Y-10605000D01*
X16091667Y-10555000D02*
X16041667Y-10605000D01*
X16141667Y-2695000D02*
X16191667Y-2745000D01*
X16191667Y-2695000D02*
X16141667Y-2745000D01*
X16141667Y-5155000D02*
X16191667Y-5205000D01*
X16191667Y-5155000D02*
X16141667Y-5205000D01*
X16141667Y-5395000D02*
X16191667Y-5445000D01*
X16191667Y-5395000D02*
X16141667Y-5445000D01*
X16141667Y-7855000D02*
X16191667Y-7905000D01*
X16191667Y-7855000D02*
X16141667Y-7905000D01*
X16141667Y-8095000D02*
X16191667Y-8145000D01*
X16191667Y-8095000D02*
X16141667Y-8145000D01*
X16141667Y-10555000D02*
X16191667Y-10605000D01*
X16191667Y-10555000D02*
X16141667Y-10605000D01*
X16241667Y-2695000D02*
X16291667Y-2745000D01*
X16291667Y-2695000D02*
X16241667Y-2745000D01*
X16241667Y-5155000D02*
X16291667Y-5205000D01*
X16291667Y-5155000D02*
X16241667Y-5205000D01*
X16241667Y-5395000D02*
X16291667Y-5445000D01*
X16291667Y-5395000D02*
X16241667Y-5445000D01*
X16241667Y-7855000D02*
X16291667Y-7905000D01*
X16291667Y-7855000D02*
X16241667Y-7905000D01*
X16241667Y-8095000D02*
X16291667Y-8145000D01*
X16291667Y-8095000D02*
X16241667Y-8145000D01*
X16241667Y-10555000D02*
X16291667Y-10605000D01*
X16291667Y-10555000D02*
X16241667Y-10605000D01*
X17108333Y-2695000D02*
X17158333Y-2745000D01*
X17158333Y-2695000D02*
X17108333Y-2745000D01*
X17108333Y-5155000D02*
X17158333Y-5205000D01*
X17158333Y-5155000D02*
X17108333Y-5205000D01*
X17108333Y-5395000D02*
X17158333Y-5445000D01*
X17158333Y-5395000D02*
X17108333Y-5445000D01*
X17108333Y-7855000D02*
X17158333Y-7905000D01*
X17158333Y-7855000D02*
X17108333Y-7905000D01*
X17108333Y-8095000D02*
X17158333Y-8145000D01*
X17158333Y-8095000D02*
X17108333Y-8145000D01*
X17108333Y-10555000D02*
X17158333Y-10605000D01*
X17158333Y-10555000D02*
X17108333Y-10605000D01*
X17208333Y-2695000D02*
X17258333Y-2745000D01*
X17258333Y-2695000D02*
X17208333Y-2745000D01*
X17208333Y-5155000D02*
X17258333Y-5205000D01*
X17258333Y-5155000D02*
X17208333Y-5205000D01*
X17208333Y-5395000D02*
X17258333Y-5445000D01*
X17258333Y-5395000D02*
X17208333Y-5445000D01*
X17208333Y-7855000D02*
X17258333Y-7905000D01*
X17258333Y-7855000D02*
X17208333Y-7905000D01*
X17208333Y-8095000D02*
X17258333Y-8145000D01*
X17258333Y-8095000D02*
X17208333Y-8145000D01*
X17208333Y-10555000D02*
X17258333Y-10605000D01*
X17258333Y-10555000D02*
X17208333Y-10605000D01*
X17308333Y-2695000D02*
X17358333Y-2745000D01*
X17358333Y-2695000D02*
X17308333Y-2745000D01*
X17308333Y-5155000D02*
X17358333Y-5205000D01*
X17358333Y-5155000D02*
X17308333Y-5205000D01*
X17308333Y-5395000D02*
X17358333Y-5445000D01*
X17358333Y-5395000D02*
X17308333Y-5445000D01*
X17308333Y-7855000D02*
X17358333Y-7905000D01*
X17358333Y-7855000D02*
X17308333Y-7905000D01*
X17308333Y-8095000D02*
X17358333Y-8145000D01*
X17358333Y-8095000D02*
X17308333Y-8145000D01*
X17308333Y-10555000D02*
X17358333Y-10605000D01*
X17358333Y-10555000D02*
X17308333Y-10605000D01*
X17408333Y-2695000D02*
X17458333Y-2745000D01*
X17458333Y-2695000D02*
X17408333Y-2745000D01*
X17408333Y-5155000D02*
X17458333Y-5205000D01*
X17458333Y-5155000D02*
X17408333Y-5205000D01*
X17408333Y-5395000D02*
X17458333Y-5445000D01*
X17458333Y-5395000D02*
X17408333Y-5445000D01*
X17408333Y-7855000D02*
X17458333Y-7905000D01*
X17458333Y-7855000D02*
X17408333Y-7905000D01*
X17408333Y-8095000D02*
X17458333Y-8145000D01*
X17458333Y-8095000D02*
X17408333Y-8145000D01*
X17408333Y-10555000D02*
X17458333Y-10605000D01*
X17458333Y-10555000D02*
X17408333Y-10605000D01*
X18405000Y-3358333D02*
X18455000Y-3408333D01*
X18455000Y-3358333D02*
X18405000Y-3408333D01*
X18405000Y-3458333D02*
X18455000Y-3508333D01*
X18455000Y-3458333D02*
X18405000Y-3508333D01*
X18405000Y-3558333D02*
X18455000Y-3608333D01*
X18455000Y-3558333D02*
X18405000Y-3608333D01*
X18405000Y-3658333D02*
X18455000Y-3708333D01*
X18455000Y-3658333D02*
X18405000Y-3708333D01*
X18405000Y-4191667D02*
X18455000Y-4241667D01*
X18455000Y-4191667D02*
X18405000Y-4241667D01*
X18405000Y-4291667D02*
X18455000Y-4341667D01*
X18455000Y-4291667D02*
X18405000Y-4341667D01*
X18405000Y-4391667D02*
X18455000Y-4441667D01*
X18455000Y-4391667D02*
X18405000Y-4441667D01*
X18405000Y-4491667D02*
X18455000Y-4541667D01*
X18455000Y-4491667D02*
X18405000Y-4541667D01*
X18405000Y-6058333D02*
X18455000Y-6108333D01*
X18455000Y-6058333D02*
X18405000Y-6108333D01*
X18405000Y-6158333D02*
X18455000Y-6208333D01*
X18455000Y-6158333D02*
X18405000Y-6208333D01*
X18405000Y-6258333D02*
X18455000Y-6308333D01*
X18455000Y-6258333D02*
X18405000Y-6308333D01*
X18405000Y-6358333D02*
X18455000Y-6408333D01*
X18455000Y-6358333D02*
X18405000Y-6408333D01*
X18405000Y-6891667D02*
X18455000Y-6941667D01*
X18455000Y-6891667D02*
X18405000Y-6941667D01*
X18405000Y-6991667D02*
X18455000Y-7041667D01*
X18455000Y-6991667D02*
X18405000Y-7041667D01*
X18405000Y-7091667D02*
X18455000Y-7141667D01*
X18455000Y-7091667D02*
X18405000Y-7141667D01*
X18405000Y-7191667D02*
X18455000Y-7241667D01*
X18455000Y-7191667D02*
X18405000Y-7241667D01*
X18405000Y-8758333D02*
X18455000Y-8808333D01*
X18455000Y-8758333D02*
X18405000Y-8808333D01*
X18405000Y-8858333D02*
X18455000Y-8908333D01*
X18455000Y-8858333D02*
X18405000Y-8908333D01*
X18405000Y-8958333D02*
X18455000Y-9008333D01*
X18455000Y-8958333D02*
X18405000Y-9008333D01*
X18405000Y-9058333D02*
X18455000Y-9108333D01*
X18455000Y-9058333D02*
X18405000Y-9108333D01*
X18405000Y-9591667D02*
X18455000Y-9641667D01*
X18455000Y-9591667D02*
X18405000Y-9641667D01*
X18405000Y-9691667D02*
X18455000Y-9741667D01*
X18455000Y-9691667D02*
X18405000Y-9741667D01*
X18405000Y-9791667D02*
X18455000Y-9841667D01*
X18455000Y-9791667D02*
X18405000Y-9841667D01*
X18405000Y-9891667D02*
X18455000Y-9941667D01*
X18455000Y-9891667D02*
X18405000Y-9941667D01*
X18425000Y-1975000D02*
X18475000Y-2025000D01*
X18475000Y-1975000D02*
X18425000Y-2025000D01*
X18425000Y-2058333D02*
X18475000Y-2108333D01*
X18475000Y-2058333D02*
X18425000Y-2108333D01*
X18425000Y-2141667D02*
X18475000Y-2191667D01*
X18475000Y-2141667D02*
X18425000Y-2191667D01*
X18425000Y-2225000D02*
X18475000Y-2275000D01*
X18475000Y-2225000D02*
X18425000Y-2275000D01*
X18425000Y-2308333D02*
X18475000Y-2358333D01*
X18475000Y-2308333D02*
X18425000Y-2358333D01*
X18425000Y-2391667D02*
X18475000Y-2441667D01*
X18475000Y-2391667D02*
X18425000Y-2441667D01*
X18425000Y-2475000D02*
X18475000Y-2525000D01*
X18475000Y-2475000D02*
X18425000Y-2525000D01*
X18425000Y-10775000D02*
X18475000Y-10825000D01*
X18475000Y-10775000D02*
X18425000Y-10825000D01*
X18425000Y-10858333D02*
X18475000Y-10908333D01*
X18475000Y-10858333D02*
X18425000Y-10908333D01*
X18425000Y-10941667D02*
X18475000Y-10991667D01*
X18475000Y-10941667D02*
X18425000Y-10991667D01*
X18425000Y-11025000D02*
X18475000Y-11075000D01*
X18475000Y-11025000D02*
X18425000Y-11075000D01*
X18425000Y-11108333D02*
X18475000Y-11158333D01*
X18475000Y-11108333D02*
X18425000Y-11158333D01*
X18425000Y-11191667D02*
X18475000Y-11241667D01*
X18475000Y-11191667D02*
X18425000Y-11241667D01*
X18425000Y-11275000D02*
X18475000Y-11325000D01*
X18475000Y-11275000D02*
X18425000Y-11325000D01*
X10800000Y-2200000D02*
G75*
G02*
X10700000Y-2200000I-50000J0D01*
G01*
X10700000Y-2200000D02*
G75*
G02*
X10800000Y-2200000I50000J0D01*
G01*
X10800000Y-11100000D02*
G75*
G02*
X10700000Y-11100000I-50000J0D01*
G01*
X10700000Y-11100000D02*
G75*
G02*
X10800000Y-11100000I50000J0D01*
G01*
X19000000Y-2200000D02*
G75*
G02*
X18900000Y-2200000I-50000J0D01*
G01*
X18900000Y-2200000D02*
G75*
G02*
X19000000Y-2200000I50000J0D01*
G01*
D11*
X11480000Y-2830000D02*
X11480000Y-3030000D01*
X11380000Y-2930000D02*
X11580000Y-2930000D01*
X11480000Y-4870000D02*
X11480000Y-5070000D01*
X11380000Y-4970000D02*
X11580000Y-4970000D01*
X11480000Y-5530000D02*
X11480000Y-5730000D01*
X11380000Y-5630000D02*
X11580000Y-5630000D01*
X11480000Y-7570000D02*
X11480000Y-7770000D01*
X11380000Y-7670000D02*
X11580000Y-7670000D01*
X11480000Y-8230000D02*
X11480000Y-8430000D01*
X11380000Y-8330000D02*
X11580000Y-8330000D01*
X11480000Y-10270000D02*
X11480000Y-10470000D01*
X11380000Y-10370000D02*
X11580000Y-10370000D01*
X14520000Y-2830000D02*
X14520000Y-3030000D01*
X14420000Y-2930000D02*
X14620000Y-2930000D01*
X14520000Y-4870000D02*
X14520000Y-5070000D01*
X14420000Y-4970000D02*
X14620000Y-4970000D01*
X14520000Y-5530000D02*
X14520000Y-5730000D01*
X14420000Y-5630000D02*
X14620000Y-5630000D01*
X14520000Y-7570000D02*
X14520000Y-7770000D01*
X14420000Y-7670000D02*
X14620000Y-7670000D01*
X14520000Y-8230000D02*
X14520000Y-8430000D01*
X14420000Y-8330000D02*
X14620000Y-8330000D01*
X14520000Y-10270000D02*
X14520000Y-10470000D01*
X14420000Y-10370000D02*
X14620000Y-10370000D01*
X15180000Y-2830000D02*
X15180000Y-3030000D01*
X15080000Y-2930000D02*
X15280000Y-2930000D01*
X15180000Y-4870000D02*
X15180000Y-5070000D01*
X15080000Y-4970000D02*
X15280000Y-4970000D01*
X15180000Y-5530000D02*
X15180000Y-5730000D01*
X15080000Y-5630000D02*
X15280000Y-5630000D01*
X15180000Y-7570000D02*
X15180000Y-7770000D01*
X15080000Y-7670000D02*
X15280000Y-7670000D01*
X15180000Y-8230000D02*
X15180000Y-8430000D01*
X15080000Y-8330000D02*
X15280000Y-8330000D01*
X15180000Y-10270000D02*
X15180000Y-10470000D01*
X15080000Y-10370000D02*
X15280000Y-10370000D01*
X18220000Y-2830000D02*
X18220000Y-3030000D01*
X18120000Y-2930000D02*
X18320000Y-2930000D01*
X18220000Y-4870000D02*
X18220000Y-5070000D01*
X18120000Y-4970000D02*
X18320000Y-4970000D01*
X18220000Y-5530000D02*
X18220000Y-5730000D01*
X18120000Y-5630000D02*
X18320000Y-5630000D01*
X18220000Y-7570000D02*
X18220000Y-7770000D01*
X18120000Y-7670000D02*
X18320000Y-7670000D01*
X18220000Y-8230000D02*
X18220000Y-8430000D01*
X18120000Y-8330000D02*
X18320000Y-8330000D01*
X18220000Y-10270000D02*
X18220000Y-10470000D01*
X18120000Y-10370000D02*
X18320000Y-10370000D01*
X10805777Y-11616484D02*
X10805777Y-11416484D01*
X10805777Y-11416484D02*
X10853396Y-11416484D01*
X10853396Y-11416484D02*
X10881967Y-11426008D01*
X10881967Y-11426008D02*
X10901015Y-11445055D01*
X10901015Y-11445055D02*
X10910539Y-11464103D01*
X10910539Y-11464103D02*
X10920063Y-11502198D01*
X10920063Y-11502198D02*
X10920063Y-11530769D01*
X10920063Y-11530769D02*
X10910539Y-11568865D01*
X10910539Y-11568865D02*
X10901015Y-11587912D01*
X10901015Y-11587912D02*
X10881967Y-11606960D01*
X10881967Y-11606960D02*
X10853396Y-11616484D01*
X10853396Y-11616484D02*
X10805777Y-11616484D01*
X11005777Y-11616484D02*
X11005777Y-11483150D01*
X11005777Y-11521246D02*
X11015301Y-11502198D01*
X11015301Y-11502198D02*
X11024824Y-11492674D01*
X11024824Y-11492674D02*
X11043872Y-11483150D01*
X11043872Y-11483150D02*
X11062920Y-11483150D01*
X11129586Y-11616484D02*
X11129586Y-11483150D01*
X11129586Y-11416484D02*
X11120063Y-11426008D01*
X11120063Y-11426008D02*
X11129586Y-11435531D01*
X11129586Y-11435531D02*
X11139110Y-11426008D01*
X11139110Y-11426008D02*
X11129586Y-11416484D01*
X11129586Y-11416484D02*
X11129586Y-11435531D01*
X11253396Y-11616484D02*
X11234348Y-11606960D01*
X11234348Y-11606960D02*
X11224824Y-11587912D01*
X11224824Y-11587912D02*
X11224824Y-11416484D01*
X11358158Y-11616484D02*
X11339110Y-11606960D01*
X11339110Y-11606960D02*
X11329586Y-11587912D01*
X11329586Y-11587912D02*
X11329586Y-11416484D01*
X11586729Y-11616484D02*
X11586729Y-11416484D01*
X11586729Y-11416484D02*
X11653396Y-11559341D01*
X11653396Y-11559341D02*
X11720062Y-11416484D01*
X11720062Y-11416484D02*
X11720062Y-11616484D01*
X11901015Y-11616484D02*
X11901015Y-11511722D01*
X11901015Y-11511722D02*
X11891491Y-11492674D01*
X11891491Y-11492674D02*
X11872443Y-11483150D01*
X11872443Y-11483150D02*
X11834348Y-11483150D01*
X11834348Y-11483150D02*
X11815301Y-11492674D01*
X11901015Y-11606960D02*
X11881967Y-11616484D01*
X11881967Y-11616484D02*
X11834348Y-11616484D01*
X11834348Y-11616484D02*
X11815301Y-11606960D01*
X11815301Y-11606960D02*
X11805777Y-11587912D01*
X11805777Y-11587912D02*
X11805777Y-11568865D01*
X11805777Y-11568865D02*
X11815301Y-11549817D01*
X11815301Y-11549817D02*
X11834348Y-11540293D01*
X11834348Y-11540293D02*
X11881967Y-11540293D01*
X11881967Y-11540293D02*
X11901015Y-11530769D01*
X11996253Y-11483150D02*
X11996253Y-11683150D01*
X11996253Y-11492674D02*
X12015301Y-11483150D01*
X12015301Y-11483150D02*
X12053396Y-11483150D01*
X12053396Y-11483150D02*
X12072443Y-11492674D01*
X12072443Y-11492674D02*
X12081967Y-11502198D01*
X12081967Y-11502198D02*
X12091491Y-11521246D01*
X12091491Y-11521246D02*
X12091491Y-11578388D01*
X12091491Y-11578388D02*
X12081967Y-11597436D01*
X12081967Y-11597436D02*
X12072443Y-11606960D01*
X12072443Y-11606960D02*
X12053396Y-11616484D01*
X12053396Y-11616484D02*
X12015301Y-11616484D01*
X12015301Y-11616484D02*
X11996253Y-11606960D01*
X12177205Y-11597436D02*
X12186729Y-11606960D01*
X12186729Y-11606960D02*
X12177205Y-11616484D01*
X12177205Y-11616484D02*
X12167682Y-11606960D01*
X12167682Y-11606960D02*
X12177205Y-11597436D01*
X12177205Y-11597436D02*
X12177205Y-11616484D01*
X12177205Y-11492674D02*
X12186729Y-11502198D01*
X12186729Y-11502198D02*
X12177205Y-11511722D01*
X12177205Y-11511722D02*
X12167682Y-11502198D01*
X12167682Y-11502198D02*
X12177205Y-11492674D01*
X12177205Y-11492674D02*
X12177205Y-11511722D01*
D10*
X10495000Y-11920000D02*
X10545000Y-11970000D01*
X10545000Y-11920000D02*
X10495000Y-11970000D01*
D11*
X10843872Y-11836484D02*
X10862920Y-11836484D01*
X10862920Y-11836484D02*
X10881967Y-11846008D01*
X10881967Y-11846008D02*
X10891491Y-11855531D01*
X10891491Y-11855531D02*
X10901015Y-11874579D01*
X10901015Y-11874579D02*
X10910539Y-11912674D01*
X10910539Y-11912674D02*
X10910539Y-11960293D01*
X10910539Y-11960293D02*
X10901015Y-11998388D01*
X10901015Y-11998388D02*
X10891491Y-12017436D01*
X10891491Y-12017436D02*
X10881967Y-12026960D01*
X10881967Y-12026960D02*
X10862920Y-12036484D01*
X10862920Y-12036484D02*
X10843872Y-12036484D01*
X10843872Y-12036484D02*
X10824824Y-12026960D01*
X10824824Y-12026960D02*
X10815301Y-12017436D01*
X10815301Y-12017436D02*
X10805777Y-11998388D01*
X10805777Y-11998388D02*
X10796253Y-11960293D01*
X10796253Y-11960293D02*
X10796253Y-11912674D01*
X10796253Y-11912674D02*
X10805777Y-11874579D01*
X10805777Y-11874579D02*
X10815301Y-11855531D01*
X10815301Y-11855531D02*
X10824824Y-11846008D01*
X10824824Y-11846008D02*
X10843872Y-11836484D01*
X10996253Y-12017436D02*
X11005777Y-12026960D01*
X11005777Y-12026960D02*
X10996253Y-12036484D01*
X10996253Y-12036484D02*
X10986729Y-12026960D01*
X10986729Y-12026960D02*
X10996253Y-12017436D01*
X10996253Y-12017436D02*
X10996253Y-12036484D01*
X11186729Y-11836484D02*
X11091491Y-11836484D01*
X11091491Y-11836484D02*
X11081967Y-11931722D01*
X11081967Y-11931722D02*
X11091491Y-11922198D01*
X11091491Y-11922198D02*
X11110539Y-11912674D01*
X11110539Y-11912674D02*
X11158158Y-11912674D01*
X11158158Y-11912674D02*
X11177205Y-11922198D01*
X11177205Y-11922198D02*
X11186729Y-11931722D01*
X11186729Y-11931722D02*
X11196253Y-11950769D01*
X11196253Y-11950769D02*
X11196253Y-11998388D01*
X11196253Y-11998388D02*
X11186729Y-12017436D01*
X11186729Y-12017436D02*
X11177205Y-12026960D01*
X11177205Y-12026960D02*
X11158158Y-12036484D01*
X11158158Y-12036484D02*
X11110539Y-12036484D01*
X11110539Y-12036484D02*
X11091491Y-12026960D01*
X11091491Y-12026960D02*
X11081967Y-12017436D01*
X11320062Y-11836484D02*
X11339110Y-11836484D01*
X11339110Y-11836484D02*
X11358158Y-11846008D01*
X11358158Y-11846008D02*
X11367682Y-11855531D01*
X11367682Y-11855531D02*
X11377205Y-11874579D01*
X11377205Y-11874579D02*
X11386729Y-11912674D01*
X11386729Y-11912674D02*
X11386729Y-11960293D01*
X11386729Y-11960293D02*
X11377205Y-11998388D01*
X11377205Y-11998388D02*
X11367682Y-12017436D01*
X11367682Y-12017436D02*
X11358158Y-12026960D01*
X11358158Y-12026960D02*
X11339110Y-12036484D01*
X11339110Y-12036484D02*
X11320062Y-12036484D01*
X11320062Y-12036484D02*
X11301015Y-12026960D01*
X11301015Y-12026960D02*
X11291491Y-12017436D01*
X11291491Y-12017436D02*
X11281967Y-11998388D01*
X11281967Y-11998388D02*
X11272443Y-11960293D01*
X11272443Y-11960293D02*
X11272443Y-11912674D01*
X11272443Y-11912674D02*
X11281967Y-11874579D01*
X11281967Y-11874579D02*
X11291491Y-11855531D01*
X11291491Y-11855531D02*
X11301015Y-11846008D01*
X11301015Y-11846008D02*
X11320062Y-11836484D01*
X11510539Y-11836484D02*
X11529586Y-11836484D01*
X11529586Y-11836484D02*
X11548634Y-11846008D01*
X11548634Y-11846008D02*
X11558158Y-11855531D01*
X11558158Y-11855531D02*
X11567682Y-11874579D01*
X11567682Y-11874579D02*
X11577205Y-11912674D01*
X11577205Y-11912674D02*
X11577205Y-11960293D01*
X11577205Y-11960293D02*
X11567682Y-11998388D01*
X11567682Y-11998388D02*
X11558158Y-12017436D01*
X11558158Y-12017436D02*
X11548634Y-12026960D01*
X11548634Y-12026960D02*
X11529586Y-12036484D01*
X11529586Y-12036484D02*
X11510539Y-12036484D01*
X11510539Y-12036484D02*
X11491491Y-12026960D01*
X11491491Y-12026960D02*
X11481967Y-12017436D01*
X11481967Y-12017436D02*
X11472443Y-11998388D01*
X11472443Y-11998388D02*
X11462920Y-11960293D01*
X11462920Y-11960293D02*
X11462920Y-11912674D01*
X11462920Y-11912674D02*
X11472443Y-11874579D01*
X11472443Y-11874579D02*
X11481967Y-11855531D01*
X11481967Y-11855531D02*
X11491491Y-11846008D01*
X11491491Y-11846008D02*
X11510539Y-11836484D01*
X11662920Y-12036484D02*
X11662920Y-11903150D01*
X11662920Y-11922198D02*
X11672443Y-11912674D01*
X11672443Y-11912674D02*
X11691491Y-11903150D01*
X11691491Y-11903150D02*
X11720063Y-11903150D01*
X11720063Y-11903150D02*
X11739110Y-11912674D01*
X11739110Y-11912674D02*
X11748634Y-11931722D01*
X11748634Y-11931722D02*
X11748634Y-12036484D01*
X11748634Y-11931722D02*
X11758158Y-11912674D01*
X11758158Y-11912674D02*
X11777205Y-11903150D01*
X11777205Y-11903150D02*
X11805777Y-11903150D01*
X11805777Y-11903150D02*
X11824824Y-11912674D01*
X11824824Y-11912674D02*
X11834348Y-11931722D01*
X11834348Y-11931722D02*
X11834348Y-12036484D01*
X11929586Y-12036484D02*
X11929586Y-11903150D01*
X11929586Y-11922198D02*
X11939110Y-11912674D01*
X11939110Y-11912674D02*
X11958158Y-11903150D01*
X11958158Y-11903150D02*
X11986729Y-11903150D01*
X11986729Y-11903150D02*
X12005777Y-11912674D01*
X12005777Y-11912674D02*
X12015301Y-11931722D01*
X12015301Y-11931722D02*
X12015301Y-12036484D01*
X12015301Y-11931722D02*
X12024824Y-11912674D01*
X12024824Y-11912674D02*
X12043872Y-11903150D01*
X12043872Y-11903150D02*
X12072443Y-11903150D01*
X12072443Y-11903150D02*
X12091491Y-11912674D01*
X12091491Y-11912674D02*
X12101015Y-11931722D01*
X12101015Y-11931722D02*
X12101015Y-12036484D01*
X12491491Y-11826960D02*
X12320063Y-12084103D01*
X12748634Y-11836484D02*
X12767682Y-11836484D01*
X12767682Y-11836484D02*
X12786729Y-11846008D01*
X12786729Y-11846008D02*
X12796253Y-11855531D01*
X12796253Y-11855531D02*
X12805777Y-11874579D01*
X12805777Y-11874579D02*
X12815301Y-11912674D01*
X12815301Y-11912674D02*
X12815301Y-11960293D01*
X12815301Y-11960293D02*
X12805777Y-11998388D01*
X12805777Y-11998388D02*
X12796253Y-12017436D01*
X12796253Y-12017436D02*
X12786729Y-12026960D01*
X12786729Y-12026960D02*
X12767682Y-12036484D01*
X12767682Y-12036484D02*
X12748634Y-12036484D01*
X12748634Y-12036484D02*
X12729586Y-12026960D01*
X12729586Y-12026960D02*
X12720063Y-12017436D01*
X12720063Y-12017436D02*
X12710539Y-11998388D01*
X12710539Y-11998388D02*
X12701015Y-11960293D01*
X12701015Y-11960293D02*
X12701015Y-11912674D01*
X12701015Y-11912674D02*
X12710539Y-11874579D01*
X12710539Y-11874579D02*
X12720063Y-11855531D01*
X12720063Y-11855531D02*
X12729586Y-11846008D01*
X12729586Y-11846008D02*
X12748634Y-11836484D01*
X12901015Y-12017436D02*
X12910539Y-12026960D01*
X12910539Y-12026960D02*
X12901015Y-12036484D01*
X12901015Y-12036484D02*
X12891491Y-12026960D01*
X12891491Y-12026960D02*
X12901015Y-12017436D01*
X12901015Y-12017436D02*
X12901015Y-12036484D01*
X13034348Y-11836484D02*
X13053396Y-11836484D01*
X13053396Y-11836484D02*
X13072444Y-11846008D01*
X13072444Y-11846008D02*
X13081967Y-11855531D01*
X13081967Y-11855531D02*
X13091491Y-11874579D01*
X13091491Y-11874579D02*
X13101015Y-11912674D01*
X13101015Y-11912674D02*
X13101015Y-11960293D01*
X13101015Y-11960293D02*
X13091491Y-11998388D01*
X13091491Y-11998388D02*
X13081967Y-12017436D01*
X13081967Y-12017436D02*
X13072444Y-12026960D01*
X13072444Y-12026960D02*
X13053396Y-12036484D01*
X13053396Y-12036484D02*
X13034348Y-12036484D01*
X13034348Y-12036484D02*
X13015301Y-12026960D01*
X13015301Y-12026960D02*
X13005777Y-12017436D01*
X13005777Y-12017436D02*
X12996253Y-11998388D01*
X12996253Y-11998388D02*
X12986729Y-11960293D01*
X12986729Y-11960293D02*
X12986729Y-11912674D01*
X12986729Y-11912674D02*
X12996253Y-11874579D01*
X12996253Y-11874579D02*
X13005777Y-11855531D01*
X13005777Y-11855531D02*
X13015301Y-11846008D01*
X13015301Y-11846008D02*
X13034348Y-11836484D01*
X13291491Y-12036484D02*
X13177206Y-12036484D01*
X13234348Y-12036484D02*
X13234348Y-11836484D01*
X13234348Y-11836484D02*
X13215301Y-11865055D01*
X13215301Y-11865055D02*
X13196253Y-11884103D01*
X13196253Y-11884103D02*
X13177206Y-11893627D01*
X13386729Y-12036484D02*
X13424825Y-12036484D01*
X13424825Y-12036484D02*
X13443872Y-12026960D01*
X13443872Y-12026960D02*
X13453396Y-12017436D01*
X13453396Y-12017436D02*
X13472444Y-11988865D01*
X13472444Y-11988865D02*
X13481967Y-11950769D01*
X13481967Y-11950769D02*
X13481967Y-11874579D01*
X13481967Y-11874579D02*
X13472444Y-11855531D01*
X13472444Y-11855531D02*
X13462920Y-11846008D01*
X13462920Y-11846008D02*
X13443872Y-11836484D01*
X13443872Y-11836484D02*
X13405777Y-11836484D01*
X13405777Y-11836484D02*
X13386729Y-11846008D01*
X13386729Y-11846008D02*
X13377206Y-11855531D01*
X13377206Y-11855531D02*
X13367682Y-11874579D01*
X13367682Y-11874579D02*
X13367682Y-11922198D01*
X13367682Y-11922198D02*
X13377206Y-11941246D01*
X13377206Y-11941246D02*
X13386729Y-11950769D01*
X13386729Y-11950769D02*
X13405777Y-11960293D01*
X13405777Y-11960293D02*
X13443872Y-11960293D01*
X13443872Y-11960293D02*
X13462920Y-11950769D01*
X13462920Y-11950769D02*
X13472444Y-11941246D01*
X13472444Y-11941246D02*
X13481967Y-11922198D01*
X13548634Y-11836484D02*
X13681967Y-11836484D01*
X13681967Y-11836484D02*
X13596253Y-12036484D01*
X13748634Y-11836484D02*
X13748634Y-11874579D01*
X13824825Y-11836484D02*
X13824825Y-11874579D01*
X14120063Y-12112674D02*
X14110539Y-12103150D01*
X14110539Y-12103150D02*
X14091491Y-12074579D01*
X14091491Y-12074579D02*
X14081968Y-12055531D01*
X14081968Y-12055531D02*
X14072444Y-12026960D01*
X14072444Y-12026960D02*
X14062920Y-11979341D01*
X14062920Y-11979341D02*
X14062920Y-11941246D01*
X14062920Y-11941246D02*
X14072444Y-11893627D01*
X14072444Y-11893627D02*
X14081968Y-11865055D01*
X14081968Y-11865055D02*
X14091491Y-11846008D01*
X14091491Y-11846008D02*
X14110539Y-11817436D01*
X14110539Y-11817436D02*
X14120063Y-11807912D01*
X14186729Y-11855531D02*
X14196253Y-11846008D01*
X14196253Y-11846008D02*
X14215301Y-11836484D01*
X14215301Y-11836484D02*
X14262920Y-11836484D01*
X14262920Y-11836484D02*
X14281968Y-11846008D01*
X14281968Y-11846008D02*
X14291491Y-11855531D01*
X14291491Y-11855531D02*
X14301015Y-11874579D01*
X14301015Y-11874579D02*
X14301015Y-11893627D01*
X14301015Y-11893627D02*
X14291491Y-11922198D01*
X14291491Y-11922198D02*
X14177206Y-12036484D01*
X14177206Y-12036484D02*
X14301015Y-12036484D01*
X14377206Y-11855531D02*
X14386729Y-11846008D01*
X14386729Y-11846008D02*
X14405777Y-11836484D01*
X14405777Y-11836484D02*
X14453396Y-11836484D01*
X14453396Y-11836484D02*
X14472444Y-11846008D01*
X14472444Y-11846008D02*
X14481968Y-11855531D01*
X14481968Y-11855531D02*
X14491491Y-11874579D01*
X14491491Y-11874579D02*
X14491491Y-11893627D01*
X14491491Y-11893627D02*
X14481968Y-11922198D01*
X14481968Y-11922198D02*
X14367682Y-12036484D01*
X14367682Y-12036484D02*
X14491491Y-12036484D01*
X14615301Y-11836484D02*
X14634349Y-11836484D01*
X14634349Y-11836484D02*
X14653396Y-11846008D01*
X14653396Y-11846008D02*
X14662920Y-11855531D01*
X14662920Y-11855531D02*
X14672444Y-11874579D01*
X14672444Y-11874579D02*
X14681968Y-11912674D01*
X14681968Y-11912674D02*
X14681968Y-11960293D01*
X14681968Y-11960293D02*
X14672444Y-11998388D01*
X14672444Y-11998388D02*
X14662920Y-12017436D01*
X14662920Y-12017436D02*
X14653396Y-12026960D01*
X14653396Y-12026960D02*
X14634349Y-12036484D01*
X14634349Y-12036484D02*
X14615301Y-12036484D01*
X14615301Y-12036484D02*
X14596253Y-12026960D01*
X14596253Y-12026960D02*
X14586729Y-12017436D01*
X14586729Y-12017436D02*
X14577206Y-11998388D01*
X14577206Y-11998388D02*
X14567682Y-11960293D01*
X14567682Y-11960293D02*
X14567682Y-11912674D01*
X14567682Y-11912674D02*
X14577206Y-11874579D01*
X14577206Y-11874579D02*
X14586729Y-11855531D01*
X14586729Y-11855531D02*
X14596253Y-11846008D01*
X14596253Y-11846008D02*
X14615301Y-11836484D01*
X14920063Y-12036484D02*
X14920063Y-11836484D01*
X15005777Y-12036484D02*
X15005777Y-11931722D01*
X15005777Y-11931722D02*
X14996253Y-11912674D01*
X14996253Y-11912674D02*
X14977206Y-11903150D01*
X14977206Y-11903150D02*
X14948634Y-11903150D01*
X14948634Y-11903150D02*
X14929587Y-11912674D01*
X14929587Y-11912674D02*
X14920063Y-11922198D01*
X15129587Y-12036484D02*
X15110539Y-12026960D01*
X15110539Y-12026960D02*
X15101015Y-12017436D01*
X15101015Y-12017436D02*
X15091491Y-11998388D01*
X15091491Y-11998388D02*
X15091491Y-11941246D01*
X15091491Y-11941246D02*
X15101015Y-11922198D01*
X15101015Y-11922198D02*
X15110539Y-11912674D01*
X15110539Y-11912674D02*
X15129587Y-11903150D01*
X15129587Y-11903150D02*
X15158158Y-11903150D01*
X15158158Y-11903150D02*
X15177206Y-11912674D01*
X15177206Y-11912674D02*
X15186730Y-11922198D01*
X15186730Y-11922198D02*
X15196253Y-11941246D01*
X15196253Y-11941246D02*
X15196253Y-11998388D01*
X15196253Y-11998388D02*
X15186730Y-12017436D01*
X15186730Y-12017436D02*
X15177206Y-12026960D01*
X15177206Y-12026960D02*
X15158158Y-12036484D01*
X15158158Y-12036484D02*
X15129587Y-12036484D01*
X15310539Y-12036484D02*
X15291491Y-12026960D01*
X15291491Y-12026960D02*
X15281968Y-12007912D01*
X15281968Y-12007912D02*
X15281968Y-11836484D01*
X15462920Y-12026960D02*
X15443872Y-12036484D01*
X15443872Y-12036484D02*
X15405777Y-12036484D01*
X15405777Y-12036484D02*
X15386730Y-12026960D01*
X15386730Y-12026960D02*
X15377206Y-12007912D01*
X15377206Y-12007912D02*
X15377206Y-11931722D01*
X15377206Y-11931722D02*
X15386730Y-11912674D01*
X15386730Y-11912674D02*
X15405777Y-11903150D01*
X15405777Y-11903150D02*
X15443872Y-11903150D01*
X15443872Y-11903150D02*
X15462920Y-11912674D01*
X15462920Y-11912674D02*
X15472444Y-11931722D01*
X15472444Y-11931722D02*
X15472444Y-11950769D01*
X15472444Y-11950769D02*
X15377206Y-11969817D01*
X15548634Y-12026960D02*
X15567682Y-12036484D01*
X15567682Y-12036484D02*
X15605777Y-12036484D01*
X15605777Y-12036484D02*
X15624825Y-12026960D01*
X15624825Y-12026960D02*
X15634349Y-12007912D01*
X15634349Y-12007912D02*
X15634349Y-11998388D01*
X15634349Y-11998388D02*
X15624825Y-11979341D01*
X15624825Y-11979341D02*
X15605777Y-11969817D01*
X15605777Y-11969817D02*
X15577206Y-11969817D01*
X15577206Y-11969817D02*
X15558158Y-11960293D01*
X15558158Y-11960293D02*
X15548634Y-11941246D01*
X15548634Y-11941246D02*
X15548634Y-11931722D01*
X15548634Y-11931722D02*
X15558158Y-11912674D01*
X15558158Y-11912674D02*
X15577206Y-11903150D01*
X15577206Y-11903150D02*
X15605777Y-11903150D01*
X15605777Y-11903150D02*
X15624825Y-11912674D01*
X15701015Y-12112674D02*
X15710539Y-12103150D01*
X15710539Y-12103150D02*
X15729587Y-12074579D01*
X15729587Y-12074579D02*
X15739111Y-12055531D01*
X15739111Y-12055531D02*
X15748634Y-12026960D01*
X15748634Y-12026960D02*
X15758158Y-11979341D01*
X15758158Y-11979341D02*
X15758158Y-11941246D01*
X15758158Y-11941246D02*
X15748634Y-11893627D01*
X15748634Y-11893627D02*
X15739111Y-11865055D01*
X15739111Y-11865055D02*
X15729587Y-11846008D01*
X15729587Y-11846008D02*
X15710539Y-11817436D01*
X15710539Y-11817436D02*
X15701015Y-11807912D01*
X16062920Y-12112674D02*
X16053396Y-12103150D01*
X16053396Y-12103150D02*
X16034349Y-12074579D01*
X16034349Y-12074579D02*
X16024825Y-12055531D01*
X16024825Y-12055531D02*
X16015301Y-12026960D01*
X16015301Y-12026960D02*
X16005777Y-11979341D01*
X16005777Y-11979341D02*
X16005777Y-11941246D01*
X16005777Y-11941246D02*
X16015301Y-11893627D01*
X16015301Y-11893627D02*
X16024825Y-11865055D01*
X16024825Y-11865055D02*
X16034349Y-11846008D01*
X16034349Y-11846008D02*
X16053396Y-11817436D01*
X16053396Y-11817436D02*
X16062920Y-11807912D01*
X16139111Y-11903150D02*
X16139111Y-12036484D01*
X16139111Y-11922198D02*
X16148634Y-11912674D01*
X16148634Y-11912674D02*
X16167682Y-11903150D01*
X16167682Y-11903150D02*
X16196253Y-11903150D01*
X16196253Y-11903150D02*
X16215301Y-11912674D01*
X16215301Y-11912674D02*
X16224825Y-11931722D01*
X16224825Y-11931722D02*
X16224825Y-12036484D01*
X16348634Y-12036484D02*
X16329587Y-12026960D01*
X16329587Y-12026960D02*
X16320063Y-12017436D01*
X16320063Y-12017436D02*
X16310539Y-11998388D01*
X16310539Y-11998388D02*
X16310539Y-11941246D01*
X16310539Y-11941246D02*
X16320063Y-11922198D01*
X16320063Y-11922198D02*
X16329587Y-11912674D01*
X16329587Y-11912674D02*
X16348634Y-11903150D01*
X16348634Y-11903150D02*
X16377206Y-11903150D01*
X16377206Y-11903150D02*
X16396253Y-11912674D01*
X16396253Y-11912674D02*
X16405777Y-11922198D01*
X16405777Y-11922198D02*
X16415301Y-11941246D01*
X16415301Y-11941246D02*
X16415301Y-11998388D01*
X16415301Y-11998388D02*
X16405777Y-12017436D01*
X16405777Y-12017436D02*
X16396253Y-12026960D01*
X16396253Y-12026960D02*
X16377206Y-12036484D01*
X16377206Y-12036484D02*
X16348634Y-12036484D01*
X16472444Y-11903150D02*
X16548634Y-11903150D01*
X16501015Y-11836484D02*
X16501015Y-12007912D01*
X16501015Y-12007912D02*
X16510539Y-12026960D01*
X16510539Y-12026960D02*
X16529587Y-12036484D01*
X16529587Y-12036484D02*
X16548634Y-12036484D01*
X16767682Y-11903150D02*
X16767682Y-12103150D01*
X16767682Y-11912674D02*
X16786730Y-11903150D01*
X16786730Y-11903150D02*
X16824825Y-11903150D01*
X16824825Y-11903150D02*
X16843873Y-11912674D01*
X16843873Y-11912674D02*
X16853396Y-11922198D01*
X16853396Y-11922198D02*
X16862920Y-11941246D01*
X16862920Y-11941246D02*
X16862920Y-11998388D01*
X16862920Y-11998388D02*
X16853396Y-12017436D01*
X16853396Y-12017436D02*
X16843873Y-12026960D01*
X16843873Y-12026960D02*
X16824825Y-12036484D01*
X16824825Y-12036484D02*
X16786730Y-12036484D01*
X16786730Y-12036484D02*
X16767682Y-12026960D01*
X16977206Y-12036484D02*
X16958158Y-12026960D01*
X16958158Y-12026960D02*
X16948635Y-12007912D01*
X16948635Y-12007912D02*
X16948635Y-11836484D01*
X17139111Y-12036484D02*
X17139111Y-11931722D01*
X17139111Y-11931722D02*
X17129587Y-11912674D01*
X17129587Y-11912674D02*
X17110539Y-11903150D01*
X17110539Y-11903150D02*
X17072444Y-11903150D01*
X17072444Y-11903150D02*
X17053396Y-11912674D01*
X17139111Y-12026960D02*
X17120063Y-12036484D01*
X17120063Y-12036484D02*
X17072444Y-12036484D01*
X17072444Y-12036484D02*
X17053396Y-12026960D01*
X17053396Y-12026960D02*
X17043873Y-12007912D01*
X17043873Y-12007912D02*
X17043873Y-11988865D01*
X17043873Y-11988865D02*
X17053396Y-11969817D01*
X17053396Y-11969817D02*
X17072444Y-11960293D01*
X17072444Y-11960293D02*
X17120063Y-11960293D01*
X17120063Y-11960293D02*
X17139111Y-11950769D01*
X17205777Y-11903150D02*
X17281968Y-11903150D01*
X17234349Y-11836484D02*
X17234349Y-12007912D01*
X17234349Y-12007912D02*
X17243873Y-12026960D01*
X17243873Y-12026960D02*
X17262920Y-12036484D01*
X17262920Y-12036484D02*
X17281968Y-12036484D01*
X17424825Y-12026960D02*
X17405777Y-12036484D01*
X17405777Y-12036484D02*
X17367682Y-12036484D01*
X17367682Y-12036484D02*
X17348635Y-12026960D01*
X17348635Y-12026960D02*
X17339111Y-12007912D01*
X17339111Y-12007912D02*
X17339111Y-11931722D01*
X17339111Y-11931722D02*
X17348635Y-11912674D01*
X17348635Y-11912674D02*
X17367682Y-11903150D01*
X17367682Y-11903150D02*
X17405777Y-11903150D01*
X17405777Y-11903150D02*
X17424825Y-11912674D01*
X17424825Y-11912674D02*
X17434349Y-11931722D01*
X17434349Y-11931722D02*
X17434349Y-11950769D01*
X17434349Y-11950769D02*
X17339111Y-11969817D01*
X17605777Y-12036484D02*
X17605777Y-11836484D01*
X17605777Y-12026960D02*
X17586730Y-12036484D01*
X17586730Y-12036484D02*
X17548635Y-12036484D01*
X17548635Y-12036484D02*
X17529587Y-12026960D01*
X17529587Y-12026960D02*
X17520063Y-12017436D01*
X17520063Y-12017436D02*
X17510539Y-11998388D01*
X17510539Y-11998388D02*
X17510539Y-11941246D01*
X17510539Y-11941246D02*
X17520063Y-11922198D01*
X17520063Y-11922198D02*
X17529587Y-11912674D01*
X17529587Y-11912674D02*
X17548635Y-11903150D01*
X17548635Y-11903150D02*
X17586730Y-11903150D01*
X17586730Y-11903150D02*
X17605777Y-11912674D01*
X17681968Y-12112674D02*
X17691492Y-12103150D01*
X17691492Y-12103150D02*
X17710539Y-12074579D01*
X17710539Y-12074579D02*
X17720063Y-12055531D01*
X17720063Y-12055531D02*
X17729587Y-12026960D01*
X17729587Y-12026960D02*
X17739111Y-11979341D01*
X17739111Y-11979341D02*
X17739111Y-11941246D01*
X17739111Y-11941246D02*
X17729587Y-11893627D01*
X17729587Y-11893627D02*
X17720063Y-11865055D01*
X17720063Y-11865055D02*
X17710539Y-11846008D01*
X17710539Y-11846008D02*
X17691492Y-11817436D01*
X17691492Y-11817436D02*
X17681968Y-11807912D01*
D10*
X10545000Y-12209000D02*
G75*
G02*
X10445000Y-12209000I-50000J0D01*
G01*
X10445000Y-12209000D02*
G75*
G02*
X10545000Y-12209000I50000J0D01*
G01*
D11*
X10910539Y-12300484D02*
X10796253Y-12300484D01*
X10853396Y-12300484D02*
X10853396Y-12100484D01*
X10853396Y-12100484D02*
X10834348Y-12129055D01*
X10834348Y-12129055D02*
X10815301Y-12148103D01*
X10815301Y-12148103D02*
X10796253Y-12157627D01*
X10996253Y-12281436D02*
X11005777Y-12290960D01*
X11005777Y-12290960D02*
X10996253Y-12300484D01*
X10996253Y-12300484D02*
X10986729Y-12290960D01*
X10986729Y-12290960D02*
X10996253Y-12281436D01*
X10996253Y-12281436D02*
X10996253Y-12300484D01*
X11129586Y-12100484D02*
X11148634Y-12100484D01*
X11148634Y-12100484D02*
X11167682Y-12110008D01*
X11167682Y-12110008D02*
X11177205Y-12119531D01*
X11177205Y-12119531D02*
X11186729Y-12138579D01*
X11186729Y-12138579D02*
X11196253Y-12176674D01*
X11196253Y-12176674D02*
X11196253Y-12224293D01*
X11196253Y-12224293D02*
X11186729Y-12262388D01*
X11186729Y-12262388D02*
X11177205Y-12281436D01*
X11177205Y-12281436D02*
X11167682Y-12290960D01*
X11167682Y-12290960D02*
X11148634Y-12300484D01*
X11148634Y-12300484D02*
X11129586Y-12300484D01*
X11129586Y-12300484D02*
X11110539Y-12290960D01*
X11110539Y-12290960D02*
X11101015Y-12281436D01*
X11101015Y-12281436D02*
X11091491Y-12262388D01*
X11091491Y-12262388D02*
X11081967Y-12224293D01*
X11081967Y-12224293D02*
X11081967Y-12176674D01*
X11081967Y-12176674D02*
X11091491Y-12138579D01*
X11091491Y-12138579D02*
X11101015Y-12119531D01*
X11101015Y-12119531D02*
X11110539Y-12110008D01*
X11110539Y-12110008D02*
X11129586Y-12100484D01*
X11320062Y-12100484D02*
X11339110Y-12100484D01*
X11339110Y-12100484D02*
X11358158Y-12110008D01*
X11358158Y-12110008D02*
X11367682Y-12119531D01*
X11367682Y-12119531D02*
X11377205Y-12138579D01*
X11377205Y-12138579D02*
X11386729Y-12176674D01*
X11386729Y-12176674D02*
X11386729Y-12224293D01*
X11386729Y-12224293D02*
X11377205Y-12262388D01*
X11377205Y-12262388D02*
X11367682Y-12281436D01*
X11367682Y-12281436D02*
X11358158Y-12290960D01*
X11358158Y-12290960D02*
X11339110Y-12300484D01*
X11339110Y-12300484D02*
X11320062Y-12300484D01*
X11320062Y-12300484D02*
X11301015Y-12290960D01*
X11301015Y-12290960D02*
X11291491Y-12281436D01*
X11291491Y-12281436D02*
X11281967Y-12262388D01*
X11281967Y-12262388D02*
X11272443Y-12224293D01*
X11272443Y-12224293D02*
X11272443Y-12176674D01*
X11272443Y-12176674D02*
X11281967Y-12138579D01*
X11281967Y-12138579D02*
X11291491Y-12119531D01*
X11291491Y-12119531D02*
X11301015Y-12110008D01*
X11301015Y-12110008D02*
X11320062Y-12100484D01*
X11510539Y-12100484D02*
X11529586Y-12100484D01*
X11529586Y-12100484D02*
X11548634Y-12110008D01*
X11548634Y-12110008D02*
X11558158Y-12119531D01*
X11558158Y-12119531D02*
X11567682Y-12138579D01*
X11567682Y-12138579D02*
X11577205Y-12176674D01*
X11577205Y-12176674D02*
X11577205Y-12224293D01*
X11577205Y-12224293D02*
X11567682Y-12262388D01*
X11567682Y-12262388D02*
X11558158Y-12281436D01*
X11558158Y-12281436D02*
X11548634Y-12290960D01*
X11548634Y-12290960D02*
X11529586Y-12300484D01*
X11529586Y-12300484D02*
X11510539Y-12300484D01*
X11510539Y-12300484D02*
X11491491Y-12290960D01*
X11491491Y-12290960D02*
X11481967Y-12281436D01*
X11481967Y-12281436D02*
X11472443Y-12262388D01*
X11472443Y-12262388D02*
X11462920Y-12224293D01*
X11462920Y-12224293D02*
X11462920Y-12176674D01*
X11462920Y-12176674D02*
X11472443Y-12138579D01*
X11472443Y-12138579D02*
X11481967Y-12119531D01*
X11481967Y-12119531D02*
X11491491Y-12110008D01*
X11491491Y-12110008D02*
X11510539Y-12100484D01*
X11662920Y-12300484D02*
X11662920Y-12167150D01*
X11662920Y-12186198D02*
X11672443Y-12176674D01*
X11672443Y-12176674D02*
X11691491Y-12167150D01*
X11691491Y-12167150D02*
X11720063Y-12167150D01*
X11720063Y-12167150D02*
X11739110Y-12176674D01*
X11739110Y-12176674D02*
X11748634Y-12195722D01*
X11748634Y-12195722D02*
X11748634Y-12300484D01*
X11748634Y-12195722D02*
X11758158Y-12176674D01*
X11758158Y-12176674D02*
X11777205Y-12167150D01*
X11777205Y-12167150D02*
X11805777Y-12167150D01*
X11805777Y-12167150D02*
X11824824Y-12176674D01*
X11824824Y-12176674D02*
X11834348Y-12195722D01*
X11834348Y-12195722D02*
X11834348Y-12300484D01*
X11929586Y-12300484D02*
X11929586Y-12167150D01*
X11929586Y-12186198D02*
X11939110Y-12176674D01*
X11939110Y-12176674D02*
X11958158Y-12167150D01*
X11958158Y-12167150D02*
X11986729Y-12167150D01*
X11986729Y-12167150D02*
X12005777Y-12176674D01*
X12005777Y-12176674D02*
X12015301Y-12195722D01*
X12015301Y-12195722D02*
X12015301Y-12300484D01*
X12015301Y-12195722D02*
X12024824Y-12176674D01*
X12024824Y-12176674D02*
X12043872Y-12167150D01*
X12043872Y-12167150D02*
X12072443Y-12167150D01*
X12072443Y-12167150D02*
X12091491Y-12176674D01*
X12091491Y-12176674D02*
X12101015Y-12195722D01*
X12101015Y-12195722D02*
X12101015Y-12300484D01*
X12491491Y-12090960D02*
X12320063Y-12348103D01*
X12748634Y-12100484D02*
X12767682Y-12100484D01*
X12767682Y-12100484D02*
X12786729Y-12110008D01*
X12786729Y-12110008D02*
X12796253Y-12119531D01*
X12796253Y-12119531D02*
X12805777Y-12138579D01*
X12805777Y-12138579D02*
X12815301Y-12176674D01*
X12815301Y-12176674D02*
X12815301Y-12224293D01*
X12815301Y-12224293D02*
X12805777Y-12262388D01*
X12805777Y-12262388D02*
X12796253Y-12281436D01*
X12796253Y-12281436D02*
X12786729Y-12290960D01*
X12786729Y-12290960D02*
X12767682Y-12300484D01*
X12767682Y-12300484D02*
X12748634Y-12300484D01*
X12748634Y-12300484D02*
X12729586Y-12290960D01*
X12729586Y-12290960D02*
X12720063Y-12281436D01*
X12720063Y-12281436D02*
X12710539Y-12262388D01*
X12710539Y-12262388D02*
X12701015Y-12224293D01*
X12701015Y-12224293D02*
X12701015Y-12176674D01*
X12701015Y-12176674D02*
X12710539Y-12138579D01*
X12710539Y-12138579D02*
X12720063Y-12119531D01*
X12720063Y-12119531D02*
X12729586Y-12110008D01*
X12729586Y-12110008D02*
X12748634Y-12100484D01*
X12901015Y-12281436D02*
X12910539Y-12290960D01*
X12910539Y-12290960D02*
X12901015Y-12300484D01*
X12901015Y-12300484D02*
X12891491Y-12290960D01*
X12891491Y-12290960D02*
X12901015Y-12281436D01*
X12901015Y-12281436D02*
X12901015Y-12300484D01*
X13034348Y-12100484D02*
X13053396Y-12100484D01*
X13053396Y-12100484D02*
X13072444Y-12110008D01*
X13072444Y-12110008D02*
X13081967Y-12119531D01*
X13081967Y-12119531D02*
X13091491Y-12138579D01*
X13091491Y-12138579D02*
X13101015Y-12176674D01*
X13101015Y-12176674D02*
X13101015Y-12224293D01*
X13101015Y-12224293D02*
X13091491Y-12262388D01*
X13091491Y-12262388D02*
X13081967Y-12281436D01*
X13081967Y-12281436D02*
X13072444Y-12290960D01*
X13072444Y-12290960D02*
X13053396Y-12300484D01*
X13053396Y-12300484D02*
X13034348Y-12300484D01*
X13034348Y-12300484D02*
X13015301Y-12290960D01*
X13015301Y-12290960D02*
X13005777Y-12281436D01*
X13005777Y-12281436D02*
X12996253Y-12262388D01*
X12996253Y-12262388D02*
X12986729Y-12224293D01*
X12986729Y-12224293D02*
X12986729Y-12176674D01*
X12986729Y-12176674D02*
X12996253Y-12138579D01*
X12996253Y-12138579D02*
X13005777Y-12119531D01*
X13005777Y-12119531D02*
X13015301Y-12110008D01*
X13015301Y-12110008D02*
X13034348Y-12100484D01*
X13167682Y-12100484D02*
X13291491Y-12100484D01*
X13291491Y-12100484D02*
X13224825Y-12176674D01*
X13224825Y-12176674D02*
X13253396Y-12176674D01*
X13253396Y-12176674D02*
X13272444Y-12186198D01*
X13272444Y-12186198D02*
X13281967Y-12195722D01*
X13281967Y-12195722D02*
X13291491Y-12214769D01*
X13291491Y-12214769D02*
X13291491Y-12262388D01*
X13291491Y-12262388D02*
X13281967Y-12281436D01*
X13281967Y-12281436D02*
X13272444Y-12290960D01*
X13272444Y-12290960D02*
X13253396Y-12300484D01*
X13253396Y-12300484D02*
X13196253Y-12300484D01*
X13196253Y-12300484D02*
X13177206Y-12290960D01*
X13177206Y-12290960D02*
X13167682Y-12281436D01*
X13386729Y-12300484D02*
X13424825Y-12300484D01*
X13424825Y-12300484D02*
X13443872Y-12290960D01*
X13443872Y-12290960D02*
X13453396Y-12281436D01*
X13453396Y-12281436D02*
X13472444Y-12252865D01*
X13472444Y-12252865D02*
X13481967Y-12214769D01*
X13481967Y-12214769D02*
X13481967Y-12138579D01*
X13481967Y-12138579D02*
X13472444Y-12119531D01*
X13472444Y-12119531D02*
X13462920Y-12110008D01*
X13462920Y-12110008D02*
X13443872Y-12100484D01*
X13443872Y-12100484D02*
X13405777Y-12100484D01*
X13405777Y-12100484D02*
X13386729Y-12110008D01*
X13386729Y-12110008D02*
X13377206Y-12119531D01*
X13377206Y-12119531D02*
X13367682Y-12138579D01*
X13367682Y-12138579D02*
X13367682Y-12186198D01*
X13367682Y-12186198D02*
X13377206Y-12205246D01*
X13377206Y-12205246D02*
X13386729Y-12214769D01*
X13386729Y-12214769D02*
X13405777Y-12224293D01*
X13405777Y-12224293D02*
X13443872Y-12224293D01*
X13443872Y-12224293D02*
X13462920Y-12214769D01*
X13462920Y-12214769D02*
X13472444Y-12205246D01*
X13472444Y-12205246D02*
X13481967Y-12186198D01*
X13653396Y-12167150D02*
X13653396Y-12300484D01*
X13605777Y-12090960D02*
X13558158Y-12233817D01*
X13558158Y-12233817D02*
X13681967Y-12233817D01*
X13748634Y-12100484D02*
X13748634Y-12138579D01*
X13824825Y-12100484D02*
X13824825Y-12138579D01*
X14120063Y-12376674D02*
X14110539Y-12367150D01*
X14110539Y-12367150D02*
X14091491Y-12338579D01*
X14091491Y-12338579D02*
X14081968Y-12319531D01*
X14081968Y-12319531D02*
X14072444Y-12290960D01*
X14072444Y-12290960D02*
X14062920Y-12243341D01*
X14062920Y-12243341D02*
X14062920Y-12205246D01*
X14062920Y-12205246D02*
X14072444Y-12157627D01*
X14072444Y-12157627D02*
X14081968Y-12129055D01*
X14081968Y-12129055D02*
X14091491Y-12110008D01*
X14091491Y-12110008D02*
X14110539Y-12081436D01*
X14110539Y-12081436D02*
X14120063Y-12071912D01*
X14177206Y-12100484D02*
X14301015Y-12100484D01*
X14301015Y-12100484D02*
X14234348Y-12176674D01*
X14234348Y-12176674D02*
X14262920Y-12176674D01*
X14262920Y-12176674D02*
X14281968Y-12186198D01*
X14281968Y-12186198D02*
X14291491Y-12195722D01*
X14291491Y-12195722D02*
X14301015Y-12214769D01*
X14301015Y-12214769D02*
X14301015Y-12262388D01*
X14301015Y-12262388D02*
X14291491Y-12281436D01*
X14291491Y-12281436D02*
X14281968Y-12290960D01*
X14281968Y-12290960D02*
X14262920Y-12300484D01*
X14262920Y-12300484D02*
X14205777Y-12300484D01*
X14205777Y-12300484D02*
X14186729Y-12290960D01*
X14186729Y-12290960D02*
X14177206Y-12281436D01*
X14539110Y-12300484D02*
X14539110Y-12100484D01*
X14624825Y-12300484D02*
X14624825Y-12195722D01*
X14624825Y-12195722D02*
X14615301Y-12176674D01*
X14615301Y-12176674D02*
X14596253Y-12167150D01*
X14596253Y-12167150D02*
X14567682Y-12167150D01*
X14567682Y-12167150D02*
X14548634Y-12176674D01*
X14548634Y-12176674D02*
X14539110Y-12186198D01*
X14748634Y-12300484D02*
X14729587Y-12290960D01*
X14729587Y-12290960D02*
X14720063Y-12281436D01*
X14720063Y-12281436D02*
X14710539Y-12262388D01*
X14710539Y-12262388D02*
X14710539Y-12205246D01*
X14710539Y-12205246D02*
X14720063Y-12186198D01*
X14720063Y-12186198D02*
X14729587Y-12176674D01*
X14729587Y-12176674D02*
X14748634Y-12167150D01*
X14748634Y-12167150D02*
X14777206Y-12167150D01*
X14777206Y-12167150D02*
X14796253Y-12176674D01*
X14796253Y-12176674D02*
X14805777Y-12186198D01*
X14805777Y-12186198D02*
X14815301Y-12205246D01*
X14815301Y-12205246D02*
X14815301Y-12262388D01*
X14815301Y-12262388D02*
X14805777Y-12281436D01*
X14805777Y-12281436D02*
X14796253Y-12290960D01*
X14796253Y-12290960D02*
X14777206Y-12300484D01*
X14777206Y-12300484D02*
X14748634Y-12300484D01*
X14929587Y-12300484D02*
X14910539Y-12290960D01*
X14910539Y-12290960D02*
X14901015Y-12271912D01*
X14901015Y-12271912D02*
X14901015Y-12100484D01*
X15081968Y-12290960D02*
X15062920Y-12300484D01*
X15062920Y-12300484D02*
X15024825Y-12300484D01*
X15024825Y-12300484D02*
X15005777Y-12290960D01*
X15005777Y-12290960D02*
X14996253Y-12271912D01*
X14996253Y-12271912D02*
X14996253Y-12195722D01*
X14996253Y-12195722D02*
X15005777Y-12176674D01*
X15005777Y-12176674D02*
X15024825Y-12167150D01*
X15024825Y-12167150D02*
X15062920Y-12167150D01*
X15062920Y-12167150D02*
X15081968Y-12176674D01*
X15081968Y-12176674D02*
X15091491Y-12195722D01*
X15091491Y-12195722D02*
X15091491Y-12214769D01*
X15091491Y-12214769D02*
X14996253Y-12233817D01*
X15167682Y-12290960D02*
X15186730Y-12300484D01*
X15186730Y-12300484D02*
X15224825Y-12300484D01*
X15224825Y-12300484D02*
X15243872Y-12290960D01*
X15243872Y-12290960D02*
X15253396Y-12271912D01*
X15253396Y-12271912D02*
X15253396Y-12262388D01*
X15253396Y-12262388D02*
X15243872Y-12243341D01*
X15243872Y-12243341D02*
X15224825Y-12233817D01*
X15224825Y-12233817D02*
X15196253Y-12233817D01*
X15196253Y-12233817D02*
X15177206Y-12224293D01*
X15177206Y-12224293D02*
X15167682Y-12205246D01*
X15167682Y-12205246D02*
X15167682Y-12195722D01*
X15167682Y-12195722D02*
X15177206Y-12176674D01*
X15177206Y-12176674D02*
X15196253Y-12167150D01*
X15196253Y-12167150D02*
X15224825Y-12167150D01*
X15224825Y-12167150D02*
X15243872Y-12176674D01*
X15320063Y-12376674D02*
X15329587Y-12367150D01*
X15329587Y-12367150D02*
X15348634Y-12338579D01*
X15348634Y-12338579D02*
X15358158Y-12319531D01*
X15358158Y-12319531D02*
X15367682Y-12290960D01*
X15367682Y-12290960D02*
X15377206Y-12243341D01*
X15377206Y-12243341D02*
X15377206Y-12205246D01*
X15377206Y-12205246D02*
X15367682Y-12157627D01*
X15367682Y-12157627D02*
X15358158Y-12129055D01*
X15358158Y-12129055D02*
X15348634Y-12110008D01*
X15348634Y-12110008D02*
X15329587Y-12081436D01*
X15329587Y-12081436D02*
X15320063Y-12071912D01*
X15681968Y-12376674D02*
X15672444Y-12367150D01*
X15672444Y-12367150D02*
X15653396Y-12338579D01*
X15653396Y-12338579D02*
X15643872Y-12319531D01*
X15643872Y-12319531D02*
X15634349Y-12290960D01*
X15634349Y-12290960D02*
X15624825Y-12243341D01*
X15624825Y-12243341D02*
X15624825Y-12205246D01*
X15624825Y-12205246D02*
X15634349Y-12157627D01*
X15634349Y-12157627D02*
X15643872Y-12129055D01*
X15643872Y-12129055D02*
X15653396Y-12110008D01*
X15653396Y-12110008D02*
X15672444Y-12081436D01*
X15672444Y-12081436D02*
X15681968Y-12071912D01*
X15758158Y-12167150D02*
X15758158Y-12300484D01*
X15758158Y-12186198D02*
X15767682Y-12176674D01*
X15767682Y-12176674D02*
X15786730Y-12167150D01*
X15786730Y-12167150D02*
X15815301Y-12167150D01*
X15815301Y-12167150D02*
X15834349Y-12176674D01*
X15834349Y-12176674D02*
X15843872Y-12195722D01*
X15843872Y-12195722D02*
X15843872Y-12300484D01*
X15967682Y-12300484D02*
X15948634Y-12290960D01*
X15948634Y-12290960D02*
X15939111Y-12281436D01*
X15939111Y-12281436D02*
X15929587Y-12262388D01*
X15929587Y-12262388D02*
X15929587Y-12205246D01*
X15929587Y-12205246D02*
X15939111Y-12186198D01*
X15939111Y-12186198D02*
X15948634Y-12176674D01*
X15948634Y-12176674D02*
X15967682Y-12167150D01*
X15967682Y-12167150D02*
X15996253Y-12167150D01*
X15996253Y-12167150D02*
X16015301Y-12176674D01*
X16015301Y-12176674D02*
X16024825Y-12186198D01*
X16024825Y-12186198D02*
X16034349Y-12205246D01*
X16034349Y-12205246D02*
X16034349Y-12262388D01*
X16034349Y-12262388D02*
X16024825Y-12281436D01*
X16024825Y-12281436D02*
X16015301Y-12290960D01*
X16015301Y-12290960D02*
X15996253Y-12300484D01*
X15996253Y-12300484D02*
X15967682Y-12300484D01*
X16091492Y-12167150D02*
X16167682Y-12167150D01*
X16120063Y-12100484D02*
X16120063Y-12271912D01*
X16120063Y-12271912D02*
X16129587Y-12290960D01*
X16129587Y-12290960D02*
X16148634Y-12300484D01*
X16148634Y-12300484D02*
X16167682Y-12300484D01*
X16386730Y-12167150D02*
X16386730Y-12367150D01*
X16386730Y-12176674D02*
X16405777Y-12167150D01*
X16405777Y-12167150D02*
X16443873Y-12167150D01*
X16443873Y-12167150D02*
X16462920Y-12176674D01*
X16462920Y-12176674D02*
X16472444Y-12186198D01*
X16472444Y-12186198D02*
X16481968Y-12205246D01*
X16481968Y-12205246D02*
X16481968Y-12262388D01*
X16481968Y-12262388D02*
X16472444Y-12281436D01*
X16472444Y-12281436D02*
X16462920Y-12290960D01*
X16462920Y-12290960D02*
X16443873Y-12300484D01*
X16443873Y-12300484D02*
X16405777Y-12300484D01*
X16405777Y-12300484D02*
X16386730Y-12290960D01*
X16596253Y-12300484D02*
X16577206Y-12290960D01*
X16577206Y-12290960D02*
X16567682Y-12271912D01*
X16567682Y-12271912D02*
X16567682Y-12100484D01*
X16758158Y-12300484D02*
X16758158Y-12195722D01*
X16758158Y-12195722D02*
X16748634Y-12176674D01*
X16748634Y-12176674D02*
X16729587Y-12167150D01*
X16729587Y-12167150D02*
X16691492Y-12167150D01*
X16691492Y-12167150D02*
X16672444Y-12176674D01*
X16758158Y-12290960D02*
X16739111Y-12300484D01*
X16739111Y-12300484D02*
X16691492Y-12300484D01*
X16691492Y-12300484D02*
X16672444Y-12290960D01*
X16672444Y-12290960D02*
X16662920Y-12271912D01*
X16662920Y-12271912D02*
X16662920Y-12252865D01*
X16662920Y-12252865D02*
X16672444Y-12233817D01*
X16672444Y-12233817D02*
X16691492Y-12224293D01*
X16691492Y-12224293D02*
X16739111Y-12224293D01*
X16739111Y-12224293D02*
X16758158Y-12214769D01*
X16824825Y-12167150D02*
X16901015Y-12167150D01*
X16853396Y-12100484D02*
X16853396Y-12271912D01*
X16853396Y-12271912D02*
X16862920Y-12290960D01*
X16862920Y-12290960D02*
X16881968Y-12300484D01*
X16881968Y-12300484D02*
X16901015Y-12300484D01*
X17043873Y-12290960D02*
X17024825Y-12300484D01*
X17024825Y-12300484D02*
X16986730Y-12300484D01*
X16986730Y-12300484D02*
X16967682Y-12290960D01*
X16967682Y-12290960D02*
X16958158Y-12271912D01*
X16958158Y-12271912D02*
X16958158Y-12195722D01*
X16958158Y-12195722D02*
X16967682Y-12176674D01*
X16967682Y-12176674D02*
X16986730Y-12167150D01*
X16986730Y-12167150D02*
X17024825Y-12167150D01*
X17024825Y-12167150D02*
X17043873Y-12176674D01*
X17043873Y-12176674D02*
X17053396Y-12195722D01*
X17053396Y-12195722D02*
X17053396Y-12214769D01*
X17053396Y-12214769D02*
X16958158Y-12233817D01*
X17224825Y-12300484D02*
X17224825Y-12100484D01*
X17224825Y-12290960D02*
X17205777Y-12300484D01*
X17205777Y-12300484D02*
X17167682Y-12300484D01*
X17167682Y-12300484D02*
X17148635Y-12290960D01*
X17148635Y-12290960D02*
X17139111Y-12281436D01*
X17139111Y-12281436D02*
X17129587Y-12262388D01*
X17129587Y-12262388D02*
X17129587Y-12205246D01*
X17129587Y-12205246D02*
X17139111Y-12186198D01*
X17139111Y-12186198D02*
X17148635Y-12176674D01*
X17148635Y-12176674D02*
X17167682Y-12167150D01*
X17167682Y-12167150D02*
X17205777Y-12167150D01*
X17205777Y-12167150D02*
X17224825Y-12176674D01*
X17301016Y-12376674D02*
X17310539Y-12367150D01*
X17310539Y-12367150D02*
X17329587Y-12338579D01*
X17329587Y-12338579D02*
X17339111Y-12319531D01*
X17339111Y-12319531D02*
X17348635Y-12290960D01*
X17348635Y-12290960D02*
X17358158Y-12243341D01*
X17358158Y-12243341D02*
X17358158Y-12205246D01*
X17358158Y-12205246D02*
X17348635Y-12157627D01*
X17348635Y-12157627D02*
X17339111Y-12129055D01*
X17339111Y-12129055D02*
X17329587Y-12110008D01*
X17329587Y-12110008D02*
X17310539Y-12081436D01*
X17310539Y-12081436D02*
X17301016Y-12071912D01*
X10445000Y-12373000D02*
X10445000Y-12573000D01*
X10345000Y-12473000D02*
X10545000Y-12473000D01*
X10796253Y-12383531D02*
X10805777Y-12374008D01*
X10805777Y-12374008D02*
X10824824Y-12364484D01*
X10824824Y-12364484D02*
X10872444Y-12364484D01*
X10872444Y-12364484D02*
X10891491Y-12374008D01*
X10891491Y-12374008D02*
X10901015Y-12383531D01*
X10901015Y-12383531D02*
X10910539Y-12402579D01*
X10910539Y-12402579D02*
X10910539Y-12421627D01*
X10910539Y-12421627D02*
X10901015Y-12450198D01*
X10901015Y-12450198D02*
X10786729Y-12564484D01*
X10786729Y-12564484D02*
X10910539Y-12564484D01*
X10996253Y-12545436D02*
X11005777Y-12554960D01*
X11005777Y-12554960D02*
X10996253Y-12564484D01*
X10996253Y-12564484D02*
X10986729Y-12554960D01*
X10986729Y-12554960D02*
X10996253Y-12545436D01*
X10996253Y-12545436D02*
X10996253Y-12564484D01*
X11129586Y-12364484D02*
X11148634Y-12364484D01*
X11148634Y-12364484D02*
X11167682Y-12374008D01*
X11167682Y-12374008D02*
X11177205Y-12383531D01*
X11177205Y-12383531D02*
X11186729Y-12402579D01*
X11186729Y-12402579D02*
X11196253Y-12440674D01*
X11196253Y-12440674D02*
X11196253Y-12488293D01*
X11196253Y-12488293D02*
X11186729Y-12526388D01*
X11186729Y-12526388D02*
X11177205Y-12545436D01*
X11177205Y-12545436D02*
X11167682Y-12554960D01*
X11167682Y-12554960D02*
X11148634Y-12564484D01*
X11148634Y-12564484D02*
X11129586Y-12564484D01*
X11129586Y-12564484D02*
X11110539Y-12554960D01*
X11110539Y-12554960D02*
X11101015Y-12545436D01*
X11101015Y-12545436D02*
X11091491Y-12526388D01*
X11091491Y-12526388D02*
X11081967Y-12488293D01*
X11081967Y-12488293D02*
X11081967Y-12440674D01*
X11081967Y-12440674D02*
X11091491Y-12402579D01*
X11091491Y-12402579D02*
X11101015Y-12383531D01*
X11101015Y-12383531D02*
X11110539Y-12374008D01*
X11110539Y-12374008D02*
X11129586Y-12364484D01*
X11320062Y-12364484D02*
X11339110Y-12364484D01*
X11339110Y-12364484D02*
X11358158Y-12374008D01*
X11358158Y-12374008D02*
X11367682Y-12383531D01*
X11367682Y-12383531D02*
X11377205Y-12402579D01*
X11377205Y-12402579D02*
X11386729Y-12440674D01*
X11386729Y-12440674D02*
X11386729Y-12488293D01*
X11386729Y-12488293D02*
X11377205Y-12526388D01*
X11377205Y-12526388D02*
X11367682Y-12545436D01*
X11367682Y-12545436D02*
X11358158Y-12554960D01*
X11358158Y-12554960D02*
X11339110Y-12564484D01*
X11339110Y-12564484D02*
X11320062Y-12564484D01*
X11320062Y-12564484D02*
X11301015Y-12554960D01*
X11301015Y-12554960D02*
X11291491Y-12545436D01*
X11291491Y-12545436D02*
X11281967Y-12526388D01*
X11281967Y-12526388D02*
X11272443Y-12488293D01*
X11272443Y-12488293D02*
X11272443Y-12440674D01*
X11272443Y-12440674D02*
X11281967Y-12402579D01*
X11281967Y-12402579D02*
X11291491Y-12383531D01*
X11291491Y-12383531D02*
X11301015Y-12374008D01*
X11301015Y-12374008D02*
X11320062Y-12364484D01*
X11510539Y-12364484D02*
X11529586Y-12364484D01*
X11529586Y-12364484D02*
X11548634Y-12374008D01*
X11548634Y-12374008D02*
X11558158Y-12383531D01*
X11558158Y-12383531D02*
X11567682Y-12402579D01*
X11567682Y-12402579D02*
X11577205Y-12440674D01*
X11577205Y-12440674D02*
X11577205Y-12488293D01*
X11577205Y-12488293D02*
X11567682Y-12526388D01*
X11567682Y-12526388D02*
X11558158Y-12545436D01*
X11558158Y-12545436D02*
X11548634Y-12554960D01*
X11548634Y-12554960D02*
X11529586Y-12564484D01*
X11529586Y-12564484D02*
X11510539Y-12564484D01*
X11510539Y-12564484D02*
X11491491Y-12554960D01*
X11491491Y-12554960D02*
X11481967Y-12545436D01*
X11481967Y-12545436D02*
X11472443Y-12526388D01*
X11472443Y-12526388D02*
X11462920Y-12488293D01*
X11462920Y-12488293D02*
X11462920Y-12440674D01*
X11462920Y-12440674D02*
X11472443Y-12402579D01*
X11472443Y-12402579D02*
X11481967Y-12383531D01*
X11481967Y-12383531D02*
X11491491Y-12374008D01*
X11491491Y-12374008D02*
X11510539Y-12364484D01*
X11662920Y-12564484D02*
X11662920Y-12431150D01*
X11662920Y-12450198D02*
X11672443Y-12440674D01*
X11672443Y-12440674D02*
X11691491Y-12431150D01*
X11691491Y-12431150D02*
X11720063Y-12431150D01*
X11720063Y-12431150D02*
X11739110Y-12440674D01*
X11739110Y-12440674D02*
X11748634Y-12459722D01*
X11748634Y-12459722D02*
X11748634Y-12564484D01*
X11748634Y-12459722D02*
X11758158Y-12440674D01*
X11758158Y-12440674D02*
X11777205Y-12431150D01*
X11777205Y-12431150D02*
X11805777Y-12431150D01*
X11805777Y-12431150D02*
X11824824Y-12440674D01*
X11824824Y-12440674D02*
X11834348Y-12459722D01*
X11834348Y-12459722D02*
X11834348Y-12564484D01*
X11929586Y-12564484D02*
X11929586Y-12431150D01*
X11929586Y-12450198D02*
X11939110Y-12440674D01*
X11939110Y-12440674D02*
X11958158Y-12431150D01*
X11958158Y-12431150D02*
X11986729Y-12431150D01*
X11986729Y-12431150D02*
X12005777Y-12440674D01*
X12005777Y-12440674D02*
X12015301Y-12459722D01*
X12015301Y-12459722D02*
X12015301Y-12564484D01*
X12015301Y-12459722D02*
X12024824Y-12440674D01*
X12024824Y-12440674D02*
X12043872Y-12431150D01*
X12043872Y-12431150D02*
X12072443Y-12431150D01*
X12072443Y-12431150D02*
X12091491Y-12440674D01*
X12091491Y-12440674D02*
X12101015Y-12459722D01*
X12101015Y-12459722D02*
X12101015Y-12564484D01*
X12491491Y-12354960D02*
X12320063Y-12612103D01*
X12748634Y-12364484D02*
X12767682Y-12364484D01*
X12767682Y-12364484D02*
X12786729Y-12374008D01*
X12786729Y-12374008D02*
X12796253Y-12383531D01*
X12796253Y-12383531D02*
X12805777Y-12402579D01*
X12805777Y-12402579D02*
X12815301Y-12440674D01*
X12815301Y-12440674D02*
X12815301Y-12488293D01*
X12815301Y-12488293D02*
X12805777Y-12526388D01*
X12805777Y-12526388D02*
X12796253Y-12545436D01*
X12796253Y-12545436D02*
X12786729Y-12554960D01*
X12786729Y-12554960D02*
X12767682Y-12564484D01*
X12767682Y-12564484D02*
X12748634Y-12564484D01*
X12748634Y-12564484D02*
X12729586Y-12554960D01*
X12729586Y-12554960D02*
X12720063Y-12545436D01*
X12720063Y-12545436D02*
X12710539Y-12526388D01*
X12710539Y-12526388D02*
X12701015Y-12488293D01*
X12701015Y-12488293D02*
X12701015Y-12440674D01*
X12701015Y-12440674D02*
X12710539Y-12402579D01*
X12710539Y-12402579D02*
X12720063Y-12383531D01*
X12720063Y-12383531D02*
X12729586Y-12374008D01*
X12729586Y-12374008D02*
X12748634Y-12364484D01*
X12901015Y-12545436D02*
X12910539Y-12554960D01*
X12910539Y-12554960D02*
X12901015Y-12564484D01*
X12901015Y-12564484D02*
X12891491Y-12554960D01*
X12891491Y-12554960D02*
X12901015Y-12545436D01*
X12901015Y-12545436D02*
X12901015Y-12564484D01*
X13034348Y-12364484D02*
X13053396Y-12364484D01*
X13053396Y-12364484D02*
X13072444Y-12374008D01*
X13072444Y-12374008D02*
X13081967Y-12383531D01*
X13081967Y-12383531D02*
X13091491Y-12402579D01*
X13091491Y-12402579D02*
X13101015Y-12440674D01*
X13101015Y-12440674D02*
X13101015Y-12488293D01*
X13101015Y-12488293D02*
X13091491Y-12526388D01*
X13091491Y-12526388D02*
X13081967Y-12545436D01*
X13081967Y-12545436D02*
X13072444Y-12554960D01*
X13072444Y-12554960D02*
X13053396Y-12564484D01*
X13053396Y-12564484D02*
X13034348Y-12564484D01*
X13034348Y-12564484D02*
X13015301Y-12554960D01*
X13015301Y-12554960D02*
X13005777Y-12545436D01*
X13005777Y-12545436D02*
X12996253Y-12526388D01*
X12996253Y-12526388D02*
X12986729Y-12488293D01*
X12986729Y-12488293D02*
X12986729Y-12440674D01*
X12986729Y-12440674D02*
X12996253Y-12402579D01*
X12996253Y-12402579D02*
X13005777Y-12383531D01*
X13005777Y-12383531D02*
X13015301Y-12374008D01*
X13015301Y-12374008D02*
X13034348Y-12364484D01*
X13167682Y-12364484D02*
X13301015Y-12364484D01*
X13301015Y-12364484D02*
X13215301Y-12564484D01*
X13405777Y-12450198D02*
X13386729Y-12440674D01*
X13386729Y-12440674D02*
X13377206Y-12431150D01*
X13377206Y-12431150D02*
X13367682Y-12412103D01*
X13367682Y-12412103D02*
X13367682Y-12402579D01*
X13367682Y-12402579D02*
X13377206Y-12383531D01*
X13377206Y-12383531D02*
X13386729Y-12374008D01*
X13386729Y-12374008D02*
X13405777Y-12364484D01*
X13405777Y-12364484D02*
X13443872Y-12364484D01*
X13443872Y-12364484D02*
X13462920Y-12374008D01*
X13462920Y-12374008D02*
X13472444Y-12383531D01*
X13472444Y-12383531D02*
X13481967Y-12402579D01*
X13481967Y-12402579D02*
X13481967Y-12412103D01*
X13481967Y-12412103D02*
X13472444Y-12431150D01*
X13472444Y-12431150D02*
X13462920Y-12440674D01*
X13462920Y-12440674D02*
X13443872Y-12450198D01*
X13443872Y-12450198D02*
X13405777Y-12450198D01*
X13405777Y-12450198D02*
X13386729Y-12459722D01*
X13386729Y-12459722D02*
X13377206Y-12469246D01*
X13377206Y-12469246D02*
X13367682Y-12488293D01*
X13367682Y-12488293D02*
X13367682Y-12526388D01*
X13367682Y-12526388D02*
X13377206Y-12545436D01*
X13377206Y-12545436D02*
X13386729Y-12554960D01*
X13386729Y-12554960D02*
X13405777Y-12564484D01*
X13405777Y-12564484D02*
X13443872Y-12564484D01*
X13443872Y-12564484D02*
X13462920Y-12554960D01*
X13462920Y-12554960D02*
X13472444Y-12545436D01*
X13472444Y-12545436D02*
X13481967Y-12526388D01*
X13481967Y-12526388D02*
X13481967Y-12488293D01*
X13481967Y-12488293D02*
X13472444Y-12469246D01*
X13472444Y-12469246D02*
X13462920Y-12459722D01*
X13462920Y-12459722D02*
X13443872Y-12450198D01*
X13548634Y-12364484D02*
X13681967Y-12364484D01*
X13681967Y-12364484D02*
X13596253Y-12564484D01*
X13748634Y-12364484D02*
X13748634Y-12402579D01*
X13824825Y-12364484D02*
X13824825Y-12402579D01*
X14120063Y-12640674D02*
X14110539Y-12631150D01*
X14110539Y-12631150D02*
X14091491Y-12602579D01*
X14091491Y-12602579D02*
X14081968Y-12583531D01*
X14081968Y-12583531D02*
X14072444Y-12554960D01*
X14072444Y-12554960D02*
X14062920Y-12507341D01*
X14062920Y-12507341D02*
X14062920Y-12469246D01*
X14062920Y-12469246D02*
X14072444Y-12421627D01*
X14072444Y-12421627D02*
X14081968Y-12393055D01*
X14081968Y-12393055D02*
X14091491Y-12374008D01*
X14091491Y-12374008D02*
X14110539Y-12345436D01*
X14110539Y-12345436D02*
X14120063Y-12335912D01*
X14186729Y-12383531D02*
X14196253Y-12374008D01*
X14196253Y-12374008D02*
X14215301Y-12364484D01*
X14215301Y-12364484D02*
X14262920Y-12364484D01*
X14262920Y-12364484D02*
X14281968Y-12374008D01*
X14281968Y-12374008D02*
X14291491Y-12383531D01*
X14291491Y-12383531D02*
X14301015Y-12402579D01*
X14301015Y-12402579D02*
X14301015Y-12421627D01*
X14301015Y-12421627D02*
X14291491Y-12450198D01*
X14291491Y-12450198D02*
X14177206Y-12564484D01*
X14177206Y-12564484D02*
X14301015Y-12564484D01*
X14472444Y-12431150D02*
X14472444Y-12564484D01*
X14424825Y-12354960D02*
X14377206Y-12497817D01*
X14377206Y-12497817D02*
X14501015Y-12497817D01*
X14729587Y-12564484D02*
X14729587Y-12364484D01*
X14815301Y-12564484D02*
X14815301Y-12459722D01*
X14815301Y-12459722D02*
X14805777Y-12440674D01*
X14805777Y-12440674D02*
X14786730Y-12431150D01*
X14786730Y-12431150D02*
X14758158Y-12431150D01*
X14758158Y-12431150D02*
X14739110Y-12440674D01*
X14739110Y-12440674D02*
X14729587Y-12450198D01*
X14939110Y-12564484D02*
X14920063Y-12554960D01*
X14920063Y-12554960D02*
X14910539Y-12545436D01*
X14910539Y-12545436D02*
X14901015Y-12526388D01*
X14901015Y-12526388D02*
X14901015Y-12469246D01*
X14901015Y-12469246D02*
X14910539Y-12450198D01*
X14910539Y-12450198D02*
X14920063Y-12440674D01*
X14920063Y-12440674D02*
X14939110Y-12431150D01*
X14939110Y-12431150D02*
X14967682Y-12431150D01*
X14967682Y-12431150D02*
X14986730Y-12440674D01*
X14986730Y-12440674D02*
X14996253Y-12450198D01*
X14996253Y-12450198D02*
X15005777Y-12469246D01*
X15005777Y-12469246D02*
X15005777Y-12526388D01*
X15005777Y-12526388D02*
X14996253Y-12545436D01*
X14996253Y-12545436D02*
X14986730Y-12554960D01*
X14986730Y-12554960D02*
X14967682Y-12564484D01*
X14967682Y-12564484D02*
X14939110Y-12564484D01*
X15120063Y-12564484D02*
X15101015Y-12554960D01*
X15101015Y-12554960D02*
X15091491Y-12535912D01*
X15091491Y-12535912D02*
X15091491Y-12364484D01*
X15272444Y-12554960D02*
X15253396Y-12564484D01*
X15253396Y-12564484D02*
X15215301Y-12564484D01*
X15215301Y-12564484D02*
X15196253Y-12554960D01*
X15196253Y-12554960D02*
X15186730Y-12535912D01*
X15186730Y-12535912D02*
X15186730Y-12459722D01*
X15186730Y-12459722D02*
X15196253Y-12440674D01*
X15196253Y-12440674D02*
X15215301Y-12431150D01*
X15215301Y-12431150D02*
X15253396Y-12431150D01*
X15253396Y-12431150D02*
X15272444Y-12440674D01*
X15272444Y-12440674D02*
X15281968Y-12459722D01*
X15281968Y-12459722D02*
X15281968Y-12478769D01*
X15281968Y-12478769D02*
X15186730Y-12497817D01*
X15358158Y-12554960D02*
X15377206Y-12564484D01*
X15377206Y-12564484D02*
X15415301Y-12564484D01*
X15415301Y-12564484D02*
X15434349Y-12554960D01*
X15434349Y-12554960D02*
X15443872Y-12535912D01*
X15443872Y-12535912D02*
X15443872Y-12526388D01*
X15443872Y-12526388D02*
X15434349Y-12507341D01*
X15434349Y-12507341D02*
X15415301Y-12497817D01*
X15415301Y-12497817D02*
X15386730Y-12497817D01*
X15386730Y-12497817D02*
X15367682Y-12488293D01*
X15367682Y-12488293D02*
X15358158Y-12469246D01*
X15358158Y-12469246D02*
X15358158Y-12459722D01*
X15358158Y-12459722D02*
X15367682Y-12440674D01*
X15367682Y-12440674D02*
X15386730Y-12431150D01*
X15386730Y-12431150D02*
X15415301Y-12431150D01*
X15415301Y-12431150D02*
X15434349Y-12440674D01*
X15510539Y-12640674D02*
X15520063Y-12631150D01*
X15520063Y-12631150D02*
X15539111Y-12602579D01*
X15539111Y-12602579D02*
X15548634Y-12583531D01*
X15548634Y-12583531D02*
X15558158Y-12554960D01*
X15558158Y-12554960D02*
X15567682Y-12507341D01*
X15567682Y-12507341D02*
X15567682Y-12469246D01*
X15567682Y-12469246D02*
X15558158Y-12421627D01*
X15558158Y-12421627D02*
X15548634Y-12393055D01*
X15548634Y-12393055D02*
X15539111Y-12374008D01*
X15539111Y-12374008D02*
X15520063Y-12345436D01*
X15520063Y-12345436D02*
X15510539Y-12335912D01*
X15872444Y-12640674D02*
X15862920Y-12631150D01*
X15862920Y-12631150D02*
X15843872Y-12602579D01*
X15843872Y-12602579D02*
X15834349Y-12583531D01*
X15834349Y-12583531D02*
X15824825Y-12554960D01*
X15824825Y-12554960D02*
X15815301Y-12507341D01*
X15815301Y-12507341D02*
X15815301Y-12469246D01*
X15815301Y-12469246D02*
X15824825Y-12421627D01*
X15824825Y-12421627D02*
X15834349Y-12393055D01*
X15834349Y-12393055D02*
X15843872Y-12374008D01*
X15843872Y-12374008D02*
X15862920Y-12345436D01*
X15862920Y-12345436D02*
X15872444Y-12335912D01*
X15948634Y-12431150D02*
X15948634Y-12564484D01*
X15948634Y-12450198D02*
X15958158Y-12440674D01*
X15958158Y-12440674D02*
X15977206Y-12431150D01*
X15977206Y-12431150D02*
X16005777Y-12431150D01*
X16005777Y-12431150D02*
X16024825Y-12440674D01*
X16024825Y-12440674D02*
X16034349Y-12459722D01*
X16034349Y-12459722D02*
X16034349Y-12564484D01*
X16158158Y-12564484D02*
X16139111Y-12554960D01*
X16139111Y-12554960D02*
X16129587Y-12545436D01*
X16129587Y-12545436D02*
X16120063Y-12526388D01*
X16120063Y-12526388D02*
X16120063Y-12469246D01*
X16120063Y-12469246D02*
X16129587Y-12450198D01*
X16129587Y-12450198D02*
X16139111Y-12440674D01*
X16139111Y-12440674D02*
X16158158Y-12431150D01*
X16158158Y-12431150D02*
X16186730Y-12431150D01*
X16186730Y-12431150D02*
X16205777Y-12440674D01*
X16205777Y-12440674D02*
X16215301Y-12450198D01*
X16215301Y-12450198D02*
X16224825Y-12469246D01*
X16224825Y-12469246D02*
X16224825Y-12526388D01*
X16224825Y-12526388D02*
X16215301Y-12545436D01*
X16215301Y-12545436D02*
X16205777Y-12554960D01*
X16205777Y-12554960D02*
X16186730Y-12564484D01*
X16186730Y-12564484D02*
X16158158Y-12564484D01*
X16281968Y-12431150D02*
X16358158Y-12431150D01*
X16310539Y-12364484D02*
X16310539Y-12535912D01*
X16310539Y-12535912D02*
X16320063Y-12554960D01*
X16320063Y-12554960D02*
X16339111Y-12564484D01*
X16339111Y-12564484D02*
X16358158Y-12564484D01*
X16577206Y-12431150D02*
X16577206Y-12631150D01*
X16577206Y-12440674D02*
X16596253Y-12431150D01*
X16596253Y-12431150D02*
X16634349Y-12431150D01*
X16634349Y-12431150D02*
X16653396Y-12440674D01*
X16653396Y-12440674D02*
X16662920Y-12450198D01*
X16662920Y-12450198D02*
X16672444Y-12469246D01*
X16672444Y-12469246D02*
X16672444Y-12526388D01*
X16672444Y-12526388D02*
X16662920Y-12545436D01*
X16662920Y-12545436D02*
X16653396Y-12554960D01*
X16653396Y-12554960D02*
X16634349Y-12564484D01*
X16634349Y-12564484D02*
X16596253Y-12564484D01*
X16596253Y-12564484D02*
X16577206Y-12554960D01*
X16786730Y-12564484D02*
X16767682Y-12554960D01*
X16767682Y-12554960D02*
X16758158Y-12535912D01*
X16758158Y-12535912D02*
X16758158Y-12364484D01*
X16948635Y-12564484D02*
X16948635Y-12459722D01*
X16948635Y-12459722D02*
X16939111Y-12440674D01*
X16939111Y-12440674D02*
X16920063Y-12431150D01*
X16920063Y-12431150D02*
X16881968Y-12431150D01*
X16881968Y-12431150D02*
X16862920Y-12440674D01*
X16948635Y-12554960D02*
X16929587Y-12564484D01*
X16929587Y-12564484D02*
X16881968Y-12564484D01*
X16881968Y-12564484D02*
X16862920Y-12554960D01*
X16862920Y-12554960D02*
X16853396Y-12535912D01*
X16853396Y-12535912D02*
X16853396Y-12516865D01*
X16853396Y-12516865D02*
X16862920Y-12497817D01*
X16862920Y-12497817D02*
X16881968Y-12488293D01*
X16881968Y-12488293D02*
X16929587Y-12488293D01*
X16929587Y-12488293D02*
X16948635Y-12478769D01*
X17015301Y-12431150D02*
X17091492Y-12431150D01*
X17043873Y-12364484D02*
X17043873Y-12535912D01*
X17043873Y-12535912D02*
X17053396Y-12554960D01*
X17053396Y-12554960D02*
X17072444Y-12564484D01*
X17072444Y-12564484D02*
X17091492Y-12564484D01*
X17234349Y-12554960D02*
X17215301Y-12564484D01*
X17215301Y-12564484D02*
X17177206Y-12564484D01*
X17177206Y-12564484D02*
X17158158Y-12554960D01*
X17158158Y-12554960D02*
X17148635Y-12535912D01*
X17148635Y-12535912D02*
X17148635Y-12459722D01*
X17148635Y-12459722D02*
X17158158Y-12440674D01*
X17158158Y-12440674D02*
X17177206Y-12431150D01*
X17177206Y-12431150D02*
X17215301Y-12431150D01*
X17215301Y-12431150D02*
X17234349Y-12440674D01*
X17234349Y-12440674D02*
X17243873Y-12459722D01*
X17243873Y-12459722D02*
X17243873Y-12478769D01*
X17243873Y-12478769D02*
X17148635Y-12497817D01*
X17415301Y-12564484D02*
X17415301Y-12364484D01*
X17415301Y-12554960D02*
X17396254Y-12564484D01*
X17396254Y-12564484D02*
X17358158Y-12564484D01*
X17358158Y-12564484D02*
X17339111Y-12554960D01*
X17339111Y-12554960D02*
X17329587Y-12545436D01*
X17329587Y-12545436D02*
X17320063Y-12526388D01*
X17320063Y-12526388D02*
X17320063Y-12469246D01*
X17320063Y-12469246D02*
X17329587Y-12450198D01*
X17329587Y-12450198D02*
X17339111Y-12440674D01*
X17339111Y-12440674D02*
X17358158Y-12431150D01*
X17358158Y-12431150D02*
X17396254Y-12431150D01*
X17396254Y-12431150D02*
X17415301Y-12440674D01*
X17491492Y-12640674D02*
X17501016Y-12631150D01*
X17501016Y-12631150D02*
X17520063Y-12602579D01*
X17520063Y-12602579D02*
X17529587Y-12583531D01*
X17529587Y-12583531D02*
X17539111Y-12554960D01*
X17539111Y-12554960D02*
X17548635Y-12507341D01*
X17548635Y-12507341D02*
X17548635Y-12469246D01*
X17548635Y-12469246D02*
X17539111Y-12421627D01*
X17539111Y-12421627D02*
X17529587Y-12393055D01*
X17529587Y-12393055D02*
X17520063Y-12374008D01*
X17520063Y-12374008D02*
X17501016Y-12345436D01*
X17501016Y-12345436D02*
X17491492Y-12335912D01*
M02*
